<?xml version="1.0" encoding="utf-8"?>
<!-- Generator: Adobe Illustrator 25.0.0, SVG Export Plug-In . SVG Version: 6.00 Build 0)  -->
<svg version="1.1" id="Capa_1" xmlns="http://www.w3.org/2000/svg" xmlns:xlink="http://www.w3.org/1999/xlink" x="0px" y="0px"
	 viewBox="0 0 455.7 455.7" style="enable-background:new 0 0 455.7 455.7;" xml:space="preserve">
<style type="text/css">
	.st0{fill:#F4991A;}
	.st1{fill:#FFFFFF;}
</style>
<g>
	<circle class="st0" cx="227.9" cy="227.9" r="227.9"/>
	<circle class="st1" cx="227.9" cy="227.9" r="165.3"/>
	<g>
		<path class="st0" d="M318.3,218.6c13.3-5.6,23.7-13.5,31.1-23.5c7.4-10,11.2-21.9,11.2-35.7c0-17.8-7-31.5-21.1-41.1
			c-14.1-9.6-34.4-14.4-61-14.4H168c-5.4,0-10.1,3.8-11.2,9.2l-14.7,73.3c-1.2,6,3.4,11.6,9.5,11.6h46.4c4.6,0,8.6-3.3,9.5-7.8
			l5.7-28.7c1.1-5.3,5.7-9.2,11.2-9.2h38c18.7,0,28.1,6.2,28.1,18.6c0,8.8-3.1,15.5-9.3,20.1c-6.2,4.6-15.3,6.9-27.2,6.9h-40.1
			c-4.6,0-8.6,3.2-9.5,7.7l-6.5,31.8c-0.7,3.5,2,6.8,5.5,6.8h52.3c8.6,0,15.3,1.6,20.3,4.9c5,3.3,7.4,8.3,7.4,15.1
			c0,9.2-3.4,16.2-10.1,21c-6.8,4.7-16.1,7.1-28.1,7.1h-48.9c-4.8,0-8.4-4.4-7.5-9.1l6.2-31.3c0.8-3.9-2.2-7.6-6.2-7.6h-50.3
			c-4.6,0-8.6,3.3-9.5,7.8l-15.9,79.5c-0.9,4.7,2.7,9.2,7.5,9.2h120.9c32.2,0,58.4-6.4,78.5-19.1c20.1-12.7,30.1-31.4,30.1-56
			c0-10.8-2.8-20.2-8.3-28.2C336.3,229.4,328.4,223.1,318.3,218.6z"/>
		<path class="st0" d="M103.1,211.4h19.6c2.2,0,4.2-1.6,4.6-3.8l6.6-33.7c0.6-2.9-1.6-5.6-4.6-5.6h-19.6c-2.2,0-4.2,1.6-4.6,3.8
			l-6.6,33.7C98,208.7,100.2,211.4,103.1,211.4z"/>
		<path class="st0" d="M115.6,260.9l6.6-33.7c0.6-2.9-1.6-5.6-4.6-5.6H97.9c-2.2,0-4.2,1.6-4.6,3.8l-6.6,33.7
			c-0.6,2.9,1.6,5.6,4.6,5.6H111C113.2,264.6,115.1,263.1,115.6,260.9z"/>
		<path class="st0" d="M187.9,207.6h-42.7c-5.7,0-10.6,4-11.7,9.6l-1.4,7c-1,5,2.8,9.6,7.9,9.6h44c2,0,3.8-1.4,4.2-3.4l3.7-18.1
			C192.2,209.9,190.4,207.6,187.9,207.6z"/>
	</g>
</g>
</svg>
