<?xml version="1.0" encoding="UTF-8" standalone="no"?>
<svg width="110px" height="110px" viewBox="0 0 110 110" version="1.1" xmlns="http://www.w3.org/2000/svg" xmlns:xlink="http://www.w3.org/1999/xlink">
    <!-- Generator: Sketch 3.8.3 (29802) - http://www.bohemiancoding.com/sketch -->
    <title>bitcoin-topup</title>
    <desc>Created with Sketch.</desc>
    <defs></defs>
    <g id="Screens" stroke="none" stroke-width="1" fill="none" fill-rule="evenodd">
        <g id="Overpaid---Immediate--Copy-2" transform="translate(-352.000000, -236.000000)">
            <g id="bitcoin-topup" transform="translate(353.000000, 237.000000)">
                <g id="Group" transform="translate(0.341463, 0.341463)" stroke="#50E3C2" stroke-width="2">
                    <path d="M107.317073,53.6585366 C107.317073,83.1707317 83.1707317,107.317073 53.6585366,107.317073 C24.1463415,107.317073 0,83.1707317 0,53.6585366 C0,24.1463415 24.1463415,0 53.6585366,0 C74.8536585,0 93.3658537,12.3414634 101.95122,30.3170732" id="Shape"></path>
                    <polyline id="Shape" points="104.634146 10.7317073 101.95122 30.0487805 85.8536585 27.902439"></polyline>
                </g>
                <g id="top-up" transform="translate(20.463415, 17.489966)"></g>
                <path d="M51.906321,29.2490103 C51.906321,28.6339821 52.4042009,28.1653893 52.9899419,28.1653893 C53.575683,28.1653893 54.0735629,28.6339821 54.0735629,29.2490103 L54.0735629,79.5641667 L51.906321,79.5641667 L51.906321,29.2490103 Z M41.8022878,54.9337554 L25.6065477,54.9337554 L33.7190613,33.3491976 L41.8022878,54.9337554 Z M67.9849129,83.8693635 C67.9849129,81.4971122 66.0812545,79.5641667 63.7090032,79.5641667 L56.2115177,79.5641667 L56.2115177,38.8258765 C62.5375211,35.1649949 64.9683465,34.7549762 71.0307664,38.0644131 L61.6296225,63.1341302 C61.6003354,63.2512784 61.5710484,63.3684266 61.5710484,63.5148619 C61.5710484,63.6612971 61.6296225,63.8077324 61.6881966,63.9541677 C62.3325117,67.9372068 66.8134308,71.0123473 72.2608226,71.0123473 C77.7375014,71.0123473 82.2184205,67.9372068 82.8627356,63.9541677 C82.9505968,63.8077324 82.9798839,63.6612971 82.9798839,63.5148619 C82.9798839,63.3684266 82.9505968,63.2512784 82.8920227,63.1341302 L82.9213097,63.1341302 L73.8130364,38.8258765 L73.3151565,36.7464957 C65.1733558,31.8262709 61.6589095,33.2320494 56.2115177,36.2193288 L56.2115177,29.2490103 C56.2115177,27.4625 54.7764521,26.0274345 52.9899419,26.0274345 C51.379154,26.0274345 50.0612367,27.2282036 49.8269402,28.7511304 C44.3502614,25.9981474 41.333695,24.0652019 32.6354403,29.2490103 L32.2547086,31.1526687 L23.0585741,55.6366447 L23.0878612,55.6366447 C23.0292871,55.7537929 23,55.8709411 23,56.0173764 C23,56.1638116 23.0292871,56.3102469 23.1171482,56.4566822 C23.7614634,60.4397213 28.2423824,63.5148619 33.7190613,63.5148619 C39.1664531,63.5148619 43.6766592,60.4397213 44.3209743,56.4566822 C44.3795484,56.3102469 44.4088355,56.1638116 44.4088355,56.0173764 C44.4088355,55.8709411 44.3795484,55.7537929 44.3502614,55.6366447 L34.9491175,30.5376406 C42.0072972,26.6717496 44.115965,28.4582598 49.7683661,31.2991039 L49.7683661,79.5641667 L42.2708807,79.5641667 C39.8986294,79.5641667 37.994971,81.4971122 37.994971,83.8693635 L37.994971,86.0073183 L67.9849129,86.0073183 L67.9849129,83.8693635 Z M72.2608226,40.8466831 L80.3733362,62.4312409 L64.177596,62.4312409 L72.2608226,40.8466831 Z M33.7190613,61.376907 C29.7945962,61.376907 26.4851593,59.5611098 25.4601124,57.0717103 L41.9487231,57.0717103 C40.9236762,59.5611098 37.6435263,61.376907 33.7190613,61.376907 L33.7190613,61.376907 Z M72.2608226,68.8743925 C68.3363575,68.8743925 65.0562076,67.0585952 64.0311608,64.5691958 L80.5197714,64.5691958 C79.4947246,67.0585952 76.1852876,68.8743925 72.2608226,68.8743925 L72.2608226,68.8743925 Z M63.7090032,81.7314086 C64.8804853,81.7314086 65.846958,82.6685943 65.846958,83.8693635 L40.1329258,83.8693635 C40.1329258,82.6685943 41.0993985,81.7314086 42.2708807,81.7314086 L63.7090032,81.7314086 Z" id="scales" fill="#D3D3D3"></path>
            </g>
        </g>
    </g>
</svg>