<svg width="150" height="100" viewBox="0 0 5220 720"  xmlns="http://www.w3.org/2000/svg">
<rect width="5220" height="720" fill="white"/>
<path d="M0 435.197L229.609 291.597V288.121L0 144.259V29.0508L334.901 245.894V333.824L0 550.798V435.197Z" fill="#FF3300"/>
<path d="M486.969 623.844H902.627V719.643H486.969V623.844Z" fill="#FF3300"/>
<path d="M993.879 291.2C993.879 106.422 1084.61 0 1214.37 0C1344.13 0 1434.86 106.422 1434.86 291.2C1434.86 479.061 1344.13 587.581 1214.37 587.581C1084.61 587.581 993.879 479.061 993.879 291.2ZM1345.12 291.2C1345.12 155.01 1293.16 75.9967 1214.37 75.9967C1135.58 75.9967 1083.62 155.01 1083.62 291.2C1083.62 430.473 1135.58 511.584 1214.37 511.584C1293.16 511.584 1344.85 430.473 1344.85 291.2H1345.12Z" fill="#FF3300"/>
<path d="M1593.29 154.29H1663.81L1670.37 205.37H1673.13C1711.31 169.634 1764.71 144.258 1814.44 144.258C1925.96 144.258 1988.02 228.713 1988.02 359.855C1988.02 504.111 1897.95 587.911 1797.77 587.911C1759.13 587.911 1713.54 568.829 1677.39 535.454H1675.29L1679.43 612.237V749.936H1593.29V154.29ZM1899.65 359.855C1899.65 271.269 1867.44 215.599 1791.21 215.599C1756.57 215.599 1717.93 232.713 1679.69 272.121V472.112C1714.79 503.914 1754.61 515.455 1781.57 515.455C1848.75 515.717 1899.65 459.851 1899.65 359.855Z" fill="#FF3300"/>
<path d="M2118.96 365.035C2118.96 227.336 2222.75 143.93 2335.98 143.93C2460.16 143.93 2530.82 225.434 2530.82 343.527C2530.67 359.209 2529.35 374.858 2526.88 390.345H2178.73V327.2H2473.22L2454.52 348.249C2454.52 256.449 2410.17 210.55 2338.47 210.55C2264.41 210.55 2203.66 265.17 2203.66 364.904C2203.66 468.833 2268.8 520.044 2359.79 520.044C2407.09 520.044 2445.08 505.75 2483.39 482.8L2513.56 537.29C2464.7 569.886 2407.32 587.378 2348.57 587.582C2220.39 587.582 2118.96 505.947 2118.96 365.035Z" fill="#FF3300"/>
<path d="M2658.41 154.29H2729.07L2735.63 221.697H2739.04C2781.55 178.289 2829.83 144.258 2895.17 144.258C2994.1 144.258 3039.17 205.042 3039.17 315.201V577.026H2952.9V326.152C2952.9 252.319 2928.11 218.222 2865.39 218.222C2819.47 218.222 2788.31 240.844 2744.68 285.563V577.026H2658.41V154.29Z" fill="#FF3300"/>
<path d="M3208.36 504.308L3259.46 444.376C3303 486.486 3360.93 510.468 3421.5 511.455C3493.27 511.455 3533.03 478.669 3533.03 432.77C3533.03 377.362 3491.63 361.953 3435.41 338.217L3355.57 303.333C3297.64 280.514 3234.21 238.614 3234.21 155.143C3234.21 66.8186 3313.65 0.001814 3425.64 0.001814C3492.01 -0.442962 3555.93 25.0654 3603.75 71.0807L3558.87 126.554C3521.22 93.051 3472.3 74.9951 3421.9 75.9985C3362.2 75.9985 3322.11 103.604 3322.11 150.028C3322.11 199.206 3371.05 217.173 3420.98 236.516L3497.93 270.416C3569.04 298.087 3622.18 339.528 3622.18 422.344C3622.18 513.356 3545.36 587.583 3416.78 587.583C3339.11 587.998 3264.34 558.123 3208.36 504.308V504.308Z" fill="black"/>
<path d="M3762.96 465.557C3762.96 370.741 3849.04 324.055 4062.7 308.186C4059.62 255.73 4031.54 213.896 3956.3 213.896C3905.13 213.896 3854.68 237.304 3813.28 261.5L3780.48 203.994C3827.98 174.684 3898.57 144.062 3971.78 144.062C4088.42 144.062 4148.91 210.945 4148.91 322.678V577.027H4077.73L4070.84 522.144H4068.08C4022.82 557.553 3963.97 587.715 3906.04 587.715C3825.16 587.584 3762.96 540.045 3762.96 465.557ZM4062.7 462.278V363.266C3896.79 375.134 3847.26 408.576 3847.26 459C3847.26 501.489 3885.38 519.063 3930.65 519.063C3975.91 519.063 4018.88 497.883 4062.7 462.278Z" fill="black"/>
<path d="M4388.81 409.884V222.941H4272.17V158.813L4392.16 154.289L4403.44 20.2617H4475.02V154.289H4674.64V222.941H4475.02V410.146C4475.02 482.864 4500.73 518.076 4577.29 518.076C4610.27 517.981 4642.96 511.847 4673.73 499.979L4691.24 562.992C4648.39 578.951 4603.07 587.274 4557.35 587.581C4430.86 587.581 4388.81 516.043 4388.81 409.884Z" fill="black"/>
<path d="M4818.71 521.815L4857.09 466.014C4909.9 502.948 4972.98 522.353 5037.43 521.487C5102.31 521.487 5133.34 495.259 5133.34 463.85C5133.34 433.95 5115.76 415 5009.22 393.034C4897.7 369.887 4845.21 331.2 4845.21 267.203C4845.21 196.518 4908.85 143.93 5025.95 143.93C5093.26 143.93 5157.55 170.158 5199.93 198.878L5159.45 252.646C5117.79 224.668 5068.79 209.592 5018.6 209.304C4955.62 209.304 4931.28 234.155 4931.28 263.138C4931.28 295.923 4965.07 309.037 5048.12 326.938C5185.89 357.101 5220.33 392.509 5220.33 458.736C5220.33 529.487 5151.71 587.582 5026.8 587.582C4952.47 586.641 4880.07 563.76 4818.71 521.815V521.815Z" fill="black"/>
</svg>
