<?xml version="1.0" encoding="UTF-8" standalone="no"?>
<svg
   width="150"
   height="100"
   style="clip-rule:evenodd;fill-rule:evenodd;image-rendering:optimizeQuality;shape-rendering:geometricPrecision;text-rendering:geometricPrecision"
   version="1.1"
   id="svg587"
   xml:space="preserve"
   xmlns="http://www.w3.org/2000/svg"
   xmlns:svg="http://www.w3.org/2000/svg"><defs
     id="defs591" /><g
     transform="matrix(0.37242094,0,0,0.37242094,0,25.538247)"
     id="g585"><path
       style="clip-rule:evenodd;fill:#1e2127;fill-opacity:1;fill-rule:evenodd;stroke-width:0.299231;image-rendering:optimizeQuality;shape-rendering:geometricPrecision;text-rendering:geometricPrecision"
       d="M 0,-68.573606 H 402.77005 V 199.93976 H 0 Z"
       id="path579" /><path
       class="cls-2"
       d="m 155.27323,72.339343 h 10.53 c 0.84,0 1.22,-0.64 0.9,-1.48 l -17.6,-42 a 2,2 0 0 0 -2.12,-1.32 h -14.55 a 2,2 0 0 0 -2,1.34 l -19.63,46.77 c -0.32,0.84 0.06,1.48 0.83,1.48 h 13.7 a 1.43,1.43 0 0 1 1.32,1.93 l -9.7,24.799997 30.55,-32.629997 a 1,1 0 0 0 -0.7,-1.69 h -17.27 a 1.42,1.42 0 0 1 -1.44,-1.4 1.27,1.27 0 0 1 0.12,-0.6 l 5.06,-12.91 6.86,-17.47 6.78,17.55 h -7.54 a 1.42,1.42 0 0 0 -1.32,0.9 l -2.83,7.22 a 1.43,1.43 0 0 0 0.81,1.84 1.52,1.52 0 0 0 0.51,0.09 h 13.26 a 1.42,1.42 0 0 1 1.33,0.91 l 2.08,5.36 a 1.92,1.92 0 0 0 2.06,1.31 z m 62.65,0 h 37.42 a 1.3,1.3 0 0 0 1.45,-1.12 0.94,0.94 0 0 0 0,-0.29 v -7.49 a 1.31,1.31 0 0 0 -1.17,-1.42 1.51,1.51 0 0 0 -0.3,0 h -26 v -33.07 a 1.35,1.35 0 0 0 -1.28,-1.42 h -10.16 a 1.29,1.29 0 0 0 -1.46,1.11 1,1 0 0 0 0,0.3 v 42 a 1.29,1.29 0 0 0 1.19,1.4 1.16,1.16 0 0 0 0.31,0 z m 45.36,0 h 42 a 1.3,1.3 0 0 0 1.51,-1 1.45,1.45 0 0 0 0,-0.36 v -7.54 a 1.32,1.32 0 0 0 -1.2,-1.42 h -30.85 v -7.31 h 25.59 a 1.33,1.33 0 0 0 1.47,-1.17 1.77,1.77 0 0 0 0,-0.23 v -7 a 1.34,1.34 0 0 0 -1.24,-1.42 h -25.82 v -7 h 30.59 a 1.31,1.31 0 0 0 1.47,-1.18 1.71,1.71 0 0 0 0,-0.32 v -7.44 a 1.31,1.31 0 0 0 -1.17,-1.42 1.51,1.51 0 0 0 -0.3,0 h -42 a 1.31,1.31 0 0 0 -1.52,1 1.53,1.53 0 0 0 0,0.37 v 42 a 1.3,1.3 0 0 0 1.19,1.4 1.41,1.41 0 0 0 0.28,0.04 z m -146.69,-44.8 h -10.18 a 1.71,1.71 0 0 0 -1.85,1.41 l -7.679996,32.89 -7.17,-32.89 a 1.65,1.65 0 0 0 -1.79,-1.41 h -12.74 a 1.71,1.71 0 0 0 -1.85,1.41 l -7.17,32.89 -7.68,-32.89 a 1.65,1.65 0 0 0 -1.79,-1.41 h -10.71 c -0.9,0 -1.28,0.51 -1.09,1.41 l 10.88,42 a 1.69,1.69 0 0 0 1.79,1.41 h 15.64 a 1.65,1.65 0 0 0 1.78,-1.41 l 6.27,-28.31 6.34,28.29 a 1.65,1.65 0 0 0 1.79,1.41 h 15.599996 a 1.67,1.67 0 0 0 1.8,-1.41 l 10.87,-42 c 0.22,-0.88 -0.17,-1.39 -1.06,-1.39 z m 239.84,0 h -43.52 a 1.29,1.29 0 0 0 -1.46,1.11 1,1 0 0 0 0,0.3 v 7.48 a 1.31,1.31 0 0 0 1.17,1.42 1.51,1.51 0 0 0 0.3,0 h 15.29 v 33.08 a 1.31,1.31 0 0 0 1.17,1.42 1.61,1.61 0 0 0 0.31,0 h 10 a 1.32,1.32 0 0 0 1.46,-1.18 1.77,1.77 0 0 0 0,-0.23 v -33.1 h 15.3 a 1.29,1.29 0 0 0 1.46,-1.13 1,1 0 0 0 0,-0.3 v -7.46 a 1.3,1.3 0 0 0 -1.17,-1.42 1.15,1.15 0 0 0 -0.31,0.01 z m -183.87,44.8 h 37.42 a 1.29,1.29 0 0 0 1.46,-1.11 1,1 0 0 0 0,-0.3 v -7.49 a 1.31,1.31 0 0 0 -1.17,-1.42 1.51,1.51 0 0 0 -0.3,0 h -25.99 v -33.07 a 1.36,1.36 0 0 0 -1.28,-1.42 h -10.14 a 1.29,1.29 0 0 0 -1.46,1.11 1,1 0 0 0 0,0.3 v 42 a 1.3,1.3 0 0 0 1.19,1.4 z m -3.84,9.6 h -11.53 c -3.13,0 -4.53,1.31 -4.53,4.36 v 10.41 c 0,3.05 1.4,4.359997 4.53,4.359997 h 11.53 c 3.16,0 4.51,-1.309997 4.51,-4.359997 v -10.41 c 0,-3.05 -1.35,-4.36 -4.51,-4.36 z m -1,13 c 0,1.48 -0.29,1.75 -2.07,1.75 h -5.51 c -1.76,0 -2.08,-0.27 -2.08,-1.75 v -6.81 c 0,-1.47 0.32,-1.75 2.08,-1.75 h 5.51 c 1.78,0 2.07,0.28 2.07,1.75 z m 51.87,-5.59 h -8.75 c -0.89,0 -1.16,-0.27 -1.16,-1 v -1.06 c 0,-0.68 0.27,-1 1.16,-1 h 6.7 c 0.65,0 0.89,0.28 0.89,0.85 v 0.16 a 0.55,0.55 0 0 0 0.49,0.6 0.29,0.29 0 0 0 0.13,0 h 4 a 0.55,0.55 0 0 0 0.62,-0.47 v -1.21 c 0,-3.21 -1.11,-4.28 -4.4,-4.28 h -10.47 c -3.19,0 -4.51,1.31 -4.51,4.36 v 2.84 c 0,3.06 1.32,4.36 4.51,4.36 h 8.74 c 0.9,0 1.17,0.28 1.17,1 v 1.21 c 0,0.68 -0.27,1 -1.17,1 h -7.34 c -0.62,0 -0.86,-0.27 -0.86,-0.85 v -0.15 a 0.56,0.56 0 0 0 -0.52,-0.6 h -4.1 a 0.55,0.55 0 0 0 -0.62,0.47 v 1.25 c 0,3.219997 1.08,4.279997 4.4,4.279997 h 11.2 c 3.19,0 4.51,-1.309997 4.51,-4.359997 v -3 c -0.06,-3.1 -1.41,-4.41 -4.57,-4.41 z m 85.43,0 h -8.75 c -0.89,0 -1.16,-0.27 -1.16,-1 v -1.06 c 0,-0.68 0.27,-1 1.16,-1 h 6.71 c 0.64,0 0.89,0.28 0.89,0.85 v 0.16 a 0.55,0.55 0 0 0 0.49,0.6 0.29,0.29 0 0 0 0.13,0 h 4 a 0.55,0.55 0 0 0 0.62,-0.47 v -1.21 c 0,-3.21 -1.11,-4.28 -4.4,-4.28 h -10.49 c -3.19,0 -4.51,1.31 -4.51,4.36 v 2.84 c 0,3.06 1.32,4.36 4.51,4.36 h 8.76 c 0.89,0 1.16,0.28 1.16,1 v 1.21 c 0,0.68 -0.27,1 -1.16,1 h -7.34 c -0.62,0 -0.86,-0.27 -0.86,-0.85 v -0.15 a 0.57,0.57 0 0 0 -0.54,-0.6 h -4.13 a 0.55,0.55 0 0 0 -0.62,0.47 v 1.25 c 0,3.219997 1.08,4.279997 4.4,4.279997 h 11.2 c 3.18,0 4.51,-1.309997 4.51,-4.359997 v -3 c 0,-3.1 -1.33,-4.41 -4.51,-4.41 z m 26.65,-7.36 h -4.21 a 0.56,0.56 0 0 0 -0.63,0.48 v 6.78 h -9.2 v -6.71 a 0.57,0.57 0 0 0 -0.53,-0.6 0.24,0.24 0 0 0 -0.12,0 h -4.18 a 0.55,0.55 0 0 0 -0.62,0.47 v 17.999997 a 0.55,0.55 0 0 0 0.49,0.6 0.29,0.29 0 0 0 0.13,0 h 4.18 a 0.58,0.58 0 0 0 0.65,-0.48 v -6.999997 h 9.2 v 6.839997 a 0.55,0.55 0 0 0 0.51,0.6 0.24,0.24 0 0 0 0.12,0 h 4.21 a 0.55,0.55 0 0 0 0.62,-0.47 V 82.499343 a 0.56,0.56 0 0 0 -0.5,-0.6 h -0.12 z m -137.62,0 h -17.07 a 0.55,0.55 0 0 0 -0.62,0.47 v 17.999997 a 0.55,0.55 0 0 0 0.49,0.6 0.29,0.29 0 0 0 0.13,0 h 4.19 a 0.58,0.58 0 0 0 0.65,-0.51 v -6.639997 h 10.16 a 0.57,0.57 0 0 0 0.64,-0.49 v -3.3 a 0.57,0.57 0 0 0 -0.53,-0.6 0.4,0.4 0 0 0 -0.11,0 h -10.18 v -3.19 h 12.3 a 0.55,0.55 0 0 0 0.62,-0.47 v -3.32 a 0.55,0.55 0 0 0 -0.49,-0.6 0.28,0.28 0 0 0 -0.13,0 z m 146.47,0 h -4.18 a 0.55,0.55 0 0 0 -0.62,0.47 v 17.999997 a 0.55,0.55 0 0 0 0.49,0.6 0.29,0.29 0 0 0 0.13,0 h 4.18 a 0.58,0.58 0 0 0 0.65,-0.48 V 82.579343 a 0.57,0.57 0 0 0 -0.54,-0.6 h -0.11 z m -100.28,0.6 a 0.83,0.83 0 0 0 -0.86,-0.57 h -6.16 a 0.82,0.82 0 0 0 -0.89,0.57 l -7.42,17.889997 c -0.14,0.36 0,0.63 0.38,0.63 h 4.45 a 0.81,0.81 0 0 0 0.86,-0.57 l 1,-2.679997 h 9.1 l 1,2.679997 a 0.8,0.8 0 0 0 0.87,0.57 h 4.69 c 0.33,0 0.49,-0.27 0.35,-0.63 z m -7,11 2.89,-7.52 2.92,7.52 z m 30.9,-11.6 h -18.34 a 0.55,0.55 0 0 0 -0.62,0.47 v 3.25 a 0.55,0.55 0 0 0 0.49,0.6 h 6.58 v 14.099997 a 0.55,0.55 0 0 0 0.49,0.6 0.29,0.29 0 0 0 0.13,0 h 4.21 a 0.57,0.57 0 0 0 0.62,-0.49 V 86.329343 h 6.46 a 0.55,0.55 0 0 0 0.62,-0.47 v -3.32 a 0.55,0.55 0 0 0 -0.49,-0.6 0.38,0.38 0 0 0 -0.15,0 z m 18.46,0 h -11.52 c -3.13,0 -4.54,1.31 -4.54,4.36 v 10.36 c 0,3.05 1.41,4.359997 4.54,4.359997 h 11.52 c 3.16,0 4.51,-1.309997 4.51,-4.359997 v -10.41 c 0,-3 -1.31,-4.36 -4.51,-4.36 z m -0.94,13 c 0,1.48 -0.3,1.75 -2.08,1.75 h -5.51 c -1.75,0 -2.07,-0.27 -2.07,-1.75 v -6.81 c 0,-1.47 0.32,-1.75 2.07,-1.75 h 5.51 c 1.78,0 2.08,0.28 2.08,1.75 z"
       style="fill:#fad228"
       id="path583" /></g><style
     id="style324">.st0{fill:#222221}.st1{fill:#272425}</style><style
     id="style1018">.st0{fill:#fff}.st1{fill:#ef8022}.st2{fill:#ffc214}.st3{fill:#f9f185}</style><style
     id="style1415">.st0{fill:#222221}.st1{fill:#272425}</style><style
     id="style1490">.st0{fill:#222221}.st1{fill:#272425}</style></svg>
