<?xml version="1.0" encoding="UTF-8" standalone="no"?>
<svg
   width="150"
   height="99.999985"
   style="clip-rule:evenodd;fill-rule:evenodd;image-rendering:optimizeQuality;shape-rendering:geometricPrecision;text-rendering:geometricPrecision"
   version="1.1"
   id="svg587"
   xml:space="preserve"
   xmlns="http://www.w3.org/2000/svg"
   xmlns:svg="http://www.w3.org/2000/svg"><defs
     id="defs591" /><style
     id="style324">.st0{fill:#222221}.st1{fill:#272425}</style><style
     id="style1018">.st0{fill:#fff}.st1{fill:#ef8022}.st2{fill:#ffc214}.st3{fill:#f9f185}</style><style
     id="style1415">.st0{fill:#222221}.st1{fill:#272425}</style><style
     id="style1490">.st0{fill:#222221}.st1{fill:#272425}</style><g
     id="g1201"
     transform="matrix(0.3745409,0,0,0.3745409,-0.1549883,-0.25837526)"><path
       fill="#29292e"
       d="M 0.41380825,-3.7e-4 H 400.90412 V 266.99317 H 0.41380825 Z"
       id="path1060"
       style="stroke-width:1.27734" /><g
       id="g1194"
       transform="matrix(1.3705738,0,0,1.3705738,25.222596,-41.239883)"><path
         fill-rule="evenodd"
         clip-rule="evenodd"
         d="M 121.3,96.28 A 0.57,0.57 0 0 0 120.8,96 h -14.87 c -0.21,0 -0.4,0.12 -0.5,0.31 L 84.89,136.02 77.91,96.48 A 0.57,0.57 0 0 0 77.34,96 H 62.37 a 0.57,0.57 0 0 0 -0.45,0.21 c -0.1,0.13 -0.15,0.3 -0.12,0.48 l 11.1,59.47 c 0.04,0.27 0.28,0.47 0.55,0.47 h 0.04 l 17.29,-1 c 0.2,-0.01 0.38,-0.13 0.47,-0.31 l 30.06,-58.47 c 0.1,-0.18 0.09,-0.4 -0.01,-0.57 z m 29.85,25.96 a 5.76,5.76 0 0 1 -2.5,3.77 c -0.62,0.41 -1.48,0.62 -2.54,0.62 h -11.92 l 2.52,-15.98 h 12.1 c 1.03,0 1.79,0.2 2.24,0.61 0.5,0.45 0.85,0.96 1.06,1.49 0.22,0.61 0.3,1.37 0.25,2.18 l -1.2,7.3 z m 16.48,-13.41 c -0.2,-1.8 -0.6,-3.4 -1.21,-4.75 a 12.03,12.03 0 0 0 -2.3,-3.44 c -0.9,-0.92 -1.85,-1.68 -2.83,-2.28 A 18.83,18.83 0 0 0 152.91,96 H 124.5 c -0.27,0 -0.5,0.2 -0.55,0.48 l -9.17,56.12 c -0.03,0.17 0.02,0.34 0.13,0.47 0.1,0.13 0.26,0.2 0.42,0.2 h 0.03 l 14.29,-0.84 a 0.56,0.56 0 0 0 0.52,-0.48 l 1.7,-10.57 h 13.91 c 3.16,-0.2 6.15,-0.98 8.88,-2.34 a 22.27,22.27 0 0 0 6.84,-5.61 c 2.2,-2.57 3.73,-6.23 4.55,-10.88 l 1.3,-7.53 c 0.38,-2.32 0.48,-4.4 0.29,-6.2 z M 223.43,96 h -14.45 a 0.58,0.58 0 0 0 -0.56,0.5 L 203.27,129.23 192.1,96.4 A 0.57,0.57 0 0 0 191.57,96 H 177.1 a 0.58,0.58 0 0 0 -0.56,0.5 l -8.82,56.06 c -0.03,0.18 0.02,0.37 0.14,0.5 0.1,0.13 0.26,0.2 0.42,0.2 l 14.71,-0.89 a 0.58,0.58 0 0 0 0.53,-0.5 l 3.68,-23.66 7.8,23 c 0.08,0.26 0.3,0.4 0.56,0.4 l 19.6,-1.19 a 0.58,0.58 0 0 0 0.53,-0.5 L 224,96.7 A 0.62,0.62 0 0 0 223.87,96.21 0.55,0.55 0 0 0 223.43,96 Z"
         fill="#ff3344"
         id="path1062" /><path
         fill-rule="evenodd"
         clip-rule="evenodd"
         d="M 61.65,96.2 A 0.58,0.58 0 0 0 61.21,96 H 46.29 C 46,96 45.76,96.2 45.71,96.5 L 35.3,159.3 a 0.6,0.6 0 0 0 0.58,0.69 h 0.04 l 15.16,-0.87 c 0.27,-0.02 0.5,-0.22 0.54,-0.5 L 61.78,96.7 a 0.59,0.59 0 0 0 -0.13,-0.48 z"
         fill="#ff3344"
         id="path1064" /><path
         fill-rule="evenodd"
         clip-rule="evenodd"
         d="M 48.55,96 H 32 c 0,0 -0.13,1.35 1.12,1.66 1.24,0.31 12.13,2.46 10.62,11.81 0,-0.03 4.68,-4.78 4.68,-4.78 z"
         fill="#ff3344"
         id="path1066" /></g></g></svg>
