<svg width="150" height="100" style="clip-rule:evenodd;fill-rule:evenodd;image-rendering:optimizeQuality;shape-rendering:geometricPrecision;text-rendering:geometricPrecision" version="1.1" id="svg587" xml:space="preserve" xmlns="http://www.w3.org/2000/svg"><style id="style324">.st2{fill:#ffc214}.st3{fill:#f9f185}.st0{fill:#222221}.st1{fill:#272425}</style><g id="g1019" transform="translate(32.944 14.24) scale(.43332)"><path style="clip-rule:evenodd;fill:#fff;fill-rule:evenodd;stroke-width:2.72371;image-rendering:optimizeQuality;shape-rendering:geometricPrecision;text-rendering:geometricPrecision" id="rect875-6" d="M-76.027-32.863h346.168v230.779H-76.027z"/><g id="g1189" transform="translate(14.295 -.156) scale(.85249)"><path style="fill:#004581;fill-opacity:1;fill-rule:evenodd;stroke:none;stroke-width:.125" d="M.293 105.014a99.143 99.143 0 0 1-.345-8.145C-.052 45.49 39.834 3.449 90.338 0L13.022 80.213A48.196 48.196 0 0 0 .293 105.014m96.763 88.964c-33.796 0-63.55-17.269-80.946-43.457l2.906 2.803c9.603 9.258 22.117 13.744 34.525 13.516 12.375-.221 24.692-5.15 33.938-14.698l-22.244-21.44c-3.332 3.413-7.777 5.172-12.252 5.267-4.515.081-9.054-1.551-12.52-4.894l-4.748-4.575c-3.461-3.332-5.255-7.806-5.337-12.321-.082-4.509 1.545-9.06 4.888-12.526l93.21-96.695c38.214 13.056 65.69 49.271 65.69 91.911 0 3.736-.216 7.418-.63 11.04a48.15 48.15 0 0 0-11.973-18.544l-4.742-4.572c-9.607-9.259-22.116-13.756-34.52-13.523-12.415.222-24.766 5.173-34.023 14.782L71.935 123.75l22.244 21.441 36.342-37.7c3.34-3.467 7.83-5.256 12.34-5.343 4.515-.087 9.048 1.543 12.52 4.887l4.737 4.574c3.46 3.333 5.26 7.806 5.342 12.322.076 4.504-1.55 9.06-4.887 12.527l-55.092 57.154a98.862 98.862 0 0 1-8.425.366" id="path890"/><path style="fill:#3384b9;fill-opacity:1;fill-rule:evenodd;stroke:none" d="M4376.22 2292.8h360.66v433.41c-17.35-55.88-47.59-108.64-90.81-153.48l-269.85-279.93" transform="matrix(.125 0 0 -.125 -397.891 479.489)" id="path892"/></g></g></svg>