<?xml version="1.0" encoding="UTF-8" standalone="no"?>
<svg
   width="150"
   height="100"
   style="clip-rule:evenodd;fill-rule:evenodd;image-rendering:optimizeQuality;shape-rendering:geometricPrecision;text-rendering:geometricPrecision"
   version="1.1"
   id="svg587"
   xml:space="preserve"
   xmlns="http://www.w3.org/2000/svg"
   xmlns:svg="http://www.w3.org/2000/svg"><defs
     id="defs591" /><style
     id="style324">.st0{fill:#222221}.st1{fill:#272425}</style><style
     id="style1018">.st0{fill:#fff}.st1{fill:#ef8022}.st2{fill:#ffc214}.st3{fill:#f9f185}</style><style
     id="style1415">.st0{fill:#222221}.st1{fill:#272425}</style><style
     id="style1490">.st0{fill:#222221}.st1{fill:#272425}</style><g
     id="g1507"
     transform="matrix(2.9617317,0,0,2.9617317,19.482437,-16.665634)"><rect
       style="clip-rule:evenodd;fill:#ffffff;fill-rule:evenodd;stroke-width:0.39849;image-rendering:optimizeQuality;shape-rendering:geometricPrecision;text-rendering:geometricPrecision"
       id="rect875-5"
       width="50.646046"
       height="33.76403"
       x="-6.5780606"
       y="5.6269898" /><g
       id="g376"
       transform="translate(0,-2.3633146)"><path
         class="st0"
         d="m -4.111288,23.204368 c 0,-3.524999 10.3125,-6.3375 23.0625,-6.3375 11.2125,0 20.55,2.2125 22.65,5.1375 -2.3625,-2.324999 -10.65,-4.0125 -20.5125,-4.0125 -11.7,0 -21.18749994,2.400001 -21.18749994,5.3625 0,2.9625 9.48749994,5.362501 21.18749994,5.362501 8.624999,0 16.0875,-1.312501 19.3875,-3.1875 -3.3375,2.3625 -11.7,4.049999 -21.4875,4.049999 -12.7875,0 -23.1,-2.849999 -23.1,-6.375"
         id="path1494"
         style="stroke-width:0.375" /><path
         class="st1"
         d="m 8.038712,33.141869 -0.1875,2.175 v 0.187499 c 0,0.0375 0,0.075 0.0375,0.1125 0.0375,0.0375 0.075,0.075 0.1125,0.075 0.075,0.0375 0.15,0.0375 0.225,0.0375 l -0.0375,0.075 h -1.0125 l -0.0375,-0.0375 h 0.0375 c 0.075,0 0.15,0 0.1875,-0.075 0.0375,-0.0375 0.075,-0.075 0.075,-0.1125 0.0375,-0.075 0.0375,-0.1875 0.0375,-0.299999 l 0.0375,-0.3375 h -0.75 l -0.2625,0.375 c -0.0375,0.0375 -0.075,0.112499 -0.1125,0.187499 v 0.1125 c 0,0.0375 0.0375,0.075 0.0375,0.1125 0.0375,0.0375 0.1125,0.0375 0.15,0.0375 l -0.0375,0.075 h -0.7875 v -0.075 c 0.075,0 0.1875001,-0.0375 0.2625,-0.1125 0.1125,-0.1125 0.225,-0.225 0.3375001,-0.374999 l 1.5374999,-2.1375 z m -0.375,0.674999 -0.75,1.0125 h 0.6375 z m 2.25,1.575 c -0.1125,0.15 -0.2625,0.2625 -0.4125,0.3375 -0.1125,0.075 -0.2625,0.1125 -0.4125,0.1125 -0.15,0 -0.3,-0.0375 -0.4125,-0.15 -0.1125,-0.1125 -0.15,-0.2625 -0.15,-0.412499 0,-0.1875 0.075,-0.412501 0.15,-0.562501 0.1125,-0.1875 0.2625,-0.3375 0.45,-0.449999 0.15,-0.1125 0.3375,-0.1875 0.5624999,-0.1875 0.1125001,0 0.2250001,0.0375 0.3000001,0.075 0.075,0.0375 0.1125,0.1125 0.1125,0.224999 0,0.075 -0.0375,0.15 -0.075,0.1875 -0.0375,0.075 -0.1125004,0.075 -0.1500004,0.075 -0.0375,0 -0.075,0 -0.1125,-0.0375 -0.0375,-0.0375 -0.0375,-0.075 -0.0375,-0.1125 v -0.075 c 0,-0.0375 0.0375,-0.0375 0.075,-0.075 0.0375,0 0.0375,-0.0375 0.075,-0.07499 v -0.0375 c 0,-0.0375 0,-0.0375 -0.0375,-0.075 -0.0375,-0.0375 -0.1125,-0.0375 -0.1500001,-0.0375 -0.1499999,0 -0.2624999,0.0375 -0.3749999,0.15 -0.15,0.112499 -0.225,0.224999 -0.3,0.374999 -0.1125,0.1875 -0.15,0.375001 -0.15,0.600001 0,0.1125 0.0375,0.224999 0.1125,0.299999 0.075,0.075 0.1875,0.1125 0.2999999,0.1125 0.1125001,0 0.1875001,-0.0375 0.3000001,-0.075 0.1124999,-0.075 0.225,-0.15 0.3375,-0.262499 z m 1.275,-1.8 -0.15,0.525001 h 0.3 l -0.0375,0.1125 h -0.300001 l -0.337499,1.125 c -0.0375,0.075 -0.0375,0.149999 -0.075,0.224999 v 0.0375 h 0.0375 c 0.0375,0 0.075,-0.0375 0.1125,-0.075 0.075,-0.075 0.15,-0.15 0.1875,-0.224999 l 0.075,0.0375 c -0.075,0.149999 -0.1875,0.262499 -0.3375,0.374999 -0.075,0.0375 -0.15,0.075 -0.225,0.075 -0.0375,0 -0.1125,0 -0.15,-0.0375 -0.0375,-0.0375 -0.075,-0.075 -0.075,-0.15 0,-0.1125 0.0375,-0.225 0.075,-0.299999 l 0.3,-1.125 h -0.300001 v -0.075 c 0.1125,-0.0375 0.2625,-0.075 0.3375,-0.1875 0.1125,-0.112501 0.225,-0.262501 0.3,-0.412501 z m 1.9125,0.525001 -0.3375,1.1625 c -0.0375,0.112499 -0.075,0.224999 -0.075,0.337499 v 0.0375 h 0.0375 c 0.0375,0 0.0375,0 0.075,-0.0375 0.075,-0.075 0.15,-0.15 0.1875,-0.225 l 0.07501,0.0375 c -0.07501,0.15 -0.1875,0.2625 -0.3,0.3375 -0.075,0.0375 -0.1125,0.075 -0.1875,0.075 -0.0375,0 -0.075,0 -0.1125,-0.0375 -0.075,0 -0.075,-0.0375 -0.075,-0.075 0,-0.075 0,-0.1125 0.0375,-0.1875 0.0375,-0.075 0.075,-0.299999 0.1875,-0.599999 -0.15,0.2625 -0.3375,0.524999 -0.5625,0.749999 -0.1125,0.1125 -0.2625,0.1875 -0.4125,0.1875 -0.0375,0 -0.1125,-0.0375 -0.15,-0.075 -0.0375,-0.0375 -0.075,-0.1125 -0.075,-0.15 0,-0.15 0.0375,-0.299999 0.075,-0.449999 l 0.1875,-0.600001 c 0.0375,-0.075 0.0375,-0.1875 0.075,-0.2625 v -0.0375 h -0.0375 c -0.0375,0 -0.075,0 -0.075,0.0375 -0.075,0.075 -0.1125,0.15 -0.1875,0.225 l -0.075,-0.075 c 0.075,-0.1125 0.1875,-0.224999 0.3,-0.337499 0.075,-0.0375 0.15,-0.075 0.225,-0.075 0.0375,0 0.075,0 0.1125,0.0375 0.0375,0.0375 0.0375,0.075 0.0375,0.1125 0,0.112499 -0.0375,0.262499 -0.075,0.374999 l -0.1875,0.637501 c -0.0375,0.1125 -0.075,0.224999 -0.075,0.299999 0,0.0375 0,0.0375 0.0375,0.075 0,0 0.0375,0.0375 0.075,0.0375 0.075,0 0.1125,-0.0375 0.15,-0.075 0.1125,-0.075 0.1875,-0.1875 0.2625,-0.299999 0.1125,-0.1125 0.1875,-0.2625 0.3,-0.412501 0.1125,-0.1875 0.1875,-0.4125 0.225,-0.599999 l 0.0375,-0.15 z m 1.95,-0.0375 -0.375,1.312499 -0.0375,0.1875 v 0.15 h 0.0375 c 0.0375,0 0.0375,0 0.075,-0.0375 0.075,-0.075 0.15,-0.15 0.1875,-0.225 l 0.075,0.0375 c -0.075,0.1125 -0.15,0.225 -0.2625,0.3 -0.075,0.075 -0.15,0.1125 -0.2625,0.1125 -0.0375,0 -0.075,0 -0.1125,-0.0375 -0.0375,-0.0375 -0.0375,-0.075 -0.0375,-0.1125 0,-0.075 0,-0.15 0.0375,-0.2625 l 0.0375,-0.149999 c -0.1125,0.187499 -0.2625,0.337499 -0.45,0.449999 -0.075,0.075 -0.1875,0.075 -0.3,0.075 -0.1125,0 -0.1875,-0.0375 -0.2625,-0.1125 -0.075,-0.075 -0.1125,-0.1875 -0.1125,-0.3 0,-0.224999 0.075,-0.449999 0.1875,-0.6375 0.1125,-0.225 0.2625,-0.4125 0.45,-0.524999 0.1125,-0.1125 0.2625,-0.15 0.4125,-0.15 0.075,0 0.15,0.0375 0.1875,0.075 0.075,0.0375 0.1125,0.112499 0.1125,0.187499 l 0.075,-0.224999 z m -0.675,0.1125 c -0.1125,0 -0.1875,0.0375 -0.262501,0.1125 -0.149999,0.149999 -0.262499,0.299999 -0.337499,0.487499 -0.1125,0.187501 -0.15,0.375001 -0.15,0.562501 0,0.075 0,0.149999 0.075,0.224999 0.0375,0.0375 0.075,0.075 0.15,0.075 0.15,0 0.3,-0.1125 0.45,-0.299999 0.1875,-0.225 0.3,-0.525001 0.3375,-0.825001 0,-0.075 0,-0.15 -0.075,-0.224999 -0.075,-0.1125 -0.1125,-0.1125 -0.1875,-0.1125 z m 1.9875,-1.0875 -0.675,2.287499 c -0.0375,0.075 -0.0375,0.15 -0.0375,0.225 0,0.0375 0.0375,0.075 0.075,0.075 0.0375,0 0.075,0 0.075,-0.0375 0.075,-0.075 0.15,-0.15 0.225,-0.2625 l 0.075,0.075 c -0.075,0.15 -0.1875,0.2625 -0.3375,0.375 -0.075,0.0375 -0.15,0.075 -0.225,0.075 -0.0375,0 -0.075,0 -0.1125,-0.0375 -0.0375,-0.0375 -0.0375,-0.075 -0.0375,-0.1125 0,-0.1125 0.0375,-0.1875 0.075,-0.3 L 15.9887,33.666862 c 0.0375,-0.075 0.0375,-0.15 0.075,-0.2625 0,-0.0375 0,-0.075 -0.0375,-0.075 -0.0375,-0.0375 -0.075,-0.0375 -0.1125,-0.0375 h -0.1125 v -0.075 z m 1.875,2.662499 v 0.075 h -1.0875 l 0.0375,-0.075 c 0.07499,0 0.15,0 0.225,-0.0375 0.0375,0 0.075,-0.0375 0.1125,-0.075 0.075,-0.1125 0.1125,-0.225 0.1125,-0.337499 l 0.45,-1.575001 c 0.0375,-0.1125 0.0375,-0.1875 0.075,-0.3 0,-0.0375 0,-0.075 -0.0375,-0.075 -0.0375,-0.0375 -0.0375,-0.0375 -0.075,-0.0375 -0.075,0 -0.15,-0.0375 -0.1875,0 l 0.0375,-0.075 h 1.0125 l -0.0375,0.075 c -0.075,0 -0.1125,0 -0.1875,0.0375 -0.0375,0.0375 -0.1125,0.075 -0.15,0.1125 -0.0375,0.1125 -0.075,0.225 -0.1125,0.3 l -0.45,1.575001 c -0.0375,0.075 -0.0375,0.187499 -0.075,0.262499 0,0.0375 0,0.075 0.0375,0.075 0.0375,0.0375 0.0375,0.0375 0.075,0.0375 0.075,0 0.15,0.0375 0.225,0.0375 z m 1.2,-1.687499 -0.2625,0.8625 c 0.149999,-0.262501 0.3375,-0.487501 0.5625,-0.7125 0.1125,-0.1125 0.225,-0.15 0.375,-0.15 0.075,0 0.1125,0.0375 0.15,0.075 0.0375,0.0375 0.075,0.1125 0.075,0.15 0,0.112499 -0.0375,0.224999 -0.075,0.299999 l -0.225,0.825 c 0,0.0375 -0.0375,0.1125 -0.0375,0.15 v 0.0375 h 0.0375 c 0.0375,0 0.0375,0 0.075,-0.0375 0.075,-0.075 0.15,-0.15 0.224999,-0.262499 l 0.07501,0.0375 c -0.07501,0.149999 -0.1875,0.262499 -0.3375,0.374999 -0.075,0.0375 -0.1125,0.075 -0.1875,0.075 -0.0375,0 -0.075,0 -0.1125,-0.0375 -0.0375,-0.0375 -0.0375,-0.075 -0.0375,-0.1125 0,-0.1125 0.0375,-0.225 0.075,-0.299999 l 0.225,-0.787501 c 0.0375,-0.075 0.0375,-0.15 0.0375,-0.225 0,-0.0375 -0.0375,-0.07499 -0.075,-0.07499 -0.0375,0 -0.075,0.0375 -0.1125,0.0375 -0.1125,0.07499 -0.225,0.187499 -0.3,0.299999 -0.1125,0.15 -0.225,0.337501 -0.3375,0.525001 -0.075,0.1125 -0.1125,0.262499 -0.15,0.374999 l -0.075,0.3 h -0.3 l 0.3375,-1.2 c 0.0375,-0.075 0.0375,-0.1875 0.075,-0.2625 0,-0.0375 0,-0.0375 -0.0375,-0.07499 h -0.337506 v -0.075 z m 1.1625,0.1125 0.5625,-0.1125 c 0.0375,0.1125 0.075,0.1875 0.1125,0.299999 0.0375,0.1875 0.075,0.3375 0.075,0.525 0,0.112501 0.0375,0.300001 0.0375,0.6375 0.150001,-0.187499 0.262501,-0.299999 0.300001,-0.337499 l 0.3,-0.412501 c 0.0375,-0.0375 0.075,-0.1125 0.075,-0.1875 0,-0.0375 0.0375,-0.075 0.0375,-0.1125 0,-0.0375 -0.0375,-0.075 -0.075,-0.1125 -0.0375,-0.0375 -0.075,-0.07499 -0.075,-0.149999 0,-0.0375 0,-0.075 0.0375,-0.1125 0.0375,-0.0375 0.075,-0.0375 0.1125,-0.0375 0.0375,0 0.1125,0.0375 0.15,0.075 0.0375,0.0375 0.075,0.1125 0.075,0.15 0,0.07499 0,0.112499 -0.0375,0.187499 -0.0375,0.1125 -0.1125,0.2625 -0.1875,0.3375 l -0.45,0.5625 c -0.0375,0.0375 -0.15,0.1875 -0.4125,0.45 h -0.075 c 0,-0.524999 -0.0375,-1.0125 -0.1875,-1.537499 -0.0375,-0.075 -0.075,-0.1125 -0.15,-0.1125 -0.1125,0.0375 -0.15,0.0375 -0.225,0 z m 2.1375,0.9 v 0.15 c 0,0.1125 0.0375,0.224999 0.1125,0.299999 0.075,0.075 0.1875,0.1125 0.3,0.1125 0.075,0 0.1875,0 0.2625,-0.0375 0.15,-0.075 0.2625,-0.15 0.375,-0.262499 l 0.0375,0.075 c -0.225,0.2625 -0.525,0.4125 -0.8625,0.45 -0.15,0 -0.3,-0.0375 -0.4125,-0.1875 -0.07501,-0.1125 -0.150001,-0.225 -0.150001,-0.374999 0,-0.225 0.07501,-0.412501 0.187501,-0.600001 0.1125,-0.1875 0.2625,-0.3375 0.45,-0.449999 0.15,-0.1125 0.3375,-0.15 0.5625,-0.15 0.1125,0 0.225,0.0375 0.3,0.075 0.075,0.0375 0.1125,0.1125 0.1125,0.187499 0,0.1125 -0.0375,0.225 -0.1125,0.3 -0.15,0.15 -0.3,0.262501 -0.4875,0.300001 -0.2625,0.075 -0.45,0.1125 -0.675,0.1125 z m 0,-0.075 c 0.15,0 0.3,-0.0375 0.45,-0.112501 0.15,-0.0375 0.262499,-0.15 0.375,-0.2625 0.075,-0.075 0.1125,-0.1875 0.1125,-0.2625 0,-0.0375 -0.0375,-0.112499 -0.075,-0.112499 -0.0375,-0.0375 -0.07501,-0.0375 -0.150001,-0.0375 -0.149999,0 -0.299999,0.075 -0.412499,0.187499 -0.1125,0.15 -0.225,0.375 -0.3,0.600001 z m 2.7,-0.9375 -0.1125,0.599999 h -0.075 c 0,-0.15 -0.0375,-0.2625 -0.1125,-0.374999 -0.075,-0.075 -0.15,-0.1125 -0.2625,-0.1125 -0.075,0 -0.15,0.0375 -0.1875,0.075 -0.0375,0.0375 -0.075,0.112499 -0.075,0.149999 0,0.0375 0,0.075 0.0375,0.1125 0.0375,0.075 0.075,0.1125 0.1125,0.15 0.1125,0.1125 0.225,0.262501 0.3375,0.412501 0.0375,0.075 0.075,0.15 0.075,0.2625 0,0.149999 -0.075,0.262499 -0.15,0.337499 -0.1125,0.1125 -0.2625,0.15 -0.4125,0.15 -0.112501,0 -0.225,-0.0375 -0.3,-0.075 -0.0375,0 -0.075,-0.0375 -0.1125,-0.0375 -0.075,0 -0.1125,0.0375 -0.1125,0.075 h -0.075 l 0.1125,-0.637499 h 0.075 c 0,0.15 0.0375,0.299999 0.1125,0.412499 0.075,0.075 0.187499,0.1125 0.3,0.1125 0.075,0 0.15,-0.0375 0.225,-0.075 0.0375,-0.0375 0.075,-0.1125 0.075,-0.1875 0,-0.0375 0,-0.112499 -0.0375,-0.149999 -0.075,-0.1125 -0.15,-0.225 -0.225,-0.3 -0.07501,-0.075 -0.150001,-0.187501 -0.225,-0.300001 -0.0375,0 -0.0375,-0.075 -0.0375,-0.15 0,-0.1125 0.0375,-0.224999 0.149999,-0.299999 0.112501,-0.1125 0.300001,-0.15 0.450001,-0.1125 l 0.1125,0.0375 c 0.0375,0.0375 0.075,0.0375 0.1125,0.0375 0.075,0 0.1125,-0.0375 0.15,-0.075 h 0.075 z m 1.124999,-0.487501 -0.149999,0.525001 h 0.3 l -0.0375,0.1125 H 26.37621 l -0.3375,1.125 c -0.0375,0.075 -0.0375,0.149999 -0.0375,0.224999 v 0.0375 h 0.0375 c 0.0375,0 0.075,-0.0375 0.1125,-0.075 0.075,-0.075 0.15,-0.15 0.1875,-0.224999 l 0.075,0.0375 c -0.075,0.149999 -0.1875,0.262499 -0.3375,0.374999 -0.075,0.0375 -0.15,0.075 -0.225,0.075 -0.0375,0 -0.1125,0 -0.15,-0.0375 -0.0375,-0.0375 -0.0375,-0.075 -0.0375,-0.15 0,-0.1125 0.0375,-0.225 0.075,-0.299999 l 0.3375,-1.125 h -0.3 v -0.075 c 0.1125,-0.0375 0.2625,-0.075 0.3375,-0.1875 0.1125,-0.112501 0.225,-0.262501 0.3,-0.412501 z m 1.912501,1.0875 c 0,0.1875 -0.075,0.375001 -0.15,0.562501 -0.1125,0.187499 -0.2625,0.337499 -0.4125,0.449999 -0.15,0.1125 -0.3375,0.15 -0.525,0.15 -0.15,0 -0.3,-0.0375 -0.45,-0.1875 -0.1125,-0.1125 -0.1875,-0.2625 -0.15,-0.449999 0,-0.1875 0.075,-0.412501 0.15,-0.562501 0.1125,-0.1875 0.2625,-0.337499 0.45,-0.449999 0.15,-0.1125 0.337499,-0.15 0.525,-0.15 0.15,0 0.3,0.0375 0.4125,0.1875 0.075,0.149999 0.15,0.299999 0.15,0.449999 z m -0.3375,-0.1125 c 0,-0.1125 -0.0375,-0.1875 -0.075,-0.262499 -0.075,-0.075 -0.15,-0.1125 -0.225,-0.075 -0.187501,0 -0.375,0.149999 -0.525,0.412499 -0.15,0.225 -0.225,0.525001 -0.225,0.7875 0,0.1125 0.0375,0.1875 0.075,0.3 0.075,0.075 0.15,0.1125 0.225,0.1125 0.1875,0 0.337499,-0.1125 0.4875,-0.4125 0.1875,-0.299999 0.2625,-0.6 0.2625,-0.8625 z m 0.675,-0.374999 0.675,-0.1125 -0.3,0.9375 c 0.15,-0.300001 0.375,-0.562501 0.599999,-0.7875 0.07501,-0.075 0.150001,-0.1125 0.262501,-0.1125 0.0375,0 0.075,0 0.1125,0.0375 0.0375,0.0375 0.0375,0.075 0.0375,0.1125 0,0.07499 -0.0375,0.187499 -0.075,0.262499 -0.0375,0.0375 -0.075,0.075 -0.1125,0.075 -0.0375,0 -0.0375,0 -0.075,-0.0375 -0.0375,-0.0375 -0.0375,-0.0375 -0.0375,-0.075 0,-0.0375 0,-0.0375 -0.0375,-0.0375 h -0.1125 c -0.075,0.0375 -0.112499,0.075 -0.149999,0.15 -0.1125,0.15 -0.225,0.3 -0.3375,0.487501 -0.075,0.075 -0.1125,0.1875 -0.15,0.299999 -0.075,0.15 -0.075,0.225 -0.075,0.2625 l -0.075,0.2625 h -0.300001 l 0.375001,-1.2 c 0.0375,-0.1125 0.0375,-0.1875 0.075,-0.3 0,-0.0375 0,-0.0375 -0.0375,-0.075 -0.0375,-0.0375 -0.075,-0.0375 -0.1125,-0.0375 h -0.150001 z m 2.775,-0.1125 -0.1125,0.599999 h -0.075 c 0,-0.15 -0.0375,-0.2625 -0.1125,-0.374999 -0.075,-0.075 -0.15,-0.1125 -0.2625,-0.1125 -0.075,0 -0.150001,0.0375 -0.187501,0.075 -0.0375,0.0375 -0.075,0.112499 -0.075,0.149999 0,0.0375 0,0.075 0.0375,0.1125 0.0375,0.075 0.07501,0.1125 0.112501,0.15 0.1125,0.1125 0.225,0.262501 0.3375,0.412501 0.0375,0.075 0.075,0.15 0.075,0.2625 0,0.149999 -0.075,0.262499 -0.15,0.337499 -0.1125,0.1125 -0.2625,0.15 -0.412501,0.15 -0.112499,0 -0.224999,-0.0375 -0.299999,-0.075 -0.0375,0 -0.075,-0.0375 -0.1125,-0.0375 -0.075,0 -0.1125,0.0375 -0.1125,0.075 h -0.075 l 0.1125,-0.637499 h 0.075 c 0,0.15 0.0375,0.299999 0.1125,0.412499 0.075,0.075 0.1875,0.1125 0.299999,0.1125 0.075,0 0.150001,-0.0375 0.225001,-0.075 0.0375,-0.0375 0.075,-0.1125 0.075,-0.1875 0,-0.0375 0,-0.112499 -0.0375,-0.149999 -0.075,-0.1125 -0.15,-0.225 -0.225001,-0.3 -0.075,-0.075 -0.149999,-0.187501 -0.224999,-0.300001 -0.0375,-0.075 -0.0375,-0.15 -0.0375,-0.1875 0,-0.1125 0.0375,-0.224999 0.15,-0.299999 0.112499,-0.075 0.225,-0.15 0.3375,-0.1125 h 0.1125 l 0.1125,0.0375 c 0.0375,0 0.075,0.0375 0.1125,0.0375 0.075,0 0.1125,-0.0375 0.15,-0.075 z"
         id="path1496"
         style="stroke-width:0.375" /><path
         class="st0"
         d="m 30.913712,22.229368 -0.150001,0.412501 h -0.862499 l -0.2625,0.562499 h 0.825 l -0.15,0.412501 h -0.825 l -0.375,0.9375 h -0.7875 l 0.9,-2.325001 z m 1.912499,-0.0375 c 0.637501,0 1.0875,0.337501 0.787501,1.1625 -0.2625,0.75 -0.975,1.237501 -1.762501,1.237501 -0.824999,0 -1.05,-0.487501 -0.787499,-1.200001 0.3,-0.712499 0.975,-1.2 1.762499,-1.2 m -0.824999,2.025 c 0.15,0 0.4125,-0.075 0.675,-0.825 0.262499,-0.674999 0.224999,-0.824999 0,-0.824999 -0.225,0 -0.4125,0.15 -0.7125,0.8625 -0.187501,0.4875 -0.225001,0.787499 0.0375,0.787499 m 3.7125,-1.9875 c 0.262499,-0.0375 0.525,0 0.75,0.075 0.1875,0.0375 0.3,0.262501 0.225,0.412501 0,0.0375 0,0.0375 -0.0375,0.075 -0.15,0.299999 -0.45,0.524999 -0.7875,0.6 l 0.3375,1.125 h -0.9 l -0.1875,-0.9375 h -0.075 l -0.374999,0.9375 h -0.787501 l 0.900001,-2.325001 h 0.9375 z m -0.225,0.375001 -0.2625,0.674999 h 0.075 c 0.225,0.0375 0.45,-0.1125 0.4875,-0.3375 0.112499,-0.262499 0.0375,-0.337499 -0.225,-0.337499 z m 3.0375,-0.375001 c 0.3375,-0.0375 0.7125,0.0375 1.0125,0.225001 0.2625,0.2625 0.15,0.674999 0.075,0.862499 -0.1875,0.525001 -0.600001,0.9375 -1.125,1.125 -0.3,0.075 -0.6,0.112501 -0.9,0.112501 h -0.75 l 0.9,-2.325001 z m -0.15,0.375001 -0.6375,1.574999 h 0.075 c 0.187499,0 0.525,0.075 0.9,-0.825 0.299999,-0.749999 0.0375,-0.749999 -0.2625,-0.749999 z M 9.98871,22.22937 l -0.9,2.325001 h -0.825 l 0.9,-2.325001 z m 1.875,0 -0.75,1.9125 h 0.8625 l -0.15,0.412501 h -1.6875 l 0.9,-2.325001 z m 2.249999,0 -0.749999,1.9125 h 0.8625 l -0.15,0.412501 h -1.6875 l 0.9,-2.325001 z m 2.437501,0 -0.9,2.325001 h -0.825 l 0.9,-2.325001 z m 2.774999,0 -0.149999,0.412501 H 18.276209 L 18.08871,23.12937 h 0.7875 l -0.15,0.412501 h -0.7875 l -0.2625,0.599999 h 0.9 l -0.15,0.412501 h -1.725 l 0.9,-2.325001 z m 4.012501,0.450001 c -0.1125,-0.0375 -0.2625,-0.075 -0.4125,-0.075 -0.6,0 -0.9,0.599999 -0.975,0.824999 -0.1125,0.300001 -0.225,0.6375 0.0375,0.75 0.075,0.0375 0.15,0.0375 0.2625,0.0375 l 0.224999,-0.562499 H 22.17621 l 0.15,-0.375001 h 1.05 l -0.45,1.0875 c -0.3,0.112501 -0.6375,0.187501 -0.9375,0.187501 -0.8625,0 -1.2,-0.487501 -0.9375,-1.162501 0.337499,-0.749999 1.0875,-1.2375 1.9125,-1.2 0.225,0 0.45,0.0375 0.675,0.1125 z m 2.287499,-0.450001 -0.899999,2.325001 h -0.825 l 0.9,-2.325001 z m 2.775001,0 -0.15,0.412501 h -0.9 l -0.225,0.562499 h 0.825 l -0.1875,0.412501 h -0.7875 l -0.375001,0.9375 H 25.77621 l 0.9375,-2.325001 z m -24.0374999,0 c 0.225,0 0.4499999,0.0375 0.6375,0.075 0.1499999,0.0375 0.2624999,0.187501 0.1874999,0.375001 0,0.0375 0,0.0375 -0.0375,0.075 -0.1499999,0.299999 -0.4499999,0.524999 -0.825,0.562499 0.1500001,0 0.2625001,0.07501 0.3750001,0.112501 0.1499999,0.1125 0.1875,0.3 0.1124999,0.45 -0.15,0.299999 -0.4499999,0.524999 -0.7875,0.6 -0.2624999,0.075 -0.525,0.075 -0.825,0.075 h -0.825 l 0.9,-2.325013 z M 3.83871,23.16687 c 0.075,0 0.1875,0 0.2625,-0.0375 0.1125,-0.0375 0.1875001,-0.15 0.225,-0.262499 0.0375,-0.1125 0.0375,-0.1875 -0.0375,-0.225 -0.075,-0.0375 -0.1500001,-0.0375 -0.2625001,-0.0375 H 3.913712 l -0.225,0.562503 z m -0.375,1.0125 c 0.1125,0 0.225,0 0.3000001,-0.0375 0.1125,-0.075 0.2249999,-0.187499 0.2624999,-0.299999 0.075,-0.15 0.0375,-0.225 -0.0375,-0.2625 -0.075,-0.0375 -0.1875,-0.0375 -0.3,-0.0375 h -0.1125 l -0.2625,0.674999 h 0.15 z m 4.0125,-1.95 0.15,2.325001 H 6.76371 V 24.10437 h -0.75 L 5.6387121,24.554369 H 5.038712 l 1.9500001,-2.325001 z m -1.2,1.500001 h 0.4875 V 23.09187 Z"
         id="path1492"
         style="clip-rule:evenodd;fill-rule:evenodd;stroke-width:0.375;image-rendering:optimizeQuality;shape-rendering:geometricPrecision;text-rendering:geometricPrecision" /></g></g></svg>
