<svg width="150" height="100" style="clip-rule:evenodd;fill-rule:evenodd;image-rendering:optimizeQuality;shape-rendering:geometricPrecision;text-rendering:geometricPrecision" version="1.1" id="svg587" xml:space="preserve" xmlns="http://www.w3.org/2000/svg"><style id="style324">.st2{fill:#ffc214}.st3{fill:#f9f185}.st0{fill:#222221}.st1{fill:#272425}</style><g id="g1201" transform="translate(-.155 -.258) scale(.37454)"><path fill="#29292e" d="M.414 0h400.49v266.993H.414Z" id="path1060" style="stroke-width:1.27734"/><g id="g1194" transform="translate(25.223 -41.24) scale(1.37057)"><path fill-rule="evenodd" clip-rule="evenodd" d="M121.3 96.28a.57.57 0 0 0-.5-.28h-14.87c-.21 0-.4.12-.5.31l-20.54 39.71-6.98-39.54a.57.57 0 0 0-.57-.48H62.37a.57.57 0 0 0-.45.21c-.1.13-.15.3-.12.48l11.1 59.47c.04.27.28.47.55.47h.04l17.29-1c.2-.01.38-.13.47-.31l30.06-58.47c.1-.18.09-.4-.01-.57zm29.85 25.96a5.76 5.76 0 0 1-2.5 3.77c-.62.41-1.48.62-2.54.62h-11.92l2.52-15.98h12.1c1.03 0 1.79.2 2.24.61.5.45.85.96 1.06 1.49.22.61.3 1.37.25 2.18l-1.2 7.3zm16.48-13.41c-.2-1.8-.6-3.4-1.21-4.75a12.03 12.03 0 0 0-2.3-3.44c-.9-.92-1.85-1.68-2.83-2.28a18.83 18.83 0 0 0-8.38-2.36H124.5c-.27 0-.5.2-.55.48l-9.17 56.12c-.03.17.02.34.13.47.1.13.26.2.42.2h.03l14.29-.84a.56.56 0 0 0 .52-.48l1.7-10.57h13.91c3.16-.2 6.15-.98 8.88-2.34a22.27 22.27 0 0 0 6.84-5.61c2.2-2.57 3.73-6.23 4.55-10.88l1.3-7.53c.38-2.32.48-4.4.29-6.2zM223.43 96h-14.45a.58.58 0 0 0-.56.5l-5.15 32.73L192.1 96.4a.57.57 0 0 0-.53-.4H177.1a.58.58 0 0 0-.56.5l-8.82 56.06c-.03.18.02.37.14.5.1.13.26.2.42.2l14.71-.89a.58.58 0 0 0 .53-.5l3.68-23.66 7.8 23c.08.26.3.4.56.4l19.6-1.19a.58.58 0 0 0 .53-.5L224 96.7a.62.62 0 0 0-.13-.49.55.55 0 0 0-.44-.21Z" fill="#f34" id="path1062"/><path fill-rule="evenodd" clip-rule="evenodd" d="M61.65 96.2a.58.58 0 0 0-.44-.2H46.29c-.29 0-.53.2-.58.5L35.3 159.3a.6.6 0 0 0 .58.69h.04l15.16-.87c.27-.02.5-.22.54-.5L61.78 96.7a.59.59 0 0 0-.13-.48z" fill="#f34" id="path1064"/><path fill-rule="evenodd" clip-rule="evenodd" d="M48.55 96H32s-.13 1.35 1.12 1.66c1.24.31 12.13 2.46 10.62 11.81 0-.03 4.68-4.78 4.68-4.78z" fill="#f34" id="path1066"/></g></g></svg>