<?xml version="1.0" encoding="UTF-8" standalone="no"?>
<svg
   width="149.99998"
   height="100"
   style="clip-rule:evenodd;fill-rule:evenodd;image-rendering:optimizeQuality;shape-rendering:geometricPrecision;text-rendering:geometricPrecision"
   version="1.1"
   id="svg587"
   xml:space="preserve"
   xmlns="http://www.w3.org/2000/svg"
   xmlns:svg="http://www.w3.org/2000/svg"><defs
     id="defs591" /><style
     id="style324">.st0{fill:#222221}.st1{fill:#272425}</style><style
     id="style1018">.st0{fill:#fff}.st1{fill:#ef8022}.st2{fill:#ffc214}.st3{fill:#f9f185}</style><style
     id="style1415">.st0{fill:#222221}.st1{fill:#272425}</style><style
     id="style1490">.st0{fill:#222221}.st1{fill:#272425}</style><g
     id="g821"
     transform="matrix(0.13236159,0,0,0.13236159,1.9711926,84.761586)"><rect
       style="clip-rule:evenodd;fill:#ffffff;fill-rule:evenodd;stroke-width:8.91671;image-rendering:optimizeQuality;shape-rendering:geometricPrecision;text-rendering:geometricPrecision"
       id="rect875-3"
       width="1133.2593"
       height="755.50616"
       x="-14.892538"
       y="-640.37903" /><g
       id="g871"
       transform="matrix(0.33698364,0,0,0.33698364,47.569107,-428.71843)"><path
         d="m 1137.09,103.9 v 773.45 h -51.44 V 515.96 H 132.05 V 877.34 H 80.62 V 103.9 h 51.44 v 361.2 h 953.6 V 103.9 Z m -102.77,0 H 982.88 V 362.09 H 234.94 V 103.9 H 183.5 v 309.05 h 850.82 z m -696.29,0 h -50.87 v 205.84 h 50.87 z m 593.05,0 h -51.44 v 205.84 h 51.44 z M 183.5,877.34 h 51.44 V 619.16 h 747.94 v 258.19 h 51.44 V 567.72 H 183.5 Z m 695.72,0 h 51.44 V 670.93 h -51.44 z m -592.47,0 h 51.44 V 670.93 h -51.44 z"
         fill="#e12991"
         id="path809" /><path
         fill="#010101"
         d="M 1422.94,103.88 V 331.3 h -44.51 v -94.22 h -92.2 V 331.3 H 1241.4 V 103.88 h 44.83 v 90.32 h 92.2 v -90.32 z m 182.87,64.97 V 331.3 h -41.91 v -18.19 c -9.75,14.62 -26.64,22.74 -48.41,22.74 -34.44,0 -61.4,-24.04 -61.4,-67.25 V 168.86 H 1496 v 94.54 c 0,22.1 13.32,33.47 32.16,33.47 20.47,0 35.74,-12.02 35.74,-40.29 v -87.72 h 41.91 z m 279.38,62.38 V 331.3 h -41.91 v -97.14 c 0,-19.17 -9.75,-30.86 -27.29,-30.86 -18.52,0 -30.22,12.35 -30.22,36.71 v 91.29 h -41.91 v -97.14 c 0,-19.17 -9.75,-30.86 -27.29,-30.86 -17.87,0 -30.54,12.35 -30.54,36.71 v 91.29 h -41.91 V 168.85 h 41.91 v 17.22 c 9.1,-13.64 24.37,-21.77 45.16,-21.77 20.14,0 35.09,8.45 44.18,23.39 10.07,-14.62 26.32,-23.39 48.41,-23.39 37.04,0.01 61.41,26.32 61.41,66.93 z m 201.05,-62.38 V 331.3 h -41.91 v -19.17 c -11.7,14.62 -29.24,23.72 -52.96,23.72 -43.21,0 -78.95,-37.36 -78.95,-85.77 0,-48.41 35.74,-85.77 78.95,-85.77 23.72,0 41.26,9.1 52.96,23.72 v -19.17 h 41.91 z m -41.91,81.23 c 0,-27.29 -19.17,-45.81 -45.16,-45.81 -25.66,0 -44.83,18.52 -44.83,45.81 0,27.29 19.17,45.81 44.83,45.81 25.99,0 45.16,-18.52 45.16,-45.81 z m 231.6,-18.52 v 99.74 h -41.91 v -94.54 c 0,-22.09 -13.32,-33.46 -32.16,-33.46 -20.47,0 -35.74,12.02 -35.74,40.29 v 87.72 h -41.91 V 168.85 h 41.91 v 18.19 c 9.75,-14.62 26.64,-22.74 48.41,-22.74 34.44,0.01 61.4,24.05 61.4,67.26 z m -959.46,293.8 h -30.25 v 78.95 h -44.83 V 376.89 h 94.84 c 41.91,0 75.7,33.79 75.7,75.37 0,28.59 -17.87,54.26 -43.86,66.28 l 50.36,85.77 h -48.41 z m -30.25,-39.31 h 50 c 16.89,0 30.86,-14.95 30.86,-33.79 0,-18.84 -13.97,-33.46 -30.86,-33.46 h -50 z m 151.66,-89.34 c 0,-13.97 15.57,-25.99 29.54,-25.99 14.29,0 22.12,12.02 22.12,25.99 0,13.97 -11.7,25.67 -25.99,25.67 -13.97,0 -25.67,-11.7 -25.67,-25.67 z m 4.88,45.16 h 41.91 v 162.45 h -41.91 z m 239.1,0 v 154.65 c 0,53.28 -41.91,77.33 -84.8,77.33 -34.77,0 -62.7,-13.32 -77,-39.64 l 35.74,-20.47 c 6.82,12.67 17.54,22.74 42.56,22.74 26.31,0 42.56,-14.29 42.56,-39.96 v -17.54 c -11.37,15.27 -28.92,24.69 -51.98,24.69 -46.14,0 -80.9,-37.36 -80.9,-83.17 0,-45.48 34.76,-83.17 80.9,-83.17 23.07,0 40.61,9.42 51.98,24.69 v -20.14 h 40.94 z m -40.94,78.62 c 0,-25.67 -19.17,-44.18 -45.49,-44.18 -26.31,0 -45.48,18.52 -45.48,44.18 0,25.99 19.17,44.51 45.48,44.51 26.32,0 45.49,-18.52 45.49,-44.51 z m 230.63,-15.92 v 99.74 h -41.91 v -94.54 c 0,-22.09 -13.32,-33.46 -32.16,-33.46 -20.47,0 -35.74,12.02 -35.74,40.29 v 87.72 h -41.91 V 376.89 h 41.91 v 83.17 c 9.75,-14.62 26.64,-22.74 48.41,-22.74 34.44,0 61.4,24.04 61.4,67.25 z m 91.91,-22.42 v 67.58 c 0,17.54 12.67,17.87 36.71,16.57 v 38.01 c -58.81,6.5 -78.62,-10.72 -78.62,-54.58 v -67.58 h -28.27 v -40.29 h 28.27 v -32.81 l 41.91,-12.67 v 45.48 h 36.71 v 40.29 z m 185.17,74.73 c 0,35.09 -30.54,51.98 -65.31,51.98 -32.49,0 -56.53,-13.64 -68.22,-38.66 l 36.39,-20.47 c 4.55,13.32 15.6,21.12 31.84,21.12 13.32,0 22.42,-4.55 22.42,-13.97 0,-23.72 -83.82,-10.72 -83.82,-67.9 0,-33.14 28.27,-51.66 61.73,-51.66 26.32,0 49.06,12.02 61.73,34.44 l -35.74,19.49 c -4.88,-10.4 -13.97,-16.57 -25.99,-16.57 -10.4,0 -18.84,4.55 -18.84,13.32 -0.01,24.04 83.81,9.1 83.81,68.88 z m -862.41,135.91 v 53.93 h 96.11 v 42.89 h -96.11 v 87.72 h -44.83 V 649.9 h 143.54 v 42.88 h -98.71 z m 114.6,103.31 c 0,-48.41 38.01,-85.77 85.77,-85.77 47.76,0 86.1,37.36 86.1,85.77 0,48.41 -38.34,85.77 -86.1,85.77 -47.76,0 -85.77,-37.36 -85.77,-85.77 z m 129.96,0 c 0,-26.31 -19.17,-44.83 -44.19,-44.83 -24.69,0 -43.86,18.52 -43.86,44.83 0,26.32 19.17,44.83 43.86,44.83 25.02,0.01 44.19,-18.51 44.19,-44.83 z m 214.06,-81.22 v 162.45 h -41.91 v -18.19 c -9.75,14.62 -26.64,22.74 -48.41,22.74 -34.44,0 -61.4,-24.04 -61.4,-67.25 v -99.74 h 41.91 v 94.54 c 0,22.1 13.32,33.47 32.16,33.47 20.47,0 35.74,-12.02 35.74,-40.29 v -87.72 h 41.91 z m 190.02,62.7 v 99.74 h -41.91 v -94.54 c 0,-22.09 -13.32,-33.46 -32.16,-33.46 -20.47,0 -35.74,12.02 -35.74,40.29 v 87.72 h -41.91 V 714.88 h 41.91 v 18.19 c 9.75,-14.62 26.64,-22.74 48.41,-22.74 34.44,0 61.4,24.04 61.4,67.25 z M 2135.61,649.9 v 227.42 h -41.91 v -19.17 c -11.7,14.95 -28.92,23.72 -52.63,23.72 -43.54,0 -79.27,-37.36 -79.27,-85.77 0,-48.41 35.74,-85.77 79.27,-85.77 23.72,0 40.94,8.77 52.63,23.72 V 649.9 Z m -41.91,146.2 c 0,-27.29 -19.17,-45.81 -44.84,-45.81 -25.99,0 -45.16,18.52 -45.16,45.81 0,27.29 19.17,45.81 45.16,45.81 25.67,0.01 44.84,-18.51 44.84,-45.81 z m 243.65,-81.22 v 162.45 h -41.91 v -19.17 c -11.7,14.62 -29.24,23.72 -52.96,23.72 -43.21,0 -78.95,-37.36 -78.95,-85.77 0,-48.41 35.74,-85.77 78.95,-85.77 23.72,0 41.26,9.1 52.96,23.72 v -19.17 h 41.91 z m -41.91,81.22 c 0,-27.29 -19.17,-45.81 -45.16,-45.81 -25.66,0 -44.83,18.52 -44.83,45.81 0,27.29 19.17,45.81 44.83,45.81 25.99,0.01 45.16,-18.51 45.16,-45.81 z m 138.02,-40.93 v 67.58 c 0,17.54 12.67,17.87 36.71,16.57 v 38.01 c -58.81,6.5 -78.62,-10.72 -78.62,-54.58 v -67.58 h -28.26 v -40.29 h 28.26 v -32.81 l 41.91,-12.67 v 45.48 h 36.71 v 40.29 z m 61.38,-85.45 c 0,-13.97 11.7,-25.99 25.67,-25.99 14.29,0 25.99,12.02 25.99,25.99 0,13.97 -11.7,25.66 -25.99,25.66 -13.97,0.01 -25.67,-11.69 -25.67,-25.66 z m 4.87,45.16 h 41.91 v 162.45 h -41.91 z M 2565,796.1 c 0,-48.41 38.01,-85.77 85.77,-85.77 47.76,0 86.1,37.36 86.1,85.77 0,48.41 -38.34,85.77 -86.1,85.77 -47.76,0 -85.77,-37.36 -85.77,-85.77 z m 129.96,0 c 0,-26.31 -19.17,-44.83 -44.19,-44.83 -24.69,0 -43.86,18.52 -43.86,44.83 0,26.32 19.17,44.83 43.86,44.83 25.02,0.01 44.19,-18.51 44.19,-44.83 z m 216.66,-18.52 v 99.74 h -41.91 v -94.54 c 0,-22.09 -13.32,-33.46 -32.16,-33.46 -20.47,0 -35.74,12.02 -35.74,40.29 v 87.72 H 2759.9 V 714.88 h 41.91 v 18.19 c 9.75,-14.62 26.64,-22.74 48.41,-22.74 34.44,0 61.4,24.04 61.4,67.25 z"
         id="path811" /></g></g></svg>
