<svg width="150" height="100" viewBox="0 0 766 132" fill="none" xmlns="http://www.w3.org/2000/svg"><path d="M133.125 66.24v41.145c-.03 10.77-7.051 19.926-17.376 22.792-2.053.571-4.156.831-6.279.831-27.55 0-55.09.03-82.641-.01-13.209-.02-23.625-10.429-23.645-23.623v-82.52c0-13.194 10.425-23.593 23.635-23.613h82.641c13.209.02 23.605 10.429 23.645 23.623l.01 41.385.01-.01zM68.38 33.16H31.987c-.361 0-.721-.02-1.082 0-2.694.17-4.657 2.044-4.717 4.508-.07 2.805 1.662 4.779 4.517 5.019.711.06.851.321.851.952v34.904c0 .661-.19.952-.871 1.162-2.183.661-2.694 3.206-1.042 4.769.751.711 1.632.731 2.574.731h72.316.721c1.472-.05 2.594-1.012 2.844-2.434a2.77 2.77 0 0 0-1.853-3.016c-.641-.21-.771-.501-.771-1.092V43.76c0-.741.19-.972.982-1.082 3.595-.491 5.347-4.348 3.385-7.363-1.062-1.633-2.704-2.154-4.557-2.154H68.41h-.03zm-.12 53.026H28.261c-.881 0-1.763-.04-2.644.01-3.245.19-5.208 3.446-3.715 6.171.701 1.272 1.933 1.853 3.175 2.435l27.37 12.824 12.478 5.88c1.703.822 3.325.972 5.037.081 1.352-.692 2.754-1.293 4.136-1.914l23.144-10.519 14.952-6.822c1.542-.701 2.564-1.783 2.684-3.516.2-2.755-1.672-4.638-4.577-4.638H68.26v.01zm-.13-65.329H26.218c-1.933 0-2.574.631-2.604 2.585-.02 1.122 0 2.234 0 3.356 0 2.615.561 3.176 3.155 3.176h82.741c.281 0 .561.01.841 0 1.432-.08 2.133-.761 2.153-2.174v-4.198c0-2.294-.45-2.755-2.713-2.755H68.12l.01.01zM593.247 49.67c-.27 1.703-.11 3.426-.1 5.129l.13 13.665.241 25.777.23 16.18c.18 5.169-4.006 8.155-7.321 8.145-4.696 0-7.911-3.156-7.971-7.995l-.15-17.261-.261-25.777-.22-22.18-.231-19.415c-.03-3.827 1.903-6.622 5.248-7.714s6.58.05 8.813 3.136l46.859 64.517c.29.401.5.892 1.131 1.262v-1.473-59.849c0-4.378 2.524-7.463 6.61-8.125 4.356-.711 8.542 2.755 8.693 7.183.01.321 0 .641 0 .962v84.554c0 3.897-1.933 6.792-5.248 7.864-3.355 1.082-6.64-.11-8.913-3.246l-46.708-64.327c-.251-.351-.421-.782-.832-.992-.04-.05-.08-.09-.12-.14 0 .03-.01.06-.02.1.05 0 .11.01.16.02h-.02zm-288.231-.21v12.383l.17 12.823.321 31.768c.02 1.753.22 3.526.03 5.269-.481 4.368-3.936 7.113-8.453 6.833-3.715-.231-6.739-3.637-6.79-7.704l-.14-15.589-.24-26.017-.24-22.18-.231-21.218c-.03-3.737 1.933-6.562 5.218-7.624 3.325-1.082 6.61.07 8.833 3.126l47.069 64.808c.25.351.51.691.971 1.292v-1.523-60.45c0-4.087 2.584-7.123 6.56-7.774 4.156-.671 8.182 2.394 8.622 6.572a12.05 12.05 0 0 1 .06 1.192v85.396c0 6.071-6.239 9.697-11.476 6.702-1.062-.611-1.863-1.483-2.574-2.465l-47.009-64.707-.681-.912h-.02zm97.402 22.421l-.02-37.178.02-8.626c.141-2.585.641-5.019 2.855-6.702 1.522-1.162 3.334-1.573 5.197-1.583l20.66.01c11.617.26 21.502 7.153 25.257 17.602 2.955 8.225 1.703 16.109-2.413 23.653-1.102 2.004-1.122 2.004.591 3.436 5.287 4.428 9.504 9.608 11.376 16.37 4.317 15.628-4.026 35.375-24.355 38.861-3.636.621-7.341.471-11.016.511-5.759.06-11.527 0-17.296-.05-1.442-.01-2.894 0-4.306-.21-3.946-.592-6.129-3.246-6.469-7.725a27.22 27.22 0 0 1-.061-2.033V71.871l-.02.01zm15.864 15.598v14.156c0 .491-.171 1.062.701 1.052 6.119-.1 12.258.32 18.366-.171 10.806-.871 17.206-11.921 12.619-21.729-2.163-4.628-5.718-7.634-11.026-8.135a86.36 86.36 0 0 0-9.104-.361l-10.675.17c-.801 0-.891.321-.891.982l.01 14.035zm0-42.537l-.02 10.78c0 .731.19.942.941.942l11.156-.03c7.461-.15 12.619-5.891 11.988-13.274-.431-5.009-4.006-8.796-8.903-9.537-4.767-.721-9.564-.571-14.351-.701-.751-.02-.831.311-.831.922v10.9h.02zM704.27 68.014c.581-.17.811-.571 1.111-.872l21.692-21.76 24.676-24.875c3.165-3.196 7.992-3.286 11.076-.21 3.015 3.005 2.915 7.814-.22 10.97l-24.886 25.016-6.259 6.301c-.601.581-.551.942-.071 1.563l31.026 40.153 1.462 1.903c2.604 3.456 2.073 8.095-1.212 10.72-3.315 2.644-8.072 2.123-10.796-1.323l-11.016-14.226-20.299-26.307c-.431-.561-.691-.822-1.332-.16l-14.281 14.406c-.541.541-.681 1.092-.681 1.813v18.954c-.02 3.166-1.492 5.53-4.347 6.893-2.764 1.312-5.468 1.002-7.921-.832-1.893-1.412-2.935-3.366-2.935-5.77V25.446c0-3.997 3.305-7.273 7.341-7.384 4.086-.12 7.631 3.026 7.812 7.033.1 2.194.05 4.398.05 6.592v36.336l.01-.01zM258.548 50.873l-.03 24.955c-.361 19.586-13.54 37.278-32.838 41.355-16.464 3.486-30.154-1.823-40.83-14.687-5.688-6.852-8.642-14.927-9.484-23.793-.17-1.803-.13-3.587-.13-5.38V24.745c0-3.807 2.063-6.682 5.488-7.674 4.978-1.443 9.765 2.254 9.765 7.584v33.591l.06 17.872c.33 12.232 8.843 23.423 20.66 26.228 10.045 2.374 20.64-1.803 26.879-10.86 3.275-4.749 5.068-10.028 5.078-15.839l.07-50.852c0-3.787 2.083-6.702 5.478-7.704 4.937-1.463 9.784 2.184 9.794 7.413v26.388l.04-.02zm292.788 67.683c-3.295 0-5.898-1.824-7.15-5.04l-7.131-18.413c-.35-.922-.811-1.152-1.742-1.152h-33.75c-.871 0-1.312.19-1.642 1.092l-7.01 18.584c-1.322 3.436-4.297 5.199-8.072 4.909-3.105-.241-5.859-2.786-6.56-6.102-.33-1.572-.07-3.075.501-4.568l11.657-30.906 20.37-53.968c1.272-3.386 3.996-5.4 7.301-5.41 3.254-.01 5.998 1.963 7.28 5.28l32.948 84.904c1.853 4.789-.45 9.447-5.207 10.639-.591.151-1.192.131-1.783.151h-.01zm-20.66-39.843l-12.438-32.068-.271.611-11.547 30.546c-.39 1.032.151.912.802.912h21.842 1.612z" fill="#3cce49"/><path d="M68.38 33.16h36.874c1.863 0 3.495.511 4.557 2.154 1.962 3.005.21 6.873-3.385 7.363-.792.11-.982.341-.982 1.082v34.903c0 .591.13.892.771 1.092a2.76 2.76 0 0 1 1.853 3.016c-.24 1.423-1.372 2.384-2.844 2.434h-.721-72.316c-.931 0-1.823-.02-2.574-.731-1.652-1.563-1.142-4.118 1.042-4.769.681-.21.881-.501.871-1.162V43.639c0-.631-.14-.892-.851-.952-2.854-.24-4.587-2.214-4.517-5.019.06-2.455 2.023-4.338 4.717-4.508.361-.02.721 0 1.082 0H68.35h.03zM52.647 61.201l.02-17.271c0-.892-.16-1.252-1.172-1.232h-9.724c-.891-.01-1.152.23-1.152 1.132v34.543c0 .932.31 1.132 1.172 1.122h9.604c1.002.02 1.282-.27 1.272-1.272l-.02-17.031v.01zm42.973-.19l.02-17.141c0-.862-.18-1.192-1.122-1.172a249.45 249.45 0 0 1-9.484 0c-.921-.02-1.132.291-1.132 1.162v34.403c0 .902.18 1.262 1.182 1.242h9.364c.991.02 1.192-.321 1.192-1.232l-.02-17.261zm-21.561.08l.02-17.131c0-1.012-.29-1.282-1.282-1.262h-9.244c-.841-.01-1.082.24-1.082 1.082v34.633c0 .832.24 1.092 1.082 1.082h9.244c1.001.02 1.282-.281 1.272-1.272l-.02-17.131h.01zM68.26 86.187h42.041c2.905 0 4.777 1.883 4.577 4.638-.12 1.733-1.152 2.815-2.684 3.516l-14.952 6.823-23.144 10.519-4.136 1.914c-1.722.881-3.335.741-5.037-.081l-12.478-5.88-27.37-12.824c-1.242-.581-2.474-1.162-3.175-2.434-1.482-2.725.471-5.981 3.715-6.171.881-.05 1.762-.01 2.644-.01H68.26v-.01zm-.13-65.329h41.671c2.263 0 2.714.461 2.714 2.755v4.198c-.021 1.412-.722 2.094-2.154 2.174h-.841-82.741c-2.594 0-3.155-.561-3.155-3.176v-3.356c.03-1.954.661-2.585 2.604-2.585H68.14l-.01-.01z" fill="#0e4160"/><path d="M593.247 49.67c-.05 0-.11-.01-.16-.02 0-.03.01-.06.02-.1l.12.14.02-.02z" fill="#fefefe"/><path d="M52.647 61.201l.02 17.031c0 1.002-.27 1.292-1.272 1.272-3.205-.06-6.409-.05-9.604 0-.861.01-1.172-.18-1.172-1.122V43.84c0-.902.26-1.152 1.152-1.132h9.724c1.001-.02 1.172.341 1.172 1.232l-.02 17.271v-.01zm42.973-.19l.02 17.261c0 .912-.2 1.252-1.192 1.232a243.59 243.59 0 0 0-9.364 0c-1.002.02-1.182-.351-1.182-1.242V43.86c0-.871.21-1.182 1.132-1.162a249.45 249.45 0 0 0 9.484 0c.941-.02 1.122.311 1.122 1.172l-.02 17.141zm-21.562.08l.02 17.131c0 .992-.27 1.292-1.272 1.272-3.074-.06-6.159-.05-9.243 0-.841.01-1.081-.25-1.081-1.082V43.78c0-.842.24-1.092 1.081-1.082h9.243c.992-.02 1.292.25 1.282 1.262l-.02 17.131h-.01z" fill="#3cce49"/></svg>