<?xml version="1.0" encoding="UTF-8" standalone="no"?>
<svg
   width="149.99997"
   height="100.00001"
   style="clip-rule:evenodd;fill-rule:evenodd;image-rendering:optimizeQuality;shape-rendering:geometricPrecision;text-rendering:geometricPrecision"
   version="1.1"
   id="svg587"
   xml:space="preserve"
   xmlns="http://www.w3.org/2000/svg"
   xmlns:svg="http://www.w3.org/2000/svg"><defs
     id="defs591" /><style
     id="style324">.st0{fill:#222221}.st1{fill:#272425}</style><style
     id="style1018">.st0{fill:#fff}.st1{fill:#ef8022}.st2{fill:#ffc214}.st3{fill:#f9f185}</style><style
     id="style1415">.st0{fill:#222221}.st1{fill:#272425}</style><style
     id="style1490">.st0{fill:#222221}.st1{fill:#272425}</style><g
     id="g1019"
     transform="matrix(0.43331565,0,0,0.43331565,32.943663,14.240241)"><rect
       style="clip-rule:evenodd;fill:#ffffff;fill-rule:evenodd;stroke-width:2.72371;image-rendering:optimizeQuality;shape-rendering:geometricPrecision;text-rendering:geometricPrecision"
       id="rect875-6"
       width="346.16797"
       height="230.77864"
       x="-76.026924"
       y="-32.863419" /><g
       id="g1189"
       transform="matrix(0.85248608,0,0,0.85248608,14.294835,-0.15587461)"><path
         style="fill:#004581;fill-opacity:1;fill-rule:evenodd;stroke:none;stroke-width:0.125"
         d="m 0.29263747,105.014 c -0.22125,-2.68625 -0.345,-5.4 -0.345,-8.145 0,-51.37875 39.88624953,-93.42 90.39124953,-96.86875 l -77.3175,80.2125 C 6.1938875,87.29775 1.9526375,95.97275 0.29263747,105.014 M 97.056387,193.97775 c -33.79625,0 -63.55,-17.26875 -80.94625,-43.45625 l 2.90625,2.8025 c 9.6025,9.2575 22.11625,13.74375 34.525,13.51625 12.375,-0.22125 24.69125,-5.15 33.9375,-14.69875 l -22.24375,-21.44 c -3.3325,3.41375 -7.7775,5.1725 -12.2525,5.2675 -4.515,0.0813 -9.05375,-1.55125 -12.52,-4.89375 l -4.7475,-4.575 c -3.46125,-3.3325 -5.255,-7.80625 -5.3375,-12.32125 -0.08125,-4.50875 1.545,-9.06 4.88875,-12.52625 l 93.210003,-96.695 c 38.21375,13.05625 65.69,49.27125 65.69,91.91125 0,3.73625 -0.21625,7.4175 -0.63,11.04 -2.43,-6.82125 -6.42625,-13.195 -11.97375,-18.54375 l -4.74125,-4.5725 c -9.6075,-9.25875 -22.11625,-13.75625 -34.52,-13.5225 -12.415,0.22125 -24.76625,5.1725 -34.02375,14.78125 l -36.342503,37.69875 22.24375,21.44125 36.342503,-37.70125 c 3.33875,-3.46625 7.83,-5.255 12.34,-5.3425 4.515,-0.0863 9.0475,1.54375 12.52,4.8875 l 4.73625,4.57375 c 3.46125,3.3325 5.26125,7.80625 5.3425,12.3225 0.0763,4.50375 -1.55,9.06 -4.8875,12.52625 l -55.09125,57.15375 c -2.77875,0.2375 -5.586253,0.36625 -8.425003,0.36625"
         id="path890" /><path
         style="fill:#3384b9;fill-opacity:1;fill-rule:evenodd;stroke:none"
         d="m 4376.22,2292.8 h 360.66 v 433.41 c -17.35,-55.88 -47.59,-108.64 -90.81,-153.48 L 4376.22,2292.8"
         transform="matrix(0.125,0,0,-0.125,-397.891,479.489)"
         id="path892" /></g></g></svg>
