<?xml version="1.0" encoding="UTF-8" standalone="no"?>
<svg
   width="150"
   height="100"
   style="clip-rule:evenodd;fill-rule:evenodd;image-rendering:optimizeQuality;shape-rendering:geometricPrecision;text-rendering:geometricPrecision"
   version="1.1"
   id="svg587"
   xml:space="preserve"
   xmlns="http://www.w3.org/2000/svg"
   xmlns:svg="http://www.w3.org/2000/svg"><defs
     id="defs591"><linearGradient
       id="a"
       x1="108.127"
       y1="162.181"
       x2="74.499001"
       y2="305.98199"
       gradientUnits="userSpaceOnUse"
       gradientTransform="matrix(0.4535803,0,0,0.4535803,-497.77227,238.36127)"><stop
         stop-color="#FA1366"
         id="stop1586" /><stop
         offset="1"
         stop-color="#FD6E06"
         id="stop1588" /></linearGradient><linearGradient
       id="c"
       x1="152.73199"
       y1="33.344002"
       x2="2.684"
       y2="194.507"
       gradientUnits="userSpaceOnUse"
       gradientTransform="matrix(0.4535803,0,0,0.4535803,-497.77227,238.36127)"><stop
         stop-color="#F91500"
         id="stop1591" /><stop
         offset="1"
         stop-color="#FDD140"
         id="stop1593" /></linearGradient></defs><style
     id="style324">.st0{fill:#222221}.st1{fill:#272425}</style><style
     id="style1018">.st0{fill:#fff}.st1{fill:#ef8022}.st2{fill:#ffc214}.st3{fill:#f9f185}</style><style
     id="style1415">.st0{fill:#222221}.st1{fill:#272425}</style><style
     id="style1490">.st0{fill:#222221}.st1{fill:#272425}</style><g
     id="g2070"
     transform="matrix(0.49819007,0,0,0.49819007,254.67286,5.9449813)"
     style="clip-rule:evenodd;fill-rule:evenodd;image-rendering:optimizeQuality;shape-rendering:geometricPrecision;text-rendering:geometricPrecision"><rect
       style="clip-rule:evenodd;fill:#12161d;fill-opacity:1;fill-rule:evenodd;stroke-width:1.28329;image-rendering:optimizeQuality;shape-rendering:geometricPrecision;text-rendering:geometricPrecision"
       id="rect5216"
       width="301.0899"
       height="200.72661"
       x="-511.1962"
       y="-11.933162" /><g
       id="g5519"
       transform="matrix(0.32686315,0,0,0.33099341,-325.36728,-12.367214)"><path
         d="M 65.066452,370.57992 V 252.19547 c 0,-7.51538 6.09159,-13.60741 13.60741,-13.60741 h 83.005198 v 24.94691 H 90.013372 v 28.57556 h 54.883218 v 11.33951 c 0,7.51537 -6.09159,13.60741 -13.60741,13.60741 H 90.013372 v 28.57556 h 71.665688 v 24.94691 z M 214.29437,263.53497 v 107.04495 h 24.94692 V 263.53497 h 42.63655 v -24.94691 h -95.70545 c -7.51582,0 -13.60741,6.09203 -13.60741,13.60741 v 11.3395 z m -504.38084,-14.96815 v 122.0131 h 24.94692 v -87.08741 l 51.63059,87.08741 h 25.02448 V 238.58806 h -24.94692 v 86.18025 l -51.61108,-86.18025 h -15.06522 c -5.511,0 -9.97877,4.46776 -9.97877,9.97876 z m 156.71199,56.01717 -43.99728,65.99593 h 35.70629 l 23.71273,-44.22408 26.080862,44.22408 h 33.79173 l -42.409752,-65.99593 42.636542,-65.99593 h -34.10062 l -25.998762,41.50259 -23.81297,-41.50259 h -36.05963 z"
         fill="#ffffff"
         id="path1570"
         style="stroke-width:0.45358" /><path
         fill-rule="evenodd"
         clip-rule="evenodd"
         d="M -47.421008,370.57992 V 251.2883 c 0,-7.01416 5.68745,-12.70024 12.6998,-12.70024 h 59.41902 c 16.28353,0 29.48272,13.20009 29.48272,29.48272 v 16.05356 c 0,10.7612 -8.31413,19.6931 -19.05038,20.45965 10.69996,0.63683 19.05038,9.49979 19.05038,20.21789 v 16.29532 c 0,16.28263 -13.19919,29.48272 -29.48272,29.48272 z m 24.71967,-106.81816 h 37.19359 c 7.76529,0 14.06099,6.2957 14.06099,14.06099 0,7.76575 -6.2957,14.06099 -14.06099,14.06099 h -37.19359 z m 37.19359,53.52248 h -37.19359 v 28.12198 h 37.19359 c 7.76529,0 14.06099,-6.29524 14.06099,-14.06099 0,-7.76575 -6.2957,-14.06099 -14.06099,-14.06099 z M -389.42055,238.58806 h 47.62593 c 21.0425,0 38.10074,17.05824 38.10074,38.10074 v 9.52519 c 0,21.04249 -17.05824,38.10074 -38.10074,38.10074 h -34.92569 v 46.26519 h -24.94691 v -119.7452 c 0,-6.76379 5.48288,-12.24666 12.24667,-12.24666 z m 43.31692,25.1737 h -30.38989 v 35.37927 h 30.38989 c 9.76966,0 17.68963,-7.91997 17.68963,-17.68964 0,-9.77012 -7.91997,-17.68963 -17.68963,-17.68963 z"
         fill="#ffffff"
         id="path1572"
         style="stroke-width:0.45358" /><path
         d="m -486.32935,340.04172 27.58585,30.65659 c 32.14977,-29.39609 21.28153,-47.27214 19.99563,-49.82807 -1.02872,-2.04519 -23.57619,-28.97062 -34.72157,-42.17752 l -12.85991,12.78098 c -14.40299,17.38211 -5.1436,39.19524 0,48.56802 z"
         fill="url(#a)"
         id="path1574"
         style="fill:url(#a);stroke-width:0.45358" /><path
         d="m 119.39,171.236 -83.36,67.73 68.987,-83.36 z"
         fill="#c40537"
         id="path1576"
         style="clip-rule:evenodd;fill-rule:evenodd;image-rendering:optimizeQuality;shape-rendering:geometricPrecision;text-rendering:geometricPrecision"
         transform="matrix(0.4535803,0,0,0.4535803,-497.77227,238.36127)" /><path
         d="m -427.34486,287.51486 -54.08582,57.97618 c -18.14911,-16.13249 -21.31646,-35.28991 -8.82214,-50.41409 l 55.45473,-56.71568 7.33077,12.24666 c 13.15383,22.22544 3.90351,31.44537 0.12246,36.90693 z"
         fill="url(#c)"
         id="path1580"
         style="fill:url(#c);stroke-width:0.45358" /><path
         d="M 36.027,113.925 C -12.93,160.163 19.967,214.615 38.94,233.408 11.02,130.597 22.134,141.712 99.937,55.573 c 0,0 -13.893,11.115 -63.91,58.352 z"
         fill="#fdd45f"
         id="path1582"
         style="clip-rule:evenodd;fill-rule:evenodd;image-rendering:optimizeQuality;shape-rendering:geometricPrecision;text-rendering:geometricPrecision"
         transform="matrix(0.4535803,0,0,0.4535803,-497.77227,238.36127)" /></g></g></svg>
