<svg width="150" height="100" style="clip-rule:evenodd;fill-rule:evenodd;image-rendering:optimizeQuality;shape-rendering:geometricPrecision;text-rendering:geometricPrecision" version="1.1" id="svg587" xml:space="preserve" xmlns="http://www.w3.org/2000/svg"><style id="style324">.st2{fill:#ffc214}.st3{fill:#f9f185}.st0{fill:#222221}.st1{fill:#272425}</style><g id="g931" transform="matrix(.375 0 0 .375 -306.863 -123.51)"><path style="clip-rule:evenodd;fill:#fff;fill-rule:evenodd;stroke-width:3.14727;image-rendering:optimizeQuality;shape-rendering:geometricPrecision;text-rendering:geometricPrecision" id="rect875" d="M818.302 329.361h400v266.667h-400z"/><path d="M968.714 501.725c11.808 0 20.536-7.017 20.536-16.68 0-4.373-1.848-8.34-5.134-10.984-2.566-1.934-7.188-4.27-12.834-6.304-3.594-1.323-5.031-2.544-5.031-3.967 0-1.425 1.334-2.44 3.182-2.44 1.232 0 2.978.406 4.415 1.015l1.334.51 2.669 1.219c1.44.51 2.671.815 3.697.916 3.288.203 6.47-3.154 6.47-6.814 0-5.9-7.599-10.374-17.456-10.374-11.294 0-19.611 7.017-19.611 16.578 0 4.373 1.437 7.933 4.21 10.374 2.361 1.934 7.187 4.17 14.478 6.61 3.183 1.12 4.414 2.135 4.414 3.66 0 1.935-1.437 3.051-4.005 3.051-1.64 0-3.697-.507-5.235-1.322l-2.465-1.22-1.335-.71c-1.745-.917-3.285-1.321-4.725-1.321-3.489 0-6.774 3.354-6.774 6.914 0 5.695 9.445 11.287 19.2 11.287zm38.61-.612c4.72 0 7.7-3.254 7.7-8.44V463.79h3.697c5.44 0 8.418-2.44 8.418-7.12 0-4.882-2.772-7.222-8.42-7.222h-3.697v-9.456c0-5.188-2.977-8.442-7.7-8.442-4.823 0-7.7 3.256-7.7 8.442v9.458h-1.131c-5.544 0-8.318 2.338-8.318 7.22 0 4.78 2.774 7.12 8.318 7.12h1.13v28.883c0 5.186 2.978 8.44 7.7 8.44zm30.189.103c4.617 0 7.597-3.257 7.597-8.442v-19.73c0-1.524.306-3.153.923-4.475.72-1.728 1.848-2.644 4.826-3.66 10.268-3.966 7.6-2.95 8.214-3.153 2.774-1.222 3.903-3.154 3.903-6.305 0-3.966-3.595-7.426-7.6-7.426-3.592 0-6.88 1.729-10.78 5.798-1.643-4.07-3.492-5.492-7.086-5.492-4.826 0-7.803 3.154-7.803 8.442v36c0 5.189 2.977 8.443 7.803 8.443zm35.628-56.445c5.337 0 9.034-3.66 9.034-8.848 0-5.186-3.797-8.949-8.931-8.949-5.24 0-9.035 3.763-9.035 8.849 0 5.185 3.795 8.948 8.932 8.948zm.103 56.24c4.62 0 7.597-3.252 7.597-8.44v-35.697c0-5.186-2.977-8.442-7.597-8.442-4.826 0-7.805 3.153-7.805 8.442v35.697c0 5.288 2.876 8.442 7.805 8.442zm51.844.102c4.211 0 7.494-3.151 7.494-7.22 0-2.644-.614-3.763-5.134-9.255l-.923-1.119-9.96-12.509 7.189-7.32c4.928-5.19 3.591-3.766 4.106-4.375 1.437-1.629 1.745-2.441 1.745-3.967 0-3.863-3.183-7.423-6.777-7.423-2.874 0-5.031 1.22-8.831 5.288l-2.052 2.238-9.757 10.168V435.11c0-5.188-2.977-8.442-7.7-8.442-2.874 0-5.442 1.425-6.777 3.66-.717 1.323-.923 2.238-.923 4.782v57.561c0 5.288 2.875 8.442 7.7 8.442 4.826 0 7.7-3.254 7.7-8.44v-15.865l9.963 12.815 1.846 2.438c5.442 7.223 7.6 9.052 11.09 9.052zm32.98.51c5.85 0 11.5-1.423 16.53-4.17 4.109-2.338 6.163-4.983 6.163-7.933 0-3.56-2.877-6.713-6.265-6.713-1.029 0-2.566.408-4.003 1.119l-1.131.509-1.026.51-1.129.61-1.337.611c-2.874 1.117-4.517 1.523-7.083 1.523-5.648 0-9.345-2.745-10.68-7.83h27.211c4.62 0 6.366-1.831 6.366-6.51 0-4.676-1.334-9.458-3.697-13.525-4.62-7.73-11.911-11.899-21.048-11.899-15.303 0-25.774 11.39-25.774 28.068 0 15.156 11.09 25.63 26.902 25.63zM884.183 402.31l43.453 15.816c.174.064.343.134.507.213.39.122.776.255 1.166.397 13.845 5.038 21.031 20.213 16.053 33.895-4.98 13.679-20.24 20.683-34.086 15.645l-45.123-16.424c-2.769-1.009-4.209-4.045-3.212-6.782.996-2.735 4.047-4.135 6.816-3.126l25.071 9.125a26.09 26.09 0 0 1-.906-11.552l-51.476-18.735c-2.77-1.008-4.207-4.044-3.21-6.782.994-2.732 4.047-4.132 6.816-3.124l51.474 18.73a26.09 26.09 0 0 1 8.12-8.265l-25.07-9.123c-2.766-1.006-4.206-4.042-3.21-6.78.997-2.734 4.048-4.135 6.817-3.129zm272.96 58.124c5.134 0 8.317 2.95 9.24 8.848h-19.097c1.54-5.798 4.929-8.848 9.857-8.848zM905.38 438.068c-3.001 8.243 1.315 17.38 9.637 20.41 8.325 3.028 17.501-1.198 20.503-9.442 2.999-8.243-1.315-17.38-9.637-20.41-8.325-3.028-17.503 1.198-20.503 9.442z" fill="currentColor" id="path420" style="stroke-width:2.44837"/></g></svg>