<svg width="150" height="100" style="clip-rule:evenodd;fill-rule:evenodd;image-rendering:optimizeQuality;shape-rendering:geometricPrecision;text-rendering:geometricPrecision" version="1.1" id="svg587" xml:space="preserve" xmlns="http://www.w3.org/2000/svg"><style id="style324">.st2{fill:#ffc214}.st3{fill:#f9f185}.st1{fill:#272425}</style><g id="g227" transform="translate(-485.748 -113.49)"><path d="M538.385 186.345h2v2.169c.164-.422.569-.938 1.209-1.542.64-.604 1.377-.906 2.212-.906a13.514 13.514 0 0 1 .68.062v2.221a3.755 3.755 0 0 0-.693-.057c-1.062 0-1.88.342-2.448 1.026a3.585 3.585 0 0 0-.853 2.36v7.212h-2.107zm14.65 4.955c.485-.062.81-.267.974-.609.093-.19.138-.457.138-.813 0-.72-.254-1.244-.765-1.568-.515-.33-1.244-.49-2.195-.49-1.097 0-1.875.298-2.337.894-.253.329-.427.818-.498 1.47h-1.968c.04-1.55.537-2.625 1.502-3.234.964-.609 2.084-.911 3.35-.911 1.47 0 2.67.28 3.59.844.911.564 1.37 1.435 1.37 2.622v7.225c0 .222.044.396.128.529.093.133.28.2.569.2.093 0 .2-.005.315-.018.12-.013.245-.031.378-.053v1.555a6.665 6.665 0 0 1-.751.178 5.87 5.87 0 0 1-.702.03c-.729 0-1.253-.257-1.578-.772-.173-.271-.297-.663-.364-1.16-.427.564-1.044 1.048-1.848 1.462-.805.413-1.689.622-2.662.622-1.16 0-2.115-.356-2.849-1.058-.737-.706-1.106-1.59-1.106-2.648 0-1.164.364-2.062 1.089-2.702.728-.64 1.68-1.03 2.861-1.182zm-4.438 5.697c.444.35.973.524 1.577.524a4.82 4.82 0 0 0 2.155-.515c1.173-.57 1.755-1.502 1.755-2.795v-1.698a3.503 3.503 0 0 1-.99.409c-.405.111-.8.187-1.191.235l-1.276.165c-.76.102-1.337.262-1.724.48-.653.369-.977.95-.977 1.755.005.609.226 1.089.67 1.44zm30.798-10.305c.831.418 1.462.96 1.897 1.622.418.631.698 1.369.836 2.213.124.578.186 1.497.186 2.764h-9.122c.04 1.275.338 2.297.893 3.07.555.773 1.422 1.156 2.59 1.156 1.094 0 1.965-.365 2.618-1.093a3.74 3.74 0 0 0 .773-1.467h2.07c-.053.462-.235.973-.546 1.542-.31.564-.653 1.027-1.03 1.386-.636.627-1.423 1.045-2.36 1.262a7.153 7.153 0 0 1-1.711.187c-1.55 0-2.866-.569-3.946-1.702s-1.617-2.724-1.617-4.772c0-2.013.542-3.653 1.63-4.906 1.085-1.257 2.507-1.884 4.262-1.884a5.66 5.66 0 0 1 2.577.622zm.755 4.928c-.088-.915-.284-1.644-.595-2.19-.573-1.018-1.529-1.52-2.87-1.52-.96 0-1.76.346-2.413 1.048-.65.698-.996 1.587-1.036 2.666h6.914zm4.835-5.275h2.004v1.782c.591-.733 1.222-1.257 1.884-1.582.667-.32 1.4-.48 2.213-.48 1.782 0 2.982.618 3.608 1.862.342.68.516 1.653.516 2.92v8.043h-2.147v-7.905c0-.765-.115-1.382-.337-1.853-.378-.782-1.053-1.173-2.035-1.173-.503 0-.911.048-1.231.15-.578.174-1.089.516-1.524 1.031-.351.414-.578.84-.685 1.28-.106.44-.16 1.071-.16 1.893v6.568h-2.11v-12.536zm-48.573 0h-2.693l-5.407 5.328v-5.328h-2.027v12.545h2.027v-4.706l1.733-1.675 3.946 6.38h2.692l-5.092-7.878zm28.497 4.666 4.821-4.666h-2.693l-5.403 5.328v-5.328h-2.026v12.545h2.026v-4.706l1.729-1.675 3.945 6.38h2.693zm-4.235-63.365c-18.996 0-34.389 15.401-34.389 34.402v14.74c0 2.714 2.2 4.91 4.906 4.91 2.71 0 4.924-2.196 4.924-4.91v-14.74c0-2.72 2.19-4.92 4.91-4.92 2.71.001 4.91 2.2 4.91 4.92v14.74a4.91 4.91 0 0 0 4.91 4.91 4.91 4.91 0 0 0 4.92-4.91v-14.74c0-2.72 2.199-4.92 4.91-4.92a4.92 4.92 0 0 1 4.923 4.92v14.74a4.908 4.908 0 1 0 9.816 0v-14.74a4.917 4.917 0 1 1 9.833 0v14.74a4.91 4.91 0 0 0 4.92 4.91 4.91 4.91 0 0 0 4.91-4.91v-14.74c0-19-15.406-34.402-34.403-34.402z" id="path962" style="fill:#5841d8;stroke-width:.444358"/></g></svg>