<svg width="150" height="100" style="clip-rule:evenodd;fill-rule:evenodd;image-rendering:optimizeQuality;shape-rendering:geometricPrecision;text-rendering:geometricPrecision" version="1.1" id="svg587" xml:space="preserve" xmlns="http://www.w3.org/2000/svg"><style id="style324">.st2{fill:#ffc214}.st3{fill:#f9f185}.st0{fill:#222221}.st1{fill:#272425}</style><g id="g235" transform="translate(21.141 4.701) scale(1.57211)"><path style="clip-rule:evenodd;fill:#fff;fill-rule:evenodd;stroke-width:.750724;image-rendering:optimizeQuality;shape-rendering:geometricPrecision;text-rendering:geometricPrecision" id="rect875-36" d="M-13.448-2.99h95.413v63.609h-95.413z"/><g id="g586" transform="translate(-8.318 -15.954) scale(1.31093)"><g id="g414"><path fill="#ef8022" d="M32.7 23.9c-.2-1-1.3-1.7-2.3-1.4L7.7 27.9c-1 .2-1.7 1.3-1.4 2.3l3.1 12.9c.2 1 1.3 1.7 2.3 1.4l22.7-5.4c1-.2 1.7-1.3 1.4-2.3z" id="Layer_2_1_" style="clip-rule:evenodd;fill-rule:evenodd;image-rendering:optimizeQuality;shape-rendering:geometricPrecision;text-rendering:geometricPrecision"/><path fill="#ffc214" d="M9.7 47.4c.6.9 1.8 1.1 2.7.5l6.7-4.6-7.4 1.8c-1.3.3-2.6-.5-2.9-1.8L6 31.5l-3.3 2.3c-.9.6-1.1 1.8-.5 2.7Zm4.5-21.6L25.9 23l-1.3-2c-.6-.9-1.8-1.1-2.7-.5Z" id="path204" style="clip-rule:evenodd;fill-rule:evenodd;image-rendering:optimizeQuality;shape-rendering:geometricPrecision;text-rendering:geometricPrecision"/><path fill="#f9f185" d="M12.6 48.3c-.2.2-.5.3-.7.3l.8.5c.9.6 2.1.4 2.7-.5l3.1-4.4zM2.3 37.5l-1 1.4c-.6.9-.4 2.1.5 2.7L8.1 46Zm10.6-11.4 7.2-5-2.7-1.9c-.9-.6-2.1-.4-2.7.5l-5 7.2z" id="path207" style="clip-rule:evenodd;fill-rule:evenodd;image-rendering:optimizeQuality;shape-rendering:geometricPrecision;text-rendering:geometricPrecision"/><path fill="#ffc214" d="M11.9 42.8c-.7 0-1.4-.5-1.7-1.1l-1.5-3.2 1.1 4.6c.2.6.7 1.1 1.4 1.1h.3l17-4.1-16.2 2.7z" id="Layer_5"/></g><g id="g401" style="clip-rule:evenodd;fill-rule:evenodd;image-rendering:optimizeQuality;shape-rendering:geometricPrecision;text-rendering:geometricPrecision" transform="translate(-210.313 -158.758) scale(.2388)"><path fill="#fff" d="M16 35.5s-1.1 1.2-2.5 1.2c-1.7 0-2.6-1.4-2.6-2.8 0-1.3.9-2.7 2.6-2.7 1.3 0 2.3 1 2.3 1l1.1-1.7s-.6-.7-1.9-1.1v-1.2h-1.1v1h-.6v-1h-1.1v1.1c-2.2.5-3.7 2.4-3.7 4.7 0 2.4 1.5 4.2 3.7 4.7v1.2h1.1v-1h.6V40H15v-1.3c1.4-.4 2.1-1.3 2.1-1.3z" id="Layer_6" style="clip-rule:evenodd;fill-rule:evenodd;image-rendering:optimizeQuality;shape-rendering:geometricPrecision;text-rendering:geometricPrecision" transform="translate(880.731 664.83) scale(4.1877)"/><path fill="#fff" d="M21 31.7c2.1 0 3.8 1.4 3.8 3.6 0 2.1-1.7 3.5-3.8 3.5-2.1 0-3.8-1.4-3.8-3.5s1.7-3.6 3.8-3.6zm0 5.2c.8 0 1.5-.6 1.5-1.6s-.7-1.7-1.5-1.7-1.5.6-1.5 1.7c0 1 .7 1.6 1.5 1.6zm4.3-5h2.3v6.7h-2.3zm0-2.6h2.2v1.8h-2.2zm3.2 2.6h2.2v1c.3-.5 1-1.2 2.1-1.2 1.4 0 2.4.6 2.4 2.5v4.4h-2.3v-4c0-.6-.2-.9-.7-.9-.7 0-1.1.4-1.3 1-.1.3-.1.6-.1.9v3h-2.3z" id="path212" style="clip-rule:evenodd;fill-rule:evenodd;image-rendering:optimizeQuality;shape-rendering:geometricPrecision;text-rendering:geometricPrecision" transform="translate(880.731 664.83) scale(4.1877)"/><path fill="#ef8022" d="M39.3 31.9c1.7 0 2.5 1 2.5 1l-.6.9s-.7-.8-1.8-.8c-1.3 0-2.3 1-2.3 2.4 0 1.3 1 2.4 2.3 2.4 1.2 0 2-.9 2-.9l.5.9s-.9 1.1-2.6 1.1c-2.1 0-3.5-1.5-3.5-3.5-.1-2 1.4-3.5 3.5-3.5zm6.8 2.6h.3v-.1c0-1.1-.6-1.5-1.5-1.5-1 0-1.8.6-1.8.6l-.5-.9s1-.8 2.5-.8c1.7 0 2.6.9 2.6 2.6v4.2h-1.2v-1.1s-.5 1.3-2.1 1.3c-1.1 0-2.3-.7-2.3-2 0-2.2 2.9-2.3 4-2.3zm-1.4 3.3c1.1 0 1.8-1.1 1.8-2.1v-.2h-.3c-1 0-2.7.1-2.7 1.3-.1.5.3 1 1.2 1zm3.8-5.8h1.2v1.7c.3-1 1.1-1.7 2.1-1.7h.3v1.3h-.4c-.8 0-1.6.6-1.9 1.6-.1.4-.2.8-.2 1.2v2.7h-1.3V32Zm6.8-.1c1.5 0 2 1 2 1v-3.5h1.3v9.2h-1.2v-1s-.5 1.2-2.2 1.2c-1.8 0-2.9-1.4-2.9-3.5s1.3-3.4 3-3.4zm.2 5.8c1 0 1.9-.7 1.9-2.4 0-1.2-.6-2.4-1.9-2.4-1 0-1.9.9-1.9 2.4s.8 2.4 1.9 2.4zm4.2-.8s.7.8 1.9.8c.5 0 1.1-.3 1.1-.8 0-1.2-3.4-1-3.4-3.1 0-1.2 1.1-1.9 2.4-1.9 1.5 0 2.1.7 2.1.7l-.5 1s-.6-.6-1.6-.6c-.5 0-1.1.2-1.1.8 0 1.2 3.4.9 3.4 3.1 0 1.1-.9 1.9-2.4 1.9-1.6 0-2.5-1-2.5-1z" id="path215" style="clip-rule:evenodd;fill-rule:evenodd;image-rendering:optimizeQuality;shape-rendering:geometricPrecision;text-rendering:geometricPrecision" transform="translate(880.731 664.83) scale(4.1877)"/></g></g></g></svg>