<?xml version="1.0" encoding="UTF-8" standalone="no"?>
<svg
   width="150.00002"
   height="99.999985"
   style="clip-rule:evenodd;fill-rule:evenodd;image-rendering:optimizeQuality;shape-rendering:geometricPrecision;text-rendering:geometricPrecision"
   version="1.1"
   id="svg587"
   xml:space="preserve"
   xmlns="http://www.w3.org/2000/svg"
   xmlns:svg="http://www.w3.org/2000/svg"><defs
     id="defs591" /><style
     id="style324">.st0{fill:#222221}.st1{fill:#272425}</style><style
     id="style1018">.st0{fill:#fff}.st1{fill:#ef8022}.st2{fill:#ffc214}.st3{fill:#f9f185}</style><style
     id="style1415">.st0{fill:#222221}.st1{fill:#272425}</style><style
     id="style1490">.st0{fill:#222221}.st1{fill:#272425}</style><g
     id="g931"
     transform="matrix(0.375,0,0,0.375,-306.86342,-123.51037)"><rect
       style="clip-rule:evenodd;fill:#ffffff;fill-rule:evenodd;stroke-width:3.14727;image-rendering:optimizeQuality;shape-rendering:geometricPrecision;text-rendering:geometricPrecision"
       id="rect875"
       width="400"
       height="266.66666"
       x="818.30243"
       y="329.36099" /><path
       d="m 968.71355,501.72507 c 11.80842,0 20.53685,-7.01705 20.53685,-16.68069 0,-4.37281 -1.84852,-8.33914 -5.13424,-10.98337 -2.56585,-1.93417 -7.18837,-4.26992 -12.8343,-6.3045 -3.59419,-1.32214 -5.03135,-2.54388 -5.03135,-3.96638 0,-1.42493 1.33433,-2.441 3.18286,-2.441 1.2315,0 2.9772,0.40658 4.41436,1.01607 l 1.33437,0.50941 2.66872,1.21932 c 1.43966,0.50941 2.67115,0.81526 3.69704,0.91567 3.28817,0.20303 6.47104,-3.15349 6.47104,-6.8138 0,-5.90056 -7.59978,-10.37371 -17.45686,-10.37371 -11.29429,0 -19.61138,7.01703 -19.61138,16.57786 0,4.37279 1.43721,7.93271 4.21123,10.3737 2.36021,1.93423 7.18589,4.16957 14.47714,6.61057 3.18287,1.11891 4.41436,2.13498 4.41436,3.66032 0,1.93417 -1.43716,3.05065 -4.00551,3.05065 -1.64039,0 -3.69701,-0.50677 -5.23458,-1.32214 l -2.46552,-1.21927 -1.33433,-0.71 c -1.7457,-0.91816 -3.28569,-1.32215 -4.72533,-1.32215 -3.48893,0 -6.77462,3.35425 -6.77462,6.91421 0,5.69484 9.44576,11.28691 19.20005,11.28691 z m 38.61065,-0.61209 c 4.7205,0 7.7001,-3.25389 7.7001,-8.43954 v -28.88331 h 3.697 c 5.4403,0 8.4175,-2.441 8.4175,-7.11982 0,-4.882 -2.7715,-7.22265 -8.4199,-7.22265 h -3.697 v -9.45556 c 0,-5.18806 -2.9772,-8.44196 -7.7001,-8.44196 -4.8232,0 -7.7001,3.25632 -7.7001,8.44196 v 9.45798 h -1.1311 c -5.5432,0 -8.31717,2.33823 -8.31717,7.22023 0,4.77923 2.77397,7.11982 8.31717,7.11982 h 1.1311 v 28.88331 c 0,5.18565 2.9773,8.43954 7.7001,8.43954 z m 30.1883,0.10283 c 4.6176,0 7.5972,-3.25632 7.5972,-8.44196 v -19.72892 c 0,-1.52532 0.3059,-3.15348 0.9231,-4.47558 0.7199,-1.72856 1.8485,-2.64424 4.8257,-3.66031 10.2684,-3.96633 7.5997,-2.95026 8.2143,-3.1535 2.7739,-1.22173 3.9027,-3.15348 3.9027,-6.30449 0,-3.96638 -3.5942,-7.42589 -7.5998,-7.42589 -3.5917,0 -6.8798,1.72852 -10.7801,5.79773 -1.6428,-4.06921 -3.4914,-5.49171 -7.0855,-5.49171 -4.8258,0 -7.803,3.15349 -7.803,8.44197 v 36.0007 c 0,5.18806 2.9772,8.44196 7.803,8.44196 z m 35.6286,-56.44454 c 5.3374,0 9.0344,-3.66026 9.0344,-8.84838 0,-5.18559 -3.7974,-8.94874 -8.9317,-8.94874 -5.2394,0 -9.0344,3.76315 -9.0344,8.84839 0,5.18564 3.795,8.94873 8.9317,8.94873 z m 0.1027,56.23888 c 4.6201,0 7.5974,-3.25146 7.5974,-8.43954 v -35.69706 c 0,-5.18565 -2.9773,-8.44197 -7.5974,-8.44197 -4.8256,0 -7.8053,3.15349 -7.8053,8.44197 v 35.69706 c 0,5.28848 2.8768,8.44197 7.8053,8.44197 z m 51.8441,0.10283 c 4.2111,0 7.4945,-3.15107 7.4945,-7.22022 0,-2.64424 -0.6146,-3.76314 -5.1343,-9.25481 l -0.923,-1.1189 -9.96,-12.5087 7.1885,-7.32057 c 4.9285,-5.19055 3.5917,-3.76558 4.1059,-4.37523 1.4372,-1.62816 1.7456,-2.441 1.7456,-3.96633 0,-3.86355 -3.1828,-7.42346 -6.777,-7.42346 -2.8744,0 -5.0314,1.21932 -8.8312,5.28847 l -2.0518,2.23782 -9.7567,10.16805 v -30.50906 c 0,-5.18806 -2.9772,-8.44195 -7.7001,-8.44195 -2.8743,0 -5.4427,1.42497 -6.7771,3.66031 -0.7173,1.32214 -0.923,2.23782 -0.923,4.78164 v 57.56098 c 0,5.28847 2.8744,8.44196 7.7001,8.44196 4.8258,0 7.7001,-3.25389 7.7001,-8.43954 v -15.86536 l 9.9624,12.81471 1.8461,2.43857 c 5.4426,7.22265 7.5997,9.05162 11.091,9.05162 z m 32.9794,0.50941 c 5.8516,0 11.5,-1.42249 16.5314,-4.16957 4.1083,-2.33816 6.1625,-4.9824 6.1625,-7.93271 0,-3.5599 -2.8769,-6.71339 -6.2653,-6.71339 -1.0284,0 -2.5659,0.40869 -4.0032,1.1189 l -1.1311,0.50941 -1.0259,0.50941 -1.1286,0.60966 -1.3368,0.61208 c -2.8744,1.11649 -4.5173,1.52291 -7.0832,1.52291 -5.6484,0 -9.3453,-2.74465 -10.6797,-7.82988 h 27.2111 c 4.62,0 6.3657,-1.83134 6.3657,-6.51016 0,-4.67639 -1.3343,-9.45804 -3.697,-13.52478 -4.6201,-7.72947 -11.9113,-11.89904 -21.0486,-11.89904 -15.3022,0 -25.7738,11.38979 -25.7738,28.068 0,15.15536 11.091,25.62948 26.9025,25.62948 z m -273.88343,-99.31284 43.45355,15.81638 c 0.17402,0.0638 0.34276,0.13447 0.50677,0.21305 0.38917,0.12234 0.77614,0.2547 1.16542,0.39655 13.8455,5.03873 21.03145,20.21365 16.05389,33.8951 -4.97993,13.67897 -20.2406,20.68378 -34.08605,15.64504 l -45.1233,-16.4236 c -2.76905,-1.00875 -4.20869,-4.0447 -3.21223,-6.78195 0.99646,-2.73484 4.04712,-4.13529 6.81623,-3.1266 l 25.07123,9.12508 a 26.089729,26.089729 0 0 1 -0.90592,-11.55136 l -51.47679,-18.73489 c -2.76906,-1.00869 -4.20627,-4.04469 -3.20976,-6.78195 0.99404,-2.73236 4.04712,-4.13281 6.81623,-3.12412 l 51.47432,18.72998 a 26.089729,26.089729 0 0 1 8.11875,-8.26567 l -25.06875,-9.1226 c -2.76664,-1.00627 -4.20627,-4.04227 -3.20981,-6.77952 0.99651,-2.73479 4.04717,-4.13529 6.81622,-3.12898 z m 272.96033,58.12406 c 5.1343,0 8.3171,2.95026 9.2403,8.84839 h -19.0973 c 1.54,-5.79773 4.9286,-8.84839 9.857,-8.84839 z M 905.37933,438.06784 c -3.00167,8.24363 1.31481,17.38089 9.63675,20.4095 8.32442,3.02867 17.50092,-1.19721 20.50258,-9.44084 2.99924,-8.24363 -1.31476,-17.38094 -9.63675,-20.40956 -8.32443,-3.02862 -17.50334,1.19727 -20.50258,9.4409 z"
       fill="currentColor"
       id="path420"
       style="stroke-width:2.44837" /></g></svg>
