<?xml version="1.0" encoding="UTF-8" standalone="no"?>
<svg
   width="150"
   height="100"
   style="clip-rule:evenodd;fill-rule:evenodd;image-rendering:optimizeQuality;shape-rendering:geometricPrecision;text-rendering:geometricPrecision"
   version="1.1"
   id="svg587"
   xml:space="preserve"
   xmlns="http://www.w3.org/2000/svg"
   xmlns:svg="http://www.w3.org/2000/svg"><defs
     id="defs591" /><style
     id="style324">.st0{fill:#222221}.st1{fill:#272425}</style><style
     id="style1018">.st0{fill:#fff}.st1{fill:#ef8022}.st2{fill:#ffc214}.st3{fill:#f9f185}</style><style
     id="style1415">.st0{fill:#222221}.st1{fill:#272425}</style><style
     id="style1490">.st0{fill:#222221}.st1{fill:#272425}</style><g
     id="g235"
     transform="matrix(1.5721144,0,0,1.5721144,21.141061,4.7012675)"><rect
       style="clip-rule:evenodd;fill:#ffffff;fill-rule:evenodd;stroke-width:0.750724;image-rendering:optimizeQuality;shape-rendering:geometricPrecision;text-rendering:geometricPrecision"
       id="rect875-36"
       width="95.412903"
       height="63.608604"
       x="-13.447515"
       y="-2.9904096" /><g
       id="g586"
       transform="matrix(1.3109251,0,0,1.3109251,-8.3179651,-15.954199)"><g
         id="g414"><path
           fill="#ef8022"
           d="m 32.7,23.9 c -0.2,-1 -1.3,-1.7 -2.3,-1.4 L 7.7,27.9 c -1,0.2 -1.7,1.3 -1.4,2.3 l 3.1,12.9 c 0.2,1 1.3,1.7 2.3,1.4 l 22.7,-5.4 c 1,-0.2 1.7,-1.3 1.4,-2.3 z"
           id="Layer_2_1_"
           style="clip-rule:evenodd;fill-rule:evenodd;image-rendering:optimizeQuality;shape-rendering:geometricPrecision;text-rendering:geometricPrecision" /><path
           fill="#ffc214"
           d="m 9.7,47.4 c 0.6,0.9 1.8,1.1 2.7,0.5 l 6.7,-4.6 -7.4,1.8 C 10.4,45.4 9.1,44.6 8.8,43.3 L 6,31.5 2.7,33.8 C 1.8,34.4 1.6,35.6 2.2,36.5 Z M 14.2,25.8 25.9,23 24.6,21 C 24,20.1 22.8,19.9 21.9,20.5 Z"
           id="path204"
           style="clip-rule:evenodd;fill-rule:evenodd;image-rendering:optimizeQuality;shape-rendering:geometricPrecision;text-rendering:geometricPrecision" /><path
           fill="#f9f185"
           d="m 12.6,48.3 c -0.2,0.2 -0.5,0.3 -0.7,0.3 l 0.8,0.5 c 0.9,0.6 2.1,0.4 2.7,-0.5 l 3.1,-4.4 z M 2.3,37.5 1.3,38.9 C 0.7,39.8 0.9,41 1.8,41.6 L 8.1,46 Z m 10.6,-11.4 7.2,-5 -2.7,-1.9 c -0.9,-0.6 -2.1,-0.4 -2.7,0.5 l -5,7.2 z"
           id="path207"
           style="clip-rule:evenodd;fill-rule:evenodd;image-rendering:optimizeQuality;shape-rendering:geometricPrecision;text-rendering:geometricPrecision" /><path
           fill="#ffc214"
           d="m 11.9,42.8 c -0.7,0 -1.4,-0.5 -1.7,-1.1 l -1.5,-3.2 1.1,4.6 c 0.2,0.6 0.7,1.1 1.4,1.1 h 0.3 l 17,-4.1 -16.2,2.7 z"
           id="Layer_5" /></g><g
         id="g401"
         style="clip-rule:evenodd;fill-rule:evenodd;image-rendering:optimizeQuality;shape-rendering:geometricPrecision;text-rendering:geometricPrecision"
         transform="matrix(0.23879408,0,0,0.23879408,-210.31334,-158.75759)"><path
           fill="#ffffff"
           d="m 16,35.5 c 0,0 -1.1,1.2 -2.5,1.2 -1.7,0 -2.6,-1.4 -2.6,-2.8 0,-1.3 0.9,-2.7 2.6,-2.7 1.3,0 2.3,1 2.3,1 l 1.1,-1.7 c 0,0 -0.6,-0.7 -1.9,-1.1 v -1.2 h -1.1 v 1 h -0.6 v -1 h -1.1 v 1.1 C 10,29.8 8.5,31.7 8.5,34 c 0,2.4 1.5,4.2 3.7,4.7 v 1.2 h 1.1 v -1 h 0.6 V 40 H 15 v -1.3 c 1.4,-0.4 2.1,-1.3 2.1,-1.3 z"
           id="Layer_6"
           style="clip-rule:evenodd;fill-rule:evenodd;image-rendering:optimizeQuality;shape-rendering:geometricPrecision;text-rendering:geometricPrecision"
           transform="matrix(4.1877085,0,0,4.1877085,880.73096,664.83052)" /><path
           fill="#ffffff"
           d="m 21,31.7 c 2.1,0 3.8,1.4 3.8,3.6 0,2.1 -1.7,3.5 -3.8,3.5 -2.1,0 -3.8,-1.4 -3.8,-3.5 0,-2.1 1.7,-3.6 3.8,-3.6 z m 0,5.2 c 0.8,0 1.5,-0.6 1.5,-1.6 0,-1 -0.7,-1.7 -1.5,-1.7 -0.8,0 -1.5,0.6 -1.5,1.7 0,1 0.7,1.6 1.5,1.6 z m 4.3,-5 h 2.3 v 6.7 h -2.3 z m 0,-2.6 h 2.2 v 1.8 h -2.2 z m 3.2,2.6 h 2.2 v 1 c 0.3,-0.5 1,-1.2 2.1,-1.2 1.4,0 2.4,0.6 2.4,2.5 v 4.4 h -2.3 v -4 c 0,-0.6 -0.2,-0.9 -0.7,-0.9 -0.7,0 -1.1,0.4 -1.3,1 -0.1,0.3 -0.1,0.6 -0.1,0.9 v 3 h -2.3 z"
           id="path212"
           style="clip-rule:evenodd;fill-rule:evenodd;image-rendering:optimizeQuality;shape-rendering:geometricPrecision;text-rendering:geometricPrecision"
           transform="matrix(4.1877085,0,0,4.1877085,880.73096,664.83052)" /><path
           fill="#ef8022"
           d="m 39.3,31.9 c 1.7,0 2.5,1 2.5,1 l -0.6,0.9 c 0,0 -0.7,-0.8 -1.8,-0.8 -1.3,0 -2.3,1 -2.3,2.4 0,1.3 1,2.4 2.3,2.4 1.2,0 2,-0.9 2,-0.9 l 0.5,0.9 c 0,0 -0.9,1.1 -2.6,1.1 -2.1,0 -3.5,-1.5 -3.5,-3.5 -0.1,-2 1.4,-3.5 3.5,-3.5 z m 6.8,2.6 h 0.3 v -0.1 c 0,-1.1 -0.6,-1.5 -1.5,-1.5 -1,0 -1.8,0.6 -1.8,0.6 l -0.5,-0.9 c 0,0 1,-0.8 2.5,-0.8 1.7,0 2.6,0.9 2.6,2.6 v 4.2 h -1.2 v -1.1 c 0,0 -0.5,1.3 -2.1,1.3 -1.1,0 -2.3,-0.7 -2.3,-2 0,-2.2 2.9,-2.3 4,-2.3 z m -1.4,3.3 c 1.1,0 1.8,-1.1 1.8,-2.1 v -0.2 h -0.3 c -1,0 -2.7,0.1 -2.7,1.3 -0.1,0.5 0.3,1 1.2,1 z M 48.5,32 h 1.2 v 1.7 C 50,32.7 50.8,32 51.8,32 h 0.3 v 1.3 h -0.4 c -0.8,0 -1.6,0.6 -1.9,1.6 -0.1,0.4 -0.2,0.8 -0.2,1.2 v 2.7 H 48.3 V 32 Z m 6.8,-0.1 c 1.5,0 2,1 2,1 v -3.5 h 1.3 v 9.2 h -1.2 v -1 c 0,0 -0.5,1.2 -2.2,1.2 -1.8,0 -2.9,-1.4 -2.9,-3.5 0,-2.1 1.3,-3.4 3,-3.4 z m 0.2,5.8 c 1,0 1.9,-0.7 1.9,-2.4 0,-1.2 -0.6,-2.4 -1.9,-2.4 -1,0 -1.9,0.9 -1.9,2.4 0,1.5 0.8,2.4 1.9,2.4 z m 4.2,-0.8 c 0,0 0.7,0.8 1.9,0.8 0.5,0 1.1,-0.3 1.1,-0.8 0,-1.2 -3.4,-1 -3.4,-3.1 0,-1.2 1.1,-1.9 2.4,-1.9 1.5,0 2.1,0.7 2.1,0.7 l -0.5,1 c 0,0 -0.6,-0.6 -1.6,-0.6 -0.5,0 -1.1,0.2 -1.1,0.8 0,1.2 3.4,0.9 3.4,3.1 0,1.1 -0.9,1.9 -2.4,1.9 -1.6,0 -2.5,-1 -2.5,-1 z"
           id="path215"
           style="clip-rule:evenodd;fill-rule:evenodd;image-rendering:optimizeQuality;shape-rendering:geometricPrecision;text-rendering:geometricPrecision"
           transform="matrix(4.1877085,0,0,4.1877085,880.73096,664.83052)" /></g></g></g></svg>
