<?xml version="1.0" encoding="UTF-8" standalone="no"?>
<svg
   width="150"
   height="99.999992"
   style="clip-rule:evenodd;fill-rule:evenodd;image-rendering:optimizeQuality;shape-rendering:geometricPrecision;text-rendering:geometricPrecision"
   version="1.1"
   id="svg587"
   xml:space="preserve"
   xmlns="http://www.w3.org/2000/svg"
   xmlns:svg="http://www.w3.org/2000/svg"><defs
     id="defs591" /><style
     id="style324">.st0{fill:#222221}.st1{fill:#272425}</style><style
     id="style1018">.st0{fill:#fff}.st1{fill:#ef8022}.st2{fill:#ffc214}.st3{fill:#f9f185}</style><style
     id="style1415">.st0{fill:#222221}.st1{fill:#272425}</style><style
     id="style1490">.st0{fill:#222221}.st1{fill:#272425}</style><g
     id="g227"
     transform="translate(-485.74756,-113.48994)"><path
       class="st0"
       d="m 538.38525,186.34548 h 1.99961 v 2.16847 c 0.16441,-0.42214 0.56877,-0.93759 1.20865,-1.54192 0.63987,-0.60433 1.37752,-0.90649 2.21291,-0.90649 0.0399,0 0.10664,0.005 0.19996,0.0132 0.0933,0.008 0.25328,0.0221 0.4799,0.0488 v 2.22178 c -0.12443,-0.0221 -0.23995,-0.0356 -0.3466,-0.0445 -0.10664,-0.008 -0.22217,-0.0132 -0.3466,-0.0132 -1.06202,0 -1.87963,0.34214 -2.44841,1.02646 -0.56878,0.68431 -0.85316,1.47082 -0.85316,2.35954 v 7.21193 h -2.10626 z m 14.65049,4.9546 c 0.48434,-0.0622 0.80871,-0.26662 0.97313,-0.60879 0.0933,-0.19107 0.13776,-0.45768 0.13776,-0.81315 0,-0.71988 -0.2533,-1.24421 -0.76431,-1.5686 -0.51544,-0.32882 -1.2442,-0.48879 -2.19512,-0.48879 -1.09756,0 -1.87519,0.29773 -2.33732,0.89315 -0.25329,0.32884 -0.42658,0.81764 -0.49769,1.47084 h -1.96849 c 0.0399,-1.55081 0.53766,-2.62616 1.50192,-3.23494 0.96426,-0.60876 2.08404,-0.91093 3.35046,-0.91093 1.47083,0 2.67059,0.27994 3.59041,0.84428 0.91094,0.56435 1.36862,1.43527 1.36862,2.62171 v 7.22527 c 0,0.22217 0.0445,0.39547 0.12886,0.52878 0.0933,0.13331 0.27994,0.19995 0.56879,0.19995 0.0933,0 0.19995,-0.005 0.3155,-0.0178 0.11997,-0.0132 0.24439,-0.0311 0.37769,-0.0534 v 1.55526 c -0.32882,0.0933 -0.57767,0.15108 -0.75096,0.17774 -0.1733,0.0221 -0.40437,0.0311 -0.70208,0.0311 -0.72875,0 -1.2531,-0.25773 -1.57748,-0.77318 -0.1733,-0.27106 -0.29773,-0.66209 -0.36436,-1.15979 -0.4266,0.56434 -1.04426,1.04869 -1.84853,1.46195 -0.80429,0.41325 -1.68857,0.6221 -2.66171,0.6221 -1.15978,0 -2.11515,-0.3555 -2.84834,-1.05757 -0.73765,-0.70653 -1.10645,-1.5908 -1.10645,-2.64837 0,-1.16423 0.36437,-2.06182 1.08868,-2.7017 0.72874,-0.63987 1.67967,-1.03091 2.86166,-1.18199 z m -4.43915,5.69666 c 0.44436,0.35104 0.97314,0.52435 1.57748,0.52435 0.74207,0 1.46193,-0.17331 2.15512,-0.51546 1.17311,-0.56878 1.75522,-1.50193 1.75522,-2.79502 v -1.69744 c -0.25773,0.16441 -0.58655,0.30215 -0.99092,0.40881 -0.40436,0.11109 -0.79984,0.18664 -1.19087,0.23551 l -1.27532,0.16441 c -0.75985,0.10221 -1.3375,0.26218 -1.72409,0.47991 -0.65322,0.36881 -0.97759,0.95091 -0.97759,1.7552 0.005,0.60878 0.2266,1.08869 0.67097,1.43973 z m 30.79845,-10.30466 c 0.83095,0.41769 1.46193,0.95982 1.8974,1.6219 0.41771,0.631 0.69766,1.36863 0.8354,2.21291 0.12442,0.57767 0.18664,1.49749 0.18664,2.76391 h -9.12267 c 0.0399,1.27531 0.3377,2.29732 0.89315,3.0705 0.55546,0.77319 1.42195,1.15535 2.59061,1.15535 1.09311,0 1.96406,-0.36439 2.61727,-1.09313 0.36437,-0.42214 0.6221,-0.91539 0.77317,-1.46638 h 2.07072 c -0.0533,0.46213 -0.23552,0.97314 -0.54656,1.54192 -0.31104,0.56434 -0.65321,1.02648 -1.03091,1.3864 -0.63543,0.62654 -1.42194,1.04424 -2.35954,1.26197 -0.50213,0.12442 -1.07535,0.18664 -1.71079,0.18664 -1.55081,0 -2.8661,-0.56878 -3.9459,-1.7019 -1.07977,-1.13311 -1.61746,-2.72391 -1.61746,-4.7724 0,-2.01294 0.54212,-3.65262 1.6308,-4.90572 1.08423,-1.25752 2.50617,-1.88406 4.26139,-1.88406 0.88873,0 1.74633,0.20439 2.57728,0.62209 z m 0.7554,4.92792 c -0.0889,-0.91537 -0.28438,-1.64412 -0.59543,-2.19067 -0.57322,-1.01758 -1.52859,-1.51971 -2.87055,-1.51971 -0.95982,0 -1.75966,0.3466 -2.41286,1.04868 -0.64877,0.69765 -0.99537,1.58636 -1.03535,2.66615 h 6.91419 z m 4.83462,-5.27452 h 2.00405 v 1.78187 c 0.591,-0.73319 1.222,-1.25753 1.88408,-1.5819 0.66655,-0.31994 1.39973,-0.47991 2.21291,-0.47991 1.78188,0 2.98164,0.61764 3.60819,1.86187 0.34214,0.67986 0.51545,1.65299 0.51545,2.91942 v 8.04287 h -2.14624 v -7.90512 c 0,-0.7643 -0.11555,-1.38195 -0.33772,-1.85297 -0.37771,-0.78208 -1.05313,-1.17311 -2.03516,-1.17311 -0.50213,0 -0.91094,0.0488 -1.23088,0.15108 -0.57765,0.1733 -1.08867,0.51545 -1.52414,1.03091 -0.35104,0.41325 -0.57768,0.83983 -0.6843,1.27976 -0.10666,0.43991 -0.15998,1.07089 -0.15998,1.89297 v 6.5676 h -2.1107 v -12.53534 z m -48.57276,0 h -2.69281 l -5.40784,5.32785 v -5.32785 h -2.02627 v 12.54422 h 2.02627 v -4.70574 l 1.733,-1.67524 3.94589,6.38098 h 2.69282 l -5.09234,-7.87847 z m 28.49667,4.66575 4.82127,-4.66575 h -2.69279 l -5.40339,5.32785 v -5.32785 h -2.02628 v 12.54422 h 2.02628 v -4.70574 l 1.72854,-1.67524 3.9459,6.38098 h 2.69282 z m -4.23473,-63.36543 c -18.99631,0 -34.38886,15.40145 -34.38886,34.40219 v 14.73934 c 0,2.71504 2.19958,4.91016 4.90571,4.91016 2.71058,0 4.92349,-2.19512 4.92349,-4.91016 v -14.73934 c 0,-2.71946 2.19068,-4.91904 4.91016,-4.91904 2.71057,0 4.91014,2.19958 4.91014,4.91904 v 14.73934 c 0,2.71504 2.19958,4.91016 4.91016,4.91016 2.71947,0 4.91904,-2.19512 4.91904,-4.91016 v -14.73934 c 0,-2.71946 2.19958,-4.91904 4.91016,-4.91904 2.71947,0 4.92348,2.19958 4.92348,4.91904 v 14.73934 c 0,2.71504 2.19959,4.91016 4.90572,4.91016 2.71058,0 4.91015,-2.19512 4.91015,-4.91016 v -14.73934 c 0,-2.71946 2.19958,-4.91904 4.92348,-4.91904 2.71058,0 4.91017,2.19958 4.91017,4.91904 v 14.73934 c 0,2.71504 2.19957,4.91016 4.91903,4.91016 2.71058,0 4.91016,-2.19512 4.91016,-4.91016 v -14.73934 c 0,-19.00074 -15.40589,-34.40219 -34.40219,-34.40219 z"
       id="path962"
       style="fill:#5841d8;stroke-width:0.444358" /></g></svg>
