<?xml version="1.0" encoding="UTF-8" standalone="no"?>
<svg
   width="149.99997"
   height="100"
   style="clip-rule:evenodd;fill-rule:evenodd;image-rendering:optimizeQuality;shape-rendering:geometricPrecision;text-rendering:geometricPrecision"
   version="1.1"
   id="svg587"
   xml:space="preserve"
   xmlns="http://www.w3.org/2000/svg"
   xmlns:svg="http://www.w3.org/2000/svg"><defs
     id="defs591"><linearGradient
       id="a-3"
       x1="81.360001"
       y1="311.35001"
       x2="541.34998"
       y2="311.35001"
       gradientUnits="userSpaceOnUse"
       gradientTransform="matrix(0.13894455,0,0,0.13894455,195.61847,116.74134)"><stop
         offset=".18"
         stop-color="#00f"
         id="stop5572" /><stop
         offset="1"
         stop-color="#f0f"
         id="stop5574" /></linearGradient></defs><style
     id="style324">.st0{fill:#222221}.st1{fill:#272425}</style><style
     id="style1018">.st0{fill:#fff}.st1{fill:#ef8022}.st2{fill:#ffc214}.st3{fill:#f9f185}</style><style
     id="style1415">.st0{fill:#222221}.st1{fill:#272425}</style><style
     id="style1490">.st0{fill:#222221}.st1{fill:#272425}</style><g
     id="g253"
     transform="translate(-163.87756,-110.00308)"><path
       d="m 240.96997,196.23014 c -17.39584,0 -25.76031,-9.59969 -29.72301,-17.65847 -3.92102,-7.99348 -4.25031,-15.91749 -4.27811,-17.04711 -0.67387,-10.69873 5.69673,-32.20456 34.67779,-37.68176 a 3.89769,3.89769 0 0 1 1.44641,7.66001 c -29.61186,5.5967 -28.40583,28.62258 -28.34469,29.59519 0,0.0736 0.008,0.14728 0.01,0.22231 0.0209,1.09766 0.70863,27.11642 26.21189,27.11642 9.49548,0 16.20094,-4.08497 19.95245,-12.13959 3.40135,-7.32792 2.68024,-15.62431 -1.87853,-21.65172 -3.18045,-4.20586 -7.28904,-6.25251 -12.55782,-6.25251 -4.78802,0 -8.8188,1.37278 -11.97841,4.0808 a 12.713425,12.713425 0 0 0 -4.43093,9.04947 c -0.19591,3.52918 0.99206,6.8583 3.3444,9.37736 2.11195,2.25229 4.57543,3.34995 7.54884,3.34995 3.81543,0 6.32476,-1.25049 7.45578,-3.7251 1.16435,-2.54268 0.50159,-5.40911 -0.0264,-6.02046 -1.26579,-1.38945 -2.59687,-1.90077 -3.12346,-1.80629 -0.35154,0.0598 -0.80311,0.64054 -1.17827,1.51728 a 3.8957141,3.8957141 0 0 1 -7.16674,-3.05678 c 1.98412,-4.64631 5.27155,-5.83567 7.05282,-6.14134 3.44304,-0.5808 7.24874,1.01429 10.19019,4.25864 2.94146,3.24435 3.54447,9.52465 1.41029,14.34185 -1.39502,3.1471 -5.14928,8.42699 -14.61419,8.42699 -5.10205,0 -9.68027,-2.0133 -13.24002,-5.82455 -3.81682,-4.08497 -5.74398,-9.45935 -5.43413,-15.12968 a 20.716631,20.716631 0 0 1 7.12925,-14.53359 c 4.61155,-3.95298 10.34858,-5.95655 17.04988,-5.95655 7.65862,0 14.1515,3.23046 18.77419,9.34124 6.30252,8.33667 7.35017,19.68982 2.73166,29.63687 -3.52226,7.59609 -11.07111,16.65112 -27.01083,16.65112 z"
       style="clip-rule:evenodd;fill:url(#a-3);fill-rule:evenodd;stroke-width:0.138944;image-rendering:optimizeQuality;shape-rendering:geometricPrecision;text-rendering:geometricPrecision"
       id="path5579" /></g></svg>
