<svg width="150" height="100" style="clip-rule:evenodd;fill-rule:evenodd;image-rendering:optimizeQuality;shape-rendering:geometricPrecision;text-rendering:geometricPrecision" version="1.1" id="svg587" xml:space="preserve" xmlns="http://www.w3.org/2000/svg"><defs id="defs591"><linearGradient id="a" x1="108.127" y1="162.181" x2="74.499" y2="305.982" gradientUnits="userSpaceOnUse" gradientTransform="translate(-497.772 238.361) scale(.45358)"><stop stop-color="#FA1366" id="stop1586"/><stop offset="1" stop-color="#FD6E06" id="stop1588"/></linearGradient><linearGradient id="c" x1="152.732" y1="33.344" x2="2.684" y2="194.507" gradientUnits="userSpaceOnUse" gradientTransform="translate(-497.772 238.361) scale(.45358)"><stop stop-color="#F91500" id="stop1591"/><stop offset="1" stop-color="#FDD140" id="stop1593"/></linearGradient></defs><style id="style324">.st2{fill:#ffc214}.st3{fill:#f9f185}.st0{fill:#222221}.st1{fill:#272425}</style><g id="g2070" transform="translate(254.673 5.945) scale(.49819)" style="clip-rule:evenodd;fill-rule:evenodd;image-rendering:optimizeQuality;shape-rendering:geometricPrecision;text-rendering:geometricPrecision"><path style="clip-rule:evenodd;fill:#12161d;fill-opacity:1;fill-rule:evenodd;stroke-width:1.28329;image-rendering:optimizeQuality;shape-rendering:geometricPrecision;text-rendering:geometricPrecision" id="rect5216" d="M-511.196-11.933h301.09v200.727h-301.09z"/><g id="g5519" transform="matrix(.32686 0 0 .331 -325.367 -12.367)"><path d="M65.066 370.58V252.195c0-7.515 6.092-13.607 13.608-13.607h83.005v24.947H90.013v28.576h54.884v11.339c0 7.515-6.092 13.607-13.608 13.607H90.013v28.576h71.666v24.947zm149.228-107.045V370.58h24.947V263.535h42.637v-24.947h-95.706c-7.515 0-13.607 6.092-13.607 13.607v11.34zm-504.38-14.968V370.58h24.946v-87.087l51.631 87.087h25.025V238.588h-24.947v86.18l-51.611-86.18h-15.066c-5.51 0-9.978 4.468-9.978 9.979zm156.712 56.017-43.998 65.996h35.707l23.712-44.224 26.081 44.224h33.792l-42.41-65.996 42.637-65.996h-34.101l-25.999 41.503-23.813-41.503h-36.06z" fill="#fff" id="path1570" style="stroke-width:.45358"/><path fill-rule="evenodd" clip-rule="evenodd" d="M-47.421 370.58V251.288c0-7.014 5.687-12.7 12.7-12.7h59.419c16.283 0 29.483 13.2 29.483 29.483v16.053c0 10.762-8.315 19.693-19.05 20.46 10.7.637 19.05 9.5 19.05 20.218v16.295c0 16.283-13.2 29.483-29.483 29.483zm24.72-106.818h37.193c7.766 0 14.061 6.295 14.061 14.06 0 7.766-6.295 14.062-14.06 14.062h-37.194zm37.193 53.522H-22.7v28.122h37.193c7.766 0 14.061-6.295 14.061-14.06 0-7.767-6.295-14.062-14.06-14.062zm-403.913-78.696h47.626c21.043 0 38.101 17.058 38.101 38.1v9.526c0 21.042-17.058 38.1-38.1 38.1h-34.926v46.266h-24.947V250.835c0-6.764 5.483-12.247 12.246-12.247zm43.317 25.174h-30.39v35.379h30.39c9.77 0 17.69-7.92 17.69-17.69 0-9.77-7.92-17.69-17.69-17.69z" fill="#fff" id="path1572" style="stroke-width:.45358"/><path d="m-486.33 340.042 27.587 30.656c32.15-29.396 21.281-47.272 19.995-49.828-1.029-2.045-23.576-28.97-34.721-42.177l-12.86 12.78c-14.403 17.383-5.144 39.196 0 48.569z" fill="url(#a)" id="path1574" style="fill:url(#a);stroke-width:.45358"/><path d="m119.39 171.236-83.36 67.73 68.987-83.36z" fill="#c40537" id="path1576" style="clip-rule:evenodd;fill-rule:evenodd;image-rendering:optimizeQuality;shape-rendering:geometricPrecision;text-rendering:geometricPrecision" transform="translate(-497.772 238.361) scale(.45358)"/><path d="m-427.345 287.515-54.086 57.976c-18.149-16.132-21.316-35.29-8.822-50.414l55.455-56.716 7.33 12.247c13.155 22.225 3.904 31.445.123 36.907z" fill="url(#c)" id="path1580" style="fill:url(#c);stroke-width:.45358"/><path d="M36.027 113.925c-48.957 46.238-16.06 100.69 2.913 119.483-27.92-102.811-16.806-91.696 60.997-177.835 0 0-13.893 11.115-63.91 58.352z" fill="#fdd45f" id="path1582" style="clip-rule:evenodd;fill-rule:evenodd;image-rendering:optimizeQuality;shape-rendering:geometricPrecision;text-rendering:geometricPrecision" transform="translate(-497.772 238.361) scale(.45358)"/></g></g></svg>