<svg width="150" height="100" style="clip-rule:evenodd;fill-rule:evenodd;image-rendering:optimizeQuality;shape-rendering:geometricPrecision;text-rendering:geometricPrecision" version="1.1" id="svg587" xml:space="preserve" xmlns="http://www.w3.org/2000/svg"><style id="style324">.st0{fill:#222221}</style><g id="g1507" transform="translate(19.482 -16.666) scale(2.96173)"><path style="clip-rule:evenodd;fill:#fff;fill-rule:evenodd;stroke-width:.39849;image-rendering:optimizeQuality;shape-rendering:geometricPrecision;text-rendering:geometricPrecision" id="rect875-5" d="M-6.578 5.627h50.646v33.764H-6.578z"/><g id="g376" transform="translate(0 -2.363)"><path class="st0" d="M-4.111 23.204c0-3.525 10.312-6.337 23.062-6.337 11.213 0 20.55 2.212 22.65 5.137-2.362-2.325-10.65-4.012-20.512-4.012-11.7 0-21.188 2.4-21.188 5.362 0 2.963 9.488 5.363 21.188 5.363 8.625 0 16.087-1.313 19.387-3.188-3.337 2.363-11.7 4.05-21.487 4.05-12.788 0-23.1-2.85-23.1-6.375" id="path1494" style="stroke-width:.375"/><path d="m8.039 33.142-.188 2.175v.187c0 .038 0 .075.038.113.037.037.075.075.112.075.075.037.15.037.225.037l-.037.075H7.176l-.037-.037h.037c.075 0 .15 0 .188-.075.037-.038.075-.075.075-.113.037-.075.037-.187.037-.3l.038-.337h-.75l-.263.375a.82.82 0 0 0-.112.187v.113c0 .037.037.075.037.112.038.038.113.038.15.038l-.037.075H5.75v-.075a.405.405 0 0 0 .263-.113c.112-.112.225-.225.337-.375l1.538-2.137zm-.375.675-.75 1.012h.637zm2.25 1.575c-.113.15-.263.262-.413.337a.756.756 0 0 1-.412.113c-.15 0-.3-.038-.413-.15a.564.564 0 0 1-.15-.413c0-.187.075-.412.15-.562.113-.188.263-.338.45-.45a.921.921 0 0 1 .563-.188c.112 0 .225.038.3.075.075.038.112.113.112.225 0 .075-.037.15-.075.188-.037.075-.112.075-.15.075-.037 0-.075 0-.112-.038-.038-.037-.038-.075-.038-.112v-.075c0-.038.038-.038.075-.075.038 0 .038-.038.075-.075v-.038c0-.037 0-.037-.037-.075-.038-.037-.113-.037-.15-.037a.481.481 0 0 0-.375.15.952.952 0 0 0-.3.375 1.1 1.1 0 0 0-.15.6c0 .112.037.225.112.3a.426.426 0 0 0 .3.112c.113 0 .188-.037.3-.075.113-.075.225-.15.338-.262zm1.275-1.8-.15.525h.3l-.038.112h-.3l-.337 1.125c-.038.075-.038.15-.075.225v.038h.037c.038 0 .075-.038.113-.075a.994.994 0 0 0 .187-.225l.075.037c-.075.15-.187.263-.337.375a.526.526 0 0 1-.225.075c-.038 0-.113 0-.15-.037-.038-.038-.075-.075-.075-.15 0-.113.037-.225.075-.3l.3-1.125h-.3v-.075c.112-.038.262-.075.337-.188a1.64 1.64 0 0 0 .3-.412zm1.912.525-.337 1.162a1.095 1.095 0 0 0-.075.338v.037h.037c.038 0 .038 0 .075-.037a.994.994 0 0 0 .188-.225l.075.037a.885.885 0 0 1-.3.338c-.075.037-.113.075-.188.075-.037 0-.075 0-.112-.038-.075 0-.075-.037-.075-.075 0-.075 0-.112.037-.187.038-.075.075-.3.188-.6-.15.262-.338.525-.563.75a.602.602 0 0 1-.412.187.284.284 0 0 1-.15-.075.284.284 0 0 1-.075-.15c0-.15.037-.3.075-.45l.187-.6c.038-.075.038-.187.075-.262v-.038h-.037c-.038 0-.075 0-.075.038-.075.075-.113.15-.188.225l-.075-.075c.075-.113.188-.225.3-.338.075-.037.15-.075.225-.075.038 0 .075 0 .113.038.037.037.037.075.037.112 0 .113-.037.263-.075.375l-.187.638a1.134 1.134 0 0 0-.075.3c0 .037 0 .037.037.075 0 0 .038.037.075.037.075 0 .113-.037.15-.075.113-.075.188-.187.263-.3.112-.112.187-.262.3-.412a1.96 1.96 0 0 0 .225-.6l.037-.15zm1.95-.038-.375 1.313-.037.187v.15h.037c.038 0 .038 0 .075-.037a.994.994 0 0 0 .188-.225l.075.037c-.075.113-.15.225-.263.3a.34.34 0 0 1-.262.113c-.038 0-.075 0-.113-.038-.037-.037-.037-.075-.037-.112 0-.075 0-.15.037-.263l.038-.15a1.293 1.293 0 0 1-.45.45c-.075.075-.188.075-.3.075a.34.34 0 0 1-.263-.112.426.426 0 0 1-.112-.3c0-.225.075-.45.187-.638.113-.225.263-.412.45-.525a.564.564 0 0 1 .413-.15c.075 0 .15.038.187.075a.206.206 0 0 1 .113.188l.075-.225zm-.675.113a.34.34 0 0 0-.262.112c-.15.15-.263.3-.338.488-.112.187-.15.375-.15.562 0 .075 0 .15.075.225.038.038.075.075.15.075.15 0 .3-.112.45-.3.188-.225.3-.525.338-.825 0-.075 0-.15-.075-.225-.075-.112-.113-.112-.188-.112zm1.988-1.088-.675 2.288c-.038.075-.038.15-.038.225a.08.08 0 0 0 .075.075c.038 0 .075 0 .075-.038.075-.075.15-.15.225-.262l.075.075c-.075.15-.187.262-.337.375-.075.037-.15.075-.225.075-.038 0-.075 0-.113-.038-.037-.037-.037-.075-.037-.112 0-.113.037-.188.075-.3l.525-1.8c.037-.075.037-.15.075-.263 0-.037 0-.075-.038-.075-.037-.037-.075-.037-.112-.037H15.8v-.075zm1.875 2.663v.075H17.15l.038-.075c.075 0 .15 0 .225-.038.037 0 .075-.037.112-.075a.605.605 0 0 0 .113-.337l.45-1.575c.037-.113.037-.188.075-.3 0-.038 0-.075-.038-.075-.037-.038-.037-.038-.075-.038-.075 0-.15-.037-.187 0l.037-.075h1.013l-.038.075c-.075 0-.112 0-.187.038-.038.037-.113.075-.15.112-.038.113-.075.225-.113.3l-.45 1.575c-.037.075-.037.188-.075.263 0 .037 0 .075.038.075.037.037.037.037.075.037.075 0 .15.038.225.038zm1.2-1.688-.263.863a3.36 3.36 0 0 1 .563-.713.481.481 0 0 1 .375-.15c.075 0 .112.038.15.075a.284.284 0 0 1 .075.15.706.706 0 0 1-.075.3l-.225.825c0 .038-.038.113-.038.15v.038h.038c.037 0 .037 0 .075-.038.075-.075.15-.15.225-.262l.075.037c-.075.15-.188.263-.338.375-.075.038-.112.075-.187.075-.038 0-.075 0-.113-.037-.037-.038-.037-.075-.037-.113 0-.112.037-.225.075-.3l.225-.787c.037-.075.037-.15.037-.225a.08.08 0 0 0-.075-.075c-.037 0-.075.037-.112.037a1.141 1.141 0 0 0-.3.3c-.113.15-.225.338-.338.525-.075.113-.112.263-.15.375l-.075.3h-.3l.338-1.2c.037-.075.037-.187.075-.262 0-.038 0-.038-.038-.075h-.337v-.075zm1.162.113.563-.113c.037.113.075.188.112.3.038.188.075.338.075.525 0 .113.038.3.038.638.15-.188.262-.3.3-.338l.3-.412a.286.286 0 0 0 .075-.188c0-.037.037-.075.037-.112 0-.038-.037-.075-.075-.113-.037-.037-.075-.075-.075-.15 0-.037 0-.075.038-.112.037-.038.075-.038.112-.038.038 0 .113.038.15.075a.284.284 0 0 1 .075.15c0 .075 0 .113-.037.188a.983.983 0 0 1-.188.337l-.45.563c-.037.037-.15.187-.412.45h-.075c0-.525-.038-1.013-.188-1.538-.037-.075-.075-.112-.15-.112-.112.037-.15.037-.225 0zm2.138.9v.15c0 .112.037.225.112.3a.426.426 0 0 0 .3.112c.075 0 .188 0 .263-.037.15-.075.262-.15.375-.263l.037.075a1.301 1.301 0 0 1-.862.45c-.15 0-.3-.037-.413-.187-.075-.113-.15-.225-.15-.375 0-.225.075-.413.188-.6.112-.188.262-.338.45-.45.15-.113.337-.15.562-.15.113 0 .225.037.3.075a.206.206 0 0 1 .113.187.426.426 0 0 1-.113.3c-.15.15-.3.263-.487.3-.263.075-.45.113-.675.113zm0-.075a1 1 0 0 0 .45-.113c.15-.037.262-.15.375-.262a.405.405 0 0 0 .112-.263c0-.037-.037-.112-.075-.112-.037-.038-.075-.038-.15-.038-.15 0-.3.075-.412.188-.113.15-.225.375-.3.6zm2.7-.938-.113.6h-.075a.634.634 0 0 0-.112-.375.34.34 0 0 0-.263-.112.286.286 0 0 0-.187.075.284.284 0 0 0-.075.15c0 .037 0 .075.037.112a.518.518 0 0 0 .113.15c.112.113.225.263.337.413.038.075.075.15.075.262 0 .15-.075.263-.15.338a.564.564 0 0 1-.412.15.706.706 0 0 1-.3-.075c-.038 0-.075-.038-.113-.038-.075 0-.112.038-.112.075h-.075l.112-.637h.075c0 .15.038.3.113.412a.426.426 0 0 0 .3.113c.075 0 .15-.038.225-.075a.286.286 0 0 0 .075-.188c0-.037 0-.112-.038-.15-.075-.112-.15-.225-.225-.3a2.053 2.053 0 0 1-.225-.3c-.037 0-.037-.075-.037-.15a.34.34 0 0 1 .15-.3c.112-.112.3-.15.45-.112l.112.037c.038.038.075.038.113.038.075 0 .112-.038.15-.075h.075zm1.125-.487-.15.525h.3l-.038.112h-.3l-.337 1.125c-.038.075-.038.15-.038.225v.038h.038c.037 0 .075-.038.112-.075a.994.994 0 0 0 .188-.225l.075.037c-.075.15-.188.263-.338.375a.526.526 0 0 1-.225.075c-.037 0-.112 0-.15-.037-.037-.038-.037-.075-.037-.15 0-.113.037-.225.075-.3l.337-1.125h-.3v-.075c.113-.038.263-.075.338-.188.112-.112.225-.262.3-.412zm1.912 1.087c0 .188-.075.375-.15.563a1.599 1.599 0 0 1-.412.45.861.861 0 0 1-.525.15c-.15 0-.3-.038-.45-.188a.482.482 0 0 1-.15-.45c0-.187.075-.412.15-.562.112-.188.262-.338.45-.45a.861.861 0 0 1 .525-.15c.15 0 .3.037.412.187.075.15.15.3.15.45zm-.337-.112a.542.542 0 0 0-.075-.263c-.075-.075-.15-.112-.225-.075-.188 0-.375.15-.525.413-.15.225-.225.525-.225.787 0 .113.037.188.075.3.075.075.15.113.225.113.187 0 .337-.113.487-.413.188-.3.263-.6.263-.862zm.675-.375.675-.113-.3.938c.15-.3.375-.563.6-.788a.34.34 0 0 1 .262-.112c.038 0 .075 0 .113.037.037.038.037.075.037.113a.695.695 0 0 1-.075.262c-.037.038-.075.075-.112.075-.038 0-.038 0-.075-.037-.038-.038-.038-.038-.038-.075 0-.038 0-.038-.037-.038h-.113a.293.293 0 0 0-.15.15c-.112.15-.225.3-.337.488-.075.075-.113.187-.15.3-.075.15-.075.225-.075.262l-.075.263h-.3l.375-1.2c.037-.113.037-.188.075-.3 0-.038 0-.038-.038-.075-.037-.038-.075-.038-.112-.038h-.15zm2.775-.113-.113.6h-.075a.634.634 0 0 0-.112-.375.34.34 0 0 0-.263-.112.286.286 0 0 0-.187.075.284.284 0 0 0-.075.15c0 .037 0 .075.037.112a.511.511 0 0 0 .113.15c.112.113.225.263.337.413.038.075.075.15.075.262 0 .15-.075.263-.15.338a.564.564 0 0 1-.412.15.706.706 0 0 1-.3-.075c-.038 0-.075-.038-.113-.038-.075 0-.112.038-.112.075h-.075l.112-.637h.075c0 .15.038.3.113.412a.426.426 0 0 0 .3.113c.075 0 .15-.038.225-.075a.286.286 0 0 0 .075-.188c0-.037 0-.112-.038-.15-.075-.112-.15-.225-.225-.3a2.053 2.053 0 0 1-.225-.3c-.037-.075-.037-.15-.037-.187a.34.34 0 0 1 .15-.3c.112-.075.225-.15.337-.113h.113l.112.038c.038 0 .075.037.113.037.075 0 .112-.037.15-.075z" id="path1496" style="stroke-width:.375;fill:#272425"/><path class="st0" d="m30.914 22.23-.15.412H29.9l-.262.562h.825l-.15.413h-.825l-.375.937h-.788l.9-2.325zm1.912-.038c.638 0 1.088.337.788 1.162a1.86 1.86 0 0 1-1.763 1.238c-.825 0-1.05-.488-.787-1.2.3-.713.975-1.2 1.762-1.2m-.825 2.025c.15 0 .413-.075.675-.825.263-.675.225-.825 0-.825s-.412.15-.712.862c-.188.488-.225.788.037.788m3.713-1.988c.262-.037.525 0 .75.075.187.038.3.263.225.413 0 .037 0 .037-.038.075-.15.3-.45.525-.787.6l.337 1.125h-.9l-.187-.938h-.075l-.375.938h-.788l.9-2.325h.938zm-.225.375-.263.675h.075a.424.424 0 0 0 .488-.337c.112-.263.037-.338-.225-.338zm3.037-.375c.338-.037.713.038 1.013.225.262.263.15.675.075.863a1.86 1.86 0 0 1-1.125 1.125c-.3.075-.6.112-.9.112h-.75l.9-2.325zm-.15.375-.637 1.575h.075c.187 0 .525.075.9-.825.3-.75.037-.75-.263-.75zM9.99 22.23l-.9 2.325h-.825l.9-2.325zm1.875 0-.75 1.913h.862l-.15.412H10.14l.9-2.325zm2.25 0-.75 1.913h.862l-.15.412H12.39l.9-2.325zm2.437 0-.9 2.325h-.825l.9-2.325zm2.775 0-.15.413h-.9l-.187.487h.787l-.15.413h-.787l-.263.6h.9l-.15.412h-1.725l.9-2.325zm4.013.45a1.348 1.348 0 0 0-.413-.075c-.6 0-.9.6-.975.825-.112.3-.225.638.038.75.075.038.15.038.262.038l.225-.563h-.3l.15-.375h1.05l-.45 1.088a2.79 2.79 0 0 1-.937.187c-.863 0-1.2-.487-.938-1.162a2.008 2.008 0 0 1 1.913-1.2c.225 0 .45.037.675.112zm2.287-.45-.9 2.325h-.825l.9-2.325zm2.775 0-.15.413h-.9l-.225.562h.825l-.187.413h-.788l-.375.937h-.825l.938-2.325zm-24.037 0c.225 0 .45.038.637.075.15.038.263.188.188.375 0 .038 0 .038-.038.075-.15.3-.45.525-.825.563.15 0 .263.075.375.112.15.113.188.3.113.45-.15.3-.45.525-.788.6-.262.075-.525.075-.825.075h-.825l.9-2.325zm-.525.938c.075 0 .187 0 .262-.038.113-.037.188-.15.225-.262.038-.113.038-.188-.037-.225-.075-.038-.15-.038-.263-.038h-.112l-.225.563zm-.375 1.012c.112 0 .225 0 .3-.037.112-.075.225-.188.262-.3.075-.15.038-.225-.037-.263-.075-.037-.188-.037-.3-.037h-.113l-.262.675h.15zm4.012-1.95.15 2.325h-.862v-.45h-.75l-.375.45h-.6l1.95-2.325zm-1.2 1.5h.488v-.637Z" id="path1492" style="clip-rule:evenodd;fill-rule:evenodd;stroke-width:.375;image-rendering:optimizeQuality;shape-rendering:geometricPrecision;text-rendering:geometricPrecision"/></g></g></svg>