<?xml version="1.0" encoding="UTF-8" standalone="no"?>
<svg
   width="149.99997"
   height="100"
   style="clip-rule:evenodd;fill-rule:evenodd;image-rendering:optimizeQuality;shape-rendering:geometricPrecision;text-rendering:geometricPrecision"
   version="1.1"
   id="svg587"
   xml:space="preserve"
   xmlns="http://www.w3.org/2000/svg"
   xmlns:svg="http://www.w3.org/2000/svg"><defs
     id="defs591" /><style
     id="style324">.st0{fill:#222221}.st1{fill:#272425}</style><style
     id="style1018">.st0{fill:#fff}.st1{fill:#ef8022}.st2{fill:#ffc214}.st3{fill:#f9f185}</style><style
     id="style1415">.st0{fill:#222221}.st1{fill:#272425}</style><style
     id="style1490">.st0{fill:#222221}.st1{fill:#272425}</style><g
     fill="none"
     stroke-width="6"
     stroke-linejoin="round"
     id="g459"
     style="clip-rule:evenodd;fill-rule:evenodd;image-rendering:optimizeQuality;shape-rendering:geometricPrecision;text-rendering:geometricPrecision"
     transform="matrix(0.71968822,0,0,0.71968822,37.784803,11.59262)"><g
       id="g719"><path
         stroke="#47bf94"
         d="M 4.493,79.67 C -2.285,68.096 26.375,44.535 46.139,40.034 62.737,36.254 101.315,44.1 99.891,57.467"
         id="path449" /><path
         stroke="#359f7e"
         d="m 10.125,18.133 c 8.624,-9.988 41.797,13.701 51.001,30.018 9.723,17.237 12.87,55.271 -1.103,55.351"
         id="path451" /><path
         stroke="#49daaa"
         d="M 69.826,4.107 C 81.851,10.071 73.664,42.739 58.642,61.387 47.846,74.79 11.659,91.904 4.493,79.67"
         id="path453" /><path
         stroke="#49daaa"
         d="M 99.891,57.467 C 98.471,70.799 62.529,72.9 43.83,64.781 25.91,56.998 1.36,28.281 10.124,18.133"
         id="path455" /><path
         stroke="#aaf0d3"
         d="M 60.023,103.502 C 45.732,103.582 35.414,73.781 36.105,51.586 36.863,27.209 56.783,-2.362 69.826,4.107"
         id="path457" /></g></g></svg>
