<svg width="150" height="100" style="clip-rule:evenodd;fill-rule:evenodd;image-rendering:optimizeQuality;shape-rendering:geometricPrecision;text-rendering:geometricPrecision" version="1.1" id="svg587" xml:space="preserve" xmlns="http://www.w3.org/2000/svg"><defs id="defs591"><linearGradient id="a-3" x1="81.36" y1="311.35" x2="541.35" y2="311.35" gradientUnits="userSpaceOnUse" gradientTransform="translate(195.618 116.741) scale(.13894)"><stop offset=".18" stop-color="#00f" id="stop5572"/><stop offset="1" stop-color="#f0f" id="stop5574"/></linearGradient></defs><style id="style324">.st2{fill:#ffc214}.st3{fill:#f9f185}.st0{fill:#222221}.st1{fill:#272425}</style><g id="g253" transform="translate(-163.878 -110.003)"><path d="M240.97 196.23c-17.396 0-25.76-9.6-29.723-17.658-3.921-7.994-4.25-15.918-4.278-17.047-.674-10.7 5.697-32.205 34.678-37.682a3.898 3.898 0 0 1 1.446 7.66c-29.612 5.597-28.406 28.622-28.345 29.595 0 .074.008.147.01.222.021 1.098.709 27.117 26.212 27.117 9.496 0 16.201-4.085 19.953-12.14 3.401-7.328 2.68-15.624-1.879-21.652-3.18-4.205-7.289-6.252-12.558-6.252-4.788 0-8.818 1.373-11.978 4.08a12.713 12.713 0 0 0-4.431 9.05c-.196 3.53.992 6.858 3.344 9.378 2.112 2.252 4.576 3.35 7.55 3.35 3.815 0 6.324-1.251 7.455-3.726 1.164-2.542.502-5.409-.026-6.02-1.266-1.39-2.597-1.9-3.124-1.806-.351.06-.803.64-1.178 1.517a3.896 3.896 0 0 1-7.167-3.057c1.984-4.646 5.272-5.836 7.053-6.141 3.443-.581 7.249 1.014 10.19 4.258 2.942 3.245 3.545 9.525 1.41 14.342-1.395 3.147-5.149 8.427-14.614 8.427-5.102 0-9.68-2.013-13.24-5.824-3.817-4.085-5.744-9.46-5.434-15.13a20.717 20.717 0 0 1 7.13-14.534c4.61-3.953 10.348-5.956 17.05-5.956 7.658 0 14.15 3.23 18.773 9.341 6.303 8.337 7.35 19.69 2.732 29.637-3.522 7.596-11.071 16.651-27.01 16.651z" style="clip-rule:evenodd;fill:url(#a-3);fill-rule:evenodd;stroke-width:.138944;image-rendering:optimizeQuality;shape-rendering:geometricPrecision;text-rendering:geometricPrecision" id="path5579"/></g></svg>