<svg id="Layer_1" data-name="Layer 1" xmlns="http://www.w3.org/2000/svg" viewBox="0 0 228.46 342.85"><defs><style>.cls-1{fill:#fefefe;}.cls-2{fill:#111316;}.cls-3{fill:#868686;}.cls-4{fill:#b1b1b1;}.cls-5{fill:#454545;}.cls-6{fill:#909090;}.cls-7{fill:#7a7a7a;}.cls-8{fill:#9e9e9e;}.cls-9{fill:#555;}.cls-10{fill:#5f5f5f;}.cls-11{fill:#878787;}.cls-12{fill:#5e5e5e;}</style></defs><title>Artboard 1</title><path class="cls-1" d="M174.18,1.15c-12.79,15.54-25.44,31.17-35,49a.81.81,0,0,0-.13,1.16c.37.29.62-.11.91-.34,14.89-18.65,34.39-30.35,56.88-37.71C168.44,39.75,143.05,68.71,121.8,102l13.66,2.14c-3.72,20.24,6.33,32.87,22.43,42.15,13.7,7.89,27.63,15.55,38.79,27,26.69,27.29,36.54,59.88,26.11,96.68S186.55,329,149.45,337c-29.9,6.44-60.06,6.49-88.73-5.95C31.47,318.33,11,297,4.13,265.19-4,227.54,6.39,195.42,35.89,170.07c12.79-11,27-20.09,41.32-28.79,15.76-9.57,16.88-22.58,13.4-36.47C89,98.35,86.13,92.39,83.17,86.64c.6-1.64,1.94-2,3-2.93l18.37,12.14C108.18,69.64,117.17,46.14,130.1,24l-7.71,30.83c4.68-6.78,9-13.78,14.15-20.21a172,172,0,0,1,17-18.29A193.73,193.73,0,0,1,173.11.09C174.12-.2,174.4.23,174.18,1.15Z"/><path class="cls-2" d="M105.39,142.67c-.54,2.26-.13,4.81-2,6.65-1.33,4.1-2.7,8.19-4,12.3-2.94,9.35-8.78,16-17.44,20.79a159.8,159.8,0,0,0-26.84,19c-12.21,10.49-20.24,23.62-24.85,39-2.89,9.63-.69,18.88,2.31,27.89,6.38,19.22,17,36,30.72,50.82,3.3,3.57,7.49,6,12.45,9.21a56.79,56.79,0,0,1-15.69-6c-26.8-14.88-45.19-36.45-49.11-67.45-3.61-28.6,3.69-54.2,26.61-73.69,10.91-9.27,21.8-18.54,34.25-25.77a86.33,86.33,0,0,0,17.76-13.65c10.31-10.3,11.58-22.34,7.13-35.46-1.58-4.66-3.8-9.1-6.16-14.64l19.65,8.58c1.5,2,1.45,4.36,1.45,6.7q0,65.25,0,130.49c0,3.35.14,6.77-3.22,8.92-1.79,3.64-4.57,6.52-7.27,9.44-11,11.89-13.48,26.43-10.71,41.39,2.42,13.05,7.1,25.75,19.42,33.65-12.07-2.3-23.29-6-31.89-15.45-9-9.84-15.93-20.73-20-33.49a35.89,35.89,0,0,1,2.74-29.35,67.11,67.11,0,0,1,25.28-26.26c8.75-5.15,15.45-12,18.34-22,.32-2,.84-4,1.31-6-.1-.69-1,0-.33-.12.29-.05.41.07.33.35-.48,1.72-.7,3.56-2.17,4.83-4,10-10.86,17.15-20.4,22.28-14,7.5-25.18,18.15-28.63,34.09-4.9,22.61,2.2,42,19.08,57.72,6.08,5.67,13.15,9.93,20.62,13.62-8.59-1.5-17.33-3.21-23.57-9.53-17-17.27-30.29-36.88-36.6-60.76C31.33,251,32.67,242,36.44,233a78,78,0,0,1,25.86-33c7.61-5.64,15.25-11.32,23.32-16.25,8.86-5.42,13.72-13.26,16.29-22.9.94-3.52,1.6-7.12,2.39-10.69.38-2.54.46-5.14,1.22-6.84"/><path class="cls-2" d="M115.56,151.29c0,5.4,1.52,10.67,1.43,16.08.34,5.26,2.4,9.88,4.89,14.45,7.68,14.11,14.61,28.47,18.4,44.31,5.06,21.13,2.58,41.88-1.53,62.66-1.29,6.49-2.28,13.07-4.72,19.28-1.91,0-1.21-1.16-1-2.12a211.41,211.41,0,0,0,4.22-30.08c1-19-4.07-36.53-13.21-52.88-4.44-8-8.47-15.77-8.49-25.11-1.24,8.49-.75,16.8,4.4,24,6.83,9.59,10.07,20.46,12.23,31.77,2.86,15,.79,29.79-1.72,44.59-1.84,10.82-5.17,20.95-13.32,28.85-.88.19-1.35,0-1-1,4-5.93,5.09-12.71,6.18-19.64,3.21-20.33.45-39.93-6.28-59.15-1.41-1.95-1.74-4.33-2.56-6.53a20.81,20.81,0,0,1,1.51,8.57c2.8,13.37,5,26.75,4.32,40.54-.54,11.72-2.26,23.12-6.2,34.17-3.21-1.21-2.25-4.06-2.26-6.31-.1-21-.31-42,0-62.94.72-49.27.15-98.55.39-147.82,0-2-.49-4,1-5.73a16.56,16.56,0,0,1,6.28,2.7c.81,5.24-.18,10.37-.34,15.5-.38,11.8,1.83,22.91,8.79,32.6,23.31,32.48,25.59,69.38,22.73,107.35a270.61,270.61,0,0,1-5.5,36.45,43.13,43.13,0,0,1-7,16.32.78.78,0,0,1-1.28,0c6-19.91,11.48-39.82,10.66-61-.77-20.13-5.41-38.94-14.9-56.75-4.51-8.45-10.14-16.38-12.92-25.71-.33-1.11-.52-2.26-.77-3.4-2.34-4.74-1.76-10-2.63-15-.92-4.13-.55-8.37-.89-12.55"/><path class="cls-2" d="M109.16,325.19c-15-15.28-24.62-43.24-7.89-65.34,3.17-4.18,6.84-8.2,7.79-13.7,2.54.21,2.07,2.24,2.07,3.74q.11,35.73,0,71.46C111.13,322.85,111.64,324.86,109.16,325.19Z"/><path class="cls-3" d="M109.16,325.19c1.44-.63,1-1.94,1-3q0-36.53,0-73.06c0-1.07.42-2.41-1.1-3l-.33.17-.36,0a24.68,24.68,0,0,0,1.86-10.15q-.12-68-.08-136l2.1,1q0,109.61,0,219.21c0,1.21-.67,2.7.86,3.59C112.42,326.62,111,326.7,109.16,325.19Z"/><path class="cls-4" d="M117,167.37c-1.63-5.25-1.87-10.68-2-16.12-.29-1,.11-1.27,1-1l1.92,15Z"/><path class="cls-5" d="M133,306c.39.68,0,1.73,1,2.12-1.4,4-2.43,8.17-5.91,11l.09.08Q130.61,312.56,133,306Z"/><path class="cls-6" d="M115,249.33c-1.36-3-1.61-6.19-1.77-10.22a20,20,0,0,1,2.82,8.18Z"/><path class="cls-7" d="M103.36,149.32c.16-2.64,1.35-4.95,2.66-8.31-.2,3.83-.25,6.64-1.72,9.21Z"/><path class="cls-8" d="M103.41,203.3l2.5-7.07a10.65,10.65,0,0,1-1.64,8Z"/><path class="cls-9" d="M135.91,312.14l1.28,0a7.25,7.25,0,0,1-2.71,3.84A4.33,4.33,0,0,1,135.91,312.14Z"/><path class="cls-10" d="M116.11,326.08l1,1a3.76,3.76,0,0,1-3,2.28C113.9,327.66,115.06,326.9,116.11,326.08Z"/><path class="cls-11" d="M127.18,321.13c.35,1.34-.49,2.07-1.67,2.95,0-1.49.12-2.6,1.7-2.92Z"/><path class="cls-5" d="M127.21,321.16c0-.84-.12-1.71,1-2l-.09-.08c.29,1,.23,1.76-.94,2Z"/><path class="cls-12" d="M116.06,150.27l-1,1c-1.91-4.67-.52-9.42-.2-14.16Q115.44,143.67,116.06,150.27Z"/></svg>