<?xml version="1.0" encoding="utf-8"?>
<!-- Generator: Adobe Illustrator 19.0.0, SVG Export Plug-In . SVG Version: 6.00 Build 0)  -->
<svg version="1.1" id="Layer_1" xmlns="http://www.w3.org/2000/svg" xmlns:xlink="http://www.w3.org/1999/xlink" x="0px" y="0px"
	 viewBox="0 0 1024 1024" style="enable-background:new 0 0 1024 1024;" xml:space="preserve">
<style type="text/css">
	.st0{fill-rule:evenodd;clip-rule:evenodd;fill:#ED3483;}
	.st1{fill-rule:evenodd;clip-rule:evenodd;fill:#FFFFFF;}
	.st2{fill:#FFFFFF;}
</style>
<g id="XMLID_16_">
	<g id="Ellipse_1_copy_2_1_">
		<g id="XMLID_215_">
			<circle id="XMLID_216_" class="st0" cx="513.2" cy="512" r="496.8"/>
		</g>
	</g>
	<g id="Ellipse_1_copy_4_1_">
		<g id="XMLID_213_">
			<circle id="XMLID_214_" class="st1" cx="513.2" cy="512" r="457.7"/>
		</g>
	</g>
	<g id="Ellipse_1_copy_3_1_">
		<g id="XMLID_211_">
			<circle id="XMLID_212_" class="st0" cx="513.2" cy="512" r="414.6"/>
		</g>
	</g>
	<g id="XMLID_190_">
		<g id="XMLID_204_">
			<path id="XMLID_227_" class="st2" d="M268,517.9c-5.9,6-12.8,9.8-20.8,11.5c-8,1.7-16.5,1.4-25.4-0.9c-8.8-2.2-16.3-6-22.5-11.3
				c-6.2-5.3-10.5-11.9-12.9-20c-2.4-8-2.3-17.1,0.2-27.1c2.5-9.8,6.7-17.7,12.7-23.7c5.9-5.9,12.9-9.8,20.9-11.5
				c8-1.7,16.4-1.5,25.1,0.7c9,2.3,16.6,6.1,22.8,11.4c6.2,5.3,10.5,12,12.8,20c2.3,8,2.2,16.9-0.3,26.9
				C278,504,273.8,512,268,517.9z M258.9,469.4c-4.3-5.7-10.8-9.6-19.6-11.8c-5.5-1.4-10.6-1.7-15.4-0.9c-4.8,0.8-8.9,2.8-12.2,5.8
				c-3.4,3.1-5.7,7.1-7,12.2c-2,7.9-0.9,14.6,3.4,20.2c4.2,5.6,10.7,9.5,19.2,11.7c8.7,2.2,16.3,1.9,22.6-1
				c6.3-2.9,10.5-8.3,12.5-16.2C264.4,481.7,263.2,475,258.9,469.4z"/>
		</g>
		<g id="XMLID_197_">
			<path id="XMLID_223_" class="st2" d="M267.9,398.3l-2.5,10l32.6,8.3l-5.4,21.4l-90.3-22.9l9.3-36.6c5.8-22.9,18.4-32,37.7-27.1
				c13.7,3.5,21,11.7,21.9,24.7l40.4-12.7l-6,23.8L267.9,398.3z M247.3,403.7l3.8-15.1c2.2-8.5-0.3-13.6-7.4-15.4
				c-3.7-0.9-6.7-0.6-9,1c-2.3,1.6-4,4.6-5.1,9l-3.8,15.1L247.3,403.7z"/>
		</g>
		<g id="XMLID_192_">
			<path id="XMLID_201_" class="st2" d="M311.9,289.8l17.1,4.3l-15.3,60.3l-90.3-22.9l15.1-59.7l17.1,4.3l-9.7,38.2l19.2,4.9
				l8.2-32.3l17.1,4.3l-8.2,32.3l19.6,5L311.9,289.8z"/>
		</g>
		<path id="XMLID_191_" class="st2" d="M248,542.6c-1.5,0.3-2.9,0.6-4.4,0.8c0.6,3.1,1,6,1.1,8.7c0.2,3.9-0.1,7.8-1.1,11.6
			c-2.1,8.1-6.3,13.8-12.7,17c-6.4,3.2-14,3.7-22.8,1.5c-5.5-1.4-10.1-3.7-13.9-7.1c-3.8-3.3-6.4-7.3-7.9-12
			c-1.5-4.6-1.6-9.5-0.3-14.7c1.7-6.6,4.6-12.6,8.7-18c-0.8-0.6-1.6-1.3-2.4-2c-3.7-3.2-6.8-6.7-9.3-10.7c-3.3,3.2-5.2,6-5.2,6
			c-2.6,3.4-4.6,6.7-6.1,9.8c-1.5,3.1-2.8,6.8-3.9,11c-2.6,10.2-2.7,19.5-0.4,27.6c2.3,8.2,6.6,15,12.8,20.3
			c6.2,5.4,13.7,9.2,22.6,11.4c14.6,3.7,27.1,2.7,37.4-3.1c10.3-5.8,17.5-16.6,21.5-32.5c1.2-4.6,1.8-9.6,1.8-15
			c0.1-5.4-0.5-10.7-1.7-15.9l-0.1,0C257.5,539.8,252.9,541.5,248,542.6z"/>
	</g>
	<path id="XMLID_186_" class="st2" d="M767.2,621.7c-10.3-60.3-63.9-82.2-63.9-82.2l1-2.9c52.2-3.2,71.5-56.4,74.5-64.5
		c3-8.1,22.3-61.3-16.5-107.1c-33.4-39.5-83.7-56.2-96.9-60l27.4-107.9l-64.5-16.4l-26.4,104l-0.1,0l-48.5-12l26.4-104.3l-64.5-16.4
		L489,255.5l-123.8-35l-17.7,68.6c0,0,26.7,6.8,50.9,13.5c24.3,6.7,21.8,32.2,20.4,38c-1.5,5.8-59.2,234.9-67.1,266
		c-7.9,31.1-43.7,20-43.7,20l-35.2-11.7l-34,69.7l125.1,37l6.4,1.7L344.2,827l64.5,16.4l26.1-102.9l39.8,9.7l8.9,2.1l-26.2,103.4
		l64.5,16.4l26.4-104.3c7.3,1.6,19.4,4.3,39.7,8.7c50.5,11.1,108.8-0.5,145.2-37.7C758.4,712.9,774.5,664.3,767.2,621.7z
		 M663.1,436.8c-16.8,72.9-129.3,39.6-158.8,29.5l31.4-123.7C535.6,342.6,679.9,363.9,663.1,436.8z M554.8,688.1
		c-62.1-6.1-101.1-22.3-101.1-22.3L488.1,530c0,0,55.8,9.1,102.2,33c46.4,23.9,51,57,47.3,73.7C634,653.4,616.9,694.2,554.8,688.1z"
		/>
</g>
</svg>
