<?xml version="1.0" encoding="utf-8"?>
<!-- Generator: Adobe Illustrator 17.1.0, SVG Export Plug-In . SVG Version: 6.00 Build 0)  -->
<!DOCTYPE svg PUBLIC "-//W3C//DTD SVG 1.1//EN" "http://www.w3.org/Graphics/SVG/1.1/DTD/svg11.dtd">
<svg version="1.1" id="Layer_1" xmlns="http://www.w3.org/2000/svg" xmlns:xlink="http://www.w3.org/1999/xlink" x="0px" y="0px"
	 viewBox="0 0 199 200" enable-background="new 0 0 199 200" xml:space="preserve">
<title>Group</title>
<desc>Created with Sketch.</desc>
<g id="logo-v2-isolated" transform="translate(-100.000000, -100.000000)">
	<g id="Group" transform="translate(100.000000, 100.000000)">
		<path id="Fill-4" fill="#272D63" d="M196,124.4c-13.3,53.2-67.1,85.6-120.3,72.4C22.6,183.4-9.8,129.5,3.5,76.3
			C16.8,23.1,70.6-9.3,123.8,3.9C176.9,17.2,209.3,71.1,196,124.4"/>
		<path id="Fill-6" fill="#FEFEFE" d="M135.2,113c-3.7,0.6-5.6,0.9-9.3,1.1c-1.7,0.1-3.4,0.2-5.2,0.3c5,3.4,8.1,8.1,6.5,14.6
			c-3,12.2-18.9,10.5-30.7,7.9l-4,16.2h0l-0.2,0.7l-5.1,21.1l13.2,3.3l5.5-22.1c22.6,4.3,39.7,2.6,46.8-18
			c4.5-12.7,1.2-22.6-5.7-28.7c-0.1,0.1-0.3,0.1-0.4,0.2C143.4,110.9,138.9,112.4,135.2,113"/>
		<path id="Fill-8" fill="#FEFEFE" d="M131.3,86.2c-3.7,15-26.9,7.4-34.4,5.5l6.6-26.6C111,67.1,135.2,70.5,131.3,86.2 M136.3,34
			l-13.3-3.3L117.8,52c-3.5-0.9-7.1-1.7-10.6-2.5l5.3-21.4l-13.3-3.3l-5.4,21.8c-2.9-0.7-5.7-1.3-8.5-2l-18.3-4.6l-3.5,14.2
			c0,0,9.9,2.3,9.7,2.4c5.4,1.3,6.4,4.9,6.2,7.7l-4,16l-3.5,13.9l-7.5,30c-0.7,1.6-2.3,4.1-6.1,3.2c0.1,0.2-9.7-2.4-9.7-2.4
			L42,140.1l17.3,4.3c3.2,0.8,6.4,1.7,9.5,2.5L63.3,169l13.3,3.3l5.4-21.9l4.3-16l7.3-29.3c1.5,0.4,3.1,0.7,4.8,1.1
			c5.4,1.2,11,1.7,16.5,2.1c3.4,0.3,6.7,0.4,10.1,0.4c5-0.1,10.2-1,14.9-2.6c4-1.3,8.7-3,11.7-6.2c3.5-3.7,5.2-8.6,5.9-13.5
			c2.4-16.1-9.9-24.8-26.6-30.6L136.3,34z"/>
	</g>
</g>
</svg>
