<?xml version="1.0" encoding="utf-8"?>
<!-- Generator: Adobe Illustrator 22.0.1, SVG Export Plug-In . SVG Version: 6.00 Build 0)  -->
<svg version="1.1" id="Capa_1" xmlns="http://www.w3.org/2000/svg" xmlns:xlink="http://www.w3.org/1999/xlink" x="0px" y="0px"
	 viewBox="0 0 600 600" style="enable-background:new 0 0 600 600;" xml:space="preserve">
<style type="text/css">
	.st0{fill:#FFFFFF;}
	.st1{fill:url(#SVGID_1_);}
	.st2{fill:#132365;}
</style>
<g>
	<g>
		<circle class="st0" cx="300" cy="300" r="223.4"/>
		<linearGradient id="SVGID_1_" gradientUnits="userSpaceOnUse" x1="163.539" y1="93.4842" x2="469.1968" y2="556.0573">
			<stop  offset="5.128205e-03" style="stop-color:#F1D200"/>
			<stop  offset="1" style="stop-color:#D27D00"/>
		</linearGradient>
		<path class="st1" d="M300,45C159.2,45,45,159.2,45,300s114.2,255,255,255s255-114.2,255-255S440.8,45,300,45z M300,496.3
			c-108.4,0-196.3-87.9-196.3-196.3S191.6,103.7,300,103.7S496.3,191.6,496.3,300S408.4,496.3,300,496.3z"/>
		<g>
			<g>
				<path id="XMLID_145_" class="st2" d="M215,387.2l9.8-19.6h117.7c16.2,0,29.4-13.2,29.4-29.4v0c0-16.2-13.2-29.4-29.4-29.4h-98.1
					v-19.6h98.1c27.1,0,49,22,49,49v0c0,27.1-22,49-49,49H215z"/>
				<path class="st2" d="M342.5,392.6H206.2l15.3-30.5h121.1c13.2,0,24-10.8,24-24c0-13.2-10.8-24-24-24H239v-30.5h103.5
					c30,0,54.5,24.4,54.5,54.5C397,368.2,372.5,392.6,342.5,392.6z M223.8,381.7h118.7c24,0,43.6-19.6,43.6-43.6
					c0-24-19.6-43.6-43.6-43.6h-92.6v8.7h92.6c19.2,0,34.9,15.6,34.9,34.9c0,19.2-15.6,34.9-34.9,34.9H228.2L223.8,381.7z"/>
			</g>
			<g>
				<path id="XMLID_144_" class="st2" d="M215,209.6l9.8,19.6h104.6c16.2,0,29.4,13.2,29.4,29.4v0c0,16.2-13.2,29.4-29.4,29.4h-75.2
					v19.6h75.2c27.1,0,49-22,49-49v0c0-27.1-22-49-49-49H215z"/>
				<path class="st2" d="M329.4,313.1h-80.6v-30.5h80.6c13.2,0,24-10.8,24-24c0-13.2-10.8-24-24-24h-108l-15.3-30.5h123.2
					c30,0,54.5,24.4,54.5,54.5C383.9,288.6,359.5,313.1,329.4,313.1z M259.7,302.2h69.7c24,0,43.6-19.6,43.6-43.6
					S353.5,215,329.4,215H223.8l4.4,8.7h101.2c19.2,0,34.9,15.6,34.9,34.9s-15.6,34.9-34.9,34.9h-69.7V302.2z"/>
			</g>
			<g>
				<rect id="XMLID_143_" x="244.4" y="210.6" class="st2" width="19.6" height="176.5"/>
				<path class="st2" d="M269.5,392.6H239V205.2h30.5V392.6z M249.9,381.7h8.7V216.1h-8.7V381.7z"/>
			</g>
			<g>
				<rect id="XMLID_142_" x="268.4" y="180.1" class="st2" width="19.6" height="39.2"/>
				<path class="st2" d="M290.7,222.1h-25.1v-44.7h25.1V222.1z M271.1,216.6h14.2v-33.8h-14.2V216.6z"/>
			</g>
			<g>
				<rect id="XMLID_141_" x="310.9" y="180.1" class="st2" width="19.6" height="39.2"/>
				<path class="st2" d="M333.2,222.1h-25.1v-44.7h25.1V222.1z M313.6,216.6h14.2v-33.8h-14.2V216.6z"/>
			</g>
			<g>
				<rect id="XMLID_140_" x="268.4" y="376.3" class="st2" width="19.6" height="39.2"/>
				<path class="st2" d="M290.7,418.2h-25.1v-44.7h25.1V418.2z M271.1,412.8h14.2V379h-14.2V412.8z"/>
			</g>
			<g>
				<rect id="XMLID_139_" x="310.9" y="376.3" class="st2" width="19.6" height="39.2"/>
				<path class="st2" d="M333.2,418.2h-25.1v-44.7h25.1V418.2z M313.6,412.8h14.2V379h-14.2V412.8z"/>
			</g>
		</g>
		<path class="st2" d="M300,473.8c-95.8,0-173.8-77.9-173.8-173.8c0-95.8,77.9-173.8,173.8-173.8c95.8,0,173.8,77.9,173.8,173.8
			C473.8,395.8,395.8,473.8,300,473.8z M300,143.6c-86.2,0-156.4,70.2-156.4,156.4S213.8,456.4,300,456.4S456.4,386.2,456.4,300
			S386.2,143.6,300,143.6z"/>
	</g>
</g>
</svg>
