<?xml version="1.0" encoding="utf-8"?>
<!-- Generator: Adobe Illustrator 24.3.0, SVG Export Plug-In . SVG Version: 6.00 Build 0)  -->
<svg version="1.1" id="Layer_1" xmlns="http://www.w3.org/2000/svg" xmlns:xlink="http://www.w3.org/1999/xlink" x="0px" y="0px"
	 viewBox="0 0 358.5 108.6" style="enable-background:new 0 0 358.5 108.6;" xml:space="preserve">
<style type="text/css">
	.st0{fill:#001137;}
	.st1{fill-rule:evenodd;clip-rule:evenodd;fill:url(#SVGID_1_);}
</style>
<path class="st0" d="M160.6,63.4h-29.5c0.5,2.3,1.8,4.4,3.8,5.7c2.2,1.5,4.8,2.2,7.4,2.1c1.8,0,3.7-0.3,5.4-0.9
	c1.6-0.6,3.1-1.6,4.4-2.9l6,6.5c-3.7,4.2-9,6.3-16.1,6.3c-4,0.1-8-0.8-11.6-2.6c-3.2-1.6-6-4.1-7.8-7.1c-1.9-3.1-2.8-6.7-2.7-10.3
	c-0.1-3.6,0.9-7.2,2.7-10.3c1.8-3,4.4-5.5,7.5-7.2c6.6-3.4,14.4-3.4,21-0.1c3,1.6,5.6,4.1,7.3,7.1c1.8,3.3,2.7,6.9,2.6,10.7
	C160.8,60.5,160.8,61.5,160.6,63.4z M134.2,50.9c-1.8,1.5-2.9,3.6-3.2,5.9h19.2c-0.3-2.3-1.4-4.4-3.2-5.9c-1.8-1.5-4-2.3-6.3-2.2
	C138.3,48.6,136,49.4,134.2,50.9z"/>
<path class="st0" d="M183,77.2c-4.1-2.2-7.5-5.4-9.8-9.3c-4.8-8.4-4.8-18.6,0-27c2.4-4,5.8-7.2,9.8-9.3c4.3-2.3,9.2-3.4,14.1-3.4
	c4.1-0.1,8.1,0.7,11.9,2.3c3.5,1.5,6.5,3.8,8.9,6.7l-7.5,7c-3.1-3.8-7.8-6-12.7-6c-2.9-0.1-5.8,0.7-8.4,2.1
	c-2.4,1.3-4.4,3.3-5.8,5.8c-2.8,5.3-2.8,11.5,0,16.8c1.3,2.4,3.3,4.4,5.8,5.8c2.6,1.4,5.5,2.1,8.4,2.1c4.9,0.1,9.6-2.2,12.7-6l7.5,7
	c-2.4,2.9-5.5,5.2-9,6.7c-3.8,1.6-7.8,2.4-11.9,2.3C192.2,80.7,187.3,79.5,183,77.2z"/>
<path class="st0" d="M258,44.5c3.2,2.9,4.8,7.2,4.9,13v22.2h-10.6v-4.8c-2.1,3.6-6.1,5.4-11.9,5.4c-2.7,0.1-5.3-0.5-7.8-1.5
	c-2-0.9-3.8-2.3-5-4.2c-1.2-1.8-1.8-3.9-1.7-6.1c-0.1-3.3,1.4-6.5,4.1-8.5c2.7-2.1,6.9-3.1,12.6-3.1h9c0.1-2.1-0.7-4.2-2.2-5.7
	c-1.5-1.3-3.7-2-6.7-2c-2.1,0-4.1,0.3-6.1,1c-1.8,0.6-3.6,1.5-5.1,2.7l-4.1-7.9c2.3-1.6,4.9-2.8,7.6-3.5c3-0.8,6.1-1.2,9.2-1.2
	C250.1,40.1,254.8,41.6,258,44.5z M248.4,71.3c1.5-0.9,2.6-2.3,3.2-3.9v-4h-7.7c-4.6,0-7,1.5-7,4.6c0,1.4,0.6,2.6,1.7,3.4
	c1.4,0.9,3,1.4,4.7,1.3C245,72.7,246.8,72.2,248.4,71.3z"/>
<path class="st0" d="M280.3,79.1c-2.6-0.6-5.1-1.6-7.4-3l3.8-8.1c2,1.2,4.1,2.1,6.3,2.7c2.4,0.7,4.8,1,7.2,1c4.8,0,7.2-1.2,7.2-3.5
	c0-1.2-0.9-2.2-2-2.4c-2-0.6-4-1-6-1.2c-2.7-0.4-5.3-0.9-7.9-1.7c-2.1-0.6-3.9-1.8-5.4-3.3c-1.5-1.6-2.3-3.9-2.3-6.8
	c0-2.3,0.7-4.6,2.1-6.5c1.6-2,3.8-3.6,6.2-4.5c3.1-1.1,6.4-1.7,9.7-1.6c2.8,0,5.5,0.3,8.2,0.9c2.4,0.5,4.7,1.3,6.8,2.5l-3.8,8
	c-3.4-1.9-7.3-2.9-11.2-2.9c-1.9-0.1-3.7,0.2-5.4,1c-1,0.5-1.8,1.5-1.8,2.6c0,1.2,0.8,2.2,2,2.5c2,0.7,4.1,1.1,6.2,1.4
	c2.6,0.4,5.2,1,7.8,1.7c2,0.6,3.9,1.7,5.3,3.3c1.6,1.8,2.4,4.2,2.2,6.7c0,2.3-0.7,4.6-2.2,6.4c-1.7,2-3.9,3.5-6.3,4.4
	c-3.2,1.1-6.5,1.6-9.9,1.6C286.6,80.3,283.4,79.9,280.3,79.1z"/>
<path class="st0" d="M354.1,44.5c3,2.9,4.5,7.2,4.5,12.9v22.3h-11.3V59.1c0-3.1-0.7-5.4-2-6.9c-1.5-1.6-3.7-2.4-5.9-2.3
	c-2.5-0.1-5,0.8-6.8,2.7c-1.7,1.8-2.5,4.4-2.5,7.8v19.3h-11.3V26H330v18.8c1.5-1.5,3.4-2.7,5.4-3.4c2.2-0.8,4.6-1.2,7-1.2
	C347.2,40.2,351.1,41.6,354.1,44.5z"/>
<linearGradient id="SVGID_1_" gradientUnits="userSpaceOnUse" x1="25.0616" y1="109.1425" x2="67.7916" y2="-17.4975" gradientTransform="matrix(1 0 0 -1 0 94.3142)">
	<stop  offset="0" style="stop-color:#273498"/>
	<stop  offset="0.53" style="stop-color:#0074C2"/>
	<stop  offset="1" style="stop-color:#00ABE7"/>
</linearGradient>
<path class="st1" d="M24.9,37.1c6.7-3.9,13.5-7.8,20.2-11.7c2-1.2,4.5-1.2,6.5,0l10,5.7c0.4,0.3,0.5,0.8,0.3,1.2
	c-0.1,0.1-0.2,0.2-0.3,0.3L37.2,46.7c-0.6,0.4-1,1-1,1.8v11.8c0,0.7,0.4,1.4,1,1.7l10.2,5.9c0.6,0.4,1.4,0.4,1.9,0l42.2-24.3
	c7.2-4.1,7.2-16.1,0-20.2L53.7,1.5c-3.2-1.9-7.3-1.9-10.5,0l-38,21.8C2,25.2,0,28.6,0,32.4C0,47,0.1,61.6,0,76.2
	c0,3.8,2,7.3,5.3,9.1l37.9,21.9c3.2,1.9,7.3,1.9,10.5,0l37.9-21.9c3.3-1.9,5.2-5.3,5.2-9.1v-19L51.7,83.3c-2,1.2-4.5,1.2-6.5,0
	L25,71.6c-2.1-1.1-3.3-3.3-3.3-5.7V42.6C21.7,40.3,22.9,38.2,24.9,37.1L24.9,37.1z"/>
</svg>
