<?xml version="1.0" encoding="utf-8"?>
<!-- Generator: Adobe Illustrator 16.0.0, SVG Export Plug-In . SVG Version: 6.00 Build 0)  -->
<!DOCTYPE svg PUBLIC "-//W3C//DTD SVG 1.1//EN" "http://www.w3.org/Graphics/SVG/1.1/DTD/svg11.dtd">
<svg version="1.1" id="Layer_1" xmlns="http://www.w3.org/2000/svg" xmlns:xlink="http://www.w3.org/1999/xlink" x="0px" y="0px"
	 width="1000px" height="1000px" viewBox="0 0 1000 1000" enable-background="new 0 0 1000 1000" xml:space="preserve">
<g id="Groestlcoin_LN">
	<g>
		<path fill="#FFFFFF" d="M286.425,653.96"/>
		<g>
			<polygon fill="#FFFFFF" points="603.786,724.791 601.652,728.634 601.652,728.634 			"/>
			<path fill="#FFFFFF" d="M502.935,79.215c-46.6,0-91.46,7.565-133.443,21.495L243.38,13.165l-14.07,17.69l96.15,87.27
				C179.64,185.465,78.2,333.075,78.2,503.95c0,234.2,190.535,424.733,424.733,424.733c50.125,0,98.24-8.755,142.927-24.77
				l-32.592-22.73c-35.02,10.262-72.038,15.79-110.335,15.79c-216.714,0-393.023-176.31-393.023-393.023
				c0-162.935,99.665-303.02,241.229-362.515c3.025-1.27,3.025-1.27,0,0l244.506,221.93L460.67,634.56l148.255,132.08l-5.14-41.903
				l-2.135,3.845l2.135-3.845l-13.28-108.262l134.37-269.043l-322.04-223.565c31.97-8.425,65.521-12.935,100.101-12.935
				c216.716,0,393.024,176.31,393.024,393.025c0,160.175-96.325,298.26-234.085,359.415l25.775,23.005
				c141.925-68.83,240.02-214.38,240.02-382.42C927.67,269.75,737.135,79.215,502.935,79.215z"/>
		</g>
		<path fill="#FFFFFF" d="M687.65,886.375l-25.775-23.005c-3.925,1.74-3.925,1.74,0,0L409.78,638.36l135.08-271.985L396.12,232.45
			l-0.555,1.19L418.38,391.2l0,0L288.575,654.75l324.688,226.435l32.592,22.73l126.01,87.88l14.02-17.74L687.65,886.375z"/>
	</g>
	<g>
		<path fill="#FFFFFF" d="M286.425,653.96"/>
		<g>
			<polygon fill="#FFFFFF" points="603.786,724.791 601.652,728.634 601.652,728.634 			"/>
			<path fill="#FFFFFF" d="M502.935,79.215c-46.6,0-91.46,7.565-133.443,21.495L243.38,13.165l-14.07,17.69l96.15,87.27
				C179.64,185.465,78.2,333.075,78.2,503.95c0,234.2,190.535,424.733,424.733,424.733c50.125,0,98.24-8.755,142.927-24.77
				l-32.592-22.73c-35.02,10.262-72.038,15.79-110.335,15.79c-216.714,0-393.023-176.31-393.023-393.023
				c0-162.935,99.665-303.02,241.229-362.515c3.025-1.27,3.025-1.27,0,0l244.506,221.93L460.67,634.56l148.255,132.08l-5.14-41.903
				l-2.135,3.845l2.135-3.845l-13.28-108.262l134.37-269.043l-322.04-223.565c31.97-8.425,65.521-12.935,100.101-12.935
				c216.716,0,393.024,176.31,393.024,393.025c0,160.175-96.325,298.26-234.085,359.415l25.775,23.005
				c141.925-68.83,240.02-214.38,240.02-382.42C927.67,269.75,737.135,79.215,502.935,79.215z"/>
		</g>
		<path fill="#FFFFFF" d="M687.65,886.375l-25.775-23.005c-3.925,1.74-3.925,1.74,0,0L409.78,638.36l135.08-271.985L396.12,232.45
			l-0.555,1.19L418.38,391.2l0,0L288.575,654.75l324.688,226.435l32.592,22.73l126.01,87.88l14.02-17.74L687.65,886.375z"/>
	</g>
	<g>
		<path fill="#FFFFFF" d="M286.425,653.96"/>
		<g>
			<circle fill="#FFFFFF" cx="510" cy="500" r="408.335"/>
			<polygon fill="#FFFFFF" points="603.786,724.791 601.652,728.634 601.652,728.634 			"/>
			<path fill="#009CCD" d="M502.935,79.215c-46.6,0-91.46,7.565-133.443,21.495L243.38,13.165l-14.07,17.69l96.15,87.27
				C179.64,185.465,78.2,333.075,78.2,503.95c0,234.2,190.535,424.733,424.733,424.733c50.125,0,98.24-8.755,142.927-24.77
				l-32.592-22.73c-35.02,10.262-72.038,15.79-110.335,15.79c-216.714,0-393.023-176.31-393.023-393.023
				c0-162.935,99.665-303.02,241.229-362.515c3.025-1.27,3.025-1.27,0,0l244.506,221.93L460.67,634.56l148.255,132.08l-5.14-41.903
				l-2.135,3.845l2.135-3.845l-13.28-108.262l134.37-269.043l-322.04-223.565c31.97-8.425,65.521-12.935,100.101-12.935
				c216.716,0,393.024,176.31,393.024,393.025c0,160.175-96.325,298.26-234.085,359.415l25.775,23.005
				c141.925-68.83,240.02-214.38,240.02-382.42C927.67,269.75,737.135,79.215,502.935,79.215z"/>
		</g>
		<path fill="#006694" d="M687.65,886.375l-25.775-23.005c-3.925,1.74-3.925,1.74,0,0L409.78,638.36l135.08-271.985L396.12,232.45
			l-0.555,1.19L418.38,391.2l0,0L288.575,654.75l324.688,226.435l32.592,22.73l126.01,87.88l14.02-17.74L687.65,886.375z"/>
	</g>
</g>
</svg>
