<?xml version="1.0" encoding="UTF-8"?>
<svg width="46px" height="46px" viewBox="0 0 46 46" version="1.1" xmlns="http://www.w3.org/2000/svg" xmlns:xlink="http://www.w3.org/1999/xlink">
    <!-- Generator: Sketch 52.4 (67378) - http://www.bohemiancoding.com/sketch -->
    <title>nav_liquid</title>
    <desc>Created with Sketch.</desc>
    <defs>
        <polygon id="path-1" points="0.0158064742 0.0331955923 14.9692374 0.0331955923 14.9692374 23.1732438 0.0158064742 23.1732438"></polygon>
        <polygon id="path-3" points="0 0.00852524856 15.3983916 0.00852524856 15.3983916 24.9311295 0 24.9311295"></polygon>
    </defs>
    <g id="nav_liquid" stroke="none" stroke-width="1" fill="none" fill-rule="evenodd">
        <g id="Group-7">
            <circle id="Oval" fill="#0E726B" fill-rule="nonzero" cx="23" cy="23" r="23"></circle>
            <g id="Group-13" transform="translate(8.000000, 8.000000)">
                <path d="M6.89588843,9.41403581 C6.2560124,10.6619008 5.85174242,11.995854 5.69430441,13.3789807 C5.64210055,13.8386915 5.97364325,14.2552893 6.43376722,14.3077686 C6.46613636,14.311281 6.4982989,14.3131405 6.52956612,14.3131405 C6.53858815,14.3131405 6.54754132,14.3129339 6.55642562,14.3126584 C6.96896006,14.2992287 7.31524105,13.9793939 7.36200413,13.5686501 C7.49623278,12.3875207 7.84189394,11.2473003 8.38927686,10.1796694 C9.59113636,7.83476584 11.6381749,6.09695592 14.1532576,5.28641873 C16.6684091,4.47588154 19.3447176,4.69158402 21.6893457,5.89358127 C22.1315634,6.12030303 22.5589738,6.38118457 22.9598691,6.66926997 C23.3358333,6.93869146 23.8611777,6.85260331 24.1308747,6.47725895 C24.4007782,6.10143251 24.314759,5.57608815 23.9390014,5.3061157 C23.4701997,4.96947658 22.9709573,4.66472452 22.4551171,4.40026171 C16.7832851,1.49282369 9.80339532,3.74213499 6.89588843,9.41403581" id="Fill-1" fill="#FFFFFF"></path>
                <g id="Group-5" transform="translate(2.479339, 0.035675)">
                    <mask id="mask-2" fill="white">
                        <use xlink:href="#path-1"></use>
                    </mask>
                    <g id="Clip-4"></g>
                    <path d="M2.68554408,22.6742769 C2.9097865,22.9886708 3.26977273,23.1732438 3.65475895,23.1732438 C3.66777548,23.1732438 3.68079201,23.1730372 3.69387741,23.172624 C3.92803719,23.1649793 4.1532438,23.0887397 4.34525482,22.9518939 C4.87934573,22.5708333 5.00386364,21.8262741 4.62280303,21.2923209 C2.31178375,18.0525826 1.76130165,13.8956956 3.15028237,10.1728306 C4.83148072,5.66532369 9.02376722,2.61897383 13.8305165,2.41167355 C14.4860262,2.38343664 14.9963567,1.82716942 14.9681198,1.17165978 C14.9401584,0.52303719 14.3899518,0.0144283747 13.7404339,0.0337121212 L13.7281061,0.0341942149 C7.96412534,0.282679063 2.93685262,3.93591598 0.920599174,9.34108127 C-0.744896694,13.8057507 -0.0851170799,18.790186 2.68554408,22.6742769" id="Fill-3" fill="#FFFFFF" mask="url(#mask-2)"></path>
                </g>
                <g id="Group-8" transform="translate(0.000000, 5.889669)">
                    <mask id="mask-4" fill="white">
                        <use xlink:href="#path-3"></use>
                    </mask>
                    <g id="Clip-7"></g>
                    <path d="M14.6429477,23.2208678 C8.29411846,22.5359504 3.19763085,17.7794766 1.96092287,11.3850551 C1.29294766,7.93181818 1.85782369,4.34586777 3.55169421,1.28774105 C3.77903581,0.877203857 3.63564738,0.353719008 3.23206612,0.120798898 C3.03674931,0.00805785124 2.80975207,-0.0210055096 2.59336088,0.0391873278 C2.37428375,0.1 2.19232782,0.244214876 2.08096419,0.445316804 C0.190399449,3.85853994 -0.440247934,7.86060606 0.305206612,11.7141185 C1.68557851,18.8517906 7.37655647,24.1613636 14.4666391,24.9265152 C14.4958402,24.9296143 14.5255234,24.9311295 14.5552755,24.9311295 C14.5647107,24.9311295 14.574146,24.9309917 14.5835813,24.9306474 C15.0021074,24.9169421 15.3504545,24.5870523 15.3937741,24.1633609 C15.4421212,23.693595 15.1052755,23.2708678 14.6429477,23.2208678" id="Fill-6" fill="#FFFFFF" mask="url(#mask-4)"></path>
                </g>
                <path d="M20.8919766,26.3926377 C19.749759,26.7185331 18.5809573,26.888781 17.4175275,26.8986295 C14.4131887,26.9374036 11.5654614,25.9904339 9.18729339,24.1626102 C9.00988292,24.0258333 8.78977273,23.9663292 8.56766529,23.9952548 C8.34514463,24.0241804 8.14727961,24.1382989 8.01043388,24.3163981 C7.7286157,24.6832025 7.79769284,25.2109573 8.16449725,25.4929132 C10.7931474,27.5135744 13.9281336,28.5781749 17.2434917,28.5781749 C17.3085055,28.5781749 17.3740014,28.5778306 17.4391529,28.5770041 C17.539084,28.575489 17.6386708,28.5732163 17.7383264,28.5700482 L17.7383953,28.5700482 C18.965668,28.5301722 20.1815771,28.3406405 21.352376,28.0067562 C21.7973485,27.879759 22.0560262,27.4144008 21.9290978,26.9694284 C21.8028581,26.5263843 21.3379132,26.2675689 20.8919766,26.3926377" id="Fill-9" fill="#FFFFFF"></path>
                <path d="M24.8857576,23.2102686 C24.7049036,22.8923623 24.2990496,22.7803788 23.9807989,22.9608196 C22.2428512,23.9473209 19.8861708,24.5384366 17.3449862,24.6251446 C16.9661295,24.6380234 16.6778375,24.9022796 16.659449,25.2535193 C16.6428512,25.5714256 16.8549725,25.8571006 17.1637879,25.9327204 L17.1638567,25.9327204 C17.203595,25.9425 17.2449862,25.9486983 17.2877548,25.9511088 C17.4449862,25.9593044 17.6055923,25.9633678 17.7691598,25.9633678 C19.9498072,25.9633678 22.6442287,25.2461501 24.6361019,24.1155028 C24.7903719,24.0280372 24.9012534,23.8856818 24.9484298,23.7146074 C24.9955372,23.5437397 24.973292,23.3646763 24.8857576,23.2102686" id="Fill-11" fill="#FFFFFF"></path>
            </g>
        </g>
    </g>
</svg>