<?xml version="1.0" encoding="iso-8859-1"?>
<!-- Generator: Adobe Illustrator 17.1.0, SVG Export Plug-In . SVG Version: 6.00 Build 0)  -->
<!DOCTYPE svg PUBLIC "-//W3C//DTD SVG 1.1//EN" "http://www.w3.org/Graphics/SVG/1.1/DTD/svg11.dtd">
<svg version="1.1" xmlns="http://www.w3.org/2000/svg" xmlns:xlink="http://www.w3.org/1999/xlink" x="0px" y="0px"
	 viewBox="0 0 200 200" style="enable-background:new 0 0 200 200;" xml:space="preserve">
<g id="&#x30EC;&#x30A4;&#x30E4;&#x30FC;_2" style="display:none;">
</g>
<g id="test" style="display:none;">
</g>
<g id="&#x30EC;&#x30A4;&#x30E4;&#x30FC;_3&#x306E;&#x30B3;&#x30D4;&#x30FC;">
	<g>
		<path style="fill:#FFFFFF;" d="M57.285,130.792"/>
		<g>
			
				<rect x="120.103" y="145.331" transform="matrix(-0.4854 0.8743 -0.8743 -0.4854 306.1181 110.4958)" style="fill:#FFFFFF;" width="0.879" height="0"/>
			<path style="fill:#FFFFFF;" d="M100.587,15.843c-9.32,0-18.292,1.513-26.689,4.299L48.676,2.633l-2.814,3.538l19.23,17.454
				C35.928,37.093,15.64,66.615,15.64,100.79c0,46.84,38.107,84.947,84.947,84.947c10.025,0,19.648-1.751,28.585-4.954l-6.518-4.546
				c-7.004,2.052-14.408,3.158-22.067,3.158c-43.343,0-78.605-35.262-78.605-78.605c0-32.587,19.933-60.604,48.246-72.503
				c0.605-0.254,0.605-0.254,0,0l48.901,44.386l-26.995,54.239l29.651,26.416l-1.028-8.381l-0.427,0.769l0.427-0.769l-2.656-21.652
				l26.874-53.809L80.567,24.773c6.394-1.685,13.104-2.587,20.02-2.587c43.343,0,78.605,35.262,78.605,78.605
				c0,32.035-19.265,59.652-46.817,71.883l5.155,4.601c28.385-13.766,48.004-42.876,48.004-76.484
				C185.534,53.95,147.427,15.843,100.587,15.843z"/>
		</g>
		<path style="fill:#FFFFFF;" d="M137.53,177.275l-5.155-4.601c-0.785,0.348-0.785,0.348,0,0l-50.419-45.002l27.016-54.397
			L79.224,46.49l-0.111,0.238l4.563,31.512v0l-25.961,52.71l64.938,45.287l6.518,4.546l25.202,17.576l2.804-3.548L137.53,177.275z"
			/>
	</g>
	<g>
		<path style="fill:#FFFFFF;" d="M57.285,130.792"/>
		<g>
			
				<rect x="120.103" y="145.331" transform="matrix(-0.4854 0.8743 -0.8743 -0.4854 306.1181 110.4958)" style="fill:#FFFFFF;" width="0.879" height="0"/>
			<path style="fill:#FFFFFF;" d="M100.587,15.843c-9.32,0-18.292,1.513-26.689,4.299L48.676,2.633l-2.814,3.538l19.23,17.454
				C35.928,37.093,15.64,66.615,15.64,100.79c0,46.84,38.107,84.947,84.947,84.947c10.025,0,19.648-1.751,28.585-4.954l-6.518-4.546
				c-7.004,2.052-14.408,3.158-22.067,3.158c-43.343,0-78.605-35.262-78.605-78.605c0-32.587,19.933-60.604,48.246-72.503
				c0.605-0.254,0.605-0.254,0,0l48.901,44.386l-26.995,54.239l29.651,26.416l-1.028-8.381l-0.427,0.769l0.427-0.769l-2.656-21.652
				l26.874-53.809L80.567,24.773c6.394-1.685,13.104-2.587,20.02-2.587c43.343,0,78.605,35.262,78.605,78.605
				c0,32.035-19.265,59.652-46.817,71.883l5.155,4.601c28.385-13.766,48.004-42.876,48.004-76.484
				C185.534,53.95,147.427,15.843,100.587,15.843z"/>
		</g>
		<path style="fill:#FFFFFF;" d="M137.53,177.275l-5.155-4.601c-0.785,0.348-0.785,0.348,0,0l-50.419-45.002l27.016-54.397
			L79.224,46.49l-0.111,0.238l4.563,31.512v0l-25.961,52.71l64.938,45.287l6.518,4.546l25.202,17.576l2.804-3.548L137.53,177.275z"
			/>
	</g>
	<g>
		<path style="fill:#B2B4B6;" d="M57.285,130.792"/>
		<g>
			<circle style="fill:#FFFFFF;" cx="102" cy="100" r="81.667"/>
			
				<rect x="120.103" y="145.331" transform="matrix(-0.4854 0.8743 -0.8743 -0.4854 306.1181 110.4958)" style="fill:#B2B4B6;" width="0.879" height="0"/>
			<path style="fill:#B2B4B6;" d="M100.587,15.843c-9.32,0-18.292,1.513-26.689,4.299L48.676,2.633l-2.814,3.538l19.23,17.454
				C35.928,37.093,15.64,66.615,15.64,100.79c0,46.84,38.107,84.947,84.947,84.947c10.025,0,19.648-1.751,28.585-4.954l-6.518-4.546
				c-7.004,2.052-14.408,3.158-22.067,3.158c-43.343,0-78.605-35.262-78.605-78.605c0-32.587,19.933-60.604,48.246-72.503
				c0.605-0.254,0.605-0.254,0,0l48.901,44.386l-26.995,54.239l29.651,26.416l-1.028-8.381l-0.427,0.769l0.427-0.769l-2.656-21.652
				l26.874-53.809L80.567,24.773c6.394-1.685,13.104-2.587,20.02-2.587c43.343,0,78.605,35.262,78.605,78.605
				c0,32.035-19.265,59.652-46.817,71.883l5.155,4.601c28.385-13.766,48.004-42.876,48.004-76.484
				C185.534,53.95,147.427,15.843,100.587,15.843z"/>
		</g>
		<path style="fill:#8C8D8E;" d="M137.53,177.275l-5.155-4.601c-0.785,0.348-0.785,0.348,0,0l-50.419-45.002l27.016-54.397
			L79.224,46.49l-0.111,0.238l4.563,31.512v0l-25.961,52.71l64.938,45.287l6.518,4.546l25.202,17.576l2.804-3.548L137.53,177.275z"
			/>
	</g>
</g>
<g id="&#x30EC;&#x30A4;&#x30E4;&#x30FC;_3&#x306E;&#x30B3;&#x30D4;&#x30FC;_2" style="display:none;">
	<g style="display:inline;">
		<path style="fill:#FFFFFF;" d="M57.285,130.792"/>
		<g>
			
				<rect x="120.103" y="145.331" transform="matrix(-0.4854 0.8743 -0.8743 -0.4854 306.1181 110.4958)" style="fill:#FFFFFF;" width="0.879" height="0"/>
			<path style="fill:#FFFFFF;" d="M100.587,15.843c-9.32,0-18.292,1.513-26.689,4.299L48.676,2.633l-2.814,3.538l19.23,17.454
				C35.928,37.093,15.64,66.615,15.64,100.79c0,46.84,38.107,84.947,84.947,84.947c10.025,0,19.648-1.751,28.585-4.954l-6.518-4.546
				c-7.004,2.052-14.408,3.158-22.067,3.158c-43.343,0-78.605-35.262-78.605-78.605c0-32.587,19.933-60.604,48.246-72.503
				c0.605-0.254,0.605-0.254,0,0l48.901,44.386l-26.995,54.239l29.651,26.416l-1.028-8.381l-0.427,0.769l0.427-0.769l-2.656-21.652
				l26.874-53.809L80.567,24.773c6.394-1.685,13.104-2.587,20.02-2.587c43.343,0,78.605,35.262,78.605,78.605
				c0,32.035-19.265,59.652-46.817,71.883l5.155,4.601c28.385-13.766,48.004-42.876,48.004-76.484
				C185.534,53.95,147.427,15.843,100.587,15.843z"/>
		</g>
		<path style="fill:#FFFFFF;" d="M137.53,177.275l-5.155-4.601c-0.785,0.348-0.785,0.348,0,0l-50.419-45.002l27.016-54.397
			L79.224,46.49l-0.111,0.238l4.563,31.512v0l-25.961,52.71l64.938,45.287l6.518,4.546l25.202,17.576l2.804-3.548L137.53,177.275z"
			/>
	</g>
	<g style="display:inline;">
		<path style="fill:#FFFFFF;" d="M57.285,130.792"/>
		<g>
			
				<rect x="120.103" y="145.331" transform="matrix(-0.4854 0.8743 -0.8743 -0.4854 306.1181 110.4958)" style="fill:#FFFFFF;" width="0.879" height="0"/>
			<path style="fill:#FFFFFF;" d="M100.587,15.843c-9.32,0-18.292,1.513-26.689,4.299L48.676,2.633l-2.814,3.538l19.23,17.454
				C35.928,37.093,15.64,66.615,15.64,100.79c0,46.84,38.107,84.947,84.947,84.947c10.025,0,19.648-1.751,28.585-4.954l-6.518-4.546
				c-7.004,2.052-14.408,3.158-22.067,3.158c-43.343,0-78.605-35.262-78.605-78.605c0-32.587,19.933-60.604,48.246-72.503
				c0.605-0.254,0.605-0.254,0,0l48.901,44.386l-26.995,54.239l29.651,26.416l-1.028-8.381l-0.427,0.769l0.427-0.769l-2.656-21.652
				l26.874-53.809L80.567,24.773c6.394-1.685,13.104-2.587,20.02-2.587c43.343,0,78.605,35.262,78.605,78.605
				c0,32.035-19.265,59.652-46.817,71.883l5.155,4.601c28.385-13.766,48.004-42.876,48.004-76.484
				C185.534,53.95,147.427,15.843,100.587,15.843z"/>
		</g>
		<path style="fill:#FFFFFF;" d="M137.53,177.275l-5.155-4.601c-0.785,0.348-0.785,0.348,0,0l-50.419-45.002l27.016-54.397
			L79.224,46.49l-0.111,0.238l4.563,31.512v0l-25.961,52.71l64.938,45.287l6.518,4.546l25.202,17.576l2.804-3.548L137.53,177.275z"
			/>
	</g>
	<g style="display:inline;">
		<path style="fill:#B2B4B6;" d="M57.285,130.792"/>
		<g>
			<circle style="fill:#FFFFFF;" cx="102" cy="100" r="81.667"/>
			
				<rect x="120.103" y="145.331" transform="matrix(-0.4854 0.8743 -0.8743 -0.4854 306.1181 110.4958)" style="fill:#B2B4B6;" width="0.879" height="0"/>
			<path style="fill:#D9DADB;" d="M100.587,15.843c-9.32,0-18.292,1.513-26.689,4.299L48.676,2.633l-2.814,3.538l19.23,17.454
				C35.928,37.093,15.64,66.615,15.64,100.79c0,46.84,38.107,84.947,84.947,84.947c10.025,0,19.648-1.751,28.585-4.954l-6.518-4.546
				c-7.004,2.052-14.408,3.158-22.067,3.158c-43.343,0-78.605-35.262-78.605-78.605c0-32.587,19.933-60.604,48.246-72.503
				c0.605-0.254,0.605-0.254,0,0l48.901,44.386l-26.995,54.239l29.651,26.416l-1.028-8.381l-0.427,0.769l0.427-0.769l-2.656-21.652
				l26.874-53.809L80.567,24.773c6.394-1.685,13.104-2.587,20.02-2.587c43.343,0,78.605,35.262,78.605,78.605
				c0,32.035-19.265,59.652-46.817,71.883l5.155,4.601c28.385-13.766,48.004-42.876,48.004-76.484
				C185.534,53.95,147.427,15.843,100.587,15.843z"/>
		</g>
		<path style="fill:#B2B4B6;" d="M137.53,177.275l-5.155-4.601c-0.785,0.348-0.785,0.348,0,0l-50.419-45.002l27.016-54.397
			L79.224,46.49l-0.111,0.238l4.563,31.512v0l-25.961,52.71l64.938,45.287l6.518,4.546l25.202,17.576l2.804-3.548L137.53,177.275z"
			/>
	</g>
</g>
<g id="&#x30EC;&#x30A4;&#x30E4;&#x30FC;_3" style="display:none;">
	<g style="display:inline;">
		<path style="fill:#FFFFFF;" d="M57.285,130.792"/>
		<g>
			
				<rect x="120.103" y="145.331" transform="matrix(-0.4854 0.8743 -0.8743 -0.4854 306.1181 110.4958)" style="fill:#FFFFFF;" width="0.879" height="0"/>
			<path style="fill:#FFFFFF;" d="M100.587,15.843c-9.32,0-18.292,1.513-26.689,4.299L48.676,2.633l-2.814,3.538l19.23,17.454
				C35.928,37.093,15.64,66.615,15.64,100.79c0,46.84,38.107,84.947,84.947,84.947c10.025,0,19.648-1.751,28.585-4.954l-6.518-4.546
				c-7.004,2.052-14.408,3.158-22.067,3.158c-43.343,0-78.605-35.262-78.605-78.605c0-32.587,19.933-60.604,48.246-72.503
				c0.605-0.254,0.605-0.254,0,0l48.901,44.386l-26.995,54.239l29.651,26.416l-1.028-8.381l-0.427,0.769l0.427-0.769l-2.656-21.652
				l26.874-53.809L80.567,24.773c6.394-1.685,13.104-2.587,20.02-2.587c43.343,0,78.605,35.262,78.605,78.605
				c0,32.035-19.265,59.652-46.817,71.883l5.155,4.601c28.385-13.766,48.004-42.876,48.004-76.484
				C185.534,53.95,147.427,15.843,100.587,15.843z"/>
		</g>
		<path style="fill:#FFFFFF;" d="M137.53,177.275l-5.155-4.601c-0.785,0.348-0.785,0.348,0,0l-50.419-45.002l27.016-54.397
			L79.224,46.49l-0.111,0.238l4.563,31.512v0l-25.961,52.71l64.938,45.287l6.518,4.546l25.202,17.576l2.804-3.548L137.53,177.275z"
			/>
	</g>
	<g style="display:inline;">
		<path style="fill:#FFFFFF;" d="M57.285,130.792"/>
		<g>
			
				<rect x="120.103" y="145.331" transform="matrix(-0.4854 0.8743 -0.8743 -0.4854 306.1181 110.4958)" style="fill:#FFFFFF;" width="0.879" height="0"/>
			<path style="fill:#FFFFFF;" d="M100.587,15.843c-9.32,0-18.292,1.513-26.689,4.299L48.676,2.633l-2.814,3.538l19.23,17.454
				C35.928,37.093,15.64,66.615,15.64,100.79c0,46.84,38.107,84.947,84.947,84.947c10.025,0,19.648-1.751,28.585-4.954l-6.518-4.546
				c-7.004,2.052-14.408,3.158-22.067,3.158c-43.343,0-78.605-35.262-78.605-78.605c0-32.587,19.933-60.604,48.246-72.503
				c0.605-0.254,0.605-0.254,0,0l48.901,44.386l-26.995,54.239l29.651,26.416l-1.028-8.381l-0.427,0.769l0.427-0.769l-2.656-21.652
				l26.874-53.809L80.567,24.773c6.394-1.685,13.104-2.587,20.02-2.587c43.343,0,78.605,35.262,78.605,78.605
				c0,32.035-19.265,59.652-46.817,71.883l5.155,4.601c28.385-13.766,48.004-42.876,48.004-76.484
				C185.534,53.95,147.427,15.843,100.587,15.843z"/>
		</g>
		<path style="fill:#FFFFFF;" d="M137.53,177.275l-5.155-4.601c-0.785,0.348-0.785,0.348,0,0l-50.419-45.002l27.016-54.397
			L79.224,46.49l-0.111,0.238l4.563,31.512v0l-25.961,52.71l64.938,45.287l6.518,4.546l25.202,17.576l2.804-3.548L137.53,177.275z"
			/>
	</g>
	<g style="display:inline;">
		<path style="fill:#FFFFFF;" d="M57.285,130.792"/>
		<g>
			<circle style="fill:#FFFFFF;" cx="102" cy="100" r="81.667"/>
			
				<rect x="120.103" y="145.331" transform="matrix(-0.4854 0.8743 -0.8743 -0.4854 306.1181 110.4958)" style="fill:#FFFFFF;" width="0.879" height="0"/>
			<path style="fill:#FAD31A;" d="M100.587,15.843c-9.32,0-18.292,1.513-26.689,4.299L48.676,2.633l-2.814,3.538l19.23,17.454
				C35.928,37.093,15.64,66.615,15.64,100.79c0,46.84,38.107,84.947,84.947,84.947c10.025,0,19.648-1.751,28.585-4.954l-6.518-4.546
				c-7.004,2.052-14.408,3.158-22.067,3.158c-43.343,0-78.605-35.262-78.605-78.605c0-32.587,19.933-60.604,48.246-72.503
				c0.605-0.254,0.605-0.254,0,0l48.901,44.386l-26.995,54.239l29.651,26.416l-1.028-8.381l-0.427,0.769l0.427-0.769l-2.656-21.652
				l26.874-53.809L80.567,24.773c6.394-1.685,13.104-2.587,20.02-2.587c43.343,0,78.605,35.262,78.605,78.605
				c0,32.035-19.265,59.652-46.817,71.883l5.155,4.601c28.385-13.766,48.004-42.876,48.004-76.484
				C185.534,53.95,147.427,15.843,100.587,15.843z"/>
		</g>
		<path style="fill:#F7B421;" d="M137.53,177.275l-5.155-4.601c-0.785,0.348-0.785,0.348,0,0l-50.419-45.002l27.016-54.397
			L79.224,46.49l-0.111,0.238l4.563,31.512v0l-25.961,52.71l64.938,45.287l6.518,4.546l25.202,17.576l2.804-3.548L137.53,177.275z"
			/>
	</g>
</g>
<g id="&#x30EC;&#x30A4;&#x30E4;&#x30FC;_3&#x306E;&#x30B3;&#x30D4;&#x30FC;_3" style="display:none;">
	<g style="display:inline;">
		<path style="fill:#FFFFFF;" d="M57.285,130.792"/>
		<g>
			
				<rect x="120.103" y="145.331" transform="matrix(-0.4854 0.8743 -0.8743 -0.4854 306.1181 110.4958)" style="fill:#FFFFFF;" width="0.879" height="0"/>
			<path style="fill:#FFFFFF;" d="M100.587,15.843c-9.32,0-18.292,1.513-26.689,4.299L48.676,2.633l-2.814,3.538l19.23,17.454
				C35.928,37.093,15.64,66.615,15.64,100.79c0,46.84,38.107,84.947,84.947,84.947c10.025,0,19.648-1.751,28.585-4.954l-6.518-4.546
				c-7.004,2.052-14.408,3.158-22.067,3.158c-43.343,0-78.605-35.262-78.605-78.605c0-32.587,19.933-60.604,48.246-72.503
				c0.605-0.254,0.605-0.254,0,0l48.901,44.386l-26.995,54.239l29.651,26.416l-1.028-8.381l-0.427,0.769l0.427-0.769l-2.656-21.652
				l26.874-53.809L80.567,24.773c6.394-1.685,13.104-2.587,20.02-2.587c43.343,0,78.605,35.262,78.605,78.605
				c0,32.035-19.265,59.652-46.817,71.883l5.155,4.601c28.385-13.766,48.004-42.876,48.004-76.484
				C185.534,53.95,147.427,15.843,100.587,15.843z"/>
		</g>
		<path style="fill:#FFFFFF;" d="M137.53,177.275l-5.155-4.601c-0.785,0.348-0.785,0.348,0,0l-50.419-45.002l27.016-54.397
			L79.224,46.49l-0.111,0.238l4.563,31.512v0l-25.961,52.71l64.938,45.287l6.518,4.546l25.202,17.576l2.804-3.548L137.53,177.275z"
			/>
	</g>
	<g style="display:inline;">
		<path style="fill:#FFFFFF;" d="M57.285,130.792"/>
		<g>
			
				<rect x="120.103" y="145.331" transform="matrix(-0.4854 0.8743 -0.8743 -0.4854 306.1181 110.4958)" style="fill:#FFFFFF;" width="0.879" height="0"/>
			<path style="fill:#FFFFFF;" d="M100.587,15.843c-9.32,0-18.292,1.513-26.689,4.299L48.676,2.633l-2.814,3.538l19.23,17.454
				C35.928,37.093,15.64,66.615,15.64,100.79c0,46.84,38.107,84.947,84.947,84.947c10.025,0,19.648-1.751,28.585-4.954l-6.518-4.546
				c-7.004,2.052-14.408,3.158-22.067,3.158c-43.343,0-78.605-35.262-78.605-78.605c0-32.587,19.933-60.604,48.246-72.503
				c0.605-0.254,0.605-0.254,0,0l48.901,44.386l-26.995,54.239l29.651,26.416l-1.028-8.381l-0.427,0.769l0.427-0.769l-2.656-21.652
				l26.874-53.809L80.567,24.773c6.394-1.685,13.104-2.587,20.02-2.587c43.343,0,78.605,35.262,78.605,78.605
				c0,32.035-19.265,59.652-46.817,71.883l5.155,4.601c28.385-13.766,48.004-42.876,48.004-76.484
				C185.534,53.95,147.427,15.843,100.587,15.843z"/>
		</g>
		<path style="fill:#FFFFFF;" d="M137.53,177.275l-5.155-4.601c-0.785,0.348-0.785,0.348,0,0l-50.419-45.002l27.016-54.397
			L79.224,46.49l-0.111,0.238l4.563,31.512v0l-25.961,52.71l64.938,45.287l6.518,4.546l25.202,17.576l2.804-3.548L137.53,177.275z"
			/>
	</g>
	<g style="display:inline;">
		<path style="fill:#B2B4B6;" d="M57.285,130.792"/>
		<g>
			<circle style="fill:#FFFFFF;" cx="102" cy="100" r="81.667"/>
			
				<rect x="120.103" y="145.331" transform="matrix(-0.4854 0.8743 -0.8743 -0.4854 306.1181 110.4958)" style="fill:#B2B4B6;" width="0.879" height="0"/>
			<path style="fill:#2D80C8;" d="M100.587,15.843c-9.32,0-18.292,1.513-26.689,4.299L48.676,2.633l-2.814,3.538l19.23,17.454
				C35.928,37.093,15.64,66.615,15.64,100.79c0,46.84,38.107,84.947,84.947,84.947c10.025,0,19.648-1.751,28.585-4.954l-6.518-4.546
				c-7.004,2.052-14.408,3.158-22.067,3.158c-43.343,0-78.605-35.262-78.605-78.605c0-32.587,19.933-60.604,48.246-72.503
				c0.605-0.254,0.605-0.254,0,0l48.901,44.386l-26.995,54.239l29.651,26.416l-1.028-8.381l-0.427,0.769l0.427-0.769l-2.656-21.652
				l26.874-53.809L80.567,24.773c6.394-1.685,13.104-2.587,20.02-2.587c43.343,0,78.605,35.262,78.605,78.605
				c0,32.035-19.265,59.652-46.817,71.883l5.155,4.601c28.385-13.766,48.004-42.876,48.004-76.484
				C185.534,53.95,147.427,15.843,100.587,15.843z"/>
		</g>
		<path style="fill:#245596;" d="M137.53,177.275l-5.155-4.601c-0.785,0.348-0.785,0.348,0,0l-50.419-45.002l27.016-54.397
			L79.224,46.49l-0.111,0.238l4.563,31.512v0l-25.961,52.71l64.938,45.287l6.518,4.546l25.202,17.576l2.804-3.548L137.53,177.275z"
			/>
	</g>
</g>
</svg>
