<?xml version="1.0" encoding="UTF-8" standalone="no"?>
<svg width="99px" height="68px" viewBox="0 0 99 68" version="1.1" xmlns="http://www.w3.org/2000/svg" xmlns:xlink="http://www.w3.org/1999/xlink">
    <title>586581DD-76A4-41B9-B37A-F862632CDCE3</title>
    <desc>Created with sketchtool.</desc>
    <defs></defs>
    <g id="Page-1" stroke="none" stroke-width="1" fill="none" fill-rule="evenodd">
        <g id="Check-email" transform="translate(-675.000000, -223.000000)">
            <g id="Group-2" transform="translate(0.000000, -32.000000)">
                <g id="Group-5" transform="translate(527.000000, 196.000000)">
                    <g id="Group-3" transform="translate(149.000000, 59.000000)">
                        <path d="M89.6850586,7.62011719 L3.31494141,7.62011719 C1.49853516,7.62011719 0,9.07324219 0,10.9350586 L0,64.0649414 C0,65.9267578 1.49853516,67.3798828 3.31494141,67.3798828 L89.6850586,67.3798828 C91.5014648,67.3798828 93,65.9267578 93,64.0649414 L93,10.9350586 C93,9.07324219 91.5014648,7.62011719 89.6850586,7.62011719 L89.6850586,7.62011719 Z M86.0522461,10.9350586 L48.8613281,48.1259766 C48.2255859,48.7617188 47.362793,49.125 46.5,49.125 C45.637207,49.125 44.7744141,48.7617188 44.0932617,48.1259766 L6.90234375,10.9350586 L86.0522461,10.9350586 Z M89.6850586,63.065918 L64.1191406,37.5 L89.6850586,11.934082 L89.6850586,63.065918 Z M3.31494141,11.9794922 L28.8354492,37.5 L3.31494141,63.0205078 L3.31494141,11.9794922 Z M6.90234375,64.0649414 L31.1513672,39.7705078 L41.8227539,50.4873047 C43.1396484,51.7587891 44.8198242,52.3945312 46.4545898,52.3945312 C48.1347656,52.3945312 49.8149414,51.7587891 51.0864258,50.4873047 L61.8032227,39.7705078 L86.0522461,64.0649414 L6.90234375,64.0649414 Z" id="mail" stroke="#FFFFFF" fill="#4B62CA"></path>
                        <circle id="Oval-36" fill="#647CE8" cx="88" cy="10" r="10"></circle>
                        <text id="1" font-family="ProximaNova-Regular, Proxima Nova" font-size="11" font-weight="normal" fill="#FFFFFF">
                            <tspan x="85.6355" y="14">1</tspan>
                        </text>
                    </g>
                </g>
            </g>
        </g>
    </g>
</svg>
