<svg width="128" height="128" style="enable-background:new 0 0 128 128;" xmlns="http://www.w3.org/2000/svg" xmlns:xlink="http://www.w3.org/1999/xlink">
  <g id="图层_1">
    <g>
      <path d="M68.43,5.38c0.89-1.95,2.55-2.5,3.93-2.56c2.1-0.1,4.3,1.35,6.37,3.06 c1.47,1.66,3.23,2.94,5.27,3.84c1.41,0.5,2.81,0.6,4.23,0.53c2-0.1,4.03-0.54,6.04-0.64l0.11-0.01l0.91-0.08 c2.3-0.11,4.47,0.43,6.53,1.62c1.89,1.72,2.72,3.86,2.46,6.44c-0.44,2.13-0.06,4.08,1.13,5.85c2.05,1.44,4.2,2.7,6.46,3.77 c2.34,1.28,3.81,3.21,4.45,5.78c0.23,2.72-1.03,4.46-3.75,5.21c-3.54,0.89-8.3,0.89-12.31,3.99c-5.86,4.89-7.7,9.82-10.25,10.57 c-1.25-1.42-9.05-7.45-22.13-10.34C65.54,34.34,64.12,14.86,68.43,5.38z" style="fill:#FCC21B;"/>
      <path d="M81.63,40.69c2.3-4.6,8.85-12.69,10.42-11.09c1.55,1.74-2.02,10.78-4.53,15.21 c-0.89-0.94-3.76-2.91-5.01-3.24" style="fill:#D19B15;"/>
      <path d="M93.2,55.42c-1.35,0-2.67-0.69-3.42-1.93C82.9,42.17,67.32,43.36,67.17,43.38 c-2.2,0.18-4.14-1.44-4.33-3.63c-0.19-2.2,1.42-4.13,3.61-4.34c0.84-0.08,20.67-1.71,30.17,13.94c1.15,1.89,0.54,4.35-1.34,5.49 C94.62,55.23,93.91,55.42,93.2,55.42z" style="fill:#8D6E63;"/>
      <path d="M96.06,122.07c-17.13,4.22-40.94,3.92-57.95,0.56C22.19,119.48,10,110.09,11.4,91.61 c1.42-18.7,13.81-36.31,30.85-44.07c16.49-7.51,38.62-11.17,50.28,5.87c2.9,4.24,8.44,13.65,8.7,18.27 c0.02,0.37,0.04,0.7,0.12,1.02c0.02,1.16,0.49,2.33,1.63,3.19c7.33,5.55,12.67,12.91,13.65,23 C117.79,110.92,106.41,119.52,96.06,122.07z" style="fill:#FCC21B;"/>
    </g>
    <path d="M80.87,91.13c-2.08-3.38-5.91-7.05-9.53-10.2l2.81-7.78c2.5,1.95,4.7,3.78,6.42,5.36 c0.28,0.27,0.72,0.29,1.04,0.06l6.44-4.79c0.18-0.14,0.29-0.34,0.32-0.57c0.02-0.22-0.05-0.45-0.21-0.62 c-1.91-2.13-6.05-5.86-10.58-8.93l1.65-4.56c0.19-0.52-0.07-1.09-0.6-1.29l-7.57-2.74c-0.52-0.19-1.1,0.08-1.29,0.6l-1.23,3.41 c-7.13-2.21-12.79-1.5-17.23,2.21c-3.48,2.92-4.98,7.09-3.92,10.87c1.08,4.03,4.24,6.79,8.24,10.28l0.51,0.45 c0.93,0.8,1.92,1.63,2.89,2.46l-3.42,9.46c-4.49-2.94-8.25-7.01-8.89-7.9c-0.25-0.35-0.73-0.43-1.08-0.21l-7.42,4.74 c-0.18,0.11-0.31,0.3-0.36,0.52c-0.04,0.21,0,0.43,0.12,0.61c2.23,3.36,5.88,7.12,9.77,10.06c0.93,0.7,2.33,1.68,4.05,2.71 l-1.29,3.55c-0.18,0.52,0.08,1.09,0.6,1.28l7.58,2.75c0.52,0.19,1.1-0.08,1.29-0.6l1.07-2.96c6.92,1.88,13,0.79,17.7-3.23 C83.29,102.24,84.07,96.78,80.87,91.13z M65.18,68.4l-2.07,5.73c-1.93-1.5-2.96-2.63-2.23-4.25 C61.64,68.22,63.53,68.11,65.18,68.4z M67.23,92.3c1.33,1.29,2.27,2.48,2.36,3.57c0.04,0.62-0.19,1.22-0.73,1.84 c-0.94,1.09-2.44,1.3-3.99,1.11L67.23,92.3z" style="fill:#424242;"/>
  </g>
</svg>