<?xml version="1.0" encoding="utf-8"?>
<!-- Generator: Adobe Illustrator 22.0.1, SVG Export Plug-In . SVG Version: 6.00 Build 0)  -->
<svg version="1.1" id="Layer_1" xmlns="http://www.w3.org/2000/svg" xmlns:xlink="http://www.w3.org/1999/xlink" x="0px" y="0px"
	 viewBox="0 0 144 144" style="enable-background:new 0 0 144 144;" xml:space="preserve">
<g>
	<path d="M68.7,0c2.1,0,4.2,0,6.3,0c0.1,0,0.2,0.1,0.3,0.1c2.4,0.2,5,0.3,7.4,0.7c7.5,1,14.5,3.3,21.3,6.7
		c7.6,3.8,14.3,8.8,20.1,14.9c7.3,7.6,12.6,16.5,16,26.4c2.4,7,3.7,14.3,3.8,21.8c0,0.1,0,0.2,0.1,0.3c0,0.7,0,1.4,0,2.1
		c0,0.1-0.1,0.2-0.1,0.3c0,3.8-0.5,7.6-1.2,11.4c-1.3,7.1-3.6,14.1-6.9,20.5c-4.7,9-11,16.6-18.9,22.9
		c-11.5,9.2-24.6,14.4-39.2,15.6c-5.5,0.5-11,0.2-16.5-0.6c-8.1-1.2-15.7-3.6-22.8-7.4c-14.2-7.5-24.8-18.6-31.7-33.1
		c-3.9-8.2-6.1-16.9-6.7-26.1c0-0.7-0.1-1.3-0.1-2c0-1.8,0-3.7,0-5.5c0-0.1,0.1-0.2,0.1-0.5c0.2-2.7,0.5-5.3,0.8-7.8
		c1.2-7.7,3.6-15.1,7.1-22c3.7-7,8.4-13.4,14.2-18.9c8-7.6,17.3-13.1,27.8-16.6C55.6,1.6,61.2,0.5,67,0.1C67.4,0.1,68.1,0.1,68.7,0z
		 M94.5,69.2c0.8-2,1.7-3.9,2.4-5.8c0.1-0.3,0.3-0.5,0.7-0.5c4.2,0,8.3,0,12.5,0c0.2,0,0.3,0,0.6,0c0-3.2,0-6.3,0-9.6
		c-3.1,0-6.2,0-9.3,0c3.2-7.4,6.3-14.8,9.5-22.1c-0.2,0-0.3,0-0.5,0c-3.9,0-7.8,0-11.8,0c-0.5,0-0.6,0.1-0.8,0.6
		c-1.5,3.6-3,7.3-4.5,10.8c-3.7,8.6-7.3,17.3-11,25.9c-0.2,0.5-0.5,0.7-0.9,0.7c-5.8,0-11.5,0-17.4,0c-0.5,0-0.7-0.1-0.9-0.6
		c-2.1-5.1-4.3-10.1-6.3-15.1c-3-7.1-6-14.3-9-21.4c-0.3-0.8-0.5-0.8-1.3-0.8c-2,0-4,0-6,0c-1.6,0-3.3,0-5,0c-0.2,0-0.5,0-0.8,0.1
		c3.1,7.4,6.3,14.8,9.5,22.1c-3.2,0-6.3,0-9.5,0c0,0.1,0,0.2,0,0.3c0,2.9,0,5.8,0,8.5c0,0.5,0.1,0.6,0.6,0.6c4.2,0,8.3,0,12.5,0
		c0.2,0,0.5,0,0.6,0.3c0.8,1.8,1.5,3.7,2.3,5.4c0.1,0.1,0.1,0.3,0.2,0.6c-5.4,0-10.8,0-16.1,0c0,3.2,0,6.3,0,9.5c0.2,0,0.5,0,0.6,0
		c6.5,0,12.8,0,19.3,0c0.3,0,0.6,0.1,0.7,0.5c2.4,5.6,4.8,11.3,7.3,17.1c3.3,7.7,6.7,15.4,9.9,23.2c0.1,0.1,0.1,0.3,0.2,0.6
		c0.1-0.3,0.2-0.5,0.2-0.7c5.8-13.4,11.4-26.7,17.2-40.1c0.1-0.3,0.3-0.5,0.7-0.5c6.3,0,12.7,0,19.1,0c0.2,0,0.3,0,0.6,0
		c0-3.2,0-6.3,0-9.6C105.3,69.2,100,69.2,94.5,69.2z"/>
	<path d="M72.6,91.2c-1.7-4.2-3.5-8.3-5.2-12.5c3.5,0,6.9,0,10.4,0C76.3,83,74.5,87,72.6,91.2z"/>
</g>
</svg>
