<svg width="30" height="30" viewBox="0 0 120 150" fill="none" xmlns="http://www.w3.org/2000/svg">
<path fill-rule="evenodd" clip-rule="evenodd" d="M69.5875 4.36749e-06H83.3255C88.0311 -0.000104382 91.9901 -0.000197592 95.231 0.269441C98.6209 0.551488 101.85 1.1645 104.917 2.75599C109.589 5.18021 113.388 9.04844 115.769 13.8062C117.331 16.9297 117.933 20.218 118.21 23.6701C118.475 26.9703 118.475 31.002 118.475 35.7939V49.0632C118.475 53.8551 118.475 57.8868 118.21 61.1871C117.933 64.6392 117.331 67.9274 115.769 71.0509C113.388 75.8087 109.589 79.6769 104.917 82.1012C101.85 83.6926 98.6209 84.3057 95.2309 84.5877C91.9901 84.8573 88.031 84.8573 83.3253 84.8571H42.2998C39.418 84.8571 36.8176 83.0965 35.7025 80.3906C34.5874 77.6846 35.1754 74.5615 37.1942 72.4674L71.0733 37.3246L81.2843 47.5326L59.3494 70.2857H83.0388C88.1066 70.2857 91.4771 70.28 94.0657 70.0647C96.5708 69.8563 97.7072 69.4883 98.421 69.1179C100.401 68.0907 102.01 66.4516 103.019 64.4356C103.383 63.7087 103.744 62.5515 103.949 60.0005C104.16 57.3645 104.166 53.9321 104.166 48.7715V36.0857C104.166 30.925 104.16 27.4927 103.949 24.8566C103.744 22.3057 103.383 21.1485 103.019 20.4215C102.01 18.4055 100.401 16.7664 98.421 15.7392C97.7072 15.3688 96.5708 15.0009 94.0657 14.7925C91.4771 14.5771 88.1066 14.5714 83.0388 14.5714H69.8762C64.7529 14.5714 61.3431 14.5772 58.726 14.796C56.1916 15.0079 55.0459 15.3821 54.3296 15.7571C52.338 16.7998 50.725 18.4625 49.7254 20.5032C49.3659 21.2371 49.0125 22.4083 48.8353 24.9915C48.6523 27.6591 48.6883 31.1312 48.7508 36.3481L48.8225 42.3397L34.5144 42.5174L34.4391 36.2317C34.381 31.3862 34.3321 27.3119 34.5609 23.9763C34.8001 20.4891 35.3709 17.1632 36.9209 13.999C39.28 9.18293 43.0865 5.25902 47.7868 2.79813C50.875 1.18128 54.1338 0.559493 57.555 0.273431C60.8276 -0.000198438 64.8289 -0.000105246 69.5875 4.36749e-06Z" fill="url(#paint0_linear_1440_8660)"/>
<path fill-rule="evenodd" clip-rule="evenodd" d="M69.5875 4.36749e-06H83.3255C88.0311 -0.000104382 91.9901 -0.000197592 95.231 0.269441C98.6209 0.551488 101.85 1.1645 104.917 2.75599C109.589 5.18021 113.388 9.04844 115.769 13.8062C117.331 16.9297 117.933 20.218 118.21 23.6701C118.475 26.9703 118.475 31.002 118.475 35.7939V49.0632C118.475 53.8551 118.475 57.8868 118.21 61.1871C117.933 64.6392 117.331 67.9274 115.769 71.0509C113.388 75.8087 109.589 79.6769 104.917 82.1012C101.85 83.6926 98.6209 84.3057 95.2309 84.5877C91.9901 84.8573 88.031 84.8573 83.3253 84.8571H42.2998C39.418 84.8571 36.8176 83.0965 35.7025 80.3906C34.5874 77.6846 35.1754 74.5615 37.1942 72.4674L71.0733 37.3246L81.2843 47.5326L59.3494 70.2857H83.0388C88.1066 70.2857 91.4771 70.28 94.0657 70.0647C96.5708 69.8563 97.7072 69.4883 98.421 69.1179C100.401 68.0907 102.01 66.4516 103.019 64.4356C103.383 63.7087 103.744 62.5515 103.949 60.0005C104.16 57.3645 104.166 53.9321 104.166 48.7715V36.0857C104.166 30.925 104.16 27.4927 103.949 24.8566C103.744 22.3057 103.383 21.1485 103.019 20.4215C102.01 18.4055 100.401 16.7664 98.421 15.7392C97.7072 15.3688 96.5708 15.0009 94.0657 14.7925C91.4771 14.5771 88.1066 14.5714 83.0388 14.5714H69.8762C64.7529 14.5714 61.3431 14.5772 58.726 14.796C56.1916 15.0079 55.0459 15.3821 54.3296 15.7571C52.338 16.7998 50.725 18.4625 49.7254 20.5032C49.3659 21.2371 49.0125 22.4083 48.8353 24.9915C48.6523 27.6591 48.6883 31.1312 48.7508 36.3481L48.8225 42.3397L34.5144 42.5174L34.4391 36.2317C34.381 31.3862 34.3321 27.3119 34.5609 23.9763C34.8001 20.4891 35.3709 17.1632 36.9209 13.999C39.28 9.18293 43.0865 5.25902 47.7868 2.79813C50.875 1.18128 54.1338 0.559493 57.555 0.273431C60.8276 -0.000198438 64.8289 -0.000105246 69.5875 4.36749e-06Z" fill="url(#paint1_radial_1440_8660)"/>
<path fill-rule="evenodd" clip-rule="evenodd" d="M69.5875 4.36749e-06H83.3255C88.0311 -0.000104382 91.9901 -0.000197592 95.231 0.269441C98.6209 0.551488 101.85 1.1645 104.917 2.75599C109.589 5.18021 113.388 9.04844 115.769 13.8062C117.331 16.9297 117.933 20.218 118.21 23.6701C118.475 26.9703 118.475 31.002 118.475 35.7939V49.0632C118.475 53.8551 118.475 57.8868 118.21 61.1871C117.933 64.6392 117.331 67.9274 115.769 71.0509C113.388 75.8087 109.589 79.6769 104.917 82.1012C101.85 83.6926 98.6209 84.3057 95.2309 84.5877C91.9901 84.8573 88.031 84.8573 83.3253 84.8571H42.2998C39.418 84.8571 36.8176 83.0965 35.7025 80.3906C34.5874 77.6846 35.1754 74.5615 37.1942 72.4674L71.0733 37.3246L81.2843 47.5326L59.3494 70.2857H83.0388C88.1066 70.2857 91.4771 70.28 94.0657 70.0647C96.5708 69.8563 97.7072 69.4883 98.421 69.1179C100.401 68.0907 102.01 66.4516 103.019 64.4356C103.383 63.7087 103.744 62.5515 103.949 60.0005C104.16 57.3645 104.166 53.9321 104.166 48.7715V36.0857C104.166 30.925 104.16 27.4927 103.949 24.8566C103.744 22.3057 103.383 21.1485 103.019 20.4215C102.01 18.4055 100.401 16.7664 98.421 15.7392C97.7072 15.3688 96.5708 15.0009 94.0657 14.7925C91.4771 14.5771 88.1066 14.5714 83.0388 14.5714H69.8762C64.7529 14.5714 61.3431 14.5772 58.726 14.796C56.1916 15.0079 55.0459 15.3821 54.3296 15.7571C52.338 16.7998 50.725 18.4625 49.7254 20.5032C49.3659 21.2371 49.0125 22.4083 48.8353 24.9915C48.6523 27.6591 48.6883 31.1312 48.7508 36.3481L48.8225 42.3397L34.5144 42.5174L34.4391 36.2317C34.381 31.3862 34.3321 27.3119 34.5609 23.9763C34.8001 20.4891 35.3709 17.1632 36.9209 13.999C39.28 9.18293 43.0865 5.25902 47.7868 2.79813C50.875 1.18128 54.1338 0.559493 57.555 0.273431C60.8276 -0.000198438 64.8289 -0.000105246 69.5875 4.36749e-06Z" fill="url(#paint2_radial_1440_8660)"/>
<path fill-rule="evenodd" clip-rule="evenodd" d="M69.5875 4.36749e-06H83.3255C88.0311 -0.000104382 91.9901 -0.000197592 95.231 0.269441C98.6209 0.551488 101.85 1.1645 104.917 2.75599C109.589 5.18021 113.388 9.04844 115.769 13.8062C117.331 16.9297 117.933 20.218 118.21 23.6701C118.475 26.9703 118.475 31.002 118.475 35.7939V49.0632C118.475 53.8551 118.475 57.8868 118.21 61.1871C117.933 64.6392 117.331 67.9274 115.769 71.0509C113.388 75.8087 109.589 79.6769 104.917 82.1012C101.85 83.6926 98.6209 84.3057 95.2309 84.5877C91.9901 84.8573 88.031 84.8573 83.3253 84.8571H42.2998C39.418 84.8571 36.8176 83.0965 35.7025 80.3906C34.5874 77.6846 35.1754 74.5615 37.1942 72.4674L71.0733 37.3246L81.2843 47.5326L59.3494 70.2857H83.0388C88.1066 70.2857 91.4771 70.28 94.0657 70.0647C96.5708 69.8563 97.7072 69.4883 98.421 69.1179C100.401 68.0907 102.01 66.4516 103.019 64.4356C103.383 63.7087 103.744 62.5515 103.949 60.0005C104.16 57.3645 104.166 53.9321 104.166 48.7715V36.0857C104.166 30.925 104.16 27.4927 103.949 24.8566C103.744 22.3057 103.383 21.1485 103.019 20.4215C102.01 18.4055 100.401 16.7664 98.421 15.7392C97.7072 15.3688 96.5708 15.0009 94.0657 14.7925C91.4771 14.5771 88.1066 14.5714 83.0388 14.5714H69.8762C64.7529 14.5714 61.3431 14.5772 58.726 14.796C56.1916 15.0079 55.0459 15.3821 54.3296 15.7571C52.338 16.7998 50.725 18.4625 49.7254 20.5032C49.3659 21.2371 49.0125 22.4083 48.8353 24.9915C48.6523 27.6591 48.6883 31.1312 48.7508 36.3481L48.8225 42.3397L34.5144 42.5174L34.4391 36.2317C34.381 31.3862 34.3321 27.3119 34.5609 23.9763C34.8001 20.4891 35.3709 17.1632 36.9209 13.999C39.28 9.18293 43.0865 5.25902 47.7868 2.79813C50.875 1.18128 54.1338 0.559493 57.555 0.273431C60.8276 -0.000198438 64.8289 -0.000105246 69.5875 4.36749e-06Z" fill="url(#paint3_radial_1440_8660)"/>
<path fill-rule="evenodd" clip-rule="evenodd" d="M24.4076 105.208C26.9961 105.423 30.3667 105.429 35.4345 105.429H48.8178C53.4388 105.429 56.512 105.424 58.8793 105.244C61.1736 105.069 62.2257 104.761 62.8845 104.453C65.1739 103.383 67.0105 101.513 68.0607 99.1817C68.363 98.5108 68.6663 97.4394 68.8376 95.103C69.0143 92.6924 69.019 89.5628 69.019 84.8571H83.3281L83.3281 85.123C83.3282 89.4929 83.3283 93.1699 83.107 96.1879C82.8759 99.3412 82.3743 102.355 81.0667 105.257C78.5882 110.759 74.2537 115.173 68.8509 117.697C66.0005 119.029 63.0412 119.539 59.9446 119.775C56.9809 120 53.3702 120 49.0789 120L35.1478 120C30.4422 120 26.4832 120 23.2423 119.731C19.8524 119.449 16.6233 118.836 13.5561 117.244C8.88389 114.82 5.08529 110.952 2.7047 106.194C1.14185 103.07 0.539879 99.782 0.262901 96.3299C-0.00188446 93.0297 -0.00178528 88.998 -0.00167847 84.2061V70.9368C-0.00178528 66.1449 -0.00188446 62.1132 0.262901 58.8129C0.539879 55.3608 1.14186 52.0726 2.7047 48.9491C5.08529 44.1913 8.88389 40.3231 13.5561 37.8988C16.6233 36.3074 19.8524 35.6944 23.2423 35.4123C26.4832 35.1427 30.4423 35.1428 35.148 35.1429H76.1735C80.1249 35.1429 83.3281 38.4048 83.3281 42.4286C83.3281 46.4524 80.1249 49.7143 76.1735 49.7143H35.4345C30.3667 49.7143 26.9962 49.72 24.4076 49.9353C21.9025 50.1438 20.7661 50.5117 20.0523 50.8821C18.0726 51.9093 16.463 53.5484 15.4542 55.5644C15.0905 56.2913 14.7292 57.4485 14.5245 59.9995C14.313 62.6355 14.3075 66.0679 14.3075 71.2285V83.9143C14.3075 89.075 14.313 92.5073 14.5245 95.1434C14.7292 97.6943 15.0905 98.8515 15.4542 99.5785C16.463 101.594 18.0726 103.234 20.0523 104.261C20.7661 104.631 21.9025 104.999 24.4076 105.208Z" fill="url(#paint4_linear_1440_8660)"/>
<path fill-rule="evenodd" clip-rule="evenodd" d="M24.4076 105.208C26.9961 105.423 30.3667 105.429 35.4345 105.429H48.8178C53.4388 105.429 56.512 105.424 58.8793 105.244C61.1736 105.069 62.2257 104.761 62.8845 104.453C65.1739 103.383 67.0105 101.513 68.0607 99.1817C68.363 98.5108 68.6663 97.4394 68.8376 95.103C69.0143 92.6924 69.019 89.5628 69.019 84.8571H83.3281L83.3281 85.123C83.3282 89.4929 83.3283 93.1699 83.107 96.1879C82.8759 99.3412 82.3743 102.355 81.0667 105.257C78.5882 110.759 74.2537 115.173 68.8509 117.697C66.0005 119.029 63.0412 119.539 59.9446 119.775C56.9809 120 53.3702 120 49.0789 120L35.1478 120C30.4422 120 26.4832 120 23.2423 119.731C19.8524 119.449 16.6233 118.836 13.5561 117.244C8.88389 114.82 5.08529 110.952 2.7047 106.194C1.14185 103.07 0.539879 99.782 0.262901 96.3299C-0.00188446 93.0297 -0.00178528 88.998 -0.00167847 84.2061V70.9368C-0.00178528 66.1449 -0.00188446 62.1132 0.262901 58.8129C0.539879 55.3608 1.14186 52.0726 2.7047 48.9491C5.08529 44.1913 8.88389 40.3231 13.5561 37.8988C16.6233 36.3074 19.8524 35.6944 23.2423 35.4123C26.4832 35.1427 30.4423 35.1428 35.148 35.1429H76.1735C80.1249 35.1429 83.3281 38.4048 83.3281 42.4286C83.3281 46.4524 80.1249 49.7143 76.1735 49.7143H35.4345C30.3667 49.7143 26.9962 49.72 24.4076 49.9353C21.9025 50.1438 20.7661 50.5117 20.0523 50.8821C18.0726 51.9093 16.463 53.5484 15.4542 55.5644C15.0905 56.2913 14.7292 57.4485 14.5245 59.9995C14.313 62.6355 14.3075 66.0679 14.3075 71.2285V83.9143C14.3075 89.075 14.313 92.5073 14.5245 95.1434C14.7292 97.6943 15.0905 98.8515 15.4542 99.5785C16.463 101.594 18.0726 103.234 20.0523 104.261C20.7661 104.631 21.9025 104.999 24.4076 105.208Z" fill="url(#paint5_radial_1440_8660)"/>
<defs>
<linearGradient id="paint0_linear_1440_8660" x1="56.4527" y1="84.1983" x2="57.4248" y2="-0.107893" gradientUnits="userSpaceOnUse">
<stop offset="0.43118" stop-color="#498FFD"/>
<stop offset="1" stop-color="#16D1D6"/>
</linearGradient>
<radialGradient id="paint1_radial_1440_8660" cx="0" cy="0" r="1" gradientUnits="userSpaceOnUse" gradientTransform="translate(33.398 25.6923) rotate(-15.6853) scale(54.1013 54.3683)">
<stop stop-color="#18CFD7"/>
<stop offset="1" stop-color="#18CFD7" stop-opacity="0"/>
</radialGradient>
<radialGradient id="paint2_radial_1440_8660" cx="0" cy="0" r="1" gradientUnits="userSpaceOnUse" gradientTransform="translate(64.9915 49.783) rotate(152.175) scale(20.2758 20.3314)">
<stop stop-color="#4990FE"/>
<stop offset="0.353962" stop-color="#4990FE"/>
<stop offset="1" stop-color="#4990FE" stop-opacity="0"/>
</radialGradient>
<radialGradient id="paint3_radial_1440_8660" cx="0" cy="0" r="1" gradientUnits="userSpaceOnUse" gradientTransform="translate(40.229 77.3152) rotate(-46.1564) scale(36.9809 36.9129)">
<stop stop-color="#4990FE"/>
<stop offset="0.405688" stop-color="#4990FE"/>
<stop offset="1" stop-color="#4990FE" stop-opacity="0"/>
</radialGradient>
<linearGradient id="paint4_linear_1440_8660" x1="83.7714" y1="120.334" x2="84.084" y2="34.2972" gradientUnits="userSpaceOnUse">
<stop stop-color="#2950FF"/>
<stop offset="0.821717" stop-color="#498FFD"/>
</linearGradient>
<radialGradient id="paint5_radial_1440_8660" cx="0" cy="0" r="1" gradientUnits="userSpaceOnUse" gradientTransform="translate(83.7714 84.1982) rotate(129.077) scale(36.574 36.1339)">
<stop offset="0.337169" stop-color="#2950FF"/>
<stop offset="0.792226" stop-color="#2950FF" stop-opacity="0"/>
</radialGradient>
</defs>
</svg>
