<svg width="50" height="50" viewBox="0 0 155 175" fill="none" xmlns="http://www.w3.org/2000/svg">
<path d="M37.635 130.911V135.345C37.635 135.978 37.1266 136.495 36.4998 136.495H12.2634C12.2301 136.495 12.193 136.495 12.1597 136.492C10.9433 136.458 9.87436 135.825 9.22885 134.874C9.22509 134.866 9.22181 134.858 9.2143 134.851C8.91947 134.349 8.75 133.762 8.75 133.128C8.75 132.428 8.95985 131.784 9.31758 131.244C9.34715 131.199 9.37673 131.155 9.40959 131.113L27.8139 105.228H11.3306C10.7077 105.228 10.1988 104.711 10.1988 104.074V99.6436C10.1988 99.0068 10.7077 98.4898 11.3306 98.4898H34.4314C34.4572 98.4898 34.483 98.4898 34.5088 98.4937C34.5159 98.4937 34.5271 98.4898 34.5384 98.4937C35.7956 98.5275 36.8979 99.2091 37.5317 100.224C37.5392 100.235 37.543 100.243 37.5467 100.25C37.8045 100.73 37.9481 101.277 37.9481 101.857C37.9481 102.553 37.7383 103.202 37.3805 103.741C37.3514 103.786 37.3218 103.827 37.2885 103.872L18.881 129.761H36.4998C37.1266 129.761 37.635 130.278 37.635 130.911Z" fill="#0C0C3A"/>
<path d="M53.1388 130.799C48.9874 130.799 45.9683 127.514 45.9683 122.971C45.9683 118.371 48.9874 115.086 53.1388 115.086C57.286 115.086 60.2502 118.371 60.2502 122.971C60.2502 127.514 57.286 130.799 53.1388 130.799ZM66.1269 109.445H61.3858C60.7591 109.445 60.2502 109.962 60.2502 110.596V113.768C58.0973 110.704 54.757 108.895 50.8751 108.895C43.867 108.895 38.7461 114.813 38.7461 122.971C38.7461 131.128 43.867 136.99 50.8751 136.99C54.757 136.99 58.0973 135.185 60.2502 132.169V135.29C60.2502 135.956 60.7849 136.495 61.4375 136.495H66.1269C66.7832 136.495 67.3142 135.956 67.3142 135.29V110.648C67.3142 109.985 66.7832 109.445 66.1269 109.445Z" fill="#0C0C3A"/>
<path d="M88.4587 108.896C84.7926 108.896 81.7731 110.648 80.0483 113.552V110.595C80.0483 109.828 79.6182 109.445 78.9169 109.445H74.172C73.473 109.445 73.043 109.828 73.043 110.595V135.291C73.043 136.058 73.473 136.497 74.172 136.497H78.9169C79.6182 136.497 80.0483 136.058 80.0483 135.291V120.615C80.0483 117.001 82.3134 114.592 85.7081 114.592C88.9967 114.592 91.2069 117.001 91.2069 120.615V135.291C91.2069 135.957 91.7378 136.497 92.3913 136.497H97.0831C97.7361 136.497 98.2676 135.957 98.2676 135.291V119.576C98.2676 113.277 94.2241 108.896 88.4587 108.896Z" fill="#0C0C3A"/>
<path d="M116.576 130.799C112.425 130.799 109.465 127.514 109.465 122.971C109.465 118.371 112.425 115.086 116.576 115.086C120.782 115.086 123.747 118.371 123.747 122.971C123.747 127.514 120.782 130.799 116.576 130.799ZM116.631 108.895C108.277 108.895 102.238 114.813 102.238 122.971C102.238 131.128 108.277 136.99 116.631 136.99C124.934 136.99 130.969 131.128 130.969 122.971C130.969 114.813 124.934 108.895 116.631 108.895Z" fill="#0C0C3A"/>
<path fill-rule="evenodd" clip-rule="evenodd" d="M76.8061 2.99355e-06H86.2444C89.4772 -7.15454e-05 92.1972 -0.000135433 94.4237 0.184679C96.7527 0.377999 98.9711 0.798166 101.078 1.889C104.288 3.5506 106.898 6.20194 108.534 9.46302C109.607 11.6039 110.021 13.8577 110.211 16.2238C110.393 18.4859 110.393 21.2493 110.393 24.5337V33.6287C110.393 36.9132 110.393 39.6765 110.211 41.9386C110.021 44.3047 109.607 46.5585 108.534 48.6994C106.898 51.9605 104.288 54.6118 101.078 56.2734C98.9711 57.3643 96.7527 57.7844 94.4237 57.9777C92.1972 58.1626 89.4772 58.1625 86.2443 58.1624H58.0588C56.0789 58.1624 54.2924 56.9557 53.5263 55.101C52.7602 53.2463 53.1642 51.1056 54.5511 49.6703L77.8268 25.5828L84.8421 32.5796L69.7723 48.1749H86.0474C89.5291 48.1749 91.8448 48.171 93.6232 48.0234C95.3442 47.8806 96.1249 47.6284 96.6154 47.3745C97.9755 46.6704 99.0813 45.547 99.7743 44.1652C100.024 43.6669 100.272 42.8738 100.413 41.1253C100.558 39.3185 100.562 36.9659 100.562 33.4287V24.7337C100.562 21.1965 100.558 18.8439 100.413 17.0371C100.272 15.2887 100.024 14.4955 99.7743 13.9972C99.0813 12.6154 97.9755 11.492 96.6154 10.7879C96.1249 10.534 95.3442 10.2819 93.6232 10.139C91.8448 9.99137 89.5291 9.98749 86.0474 9.98749H77.0044C73.4846 9.98749 71.142 9.99142 69.3439 10.1414C67.6028 10.2866 66.8157 10.5431 66.3235 10.8002C64.9552 11.5149 63.8471 12.6545 63.1603 14.0532C62.9134 14.5563 62.6705 15.359 62.5488 17.1296C62.4231 18.958 62.4478 21.3378 62.4907 24.9135L62.54 29.0203L52.7101 29.1421L52.6583 24.8338C52.6184 21.5126 52.5848 18.72 52.742 16.4337C52.9063 14.0436 53.2985 11.7639 54.3633 9.59512C55.9841 6.29412 58.5993 3.60462 61.8285 1.91788C63.9501 0.809665 66.189 0.383485 68.5395 0.187414C70.7878 -0.000136013 73.5368 -7.2137e-05 76.8061 2.99355e-06Z" fill="url(#paint0_linear_1440_8511)"/>
<path fill-rule="evenodd" clip-rule="evenodd" d="M76.8061 2.99355e-06H86.2444C89.4772 -7.15454e-05 92.1972 -0.000135433 94.4237 0.184679C96.7527 0.377999 98.9711 0.798166 101.078 1.889C104.288 3.5506 106.898 6.20194 108.534 9.46302C109.607 11.6039 110.021 13.8577 110.211 16.2238C110.393 18.4859 110.393 21.2493 110.393 24.5337V33.6287C110.393 36.9132 110.393 39.6765 110.211 41.9386C110.021 44.3047 109.607 46.5585 108.534 48.6994C106.898 51.9605 104.288 54.6118 101.078 56.2734C98.9711 57.3643 96.7527 57.7844 94.4237 57.9777C92.1972 58.1626 89.4772 58.1625 86.2443 58.1624H58.0588C56.0789 58.1624 54.2924 56.9557 53.5263 55.101C52.7602 53.2463 53.1642 51.1056 54.5511 49.6703L77.8268 25.5828L84.8421 32.5796L69.7723 48.1749H86.0474C89.5291 48.1749 91.8448 48.171 93.6232 48.0234C95.3442 47.8806 96.1249 47.6284 96.6154 47.3745C97.9755 46.6704 99.0813 45.547 99.7743 44.1652C100.024 43.6669 100.272 42.8738 100.413 41.1253C100.558 39.3185 100.562 36.9659 100.562 33.4287V24.7337C100.562 21.1965 100.558 18.8439 100.413 17.0371C100.272 15.2887 100.024 14.4955 99.7743 13.9972C99.0813 12.6154 97.9755 11.492 96.6154 10.7879C96.1249 10.534 95.3442 10.2819 93.6232 10.139C91.8448 9.99137 89.5291 9.98749 86.0474 9.98749H77.0044C73.4846 9.98749 71.142 9.99142 69.3439 10.1414C67.6028 10.2866 66.8157 10.5431 66.3235 10.8002C64.9552 11.5149 63.8471 12.6545 63.1603 14.0532C62.9134 14.5563 62.6705 15.359 62.5488 17.1296C62.4231 18.958 62.4478 21.3378 62.4907 24.9135L62.54 29.0203L52.7101 29.1421L52.6583 24.8338C52.6184 21.5126 52.5848 18.72 52.742 16.4337C52.9063 14.0436 53.2985 11.7639 54.3633 9.59512C55.9841 6.29412 58.5993 3.60462 61.8285 1.91788C63.9501 0.809665 66.189 0.383485 68.5395 0.187414C70.7878 -0.000136013 73.5368 -7.2137e-05 76.8061 2.99355e-06Z" fill="url(#paint1_radial_1440_8511)"/>
<path fill-rule="evenodd" clip-rule="evenodd" d="M76.8061 2.99355e-06H86.2444C89.4772 -7.15454e-05 92.1972 -0.000135433 94.4237 0.184679C96.7527 0.377999 98.9711 0.798166 101.078 1.889C104.288 3.5506 106.898 6.20194 108.534 9.46302C109.607 11.6039 110.021 13.8577 110.211 16.2238C110.393 18.4859 110.393 21.2493 110.393 24.5337V33.6287C110.393 36.9132 110.393 39.6765 110.211 41.9386C110.021 44.3047 109.607 46.5585 108.534 48.6994C106.898 51.9605 104.288 54.6118 101.078 56.2734C98.9711 57.3643 96.7527 57.7844 94.4237 57.9777C92.1972 58.1626 89.4772 58.1625 86.2443 58.1624H58.0588C56.0789 58.1624 54.2924 56.9557 53.5263 55.101C52.7602 53.2463 53.1642 51.1056 54.5511 49.6703L77.8268 25.5828L84.8421 32.5796L69.7723 48.1749H86.0474C89.5291 48.1749 91.8448 48.171 93.6232 48.0234C95.3442 47.8806 96.1249 47.6284 96.6154 47.3745C97.9755 46.6704 99.0813 45.547 99.7743 44.1652C100.024 43.6669 100.272 42.8738 100.413 41.1253C100.558 39.3185 100.562 36.9659 100.562 33.4287V24.7337C100.562 21.1965 100.558 18.8439 100.413 17.0371C100.272 15.2887 100.024 14.4955 99.7743 13.9972C99.0813 12.6154 97.9755 11.492 96.6154 10.7879C96.1249 10.534 95.3442 10.2819 93.6232 10.139C91.8448 9.99137 89.5291 9.98749 86.0474 9.98749H77.0044C73.4846 9.98749 71.142 9.99142 69.3439 10.1414C67.6028 10.2866 66.8157 10.5431 66.3235 10.8002C64.9552 11.5149 63.8471 12.6545 63.1603 14.0532C62.9134 14.5563 62.6705 15.359 62.5488 17.1296C62.4231 18.958 62.4478 21.3378 62.4907 24.9135L62.54 29.0203L52.7101 29.1421L52.6583 24.8338C52.6184 21.5126 52.5848 18.72 52.742 16.4337C52.9063 14.0436 53.2985 11.7639 54.3633 9.59512C55.9841 6.29412 58.5993 3.60462 61.8285 1.91788C63.9501 0.809665 66.189 0.383485 68.5395 0.187414C70.7878 -0.000136013 73.5368 -7.2137e-05 76.8061 2.99355e-06Z" fill="url(#paint2_radial_1440_8511)"/>
<path fill-rule="evenodd" clip-rule="evenodd" d="M76.8061 2.99355e-06H86.2444C89.4772 -7.15454e-05 92.1972 -0.000135433 94.4237 0.184679C96.7527 0.377999 98.9711 0.798166 101.078 1.889C104.288 3.5506 106.898 6.20194 108.534 9.46302C109.607 11.6039 110.021 13.8577 110.211 16.2238C110.393 18.4859 110.393 21.2493 110.393 24.5337V33.6287C110.393 36.9132 110.393 39.6765 110.211 41.9386C110.021 44.3047 109.607 46.5585 108.534 48.6994C106.898 51.9605 104.288 54.6118 101.078 56.2734C98.9711 57.3643 96.7527 57.7844 94.4237 57.9777C92.1972 58.1626 89.4772 58.1625 86.2443 58.1624H58.0588C56.0789 58.1624 54.2924 56.9557 53.5263 55.101C52.7602 53.2463 53.1642 51.1056 54.5511 49.6703L77.8268 25.5828L84.8421 32.5796L69.7723 48.1749H86.0474C89.5291 48.1749 91.8448 48.171 93.6232 48.0234C95.3442 47.8806 96.1249 47.6284 96.6154 47.3745C97.9755 46.6704 99.0813 45.547 99.7743 44.1652C100.024 43.6669 100.272 42.8738 100.413 41.1253C100.558 39.3185 100.562 36.9659 100.562 33.4287V24.7337C100.562 21.1965 100.558 18.8439 100.413 17.0371C100.272 15.2887 100.024 14.4955 99.7743 13.9972C99.0813 12.6154 97.9755 11.492 96.6154 10.7879C96.1249 10.534 95.3442 10.2819 93.6232 10.139C91.8448 9.99137 89.5291 9.98749 86.0474 9.98749H77.0044C73.4846 9.98749 71.142 9.99142 69.3439 10.1414C67.6028 10.2866 66.8157 10.5431 66.3235 10.8002C64.9552 11.5149 63.8471 12.6545 63.1603 14.0532C62.9134 14.5563 62.6705 15.359 62.5488 17.1296C62.4231 18.958 62.4478 21.3378 62.4907 24.9135L62.54 29.0203L52.7101 29.1421L52.6583 24.8338C52.6184 21.5126 52.5848 18.72 52.742 16.4337C52.9063 14.0436 53.2985 11.7639 54.3633 9.59512C55.9841 6.29412 58.5993 3.60462 61.8285 1.91788C63.9501 0.809665 66.189 0.383485 68.5395 0.187414C70.7878 -0.000136013 73.5368 -7.2137e-05 76.8061 2.99355e-06Z" fill="url(#paint3_radial_1440_8511)"/>
<path fill-rule="evenodd" clip-rule="evenodd" d="M45.7663 72.111C47.5447 72.2586 49.8604 72.2625 53.3421 72.2625H62.5367C65.7114 72.2625 67.8228 72.2593 69.4492 72.1359C71.0254 72.0164 71.7482 71.8046 72.2009 71.5937C73.7737 70.8607 75.0355 69.5787 75.757 67.9808C75.9647 67.5209 76.1731 66.7866 76.2908 65.1852C76.4122 63.5329 76.4154 61.3879 76.4154 58.1625H86.2461L86.2461 58.3448C86.2462 61.34 86.2462 63.8602 86.0942 65.9288C85.9354 68.0901 85.5908 70.1557 84.6924 72.1452C82.9896 75.9163 80.0118 78.9416 76.2999 80.6715C74.3416 81.5842 72.3085 81.9343 70.1811 82.0957C68.145 82.2501 65.6643 82.2501 62.7161 82.25L53.1451 82.25C49.9122 82.2501 47.1923 82.2501 44.9658 82.0653C42.6368 81.872 40.4183 81.4518 38.3111 80.361C35.1012 78.6994 32.4915 76.0481 30.8559 72.787C29.7822 70.6461 29.3687 68.3923 29.1784 66.0262C28.9964 63.7641 28.9965 61.0007 28.9966 57.7163V48.6213C28.9965 45.3368 28.9964 42.5735 29.1784 40.3114C29.3687 37.9453 29.7822 35.6915 30.8559 33.5506C32.4915 30.2895 35.1012 27.6382 38.3111 25.9766C40.4183 24.8857 42.6368 24.4656 44.9658 24.2723C47.1923 24.0874 49.9123 24.0875 53.1452 24.0876H81.3307C84.0454 24.0876 86.2461 26.3234 86.2461 29.0813C86.2461 31.8393 84.0454 34.0751 81.3307 34.0751H53.3421C49.8604 34.0751 47.5447 34.079 45.7663 34.2266C44.0453 34.3694 43.2646 34.6216 42.7741 34.8755C41.414 35.5796 40.3082 36.703 39.6152 38.0848C39.3653 38.5831 39.1171 39.3762 38.9764 41.1247C38.8311 42.9315 38.8273 45.2841 38.8273 48.8213V57.5163C38.8273 61.0535 38.8311 63.4061 38.9764 65.2129C39.1171 66.9613 39.3653 67.7545 39.6152 68.2528C40.3082 69.6346 41.414 70.758 42.7741 71.4621C43.2646 71.716 44.0453 71.9681 45.7663 72.111Z" fill="url(#paint4_linear_1440_8511)"/>
<path fill-rule="evenodd" clip-rule="evenodd" d="M45.7663 72.111C47.5447 72.2586 49.8604 72.2625 53.3421 72.2625H62.5367C65.7114 72.2625 67.8228 72.2593 69.4492 72.1359C71.0254 72.0164 71.7482 71.8046 72.2009 71.5937C73.7737 70.8607 75.0355 69.5787 75.757 67.9808C75.9647 67.5209 76.1731 66.7866 76.2908 65.1852C76.4122 63.5329 76.4154 61.3879 76.4154 58.1625H86.2461L86.2461 58.3448C86.2462 61.34 86.2462 63.8602 86.0942 65.9288C85.9354 68.0901 85.5908 70.1557 84.6924 72.1452C82.9896 75.9163 80.0118 78.9416 76.2999 80.6715C74.3416 81.5842 72.3085 81.9343 70.1811 82.0957C68.145 82.2501 65.6643 82.2501 62.7161 82.25L53.1451 82.25C49.9122 82.2501 47.1923 82.2501 44.9658 82.0653C42.6368 81.872 40.4183 81.4518 38.3111 80.361C35.1012 78.6994 32.4915 76.0481 30.8559 72.787C29.7822 70.6461 29.3687 68.3923 29.1784 66.0262C28.9964 63.7641 28.9965 61.0007 28.9966 57.7163V48.6213C28.9965 45.3368 28.9964 42.5735 29.1784 40.3114C29.3687 37.9453 29.7822 35.6915 30.8559 33.5506C32.4915 30.2895 35.1012 27.6382 38.3111 25.9766C40.4183 24.8857 42.6368 24.4656 44.9658 24.2723C47.1923 24.0874 49.9123 24.0875 53.1452 24.0876H81.3307C84.0454 24.0876 86.2461 26.3234 86.2461 29.0813C86.2461 31.8393 84.0454 34.0751 81.3307 34.0751H53.3421C49.8604 34.0751 47.5447 34.079 45.7663 34.2266C44.0453 34.3694 43.2646 34.6216 42.7741 34.8755C41.414 35.5796 40.3082 36.703 39.6152 38.0848C39.3653 38.5831 39.1171 39.3762 38.9764 41.1247C38.8311 42.9315 38.8273 45.2841 38.8273 48.8213V57.5163C38.8273 61.0535 38.8311 63.4061 38.9764 65.2129C39.1171 66.9613 39.3653 67.7545 39.6152 68.2528C40.3082 69.6346 41.414 70.758 42.7741 71.4621C43.2646 71.716 44.0453 71.9681 45.7663 72.111Z" fill="url(#paint5_radial_1440_8511)"/>
<path fill-rule="evenodd" clip-rule="evenodd" d="M45.7663 72.111C47.5447 72.2586 49.8604 72.2625 53.3421 72.2625H62.5367C65.7114 72.2625 67.8228 72.2593 69.4492 72.1359C71.0254 72.0164 71.7482 71.8046 72.2009 71.5937C73.7737 70.8607 75.0355 69.5787 75.757 67.9808C75.9647 67.5209 76.1731 66.7866 76.2908 65.1852C76.4122 63.5329 76.4154 61.3879 76.4154 58.1625H86.2461L86.2461 58.3448C86.2462 61.34 86.2462 63.8602 86.0942 65.9288C85.9354 68.0901 85.5908 70.1557 84.6924 72.1452C82.9896 75.9163 80.0118 78.9416 76.2999 80.6715C74.3416 81.5842 72.3085 81.9343 70.1811 82.0957C68.145 82.2501 65.6643 82.2501 62.7161 82.25L53.1451 82.25C49.9122 82.2501 47.1923 82.2501 44.9658 82.0653C42.6368 81.872 40.4183 81.4518 38.3111 80.361C35.1012 78.6994 32.4915 76.0481 30.8559 72.787C29.7822 70.6461 29.3687 68.3923 29.1784 66.0262C28.9964 63.7641 28.9965 61.0007 28.9966 57.7163V48.6213C28.9965 45.3368 28.9964 42.5735 29.1784 40.3114C29.3687 37.9453 29.7822 35.6915 30.8559 33.5506C32.4915 30.2895 35.1012 27.6382 38.3111 25.9766C40.4183 24.8857 42.6368 24.4656 44.9658 24.2723C47.1923 24.0874 49.9123 24.0875 53.1452 24.0876H81.3307C84.0454 24.0876 86.2461 26.3234 86.2461 29.0813C86.2461 31.8393 84.0454 34.0751 81.3307 34.0751H53.3421C49.8604 34.0751 47.5447 34.079 45.7663 34.2266C44.0453 34.3694 43.2646 34.6216 42.7741 34.8755C41.414 35.5796 40.3082 36.703 39.6152 38.0848C39.3653 38.5831 39.1171 39.3762 38.9764 41.1247C38.8311 42.9315 38.8273 45.2841 38.8273 48.8213V57.5163C38.8273 61.0535 38.8311 63.4061 38.9764 65.2129C39.1171 66.9613 39.3653 67.7545 39.6152 68.2528C40.3082 69.6346 41.414 70.758 42.7741 71.4621C43.2646 71.716 44.0453 71.9681 45.7663 72.111Z" fill="url(#paint6_radial_1440_8511)"/>
<defs>
<linearGradient id="paint0_linear_1440_8511" x1="67.7822" y1="57.7108" x2="68.4469" y2="-0.0739874" gradientUnits="userSpaceOnUse">
<stop offset="0.43118" stop-color="#A366FF"/>
<stop offset="1" stop-color="#7E3FFF"/>
</linearGradient>
<radialGradient id="paint1_radial_1440_8511" cx="0" cy="0" r="1" gradientUnits="userSpaceOnUse" gradientTransform="translate(57.4207 24.1912) rotate(-28.7201) scale(34.5585 34.6596)">
<stop stop-color="#601EFE"/>
<stop offset="1" stop-color="#601EFE" stop-opacity="0"/>
</radialGradient>
<radialGradient id="paint2_radial_1440_8511" cx="0" cy="0" r="1" gradientUnits="userSpaceOnUse" gradientTransform="translate(73.6485 34.1221) rotate(152.23) scale(13.9228 13.9426)">
<stop stop-color="#A366FF"/>
<stop offset="0.353962" stop-color="#A366FF"/>
<stop offset="1" stop-color="#A366FF" stop-opacity="0"/>
</radialGradient>
<radialGradient id="paint3_radial_1440_8511" cx="0" cy="0" r="1" gradientUnits="userSpaceOnUse" gradientTransform="translate(56.6361 52.9931) rotate(-46.0893) scale(25.3758 25.3315)">
<stop stop-color="#A366FF"/>
<stop offset="0.405688" stop-color="#A366FF"/>
<stop offset="1" stop-color="#A366FF" stop-opacity="0"/>
</radialGradient>
<linearGradient id="paint4_linear_1440_8511" x1="38.0669" y1="82.25" x2="38.2773" y2="24.1919" gradientUnits="userSpaceOnUse">
<stop stop-color="#8848FF"/>
<stop offset="1" stop-color="#A366FF"/>
</linearGradient>
<radialGradient id="paint5_radial_1440_8511" cx="0" cy="0" r="1" gradientUnits="userSpaceOnUse" gradientTransform="translate(86.5507 57.7109) rotate(142.651) scale(40.4486 39.981)">
<stop offset="0.219034" stop-color="#601FFF"/>
<stop offset="0.792226" stop-color="#601FFF" stop-opacity="0"/>
</radialGradient>
<radialGradient id="paint6_radial_1440_8511" cx="0" cy="0" r="1" gradientUnits="userSpaceOnUse" gradientTransform="translate(74.9585 34.4724) rotate(-52.6961) scale(15.9666 26.2825)">
<stop offset="0.219034" stop-color="#A265FF"/>
<stop offset="1" stop-color="#A265FF" stop-opacity="0"/>
</radialGradient>
</defs>
</svg>
