<?xml version="1.0" encoding="utf-8"?>
<!-- Generator: Adobe Illustrator 16.0.0, SVG Export Plug-In . SVG Version: 6.00 Build 0)  -->
<!DOCTYPE svg PUBLIC "-//W3C//DTD SVG 1.1//EN" "http://www.w3.org/Graphics/SVG/1.1/DTD/svg11.dtd">
<svg version="1.1" id="Calque_1" xmlns="http://www.w3.org/2000/svg" xmlns:xlink="http://www.w3.org/1999/xlink" x="0px" y="0px"
	 width="567.754px" height="566.652px" viewBox="0 0 567.754 566.652" enable-background="new 0 0 567.754 566.652"
	 xml:space="preserve">
<g>
	<path fill-rule="evenodd" clip-rule="evenodd" fill="#C87035" d="M283.703,566.652C126.909,566.649-0.042,439.723,0,283.006
		C0.041,126.56,127.271-0.069,284.348,0c156.408,0.068,283.684,127.094,283.406,283.35
		C567.478,437.987,443.017,566.516,283.703,566.652z M167.976,412.915c0.826-1.548,1.388-2.66,2.004-3.742
		c25.445-44.665,50.913-89.316,76.34-133.991c22.263-39.118,44.495-78.254,66.683-117.416c0.942-1.662,1.903-2.286,3.858-2.28
		c25.941,0.079,51.886,0.053,77.826,0.053c1.049,0,2.1,0,3.725,0c-35.999,63.392-71.739,126.33-107.695,189.649
		c1.333,0.063,2,0.119,2.666,0.119c64.953,0.006,129.907-0.009,194.86,0.063c2.157,0.003,2.879-0.827,3.388-2.663
		c9.766-35.221,10.845-70.678,2.71-106.329c-9.696-42.483-30.993-78.391-62.356-108.383c-14.107-13.491-30.008-24.541-47.46-33.42
		c-43.209-21.98-88.738-29.028-136.376-20.614c-47.488,8.386-87.537,30.847-120.288,66.24c-4.293,4.64-8.229,9.61-12.332,14.427
		c0.137,0.267,0.274,0.532,0.412,0.798c61.621,0,123.244,0,185.325,0c-1.022,1.909-1.724,3.289-2.487,4.635
		c-11.316,19.962-22.69,39.892-33.896,59.916c-1.292,2.309-2.658,3.017-5.223,3.014c-58.37-0.076-116.74-0.059-175.11-0.059
		c-1.172,0-2.344,0-3.465,0c-29.581,92.831,12.244,209.164,117.008,255.835c101.52,45.224,207.942,3.608,257.766-65.852
		C359.87,412.915,264.137,412.915,167.976,412.915z M494.271,461.775c35.977-39.887,67.97-105.582,65.998-184.502
		c-1.627-64.963-23.875-122.092-65.612-172.562c-13.01,13.094-25.66,25.825-38.288,38.532
		c66.061,79.277,68.889,196.64,0.713,280.827C469.477,436.637,481.87,449.2,494.271,461.775z"/>
	<path fill-rule="evenodd" clip-rule="evenodd" fill="none" d="M167.976,412.915c96.161,0,191.894,0,287.883,0
		c-49.824,69.46-156.246,111.075-257.766,65.852C93.329,432.095,51.504,315.762,81.085,222.931c1.121,0,2.292,0,3.465,0
		c58.37,0,116.74-0.017,175.11,0.059c2.565,0.003,3.932-0.705,5.223-3.014c11.206-20.024,22.58-39.954,33.896-59.916
		c0.764-1.346,1.465-2.727,2.487-4.635c-62.082,0-123.704,0-185.325,0c-0.138-0.266-0.274-0.531-0.412-0.798
		c4.102-4.816,8.038-9.787,12.332-14.427c32.75-35.393,72.799-57.854,120.288-66.24c47.638-8.414,93.167-1.366,136.376,20.614
		c17.452,8.88,33.353,19.929,47.46,33.42c31.363,29.992,52.66,65.9,62.356,108.383c8.135,35.651,7.056,71.108-2.71,106.329
		c-0.509,1.836-1.23,2.666-3.388,2.663c-64.953-0.071-129.907-0.057-194.86-0.063c-0.666,0-1.333-0.057-2.666-0.119
		c35.956-63.319,71.696-126.257,107.695-189.649c-1.625,0-2.676,0-3.725,0c-25.94,0-51.885,0.026-77.826-0.053
		c-1.955-0.006-2.916,0.618-3.858,2.28c-22.188,39.162-44.419,78.297-66.683,117.416c-25.428,44.675-50.895,89.326-76.34,133.991
		C169.364,410.255,168.802,411.367,167.976,412.915z"/>
	<path fill-rule="evenodd" clip-rule="evenodd" fill="none" d="M494.271,461.775c-12.401-12.575-24.794-25.139-37.189-37.705
		c68.176-84.187,65.348-201.549-0.713-280.827c12.628-12.707,25.278-25.438,38.288-38.532
		c41.737,50.469,63.985,107.599,65.612,172.562C562.241,356.193,530.248,421.889,494.271,461.775z"/>
</g>
</svg>
