<?xml version="1.0" encoding="utf-8"?>
<!-- Generator: Adobe Illustrator 21.1.0, SVG Export Plug-In . SVG Version: 6.00 Build 0)  -->
<svg version="1.1" id="Ebene_1" xmlns="http://www.w3.org/2000/svg" xmlns:xlink="http://www.w3.org/1999/xlink" x="0px" y="0px"
	 viewBox="0 0 900 900" style="enable-background:new 0 0 900 900;" xml:space="preserve">
<style type="text/css">
	.st0{fill:#3FAD54;}
</style>
<path id="XMLID_279_" class="st0" d="M572.4,588.2h150.8v132.2H270.4l562.9-562.9c18.4-18.4,23.9-46.1,14-70.2
	c-10-24.1-33.5-39.8-59.5-39.8H114.8c-35.6,0-64.4,28.8-64.4,64.4v196.6h0v279.6l279.6-279.6H179.3V176.4h452.9L69.3,739.3
	c-18.4,18.4-23.9,46.1-14,70.2c10,24.1,33.5,39.8,59.5,39.8h672.8c35.6,0,64.4-28.8,64.4-64.4V588.2h0V308.6L572.4,588.2z"/>
</svg>
