<svg width="150" height="100" style="clip-rule:evenodd;fill-rule:evenodd;image-rendering:optimizeQuality;shape-rendering:geometricPrecision;text-rendering:geometricPrecision" version="1.1" id="svg587" xml:space="preserve" xmlns="http://www.w3.org/2000/svg"><style id="style324">.st2{fill:#ffc214}.st3{fill:#f9f185}.st0{fill:#222221}.st1{fill:#272425}</style><g id="g1" transform="translate(9.025 40.522) scale(.02528)" style="clip-rule:evenodd;fill-rule:evenodd;image-rendering:optimizeQuality;shape-rendering:geometricPrecision;text-rendering:geometricPrecision"><path d="m0 435.197 229.609-143.6v-3.476L0 144.259V29.051l334.901 216.843v87.93L0 550.798Z" fill="#f30" id="path1-3"/><path d="M486.969 623.844h415.658v95.799H486.969Z" fill="#f30" id="path2"/><path d="M993.879 291.2C993.879 106.422 1084.61 0 1214.37 0c129.76 0 220.49 106.422 220.49 291.2 0 187.861-90.73 296.381-220.49 296.381S993.879 479.061 993.879 291.2zm351.241 0c0-136.19-51.96-215.203-130.75-215.203-78.79 0-130.75 79.013-130.75 215.203 0 139.273 51.96 220.384 130.75 220.384 78.79 0 130.48-81.111 130.48-220.384z" fill="#f30" id="path3"/><path d="M1593.29 154.29h70.52l6.56 51.08h2.76c38.18-35.736 91.58-61.112 141.31-61.112 111.52 0 173.58 84.455 173.58 215.597 0 144.256-90.07 228.056-190.25 228.056-38.64 0-84.23-19.082-120.38-52.457h-2.1l4.14 76.783v137.699h-86.14zm306.36 205.565c0-88.586-32.21-144.256-108.44-144.256-34.64 0-73.28 17.114-111.52 56.522v199.991c35.1 31.802 74.92 43.343 101.88 43.343 67.18.262 118.08-55.604 118.08-155.6z" fill="#f30" id="path4"/><path d="M2118.96 365.035c0-137.699 103.79-221.105 217.02-221.105 124.18 0 194.84 81.504 194.84 199.597a316.484 316.484 0 0 1-3.94 46.818h-348.15V327.2h294.49l-18.7 21.049c0-91.8-44.35-137.699-116.05-137.699-74.06 0-134.81 54.62-134.81 154.354 0 103.929 65.14 155.14 156.13 155.14 47.3 0 85.29-14.294 123.6-37.244l30.17 54.49a299.162 299.162 0 0 1-164.99 50.292c-128.18 0-229.61-81.635-229.61-222.547z" fill="#f30" id="path5"/><path d="M2658.41 154.29h70.66l6.56 67.407h3.41c42.51-43.408 90.79-77.439 156.13-77.439 98.93 0 144 60.784 144 170.943v261.825h-86.27V326.152c0-73.833-24.79-107.93-87.51-107.93-45.92 0-77.08 22.622-120.71 67.341v291.463h-86.27z" fill="#f30" id="path6"/><path d="m3208.36 504.308 51.1-59.932a238.681 238.681 0 0 0 162.04 67.079c71.77 0 111.53-32.786 111.53-78.685 0-55.408-41.4-70.817-97.62-94.553l-79.84-34.884c-57.93-22.819-121.36-64.719-121.36-148.19 0-88.324 79.44-155.141 191.43-155.141a254.42 254.42 0 0 1 178.11 71.079l-44.88 55.473a200.053 200.053 0 0 0-136.97-50.555c-59.7 0-99.79 27.605-99.79 74.029 0 49.178 48.94 67.145 98.87 86.488l76.95 33.9c71.11 27.671 124.25 69.112 124.25 151.928 0 91.012-76.82 165.239-205.4 165.239a298.439 298.439 0 0 1-208.42-83.275z" fill="#000" id="path7"/><path d="M3762.96 465.557c0-94.816 86.08-141.502 299.74-157.371-3.08-52.456-31.16-94.29-106.4-94.29-51.17 0-101.62 23.408-143.02 47.604l-32.8-57.506c47.5-29.31 118.09-59.932 191.3-59.932 116.64 0 177.13 66.883 177.13 178.616v254.349h-71.18l-6.89-54.883h-2.76c-45.26 35.409-104.11 65.571-162.04 65.571-80.88-.131-143.08-47.67-143.08-122.158zm299.74-3.279v-99.012c-165.91 11.868-215.44 45.31-215.44 95.734 0 42.489 38.12 60.063 83.39 60.063 45.26 0 88.23-21.18 132.05-56.785z" fill="#000" id="path8"/><path d="M4388.81 409.884V222.941h-116.64v-64.128l119.99-4.524 11.28-134.027h71.58v134.027h199.62v68.652h-199.62v187.205c0 72.718 25.71 107.93 102.27 107.93a270.172 270.172 0 0 0 96.44-18.097l17.51 63.013a391.161 391.161 0 0 1-133.89 24.589c-126.49 0-168.54-71.538-168.54-177.697z" fill="#000" id="path9"/><path d="m4818.71 521.815 38.38-55.801a307.444 307.444 0 0 0 180.34 55.473c64.88 0 95.91-26.228 95.91-57.637 0-29.9-17.58-48.85-124.12-70.816-111.52-23.147-164.01-61.834-164.01-125.831 0-70.685 63.64-123.273 180.74-123.273 67.31 0 131.6 26.228 173.98 54.948l-40.48 53.768a255.28 255.28 0 0 0-140.85-43.342c-62.98 0-87.32 24.851-87.32 53.834 0 32.785 33.79 45.899 116.84 63.8 137.77 30.163 172.21 65.571 172.21 131.798 0 70.751-68.62 128.846-193.53 128.846a377.209 377.209 0 0 1-208.09-65.767z" fill="#000" id="path10"/></g></svg>