<svg width="150" height="100" style="clip-rule:evenodd;fill-rule:evenodd;image-rendering:optimizeQuality;shape-rendering:geometricPrecision;text-rendering:geometricPrecision" version="1.1" id="svg587" xml:space="preserve" xmlns="http://www.w3.org/2000/svg"><style id="style324">.st2{fill:#ffc214}.st3{fill:#f9f185}.st0{fill:#222221}.st1{fill:#272425}</style><g id="g821" transform="translate(1.971 84.762) scale(.13236)"><path style="clip-rule:evenodd;fill:#fff;fill-rule:evenodd;stroke-width:8.91671;image-rendering:optimizeQuality;shape-rendering:geometricPrecision;text-rendering:geometricPrecision" id="rect875-3" d="M-14.893-640.379h1133.259v755.506H-14.893z"/><g id="g871" transform="translate(47.57 -428.718) scale(.33698)"><path d="M1137.09 103.9v773.45h-51.44V515.96h-953.6v361.38H80.62V103.9h51.44v361.2h953.6V103.9Zm-102.77 0h-51.44v258.19H234.94V103.9H183.5v309.05h850.82zm-696.29 0h-50.87v205.84h50.87zm593.05 0h-51.44v205.84h51.44zM183.5 877.34h51.44V619.16h747.94v258.19h51.44V567.72H183.5Zm695.72 0h51.44V670.93h-51.44zm-592.47 0h51.44V670.93h-51.44z" fill="#e12991" id="path809"/><path fill="#010101" d="M1422.94 103.88V331.3h-44.51v-94.22h-92.2v94.22h-44.83V103.88h44.83v90.32h92.2v-90.32zm182.87 64.97V331.3h-41.91v-18.19c-9.75 14.62-26.64 22.74-48.41 22.74-34.44 0-61.4-24.04-61.4-67.25v-99.74H1496v94.54c0 22.1 13.32 33.47 32.16 33.47 20.47 0 35.74-12.02 35.74-40.29v-87.72h41.91zm279.38 62.38V331.3h-41.91v-97.14c0-19.17-9.75-30.86-27.29-30.86-18.52 0-30.22 12.35-30.22 36.71v91.29h-41.91v-97.14c0-19.17-9.75-30.86-27.29-30.86-17.87 0-30.54 12.35-30.54 36.71v91.29h-41.91V168.85h41.91v17.22c9.1-13.64 24.37-21.77 45.16-21.77 20.14 0 35.09 8.45 44.18 23.39 10.07-14.62 26.32-23.39 48.41-23.39 37.04.01 61.41 26.32 61.41 66.93zm201.05-62.38V331.3h-41.91v-19.17c-11.7 14.62-29.24 23.72-52.96 23.72-43.21 0-78.95-37.36-78.95-85.77s35.74-85.77 78.95-85.77c23.72 0 41.26 9.1 52.96 23.72v-19.17h41.91zm-41.91 81.23c0-27.29-19.17-45.81-45.16-45.81-25.66 0-44.83 18.52-44.83 45.81 0 27.29 19.17 45.81 44.83 45.81 25.99 0 45.16-18.52 45.16-45.81zm231.6-18.52v99.74h-41.91v-94.54c0-22.09-13.32-33.46-32.16-33.46-20.47 0-35.74 12.02-35.74 40.29v87.72h-41.91V168.85h41.91v18.19c9.75-14.62 26.64-22.74 48.41-22.74 34.44.01 61.4 24.05 61.4 67.26zm-959.46 293.8h-30.25v78.95h-44.83V376.89h94.84c41.91 0 75.7 33.79 75.7 75.37 0 28.59-17.87 54.26-43.86 66.28l50.36 85.77h-48.41zm-30.25-39.31h50c16.89 0 30.86-14.95 30.86-33.79s-13.97-33.46-30.86-33.46h-50zm151.66-89.34c0-13.97 15.57-25.99 29.54-25.99 14.29 0 22.12 12.02 22.12 25.99 0 13.97-11.7 25.67-25.99 25.67-13.97 0-25.67-11.7-25.67-25.67zm4.88 45.16h41.91v162.45h-41.91zm239.1 0v154.65c0 53.28-41.91 77.33-84.8 77.33-34.77 0-62.7-13.32-77-39.64l35.74-20.47c6.82 12.67 17.54 22.74 42.56 22.74 26.31 0 42.56-14.29 42.56-39.96v-17.54c-11.37 15.27-28.92 24.69-51.98 24.69-46.14 0-80.9-37.36-80.9-83.17 0-45.48 34.76-83.17 80.9-83.17 23.07 0 40.61 9.42 51.98 24.69v-20.14h40.94zm-40.94 78.62c0-25.67-19.17-44.18-45.49-44.18-26.31 0-45.48 18.52-45.48 44.18 0 25.99 19.17 44.51 45.48 44.51 26.32 0 45.49-18.52 45.49-44.51zm230.63-15.92v99.74h-41.91v-94.54c0-22.09-13.32-33.46-32.16-33.46-20.47 0-35.74 12.02-35.74 40.29v87.72h-41.91V376.89h41.91v83.17c9.75-14.62 26.64-22.74 48.41-22.74 34.44 0 61.4 24.04 61.4 67.25zm91.91-22.42v67.58c0 17.54 12.67 17.87 36.71 16.57v38.01c-58.81 6.5-78.62-10.72-78.62-54.58v-67.58h-28.27v-40.29h28.27v-32.81l41.91-12.67v45.48h36.71v40.29zm185.17 74.73c0 35.09-30.54 51.98-65.31 51.98-32.49 0-56.53-13.64-68.22-38.66l36.39-20.47c4.55 13.32 15.6 21.12 31.84 21.12 13.32 0 22.42-4.55 22.42-13.97 0-23.72-83.82-10.72-83.82-67.9 0-33.14 28.27-51.66 61.73-51.66 26.32 0 49.06 12.02 61.73 34.44l-35.74 19.49c-4.88-10.4-13.97-16.57-25.99-16.57-10.4 0-18.84 4.55-18.84 13.32-.01 24.04 83.81 9.1 83.81 68.88zm-862.41 135.91v53.93h96.11v42.89h-96.11v87.72h-44.83V649.9h143.54v42.88h-98.71zm114.6 103.31c0-48.41 38.01-85.77 85.77-85.77s86.1 37.36 86.1 85.77-38.34 85.77-86.1 85.77c-47.76 0-85.77-37.36-85.77-85.77zm129.96 0c0-26.31-19.17-44.83-44.19-44.83-24.69 0-43.86 18.52-43.86 44.83 0 26.32 19.17 44.83 43.86 44.83 25.02.01 44.19-18.51 44.19-44.83zm214.06-81.22v162.45h-41.91v-18.19c-9.75 14.62-26.64 22.74-48.41 22.74-34.44 0-61.4-24.04-61.4-67.25v-99.74h41.91v94.54c0 22.1 13.32 33.47 32.16 33.47 20.47 0 35.74-12.02 35.74-40.29v-87.72h41.91zm190.02 62.7v99.74h-41.91v-94.54c0-22.09-13.32-33.46-32.16-33.46-20.47 0-35.74 12.02-35.74 40.29v87.72h-41.91V714.88h41.91v18.19c9.75-14.62 26.64-22.74 48.41-22.74 34.44 0 61.4 24.04 61.4 67.25zm200.75-127.68v227.42h-41.91v-19.17c-11.7 14.95-28.92 23.72-52.63 23.72-43.54 0-79.27-37.36-79.27-85.77s35.74-85.77 79.27-85.77c23.72 0 40.94 8.77 52.63 23.72V649.9Zm-41.91 146.2c0-27.29-19.17-45.81-44.84-45.81-25.99 0-45.16 18.52-45.16 45.81 0 27.29 19.17 45.81 45.16 45.81 25.67.01 44.84-18.51 44.84-45.81zm243.65-81.22v162.45h-41.91v-19.17c-11.7 14.62-29.24 23.72-52.96 23.72-43.21 0-78.95-37.36-78.95-85.77s35.74-85.77 78.95-85.77c23.72 0 41.26 9.1 52.96 23.72v-19.17h41.91zm-41.91 81.22c0-27.29-19.17-45.81-45.16-45.81-25.66 0-44.83 18.52-44.83 45.81 0 27.29 19.17 45.81 44.83 45.81 25.99.01 45.16-18.51 45.16-45.81zm138.02-40.93v67.58c0 17.54 12.67 17.87 36.71 16.57v38.01c-58.81 6.5-78.62-10.72-78.62-54.58v-67.58h-28.26v-40.29h28.26v-32.81l41.91-12.67v45.48h36.71v40.29zm61.38-85.45c0-13.97 11.7-25.99 25.67-25.99 14.29 0 25.99 12.02 25.99 25.99 0 13.97-11.7 25.66-25.99 25.66-13.97.01-25.67-11.69-25.67-25.66zm4.87 45.16h41.91v162.45h-41.91zM2565 796.1c0-48.41 38.01-85.77 85.77-85.77s86.1 37.36 86.1 85.77-38.34 85.77-86.1 85.77c-47.76 0-85.77-37.36-85.77-85.77zm129.96 0c0-26.31-19.17-44.83-44.19-44.83-24.69 0-43.86 18.52-43.86 44.83 0 26.32 19.17 44.83 43.86 44.83 25.02.01 44.19-18.51 44.19-44.83zm216.66-18.52v99.74h-41.91v-94.54c0-22.09-13.32-33.46-32.16-33.46-20.47 0-35.74 12.02-35.74 40.29v87.72h-41.91V714.88h41.91v18.19c9.75-14.62 26.64-22.74 48.41-22.74 34.44 0 61.4 24.04 61.4 67.25z" id="path811"/></g></g></svg>