<svg width="150" height="100" style="clip-rule:evenodd;fill-rule:evenodd;image-rendering:optimizeQuality;shape-rendering:geometricPrecision;text-rendering:geometricPrecision" version="1.1" id="svg587" xml:space="preserve" xmlns="http://www.w3.org/2000/svg">
<rect width="100%" height="100%" fill="#ffffff"/>
    <style id="style324">
.st2{fill:#ffc214}
.st3{fill:#f9f185}
.st0{fill:#222221}
.st1{fill:#272425}
</style>
    <g id="g931" transform="matrix(.375 0 0 .375 -306.863 -123.51)">
<path fill-rule="evenodd" clip-rule="evenodd" d="M911.118 436.635c-7.865-3.02-11.793-11.842-8.774-19.707s11.842-11.793 19.707-8.774l56.773 21.793c.062.026.126.05.19.074l28.48 10.932c7.864 3.02 16.689-.909 19.706-8.774 3.02-7.865-.908-16.688-8.774-19.707v-.003l-28.48-10.932c-7.865-3.02-11.793-11.842-8.774-19.707 3.02-7.865 11.842-11.793 19.707-8.774l83.768 32.155c.2.077.399.158.594.242a84 84 0 0 1 1.08.406c39.325 15.095 58.967 59.21 43.87 98.535-15.095 39.324-59.21 58.965-98.534 43.87a78.402 78.402 0 0 1-2.249-.903c-.36-.11-.72-.232-1.076-.37l-82.117-31.521c-7.865-3.02-11.793-11.842-8.774-19.707s11.842-11.793 19.707-8.774l28.477 10.931-.002-.007.006.002c7.865 3.02 16.688-.909 19.706-8.774 3.02-7.865-.908-16.688-8.773-19.707l-12.817-4.92v-.001z" fill="currentColor" id="path1" style="clip-rule:evenodd;fill:#000;fill-rule:evenodd;stroke-width:1.52532;image-rendering:optimizeQuality;shape-rendering:geometricPrecision;text-rendering:geometricPrecision"/>
</g>
</svg>
