<svg id="レイヤー_1" data-name="レイヤー 1" xmlns="http://www.w3.org/2000/svg" viewBox="0 0 236.18 102.3"><defs><style>.cls-1{fill:#cedc21;}.cls-2{fill:#51b13e;}.cls-3{fill:#1e7a44;}.cls-4{fill:#fff;}</style></defs><title>btcpay3</title><path class="cls-1" d="M38.55,201.73a6,6,0,0,1-6-6V105.44a6,6,0,0,1,12,0v90.29A6,6,0,0,1,38.55,201.73Z" transform="translate(-32.55 -99.43)"/><path class="cls-2" d="M38.56,201.73A6,6,0,0,1,36,190.31l36.18-17.17L35,145.76a6,6,0,1,1,7.11-9.66l45.24,33.33a6,6,0,0,1-1,10.25L41.13,201.15A5.9,5.9,0,0,1,38.56,201.73Z" transform="translate(-32.55 -99.43)"/><path class="cls-1" d="M38.56,166.24A6,6,0,0,1,35,155.41L72.16,128,36,110.86A6,6,0,1,1,41.13,100l45.24,21.47a6,6,0,0,1,1,10.25L42.11,165.07A6,6,0,0,1,38.56,166.24Z" transform="translate(-32.55 -99.43)"/><polygon class="cls-3" points="12 38.46 12 63.84 29.21 51.16 12 38.46"/><rect class="cls-4" y="27.82" width="12" height="29.25"/><path class="cls-1" d="M44.55,105.44a6,6,0,0,0-12,0V181h12Z" transform="translate(-32.55 -99.43)"/><path class="cls-4" d="M123.92,149.86c3.84,1.09,6,4.57,6,8.93,0,6.81-4.15,10-9.82,10H107.14V132.4h11.43c5.56,0,9.87,2.65,9.87,9.56C128.44,145.44,127,148.66,123.92,149.86Zm-5.3-.89c4.1,0,7.43-1.45,7.43-7.06s-3.43-7.17-7.59-7.17h-8.88V149Zm1.3,17.41c4.15,0,7.48-2.18,7.48-7.59,0-5.82-3.79-7.58-8.52-7.58h-9.3v15.17Z" transform="translate(-32.55 -99.43)"/><path class="cls-4" d="M154.21,132.4v2.23h-10v34.14h-2.44V134.63h-10V132.4Z" transform="translate(-32.55 -99.43)"/><path class="cls-4" d="M171.3,131.88c6.19,0,11.8,3.12,13.57,10.55h-2.34c-1.66-6.08-6.55-8.32-11.28-8.32-8.57,0-13.09,7-13.09,16.47,0,10,4.52,16.37,13.14,16.37,5.1,0,9.67-2.29,11.44-9h2.33a13.6,13.6,0,0,1-13.77,11.33c-9.71,0-15.53-7.17-15.53-18.71C155.77,139.52,161.9,131.88,171.3,131.88Z" transform="translate(-32.55 -99.43)"/><path class="cls-4" d="M203.36,132.4c6.29,0,10.86,4.1,10.86,12,0,7.48-4.57,12-10.86,12H193.8v12.32h-2.39V132.4Zm0,21.66c4.63,0,8.42-3,8.42-9.66s-3.64-9.71-8.42-9.71H193.8v19.37Z" transform="translate(-32.55 -99.43)"/><path class="cls-4" d="M214.64,168.77v-.31l14.49-36.16h1.1l14.34,36.16v.31H242l-4.1-10.5H221.34l-4.1,10.5Zm15-32.16L222.17,156h14.91Z" transform="translate(-32.55 -99.43)"/><path class="cls-4" d="M266.13,132.4h2.6v.36L257.4,153.65v15.12h-2.49V153.65l-11.38-20.94v-.31h2.65l4.93,9.25,5,9.61h0l5-9.61Z" transform="translate(-32.55 -99.43)"/></svg>