<?xml version="1.0" encoding="iso-8859-1"?>
<!-- Generator: Adobe Illustrator 18.0.0, SVG Export Plug-In . SVG Version: 6.00 Build 0)  -->
<!DOCTYPE svg PUBLIC "-//W3C//DTD SVG 1.1//EN" "http://www.w3.org/Graphics/SVG/1.1/DTD/svg11.dtd">
<svg version="1.1" id="Capa_1" xmlns="http://www.w3.org/2000/svg" xmlns:xlink="http://www.w3.org/1999/xlink" x="0px" y="0px"
	 viewBox="0 0 487.482 487.482" style="enable-background:new 0 0 487.482 487.482;" xml:space="preserve">
<g>
	<path d="M477.482,63.277H10c-5.523,0-10,4.478-10,10v340.928c0,5.522,4.477,10,10,10h467.482c5.522,0,10-4.478,10-10V73.277
		C487.482,67.755,483.005,63.277,477.482,63.277z M467.482,83.277v235.236l-104.018-80.07c-3.364-2.591-7.996-2.773-11.555-0.457
		l-68.298,44.456l-134.745-92.417c-3.192-2.189-7.362-2.34-10.706-0.384L20,258.777v-175.5H467.482z M20,404.205V281.948
		l122.786-71.841l135.024,92.608c3.337,2.286,7.723,2.34,11.111,0.134l67.959-44.235l110.602,85.138v60.453H20z"/>
	<path d="M280.707,218.281c26.063,0,47.266-21.202,47.266-47.264c0-26.058-21.203-47.258-47.266-47.258
		c-26.062,0-47.264,21.2-47.264,47.258C233.443,197.079,254.645,218.281,280.707,218.281z M280.707,143.76
		c15.034,0,27.266,12.228,27.266,27.258c0,15.033-12.231,27.264-27.266,27.264c-15.033,0-27.264-12.23-27.264-27.264
		C253.443,155.987,265.674,143.76,280.707,143.76z"/>
</g>
<g>
</g>
<g>
</g>
<g>
</g>
<g>
</g>
<g>
</g>
<g>
</g>
<g>
</g>
<g>
</g>
<g>
</g>
<g>
</g>
<g>
</g>
<g>
</g>
<g>
</g>
<g>
</g>
<g>
</g>
</svg>
