<svg width="0" height="0" xmlns="http://www.w3.org/2000/svg">
    <symbol id="info" viewBox="0 0 16 16"><path fill="currentColor" fill-rule="evenodd" d="M8 16A8 8 0 1 0 8 0a8 8 0 0 0 0 16zm.93-9.412l-2.29.287-.082.38.45.083c.294.07.352.176.288.469l-.738 3.468c-.194.897.105 1.319.808 1.319.545 0 1.178-.252 1.465-.598l.088-.416c-.2.176-.492.246-.686.246-.275 0-.375-.193-.304-.533L8.93 6.588zM8 5.5a1 1 0 1 0 0-2 1 1 0 0 0 0 2z"/></symbol>
    <symbol id="wallet" viewBox="0 0 16 16"><path fill="currentColor" fill-rule="evenodd" d="M2.5 4l10-3A1.5 1.5 0 0 1 14 2.5v2h-1v-2a.5.5 0 0 0-.5-.5L5.833 4H2.5z"/><path fill="currentColor" fill-rule="evenodd" d="M1 5.5A1.5 1.5 0 0 1 2.5 4h11A1.5 1.5 0 0 1 15 5.5v8a1.5 1.5 0 0 1-1.5 1.5h-11A1.5 1.5 0 0 1 1 13.5v-8zM2.5 5a.5.5 0 0 0-.5.5v8a.5.5 0 0 0 .5.5h11a.5.5 0 0 0 .5-.5v-8a.5.5 0 0 0-.5-.5h-11z"/></symbol>
    <symbol id="send" viewBox="0 0 16 16"><path fill="currentColor" fill-rule="evenodd" d="M1.5 13A1.5 1.5 0 0 0 3 14.5h8a1.5 1.5 0 0 0 1.5-1.5V9a.5.5 0 0 0-1 0v4a.5.5 0 0 1-.5.5H3a.5.5 0 0 1-.5-.5V5a.5.5 0 0 1 .5-.5h4a.5.5 0 0 0 0-1H3A1.5 1.5 0 0 0 1.5 5v8zm7-11a.5.5 0 0 1 .5-.5h5a.5.5 0 0 1 .5.5v5a.5.5 0 0 1-1 0V2.5H9a.5.5 0 0 1-.5-.5z"/><path fill="currentColor" fill-rule="evenodd" d="M14.354 1.646a.5.5 0 0 1 0 .708l-8 8a.5.5 0 0 1-.708-.708l8-8a.5.5 0 0 1 .708 0z"/></symbol>
    <symbol id="receive" viewBox="0 0 16 16"><path fill="currentColor" fill-rule="evenodd" d="M14.5 13a1.5 1.5 0 0 1-1.5 1.5H3A1.5 1.5 0 0 1 1.5 13V8a.5.5 0 0 1 1 0v5a.5.5 0 0 0 .5.5h10a.5.5 0 0 0 .5-.5V3a.5.5 0 0 0-.5-.5H9a.5.5 0 0 1 0-1h4A1.5 1.5 0 0 1 14.5 3v10z"/><path fill="currentColor" fill-rule="evenodd" d="M4.5 10a.5.5 0 0 0 .5.5h5a.5.5 0 0 0 .5-.5V5a.5.5 0 0 0-1 0v4.5H5a.5.5 0 0 0-.5.5z"/><path fill="currentColor" fill-rule="evenodd" d="M10.354 10.354a.5.5 0 0 0 0-.708l-8-8a.5.5 0 1 0-.708.708l8 8a.5.5 0 0 0 .708 0z"/></symbol>
    <symbol id="edit" viewBox="0 0 16 16"><path fill="currentColor" fill-rule="evenodd" d="M11.293 1.293a1 1 0 0 1 1.414 0l2 2a1 1 0 0 1 0 1.414l-9 9a1 1 0 0 1-.39.242l-3 1a1 1 0 0 1-1.266-1.265l1-3a1 1 0 0 1 .242-.391l9-9zM12 2l2 2-9 9-3 1 1-3 9-9z"/><path fill="currentColor" fill-rule="evenodd" d="M12.146 6.354l-2.5-2.5.708-.708 2.5 2.5-.707.708zM3 10v.5a.5.5 0 0 0 .5.5H4v.5a.5.5 0 0 0 .5.5H5v.5a.5.5 0 0 0 .5.5H6v-1.5a.5.5 0 0 0-.5-.5H5v-.5a.5.5 0 0 0-.5-.5H3z"/></symbol>
    <symbol id="delete" viewBox="0 0 16 16"><path fill="currentColor" d="M5.5 5.5A.5.5 0 0 1 6 6v6a.5.5 0 0 1-1 0V6a.5.5 0 0 1 .5-.5zm2.5 0a.5.5 0 0 1 .5.5v6a.5.5 0 0 1-1 0V6a.5.5 0 0 1 .5-.5zm3 .5a.5.5 0 0 0-1 0v6a.5.5 0 0 0 1 0V6z"/><path fill="currentColor" fill-rule="evenodd" d="M14.5 3a1 1 0 0 1-1 1H13v9a2 2 0 0 1-2 2H5a2 2 0 0 1-2-2V4h-.5a1 1 0 0 1-1-1V2a1 1 0 0 1 1-1H6a1 1 0 0 1 1-1h2a1 1 0 0 1 1 1h3.5a1 1 0 0 1 1 1v1zM4.118 4L4 4.059V13a1 1 0 0 0 1 1h6a1 1 0 0 0 1-1V4.059L11.882 4H4.118zM2.5 3V2h11v1h-11z"/></symbol>
</svg>
