<svg version="1.1" id="bdbb9e96-7dd2-4000-9304-0bf8a661aad9" xmlns="http://www.w3.org/2000/svg" x="0" y="0" viewBox="0 0 121.9 121.9" style="background:#fff" xml:space="preserve"><style>.st0{fill:#222221}.st1{fill:#272425}</style><path class="st0" d="M93.4 49.9 93 51h-2.3l-.7 1.5h2.2l-.4 1.1h-2.2l-1 2.5h-2.1l2.4-6.2zM98.5 49.8c1.7 0 2.9.9 2.1 3.1-.7 2-2.6 3.3-4.7 3.3-2.2 0-2.8-1.3-2.1-3.2.8-1.9 2.6-3.2 4.7-3.2m-2.2 5.4c.4 0 1.1-.2 1.8-2.2.7-1.8.6-2.2 0-2.2s-1.1.4-1.9 2.3c-.5 1.3-.6 2.1.1 2.1M106.2 49.9c.7-.1 1.4 0 2 .2.5.1.8.7.6 1.1 0 .1 0 .1-.1.2-.4.8-1.2 1.4-2.1 1.6l.9 3h-2.4l-.5-2.5h-.2l-1 2.5h-2.1l2.4-6.2h2.5zm-.6 1-.7 1.8h.2c.6.1 1.2-.3 1.3-.9.3-.7.1-.9-.6-.9h-.2zM113.7 49.9c.9-.1 1.9.1 2.7.6.7.7.4 1.8.2 2.3-.5 1.4-1.6 2.5-3 3-.8.2-1.6.3-2.4.3h-2l2.4-6.2h2.1zm-.4 1-1.7 4.2h.2c.5 0 1.4.2 2.4-2.2.8-2 .1-2-.7-2h-.2zM37.6 49.9l-2.4 6.2H33l2.4-6.2zM42.6 49.9l-2 5.1h2.3l-.4 1.1H38l2.4-6.2zM48.6 49.9l-2 5.1h2.3l-.4 1.1H44l2.4-6.2zM55.1 49.9l-2.4 6.2h-2.2l2.4-6.2zM62.5 49.9l-.4 1.1h-2.4l-.5 1.3h2.1l-.4 1.1h-2.1l-.7 1.6h2.4l-.4 1.1h-4.6l2.4-6.2zM73.2 51.1c-.3-.1-.7-.2-1.1-.2-1.6 0-2.4 1.6-2.6 2.2-.3.8-.6 1.7.1 2 .2.1.4.1.7.1l.6-1.5h-.8l.4-1h2.8l-1.2 2.9c-.8.3-1.7.5-2.5.5-2.3 0-3.2-1.3-2.5-3.1.9-2 2.9-3.3 5.1-3.2.6 0 1.2.1 1.8.3l-.8 1zM79.3 49.9l-2.4 6.2h-2.2l2.4-6.2zM86.7 49.9l-.4 1.1h-2.4l-.6 1.5h2.2l-.5 1.1h-2.1l-1 2.5h-2.2l2.5-6.2zM22.6 49.9c.6 0 1.2.1 1.7.2.4.1.7.5.5 1 0 .1 0 .1-.1.2-.4.8-1.2 1.4-2.2 1.5.4 0 .7.2 1 .3.4.3.5.8.3 1.2-.4.8-1.2 1.4-2.1 1.6-.7.2-1.4.2-2.2.2h-2.2l2.4-6.2h2.9zm-1.4 2.5c.2 0 .5 0 .7-.1.3-.1.5-.4.6-.7.1-.3.1-.5-.1-.6-.2-.1-.4-.1-.7-.1h-.3l-.6 1.5h.4zm-1 2.7c.3 0 .6 0 .8-.1.3-.2.6-.5.7-.8.2-.4.1-.6-.1-.7-.2-.1-.5-.1-.8-.1h-.3l-.7 1.8h.4zM30.9 49.9l.4 6.2H29v-1.2h-2l-1 1.2h-1.6l5.2-6.2h1.3zm-3.2 4H29v-1.7l-1.3 1.7z"/><path class="st0" d="M0 52.5c0-9.4 27.5-16.9 61.5-16.9 29.9 0 54.8 5.9 60.4 13.7-6.3-6.2-28.4-10.7-54.7-10.7-31.2 0-56.5 6.4-56.5 14.3S36 67.2 67.2 67.2c23 0 42.9-3.5 51.7-8.5C110 65 87.7 69.5 61.6 69.5 27.5 69.5 0 61.9 0 52.5"/><path class="st1" d="m32.4 79-.5 5.8v.5c0 .1 0 .2.1.3.1.1.2.2.3.2.2.1.4.1.6.1l-.1.2h-2.7L30 86h.1c.2 0 .4 0 .5-.2.1-.1.2-.2.2-.3.1-.2.1-.5.1-.8l.1-.9h-2l-.7 1c-.1.1-.2.3-.3.5v.3c0 .1.1.2.1.3.1.1.3.1.4.1l-.1.2h-2.1V86c.2 0 .5-.1.7-.3.3-.3.6-.6.9-1L32 79h.4zm-1 1.8-2 2.7h1.7l.3-2.7zM37.4 85c-.3.4-.7.7-1.1.9-.3.2-.7.3-1.1.3-.4 0-.8-.1-1.1-.4-.3-.3-.4-.7-.4-1.1 0-.5.2-1.1.4-1.5.3-.5.7-.9 1.2-1.2.4-.3.9-.5 1.5-.5.3 0 .6.1.8.2.2.1.3.3.3.6 0 .2-.1.4-.2.5-.1.2-.3.2-.4.2-.1 0-.2 0-.3-.1-.1-.1-.1-.2-.1-.3v-.2c0-.1.1-.1.2-.2.1 0 .1-.1.2-.2v-.1c0-.1 0-.1-.1-.2s-.3-.1-.4-.1c-.4 0-.7.1-1 .4-.4.3-.6.6-.8 1-.3.5-.4 1-.4 1.6 0 .3.1.6.3.8.2.2.5.3.8.3.3 0 .5-.1.8-.2.3-.2.6-.4.9-.7v.2zM40.8 80.2l-.4 1.4h.8l-.1.3h-.8l-.9 3c-.1.2-.1.4-.2.6v.1h.1c.1 0 .2-.1.3-.2.2-.2.4-.4.5-.6l.2.1c-.2.4-.5.7-.9 1-.2.1-.4.2-.6.2-.1 0-.3 0-.4-.1-.1-.1-.2-.2-.2-.4 0-.3.1-.6.2-.8l.8-3h-.8v-.2c.3-.1.7-.2.9-.5.3-.3.6-.7.8-1.1l.7.2zM45.9 81.6l-.9 3.1c-.1.3-.2.6-.2.9v.1h.1c.1 0 .1 0 .2-.1.2-.2.4-.4.5-.6l.2.1c-.2.4-.5.7-.8.9-.2.1-.3.2-.5.2-.1 0-.2 0-.3-.1-.2 0-.2-.1-.2-.2 0-.2 0-.3.1-.5s.2-.8.5-1.6c-.4.7-.9 1.4-1.5 2-.3.3-.7.5-1.1.5-.1 0-.3-.1-.4-.2-.1-.1-.2-.3-.2-.4 0-.4.1-.8.2-1.2l.5-1.6c.1-.2.1-.5.2-.7v-.1h-.1c-.1 0-.2 0-.2.1-.2.2-.3.4-.5.6l-.2-.2c.2-.3.5-.6.8-.9.2-.1.4-.2.6-.2.1 0 .2 0 .3.1.1.1.1.2.1.3 0 .3-.1.7-.2 1l-.5 1.7c-.1.3-.2.6-.2.8 0 .1 0 .1.1.2 0 0 .1.1.2.1.2 0 .3-.1.4-.2.3-.2.5-.5.7-.8.3-.3.5-.7.8-1.1.3-.5.5-1.1.6-1.6l.1-.4h.8zM51.1 81.5l-1 3.5-.1.5v.4h.1c.1 0 .1 0 .2-.1.2-.2.4-.4.5-.6l.2.1c-.2.3-.4.6-.7.8-.2.2-.4.3-.7.3-.1 0-.2 0-.3-.1-.1-.1-.1-.2-.1-.3 0-.2 0-.4.1-.7l.1-.4c-.3.5-.7.9-1.2 1.2-.2.2-.5.2-.8.2-.3 0-.5-.1-.7-.3-.2-.2-.3-.5-.3-.8 0-.6.2-1.2.5-1.7.3-.6.7-1.1 1.2-1.4.3-.3.7-.4 1.1-.4.2 0 .4.1.5.2.2.1.3.3.3.5l.2-.6.9-.3zm-1.8.3c-.3 0-.5.1-.7.3-.4.4-.7.8-.9 1.3-.3.5-.4 1-.4 1.5 0 .2 0 .4.2.6.1.1.2.2.4.2.4 0 .8-.3 1.2-.8.5-.6.8-1.4.9-2.2 0-.2 0-.4-.2-.6-.2-.3-.3-.3-.5-.3zM54.6 78.9 52.8 85c-.1.2-.1.4-.1.6 0 .1.1.2.2.2s.2 0 .2-.1c.2-.2.4-.4.6-.7l.2.2c-.2.4-.5.7-.9 1-.2.1-.4.2-.6.2-.1 0-.2 0-.3-.1-.1-.1-.1-.2-.1-.3 0-.3.1-.5.2-.8l1.4-4.8c.1-.2.1-.4.2-.7 0-.1 0-.2-.1-.2-.1-.1-.2-.1-.3-.1h-.3v-.2l1.5-.3zM59.6 86v.2h-2.9l.1-.2c.2 0 .4 0 .6-.1.1 0 .2-.1.3-.2.2-.3.3-.6.3-.9l1.2-4.2c.1-.3.1-.5.2-.8 0-.1 0-.2-.1-.2-.1-.1-.1-.1-.2-.1-.2 0-.4-.1-.5 0l.1-.2h2.7l-.1.2c-.2 0-.3 0-.5.1-.1.1-.3.2-.4.3-.1.3-.2.6-.3.8l-1.2 4.2c-.1.2-.1.5-.2.7 0 .1 0 .2.1.2.1.1.1.1.2.1.2 0 .4.1.6.1zM62.8 81.5l-.7 2.3c.4-.7.9-1.3 1.5-1.9.3-.3.6-.4 1-.4.2 0 .3.1.4.2.1.1.2.3.2.4 0 .3-.1.6-.2.8l-.6 2.2c0 .1-.1.3-.1.4v.1h.1c.1 0 .1 0 .2-.1.2-.2.4-.4.6-.7l.2.1c-.2.4-.5.7-.9 1-.2.1-.3.2-.5.2-.1 0-.2 0-.3-.1-.1-.1-.1-.2-.1-.3 0-.3.1-.6.2-.8l.6-2.1c.1-.2.1-.4.1-.6 0-.1-.1-.2-.2-.2s-.2.1-.3.1c-.3.2-.6.5-.8.8-.3.4-.6.9-.9 1.4-.2.3-.3.7-.4 1l-.2.8h-.8l.9-3.2c.1-.2.1-.5.2-.7 0-.1 0-.1-.1-.2H61v-.2l1.8-.3zM65.9 81.8l1.5-.3c.1.3.2.5.3.8.1.5.2.9.2 1.4 0 .3.1.8.1 1.7.4-.5.7-.8.8-.9l.8-1.1c.1-.1.2-.3.2-.5 0-.1.1-.2.1-.3 0-.1-.1-.2-.2-.3-.1-.1-.2-.2-.2-.4 0-.1 0-.2.1-.3.1-.1.2-.1.3-.1.1 0 .3.1.4.2.1.1.2.3.2.4 0 .2 0 .3-.1.5-.1.3-.3.7-.5.9L68.7 85c-.1.1-.4.5-1.1 1.2h-.2c0-1.4-.1-2.7-.5-4.1-.1-.2-.2-.3-.4-.3-.3.1-.4.1-.6 0zM71.6 84.2v.4c0 .3.1.6.3.8.2.2.5.3.8.3.2 0 .5 0 .7-.1.4-.2.7-.4 1-.7l.1.2c-.6.7-1.4 1.1-2.3 1.2-.4 0-.8-.1-1.1-.5-.2-.3-.4-.6-.4-1 0-.6.2-1.1.5-1.6s.7-.9 1.2-1.2c.4-.3.9-.4 1.5-.4.3 0 .6.1.8.2.2.1.3.3.3.5 0 .3-.1.6-.3.8-.4.4-.8.7-1.3.8-.7.2-1.2.3-1.8.3zm0-.2c.4 0 .8-.1 1.2-.3.4-.1.7-.4 1-.7.2-.2.3-.5.3-.7 0-.1-.1-.3-.2-.3-.1-.1-.2-.1-.4-.1-.4 0-.8.2-1.1.5-.3.4-.6 1-.8 1.6zM78.8 81.5l-.3 1.6h-.2c0-.4-.1-.7-.3-1-.2-.2-.4-.3-.7-.3-.2 0-.4.1-.5.2-.1.1-.2.3-.2.4 0 .1 0 .2.1.3.1.2.2.3.3.4.3.3.6.7.9 1.1.1.2.2.4.2.7 0 .4-.2.7-.4.9-.3.3-.7.4-1.1.4-.3 0-.6-.1-.8-.2-.1 0-.2-.1-.3-.1-.2 0-.3.1-.3.2H75l.3-1.7h.2c0 .4.1.8.3 1.1.2.2.5.3.8.3.2 0 .4-.1.6-.2.1-.1.2-.3.2-.5 0-.1 0-.3-.1-.4-.2-.3-.4-.6-.6-.8-.2-.2-.4-.5-.6-.8-.1 0-.1-.2-.1-.4 0-.3.1-.6.4-.8.3-.3.8-.4 1.2-.3l.3.1c.1.1.2.1.3.1.2 0 .3-.1.4-.2h.2zM81.8 80.2l-.4 1.4h.8l-.1.3h-.8l-.9 3c-.1.2-.1.4-.1.6v.1h.1c.1 0 .2-.1.3-.2.2-.2.4-.4.5-.6l.2.1c-.2.4-.5.7-.9 1-.2.1-.4.2-.6.2-.1 0-.3 0-.4-.1-.1-.1-.1-.2-.1-.4 0-.3.1-.6.2-.8l.9-3h-.8v-.2c.3-.1.7-.2.9-.5.3-.3.6-.7.8-1.1l.4.2zM86.9 83.1c0 .5-.2 1-.4 1.5-.3.5-.7.9-1.1 1.2-.4.3-.9.4-1.4.4-.4 0-.8-.1-1.2-.5-.3-.3-.5-.7-.4-1.2 0-.5.2-1.1.4-1.5.3-.5.7-.9 1.2-1.2.4-.3.9-.4 1.4-.4.4 0 .8.1 1.1.5.2.4.4.8.4 1.2zm-.9-.3c0-.3-.1-.5-.2-.7-.2-.2-.4-.3-.6-.2-.5 0-1 .4-1.4 1.1-.4.6-.6 1.4-.6 2.1 0 .3.1.5.2.8.2.2.4.3.6.3.5 0 .9-.3 1.3-1.1.5-.8.7-1.6.7-2.3zM87.8 81.8l1.8-.3-.8 2.5c.4-.8 1-1.5 1.6-2.1.2-.2.4-.3.7-.3.1 0 .2 0 .3.1.1.1.1.2.1.3 0 .2-.1.5-.2.7-.1.1-.2.2-.3.2-.1 0-.1 0-.2-.1s-.1-.1-.1-.2 0-.1-.1-.1H90.3c-.2.1-.3.2-.4.4-.3.4-.6.8-.9 1.3-.2.2-.3.5-.4.8-.2.4-.2.6-.2.7l-.2.7h-.8l1-3.2c.1-.3.1-.5.2-.8 0-.1 0-.1-.1-.2s-.2-.1-.3-.1h-.4v-.3zM95.2 81.5l-.3 1.6h-.2c0-.4-.1-.7-.3-1-.2-.2-.4-.3-.7-.3-.2 0-.4.1-.5.2-.1.1-.2.3-.2.4 0 .1 0 .2.1.3.1.2.2.3.3.4.3.3.6.7.9 1.1.1.2.2.4.2.7 0 .4-.2.7-.4.9-.3.3-.7.4-1.1.4-.3 0-.6-.1-.8-.2-.1 0-.2-.1-.3-.1-.2 0-.3.1-.3.2h-.2l.3-1.7h.2c0 .4.1.8.3 1.1.2.2.5.3.8.3.2 0 .4-.1.6-.2.1-.1.2-.3.2-.5 0-.1 0-.3-.1-.4-.2-.3-.4-.6-.6-.8-.2-.2-.4-.5-.6-.8-.1-.2-.1-.4-.1-.5 0-.3.1-.6.4-.8.3-.2.6-.4.9-.3h.3l.3.1c.1 0 .2.1.3.1.2 0 .3-.1.4-.2h.2z"/></svg>