<?xml version="1.0" encoding="utf-8"?>
<!-- Generator: Adobe Illustrator 25.3.1, SVG Export Plug-In . SVG Version: 6.00 Build 0)  -->
<svg version="1.1" id="bdbb9e96-7dd2-4000-9304-0bf8a661aad9"
	 xmlns="http://www.w3.org/2000/svg" xmlns:xlink="http://www.w3.org/1999/xlink" x="0px" y="0px" viewBox="0 0 121.9 121.9"
	 style="enable-background:new 0 0 121.9 121.9;background:#FFF" xml:space="preserve">
<style type="text/css">
	.st0{fill:#222221;}
	.st1{fill:#272425;}
</style>
<polygon class="st0" points="93.4,49.9 93,51 90.7,51 90,52.5 92.2,52.5 91.8,53.6 89.6,53.6 88.6,56.1 86.5,56.1 88.9,49.9 "/>
<path class="st0" d="M98.5,49.8c1.7,0,2.9,0.9,2.1,3.1c-0.7,2-2.6,3.3-4.7,3.3c-2.2,0-2.8-1.3-2.1-3.2
	C94.6,51.1,96.4,49.8,98.5,49.8 M96.3,55.2c0.4,0,1.1-0.2,1.8-2.2c0.7-1.8,0.6-2.2,0-2.2s-1.1,0.4-1.9,2.3
	C95.7,54.4,95.6,55.2,96.3,55.2"/>
<path class="st0" d="M106.2,49.9c0.7-0.1,1.4,0,2,0.2c0.5,0.1,0.8,0.7,0.6,1.1c0,0.1,0,0.1-0.1,0.2c-0.4,0.8-1.2,1.4-2.1,1.6l0.9,3
	h-2.4l-0.5-2.5h-0.2l-1,2.5h-2.1l2.4-6.2H106.2z M105.6,50.9l-0.7,1.8h0.2c0.6,0.1,1.2-0.3,1.3-0.9c0.3-0.7,0.1-0.9-0.6-0.9H105.6z"
	/>
<path class="st0" d="M113.7,49.9c0.9-0.1,1.9,0.1,2.7,0.6c0.7,0.7,0.4,1.8,0.2,2.3c-0.5,1.4-1.6,2.5-3,3c-0.8,0.2-1.6,0.3-2.4,0.3
	h-2l2.4-6.2L113.7,49.9z M113.3,50.9l-1.7,4.2h0.2c0.5,0,1.4,0.2,2.4-2.2c0.8-2,0.1-2-0.7-2L113.3,50.9z"/>
<polygon class="st0" points="37.6,49.9 35.2,56.1 33,56.1 35.4,49.9 "/>
<polygon class="st0" points="42.6,49.9 40.6,55 42.9,55 42.5,56.1 38,56.1 40.4,49.9 "/>
<polygon class="st0" points="48.6,49.9 46.6,55 48.9,55 48.5,56.1 44,56.1 46.4,49.9 "/>
<polygon class="st0" points="55.1,49.9 52.7,56.1 50.5,56.1 52.9,49.9 "/>
<polygon class="st0" points="62.5,49.9 62.1,51 59.7,51 59.2,52.3 61.3,52.3 60.9,53.4 58.8,53.4 58.1,55 60.5,55 60.1,56.1 
	55.5,56.1 57.9,49.9 "/>
<path class="st0" d="M73.2,51.1c-0.3-0.1-0.7-0.2-1.1-0.2c-1.6,0-2.4,1.6-2.6,2.2c-0.3,0.8-0.6,1.7,0.1,2c0.2,0.1,0.4,0.1,0.7,0.1
	l0.6-1.5h-0.8l0.4-1h2.8l-1.2,2.9c-0.8,0.3-1.7,0.5-2.5,0.5c-2.3,0-3.2-1.3-2.5-3.1c0.9-2,2.9-3.3,5.1-3.2c0.6,0,1.2,0.1,1.8,0.3
	L73.2,51.1z"/>
<polygon class="st0" points="79.3,49.9 76.9,56.1 74.7,56.1 77.1,49.9 "/>
<polygon class="st0" points="86.7,49.9 86.3,51 83.9,51 83.3,52.5 85.5,52.5 85,53.6 82.9,53.6 81.9,56.1 79.7,56.1 82.2,49.9 "/>
<path class="st0" d="M22.6,49.9c0.6,0,1.2,0.1,1.7,0.2c0.4,0.1,0.7,0.5,0.5,1c0,0.1,0,0.1-0.1,0.2c-0.4,0.8-1.2,1.4-2.2,1.5
	c0.4,0,0.7,0.2,1,0.3c0.4,0.3,0.5,0.8,0.3,1.2c-0.4,0.8-1.2,1.4-2.1,1.6c-0.7,0.2-1.4,0.2-2.2,0.2h-2.2l2.4-6.2H22.6z M21.2,52.4
	c0.2,0,0.5,0,0.7-0.1c0.3-0.1,0.5-0.4,0.6-0.7c0.1-0.3,0.1-0.5-0.1-0.6c-0.2-0.1-0.4-0.1-0.7-0.1h-0.3l-0.6,1.5H21.2z M20.2,55.1
	c0.3,0,0.6,0,0.8-0.1c0.3-0.2,0.6-0.5,0.7-0.8c0.2-0.4,0.1-0.6-0.1-0.7c-0.2-0.1-0.5-0.1-0.8-0.1h-0.3l-0.7,1.8H20.2z"/>
<path class="st0" d="M30.9,49.9l0.4,6.2H29v-1.2h-2l-1,1.2h-1.6l5.2-6.2H30.9z M27.7,53.9H29v-1.7L27.7,53.9z"/>
<path class="st0" d="M0,52.5c0-9.4,27.5-16.9,61.5-16.9c29.9,0,54.8,5.9,60.4,13.7c-6.3-6.2-28.4-10.7-54.7-10.7
	C36,38.6,10.7,45,10.7,52.9S36,67.2,67.2,67.2c23,0,42.9-3.5,51.7-8.5c-8.9,6.3-31.2,10.8-57.3,10.8C27.5,69.5,0,61.9,0,52.5"/>
<path class="st1" d="M32.4,79l-0.5,5.8c0,0.3,0,0.5,0,0.5c0,0.1,0,0.2,0.1,0.3c0.1,0.1,0.2,0.2,0.3,0.2c0.2,0.1,0.4,0.1,0.6,0.1
	l-0.1,0.2h-2.7L30,86h0.1c0.2,0,0.4,0,0.5-0.2c0.1-0.1,0.2-0.2,0.2-0.3c0.1-0.2,0.1-0.5,0.1-0.8l0.1-0.9h-2l-0.7,1
	c-0.1,0.1-0.2,0.3-0.3,0.5c0,0.1,0,0.2,0,0.3c0,0.1,0.1,0.2,0.1,0.3c0.1,0.1,0.3,0.1,0.4,0.1l-0.1,0.2h-2.1l0-0.2
	c0.2,0,0.5-0.1,0.7-0.3c0.3-0.3,0.6-0.6,0.9-1l4.1-5.7L32.4,79z M31.4,80.8l-2,2.7h1.7L31.4,80.8z"/>
<path class="st1" d="M37.4,85c-0.3,0.4-0.7,0.7-1.1,0.9c-0.3,0.2-0.7,0.3-1.1,0.3c-0.4,0-0.8-0.1-1.1-0.4c-0.3-0.3-0.4-0.7-0.4-1.1
	c0-0.5,0.2-1.1,0.4-1.5c0.3-0.5,0.7-0.9,1.2-1.2c0.4-0.3,0.9-0.5,1.5-0.5c0.3,0,0.6,0.1,0.8,0.2c0.2,0.1,0.3,0.3,0.3,0.6
	c0,0.2-0.1,0.4-0.2,0.5C37.6,83,37.4,83,37.3,83c-0.1,0-0.2,0-0.3-0.1c-0.1-0.1-0.1-0.2-0.1-0.3c0-0.1,0-0.1,0-0.2
	c0-0.1,0.1-0.1,0.2-0.2c0.1,0,0.1-0.1,0.2-0.2c0,0,0-0.1,0-0.1c0-0.1,0-0.1-0.1-0.2c-0.1-0.1-0.3-0.1-0.4-0.1c-0.4,0-0.7,0.1-1,0.4
	c-0.4,0.3-0.6,0.6-0.8,1c-0.3,0.5-0.4,1-0.4,1.6c0,0.3,0.1,0.6,0.3,0.8c0.2,0.2,0.5,0.3,0.8,0.3c0.3,0,0.5-0.1,0.8-0.2
	c0.3-0.2,0.6-0.4,0.9-0.7L37.4,85z"/>
<path class="st1" d="M40.8,80.2l-0.4,1.4h0.8l-0.1,0.3h-0.8l-0.9,3c-0.1,0.2-0.1,0.4-0.2,0.6c0,0,0,0.1,0,0.1c0,0,0.1,0,0.1,0
	c0.1,0,0.2-0.1,0.3-0.2c0.2-0.2,0.4-0.4,0.5-0.6l0.2,0.1c-0.2,0.4-0.5,0.7-0.9,1c-0.2,0.1-0.4,0.2-0.6,0.2c-0.1,0-0.3,0-0.4-0.1
	c-0.1-0.1-0.2-0.2-0.2-0.4c0-0.3,0.1-0.6,0.2-0.8l0.8-3h-0.8v-0.2c0.3-0.1,0.7-0.2,0.9-0.5c0.3-0.3,0.6-0.7,0.8-1.1L40.8,80.2z"/>
<path class="st1" d="M45.9,81.6L45,84.7c-0.1,0.3-0.2,0.6-0.2,0.9c0,0,0,0.1,0,0.1c0,0,0.1,0,0.1,0c0.1,0,0.1,0,0.2-0.1
	c0.2-0.2,0.4-0.4,0.5-0.6l0.2,0.1c-0.2,0.4-0.5,0.7-0.8,0.9c-0.2,0.1-0.3,0.2-0.5,0.2c-0.1,0-0.2,0-0.3-0.1C44,86.1,44,86,44,85.9
	c0-0.2,0-0.3,0.1-0.5c0.1-0.2,0.2-0.8,0.5-1.6c-0.4,0.7-0.9,1.4-1.5,2c-0.3,0.3-0.7,0.5-1.1,0.5c-0.1,0-0.3-0.1-0.4-0.2
	c-0.1-0.1-0.2-0.3-0.2-0.4c0-0.4,0.1-0.8,0.2-1.2l0.5-1.6c0.1-0.2,0.1-0.5,0.2-0.7c0,0,0-0.1,0-0.1c0,0-0.1,0-0.1,0
	c-0.1,0-0.2,0-0.2,0.1c-0.2,0.2-0.3,0.4-0.5,0.6l-0.2-0.2c0.2-0.3,0.5-0.6,0.8-0.9c0.2-0.1,0.4-0.2,0.6-0.2c0.1,0,0.2,0,0.3,0.1
	c0.1,0.1,0.1,0.2,0.1,0.3c0,0.3-0.1,0.7-0.2,1l-0.5,1.7c-0.1,0.3-0.2,0.6-0.2,0.8c0,0.1,0,0.1,0.1,0.2c0,0,0.1,0.1,0.2,0.1
	c0.2,0,0.3-0.1,0.4-0.2c0.3-0.2,0.5-0.5,0.7-0.8c0.3-0.3,0.5-0.7,0.8-1.1c0.3-0.5,0.5-1.1,0.6-1.6l0.1-0.4L45.9,81.6z"/>
<path class="st1" d="M51.1,81.5l-1,3.5L50,85.5c0,0,0,0.1,0,0.2c0,0,0,0.1,0,0.2c0,0,0.1,0,0.1,0c0.1,0,0.1,0,0.2-0.1
	c0.2-0.2,0.4-0.4,0.5-0.6l0.2,0.1c-0.2,0.3-0.4,0.6-0.7,0.8c-0.2,0.2-0.4,0.3-0.7,0.3c-0.1,0-0.2,0-0.3-0.1
	c-0.1-0.1-0.1-0.2-0.1-0.3c0-0.2,0-0.4,0.1-0.7l0.1-0.4c-0.3,0.5-0.7,0.9-1.2,1.2c-0.2,0.2-0.5,0.2-0.8,0.2c-0.3,0-0.5-0.1-0.7-0.3
	c-0.2-0.2-0.3-0.5-0.3-0.8c0-0.6,0.2-1.2,0.5-1.7c0.3-0.6,0.7-1.1,1.2-1.4c0.3-0.3,0.7-0.4,1.1-0.4c0.2,0,0.4,0.1,0.5,0.2
	c0.2,0.1,0.3,0.3,0.3,0.5l0.2-0.6L51.1,81.5z M49.3,81.8c-0.3,0-0.5,0.1-0.7,0.3c-0.4,0.4-0.7,0.8-0.9,1.3c-0.3,0.5-0.4,1-0.4,1.5
	c0,0.2,0,0.4,0.2,0.6c0.1,0.1,0.2,0.2,0.4,0.2c0.4,0,0.8-0.3,1.2-0.8c0.5-0.6,0.8-1.4,0.9-2.2c0-0.2,0-0.4-0.2-0.6
	C49.6,81.8,49.5,81.8,49.3,81.8z"/>
<path class="st1" d="M54.6,78.9L52.8,85c-0.1,0.2-0.1,0.4-0.1,0.6c0,0.1,0.1,0.2,0.2,0.2c0,0,0,0,0,0c0.1,0,0.2,0,0.2-0.1
	c0.2-0.2,0.4-0.4,0.6-0.7l0.2,0.2c-0.2,0.4-0.5,0.7-0.9,1c-0.2,0.1-0.4,0.2-0.6,0.2c-0.1,0-0.2,0-0.3-0.1c-0.1-0.1-0.1-0.2-0.1-0.3
	c0-0.3,0.1-0.5,0.2-0.8l1.4-4.8c0.1-0.2,0.1-0.4,0.2-0.7c0-0.1,0-0.2-0.1-0.2c-0.1-0.1-0.2-0.1-0.3-0.1c-0.1,0-0.2,0-0.3,0v-0.2
	L54.6,78.9z"/>
<path class="st1" d="M59.6,86l0,0.2h-2.9l0.1-0.2c0.2,0,0.4,0,0.6-0.1c0.1,0,0.2-0.1,0.3-0.2c0.2-0.3,0.3-0.6,0.3-0.9l1.2-4.2
	c0.1-0.3,0.1-0.5,0.2-0.8c0-0.1,0-0.2-0.1-0.2c-0.1-0.1-0.1-0.1-0.2-0.1c-0.2,0-0.4-0.1-0.5,0l0.1-0.2h2.7l-0.1,0.2
	c-0.2,0-0.3,0-0.5,0.1c-0.1,0.1-0.3,0.2-0.4,0.3c-0.1,0.3-0.2,0.6-0.3,0.8l-1.2,4.2c-0.1,0.2-0.1,0.5-0.2,0.7c0,0.1,0,0.2,0.1,0.2
	c0.1,0.1,0.1,0.1,0.2,0.1C59.2,85.9,59.4,86,59.6,86z"/>
<path class="st1" d="M62.8,81.5l-0.7,2.3c0.4-0.7,0.9-1.3,1.5-1.9c0.3-0.3,0.6-0.4,1-0.4c0.2,0,0.3,0.1,0.4,0.2
	c0.1,0.1,0.2,0.3,0.2,0.4c0,0.3-0.1,0.6-0.2,0.8l-0.6,2.2c0,0.1-0.1,0.3-0.1,0.4c0,0,0,0.1,0,0.1c0,0,0.1,0,0.1,0
	c0.1,0,0.1,0,0.2-0.1c0.2-0.2,0.4-0.4,0.6-0.7l0.2,0.1c-0.2,0.4-0.5,0.7-0.9,1c-0.2,0.1-0.3,0.2-0.5,0.2c-0.1,0-0.2,0-0.3-0.1
	c-0.1-0.1-0.1-0.2-0.1-0.3c0-0.3,0.1-0.6,0.2-0.8l0.6-2.1c0.1-0.2,0.1-0.4,0.1-0.6c0-0.1-0.1-0.2-0.2-0.2c-0.1,0-0.2,0.1-0.3,0.1
	c-0.3,0.2-0.6,0.5-0.8,0.8c-0.3,0.4-0.6,0.9-0.9,1.4c-0.2,0.3-0.3,0.7-0.4,1l-0.2,0.8h-0.8l0.9-3.2c0.1-0.2,0.1-0.5,0.2-0.7
	c0-0.1,0-0.1-0.1-0.2C61.6,82,61.5,82,61.4,82h-0.2H61v-0.2L62.8,81.5z"/>
<path class="st1" d="M65.9,81.8l1.5-0.3c0.1,0.3,0.2,0.5,0.3,0.8c0.1,0.5,0.2,0.9,0.2,1.4c0,0.3,0.1,0.8,0.1,1.7
	c0.4-0.5,0.7-0.8,0.8-0.9l0.8-1.1c0.1-0.1,0.2-0.3,0.2-0.5c0-0.1,0.1-0.2,0.1-0.3c0-0.1-0.1-0.2-0.2-0.3c-0.1-0.1-0.2-0.2-0.2-0.4
	c0-0.1,0-0.2,0.1-0.3c0.1-0.1,0.2-0.1,0.3-0.1c0.1,0,0.3,0.1,0.4,0.2c0.1,0.1,0.2,0.3,0.2,0.4c0,0.2,0,0.3-0.1,0.5
	c-0.1,0.3-0.3,0.7-0.5,0.9c-0.4,0.5-0.8,1-1.2,1.5c-0.1,0.1-0.4,0.5-1.1,1.2h-0.2c0-1.4-0.1-2.7-0.5-4.1c-0.1-0.2-0.2-0.3-0.4-0.3
	C66.2,81.9,66.1,81.9,65.9,81.8L65.9,81.8z"/>
<path class="st1" d="M71.6,84.2c0,0.1,0,0.3,0,0.4c0,0.3,0.1,0.6,0.3,0.8c0.2,0.2,0.5,0.3,0.8,0.3c0.2,0,0.5,0,0.7-0.1
	c0.4-0.2,0.7-0.4,1-0.7l0.1,0.2c-0.6,0.7-1.4,1.1-2.3,1.2c-0.4,0-0.8-0.1-1.1-0.5c-0.2-0.3-0.4-0.6-0.4-1c0-0.6,0.2-1.1,0.5-1.6
	c0.3-0.5,0.7-0.9,1.2-1.2c0.4-0.3,0.9-0.4,1.5-0.4c0.3,0,0.6,0.1,0.8,0.2c0.2,0.1,0.3,0.3,0.3,0.5c0,0.3-0.1,0.6-0.3,0.8
	c-0.4,0.4-0.8,0.7-1.3,0.8C72.7,84.1,72.2,84.2,71.6,84.2z M71.6,84c0.4,0,0.8-0.1,1.2-0.3c0.4-0.1,0.7-0.4,1-0.7
	c0.2-0.2,0.3-0.5,0.3-0.7c0-0.1-0.1-0.3-0.2-0.3c-0.1-0.1-0.2-0.1-0.4-0.1c-0.4,0-0.8,0.2-1.1,0.5C72.1,82.8,71.8,83.4,71.6,84
	L71.6,84z"/>
<path class="st1" d="M78.8,81.5l-0.3,1.6h-0.2c0-0.4-0.1-0.7-0.3-1c-0.2-0.2-0.4-0.3-0.7-0.3c-0.2,0-0.4,0.1-0.5,0.2
	c-0.1,0.1-0.2,0.3-0.2,0.4c0,0.1,0,0.2,0.1,0.3c0.1,0.2,0.2,0.3,0.3,0.4c0.3,0.3,0.6,0.7,0.9,1.1c0.1,0.2,0.2,0.4,0.2,0.7
	c0,0.4-0.2,0.7-0.4,0.9c-0.3,0.3-0.7,0.4-1.1,0.4c-0.3,0-0.6-0.1-0.8-0.2c-0.1,0-0.2-0.1-0.3-0.1c-0.2,0-0.3,0.1-0.3,0.2h-0.2
	l0.3-1.7h0.2c0,0.4,0.1,0.8,0.3,1.1c0.2,0.2,0.5,0.3,0.8,0.3c0.2,0,0.4-0.1,0.6-0.2c0.1-0.1,0.2-0.3,0.2-0.5c0-0.1,0-0.3-0.1-0.4
	c-0.2-0.3-0.4-0.6-0.6-0.8c-0.2-0.2-0.4-0.5-0.6-0.8C76,83.1,76,82.9,76,82.7c0-0.3,0.1-0.6,0.4-0.8c0.3-0.3,0.8-0.4,1.2-0.3
	l0.3,0.1c0.1,0.1,0.2,0.1,0.3,0.1c0.2,0,0.3-0.1,0.4-0.2H78.8z"/>
<path class="st1" d="M81.8,80.2l-0.4,1.4h0.8l-0.1,0.3h-0.8l-0.9,3c-0.1,0.2-0.1,0.4-0.1,0.6c0,0,0,0.1,0,0.1c0,0,0.1,0,0.1,0
	c0.1,0,0.2-0.1,0.3-0.2c0.2-0.2,0.4-0.4,0.5-0.6l0.2,0.1c-0.2,0.4-0.5,0.7-0.9,1c-0.2,0.1-0.4,0.2-0.6,0.2c-0.1,0-0.3,0-0.4-0.1
	c-0.1-0.1-0.1-0.2-0.1-0.4c0-0.3,0.1-0.6,0.2-0.8l0.9-3h-0.8v-0.2c0.3-0.1,0.7-0.2,0.9-0.5c0.3-0.3,0.6-0.7,0.8-1.1L81.8,80.2z"/>
<path class="st1" d="M86.9,83.1c0,0.5-0.2,1-0.4,1.5c-0.3,0.5-0.7,0.9-1.1,1.2c-0.4,0.3-0.9,0.4-1.4,0.4c-0.4,0-0.8-0.1-1.2-0.5
	c-0.3-0.3-0.5-0.7-0.4-1.2c0-0.5,0.2-1.1,0.4-1.5c0.3-0.5,0.7-0.9,1.2-1.2c0.4-0.3,0.9-0.4,1.4-0.4c0.4,0,0.8,0.1,1.1,0.5
	C86.7,82.3,86.9,82.7,86.9,83.1z M86,82.8c0-0.3-0.1-0.5-0.2-0.7c-0.2-0.2-0.4-0.3-0.6-0.2c-0.5,0-1,0.4-1.4,1.1
	c-0.4,0.6-0.6,1.4-0.6,2.1c0,0.3,0.1,0.5,0.2,0.8c0.2,0.2,0.4,0.3,0.6,0.3c0.5,0,0.9-0.3,1.3-1.1C85.8,84.3,86,83.5,86,82.8z"/>
<path class="st1" d="M87.8,81.8l1.8-0.3L88.8,84c0.4-0.8,1-1.5,1.6-2.1c0.2-0.2,0.4-0.3,0.7-0.3c0.1,0,0.2,0,0.3,0.1
	c0.1,0.1,0.1,0.2,0.1,0.3c0,0.2-0.1,0.5-0.2,0.7c-0.1,0.1-0.2,0.2-0.3,0.2c-0.1,0-0.1,0-0.2-0.1c-0.1-0.1-0.1-0.1-0.1-0.2
	c0-0.1,0-0.1-0.1-0.1c0,0-0.1,0-0.1,0c-0.1,0-0.1,0-0.2,0c-0.2,0.1-0.3,0.2-0.4,0.4c-0.3,0.4-0.6,0.8-0.9,1.3
	c-0.2,0.2-0.3,0.5-0.4,0.8c-0.2,0.4-0.2,0.6-0.2,0.7l-0.2,0.7h-0.8l1-3.2c0.1-0.3,0.1-0.5,0.2-0.8c0-0.1,0-0.1-0.1-0.2
	c-0.1-0.1-0.2-0.1-0.3-0.1h-0.4L87.8,81.8z"/>
<path class="st1" d="M95.2,81.5l-0.3,1.6h-0.2c0-0.4-0.1-0.7-0.3-1c-0.2-0.2-0.4-0.3-0.7-0.3c-0.2,0-0.4,0.1-0.5,0.2
	c-0.1,0.1-0.2,0.3-0.2,0.4c0,0.1,0,0.2,0.1,0.3c0.1,0.2,0.2,0.3,0.3,0.4c0.3,0.3,0.6,0.7,0.9,1.1c0.1,0.2,0.2,0.4,0.2,0.7
	c0,0.4-0.2,0.7-0.4,0.9c-0.3,0.3-0.7,0.4-1.1,0.4c-0.3,0-0.6-0.1-0.8-0.2c-0.1,0-0.2-0.1-0.3-0.1c-0.2,0-0.3,0.1-0.3,0.2h-0.2
	l0.3-1.7h0.2c0,0.4,0.1,0.8,0.3,1.1c0.2,0.2,0.5,0.3,0.8,0.3c0.2,0,0.4-0.1,0.6-0.2c0.1-0.1,0.2-0.3,0.2-0.5c0-0.1,0-0.3-0.1-0.4
	c-0.2-0.3-0.4-0.6-0.6-0.8c-0.2-0.2-0.4-0.5-0.6-0.8c-0.1-0.2-0.1-0.4-0.1-0.5c0-0.3,0.1-0.6,0.4-0.8c0.3-0.2,0.6-0.4,0.9-0.3
	c0.1,0,0.2,0,0.3,0l0.3,0.1c0.1,0,0.2,0.1,0.3,0.1c0.2,0,0.3-0.1,0.4-0.2L95.2,81.5z"/>
</svg>
