<?xml version="1.0" standalone="no"?>
<!DOCTYPE svg PUBLIC "-//W3C//DTD SVG 20010904//EN"
 "http://www.w3.org/TR/2001/REC-SVG-20010904/DTD/svg10.dtd">
<svg version="1.0" xmlns="http://www.w3.org/2000/svg"
 width="188.000000pt" height="190.000000pt" viewBox="0 0 188.000000 190.000000"
 preserveAspectRatio="xMidYMid meet">

<g transform="translate(0.000000,190.000000) scale(0.100000,-0.100000)"
fill="#000000" stroke="none">
<path d="M370 1802 c0 -41 18 -97 90 -278 l90 -226 -30 -35 c-37 -42 -73 -111
-94 -182 -24 -82 -21 -90 20 -50 35 32 36 33 30 9 -4 -14 -11 -50 -17 -81 -13
-67 -80 -159 -140 -189 -30 -16 -41 -29 -50 -62 -7 -24 -25 -53 -41 -66 -20
-17 -28 -32 -28 -55 0 -55 21 -110 54 -143 28 -28 40 -32 109 -39 l79 -7 84
56 c46 31 88 56 93 56 5 0 29 -11 52 -25 122 -70 289 -86 426 -40 42 14 80 22
84 18 4 -4 55 -89 113 -188 74 -126 117 -188 143 -207 20 -16 40 -28 44 -28
23 0 -12 125 -88 320 -50 127 -81 220 -76 226 50 67 86 129 103 179 11 33 24
69 30 80 5 11 14 54 20 95 6 41 15 76 20 78 6 2 7 15 4 28 -5 18 -2 24 10 24
25 0 33 30 31 116 -1 70 -5 87 -30 128 -17 27 -36 59 -43 72 -15 28 -81 75
-137 99 -61 25 -162 31 -208 11 -32 -13 -47 -14 -89 -5 -78 17 -184 7 -252
-24 -31 -15 -55 -31 -52 -35 3 -5 -5 -14 -18 -20 -21 -9 -28 -1 -135 178 -102
170 -130 209 -183 249 -17 12 -18 9 -18 -37z m384 -672 c-3 30 -7 62 -10 71
-4 14 53 99 66 99 7 0 110 -206 110 -219 0 -6 -15 -8 -32 -5 -32 5 -35 2 -82
-77 -26 -44 -52 -77 -56 -72 -7 7 -285 704 -296 743 -3 8 65 -122 151 -290
146 -287 155 -302 149 -250z m331 297 c28 -14 63 -39 80 -57 l30 -31 -35 14
c-19 8 -53 17 -75 20 l-40 7 30 -25 30 -25 -70 6 c-38 3 -94 2 -123 -4 -51 -9
-54 -9 -70 17 -9 14 -18 28 -20 31 -2 3 -20 -15 -41 -39 l-37 -43 -12 27 c-12
25 -10 27 32 46 24 10 58 22 75 25 38 8 40 20 5 28 -58 15 24 36 121 32 51 -2
83 -10 120 -29z m212 18 c28 -8 62 -24 75 -35 l23 -20 -35 14 c-19 7 -56 16
-81 18 l-47 5 24 -35 c13 -19 24 -42 24 -51 0 -10 -7 -4 -19 14 -10 17 -33 43
-50 59 -48 46 -10 59 86 31z m113 -88 c50 -25 94 -90 88 -129 -3 -22 -4 -22
-33 8 -38 40 -98 72 -80 44 3 -5 -2 -10 -13 -10 -16 0 -12 -7 19 -41 33 -36
43 -41 68 -36 26 5 29 3 35 -25 10 -51 8 -55 -24 -50 -17 2 -30 10 -30 18 0
19 -55 18 -74 -2 -22 -22 -20 -41 2 -21 26 24 38 21 61 -12 26 -37 26 -45 0
-31 -11 6 -28 10 -37 8 -13 -3 -8 -9 17 -22 33 -17 33 -18 27 -69 -4 -29 -14
-74 -24 -102 l-17 -50 -3 35 c-5 54 -18 56 -25 3 -8 -67 -32 -141 -61 -188
l-25 -40 -11 29 c-8 21 -8 43 0 78 5 27 10 68 9 91 l-1 42 -13 -48 c-24 -86
-25 -87 -50 -25 -19 46 -21 64 -14 95 15 64 11 101 -11 113 -13 7 -20 21 -20
39 0 16 -6 31 -14 34 -12 5 -12 14 -4 49 6 24 12 44 14 46 6 8 84 -50 84 -63
0 -22 17 -18 23 4 3 12 -4 28 -18 41 -12 12 -31 37 -41 56 -22 40 -15 49 48
59 31 6 38 11 38 30 0 13 -5 36 -10 51 l-11 27 43 -7 c24 -4 63 -17 88 -29z
m-475 -82 c-39 -18 -52 -18 -59 0 -4 12 4 15 42 14 l47 -1 -30 -13z m-366 -96
c-36 -28 -41 -23 -17 17 18 31 22 34 31 19 7 -14 4 -22 -14 -36z m15 -130
c-26 -27 -50 -47 -52 -45 -5 5 34 93 55 125 l16 24 14 -28 c15 -27 14 -29 -33
-76z m350 -15 c9 -8 14 -20 11 -25 -12 -18 -42 -9 -53 16 -10 22 -9 25 8 25
10 0 26 -7 34 -16z m78 -44 c3 -16 3 -30 2 -30 -2 0 -10 14 -19 30 -13 25 -13
30 -1 30 8 0 16 -13 18 -30z m-329 -31 c10 -28 17 -52 15 -53 -2 -2 -12 -8
-23 -14 -18 -10 -18 -11 10 -12 19 0 26 -3 19 -10 -6 -6 -54 -13 -107 -17 -62
-4 -97 -10 -97 -17 0 -7 -13 -17 -30 -23 -16 -6 -30 -8 -30 -4 0 15 89 93 99
87 6 -4 21 11 35 32 23 37 70 82 85 82 3 0 14 -23 24 -51z m197 -6 l21 -47
-53 -53 c-29 -29 -57 -53 -64 -53 -6 0 -16 11 -22 25 -10 21 -6 32 40 100 29
41 53 75 54 75 2 0 12 -21 24 -47z m379 -378 c83 -208 149 -380 148 -381 -1
-1 -71 132 -155 297 -84 164 -155 299 -157 299 -2 0 4 -30 12 -66 l15 -66 -29
-36 c-16 -20 -34 -37 -39 -39 -5 -2 -30 38 -54 88 -36 73 -42 93 -31 97 8 3
32 21 54 41 35 33 37 39 28 64 -16 41 -14 52 16 88 25 29 28 30 35 13 4 -11
75 -190 157 -399z m-289 391 c0 -19 -32 -30 -42 -14 -13 21 -9 28 17 28 15 0
25 -6 25 -14z m19 -77 c-20 -13 -26 -11 -33 8 -5 11 0 22 11 31 15 11 19 10
27 -8 7 -16 6 -24 -5 -31z m35 -25 c6 -16 -9 -44 -24 -44 -14 0 -20 32 -9 46
15 18 25 18 33 -2z m-319 -53 c3 -11 17 -36 30 -55 l24 -36 -74 -55 c-41 -30
-77 -55 -80 -55 -13 0 -56 112 -62 159 l-6 50 54 4 c30 2 66 4 81 5 19 1 29
-4 33 -17z m-201 -70 c3 -22 22 -70 41 -106 25 -48 30 -65 18 -61 -9 4 -66
-17 -134 -49 -66 -30 -121 -55 -123 -55 -5 0 -32 58 -41 88 -6 20 1 26 77 63
46 22 70 37 54 34 -98 -20 -94 -22 -76 32 9 24 24 35 83 60 40 17 77 32 83 32
6 1 14 -17 18 -38z m470 -117 c3 -9 6 -18 6 -20 0 -2 -23 -4 -52 -4 -55 0 -56
8 -5 27 43 15 44 15 51 -3z m39 -80 c10 -19 15 -39 12 -44 -19 -31 -157 -36
-235 -9 l-34 12 62 13 c34 7 86 24 115 38 28 13 55 25 58 25 3 1 13 -15 22
-35z m107 22 c0 -2 -8 -10 -17 -17 -16 -13 -17 -12 -4 4 13 16 21 21 21 13z"/>
</g>
</svg>
