<?xml version="1.0" encoding="UTF-8"?> <svg xmlns="http://www.w3.org/2000/svg" viewBox="0 0 680.69 157.43"><defs><style>.cls-1{fill:#1c304c;}.cls-2{fill:#df4652;}</style></defs><g id="Livello_2" data-name="Livello 2"><g id="Livello_1-2" data-name="Livello 1"><path class="cls-1" d="M419.68,61.88l18.08-10.43c-.39,2.76-.82,5.7-1.28,9,1.46-1.14,2.39-1.89,3.35-2.62,10.36-7.85,21.92-10.47,34.32-6.47S493,64.66,495.13,77a45.51,45.51,0,0,1-24.26,47.92,38.24,38.24,0,0,1-25.78,3.34A26.12,26.12,0,0,1,428.23,117c-.31-.46-.69-.89-1.47-1.9-2.56,14.38-5,28.15-7.5,42.09H402.79C409.05,121.87,419.68,61.88,419.68,61.88Zm11.12,32c0,11.26,7.61,19.21,19.19,19.64,18.58.7,30.39-15,29.18-30.69-.73-9.52-6.71-15.66-16.16-17.28C446.54,62.73,430.8,76.57,430.8,93.88Z"></path><path class="cls-1" d="M580.29,126.91H564.1c.36-2.65.69-5,1.08-7.91-1,.72-1.72,1.12-2.33,1.6-10.35,8.17-22.11,10.58-34.64,7.08-13.41-3.75-20.2-13.74-22-27-2.54-18.54,8.25-42.45,31.5-49.35,7.74-2.3,15.54-2.57,23.27.27a26,26,0,0,1,12.22,9.21c.41.57.84,1.13,1.28,1.68.06.08.22.08.67.23.71-3.54,1.41-7.05,2.17-10.81h16.21C589.08,77,584.68,102,580.29,126.91ZM522.56,93.64c0,11.23,7.13,19.13,18.2,19.85a28.34,28.34,0,0,0,29.83-32.68c-1.13-7.84-6.58-13.23-14.46-15C538.72,62.06,522.53,75.45,522.56,93.64Z"></path><path class="cls-1" d="M604.09,51.87H620.8q6.36,27,12.73,53.92l.85.08q14.25-27,28.54-54.1h17.77a25.66,25.66,0,0,1-1.11,2.7q-21,38.31-42.11,76.59c-4.24,7.69-9.46,14.61-16.75,19.74a35.4,35.4,0,0,1-21.92,6.62c-.57,0-1.13-.14-2.17-.27.9-5,1.75-9.79,2.63-14.71a22.57,22.57,0,0,1,2.53-.36c6.22-.11,11-2.94,14.89-7.6,4.27-5.09,6.13-10,4.07-17.2C615,97.2,610.3,76.83,605.19,56.57,604.82,55.11,604.5,53.63,604.09,51.87Z"></path><path class="cls-1" d="M141.22,94c3.43,20.52,37.28,27.57,53.81,9.58L216.87,116a47.06,47.06,0,0,1-17.41,15.73c-17.66,9-35.83,9.16-54.14,2.31a47.62,47.62,0,0,1-24.65-20.16C109.31,95.12,108.47,75.46,118.2,56c9.33-18.7,25.6-27.82,46.21-29.06C195.9,25,220.93,47.84,222.05,79.25c.17,4.74-.31,9.5-.5,14.72Zm52.63-21.54c-.51-11.74-12.57-21.32-26.08-21.16-14.46.16-26.25,9.81-26.5,21.16Z"></path><path class="cls-1" d="M315.7,49.2,292.52,61.8c-3.52-5.69-7.95-9.46-14.32-10.46a16.45,16.45,0,0,0-11.55,2c-5,3.11-5.22,9-.24,12.15a30.51,30.51,0,0,0,7.27,3.2c5.22,1.67,10.58,2.93,15.78,4.65a105.79,105.79,0,0,1,12,4.83c22.22,10.57,20.42,40.87,3.69,52.1A46.86,46.86,0,0,1,284.35,138c-13,1.56-25.6.62-37.26-6a40.17,40.17,0,0,1-16.89-18.49l23.29-13.12c.79,1.2,1.46,2.09,2,3,5.43,9.49,19.61,13.64,29.33,8.58,6.22-3.24,6.65-9.71.59-13.27-3.1-1.82-6.7-2.86-10.16-4-5.2-1.73-10.52-3.11-15.7-4.91A76.59,76.59,0,0,1,250,85.7c-21.24-10.77-18.25-38.2-4.67-49.14a41.75,41.75,0,0,1,20.28-9c18.54-2.79,34.69,1.51,46.84,16.69C313.54,45.65,314.4,47.22,315.7,49.2Z"></path><path class="cls-1" d="M393.48,111l-4.32,24.53c-.44.37-15.59,3-26.32-.82-11.36-3-17.76-10.64-19.79-21.91A84.4,84.4,0,0,1,341.91,99c-.15-12.27-.06-24.54-.06-36.82v.91H323.5V37h18.2V8.38L369.47,0c0,10.22.1,58.81.1,60.06,0,13.1-.09,26.2,0,39.3.05,8,2.41,10.75,10.48,11.58C384.31,111.38,388.64,111,393.48,111Z"></path><polygon class="cls-2" points="395.27 42.19 380.34 33.57 380.34 50.81 380.34 68.05 395.27 59.43 410.2 50.81 395.27 42.19"></polygon><path class="cls-1" d="M27.14,137.16H0V32.45H27v10.3s2.11-2,2.7-2.59c11.73-12,26.17-14,41.47-9.92C86.18,34.22,94.78,45,98,60a62,62,0,0,1,1.25,12.83c.13,20,.07,40.11.06,60.16v4.22H71.94V80.09c0-1.66,0-3.31,0-5-.43-12.59-7.24-20.4-19.34-21.07-14.18-.78-21.66,6.06-24.37,17.23a45.33,45.33,0,0,0-1,10.35c-.1,16.57-.05,33.15-.05,49.72Z"></path></g></g></svg> 