<svg xmlns="http://www.w3.org/2000/svg" xmlns:xlink="http://www.w3.org/1999/xlink" viewBox="0 0 600 600"><defs><style>.cls-1{fill:#153724;}.cls-2{fill:url(#Dégradé_sans_nom_59);}.cls-3,.cls-4,.cls-5,.cls-6,.cls-7,.cls-8{fill:none;stroke:#153724;stroke-miterlimit:10;}.cls-3{stroke-width:2.94px;}.cls-4{stroke-width:5.88px;}.cls-5{stroke-width:7.06px;}.cls-6{stroke-width:4.12px;}.cls-7{stroke-width:3.53px;}.cls-8{stroke-width:4.71px;}.cls-9{fill:#025a2a;}.cls-10{fill:url(#Dégradé_sans_nom_33);}.cls-11{fill:url(#Dégradé_sans_nom_33-2);}.cls-12{fill:#126132;}.cls-13{fill:url(#Dégradé_sans_nom_33-3);}.cls-14{fill:url(#Dégradé_sans_nom_33-4);}.cls-15{fill:url(#Dégradé_sans_nom_33-5);}.cls-16{fill:url(#Dégradé_sans_nom_33-6);}.cls-17{fill:url(#Dégradé_sans_nom_33-7);}.cls-18{fill:url(#Dégradé_sans_nom_33-8);}.cls-19{fill:url(#Dégradé_sans_nom_33-9);}.cls-20{fill:url(#Dégradé_sans_nom_33-10);}.cls-21{fill:url(#Dégradé_sans_nom_33-11);}.cls-22{fill:url(#Dégradé_sans_nom_33-12);}.cls-23{fill:url(#Dégradé_sans_nom_33-13);}.cls-24{fill:url(#Dégradé_sans_nom_33-14);}.cls-25{fill:url(#Dégradé_sans_nom_33-15);}.cls-26{fill:url(#Dégradé_sans_nom_33-16);}.cls-27{fill:url(#Dégradé_sans_nom_33-17);}.cls-28{fill:url(#Dégradé_sans_nom_33-18);}.cls-29{fill:url(#Dégradé_sans_nom_33-19);}.cls-30{fill:url(#Dégradé_sans_nom_33-20);}.cls-31{fill:url(#Dégradé_sans_nom_33-21);}.cls-32{fill:url(#Dégradé_sans_nom_33-22);}</style><radialGradient id="Dégradé_sans_nom_59" cx="303.74" cy="292.82" r="280.41" gradientUnits="userSpaceOnUse"><stop offset="0.17" stop-color="#41ab34"/><stop offset="0.27" stop-color="#46ad34"/><stop offset="0.39" stop-color="#55b236"/><stop offset="0.53" stop-color="#6ebb38"/><stop offset="0.67" stop-color="#91c73b"/><stop offset="0.82" stop-color="#bed73f"/><stop offset="0.98" stop-color="#f4e944"/><stop offset="1" stop-color="#fcec45"/></radialGradient><linearGradient id="Dégradé_sans_nom_33" x1="1.18" y1="294.33" x2="19.86" y2="294.33" gradientUnits="userSpaceOnUse"><stop offset="0.13" stop-color="#fcec45"/><stop offset="0.83" stop-color="#41ab34"/></linearGradient><linearGradient id="Dégradé_sans_nom_33-2" x1="8.95" y1="293.32" x2="46.97" y2="293.32" xlink:href="#Dégradé_sans_nom_33"/><linearGradient id="Dégradé_sans_nom_33-3" x1="-107.11" y1="293.34" x2="-60.81" y2="293.34" xlink:href="#Dégradé_sans_nom_33"/><linearGradient id="Dégradé_sans_nom_33-4" x1="141.9" y1="520.24" x2="151.45" y2="520.24" xlink:href="#Dégradé_sans_nom_33"/><linearGradient id="Dégradé_sans_nom_33-5" x1="-73.19" y1="284.06" x2="-61.23" y2="284.06" xlink:href="#Dégradé_sans_nom_33"/><linearGradient id="Dégradé_sans_nom_33-6" x1="-33.53" y1="320.06" x2="-24.02" y2="320.06" xlink:href="#Dégradé_sans_nom_33"/><linearGradient id="Dégradé_sans_nom_33-7" x1="-33.55" y1="275.46" x2="-24.02" y2="275.46" xlink:href="#Dégradé_sans_nom_33"/><linearGradient id="Dégradé_sans_nom_33-8" x1="-33.54" y1="289.85" x2="-24.02" y2="289.85" xlink:href="#Dégradé_sans_nom_33"/><linearGradient id="Dégradé_sans_nom_33-9" x1="-33.53" y1="304.83" x2="-24.02" y2="304.83" xlink:href="#Dégradé_sans_nom_33"/><linearGradient id="Dégradé_sans_nom_33-10" x1="-33.53" y1="307.07" x2="-24.02" y2="307.07" xlink:href="#Dégradé_sans_nom_33"/><linearGradient id="Dégradé_sans_nom_33-11" x1="-33.53" y1="309.43" x2="-24.02" y2="309.43" xlink:href="#Dégradé_sans_nom_33"/><linearGradient id="Dégradé_sans_nom_33-12" x1="-55.06" y1="265.76" x2="-2.51" y2="265.76" xlink:href="#Dégradé_sans_nom_33"/><linearGradient id="Dégradé_sans_nom_33-13" x1="58.42" y1="293.09" x2="104.71" y2="293.09" xlink:href="#Dégradé_sans_nom_33"/><linearGradient id="Dégradé_sans_nom_33-14" x1="342.88" y1="537.31" x2="353.71" y2="537.31" xlink:href="#Dégradé_sans_nom_33"/><linearGradient id="Dégradé_sans_nom_33-15" x1="94.77" y1="277.2" x2="104.71" y2="277.2" xlink:href="#Dégradé_sans_nom_33"/><linearGradient id="Dégradé_sans_nom_33-16" x1="139.82" y1="297.27" x2="139.82" y2="297.27" xlink:href="#Dégradé_sans_nom_33"/><linearGradient id="Dégradé_sans_nom_33-17" x1="388.82" y1="547.28" x2="398.78" y2="547.28" xlink:href="#Dégradé_sans_nom_33"/><linearGradient id="Dégradé_sans_nom_33-18" x1="111.1" y1="313" x2="157.16" y2="313" xlink:href="#Dégradé_sans_nom_33"/><linearGradient id="Dégradé_sans_nom_33-19" x1="368.67" y1="545.08" x2="377.69" y2="545.08" xlink:href="#Dégradé_sans_nom_33"/><linearGradient id="Dégradé_sans_nom_33-20" x1="120.83" y1="276.88" x2="148.92" y2="276.88" xlink:href="#Dégradé_sans_nom_33"/><linearGradient id="Dégradé_sans_nom_33-21" x1="163.79" y1="293.32" x2="191.7" y2="293.32" xlink:href="#Dégradé_sans_nom_33"/><linearGradient id="Dégradé_sans_nom_33-22" x1="171" y1="276.97" x2="210.09" y2="276.97" xlink:href="#Dégradé_sans_nom_33"/></defs><title>LOGO 02</title><g id="Calque_4" data-name="Calque 4"><rect class="cls-1" width="600" height="600"/></g><g id="Calque_1" data-name="Calque 1"><circle class="cls-2" cx="303.74" cy="292.82" r="280.41"/><polyline class="cls-3" points="180.71 255.62 198.13 232.43 198.13 204.21"/><polyline class="cls-3" points="146.18 209.08 124.29 192.84 124.29 164.17"/><polyline class="cls-3" points="240 209.85 211.87 180.92 182.58 180.92 158.63 156.87 158.63 142.71"/><polyline class="cls-3" points="258.33 162.27 258.33 125.11 283.33 101.32 283.33 86.84"/><polyline class="cls-3" points="244.07 127.22 225.92 110.31 225.92 96.68"/><line class="cls-3" x1="225.92" y1="168.79" x2="225.92" y2="140.76"/><polyline class="cls-3" points="275.93 209.85 299.39 186.63 299.39 151.37"/><polyline class="cls-3" points="275.93 196.89 290.73 182.66 290.73 159.25"/><polyline class="cls-3" points="333.37 162.27 318.95 149.11 318.95 130.42"/><polyline class="cls-3" points="333.37 184.53 367.83 156.96 367.83 127.35"/><polyline class="cls-3" points="334.49 197.94 377.61 163.92 377.61 139.64"/><line class="cls-3" x1="436.72" y1="183.92" x2="470.91" y2="149.11"/><polyline class="cls-4" points="358.84 209.85 396.9 209.85 420.52 183.92 465.19 183.92"/><polyline class="cls-4" points="475.04 332.47 475.04 277.36 505.52 239.73 505.52 207.96"/><polyline class="cls-3" points="419.23 353.07 419.23 297.47 452.2 264.94 452.2 227.08"/><polyline class="cls-4" points="303.31 324.74 324.35 305.42 324.35 244.88 406.78 161.17 406.78 103.08"/><polyline class="cls-4" points="303.36 382.26 396.9 287.39 396.9 255.62"/><polyline class="cls-5" points="317.48 503.57 317.48 436.36 378.87 374.54 397.76 374.54 439.84 332.47 495.22 332.47 547.17 280.09"/><polyline class="cls-5" points="303.31 523.68 303.31 287.58 240 223.84 240 183.81 198.39 141.15 198.39 104.8"/><polyline class="cls-4" points="199.66 348.97 201.36 271.03 146.18 229.86 146.18 180.92"/><polyline class="cls-3" points="302.15 359.88 273.82 334.46 256.52 318.94 256.52 285.67"/><line class="cls-3" x1="278.41" y1="338.58" x2="278.41" y2="311.43"/><polyline class="cls-3" points="88.58 250.82 89.51 229.86 79.21 216.98 79.21 200.96"/><line class="cls-3" x1="197.67" y1="224.78" x2="181.1" y2="211.61"/><circle class="cls-3" cx="256.52" cy="281.94" r="3.73"/><circle class="cls-3" cx="278.41" cy="308.28" r="3.73"/><circle class="cls-3" cx="158.63" cy="138.49" r="3.73"/><circle class="cls-3" cx="178.68" cy="209.05" r="3.73"/><circle class="cls-3" cx="198.13" cy="200.96" r="3.73"/><polyline class="cls-3" points="97.67 286.72 124.29 264.94 124.29 235.01"/><polyline class="cls-4" points="274.68 258.76 274.68 180.92 244.07 149.11 244.07 93.2"/><polyline class="cls-4" points="333.37 235.01 333.37 145.38 347.68 131.69 347.68 107.07"/><circle class="cls-3" cx="452.2" cy="223.92" r="3.73"/><circle class="cls-3" cx="367.83" cy="123.96" r="3.73"/><circle class="cls-3" cx="377.61" cy="136.51" r="3.73"/><circle class="cls-6" cx="347.68" cy="100.46" r="8.12"/><circle class="cls-6" cx="406.78" cy="96.17" r="8.12"/><circle class="cls-6" cx="505.52" cy="201.46" r="8.12"/><circle class="cls-6" cx="551.42" cy="273.93" r="8.12"/><circle class="cls-6" cx="198.39" cy="96.68" r="8.12"/><circle class="cls-3" cx="124.29" cy="160.55" r="3.73"/><circle class="cls-7" cx="146.01" cy="174.59" r="5.53"/><circle class="cls-7" cx="396.9" cy="250.82" r="5.53"/><circle class="cls-3" cx="225.92" cy="136.78" r="3.73"/><circle class="cls-3" cx="225.92" cy="93.2" r="3.73"/><circle class="cls-3" cx="299.39" cy="147.99" r="3.73"/><circle class="cls-3" cx="290.73" cy="155.98" r="3.73"/><circle class="cls-7" cx="244.07" cy="88.69" r="5.53"/><circle class="cls-3" cx="283.33" cy="83.81" r="3.73"/><circle class="cls-3" cx="318.95" cy="127.35" r="3.73"/><circle class="cls-3" cx="472.96" cy="146.35" r="3.73"/><circle class="cls-7" cx="470.57" cy="183.4" r="5.53"/><polyline class="cls-3" points="97.24 305.64 97.24 259.48 86.94 249.18 72.77 235.01"/><polyline class="cls-5" points="289.03 515.45 289.03 410.1 246.45 367.52 218.21 367.52 175.19 324.5 114.23 324.5 65.83 275.64"/><circle class="cls-3" cx="79.21" cy="197.73" r="3.73"/><circle class="cls-3" cx="70.91" cy="232.67" r="3.73"/><circle class="cls-3" cx="124.29" cy="232.08" r="3.73"/><circle class="cls-8" cx="61.02" cy="268.99" r="8.12"/><line class="cls-3" x1="167.65" y1="165.93" x2="167.65" y2="152.58"/><circle class="cls-3" cx="167.65" cy="149.11" r="3.73"/></g><g id="Calque_2" data-name="Calque 2"><rect class="cls-1" x="58.26" y="485.23" width="501.29" height="114.77"/><path class="cls-9" d="M-64.63,196.59" transform="translate(249 249)"/><path class="cls-9" d="M-61.56,196.59" transform="translate(249 249)"/></g><g id="Calque_3" data-name="Calque 3"><path class="cls-10" d="M9.52,314.87l-.32-.56c-2.65-5.12-6.52-12.73-7.36-15-.93-2.53-.61-4.67-.61-7.53a15.83,15.83,0,0,1,2.17-7.7c1-1.8,2.13-4.17,3.37-6.7.3-.6.59-1.2.89-1.81l.88-1.8,5.21,9.93-.22.39c-2,3.59-3.52,5.74-3.58,7.93a8.73,8.73,0,0,0,.29,2.88c2.36,6.45,6.83,14.93,9.62,20" transform="translate(249 249)"/><path class="cls-11" d="M9,272.85q2.78-5.31,4.51-8.38c1.06-1.89,1.92-2.84,2.59-2.84H47v1.26a4,4,0,0,1-4.15,3.84H24.24c-.67,0-1.45.67-2.34,2-.28.45-.81,1.31-1.59,2.6L19.48,273l-3.69,6.89-1.58,3m32.75,43a3.7,3.7,0,0,1-3.67,3.35H23.57q-2.09,0-5.93-2.59c-2.57-1.72-5.18-5.85-5.18-5.85a4.42,4.42,0,0,0-.26-.58H42.87a3.83,3.83,0,0,1,4.09,3.6Zm-.12-65.17H16.63l1.84-1.08H46.06C46.36,259.63,46.84,260.32,46.84,260.71Zm-1.35-2.09H19.73a10.9,10.9,0,0,1,3.66-1.22h19.3C44.89,257.4,45.49,258.62,45.49,258.62Z" transform="translate(249 249)"/><polygon class="cls-12" points="271.42 568.21 260.75 568.21 260.04 566.95 270.54 566.95 271.42 568.21"/><polygon class="cls-12" points="270.22 566.2 259.7 566.2 259.09 564.95 269.43 564.95 270.22 566.2"/><path class="cls-13" d="M-99.5,257.45h22.4q4.92,0,9.86,4.31t6,9.23v.84h-9.94a8.4,8.4,0,0,0-2.92-3.51,7.06,7.06,0,0,0-4.1-1.84H-97.55v3.34h-9.55v-6.43Zm2,16.3h-9.55v-1.09h9.55Zm0,2h-9.55v-1.17h9.55Zm0,2h-9.55v-1.09h9.55Zm0,2h-9.55v-1h9.55Zm0,2h-9.55v-1.09h9.55Zm0,2h-9.55v-1.09h9.55Zm0,2h-9.55v-1.09h9.55Zm-9.55,8.36v-1.92h.83c1.78,1.78,4.77,4.73,8.72,8.63l0,9.16V320h9.86q3.85,3.93,8.19,8h7.19a22.92,22.92,0,0,1-4.76,1.25h-30v-25.4m0-42.42v-2a2.21,2.21,0,0,1,1.81-1.93h3.43ZM-60.81,306v1.93m-.42.81v1.19h-2.5a53.72,53.72,0,0,1-5-4.93c-3.17-3.29-5.54-5.37-7.1-6.27-1.11-.61-3-.89-5.77-.83h-2.92l-10.79,0-9.52-9.16-2.25,0v-2.06h9.55v2.09H-70l3.78,3.66-.58.66a9,9,0,0,1,4,3.77,11.53,11.53,0,0,1,1.64,6.58m-3.09-13.09-1.17,1.23-4-3.67h-6.24l2-1.31h5.23Zm-6.77,36.94h-7.69q-.82,0-7.68-7.27h8.27a10.16,10.16,0,0,0,2.09-.67s3.92-2.55,4.34-2.92h10.55c0,.56-1.32,3.85-4.38,7.23C-68.12,326.37-70.59,327.23-71.09,327.23Zm9.86-16.13,0,2h-9.3c.22-.83-.06-8.68-.06-8.68l6.67,6.6Zm0-37.35h-9.92v-1.26h9.92Zm0,2h-9.92v-1.17h9.92Zm0,4.68c-.83-.89-2.59-2.67-2.59-2.67h-7.33v-1.17h9.92Z" transform="translate(249 249)"/><rect class="cls-14" x="141.9" y="519.66" width="9.55" height="1.17"/><path class="cls-15" d="M-71.15,278.67h6.83l3.09,3.32a20.57,20.57,0,0,1-.9,4.63,14,14,0,0,1-1.61,2.83l-4.17-3.79-5.28,0a11.33,11.33,0,0,0,1.91-3.42A26.16,26.16,0,0,0-71.15,278.67Z" transform="translate(249 249)"/><path class="cls-16" d="M-24,311.14v14.43c0,1-1.61,3.35-4.63,3.41s-4.9-2.16-4.88-3.47V311.14Z" transform="translate(249 249)"/><path class="cls-17" d="M-24,282.43v-5.84l-9.53-8.09s0,4.21,0,6.06Z" transform="translate(249 249)"/><path class="cls-18" d="M-24,284.48v18.63h-9.51V276.59Z" transform="translate(249 249)"/><path class="cls-19" d="M-33.53,304.23v1.2H-24c0-.43,0-.77,0-1.2Z" transform="translate(249 249)"/><path class="cls-20" d="M-33.53,306.49v1.16H-24v-1.16Z" transform="translate(249 249)"/><path class="cls-21" d="M-33.53,308.79v1.28H-24v-1.28Z" transform="translate(249 249)"/><path class="cls-22" d="M-24,274.25v-7.86H-6.21s3.7-.16,3.7-4.63c0-4.84-4.35-4.48-4.35-4.48H-51.53s-3.53,0-3.53,4.48,3.53,4.47,3.53,4.47h18Z" transform="translate(249 249)"/><path class="cls-23" d="M101,297.15a13.06,13.06,0,0,1-9.36,4.34H68V307H60.5c-.27,0-.69-.32-1.25-1a2.77,2.77,0,0,1-.83-1.38V257.2h3.25v30.25c0,.45,1.42,2.06,4.27,4.85a64.15,64.15,0,0,0,4.8,4.47,3.43,3.43,0,0,0,2,.54ZM67.86,309H59.33c-.44-.44-.75-.67-.91-.67v-1.92a13.82,13.82,0,0,0,1.92,1.51h7.52Zm0,2H58.42v-1.76a2.41,2.41,0,0,0,1,.67h8.44Zm0,2H58.42v-1.08h9.44Zm0,2H58.42v-1.09h9.44Zm0,1.92H58.42v-1h9.44Zm0,1-.17,1.17H58.42V318Zm0,5.27H58.42V320h9.44Zm.08,2.17c0,.56-.46,1.25-1.38,2.09a5.18,5.18,0,0,1-2.3,1.42,4.12,4.12,0,0,1-1.08.08,5.14,5.14,0,0,1-3-1.08,3.22,3.22,0,0,1-1.75-2.59v-1.42h9.52Zm6.88-58.91H67.94v22.39c-1.62-1.45-2.42-2.39-2.42-2.84V257.2h2.17c0,.41,0,2.2,0,2.2ZM68.36,259V257.2H89.42c2.14,0,7.77,1.23,10.28,3.35s4,4.32,4.34,6.27l-8.52,0s-.73.65-1.34,1.27c-1-1.06-1.81-1.59-2.42-1.59H76.13Zm36.35,31c0,1.05-2.49,3.47-3.26,3.47H72.71q-.25,0-1.26-1.08H91.76a1.17,1.17,0,0,0,.66-.38,1.22,1.22,0,0,1,.67-.38h8.13c1.34-1.28,3.49-3.52,3.49-3.52S104.72,289.34,104.71,290.08Zm0-5.47-4.37,4.26H95.43v-1.25H100s3.7-3.65,4.76-4.76Z" transform="translate(249 249)"/><polygon class="cls-24" points="353.71 534.72 353.7 536.17 350.01 539.98 342.88 539.98 344.2 538.73 349.62 538.73 353.7 534.64 353.71 534.72"/><path class="cls-25" d="M104.71,269.65v12.27l-5,4.95H95.43V273.06l0-1.33s0-1,0-1.36a4.34,4.34,0,0,0-.69-1.72l1.14-1.12,8.8,0v2.08Z" transform="translate(249 249)"/><path class="cls-26" d="M139.82,297.27" transform="translate(249 249)"/><polyline class="cls-27" points="388.82 546.27 389.35 548.29 398.78 548.3 398.19 546.26 388.82 546.27"/><path class="cls-28" d="M127.7,300.56l-1.14,3.77h15.19l-1.15-4.09H150s6.6,22,7,23.7a4,4,0,0,1-2.61,4.94c-3.34,1-4.66-.13-5.52-1.59-.42-.72-4.46-13.43-4.46-13.43H123.81s-3.32,11.07-4,13.21c-.25.77-1.26,2.82-5.47,2.13-4.52-.75-3-6.4-3-6.4l6.86-22.56.28-.92.8-2.66,3.23,3.84Z" transform="translate(249 249)"/><polygon class="cls-29" points="372.09 548.32 377.07 548.32 377.69 546.26 373.18 546.26 369.45 541.84 368.67 544.41 372.09 548.32"/><path class="cls-30" d="M120.83,291.71s9.34-31.91,9.49-32.38c.33-1,1.32-1.87,3.89-1.87,2.25,0,3.48.76,3.9,1.87.13.33,10.81,37,10.81,37h-9.34l-5.22-17.6L129,296.31H124.7Z" transform="translate(249 249)"/><path class="cls-31" d="M167.53,259.27v17.17c-.79-1-2.07-2.32-3.74-4.33v-11a3.44,3.44,0,0,1,1.13-1.88,7.2,7.2,0,0,1,2.61-1.93ZM191.7,310h-9.44v-9.86h9.44Zm0,2h-9.44v-1h9.44Zm0,2h-9.44v-1h9.44Zm0,1.94h-9.42l0-1h9.44Zm0,2h-9.44v-1h9.44Zm0,2h-9.44V319h9.44Zm0,1.91h-9.44V321h9.44Zm-9.44,3.86v-2.85h9.44v2.76c0,1.77-1.9,3.68-4.76,3.68S182.26,327.38,182.26,325.73Z" transform="translate(249 249)"/><path class="cls-32" d="M182.26,296.48h9.44v-1.76l18.39-22.64L210,260.75a4.81,4.81,0,0,0-9.23.38v7.1l-13.87,17.38-13.53-17.42s-.12-5.16-.09-6.89c0-2.22-2.32-3.5-2.32-3.5l0,22.58,11.23,14.33Z" transform="translate(249 249)"/></g></svg>