<svg id="レイヤー_1" data-name="レイヤー 1" xmlns="http://www.w3.org/2000/svg" viewBox="0 0 105.46 188.47"><defs><style>.cls-1{fill:#cedc21;}.cls-2{fill:#51b13e;}.cls-3{fill:#1e7a44;}.cls-4{fill:#fff;}</style></defs><title>btcpay</title><path class="cls-1" d="M117.24,247.32a11.06,11.06,0,0,1-11-11.06V69.91a11.06,11.06,0,1,1,22.11,0V236.26A11.06,11.06,0,0,1,117.24,247.32Z" transform="translate(-106.19 -58.85)"/><path class="cls-2" d="M117.25,247.32a11.06,11.06,0,0,1-4.75-21l66.66-31.64L110.69,144.2a11.05,11.05,0,1,1,13.11-17.8l83.35,61.41a11,11,0,0,1-1.82,18.88L122,246.25A10.94,10.94,0,0,1,117.25,247.32Z" transform="translate(-106.19 -58.85)"/><path class="cls-1" d="M117.25,181.93a11.05,11.05,0,0,1-6.56-20l68.47-50.45L112.5,79.89a11.05,11.05,0,0,1,9.48-20l83.35,39.56a11.05,11.05,0,0,1,1.82,18.89L123.8,179.78A11,11,0,0,1,117.25,181.93Z" transform="translate(-106.19 -58.85)"/><polygon class="cls-3" points="22.11 70.86 22.11 117.61 53.82 94.25 22.11 70.86"/><rect class="cls-4" y="51.26" width="22.11" height="53.89"/><path class="cls-1" d="M128.3,69.91a11.06,11.06,0,1,0-22.11,0V209H128.3Z" transform="translate(-106.19 -58.85)"/></svg>