<?xml version="1.0" encoding="UTF-8"?>
<svg width="960px" height="960px" viewBox="0 0 960 960" version="1.1" xmlns="http://www.w3.org/2000/svg" xmlns:xlink="http://www.w3.org/1999/xlink">
    <!-- Generator: Sketch 63.1 (92452) - https://sketch.com -->
    <title>logo_square_bluebg</title>
    <desc>Created with Sketch.</desc>
    <defs>
        <linearGradient x1="50%" y1="0%" x2="50%" y2="100%" id="linearGradient-1">
            <stop stop-color="#1889DC" offset="0%"></stop>
            <stop stop-color="#0A51B6" offset="100%"></stop>
        </linearGradient>
    </defs>
    <g id="logo_square_bluebg" stroke="none" stroke-width="1" fill="none" fill-rule="evenodd">
        <rect id="Rectangle" fill="url(#linearGradient-1)" x="0" y="0" width="960" height="960"></rect>
        <path d="M686.142839,367.000148 L879,367.352835 L855.726249,420.507186 L751.914296,420.507186 L751.914296,454.881551 L832.549076,454.881551 L832.549076,504.496849 L751.914296,504.496849 L751.914296,540.491439 L855.751408,540.491439 L878.954551,594 L686.142839,594 L686.142839,367.000148 Z M471.857104,367.000148 L451.134488,419.435591 L405.705573,419.435591 L405.705573,594 L344.466945,594 L344.466945,419.435591 L299.731707,419.435591 L278.999943,367.000148 L471.857104,367.000148 Z M565.993349,367 C603.107918,367 632.115658,377.034729 655.819465,396.160579 L625.568449,439.112512 C605.607429,425.003655 583.771966,417.477794 564.433727,417.477794 C549.775115,417.477794 542.601313,423.749221 542.601313,431.588134 L542.601313,432.214238 C542.601313,442.248225 550.086887,446.639856 580.342476,453.536646 C630.557561,464.509789 661.747704,480.812978 661.747704,521.886598 L661.747704,522.51196 C661.747704,567.349624 626.501478,593.999852 573.479684,593.999852 C534.807017,593.999852 498.00117,581.773016 471.17812,557.630915 L504.8632,517.181915 C526.38308,534.430194 550.397896,543.519832 575.662087,543.519832 C591.880321,543.519832 600.612981,537.877477 600.612981,528.470336 L600.612981,527.84349 C600.612981,518.751626 593.442991,513.734633 563.810946,506.83636 C517.339409,496.177752 481.470402,483.008793 481.470402,437.861045 L481.470402,437.231232 C481.470402,396.472147 513.59586,367 565.993349,367 Z M189.914547,369.967689 C217.102728,369.967689 236.257258,376.914181 248.924037,389.860591 C257.575134,398.705425 262.827994,410.389983 262.827994,425.548529 L262.827994,426.180568 C262.827994,451.761077 248.61379,466.916655 229.460022,475.446212 C255.721273,484.290304 272.405259,499.445882 272.405259,529.44918 L272.405259,530.080477 C272.405259,567.976099 242.127563,591.032904 190.532754,591.032904 L79,591.032904 L79,369.967689 L189.914547,369.967689 Z M183.118073,501.024496 L137.392807,501.024496 L137.392807,541.766518 L183.735519,541.766518 C201.964643,541.766518 212.4696,534.500297 212.4696,521.555371 L212.4696,520.923332 C212.4696,508.919788 203.196484,501.024496 183.118073,501.024496 Z M176.320837,419.232592 L137.392807,419.232592 L137.392807,458.076272 L175.085946,458.076272 C193.31507,458.076272 203.509018,451.761077 203.509018,438.810216 L203.509018,438.178919 C203.509018,426.180568 194.240476,419.232592 176.320837,419.232592 Z" id="Combined-Shape" fill="#FFFFFF"></path>
    </g>
</svg>