<svg width="64" height="32" xmlns="http://www.w3.org/2000/svg"><g fill-rule="nonzero" fill="none"><path d="M32.7 5.9c-.2-1-1.3-1.7-2.3-1.4L7.7 9.9c-1 .2-1.7 1.3-1.4 2.3l3.1 12.9c.2 1 1.3 1.7 2.3 1.4l22.7-5.4c1-.2 1.7-1.3 1.4-2.3L32.7 5.9Z" fill="#EF8022"/><path d="M12.6 30.3c-.2.2-.5.3-.7.3l.8.5c.9.6 2.1.4 2.7-.5l3.1-4.4-5.9 4.1ZM2.3 19.5l-1 1.4c-.6.9-.4 2.1.5 2.7L8.1 28l-5.8-8.5ZM12.9 8.1l7.2-5-2.7-1.9c-.9-.6-2.1-.4-2.7.5l-5 7.2 3.2-.8Z" fill="#F9F185"/><path d="M9.7 29.4c.6.9 1.8 1.1 2.7.5l6.7-4.6-7.4 1.8c-1.3.3-2.6-.5-2.9-1.8L6 13.5l-3.3 2.3c-.9.6-1.1 1.8-.5 2.7l7.5 10.9Zm4.5-21.6L25.9 5l-1.3-2c-.6-.9-1.8-1.1-2.7-.5l-7.7 5.3Z" fill="#FFC214"/><path d="M11.9 24.8c-.7 0-1.4-.5-1.7-1.1l-1.5-3.2 1.1 4.6c.2.6.7 1.1 1.4 1.1h.3l17-4.1-16.2 2.7h-.4Z" fill="#FFC214"/><path d="M16 17.5s-1.1 1.2-2.5 1.2c-1.7 0-2.6-1.4-2.6-2.8 0-1.3.9-2.7 2.6-2.7 1.3 0 2.3 1 2.3 1l1.1-1.7s-.6-.7-1.9-1.1v-1.2h-1.1v1h-.6v-1h-1.1v1.1c-2.2.5-3.7 2.4-3.7 4.7 0 2.4 1.5 4.2 3.7 4.7v1.2h1.1v-1h.6V22H15v-1.3c1.4-.4 2.1-1.3 2.1-1.3L16 17.5ZM21 13.7c2.1 0 3.8 1.4 3.8 3.6 0 2.1-1.7 3.5-3.8 3.5-2.1 0-3.8-1.4-3.8-3.5s1.7-3.6 3.8-3.6Zm0 5.2c.8 0 1.5-.6 1.5-1.6s-.7-1.7-1.5-1.7-1.5.6-1.5 1.7c0 1 .7 1.6 1.5 1.6Zm4.3-5h2.3v6.7h-2.3v-6.7Zm0-2.6h2.2v1.8h-2.2v-1.8Zm3.2 2.6h2.2v1c.3-.5 1-1.2 2.1-1.2 1.4 0 2.4.6 2.4 2.5v4.4h-2.3v-4c0-.6-.2-.9-.7-.9-.7 0-1.1.4-1.3 1-.1.3-.1.6-.1.9v3h-2.3v-6.7Z" fill="#FFF"/><path d="M39.3 13.9c1.7 0 2.5 1 2.5 1l-.6.9s-.7-.8-1.8-.8c-1.3 0-2.3 1-2.3 2.4 0 1.3 1 2.4 2.3 2.4 1.2 0 2-.9 2-.9l.5.9s-.9 1.1-2.6 1.1c-2.1 0-3.5-1.5-3.5-3.5-.1-2 1.4-3.5 3.5-3.5Zm6.8 2.6h.3v-.1c0-1.1-.6-1.5-1.5-1.5-1 0-1.8.6-1.8.6l-.5-.9s1-.8 2.5-.8c1.7 0 2.6.9 2.6 2.6v4.2h-1.2v-1.1s-.5 1.3-2.1 1.3c-1.1 0-2.3-.7-2.3-2 0-2.2 2.9-2.3 4-2.3Zm-1.4 3.3c1.1 0 1.8-1.1 1.8-2.1v-.2h-.3c-1 0-2.7.1-2.7 1.3-.1.5.3 1 1.2 1Zm3.8-5.8h1.2v1.7c.3-1 1.1-1.7 2.1-1.7h.3v1.3h-.4c-.8 0-1.6.6-1.9 1.6-.1.4-.2.8-.2 1.2v2.7h-1.3V14h.2Zm6.8-.1c1.5 0 2 1 2 1v-3.5h1.3v9.2h-1.2v-1s-.5 1.2-2.2 1.2c-1.8 0-2.9-1.4-2.9-3.5s1.3-3.4 3-3.4Zm.2 5.8c1 0 1.9-.7 1.9-2.4 0-1.2-.6-2.4-1.9-2.4-1 0-1.9.9-1.9 2.4s.8 2.4 1.9 2.4Zm4.2-.8s.7.8 1.9.8c.5 0 1.1-.3 1.1-.8 0-1.2-3.4-1-3.4-3.1 0-1.2 1.1-1.9 2.4-1.9 1.5 0 2.1.7 2.1.7l-.5 1s-.6-.6-1.6-.6c-.5 0-1.1.2-1.1.8 0 1.2 3.4.9 3.4 3.1 0 1.1-.9 1.9-2.4 1.9-1.6 0-2.5-1-2.5-1l.6-.9Z" fill="#EF8022"/></g></svg>