<svg xmlns="http://www.w3.org/2000/svg" xmlns:xlink="http://www.w3.org/1999/xlink" id="Layer_1" x="0" y="0" version="1.1" viewBox="0 0 65 65" xml:space="preserve" style="enable-background:new 0 0 65 65"><style type="text/css">.st0{fill:#fff}.st1{fill:#ef8022}.st2{fill:#ffc214}.st3{fill:#f9f185}</style><rect width="65" height="65" class="st0"/><g id="Layer_2_1_"><path d="M32.7,23.9c-0.2-1-1.3-1.7-2.3-1.4L7.7,27.9c-1,0.2-1.7,1.3-1.4,2.3l3.1,12.9c0.2,1,1.3,1.7,2.3,1.4l22.7-5.4 c1-0.2,1.7-1.3,1.4-2.3L32.7,23.9z" class="st1"/></g><g id="Layer_3"><path d="M9.7,47.4c0.6,0.9,1.8,1.1,2.7,0.5l6.7-4.6l-7.4,1.8c-1.3,0.3-2.6-0.5-2.9-1.8L6,31.5l-3.3,2.3 c-0.9,0.6-1.1,1.8-0.5,2.7L9.7,47.4z" class="st2"/><path d="M14.2,25.8L25.9,23l-1.3-2c-0.6-0.9-1.8-1.1-2.7-0.5L14.2,25.8z" class="st2"/></g><g id="Layer_4"><path d="M12.6,48.3c-0.2,0.2-0.5,0.3-0.7,0.3l0.8,0.5c0.9,0.6,2.1,0.4,2.7-0.5l3.1-4.4L12.6,48.3z" class="st3"/><path d="M2.3,37.5l-1,1.4c-0.6,0.9-0.4,2.1,0.5,2.7L8.1,46L2.3,37.5z" class="st3"/><path d="M12.9,26.1l7.2-5l-2.7-1.9c-0.9-0.6-2.1-0.4-2.7,0.5l-5,7.2L12.9,26.1z" class="st3"/></g><g id="Layer_5"><path d="M11.9,42.8c-0.7,0-1.4-0.5-1.7-1.1l-1.5-3.2l1.1,4.6c0.2,0.6,0.7,1.1,1.4,1.1c0.1,0,0.2,0,0.3,0l17-4.1 l-16.2,2.7C12.2,42.8,12,42.8,11.9,42.8z" class="st2"/></g><g id="Layer_6"><path d="M16,35.5c0,0-1.1,1.2-2.5,1.2c-1.7,0-2.6-1.4-2.6-2.8c0-1.3,0.9-2.7,2.6-2.7c1.3,0,2.3,1,2.3,1l1.1-1.7 c0,0-0.6-0.7-1.9-1.1v-1.2h-1.1v1c-0.2,0-0.3,0-0.5,0h-0.1v-1h-1.1v1.1C10,29.8,8.5,31.7,8.5,34c0,2.4,1.5,4.2,3.7,4.7v1.2h1.1v-1 h0.1c0.2,0,0.4,0,0.5,0V40H15v-1.3c1.4-0.4,2.1-1.3,2.1-1.3L16,35.5z" class="st0"/></g><g id="Layer_7"><path d="M21,31.7c2.1,0,3.8,1.4,3.8,3.6c0,2.1-1.7,3.5-3.8,3.5s-3.8-1.4-3.8-3.5S18.9,31.7,21,31.7z M21,36.9 c0.8,0,1.5-0.6,1.5-1.6s-0.7-1.7-1.5-1.7s-1.5,0.6-1.5,1.7C19.5,36.3,20.2,36.9,21,36.9z" class="st0"/><rect width="2.3" height="6.7" x="25.3" y="31.9" class="st0"/><rect width="2.2" height="1.8" x="25.3" y="29.3" class="st0"/><path d="M28.5,31.9h2.2v0.6c0,0.2,0,0.4,0,0.4l0,0c0.3-0.5,1-1.2,2.1-1.2c1.4,0,2.4,0.6,2.4,2.5v4.4h-2.3v-4 c0-0.6-0.2-0.9-0.7-0.9c-0.7,0-1.1,0.4-1.3,1c-0.1,0.3-0.1,0.6-0.1,0.9v3h-2.3C28.5,38.6,28.5,31.9,28.5,31.9z" class="st0"/></g><g id="Layer_8"><path d="M39.3,31.9c1.7,0,2.5,1,2.5,1l-0.6,0.9c0,0-0.7-0.8-1.8-0.8c-1.3,0-2.3,1-2.3,2.4c0,1.3,1,2.4,2.3,2.4 c1.2,0,2-0.9,2-0.9l0.5,0.9c0,0-0.9,1.1-2.6,1.1c-2.1,0-3.5-1.5-3.5-3.5C35.7,33.4,37.2,31.9,39.3,31.9z" class="st1"/><path d="M46.1,34.5h0.3v-0.1c0-1.1-0.6-1.5-1.5-1.5c-1,0-1.8,0.6-1.8,0.6l-0.5-0.9c0,0,1-0.8,2.5-0.8 c1.7,0,2.6,0.9,2.6,2.6v4.2h-1.2V38c0-0.3,0-0.5,0-0.5l0,0c0,0-0.5,1.3-2.1,1.3c-1.1,0-2.3-0.7-2.3-2C42.1,34.6,45,34.5,46.1,34.5z M44.7,37.8c1.1,0,1.8-1.1,1.8-2.1v-0.2h-0.3c-1,0-2.7,0.1-2.7,1.3C43.4,37.3,43.8,37.8,44.7,37.8z" class="st1"/><path d="M48.5,32h1.2v1.2c0,0.3,0,0.5,0,0.5l0,0c0.3-1,1.1-1.7,2.1-1.7c0.2,0,0.3,0,0.3,0v1.3c0,0-0.2,0-0.4,0 c-0.8,0-1.6,0.6-1.9,1.6c-0.1,0.4-0.2,0.8-0.2,1.2v2.7h-1.3V32H48.5z" class="st1"/><path d="M55.3,31.9c1.5,0,2,1,2,1l0,0c0,0,0-0.2,0-0.4v-3.1h1.3v9.2h-1.2V38c0-0.3,0-0.4,0-0.4l0,0 c0,0-0.5,1.2-2.2,1.2c-1.8,0-2.9-1.4-2.9-3.5C52.3,33.2,53.6,31.9,55.3,31.9z M55.5,37.7c1,0,1.9-0.7,1.9-2.4 c0-1.2-0.6-2.4-1.9-2.4c-1,0-1.9,0.9-1.9,2.4C53.6,36.8,54.4,37.7,55.5,37.7z" class="st1"/><path d="M59.7,36.9c0,0,0.7,0.8,1.9,0.8c0.5,0,1.1-0.3,1.1-0.8c0-1.2-3.4-1-3.4-3.1c0-1.2,1.1-1.9,2.4-1.9 c1.5,0,2.1,0.7,2.1,0.7l-0.5,1c0,0-0.6-0.6-1.6-0.6c-0.5,0-1.1,0.2-1.1,0.8c0,1.2,3.4,0.9,3.4,3.1c0,1.1-0.9,1.9-2.4,1.9 c-1.6,0-2.5-1-2.5-1L59.7,36.9z" class="st1"/></g></svg>