<?xml version="1.0" encoding="utf-8"?>
<!-- Generator: Adobe Illustrator 25.2.1, SVG Export Plug-In . SVG Version: 6.00 Build 0)  -->
<svg version="1.1" xmlns="http://www.w3.org/2000/svg" xmlns:xlink="http://www.w3.org/1999/xlink" x="0px" y="0px"
	 viewBox="0 0 100 100" style="enable-background:new 0 0 100 100;" xml:space="preserve">
<style type="text/css">
	.st0{fill:#EF8022;}
	.st1{fill:#FFC214;}
	.st2{fill:#F9F185;}
	.st3{fill:#FFFFFF;}
</style>
<g id="Layer_1">
</g>
<g id="Layer_2">
	<path class="st0" d="M46,41.5c-0.2-1-1.3-1.7-2.3-1.4l-22.7,5.4c-1,0.2-1.7,1.3-1.4,2.3l3.1,12.9c0.2,1,1.3,1.7,2.3,1.4l22.7-5.4
		c1-0.2,1.7-1.3,1.4-2.3L46,41.5z"/>
</g>
<g id="Layer_3">
	<path class="st1" d="M23,65c0.6,0.9,1.8,1.1,2.7,0.5l6.7-4.6L25,62.7c-1.3,0.3-2.6-0.5-2.9-1.8l-2.8-11.8l-3.3,2.3
		c-0.9,0.6-1.1,1.8-0.5,2.7L23,65z"/>
	<path class="st1" d="M27.5,43.4l11.7-2.8l-1.3-2c-0.6-0.9-1.8-1.1-2.7-0.5L27.5,43.4z"/>
</g>
<g id="Layer_4">
	<path class="st2" d="M25.9,65.9c-0.2,0.2-0.5,0.3-0.7,0.3l0.8,0.5c0.9,0.6,2.1,0.4,2.7-0.5l3.1-4.4L25.9,65.9z"/>
	<path class="st2" d="M15.6,55.1l-1,1.4c-0.6,0.9-0.4,2.1,0.5,2.7l6.3,4.4L15.6,55.1z"/>
	<path class="st2" d="M26.2,43.7l7.2-5l-2.7-1.9c-0.9-0.6-2.1-0.4-2.7,0.5l-5,7.2L26.2,43.7z"/>
</g>
<g id="Layer_5">
	<path class="st1" d="M25.2,60.4c-0.7,0-1.4-0.5-1.7-1.1L22,56.1l1.1,4.6c0.2,0.6,0.7,1.1,1.4,1.1c0.1,0,0.2,0,0.3,0l17-4.1
		l-16.2,2.7C25.5,60.4,25.3,60.4,25.2,60.4z"/>
</g>
<g id="Layer_6">
	<path class="st3" d="M29.3,53.1c0,0-1.1,1.2-2.5,1.2c-1.7,0-2.6-1.4-2.6-2.8c0-1.3,0.9-2.7,2.6-2.7c1.3,0,2.3,1,2.3,1l1.1-1.7
		c0,0-0.6-0.7-1.9-1.1v-1.2h-1.1v1c-0.2,0-0.3,0-0.5,0c0,0-0.1,0-0.1,0v-1h-1.1v1.1c-2.2,0.5-3.7,2.4-3.7,4.7c0,2.4,1.5,4.2,3.7,4.7
		v1.2h1.1v-1c0,0,0.1,0,0.1,0c0.2,0,0.4,0,0.5,0v1.1h1.1v-1.3c1.4-0.4,2.1-1.3,2.1-1.3L29.3,53.1z"/>
</g>
<g id="Layer_7">
	<path class="st3" d="M34.3,49.3c2.1,0,3.8,1.4,3.8,3.6c0,2.1-1.7,3.5-3.8,3.5c-2.1,0-3.8-1.4-3.8-3.5
		C30.5,50.8,32.2,49.3,34.3,49.3z M34.3,54.5c0.8,0,1.5-0.6,1.5-1.6c0-1-0.7-1.7-1.5-1.7c-0.8,0-1.5,0.6-1.5,1.7
		C32.8,53.9,33.5,54.5,34.3,54.5z"/>
	<rect x="38.6" y="49.5" class="st3" width="2.3" height="6.7"/>
	<rect x="38.6" y="46.9" class="st3" width="2.2" height="1.8"/>
	<path class="st3" d="M41.8,49.5H44v0.6c0,0.2,0,0.4,0,0.4h0c0.3-0.5,1-1.2,2.1-1.2c1.4,0,2.4,0.6,2.4,2.5v4.4h-2.3v-4
		c0-0.6-0.2-0.9-0.7-0.9c-0.7,0-1.1,0.4-1.3,1c-0.1,0.3-0.1,0.6-0.1,0.9v3h-2.3V49.5z"/>
</g>
<g id="Layer_8">
	<path class="st0" d="M52.6,49.5c1.7,0,2.5,1,2.5,1l-0.6,0.9c0,0-0.7-0.8-1.8-0.8c-1.3,0-2.3,1-2.3,2.4c0,1.3,1,2.4,2.3,2.4
		c1.2,0,2-0.9,2-0.9l0.5,0.9c0,0-0.9,1.1-2.6,1.1c-2.1,0-3.5-1.5-3.5-3.5C49,51,50.5,49.5,52.6,49.5z"/>
	<path class="st0" d="M59.4,52.1h0.3V52c0-1.1-0.6-1.5-1.5-1.5c-1,0-1.8,0.6-1.8,0.6l-0.5-0.9c0,0,1-0.8,2.5-0.8
		c1.7,0,2.6,0.9,2.6,2.6v4.2h-1.2v-0.6c0-0.3,0-0.5,0-0.5h0c0,0-0.5,1.3-2.1,1.3c-1.1,0-2.3-0.7-2.3-2
		C55.4,52.2,58.3,52.1,59.4,52.1z M58,55.4c1.1,0,1.8-1.1,1.8-2.1v-0.2h-0.3c-1,0-2.7,0.1-2.7,1.3C56.7,54.9,57.1,55.4,58,55.4z"/>
	<path class="st0" d="M61.8,49.6h1.2v1.2c0,0.3,0,0.5,0,0.5h0c0.3-1,1.1-1.7,2.1-1.7c0.2,0,0.3,0,0.3,0v1.3c0,0-0.2,0-0.4,0
		c-0.8,0-1.6,0.6-1.9,1.6c-0.1,0.4-0.2,0.8-0.2,1.2v2.7h-1.3V49.6z"/>
	<path class="st0" d="M68.6,49.5c1.5,0,2,1,2,1h0c0,0,0-0.2,0-0.4V47h1.3v9.2h-1.2v-0.6c0-0.3,0-0.4,0-0.4h0c0,0-0.5,1.2-2.2,1.2
		c-1.8,0-2.9-1.4-2.9-3.5C65.6,50.8,66.9,49.5,68.6,49.5z M68.8,55.3c1,0,1.9-0.7,1.9-2.4c0-1.2-0.6-2.4-1.9-2.4
		c-1,0-1.9,0.9-1.9,2.4C66.9,54.4,67.7,55.3,68.8,55.3z"/>
	<path class="st0" d="M73,54.5c0,0,0.7,0.8,1.9,0.8c0.5,0,1.1-0.3,1.1-0.8c0-1.2-3.4-1-3.4-3.1c0-1.2,1.1-1.9,2.4-1.9
		c1.5,0,2.1,0.7,2.1,0.7l-0.5,1c0,0-0.6-0.6-1.6-0.6c-0.5,0-1.1,0.2-1.1,0.8c0,1.2,3.4,0.9,3.4,3.1c0,1.1-0.9,1.9-2.4,1.9
		c-1.6,0-2.5-1-2.5-1L73,54.5z"/>
</g>
<g id="Layer_9">
</g>
<g id="Layer_10">
</g>
</svg>
