<?xml version="1.0" encoding="utf-8"?>
<!-- Generator: Adobe Illustrator 24.0.0, SVG Export Plug-In . SVG Version: 6.00 Build 0)  -->
<!DOCTYPE svg PUBLIC "-//W3C//DTD SVG 1.1//EN" "http://www.w3.org/Graphics/SVG/1.1/DTD/svg11.dtd">
<svg version="1.1" id="レイヤー_1"
	 xmlns="http://www.w3.org/2000/svg" xmlns:xlink="http://www.w3.org/1999/xlink" x="0px" y="0px" viewBox="0 0 400 400"
	 style="enable-background:new 0 0 400 400;" xml:space="preserve">
	<g>
		<g>
			<rect x="0.3" y="0" width="400" height="400"/>
			<path class="st0" fill="#FFFFFF" d="M88.51,195.08V86.72h50.52c21.05,0,50.16,19.81,50.16,55.11c0,31.89-24.15,53.25-52.94,53.25h-18.65v-21.67
				h18.65c16.41,0,30.03-16.1,30.03-31.73c0-21.52-15.33-33.28-33.44-33.28h-21.42v86.69H88.51z M287.02,118.46
				c-5.88-6.65-16.72-11.92-28.02-11.92c-19.5,0-32.97,15.63-32.97,33.75c0,18.11,13.47,33.75,32.97,33.75
				c13.47,0,26.78-10.68,28.95-23.06h-30.03v-20.13h54.18v14.71c0,21.36-18.58,51.39-54.95,51.39c-32.35,0-55.26-25.54-55.26-56.04
				c0-30.5,22.91-56.04,55.26-56.04c15.02,0,31.42,4.33,44.43,16.87L287.02,118.46z M111.5,206.38v73.02
				c0,9.94,4.04,12.74,11.81,12.74h17.25v22.99h-22.84c-17.4,0-29.21-8.7-29.21-32.63v-76.13H111.5z M150.78,315.13v-70.85
				c0-18.95,10.72-39.77,39-39.77c28.28,0,39.15,20.82,39.15,39.77v70.85h-24.24v-39.15h-23.61v-21.13h23.61v-14.6
				c0-8.08-3.73-14.6-14.91-14.6c-11.19,0-14.76,6.53-14.76,14.6v74.89H150.78z M239.08,315.13v-71.78c0-27.5,14.6-38.84,36.2-38.84
				c18.33,0,32.78,13.05,32.78,31.69c0,8.23-3.73,16.47-10.88,20.82c10.25,5.13,14.92,15.07,14.92,26.26
				c0,18.02-11.5,31.85-29.68,31.85h-15.85v-21.75h12.27c6.52,0,10.25-5.13,10.25-12.12c0-9.32-5.44-12.59-11.81-12.59h-10.72
				v-18.95h5.75c7.77,0,12.74-3.73,12.74-11.34c0-6.84-4.19-12.12-11.5-12.12c-7.46,0-12.74,4.35-12.74,14.91v73.95H239.08z"/>
		</g>
	</g>
</svg>
