<svg id="LOGO_01" data-name="LOGO 01" xmlns="http://www.w3.org/2000/svg" viewBox="0 0 839.7 819.24"><defs><style>.cls-1{fill:#025a2a;}.cls-2,.cls-3,.cls-4,.cls-5,.cls-6,.cls-7{fill:none;stroke:#163725;stroke-miterlimit:10;}.cls-2{stroke-width:4px;}.cls-3{stroke-width:7px;}.cls-4{stroke-width:9px;}.cls-5{stroke-width:5.3px;}.cls-6{stroke-width:3px;}.cls-7{stroke-width:6px;}.cls-8{fill:#163725;}</style></defs><title>GREEN LOGO - 1730x1070</title><path class="cls-1" d="M674.86,775.44" transform="translate(-455.3 -173.5)"/><path class="cls-1" d="M679.88,775.44" transform="translate(-455.3 -173.5)"/><polyline class="cls-2" points="464.51 136.74 440.79 115.1 440.79 84.34"/><polyline class="cls-3" points="464.51 256.44 464.51 108.96 488.06 86.42 488.06 45.92"/><line class="cls-2" x1="191.83" y1="142.76" x2="191.83" y2="120.8"/><polyline class="cls-2" points="213.31 290.35 241.98 252.2 241.98 205.77"/><polyline class="cls-2" points="156.5 213.77 120.47 187.04 120.47 139.88"/><polyline class="cls-2" points="310.89 215.04 264.59 167.43 216.4 167.43 176.99 127.87 176.99 104.55"/><polyline class="cls-2" points="341.04 136.74 341.04 75.61 382.18 36.45 382.18 12.63"/><polyline class="cls-2" points="317.57 79.08 287.72 51.24 287.72 28.82"/><line class="cls-2" x1="287.72" y1="147.48" x2="287.72" y2="101.35"/><polyline class="cls-2" points="370 215.04 408.61 176.82 408.61 118.82"/><polyline class="cls-2" points="370 193.71 394.36 170.3 394.36 131.78"/><polyline class="cls-2" points="464.51 173.38 521.23 128.01 521.23 79.28"/><polyline class="cls-2" points="466.36 195.45 537.32 139.46 537.32 99.51"/><line class="cls-2" x1="634.58" y1="172.37" x2="690.85" y2="115.1"/><polyline class="cls-2" points="506.44 215.04 569.07 215.04 607.92 172.37 681.44 172.37"/><polyline class="cls-3" points="697.64 416.81 697.64 326.13 747.8 264.21 747.8 211.93"/><polyline class="cls-2" points="605.81 450.71 605.81 359.23 660.05 305.69 660.05 243.39"/><polyline class="cls-3" points="415.06 404.09 449.68 372.3 449.68 272.69 585.32 134.93 585.32 39.35"/><polyline class="cls-3" points="415.14 498.74 569.07 342.63 569.07 290.35"/><polyline class="cls-4" points="438.38 703.86 438.38 587.77 539.4 486.04 570.48 486.04 639.72 416.81 730.85 416.81 816.33 330.62"/><polyline class="cls-5" points="415.06 701.17 415.06 342.95 310.89 238.07 310.89 172.19 242.41 101.99 242.41 42.18"/><polyline class="cls-3" points="244.5 443.96 247.3 315.71 156.5 247.96 156.5 167.43"/><polyline class="cls-2" points="413.15 461.91 366.54 420.09 338.06 394.55 338.06 339.8"/><line class="cls-2" x1="374.09" y1="426.87" x2="374.09" y2="382.19"/><polyline class="cls-2" points="61.72 282.46 63.25 247.96 46.3 226.77 46.3 200.41"/><line class="cls-2" x1="241.23" y1="239.61" x2="213.97" y2="217.94"/><circle class="cls-6" cx="338.06" cy="333.66" r="6.14"/><circle class="cls-6" cx="374.09" cy="377" r="6.14"/><circle class="cls-6" cx="176.99" cy="97.62" r="6.14"/><circle class="cls-6" cx="209.98" cy="213.73" r="6.14"/><circle class="cls-6" cx="241.98" cy="200.41" r="6.14"/><polyline class="cls-2" points="76.68 341.53 120.47 305.69 120.47 256.44"/><polyline class="cls-3" points="367.95 295.51 367.95 167.43 317.57 115.1 317.57 23.09"/><circle class="cls-6" cx="660.06" cy="238.2" r="6.14"/><circle class="cls-6" cx="521.23" cy="73.7" r="6.14"/><circle class="cls-6" cx="537.32" cy="94.36" r="6.14"/><circle class="cls-7" cx="488.06" cy="35.04" r="13.36"/><circle class="cls-7" cx="585.32" cy="27.98" r="13.36"/><circle class="cls-7" cx="747.8" cy="201.23" r="13.36"/><circle class="cls-7" cx="823.33" cy="320.48" r="13.36"/><circle class="cls-7" cx="242.41" cy="28.82" r="13.36"/><circle class="cls-6" cx="120.47" cy="133.92" r="6.14"/><circle class="cls-2" cx="156.22" cy="157.02" r="9.11"/><circle class="cls-2" cx="569.07" cy="282.46" r="9.11"/><circle class="cls-6" cx="287.72" cy="94.8" r="6.14"/><circle class="cls-6" cx="287.72" cy="23.09" r="6.14"/><circle class="cls-6" cx="408.61" cy="113.25" r="6.14"/><circle class="cls-6" cx="394.36" cy="126.4" r="6.14"/><circle class="cls-2" cx="317.57" cy="15.67" r="9.11"/><circle class="cls-6" cx="382.18" cy="7.64" r="6.14"/><circle class="cls-6" cx="440.79" cy="79.28" r="6.14"/><circle class="cls-6" cx="694.22" cy="110.54" r="6.14"/><circle class="cls-2" cx="690.28" cy="171.51" r="9.11"/><polyline class="cls-2" points="75.97 372.67 75.97 296.71 59.01 279.75 35.7 256.44"/><polyline class="cls-4" points="391.56 703.05 391.56 544.55 321.49 474.49 275.03 474.49 204.23 403.69 103.93 403.69 24.28 323.31"/><circle class="cls-6" cx="46.3" cy="195.09" r="6.14"/><circle class="cls-6" cx="32.65" cy="252.59" r="6.14"/><circle class="cls-6" cx="120.47" cy="251.62" r="6.14"/><circle class="cls-7" cx="16.36" cy="312.35" r="13.36"/><circle class="cls-6" cx="191.83" cy="115.1" r="6.14"/><path class="cls-8" d="M792.57,969.05c-.09-.18-.42-.73-.51-.91-4.34-8.39-10.69-20.85-12.06-24.55-1.53-4.13-1-7.64-1-12.33,0-4.43,1.27-8.3,3.57-12.6,1.57-2.95,3.49-6.84,5.52-11l1.45-3c.48-1,1-2,1.45-2.94L799.51,918l-.36.63c-3.34,5.87-5.77,9.39-5.86,13a14.26,14.26,0,0,0,.46,4.73c3.87,10.55,11.21,24.43,15.78,32.67" transform="translate(-455.3 -173.5)"/><path class="cls-8" d="M791.64,900.25q4.54-8.68,7.39-13.71c1.74-3.1,3.15-4.66,4.25-4.66h50.66v2.06a6.5,6.5,0,0,1-6.79,6.29H816.7q-1.65,0-3.84,3.28l-2.6,4.24-1.37,2.74-6,11.29-2.6,4.86m53.68,70.44c0,2.92-3,5.49-6,5.49H815.6q-3.42,0-9.72-4.24c-4.2-2.83-8.49-9.58-8.49-9.58a8.29,8.29,0,0,0-.41-1h50.26c3.69,0,6.7,2.57,6.7,5.9Zm-.2-106.7h-49.5l3-1.78h45.21C853,878.6,853.74,879.74,853.74,880.38ZM851.53,877H809.3s3.78-2,6-2h32.15C851.06,875,851.53,877,851.53,877Z" transform="translate(-455.3 -173.5)"/><polygon class="cls-8" points="358.42 802.65 340.93 802.65 341.76 800.6 358.98 800.6 358.42 802.65"/><polygon class="cls-8" points="358.45 799.37 341.2 799.37 338.2 797.32 355.15 797.32 358.45 799.37"/><path class="cls-8" d="M610.92,875h36.7q8.08,0,16.16,7.05t9.86,15.12v1.37H657.35c-.64-1.83-2.24-3.74-4.8-5.75s-4.79-3-6.71-3H614.11v5.47H598.46V884.76Zm3.19,26.68H598.46V900h15.65Zm0,3.29H598.46v-1.92h15.65Zm0,3.28H598.46v-1.78h15.65Zm0,3.28H598.46v-1.64h15.65Zm0,3.29H598.46v-1.78h15.65Zm0,3.28H598.46v-1.78h15.65Zm0,3.28H598.46v-1.78h15.65Zm-15.65,13.69V932h1.37c2.92,2.92,7.81,7.75,14.29,14.13l0,15v16.28h16.16q6.3,6.43,13.42,13.14h11.78q-6.3,2.06-7.81,2.05H598.46V951m0-69.47v-3.32a3.61,3.61,0,0,1,3-3.15H607Zm75.88,73v3.15m-.69,1.34V961h-4.11c-.27,0-3-2.68-8.21-8.07s-9.09-8.8-11.64-10.26q-2.74-1.5-9.45-1.37h-4.79l-17.68,0-15.6-15-3.7,0v-3.38h15.65v3.42h45.11l6.2,6-1,1.07a14.87,14.87,0,0,1,6.5,6.18,18.81,18.81,0,0,1,2.69,10.76m-5.07-21.42-1.92,2-6.47-6-10.23,0,3.2-2.14h8.57Zm-11.09,60.48h-12.6q-1.36,0-12.59-11.91h13.55a16.75,16.75,0,0,0,3.43-1.09s6.42-4.18,7.12-4.79h17.27c0,.91-2.15,6.3-7.18,11.82C662.34,987.88,658.3,989.29,657.48,989.29Zm16.16-26.41,0,3.34H658.44c.37-1.36-.1-14.21-.1-14.21l10.93,10.8Zm0-61.16H657.38v-2.05h16.26Zm0,3.29H657.38v-1.92h16.26Zm0,7.66c-1.37-1.46-4.24-4.38-4.24-4.38h-12v-1.91h16.26Z" transform="translate(-455.3 -173.5)"/><rect class="cls-8" x="143.16" y="723.16" width="15.65" height="1.92"/><path class="cls-8" d="M657.38,909.78h11.19l5.07,5.43a34.43,34.43,0,0,1-1.47,7.59,23.46,23.46,0,0,1-2.65,4.63l-6.83-6.21-8.65,0s2.79-3.54,3.12-5.61A41.53,41.53,0,0,0,657.38,909.78Z" transform="translate(-455.3 -173.5)"/><path class="cls-8" d="M739.61,963v23.61c0,1.71-2.63,5.49-7.59,5.59s-8-3.53-8-5.67V963Z" transform="translate(-455.3 -173.5)"/><path class="cls-8" d="M739.61,915.93v-9.55L724,893.13s0,6.9,0,9.92Z" transform="translate(-455.3 -173.5)"/><path class="cls-8" d="M739.61,919.29V949.8H724V944c0-15.52,0-28.45,0-37.63Z" transform="translate(-455.3 -173.5)"/><path class="cls-8" d="M724,951.64v2H739.6c0-.7,0-1.26,0-2Z" transform="translate(-455.3 -173.5)"/><path class="cls-8" d="M724,955.33c0,2.81,0-.75,0,1.89h15.58v-1.89Z" transform="translate(-455.3 -173.5)"/><path class="cls-8" d="M724,959.09v2.09h15.58v-2.09Z" transform="translate(-455.3 -173.5)"/><path class="cls-8" d="M739.61,902.54V889.68h29.18s6.08-.27,6.08-7.59c0-7.92-7.14-7.32-7.14-7.32H694.54s-5.79,0-5.79,7.32,5.79,7.31,5.79,7.31H724Z" transform="translate(-455.3 -173.5)"/><path class="cls-8" d="M937.41,940c-2.74,2.83-7.85,7.12-15.34,7.12H883.45v9H871.13c-.46,0-1.15-.53-2-1.58a4.6,4.6,0,0,1-1.37-2.25V874.63H873v49.53q0,1.1,7,7.94c4.38,4.29,7,6.72,7.87,7.32a5.61,5.61,0,0,0,3.23.88Zm-54.23,19.43h-14c-.73-.73-1.23-1.1-1.5-1.1v-3.14a23.25,23.25,0,0,0,3.14,2.46h12.33Zm0,3.28H867.71v-2.87a4.1,4.1,0,0,0,1.64,1.09h13.83Zm0,3.29H867.71v-1.78h15.47Zm0,3.28H867.71v-1.78h15.47Zm0,3.15H867.71v-1.64h15.47Zm0,1.64-.27,1.92h-15.2V974.1Zm0,8.62H867.71v-5.34h15.47Zm.14,3.56c0,.91-.75,2.05-2.26,3.42a8.62,8.62,0,0,1-3.77,2.32,6.63,6.63,0,0,1-1.78.14,8.37,8.37,0,0,1-4.93-1.78c-1.92-1.27-2.87-2.69-2.87-4.24v-2.33h15.61Zm11.27-96.46H883.32v36.67q-4-3.56-4-4.65V874.63h3.56c0,.67,0,3.6,0,3.6ZM884,877.65v-3h25.06s5.94,0,9.45,0,12.73,2,16.85,5.48,6.48,7.08,7.12,10.27l-14,0s-1.2,1.08-2.2,2.08q-2.48-2.59-4-2.6H896.74Zm59.57,50.81c0,1.73-4.08,5.69-5.34,5.69h-47.1c-.28,0-1-.59-2.06-1.78h33.28a1.89,1.89,0,0,0,1.09-.62,1.88,1.88,0,0,1,1.1-.61h13.31c2.19-2.1,5.72-5.78,5.72-5.78S943.58,927.25,943.57,928.46Zm0-9-7.17,7h-8v-2.06h7.39s6.08-6,7.81-7.79Z" transform="translate(-455.3 -173.5)"/><polygon class="cls-8" points="488.27 747.82 488.25 750.19 482.21 756.44 470.53 756.44 472.69 754.39 481.57 754.39 488.25 747.69 488.27 747.82"/><path class="cls-8" d="M943.57,895l0,20.09-8.17,8.09h-7V900.59l0-2.17s0-1.69,0-2.22a7,7,0,0,0-1.13-2.82l1.87-1.83,14.42.06V895Z" transform="translate(-455.3 -173.5)"/><path class="cls-8" d="M1001.11,940.23" transform="translate(-455.3 -173.5)"/><polyline class="cls-8" points="545.8 766.73 546.68 770.05 562.12 770.05 561.17 766.72 545.8 766.73"/><path class="cls-8" d="M981.24,945.62l-1.86,6.18h24.9l-1.9-6.71h15.48s10.82,36,11.47,38.82c.5,2.1.36,6.63-4.26,8.08-5.48,1.71-7.65-.2-9-2.6-.7-1.19-7.3-22-7.3-22H974.87s-5.44,18.13-6.57,21.64c-.41,1.26-2.06,4.62-9,3.48-7.4-1.22-4.87-10.47-4.87-10.47l11.23-36.95.46-1.5,1.32-4.35,5.28,6.28Z" transform="translate(-455.3 -173.5)"/><polygon class="cls-8" points="518.38 770.09 526.55 770.09 527.56 766.72 520.18 766.72 514.07 759.48 512.79 763.69 518.38 770.09"/><path class="cls-8" d="M970,931.14s15.3-52.26,15.55-53c.54-1.68,2.16-3.06,6.37-3.06,3.69,0,5.7,1.24,6.4,3.06.21.55,17.71,60.52,17.71,60.52h-15.31l-8.56-28.82-8.8,28.85h-7Z" transform="translate(-455.3 -173.5)"/><path class="cls-8" d="M1046.51,878v28.13c-1.28-1.65-3.38-3.82-6.12-7.1v-18c0-.73.61-1.75,1.85-3.07a11.75,11.75,0,0,1,4.27-3.17Zm39.62,83.09h-15.48V945h15.48Zm0,3.27h-15.48v-1.64h15.48Zm0,3.28h-15.48V966h15.48Zm0,3.17h-15.45l0-1.65h15.48Zm0,3.28h-15.48v-1.64h15.48Zm0,3.28h-15.48v-1.51h15.48Zm0,3.13h-15.48V979h15.48Zm-15.48,6.32v-4.66h15.48v4.52c0,2.89-3.11,6-7.81,6S1070.65,989.54,1070.65,986.83Z" transform="translate(-455.3 -173.5)"/><path class="cls-8" d="M1070.65,938.94h15.48v-2.87L1116.25,899l-.07-18.54s-1.08-5.42-7.69-5.39a7.22,7.22,0,0,0-7.44,6v11.63l-22.73,28.46-22.17-28.53s-.2-8.45-.15-11.28c.06-3.63-3.79-5.72-3.79-5.72l0,37,18.39,23.47Z" transform="translate(-455.3 -173.5)"/></svg>