<?xml version="1.0" encoding="UTF-8"?><!DOCTYPE svg PUBLIC "-//W3C//DTD SVG 1.1//EN" "http://www.w3.org/Graphics/SVG/1.1/DTD/svg11.dtd">
<svg xmlns="http://www.w3.org/2000/svg" xmlns:xlink="http://www.w3.org/1999/xlink"><defs><clipPath id="actions-trash_clip0_8677_1443"><rect width="24" height="24" fill="white"/></clipPath><clipPath id="api_clip0_8916_971"><rect width="24" height="24" fill="white"/></clipPath><clipPath id="notifications-invoice-failure_clip"><rect width="24" height="24" fill="white"/></clipPath><clipPath id="notifications-invoice-settled_clip"><rect width="24" height="24" fill="white"/></clipPath><clipPath id="notifications-payout-approved_clip"><rect width="24" height="24" fill="white"/></clipPath><clipPath id="notifications-payout_clip"><rect width="24" height="24" fill="white"/></clipPath></defs>
<symbol id="actions-add" viewBox="0 0 24 24" fill="none"><line x1="11.7084" y1="5.875" x2="11.7084" y2="18.125" stroke="currentColor" stroke-width="1.75" stroke-linecap="round"/><line x1="18.125" y1="11.7083" x2="5.875" y2="11.7083" stroke="currentColor" stroke-width="1.75" stroke-linecap="round"/></symbol>
<symbol id="actions-archive" viewBox="0 0 24 24" fill="none"><path d="M4.61536 7.38461C4.84258 7.38461 14.5562 7.38461 19.3846 7.38461" stroke="currentColor" stroke-width="1.5" stroke-linecap="round"/><path d="M20 18.5V7.787C20 7.32766 19.8419 6.88232 19.5522 6.52582L17.9502 4.55411C17.6654 4.20355 17.2377 4 16.786 4H7.21396C6.76226 4 6.33462 4.20355 6.04978 4.55411L4.44777 6.52582C4.15811 6.88232 4 7.32766 4 7.787V18.5C4 19.3284 4.67157 20 5.5 20H18.5C19.3284 20 20 19.3284 20 18.5Z" stroke="currentColor" stroke-width="1.5"/><path d="M12 11V16M12 16L9.53845 13.5385M12 16L14.7692 13.5385" stroke="currentColor" stroke-width="1.5" stroke-linecap="round"/></symbol>
<symbol id="actions-comment" viewBox="0 0 24 24" fill="none"><path d="M20 15.625V5.875C20 5.04657 19.3284 4.375 18.5 4.375H12H5.5C4.67157 4.375 4 5.04657 4 5.875V15.625C4 16.4534 4.67157 17.125 5.5 17.125H9.5L12 19.625L14.5 17.125H18.5C19.3284 17.125 20 16.4534 20 15.625Z" stroke="currentColor" stroke-width="1.5"/><path d="M8.5 8.875H15.5" stroke="currentColor" stroke-width="1.5" stroke-linecap="round"/><path d="M8.5 12.625H15.5" stroke="currentColor" stroke-width="1.5" stroke-linecap="round"/></symbol>
<symbol id="actions-copy" viewBox="0 0 16 16" fill="none"><path d="M13.3333 6H7.33333C6.59695 6 6 6.59695 6 7.33333V13.3333C6 14.0697 6.59695 14.6667 7.33333 14.6667H13.3333C14.0697 14.6667 14.6667 14.0697 14.6667 13.3333V7.33333C14.6667 6.59695 14.0697 6 13.3333 6Z" stroke="currentColor" stroke-width="1.5" stroke-linecap="round" stroke-linejoin="round"/><path d="M3.33203 10.0007H2.66536C2.31174 10.0007 1.9726 9.86018 1.72256 9.61013C1.47251 9.36008 1.33203 9.02094 1.33203 8.66732V2.66732C1.33203 2.3137 1.47251 1.97456 1.72256 1.72451C1.9726 1.47446 2.31174 1.33398 2.66536 1.33398H8.66536C9.01899 1.33398 9.35813 1.47446 9.60817 1.72451C9.85822 1.97456 9.9987 2.3137 9.9987 2.66732V3.33398" stroke="currentColor" stroke-width="1.5" stroke-linecap="round" stroke-linejoin="round"/></symbol>
<symbol id="actions-drag" viewBox="0 0 24 24" fill="none"><rect x="8.5" y="4" width="2.5" height="2.5" fill="currentColor"/><rect x="13" y="4" width="2.5" height="2.5" fill="currentColor"/><rect x="8.5" y="8.5" width="2.5" height="2.5" fill="currentColor"/><rect x="13" y="8.5" width="2.5" height="2.5" fill="currentColor"/><rect x="8.5" y="13" width="2.5" height="2.5" fill="currentColor"/><rect x="13" y="13" width="2.5" height="2.5" fill="currentColor"/><rect x="8.5" y="17.5" width="2.5" height="2.5" fill="currentColor"/><rect x="13" y="17.5" width="2.5" height="2.5" fill="currentColor"/></symbol>
<symbol id="actions-email" viewBox="0 0 24 24" fill="none"><rect x="4" y="5.5" width="16" height="13" rx="2" stroke="currentColor" stroke-width="1.5"/><path d="M4 9L12 13L20 9" stroke="currentColor" stroke-width="1.5"/></symbol>
<symbol id="actions-hide" viewBox="0 0 24 24" fill="none"><path d="M4.14258 6.31C4.25933 6.14908 4.43519 6.0411 4.63152 6.00978C4.82784 5.97847 5.02857 6.02638 5.18958 6.143L19.6896 16.643C19.7724 16.6995 19.8431 16.7721 19.8973 16.8564C19.9516 16.9407 19.9885 17.0351 20.0057 17.1339C20.0229 17.2326 20.0201 17.3339 19.9975 17.4316C19.9748 17.5293 19.9329 17.6214 19.874 17.7026C19.8152 17.7838 19.7406 17.8524 19.6548 17.9043C19.569 17.9562 19.4737 17.9903 19.3744 18.0047C19.2752 18.0191 19.1741 18.0134 19.077 17.9881C18.98 17.9627 18.8891 17.9181 18.8096 17.857L16.5616 16.229C15.3456 17.19 13.7916 18 11.9996 18C10.0186 18 8.32958 17.008 7.06658 15.922C5.79658 14.832 4.87958 13.577 4.42958 12.9C4.2521 12.634 4.15738 12.3213 4.15738 12.0015C4.15738 11.6817 4.2521 11.369 4.42958 11.103C4.78258 10.57 5.42458 9.683 6.29758 8.798L4.30958 7.357C4.14866 7.24025 4.04068 7.06439 4.00937 6.86807C3.97805 6.67174 4.02597 6.47101 4.14258 6.31ZM5.67858 11.932C5.66451 11.9519 5.65684 11.9756 5.65658 12C5.65658 12.021 5.66258 12.045 5.67858 12.068C6.09058 12.689 6.92058 13.818 8.04458 14.785C9.17458 15.758 10.5266 16.5 11.9996 16.5C13.1946 16.5 14.3096 16.012 15.2896 15.309L13.0626 13.695C12.7249 13.9071 12.3316 14.0134 11.9331 14.0003C11.5346 13.9872 11.1491 13.8553 10.8261 13.6215C10.5031 13.3878 10.2574 13.0628 10.1205 12.6883C9.98351 12.3138 9.96162 11.907 10.0576 11.52L7.52858 9.688C6.83678 10.3707 6.21686 11.1227 5.67858 11.932ZM11.9996 7.5C11.4836 7.5 10.9826 7.59 10.5006 7.751C10.4065 7.78486 10.3065 7.79955 10.2066 7.79421C10.1067 7.78886 10.0089 7.76358 9.91894 7.71987C9.82896 7.67615 9.74864 7.61488 9.6827 7.53965C9.61677 7.46443 9.56654 7.37677 9.53499 7.28185C9.50344 7.18692 9.49119 7.08664 9.49898 6.98691C9.50676 6.88718 9.53442 6.79002 9.58032 6.70114C9.62622 6.61226 9.68943 6.53346 9.76625 6.46938C9.84306 6.40529 9.93191 6.35723 10.0276 6.328C10.6629 6.11284 11.3288 6.00207 11.9996 6C13.9806 6 15.6696 6.992 16.9326 8.078C18.2026 9.169 19.1196 10.423 19.5696 11.101C19.7472 11.3672 19.8419 11.68 19.8419 12C19.8419 12.32 19.7472 12.6328 19.5696 12.899C19.4596 13.065 19.3216 13.264 19.1596 13.486C19.1013 13.5654 19.028 13.6327 18.9438 13.6838C18.8596 13.7349 18.7661 13.7689 18.6688 13.7839C18.5714 13.7989 18.4721 13.7946 18.3764 13.7712C18.2807 13.7478 18.1905 13.7057 18.1111 13.6475C18.0316 13.5893 17.9644 13.5159 17.9133 13.4317C17.8622 13.3475 17.8282 13.2541 17.8132 13.1567C17.7982 13.0593 17.8025 12.96 17.8259 12.8643C17.8493 12.7686 17.8913 12.6784 17.9496 12.599C18.0976 12.398 18.2216 12.217 18.3206 12.069C18.3347 12.0489 18.3423 12.025 18.3423 12.0005C18.3423 11.976 18.3347 11.9521 18.3206 11.932C17.9086 11.311 17.0786 10.182 15.9546 9.215C14.8246 8.242 13.4726 7.5 11.9996 7.5Z" fill="currentColor"/></symbol>
<symbol id="actions-refresh" viewBox="0 0 24 24" fill="none"><path d="M4.57495 13.0714C5.09484 16.706 8.22064 19.5 11.999 19.5C14.5477 19.5 16.7994 18.2287 18.1547 16.2857M19.423 10.9286C18.9032 7.29397 15.7774 4.5 11.999 4.5C9.22294 4.5 6.79915 6.00824 5.50237 8.25" stroke="currentColor" stroke-width="1.75" stroke-linecap="round"/><path d="M15.9097 15.2143H19.124V18.4286" stroke="currentColor" stroke-width="1.75" stroke-linecap="round"/><path d="M8.08826 8.78571L4.87397 8.78571L4.87397 5.57143" stroke="currentColor" stroke-width="1.75" stroke-linecap="round"/></symbol>
<symbol id="actions-remove" viewBox="0 0 16 16" fill="none"><path d="m 12.130988,3.8368041 c 0.1405,0.14063 0.2194,0.33125 0.2194,0.53 0,0.19875 -0.0789,0.38937 -0.2194,0.53 0,0 -7.1796704,7.1797099 -7.2499804,7.2499599 -0.4782845,0.337104 -0.6862778,0.290768 -1.06,0 -0.3737222,-0.290768 -0.019811,-1.025771 -0.019811,-1.025771 L 11.070988,3.8368041 c 0.1406,-0.14045 0.3313,-0.21934 0.53,-0.21934 0.1988,0 0.3894,0.07889 0.53,0.21934 z" fill="currentColor"/><path d="m 12.130987,12.163196 c 0.1405,-0.14063 0.2194,-0.33125 0.2194,-0.53 0,-0.19875 -0.0789,-0.38937 -0.2194,-0.53 0,0 -7.1796692,-7.1797105 -7.2499792,-7.2499605 -0.4782845,-0.337104 -0.6862778,-0.290768 -1.06,0 -0.3737222,0.290768 -0.019811,1.025771 -0.019811,1.025771 l 7.2697902,7.2841895 c 0.1406,0.14045 0.3313,0.21934 0.53,0.21934 0.1988,0 0.3894,-0.07889 0.53,-0.21934 z" fill="currentColor"/></symbol>
<symbol id="actions-search" viewBox="0 0 24 24" fill="none"><circle cx="11.5" cy="11.75" r="6.25" stroke="currentColor" stroke-width="1.5"/><path d="M16.5 16.25L19.5 19.25" stroke="currentColor" stroke-width="1.5" stroke-linecap="round"/></symbol>
<symbol id="actions-send" viewBox="0 0 24 24" fill="none"><path d="M18 6L6 18" stroke="currentColor" stroke-width="2" stroke-miterlimit="10" stroke-linecap="round" stroke-linejoin="round"/><path d="M18 16.8L18 6L7.2 6" stroke="currentColor" stroke-width="2" stroke-miterlimit="10" stroke-linecap="round" stroke-linejoin="round"/></symbol>
<symbol id="actions-show" viewBox="0 0 24 24" fill="none"><path d="M12 9.49994C11.6649 9.47292 11.3278 9.51905 11.0122 9.63513C10.6967 9.75121 10.4101 9.93448 10.1723 10.1722C9.93459 10.41 9.75133 10.6966 9.63524 11.0122C9.51916 11.3277 9.47304 11.6648 9.50006 11.9999C9.47304 12.3351 9.51916 12.6721 9.63524 12.9877C9.75133 13.3033 9.93459 13.5899 10.1723 13.8276C10.4101 14.0654 10.6967 14.2487 11.0122 14.3648C11.3278 14.4808 11.6649 14.527 12 14.4999C12.3352 14.527 12.6722 14.4808 12.9878 14.3648C13.3034 14.2487 13.59 14.0654 13.8277 13.8276C14.0655 13.5899 14.2487 13.3033 14.3648 12.9877C14.4809 12.6721 14.527 12.3351 14.5 11.9999C14.527 11.6648 14.4809 11.3277 14.3648 11.0122C14.2487 10.6966 14.0655 10.41 13.8277 10.1722C13.59 9.93448 13.3034 9.75121 12.9878 9.63513C12.6722 9.51905 12.3352 9.47292 12 9.49994Z" fill="currentColor"/><path d="M20.1771 11.6775C20.0666 11.446 17.4116 6 12.0001 6C6.58857 6 3.93357 11.446 3.82307 11.6775L3.66907 12L3.82257 12.3225C3.93357 12.554 6.58857 18 12.0001 18C17.4116 18 20.0666 12.554 20.1771 12.3225L20.3311 12L20.1771 11.6775ZM12.0001 16.5C8.22957 16.5 5.97057 13.08 5.35007 12C5.97007 10.919 8.22857 7.5 12.0001 7.5C15.7716 7.5 18.0286 10.9185 18.6501 12C18.0286 13.0815 15.7696 16.5 12.0001 16.5Z" fill="currentColor"/></symbol>
<symbol id="actions-sort-alpha-asc" viewBox="0 0 24 24" fill="none"><path d="M8.70845 5.34099C8.50844 5.12459 8.22975 5 7.93466 5C7.63957 5 7.36088 5.12459 7.16087 5.34099L4.27556 8.4886C3.88539 8.91484 3.91162 9.58043 4.34114 9.9706C4.77065 10.3608 5.43296 10.3345 5.82314 9.90503L6.88545 8.74763V18.6397C6.88545 19.22 7.35432 19.6889 7.93466 19.6889C8.515 19.6889 8.98386 19.22 8.98386 18.6397V8.74763L10.0462 9.90831C10.4364 10.3345 11.1019 10.3641 11.5282 9.97388C11.9544 9.58371 11.9839 8.91812 11.5938 8.49188L8.70845 5.34427V5.34099ZM13.1807 14.4428C13.1807 15.0232 13.6495 15.492 14.2299 15.492H15.8922L13.4856 17.8987C13.184 18.2003 13.0954 18.6495 13.2594 19.0429C13.4233 19.4364 13.8036 19.6921 14.2299 19.6921H18.4267C19.007 19.6921 19.4759 19.2233 19.4759 18.6429C19.4759 18.0626 19.007 17.5937 18.4267 17.5937H16.7644L19.171 15.1871C19.4726 14.8855 19.5612 14.4363 19.3972 14.0428C19.2333 13.6494 18.8529 13.3936 18.4267 13.3936H14.2299C13.6495 13.3936 13.1807 13.8625 13.1807 14.4428ZM16.3283 5C15.9316 5 15.5676 5.22296 15.3906 5.58034L13.2922 9.77716L12.7676 10.8264C12.5085 11.3444 12.7184 11.9739 13.2364 12.233C13.7545 12.492 14.384 12.2821 14.643 11.7641L14.8791 11.2952H17.7775L18.0136 11.7641C18.2726 12.2821 18.9021 12.492 19.4202 12.233C19.9382 11.9739 20.148 11.3444 19.889 10.8264L19.3644 9.77716L17.266 5.58034C17.089 5.22296 16.725 5 16.3283 5ZM15.666 9.72142L16.3283 8.3968L16.9906 9.72142H15.666Z" fill="currentColor"/></symbol>
<symbol id="actions-sort-alpha-desc" viewBox="0 0 24 24" fill="none"><path d="M8.70845 18.9979C8.50844 19.2143 8.22975 19.3388 7.93466 19.3388C7.63957 19.3388 7.36088 19.2143 7.16087 18.9979L4.27556 15.8502C3.88539 15.424 3.91162 14.7584 4.34114 14.3682C4.77065 13.9781 5.43296 14.0043 5.82314 14.4338L6.88545 15.5912V5.6992C6.88545 5.11886 7.35432 4.64999 7.93466 4.64999C8.515 4.64999 8.98386 5.11886 8.98386 5.6992V15.5912L10.0462 14.4305C10.4364 14.0043 11.1019 13.9748 11.5282 14.365C11.9544 14.7551 11.9839 15.4207 11.5938 15.847L8.70845 18.9946V18.9979ZM13.1807 14.0928C13.1807 13.5125 13.6495 13.0436 14.2299 13.0436H18.4267C18.8497 13.0436 19.2333 13.2994 19.3972 13.6928C19.5612 14.0863 19.4693 14.5355 19.171 14.8371L16.7644 17.2404H18.4267C19.007 17.2404 19.4759 17.7093 19.4759 18.2896C19.4759 18.87 19.007 19.3388 18.4267 19.3388H14.2299C13.8069 19.3388 13.4233 19.0831 13.2594 18.6897C13.0954 18.2962 13.1872 17.847 13.4856 17.5454L15.8922 15.142H14.2299C13.6495 15.142 13.1807 14.6732 13.1807 14.0928ZM16.3283 4.64999C16.725 4.64999 17.089 4.87295 17.266 5.23033L19.3644 9.42715L19.889 10.4764C20.148 10.9944 19.9382 11.6239 19.4202 11.8829C18.9021 12.142 18.2726 11.9321 18.0136 11.4141L17.7775 10.9452H14.8791L14.643 11.4141C14.384 11.9321 13.7545 12.142 13.2364 11.8829C12.7184 11.6239 12.5085 10.9944 12.7676 10.4764L13.2922 9.42715L15.3906 5.23033C15.5676 4.87295 15.9316 4.64999 16.3283 4.64999ZM15.666 9.37141H16.9906L16.3283 8.04679L15.666 9.37141Z" fill="currentColor"/></symbol>
<symbol id="actions-sort-asc-alt" viewBox="0 0 24 24" fill="none"><path d="M16.1893 11C16.8575 11 17.1921 10.1921 16.7197 9.71967L12.5303 5.53033C12.2374 5.23744 11.7626 5.23744 11.4697 5.53033L7.28033 9.71967C6.80786 10.1921 7.14248 11 7.81066 11L16.1893 11Z" fill="currentColor"/></symbol>
<symbol id="actions-sort-asc" viewBox="0 0 24 24" fill="none"><path d="M16.1893 11C16.8575 11 17.1921 10.1921 16.7197 9.71967L12.5303 5.53033C12.2374 5.23744 11.7626 5.23744 11.4697 5.53033L7.28033 9.71967C6.80786 10.1921 7.14248 11 7.81066 11L16.1893 11Z" fill="currentColor"/><path d="M7.81066 13C7.14248 13 6.80786 13.8079 7.28033 14.2803L11.4697 18.4697C11.7626 18.7626 12.2374 18.7626 12.5303 18.4697L16.7197 14.2803C17.1921 13.8079 16.8575 13 16.1893 13H7.81066Z" fill="#8f979e" fill-opacity=".8"/></symbol>
<symbol id="actions-sort-desc-alt" viewBox="0 0 24 24" fill="none"><path d="M7.81066 13C7.14248 13 6.80786 13.8079 7.28033 14.2803L11.4697 18.4697C11.7626 18.7626 12.2374 18.7626 12.5303 18.4697L16.7197 14.2803C17.1921 13.8079 16.8575 13 16.1893 13H7.81066Z" fill="currentColor"/></symbol>
<symbol id="actions-sort-desc" viewBox="0 0 24 24" fill="none"><path d="M16.1893 11C16.8575 11 17.1921 10.1921 16.7197 9.71967L12.5303 5.53033C12.2374 5.23744 11.7626 5.23744 11.4697 5.53033L7.28033 9.71967C6.80786 10.1921 7.14248 11 7.81066 11L16.1893 11Z" fill="#8f979e" fill-opacity=".8"/><path d="M7.81066 13C7.14248 13 6.80786 13.8079 7.28033 14.2803L11.4697 18.4697C11.7626 18.7626 12.2374 18.7626 12.5303 18.4697L16.7197 14.2803C17.1921 13.8079 16.8575 13 16.1893 13H7.81066Z" fill="currentColor"/></symbol>
<symbol id="actions-sort" viewBox="0 0 24 24" fill="none"><path d="M16.1893 11C16.8575 11 17.1921 10.1921 16.7197 9.71967L12.5303 5.53033C12.2374 5.23744 11.7626 5.23744 11.4697 5.53033L7.28033 9.71967C6.80786 10.1921 7.14248 11 7.81066 11L16.1893 11Z" fill="#8f979e" fill-opacity=".8"/><path d="M7.81066 13C7.14248 13 6.80786 13.8079 7.28033 14.2803L11.4697 18.4697C11.7626 18.7626 12.2374 18.7626 12.5303 18.4697L16.7197 14.2803C17.1921 13.8079 16.8575 13 16.1893 13H7.81066Z" fill="#8f979e" fill-opacity=".8"/></symbol>
<symbol id="actions-trash" viewBox="0 0 24 24" fill="none"><g clip-path="url(#clip0_8677_1443)"><path d="M10 16V9" stroke="currentColor" stroke-width="1.5" stroke-linecap="square"/><path d="M14 16V9" stroke="currentColor" stroke-width="1.5" stroke-linecap="square"/><path d="M6 5H18V18.5C18 19.3284 17.3284 20 16.5 20H7.5C6.67157 20 6 19.3284 6 18.5V5Z" stroke="currentColor" stroke-width="1.5"/><path d="M5 5H19" stroke="currentColor" stroke-width="1.5" stroke-linecap="square"/><rect x="9" y="3" width="6" height="2" fill="currentColor"/></g></symbol>
<symbol id="api" viewBox="0 0 24 24" fill="none"><g clip-path="url(#clip0_8916_971)"><path d="M19 3H5C3.9 3 3 3.9 3 5V19C3 20.1 3.9 21 5 21H19C20.1 21 21 20.1 21 19V5C21 3.9 20.1 3 19 3ZM14 17H7V15H14V17ZM17 13H7V11H17V13ZM17 9H7V7H17V9Z" fill="currentColor"/></g></symbol>
<symbol id="back" viewBox="0 0 24 24" fill="none"><path d="M11.67 19.545C11.4591 19.7557 11.1731 19.874 10.875 19.874C10.5769 19.874 10.2909 19.7557 10.08 19.545L3.705 13.17C3.49433 12.9591 3.37599 12.6731 3.37599 12.375C3.37599 12.0769 3.49433 11.7909 3.705 11.58L10.08 5.205C10.2934 5.00638 10.5755 4.89823 10.8669 4.90326C11.1584 4.9083 11.4366 5.02613 11.643 5.232C11.8489 5.4384 11.9667 5.71658 11.9717 6.00805C11.9768 6.29953 11.8686 6.58161 11.67 6.795L7.215 11.25L18.375 11.25C18.6734 11.25 18.9595 11.3685 19.1705 11.5795C19.3815 11.7905 19.5 12.0766 19.5 12.375C19.5 12.6734 19.3815 12.9595 19.1705 13.1705C18.9595 13.3815 18.6734 13.5 18.375 13.5L7.215 13.5L11.67 17.955C11.8807 18.1659 11.999 18.4519 11.999 18.75C11.999 19.0481 11.8807 19.3341 11.67 19.545Z" fill="currentColor"/></symbol>
<symbol id="block" viewBox="0 0 24 24" fill="none"><path d="M12.0002 10.2354L4.73633 7.38747M12.0002 10.2354L19.2642 7.38747M12.0002 10.2354V19.5M5.21166 7.01614L11.2783 4.6375C11.7412 4.45417 12.2566 4.45417 12.7196 4.6375L18.7862 7.01614C19.0023 7.1083 19.1858 7.26312 19.3131 7.46062C19.4404 7.65812 19.5055 7.88923 19.5002 8.12413V15.876C19.5058 16.1106 19.441 16.3415 19.3142 16.539C19.1874 16.7365 19.0045 16.8915 18.7888 16.984L12.7222 19.3633C12.259 19.5453 11.7441 19.5453 11.2809 19.3633L5.21433 16.984C4.9982 16.8919 4.81466 16.737 4.68739 16.5395C4.56012 16.342 4.49496 16.1109 4.50033 15.876V8.12413C4.49475 7.88953 4.55951 7.65864 4.68628 7.46117C4.81305 7.26371 4.99603 7.10871 5.21166 7.01614Z" stroke="currentColor" stroke-width="1.5" stroke-linecap="round" stroke-linejoin="round"/></symbol>
<symbol id="calendar" viewBox="0 0 24 24" fill="none"><rect x="4" y="5" width="16" height="15" rx="1.5" stroke="currentColor" stroke-width="1.75"/><path d="M8 3V7" stroke="currentColor" stroke-width="1.75"/><path d="M8 10V12" stroke="currentColor" stroke-width="2"/><path d="M8 14V16" stroke="currentColor" stroke-width="2"/><path d="M12 10V12" stroke="currentColor" stroke-width="2"/><path d="M12 14V16" stroke="currentColor" stroke-width="2"/><path d="M16 10V12" stroke="currentColor" stroke-width="2"/><path d="M16 3V7" stroke="currentColor" stroke-width="1.75"/></symbol>
<symbol id="caret-down" viewBox="0 0 24 24" fill="none"><path d="M7 9.5L12 14.5L17 9.5" stroke="currentColor" stroke-width="2" stroke-linecap="round" stroke-linejoin="round" fill="none"/></symbol>
<symbol id="caret-left" viewBox="0 0 24 24" fill="none"><path d="M7.92303 12.0039C7.92303 12.3233 8.03989 12.5882 8.28919 12.8375L14.2881 18.704C14.4906 18.9065 14.7322 19 15.0204 19C15.6047 19 16.08 18.5403 16.08 17.956C16.08 17.6678 15.9553 17.4029 15.745 17.1925L10.4161 12.0117L15.745 6.81525C15.9553 6.6049 16.08 6.3478 16.08 6.05175C16.08 5.46745 15.6047 5 15.0204 5C14.7322 5 14.4906 5.10128 14.2881 5.30384L8.28919 11.1703C8.0321 11.4196 7.92303 11.6845 7.92303 12.0039Z" fill="currentColor"/></symbol>
<symbol id="caret-right" viewBox="0 0 24 24" fill="none"><path d="M9.5 17L14.5 12L9.5 7" stroke="currentColor" stroke-width="2" stroke-linecap="round" stroke-linejoin="round" fill="none"/></symbol>
<symbol id="caret-up" viewBox="0 0 24 24" fill="none"><path d="M11.9961 7.92307C11.6767 7.92307 11.4118 8.03994 11.1625 8.28924L5.29605 14.2881C5.09349 14.4907 5 14.7322 5 15.0205C5 15.6048 5.45965 16.08 6.04396 16.08C6.33222 16.08 6.59711 15.9553 6.80746 15.745L11.9883 10.4161L17.1848 15.745C17.3951 15.9553 17.6522 16.08 17.9482 16.08C18.5326 16.08 19 15.6048 19 15.0205C19 14.7322 18.8987 14.4907 18.6962 14.2881L12.8297 8.28924C12.5804 8.03214 12.3155 7.92307 11.9961 7.92307Z" fill="currentColor"/></symbol>
<symbol id="checkmark" viewBox="0 0 16 16" fill="none"><path fill-rule="evenodd" clip-rule="evenodd" d="M13.7808 4.21934C13.9213 4.35997 14.0002 4.55059 14.0002 4.74934C14.0002 4.94809 13.9213 5.13871 13.7808 5.27934L6.53082 12.5293C6.3902 12.6698 6.19957 12.7487 6.00082 12.7487C5.80207 12.7487 5.61145 12.6698 5.47082 12.5293L2.22082 9.27934C2.08834 9.13717 2.01622 8.94912 2.01965 8.75482C2.02308 8.56052 2.10179 8.37513 2.2392 8.23772C2.37661 8.10031 2.562 8.02159 2.7563 8.01816C2.9506 8.01474 3.13865 8.08686 3.28082 8.21934L6.00082 10.9393L12.7208 4.21934C12.8614 4.07889 13.0521 4 13.2508 4C13.4496 4 13.6402 4.07889 13.7808 4.21934Z" fill="currentColor"/></symbol>
<symbol id="checkout-complete" viewBox="0 0 48 48" fill="none"><path d="M47 24a22.5 22.5 0 1 1-45 0 22.5 22.5 0 0 1 45 0Z" stroke="currentColor" stroke-width="3"/><path d="m15.23 24.8 7.1 7.1 12.8-12.8" stroke="currentColor" stroke-width="3" stroke-linecap="round" stroke-linejoin="round"/></symbol>
<symbol id="checkout-expired" viewBox="0 0 48 48" fill="none"><circle cx="24" cy="24" r="22.5" stroke="currentColor" stroke-width="3"/><path d="m17 31 14-14m-14 0 14 14" stroke="currentColor" stroke-width="3" stroke-linecap="round" stroke-linejoin="round"/></symbol>
<symbol id="checkout-sent" viewBox="0 0 48 48" fill="none"><circle cx="24" cy="24" r="22.5" stroke="currentColor" stroke-width="3"/><path d="M24 16v16m5.71-10.29L24 16l-6.29 6.29" stroke="currentColor" stroke-width="3" stroke-miterlimit="10" stroke-linecap="round" stroke-linejoin="round"/></symbol>
<symbol id="close" viewBox="0 0 16 16" fill="none"><path d="M9.38526 8.08753L15.5498 1.85558C15.9653 1.43545 15.9653 0.805252 15.5498 0.385121C15.1342 -0.0350102 14.5108 -0.0350102 14.0952 0.385121L7.93072 6.61707L1.76623 0.315098C1.35065 -0.105033 0.727273 -0.105033 0.311688 0.315098C-0.103896 0.73523 -0.103896 1.36543 0.311688 1.78556L6.47618 8.0175L0.311688 14.2495C-0.103896 14.6696 -0.103896 15.2998 0.311688 15.7199C0.519481 15.93 0.796499 16 1.07355 16C1.35061 16 1.62769 15.93 1.83548 15.7199L7.99997 9.48797L14.1645 15.7199C14.3722 15.93 14.6493 16 14.9264 16C15.2034 16 15.4805 15.93 15.6883 15.7199C16.1039 15.2998 16.1039 14.6696 15.6883 14.2495L9.38526 8.08753Z" fill="currentColor"/></symbol>
<symbol id="cross" viewBox="0 0 16 16" fill="none"><path d="m 12.130988,3.8368041 c 0.1405,0.14063 0.2194,0.33125 0.2194,0.53 0,0.19875 -0.0789,0.38937 -0.2194,0.53 0,0 -7.1796704,7.1797099 -7.2499804,7.2499599 -0.4782845,0.337104 -0.6862778,0.290768 -1.06,0 -0.3737222,-0.290768 -0.019811,-1.025771 -0.019811,-1.025771 L 11.070988,3.8368041 c 0.1406,-0.14045 0.3313,-0.21934 0.53,-0.21934 0.1988,0 0.3894,0.07889 0.53,0.21934 z" fill="currentColor"/><path d="m 12.130987,12.163196 c 0.1405,-0.14063 0.2194,-0.33125 0.2194,-0.53 0,-0.19875 -0.0789,-0.38937 -0.2194,-0.53 0,0 -7.1796692,-7.1797105 -7.2499792,-7.2499605 -0.4782845,-0.337104 -0.6862778,-0.290768 -1.06,0 -0.3737222,0.290768 -0.019811,1.025771 -0.019811,1.025771 l 7.2697902,7.2841895 c 0.1406,0.14045 0.3313,0.21934 0.53,0.21934 0.1988,0 0.3894,-0.07889 0.53,-0.21934 z" fill="currentColor"/></symbol>
<symbol id="docs" viewBox="0 0 24 24" fill="none"><path fill-rule="evenodd" clip-rule="evenodd" d="M12 21C16.9698 21 21 16.9698 21 12C21 7.03024 16.9698 3 12 3C7.03024 3 3 7.03024 3 12C3 16.9698 7.03024 21 12 21ZM11.6224 11.9646L12.4916 11.2709C12.7814 11.0426 12.9833 10.8055 13.1063 10.5685C13.238 10.3314 13.2994 10.068 13.2994 9.76943C13.2994 9.40943 13.1941 9.11968 12.9658 8.91773C12.7375 8.71578 12.4214 8.61041 12.0087 8.61041C11.596 8.61041 11.2624 8.71578 11.0165 8.93529C10.7882 9.1548 10.6653 9.45334 10.6653 9.83968C10.6653 10.1274 10.4479 10.3896 10.1609 10.3688L9.29491 10.306C9.07189 10.2899 8.88238 10.128 8.85763 9.90576C8.84518 9.79403 8.83896 9.68747 8.83896 9.58504C8.83896 8.84748 9.12872 8.25919 9.69945 7.82017C10.2877 7.38992 11.0604 7.17041 12.0351 7.17041C13.0624 7.17041 13.8526 7.38114 14.4146 7.81139C14.9677 8.23285 15.2487 8.82992 15.2487 9.60261C15.2487 10.4631 14.836 11.2358 14.0194 11.9294L13.2555 12.5704C13.1063 12.7021 13.0009 12.8163 12.9394 12.9216C12.8868 13.0182 12.8604 13.1499 12.8604 13.3168C12.8604 13.5398 12.6796 13.7207 12.4565 13.7207H11.5165C11.2404 13.7207 11.0165 13.4968 11.0165 13.2207V13.1324C11.0165 12.8689 11.0692 12.6494 11.1658 12.4738C11.2712 12.2982 11.4204 12.1314 11.6224 11.9646ZM11.1658 16.5041C11.3765 16.7236 11.6575 16.8289 11.9824 16.8289C12.3248 16.8289 12.597 16.7236 12.8077 16.5041C13.0273 16.2846 13.1326 16.0124 13.1326 15.6787C13.1326 15.3363 13.0273 15.0641 12.8077 14.8446C12.597 14.625 12.3248 14.5197 11.9824 14.5197C11.6575 14.5197 11.3765 14.625 11.1658 14.8446C10.9551 15.0641 10.8497 15.3363 10.8497 15.6787C10.8497 16.0124 10.9551 16.2846 11.1658 16.5041Z" fill="currentColor"/></symbol>
<symbol id="donate" viewBox="0 0 24 24" fill="none"><path fill-rule="evenodd" clip-rule="evenodd" d="M11.6096 19.7794L11.6119 19.7805C11.7319 19.8425 11.865 19.8748 12 19.8748C12.135 19.8748 12.2681 19.8425 12.3881 19.7805L12 19.0312L12.3881 19.7794H12.3904L12.3971 19.776L12.4174 19.7648C13.9177 18.9434 15.3292 17.9692 16.6294 16.8577C18.6994 15.0724 21 12.3938 21 9.1875C21 6.1905 18.6532 4.125 16.2188 4.125C14.4784 4.125 12.9529 5.02725 12 6.3975C11.0471 5.02725 9.52163 4.125 7.78125 4.125C5.34675 4.125 3 6.1905 3 9.1875C3 12.3938 5.30062 15.0724 7.37063 16.8577C8.56919 17.8837 9.86279 18.793 11.2339 19.5735C11.3486 19.6399 11.4649 19.7037 11.5826 19.7648L11.6029 19.776L11.6096 19.7794Z" fill="currentColor"/></symbol>
<symbol id="done" viewBox="0 0 24 24" fill="none"><circle cx="12" cy="12" r="12" fill="#51B13E"/><path d="m7 12.14 3.55 3.54L17.5 9" stroke="#fff" stroke-width="2" stroke-linecap="round" stroke-linejoin="round"/></symbol>
<symbol id="dots" viewBox="0 0 16 16" fill="none"><path d="M2 6C0.9 6 0 6.9 0 8C0 9.1 0.9 10 2 10C3.1 10 4 9.1 4 8C4 6.9 3.1 6 2 6ZM14 6C12.9 6 12 6.9 12 8C12 9.1 12.9 10 14 10C15.1 10 16 9.1 16 8C16 6.9 15.1 6 14 6ZM8 6C6.9 6 6 6.9 6 8C6 9.1 6.9 10 8 10C9.1 10 10 9.1 10 8C10 6.9 9.1 6 8 6Z" fill="currentColor"/></symbol>
<symbol id="forms-checkbox" viewBox="0 0 24 24" fill="none"><rect x="1" y="1" width="22" height="22" rx="3" stroke="currentColor" stroke-width="2"/><path d="M7.5 12.5L10.9297 15.4397C10.9694 15.4737 11.0285 15.4715 11.0655 15.4345L17.5 9" stroke="currentColor" stroke-width="2" stroke-linecap="round"/></symbol>
<symbol id="forms-date" viewBox="0 0 24 24" fill="none"><rect x="1" y="4" width="22" height="19" rx="3" stroke="currentColor" stroke-width="2"/><path d="M6 1L6 3" stroke="currentColor" stroke-width="2" stroke-linecap="round"/><path d="M18 1L18 3" stroke="currentColor" stroke-width="2" stroke-linecap="round"/><path d="M5 9H19" stroke="currentColor" stroke-width="2" stroke-linecap="round"/></symbol>
<symbol id="forms-number" viewBox="0 0 24 24" fill="none"><rect x="1" y="1" width="22" height="22" rx="3" stroke="currentColor" stroke-width="2"/><path d="M15.5684 17H8.31543V15.2227L10.7559 12.7549C11.2617 12.2262 11.6536 11.8024 11.9316 11.4834C12.2142 11.1644 12.4124 10.8932 12.5264 10.6699C12.6403 10.4466 12.6973 10.2142 12.6973 9.97266C12.6973 9.67643 12.6016 9.46224 12.4102 9.33008C12.2188 9.19792 11.9932 9.13184 11.7334 9.13184C11.4189 9.13184 11.0999 9.22298 10.7764 9.40527C10.4574 9.58301 10.0951 9.84733 9.68945 10.1982L8.20605 8.46191C8.50684 8.19303 8.82585 7.93783 9.16309 7.69629C9.50033 7.4502 9.89909 7.24967 10.3594 7.09473C10.8197 6.93978 11.3802 6.8623 12.041 6.8623C12.7201 6.8623 13.3079 6.98079 13.8047 7.21777C14.306 7.45475 14.6934 7.7806 14.9668 8.19531C15.2402 8.60547 15.377 9.07259 15.377 9.59668C15.377 10.1755 15.2699 10.6927 15.0557 11.1484C14.846 11.5996 14.5293 12.0531 14.1055 12.5088C13.6816 12.96 13.153 13.4727 12.5195 14.0469L11.7881 14.7031V14.7715H15.5684V17Z" fill="currentColor"/></symbol>
<symbol id="forms-select" viewBox="0 0 24 24" fill="none"><path d="M1 4C1 2.34315 2.34315 1 4 1H17V20C17 21.6569 15.6569 23 14 23H4C2.34315 23 1 21.6569 1 20V4Z" stroke="currentColor" stroke-width="2"/><path d="M1 2C1 1.44772 1.44772 1 2 1H22C22.5523 1 23 1.44771 23 2V6C23 6.55228 22.5523 7 22 7H1V2Z" stroke="currentColor" stroke-width="2"/><path d="M6 12H12" stroke="currentColor" stroke-width="2" stroke-linecap="round"/><path d="M6 17H12" stroke="currentColor" stroke-width="2" stroke-linecap="round"/></symbol>
<symbol id="forms-text" viewBox="0 0 24 24" fill="none"><rect x="1" y="1" width="22" height="22" rx="3" stroke="currentColor" stroke-width="2"/><path d="M7 7.75H17" stroke="currentColor" stroke-width="2" stroke-linecap="round"/><path d="M12 8V16" stroke="currentColor" stroke-width="2" stroke-linecap="round"/></symbol>
<symbol id="info" viewBox="0 0 24 24" fill="none"><path fill-rule="evenodd" clip-rule="evenodd" d="M12 22.39c5.739 0 10.39-4.651 10.39-10.39C22.39 6.261 17.74 1.61 12 1.61 6.261 1.61 1.61 6.26 1.61 12c0 5.739 4.651 10.39 10.39 10.39zm0-2.597a7.793 7.793 0 1 0 0-15.586 7.793 7.793 0 0 0 0 15.586z" fill="currentColor"/><path d="M12 6.805a1.299 1.299 0 1 0 0 2.597 1.299 1.299 0 0 0 0-2.597zM10.701 12s0-1.299 1.299-1.299S13.299 12 13.299 12v3.897s0 1.298-1.299 1.298-1.299-1.298-1.299-1.298z" fill="currentColor"/></symbol>
<symbol id="key" viewBox="0 0 24 24" fill="none"><path fill-rule="evenodd" clip-rule="evenodd" d="M10.5 9.5C10.5003 8.65387 10.769 7.82965 11.2673 7.14583C11.7657 6.46202 12.468 5.95384 13.2733 5.69436C14.0787 5.43488 14.9456 5.43748 15.7494 5.70176C16.5532 5.96605 17.2525 6.47842 17.7467 7.1652C18.2409 7.85198 18.5047 8.6778 18.4999 9.52392C18.4952 10.37 18.2223 11.1929 17.7205 11.8741C17.2186 12.5553 16.5137 13.0599 15.707 13.3152C14.9003 13.5705 14.0334 13.5634 13.231 13.295C13.0989 13.2507 12.9571 13.2441 12.8214 13.2759C12.6858 13.3077 12.5617 13.3766 12.463 13.475L11.44 14.5H10.25C10.0511 14.5 9.86032 14.579 9.71967 14.7197C9.57902 14.8603 9.5 15.0511 9.5 15.25V16.44L9.44 16.5H8.25C8.05109 16.5 7.86032 16.579 7.71967 16.7197C7.57902 16.8603 7.5 17.0511 7.5 17.25V18.44L7.44 18.5H5.75C5.6837 18.5 5.62011 18.4737 5.57322 18.4268C5.52634 18.3799 5.5 18.3163 5.5 18.25V16.56L10.524 11.537C10.6226 11.4384 10.6917 11.3144 10.7237 11.1787C10.7556 11.0431 10.7492 10.9012 10.705 10.769C10.5686 10.3598 10.4994 9.93129 10.5 9.5ZM14.5 4C13.6681 3.99986 12.847 4.18843 12.0985 4.55153C11.35 4.91463 10.6937 5.44279 10.1788 6.09625C9.66398 6.74971 9.30409 7.51145 9.12623 8.32412C8.94837 9.13679 8.95718 9.97923 9.152 10.788L4.22 15.72C4.07931 15.8605 4.00018 16.0512 4 16.25V18.25C4 19.216 4.784 20 5.75 20H7.75C7.94885 19.9998 8.13948 19.9207 8.28 19.78L8.78 19.28C8.92069 19.1395 8.99983 18.9488 9 18.75V18H9.75C9.94885 17.9998 10.1395 17.9207 10.28 17.78L10.78 17.28C10.9207 17.1395 10.9998 16.9488 11 16.75V16H11.75C11.9488 15.9998 12.1395 15.9207 12.28 15.78L13.212 14.848C13.9672 15.0293 14.7523 15.0487 15.5155 14.9047C16.2787 14.7608 17.0028 14.4568 17.64 14.0128C18.2773 13.5689 18.8133 12.995 19.2128 12.3289C19.6123 11.6628 19.8662 10.9197 19.9577 10.1485C20.0493 9.37721 19.9765 8.59531 19.7441 7.85422C19.5117 7.11314 19.125 6.42968 18.6094 5.84883C18.0938 5.26798 17.461 4.80292 16.7527 4.48426C16.0444 4.16559 15.2767 4.00055 14.5 4ZM15 10C15.2652 10 15.5196 9.89464 15.7071 9.70711C15.8946 9.51957 16 9.26522 16 9C16 8.73478 15.8946 8.48043 15.7071 8.29289C15.5196 8.10536 15.2652 8 15 8C14.7348 8 14.4804 8.10536 14.2929 8.29289C14.1054 8.48043 14 8.73478 14 9C14 9.26522 14.1054 9.51957 14.2929 9.70711C14.4804 9.89464 14.7348 10 15 10Z" fill="currentColor"/></symbol>
<symbol id="lightning-node" viewBox="0 0 24 24" fill="none"><path d="M14 4C14 5.10457 13.1046 6 12 6C10.8954 6 10 5.10457 10 4C10 2.89543 10.8954 2 12 2C13.1046 2 14 2.89543 14 4Z" fill="currentColor"/><path d="M20 14C21.1046 14 22 13.1046 22 12C22 10.8954 21.1046 10 20 10C18.8954 10 18 10.8954 18 12C18 13.1046 18.8954 14 20 14Z" fill="currentColor"/><path d="M14 20C14 21.1046 13.1046 22 12 22C10.8954 22 10 21.1046 10 20C10 18.8954 10.8954 18 12 18C13.1046 18 14 18.8954 14 20Z" fill="currentColor"/><path d="M4 14C5.10457 14 6 13.1046 6 12C6 10.8954 5.10457 10 4 10C2.89543 10 2 10.8954 2 12C2 13.1046 2.89543 14 4 14Z" fill="currentColor"/><path d="M12 15C13.6569 15 15 13.6569 15 12C15 10.3431 13.6569 9 12 9C10.3431 9 9 10.3431 9 12C9 13.6569 10.3431 15 12 15Z" fill="currentColor"/></symbol>
<symbol id="lightning" viewBox="0 0 24 24" fill="none"><path d="M17.57 10.7c-.1-.23-.27-.34-.5-.34h-4.3l.5-3.76a.48.48 0 0 0-.33-.55.52.52 0 0 0-.66.17l-5.45 6.54a.59.59 0 0 0-.05.6c.1.17.27.28.49.28h4.3l-.49 3.76c-.05.22.11.5.33.55.06.05.17.05.22.05a.5.5 0 0 0 .44-.22l5.45-6.54c.1-.17.16-.39.05-.55Z" fill="currentColor"/></symbol>
<symbol id="lock" viewBox="0 0 24 24" fill="none"><path fill-rule="evenodd" clip-rule="evenodd" d="M8.13333 8.26667V10.4H7.86667C7.3716 10.4 6.8968 10.5967 6.54673 10.9467C6.19667 11.2968 6 11.7716 6 12.2667V18.1333C6 19.1637 6.83627 20 7.86667 20H16.9333C17.4284 20 17.9032 19.8033 18.2533 19.4533C18.6033 19.1032 18.8 18.6284 18.8 18.1333V12.2667C18.8 11.7716 18.6033 11.2968 18.2533 10.9467C17.9032 10.5967 17.4284 10.4 16.9333 10.4H16.6667V8.26667C16.6667 7.13508 16.2171 6.04983 15.417 5.24968C14.6168 4.44952 13.5316 4 12.4 4C11.2684 4 10.1832 4.44952 9.38301 5.24968C8.58286 6.04983 8.13333 7.13508 8.13333 8.26667ZM15.0667 10.4V8.26667C15.0667 7.55942 14.7857 6.88115 14.2856 6.38105C13.7855 5.88095 13.1072 5.6 12.4 5.6C11.6928 5.6 11.0145 5.88095 10.5144 6.38105C10.0143 6.88115 9.73333 7.55942 9.73333 8.26667V10.4H15.0667ZM16.6667 12H16.9333C17.0041 12 17.0719 12.0281 17.1219 12.0781C17.1719 12.1281 17.2 12.1959 17.2 12.2667V18.1333C17.2 18.2041 17.1719 18.2719 17.1219 18.3219C17.0719 18.3719 17.0041 18.4 16.9333 18.4H7.86667C7.79594 18.4 7.72811 18.3719 7.6781 18.3219C7.6281 18.2719 7.6 18.2041 7.6 18.1333V12.2667C7.6 12.1959 7.6281 12.1281 7.6781 12.0781C7.72811 12.0281 7.79594 12 7.86667 12H16.6667Z" fill="currentColor"/></symbol>
<symbol id="logo-btcpay" viewBox="0 0 24 24" fill="none"><g fill="currentColor" transform="matrix(0.27159594,0,0,0.27159594,5.6093989,0.60189406)"><path d="M 5.206,83.433 A 4.86,4.86 0 0 1 0.347,78.572 V 5.431 a 4.86,4.86 0 1 1 9.719,0 v 73.141 a 4.861,4.861 0 0 1 -4.86,4.861"/><path d="M 5.209,83.433 A 4.862,4.862 0 0 1 3.123,74.18 L 32.43,60.274 2.323,38.093 a 4.861,4.861 0 0 1 5.766,-7.826 l 36.647,26.999 a 4.864,4.864 0 0 1 -0.799,8.306 L 7.289,82.964 a 4.866,4.866 0 0 1 -2.08,0.469"/><path d="M 5.211,54.684 A 4.86,4.86 0 0 1 2.324,45.91 L 32.43,23.73 3.123,9.821 A 4.861,4.861 0 0 1 7.289,1.037 l 36.648,17.394 a 4.86,4.86 0 0 1 0.799,8.305 l -36.647,27 a 4.844,4.844 0 0 1 -2.878,0.948"/><path d="M 10.066,31.725 V 52.278 L 24.01,42.006 Z"/><path d="M 10.066,5.431 A 4.861,4.861 0 0 0 5.206,0.57 4.86,4.86 0 0 0 0.347,5.431 v 61.165 h 9.72 V 5.431 Z"/></g></symbol>
<symbol id="logo-lightningterminal" viewBox="0 0 28 55" fill="none"><g fill="currentColor"><path d="m27.25 30.5-15.9 23.2a.84.84 0 1 1-1.38-.96l15.9-23.19a.84.84 0 1 1 1.38.96zm-2.09-4.13L9.63 49.08a.84.84 0 0 1-1.39-.95l15.54-22.71a.84.84 0 0 1 1.38.95zm-4.72-24.8L2.43 27.9h16.9l-1.14 1.68H.36a.84.84 0 0 1-.22-1.15L19 .62A.84.84 0 0 1 20.16.4c.4.26.52.78.28 1.19z"/><path d="M22.12 6.62 10.24 23.99H22l-1.15 1.68H7.05l1.14-1.68 12.53-18.3a.84.84 0 0 1 1.39.93z"/></g></symbol>
<symbol id="logo-rtl" viewBox="0 0 610 524" fill="none"><path d="M418.62 107.6c1.95 4.6 2.73 8.24 2.63 10.24-7.56-4.56-18.93-8.43-25.14-9.54-4.03-.72 9.18-3.93 22.51-.7m10.99 169.33a476.42 476.42 0 0 1 14.43-2.8 447.25 447.25 0 0 0-5.98-3.71c-25.45-15.5-52.58-28.64-79.4-41.37-16.91-8.03-34.15-16.02-51.7-23.22 15.31-20.19 34.91-37.32 55.86-52 .02 0 .1-.07.23-.16 4.59 6.26 10.38 10.51 13.29 12.11 5.68 3.13 12.84 6.06 19.41 6.95a110.45 110.45 0 0 0 35.44-.55c1.06-.18 2.14-.3 3.2-.49a105.01 105.01 0 0 1 16.87-1.54c5.88-.1 8.79 1.14 9.48 1.32 2.1.54 3.89 1.44 4.88 2.64a39.71 39.71 0 0 0 3.7 4.13c3.96 3.93 7.89 6.11 13.58 6.74 7.34.8 12.53-2.07 16.2-6.83 1.74-2.25.9-5.78.71-6.47-.96-3.55-3.18-8.7-4.8-13.5a27.3 27.3 0 0 0-4.86-7.64l-2.42-2.56c-3.78-4-7.59-7.96-11.36-11.95-15.06-15.92-31.38-30.58-48.21-44.59l-5.24-4.36-3.82-3.16a1032.74 1032.74 0 0 0-6.06-4.96l-1.63-1.31c-.86-.7-2.81-2.34-4.46-3.66 5.46-5.44 9.86-8.83 17.68-13.95 1.12-.74 7.16-3.96 6.95-4.78-.13-.49-10.05-.38-21.4 1.09-4 .51-26.38 3.81-41.74 7.16-16.35 3.56-33.62 8.55-49.53 13.55-45.94 14.47-89.81 34.07-129.99 60.7-23.09 15.32-44.7 32.21-65.56 50.42a1066.8 1066.8 0 0 0-28.81 25.95 696.64 696.64 0 0 0-4.41 4.19c2 .37 4.01.76 6.02 1.18 16.6 3.4 33.04 7.97 49.02 12.53 19.53 5.59 39.3 11.6 58.41 19a583.18 583.18 0 0 0-31.63 32.21 765.5 765.5 0 0 0-53.37 66.63c-21.6 30.15-40.02 62.67-56.09 96.17a765.04 765.04 0 0 0-4.5 9.54c2.97-2.38 5.96-4.74 8.97-7.08 26.01-20.17 53.44-38.82 80.82-56.84 38.53-25.35 79.88-46.3 122.78-63.16 51.73-20.32 104.56-40.03 159.04-51.57" fill="currentColor"/></symbol>
<symbol id="logo-shopify" viewBox="0 0 32 32" fill="none"><path transform="scale(.7) translate(5, 5)" d="m20.45 31.97 9.62-2.08-3.5-23.64c-.03-.16-.15-.26-.28-.26l-2.57-.18s-1.7-1.7-1.92-1.88a.41.41 0 0 0-.16-.1l-1.22 28.14zm-4.83-16.9s-1.09-.56-2.37-.56c-1.93 0-2 1.2-2 1.52 0 1.64 4.31 2.29 4.31 6.17 0 3.06-1.92 5.01-4.54 5.01-3.14 0-4.72-1.95-4.72-1.95l.86-2.78s1.66 1.42 3.04 1.42c.9 0 1.3-.72 1.3-1.24 0-2.16-3.54-2.26-3.54-5.81-.04-2.98 2.1-5.9 6.44-5.9 1.68 0 2.5.49 2.5.49l-1.26 3.62zM14.9 1.1c.17 0 .36.06.53.19-1.31.62-2.75 2.18-3.34 5.32-.88.28-1.73.54-2.52.77.69-2.38 2.36-6.26 5.33-6.26zm1.64 3.94v.18l-3.2.98c.63-2.37 1.79-3.53 2.79-3.96.26.67.41 1.57.41 2.8zm.72-2.98c.92.1 1.52 1.15 1.9 2.34-.46.15-.98.3-1.54.49v-.34c0-1-.13-1.82-.36-2.5zm3.99 1.72-.1.03c-.03 0-.39.1-.96.28-.56-1.65-1.56-3.16-3.34-3.16h-.16C16.2.28 15.56 0 15.02 0 10.88 0 8.9 5.17 8.28 7.8c-1.6.48-2.75.84-2.88.9-.9.28-.93.3-1.03 1.15-.1.62-2.44 18.75-2.44 18.75L20.01 32z" fill="currentColor"/></symbol>
<symbol id="logo-thunderhub" viewBox="0 0 24 24" fill="none"><g stroke="currentColor" stroke-width="2" stroke-linecap="round" stroke-linejoin="round"><rect x="4" y="4" width="16" height="16" rx="2" ry="2"/><rect x="9" y="9" width="6" height="6"/><line x1="9" y1="1" x2="9" y2="4"/><line x1="15" y1="1" x2="15" y2="4"/><line x1="9" y1="20" x2="9" y2="23"/><line x1="15" y1="20" x2="15" y2="23"/><line x1="20" y1="9" x2="23" y2="9"/><line x1="20" y1="14" x2="23" y2="14"/><line x1="1" y1="9" x2="4" y2="9"/><line x1="1" y1="14" x2="4" y2="14"/></g></symbol>
<symbol id="logo-tor" viewBox="0 0 61 91" fill="none"><g fill="currentColor"><path d="m34.9 6.8-2.4 9.6C35.9 9.6 41.4 4.5 47.7 0c-4.6 5.3-8.8 10.6-11.3 16C40.7 9.9 46.5 6.6 53 4.3 44.3 12 37.4 20.4 32.2 28.7L28 26.9c.7-6.7 3.2-13.5 6.9-20.1z"/><path d="m31.7 28.3 2.9 1.5c-.3 1.9.1 6.1 2 7.1 8.4 5.2 16.2 10.8 19.3 16.5 11 19.9-7.7 38.4-24 36.6 8.8-6.5 11.4-19.9 8.1-34.6-1.3-5.7-3.4-10.9-7.1-16.8-1.6-2.7-1-6.3-1.2-10.3zM28.5 37.8c-.6 3.1-1.3 8.7-4 10.8-1.1.8-2.3 1.6-3.5 2.4-4.9 3.3-9.7 6.4-11.9 14.3-.5 1.7-.1 3.5.3 5.2 1.2 4.9 4.6 10.1 7.3 13.2 0 .1.5.5.5.6 2.2 2.6 2.9 3.4 11.3 5.3l-.2.9c-5.1-1.3-9.2-2.6-11.9-5.6 0-.1-.5-.5-.5-.5-2.8-3.2-6.3-8.6-7.5-13.7-.5-2-.9-3.6-.3-5.7 2.3-8.2 7.3-11.5 12.3-14.9 1.1-.7 2.5-1.4 3.6-2.3 2.3-1.5 3.4-6.2 4.5-10z"/><path d="M30.7 50.8c.1 3.5-.3 5.3.6 7.8.5 1.5 2.4 3.5 2.9 5.5.7 2.6 1.5 5.5 1.5 7.3 0 2-.1 5.8-1 9.8-.7 3.3-2.2 6.2-4.8 7.8-2.7-.5-5.8-1.5-7.6-3.1-3.6-3.1-6.7-8.3-7.1-12.8-.3-3.7 3.1-9.2 7.9-11.9 4-2.4 5-5 5.9-9.4-1.2 3.8-2.4 6.9-6.3 9-5.7 3-8.6 7.9-8.3 12.7.4 6.1 2.8 10.2 7.6 13.5 2 1.4 5.8 2.9 8.2 3.3V90c1.8-.3 4.1-3.3 5.3-7.2 1-3.6 1.4-8.1 1.3-11-.1-1.7-.8-5.3-2.2-8.6-.7-1.8-1.9-3.6-2.6-4.9-.9-1.5-.9-4.3-1.3-7.5z"/><path d="M30.1 64.5c.1 2.4 1 5.4 1.4 8.5.3 2.3.2 4.6.1 6.6-.1 2.3-.8 6.5-1.9 8.6-1-.5-1.4-1-2.1-1.8-.8-1.1-1.4-2.3-1.9-3.6-.4-1-.9-2.2-1.1-3.5-.3-2-.2-5.2 2.1-8.4 1.8-2.6 2.2-2.8 2.8-5.7-.8 2.6-1.4 2.9-3.3 5.1-2.1 2.4-2.4 6-2.4 8.9 0 1.2.5 2.6 1 3.8.5 1.3 1 2.7 1.7 3.7 1.1 1.6 2.5 2.6 3.2 2.7v-.1c1.3-1.5 2.1-2.9 2.4-4.4.3-1.8.4-3.5.6-5.6.2-1.8.1-4.1-.4-6.5-.6-3-1.7-6.1-2.2-8.3z"/><path d="M30.5 35c.1 3.5.3 10 1.3 12.6.3.9 2.8 4.7 4.5 9.4 1.2 3.2 1.5 6.2 1.7 7.1.8 3.8-.2 10.3-1.5 16.4-.7 3.3-3 7.4-5.6 9l-.5.9c1.5-.1 5.1-3.6 6.4-8.1 2.2-7.5 3-11 2-19.4-.1-.8-.5-3.6-1.8-6.5-1.9-4.5-4.6-8.8-4.9-9.7-.7-1.4-1.5-7.6-1.6-11.7z"/><path d="M31.7 28.6c-.2 3.6-.2 6.4.4 9.1.7 2.9 4.5 7.1 6.1 11.9 3 9.2 2.2 21.2.1 30.5-.8 3.3-4.6 8.1-8.5 9.6l2.8.7c1.5-.1 5.5-3.8 7.1-8 2.5-6.7 3-14.6 2-23-.1-.8-1.4-8-2.7-11-1.8-4.5-4.7-7.7-5.7-10.5-.8-2.1-1.1-7.7-.6-8.8l-1-.5z"/><path d="M51.7 46.3c-2.9-2.6-6.5-4.8-10.3-6.9-1.7-.9-6.9-5-5.1-10.8l-13.1-5.4-.9.7c4.4 7.9 2.1 12.1-.1 13.5-4.4 3-10.8 6.8-13.9 10.1C2.2 53.8.4 59.8 1 67.6c.6 10.1 7.9 18.5 17.8 21.8 4.3 1.4 8.3 1.6 12.7 1.6 7.1 0 14.5-1.9 19.8-6.3 5.7-4.7 9-11.8 9-19.1 0-7.3-3.1-14.3-8.6-19.3zm-1.9 36.9c-4.9 4-13.7 6.8-18.4 6.6-5.2-.3-10.3-1.1-14.8-3.3C8.7 82.7 3.5 74.4 3.1 67.7 2.4 54 9 50.1 15.1 45.1c3.4-2.8 8.2-4.2 10.9-9.2.5-1.1.8-3.5.2-6-.3-.9-1.5-3.9-2-4.6l9.8 4.3c-1.2 4.5 2.5 9.2 5.5 10.9 3 1.7 7.7 4.9 10.6 7.5 5.1 4.5 7.7 10.9 7.7 17.6 0 6.7-2.8 13.3-8 17.6z"/></g></symbol>
<symbol id="minus" viewBox="0 0 16 16" fill="none"><path d="M14 7H2V9H14V7Z" fill="currentColor"/></symbol>
<symbol id="nav-account" viewBox="0 0 24 24" fill="none"><circle cx="12" cy="12" r="8.5" stroke="currentColor" stroke-width="1.5"/><circle cx="12" cy="11.25" r="3.5" stroke="currentColor" stroke-width="1.5"/><path d="M6.5 18.0289C7.55706 16.0762 9.62365 14.75 12 14.75C14.3763 14.75 16.4429 16.0762 17.5 18.0289" stroke="currentColor" stroke-width="1.5"/></symbol>
<symbol id="nav-contact" viewBox="0 0 24 24" fill="none"><rect x="4" y="5.5" width="16" height="13" rx="2" stroke="currentColor" stroke-width="1.5"/><path d="M4 9L12 13L20 9" stroke="currentColor" stroke-width="1.5"/></symbol>
<symbol id="nav-crowdfund" viewBox="0 0 24 24" fill="none"><path d="M9.1638 12.4922C11.339 12.4922 13.1023 10.7288 13.1023 8.5537C13.1023 6.37854 11.339 4.61523 9.1638 4.61523C6.98865 4.61523 5.22534 6.37854 5.22534 8.5537C5.22534 10.7288 6.98865 12.4922 9.1638 12.4922Z" fill="none" stroke="currentColor" stroke-width="1.5" stroke-linecap="round" stroke-linejoin="round"/><path d="M15.9331 18.0307C17.4965 18.0307 18.7638 16.7633 18.7638 15.1999C18.7638 13.6365 17.4965 12.3691 15.9331 12.3691C14.3697 12.3691 13.1023 13.6365 13.1023 15.1999C13.1023 16.7633 14.3697 18.0307 15.9331 18.0307Z" fill="none" stroke="currentColor" stroke-width="1.5" stroke-linecap="round" stroke-linejoin="round"/><path d="M8.24067 19.3839C9.49818 19.3839 10.5176 18.3645 10.5176 17.107C10.5176 15.8495 9.49818 14.8301 8.24067 14.8301C6.98316 14.8301 5.96375 15.8495 5.96375 17.107C5.96375 18.3645 6.98316 19.3839 8.24067 19.3839Z" fill="none" stroke="currentColor" stroke-width="1.5" stroke-linecap="round" stroke-linejoin="round"/></symbol>
<symbol id="nav-dashboard" viewBox="0 0 24 24" fill="none"><path d="M15.6923 19.3845H8.30766C6.27689 19.3845 4.61536 17.7229 4.61536 15.6922V8.30754C4.61536 6.27677 6.27689 4.61523 8.30766 4.61523H15.6923C17.723 4.61523 19.3846 6.27677 19.3846 8.30754V15.6922C19.3846 17.7229 17.723 19.3845 15.6923 19.3845Z" fill="none" stroke="currentColor" stroke-width="1.5" stroke-miterlimit="10"/><path d="M7.56921 11.938H9.04614L10.5846 14.1534L13.3538 9.72266L14.8923 11.938H16.2461" fill="none" stroke="currentColor" stroke-width="1.5" stroke-miterlimit="10" stroke-linecap="round" stroke-linejoin="round"/></symbol>
<symbol id="nav-explore" viewBox="0 0 24 24" fill="none"><circle cx="11.75" cy="11.75" r="8.25" stroke="currentColor" stroke-width="1.5"/><path d="M10.3989 10.3096L13.7427 8.97203C14.1259 8.81873 14.5194 9.1696 14.4108 9.56783L13.3979 13.2815C13.3525 13.448 13.2245 13.5793 13.0592 13.6288L9.71436 14.6323C9.33296 14.7467 8.97735 14.3911 9.09177 14.0097L10.1057 10.6301C10.1494 10.4842 10.2574 10.3661 10.3989 10.3096Z" stroke="currentColor" stroke-width="1.5"/></symbol>
<symbol id="nav-invoice" viewBox="0 0 16 18" fill="none"><path d="M1.16699 3V16.5429L3.50033 15.6286L5.83366 17L8.16699 15.6286L10.5003 17L12.8337 15.6286L15.167 16.5429V3C15.167 1.89543 14.2716 1 13.167 1H3.16699C2.06242 1 1.16699 1.89543 1.16699 3Z" stroke="currentColor" stroke-width="1.6"/><path d="M4.66699 5H11.667" stroke="currentColor" stroke-width="1.5" stroke-linecap="round"/><path d="M4.66699 8.5H11.667" stroke="currentColor" stroke-width="1.5" stroke-linecap="round"/><path d="M4.66699 12H8.66699" stroke="currentColor" stroke-width="1.5" stroke-linecap="round"/></symbol>
<symbol id="nav-invoices" viewBox="0 0 24 24" fill="none"><path d="M5 6V19.5429L7.33333 18.6286L9.66667 20L12 18.6286L14.3333 20L16.6667 18.6286L19 19.5429V6C19 4.89543 18.1046 4 17 4H7C5.89543 4 5 4.89543 5 6Z" stroke="currentColor" stroke-width="1.5"/><path d="M8.5 8H15.5" stroke="currentColor" stroke-width="1.5" stroke-linecap="round"/><path d="M8.5 11.5H15.5" stroke="currentColor" stroke-width="1.5" stroke-linecap="round"/><path d="M8.5 15H12.5" stroke="currentColor" stroke-width="1.5" stroke-linecap="round"/></symbol>
<symbol id="nav-keypad" viewBox="0 0 24 24" fill="none"><path d="M6.83325 8C7.93325 8 8.83325 7.1 8.83325 6C8.83325 4.9 7.93325 4 6.83325 4C5.73325 4 4.83325 4.9 4.83325 6C4.83325 7.1 5.73325 8 6.83325 8ZM12.8333 20C13.9333 20 14.8333 19.1 14.8333 18C14.8333 16.9 13.9333 16 12.8333 16C11.7333 16 10.8333 16.9 10.8333 18C10.8333 19.1 11.7333 20 12.8333 20ZM6.83325 20C7.93325 20 8.83325 19.1 8.83325 18C8.83325 16.9 7.93325 16 6.83325 16C5.73325 16 4.83325 16.9 4.83325 18C4.83325 19.1 5.73325 20 6.83325 20ZM6.83325 14C7.93325 14 8.83325 13.1 8.83325 12C8.83325 10.9 7.93325 10 6.83325 10C5.73325 10 4.83325 10.9 4.83325 12C4.83325 13.1 5.73325 14 6.83325 14ZM12.8333 14C13.9333 14 14.8333 13.1 14.8333 12C14.8333 10.9 13.9333 10 12.8333 10C11.7333 10 10.8333 10.9 10.8333 12C10.8333 13.1 11.7333 14 12.8333 14ZM16.8333 6C16.8333 7.1 17.7333 8 18.8333 8C19.9333 8 20.8333 7.1 20.8333 6C20.8333 4.9 19.9333 4 18.8333 4C17.7333 4 16.8333 4.9 16.8333 6ZM12.8333 8C13.9333 8 14.8333 7.1 14.8333 6C14.8333 4.9 13.9333 4 12.8333 4C11.7333 4 10.8333 4.9 10.8333 6C10.8333 7.1 11.7333 8 12.8333 8ZM18.8333 14C19.9333 14 20.8333 13.1 20.8333 12C20.8333 10.9 19.9333 10 18.8333 10C17.7333 10 16.8333 10.9 16.8333 12C16.8333 13.1 17.7333 14 18.8333 14ZM18.8333 20C19.9333 20 20.8333 19.1 20.8333 18C20.8333 16.9 19.9333 16 18.8333 16C17.7333 16 16.8333 16.9 16.8333 18C16.8333 19.1 17.7333 20 18.8333 20Z" fill="currentColor"/></symbol>
<symbol id="nav-lightning-address" viewBox="0 0 24 24" fill="none"><path d="M17.57 10.7c-.1-.23-.27-.34-.5-.34h-4.3l.5-3.76a.48.48 0 0 0-.33-.55.52.52 0 0 0-.66.17l-5.45 6.54a.59.59 0 0 0-.05.6c.1.17.27.28.49.28h4.3l-.49 3.76c-.05.22.11.5.33.55.06.05.17.05.22.05a.5.5 0 0 0 .44-.22l5.45-6.54c.1-.17.16-.39.05-.55Z" fill="currentColor"/></symbol>
<symbol id="nav-menu" viewBox="0 0 24 24" fill="none"><path d="M4 18H20" stroke="currentColor" stroke-width="1.75" stroke-linecap="round"/><path d="M4 12H20" stroke="currentColor" stroke-width="1.75" stroke-linecap="round"/><path d="M4 6H20" stroke="currentColor" stroke-width="1.75" stroke-linecap="round"/></symbol>
<symbol id="nav-mobile-menu" viewBox="0 0 24 24" fill="none"><path d="M21 17a1 1 0 0 1 .117 1.993L21 19H3a1 1 0 0 1-.117-1.993L3 17h18zm0-6a1 1 0 0 1 .117 1.993L21 13H3a1 1 0 0 1-.117-1.993L3 11h18zm0-6a1 1 0 0 1 .117 1.993L21 7H3a1 1 0 0 1-.117-1.993L3 5h18z" fill="currentColor"/></symbol>
<symbol id="nav-notifications" viewBox="0 0 24 24" fill="none"><path d="M12.1256 4.66116C15.4314 4.66116 16.8198 7.57025 17.1504 8.69422C17.5471 10.0827 17.2165 10.6777 17.5471 12.595C17.7454 13.8512 18.4066 14.9091 18.9355 15.5041C19.1338 15.7025 18.9355 16.0331 18.671 16.0331H12.8529H12.1256H5.38178C5.11732 16.0331 4.91897 15.7025 5.11732 15.5041C5.58013 14.9091 6.3074 13.8512 6.50575 12.595C6.77021 10.6777 6.50575 10.0827 6.90244 8.69422C7.23302 7.57025 8.68757 4.66116 12.1256 4.66116Z" stroke="currentColor" stroke-width="1.5" stroke-miterlimit="10"/><path d="M14.8363 16.0331C14.8363 16.1653 14.9024 16.3636 14.9024 16.4959C14.9024 18.0826 13.6462 19.3388 12.0594 19.3388C10.4726 19.3388 9.21643 18.0826 9.21643 16.4959C9.21643 16.3636 9.21643 16.2314 9.21643 16.0992" stroke="currentColor" stroke-width="1.5" stroke-miterlimit="10"/></symbol>
<symbol id="nav-pay-button" viewBox="0 0 24 24" fill="none"><path d="M8.30766 4.61523H15.6923C17.723 4.61523 19.3846 6.27677 19.3846 8.30754V15.6922C19.3846 17.7229 17.723 19.3845 15.6923 19.3845H8.30766C6.27689 19.3845 4.61536 17.7229 4.61536 15.6922V8.30754C4.61536 6.27677 6.27689 4.61523 8.30766 4.61523Z" fill="none" stroke="currentColor" stroke-width="1.5" stroke-miterlimit="10"/><path d="M12 15.0777C13.6994 15.0777 15.0769 13.7001 15.0769 12.0008C15.0769 10.3014 13.6994 8.92383 12 8.92383C10.3007 8.92383 8.9231 10.3014 8.9231 12.0008C8.9231 13.7001 10.3007 15.0777 12 15.0777Z" fill="none" stroke="currentColor" stroke-width="1.5" stroke-miterlimit="10" stroke-linecap="round" stroke-linejoin="round"/></symbol>
<symbol id="nav-payment-requests" viewBox="0 0 24 24" fill="none"><path d="M12 19.3845C16.0784 19.3845 19.3846 16.0783 19.3846 11.9999C19.3846 7.92144 16.0784 4.61523 12 4.61523C7.92156 4.61523 4.61536 7.92144 4.61536 11.9999C4.61536 16.0783 7.92156 19.3845 12 19.3845Z" fill="none" stroke="currentColor" stroke-width="1.5" stroke-miterlimit="10"/><path d="M9.53845 14.216L14.2769 9.41602" fill="none" stroke="currentColor" stroke-width="1.5" stroke-miterlimit="10" stroke-linecap="round" stroke-linejoin="round"/><path d="M9.53845 10.707V14.2147H13.2308" fill="none" stroke="currentColor" stroke-width="1.5" stroke-miterlimit="10" stroke-linecap="round" stroke-linejoin="round"/></symbol>
<symbol id="nav-payouts" viewBox="0 0 24 24" fill="none"><path d="M8.30766 4.61523H15.6923C17.723 4.61523 19.3846 6.27677 19.3846 8.30754V15.6922C19.3846 17.7229 17.723 19.3845 15.6923 19.3845H8.30766C6.27689 19.3845 4.61536 17.7229 4.61536 15.6922V8.30754C4.61536 6.27677 6.27689 4.61523 8.30766 4.61523Z" fill="none" stroke="currentColor" stroke-width="1.5" stroke-miterlimit="10"/><path d="M8.30774 8.92383H15.6924" fill="none" stroke="currentColor" stroke-width="1.5" stroke-miterlimit="10" stroke-linecap="round" stroke-linejoin="round"/><path d="M8.30774 12H15.6924" fill="none" stroke="currentColor" stroke-width="1.5" stroke-miterlimit="10" stroke-linecap="round" stroke-linejoin="round"/><path d="M8.30774 15.0156H12" fill="none" stroke="currentColor" stroke-width="1.5" stroke-miterlimit="10" stroke-linecap="round" stroke-linejoin="round"/></symbol>
<symbol id="nav-plugin" viewBox="0 0 24 24" fill="none"><path d="M12.0002 10.2354L4.73633 7.38747M12.0002 10.2354L19.2642 7.38747M12.0002 10.2354V19.5M5.21166 7.01614L11.2783 4.6375C11.7412 4.45417 12.2566 4.45417 12.7196 4.6375L18.7862 7.01614C19.0023 7.1083 19.1858 7.26312 19.3131 7.46062C19.4404 7.65812 19.5055 7.88923 19.5002 8.12413V15.876C19.5058 16.1106 19.441 16.3415 19.3142 16.539C19.1874 16.7365 19.0045 16.8915 18.7888 16.984L12.7222 19.3633C12.259 19.5453 11.7441 19.5453 11.2809 19.3633L5.21433 16.984C4.9982 16.8919 4.81466 16.737 4.68739 16.5395C4.56012 16.342 4.49496 16.1109 4.50033 15.876V8.12413C4.49475 7.88953 4.55951 7.65864 4.68628 7.46117C4.81305 7.26371 4.99603 7.10871 5.21166 7.01614Z" stroke="currentColor" stroke-width="1.5" stroke-linecap="round" stroke-linejoin="round"/></symbol>
<symbol id="nav-plugins-explore" viewBox="0 0 24 24" fill="none"><circle cx="11.75" cy="11.75" r="8.25" stroke="currentColor" stroke-width="1.5"/><path d="M10.3989 10.3096L13.7427 8.97203C14.1259 8.81873 14.5194 9.1696 14.4108 9.56783L13.3979 13.2815C13.3525 13.448 13.2245 13.5793 13.0592 13.6288L9.71436 14.6323C9.33296 14.7467 8.97735 14.3911 9.09177 14.0097L10.1057 10.6301C10.1494 10.4842 10.2574 10.3661 10.3989 10.3096Z" stroke="currentColor" stroke-width="1.5"/></symbol>
<symbol id="nav-plugins-manage" viewBox="0 0 24 24" fill="none"><path d="M6 7H18" stroke="currentColor" stroke-width="1.5" stroke-linecap="round"/><path d="M6 12H18" stroke="currentColor" stroke-width="1.5" stroke-linecap="round"/><path d="M6 17H14" stroke="currentColor" stroke-width="1.5" stroke-linecap="round"/></symbol>
<symbol id="nav-pointofsale" viewBox="0 0 24 24" fill="none"><path d="M16.88 19.4303H7.12002C6.79748 19.4322 6.47817 19.3659 6.18309 19.2356C5.88802 19.1054 5.62385 18.9141 5.40795 18.6745C5.19206 18.4349 5.02933 18.1522 4.93046 17.8452C4.83159 17.5382 4.79882 17.2137 4.83431 16.8931L5.60002 10.1617C5.6311 9.88087 5.76509 9.62152 5.97615 9.43368C6.1872 9.24584 6.46035 9.14284 6.74288 9.14455H17.2572C17.5397 9.14284 17.8129 9.24584 18.0239 9.43368C18.235 9.62152 18.369 9.88087 18.4 10.1617L19.1429 16.8931C19.1782 17.2118 19.146 17.5343 19.0485 17.8398C18.951 18.1452 18.7903 18.4267 18.5769 18.666C18.3634 18.9053 18.1021 19.097 17.8097 19.2286C17.5174 19.3603 17.2006 19.429 16.88 19.4303Z" fill="none" stroke="currentColor" stroke-width="1.5" stroke-linecap="round" stroke-linejoin="round"/><path d="M7.42859 9.14369C7.42859 7.93128 7.91022 6.76852 8.76753 5.91121C9.62484 5.0539 10.7876 4.57227 12 4.57227C13.2124 4.57227 14.3752 5.0539 15.2325 5.91121C16.0898 6.76852 16.5714 7.93128 16.5714 9.14369" fill="none" stroke="currentColor" stroke-width="1.5" stroke-linecap="round" stroke-linejoin="round"/><path d="M9.14282 12.5723H14.8571" fill="none" stroke="currentColor" stroke-width="1.5" stroke-linecap="round" stroke-linejoin="round"/></symbol>
<symbol id="nav-pull-payments" viewBox="0 0 24 24" fill="none"><path d="M12 20a8 8 0 1 1 0-16 8 8 0 0 1 0 16Zm0-15.19a7.2 7.2 0 0 0 0 14.38A7.2 7.2 0 0 0 12 4.8Z" fill="currentColor" stroke="currentColor" stroke-width=".6"/><path d="M9.48 14.85a.44.44 0 0 1-.3-.14c-.14-.16-.14-.43.05-.57l5.02-4.31c.16-.14.43-.14.57.05.14.17.14.44-.05.57l-5.05 4.29c-.05.08-.16.1-.24.1Z" fill="currentColor" stroke="currentColor" stroke-width=".6"/><path d="M14.39 14.28a.4.4 0 0 1-.41-.4l.1-3.42-3.08-.17a.4.4 0 0 1-.38-.43c0-.22.19-.4.43-.38l3.47.19c.22 0 .38.19.38.4l-.13 3.83c.02.19-.17.38-.38.38Z" fill="currentColor" stroke="currentColor" stroke-width=".6"/></symbol>
<symbol id="nav-reporting" viewBox="0 0 24 24" fill="none"><path d="M12 19.7286C11.3561 18.4843 9.56974 17.0192 7.04638 16.7044C6.49834 16.636 6.04834 16.1951 6.04834 15.6429V5.51174C6.04834 4.88334 6.63109 4.30857 7.25812 4.35012C8.31264 4.42 9.90687 4.74919 12 6.40388" stroke="currentColor" stroke-width="1.5"/><path d="M5.90323 6.12335H5C3.89543 6.12335 3 7.01878 3 8.12335V17.5883C3 18.6929 3.89543 19.5883 5 19.5883H19C20.1046 19.5883 21 18.6929 21 17.5883V8.12335C21 7.01878 20.1046 6.12335 19 6.12335H12H11.5645" stroke="currentColor" stroke-width="1.5"/><path d="M14.9032 9.20908H18.0967" stroke="currentColor" stroke-width="1.5" stroke-linecap="round"/><path d="M14.9032 12.9961H18.0967" stroke="currentColor" stroke-width="1.5" stroke-linecap="round"/><path d="M14.9032 16.7831H18.0967" stroke="currentColor" stroke-width="1.5" stroke-linecap="round"/><line x1="12.1693" y1="6.40387" x2="12.1693" y2="19.5883" stroke="currentColor" stroke-width="1.5"/></symbol>
<symbol id="nav-server-settings" viewBox="0 0 24 24" fill="none"><rect x="4.75" y="4.75" width="14.5" height="14.5" rx="3.25" stroke="currentColor" stroke-width="1.5" fill="none"/><path d="m8 8 1.6 1.6L8 11.2" stroke="currentColor" stroke-width="1.25" stroke-linecap="round" stroke-linejoin="round"/></symbol>
<symbol id="nav-store-settings" viewBox="0 0 24 24" fill="none"><path d="M9.81672 6.15385L10.3459 4.78769C10.4352 4.55639 10.5922 4.35743 10.7965 4.21688C11.0007 4.07632 11.2426 4.00073 11.4906 4H12.4998C12.7477 4.00073 12.9896 4.07632 13.1939 4.21688C13.3981 4.35743 13.5552 4.55639 13.6444 4.78769L14.1736 6.15385L15.9706 7.18769L17.4229 6.96615C17.6647 6.93333 17.9108 6.97314 18.13 7.08052C18.3491 7.1879 18.5314 7.35801 18.6536 7.56923L19.1459 8.43077C19.2721 8.64535 19.3302 8.89314 19.3126 9.14144C19.2951 9.38974 19.2026 9.62687 19.0475 9.82154L18.149 10.9662V13.0338L19.0721 14.1785C19.2272 14.3731 19.3197 14.6103 19.3373 14.8586C19.3548 15.1069 19.2967 15.3546 19.1706 15.5692L18.6783 16.4308C18.556 16.642 18.3737 16.8121 18.1546 16.9195C17.9354 17.0269 17.6893 17.0667 17.4475 17.0338L15.9952 16.8123L14.1983 17.8462L13.669 19.2123C13.5798 19.4436 13.4227 19.6426 13.2185 19.7831C13.0143 19.9237 12.7723 19.9993 12.5244 20H11.4906C11.2426 19.9993 11.0007 19.9237 10.7965 19.7831C10.5922 19.6426 10.4352 19.4436 10.3459 19.2123L9.81672 17.8462L8.01979 16.8123L6.56749 17.0338C6.32566 17.0667 6.07954 17.0269 5.86039 16.9195C5.64124 16.8121 5.45896 16.642 5.33672 16.4308L4.84441 15.5692C4.71826 15.3546 4.66013 15.1069 4.67771 14.8586C4.69529 14.6103 4.78774 14.3731 4.94287 14.1785L5.84133 13.0338V10.9662L4.91826 9.82154C4.76313 9.62687 4.67068 9.38974 4.6531 9.14144C4.63552 8.89314 4.69364 8.64535 4.81979 8.43077L5.3121 7.56923C5.43435 7.35801 5.61662 7.1879 5.83577 7.08052C6.05492 6.97314 6.30105 6.93333 6.54287 6.96615L7.99518 7.18769L9.81672 6.15385ZM9.53364 12C9.53364 12.4868 9.67801 12.9628 9.94848 13.3676C10.219 13.7724 10.6034 14.0879 11.0532 14.2742C11.503 14.4605 11.9979 14.5092 12.4754 14.4142C12.9529 14.3193 13.3915 14.0848 13.7357 13.7406C14.08 13.3963 14.3144 12.9577 14.4094 12.4802C14.5044 12.0027 14.4557 11.5078 14.2693 11.058C14.083 10.6082 13.7675 10.2238 13.3627 9.95331C12.9579 9.68283 12.482 9.53846 11.9952 9.53846C11.3423 9.53846 10.7162 9.7978 10.2546 10.2594C9.79298 10.7211 9.53364 11.3472 9.53364 12V12Z" fill="none" stroke="currentColor" stroke-width="1.5" stroke-linecap="round" stroke-linejoin="round"/></symbol>
<symbol id="nav-store" viewBox="0 0 24 24" fill="none"><path d="M19.0489 10.3147V16.5804C19.0489 17.8112 18.0419 18.8182 16.8112 18.8182H7.24472C6.01395 18.8182 5.00696 17.8112 5.00696 16.5804V10.3147" stroke="currentColor" stroke-width="1.5" stroke-miterlimit="10"/><path d="M9.4545 5.3077V9.13986C9.4545 10.3147 8.50345 11.2937 7.32862 11.2937H6.90904C5.00694 11.2937 3.7482 9.36364 4.50345 7.62937L5.06289 6.31469C5.34261 5.67133 5.95799 5.27972 6.62932 5.27972L9.4545 5.3077Z" stroke="currentColor" stroke-width="1.5" stroke-miterlimit="10"/><path d="M14.5454 5.30768V9.13985C14.5454 10.3147 15.4965 11.2937 16.6713 11.2937H17.0909C18.993 11.2937 20.2517 9.36362 19.4965 7.62936L18.937 6.31467C18.6573 5.69929 18.0419 5.30768 17.3706 5.30768H14.5454Z" stroke="currentColor" stroke-width="1.5" stroke-miterlimit="10"/><path d="M12 11.5455C10.6014 11.5455 9.48254 10.3986 9.48254 9.02797V5.33566H14.5455V9.02797C14.5455 10.4266 13.3986 11.5455 12 11.5455Z" stroke="currentColor" stroke-width="1.5" stroke-miterlimit="10"/><path d="M14 18.5V15.5C14 15.2239 13.7761 15 13.5 15H10.5C10.2239 15 10 15.2239 10 15.5V18.5" stroke="currentColor" stroke-width="1.5"/></symbol>
<symbol id="notifications-account" viewBox="0 0 24 24" fill="none"><circle cx="12" cy="12" r="8.5" stroke="currentColor" stroke-width="1.5"/><circle cx="12" cy="11.25" r="3.5" stroke="currentColor" stroke-width="1.5"/><path d="M6.5 18.0289C7.55706 16.0762 9.62365 14.75 12 14.75C14.3763 14.75 16.4429 16.0762 17.5 18.0289" stroke="currentColor" stroke-width="1.5"/></symbol>
<symbol id="notifications-invoice-failure" viewBox="0 0 24 24" fill="none"><g clip-path="url(#clip)"><path fill-rule="evenodd" clip-rule="evenodd" d="M3.51481 20.4858C2.40048 19.3715 1.51654 18.0486 0.913469 16.5926C0.310397 15.1367 1.17414e-08 13.5762 0 12.0003C-1.17414e-08 10.4244 0.310397 8.86393 0.913469 7.40799C1.51654 5.95204 2.40048 4.62914 3.51481 3.51481C4.62914 2.40048 5.95204 1.51654 7.40799 0.913469C8.86393 0.310397 10.4244 -1.17414e-08 12.0003 0C13.5762 1.17414e-08 15.1367 0.310397 16.5926 0.913469C18.0486 1.51654 19.3715 2.40048 20.4858 3.51481C22.7363 5.7653 24.0006 8.81763 24.0006 12.0003C24.0006 15.183 22.7363 18.2353 20.4858 20.4858C18.2353 22.7363 15.183 24.0006 12.0003 24.0006C8.81763 24.0006 5.7653 22.7363 3.51481 20.4858ZM9.04531 7.45531C8.83205 7.25659 8.54998 7.1484 8.25852 7.15355C7.96707 7.15869 7.689 7.27676 7.48288 7.48288C7.27676 7.689 7.15869 7.96707 7.15355 8.25852C7.1484 8.54998 7.25659 8.83205 7.45531 9.04531L10.4103 12.0003L7.45531 14.9553C7.34478 15.0583 7.25613 15.1825 7.19464 15.3205C7.13315 15.4585 7.10009 15.6075 7.09742 15.7585C7.09476 15.9096 7.12254 16.0596 7.17912 16.1997C7.23571 16.3398 7.31992 16.467 7.42675 16.5739C7.53358 16.6807 7.66083 16.7649 7.80091 16.8215C7.94099 16.8781 8.09104 16.9059 8.24209 16.9032C8.39315 16.9005 8.54212 16.8675 8.68012 16.806C8.81812 16.7445 8.94232 16.6558 9.04531 16.5453L12.0003 13.5903L14.9553 16.5453C15.0583 16.6558 15.1825 16.7445 15.3205 16.806C15.4585 16.8675 15.6075 16.9005 15.7585 16.9032C15.9096 16.9059 16.0596 16.8781 16.1997 16.8215C16.3398 16.7649 16.467 16.6807 16.5739 16.5739C16.6807 16.467 16.7649 16.3398 16.8215 16.1997C16.8781 16.0596 16.9059 15.9096 16.9032 15.7585C16.9005 15.6075 16.8675 15.4585 16.806 15.3205C16.7445 15.1825 16.6558 15.0583 16.5453 14.9553L13.5903 12.0003L16.5453 9.04531C16.6558 8.94232 16.7445 8.81812 16.806 8.68012C16.8675 8.54212 16.9005 8.39315 16.9032 8.24209C16.9059 8.09104 16.8781 7.94099 16.8215 7.80091C16.7649 7.66083 16.6807 7.53358 16.5739 7.42675C16.467 7.31992 16.3398 7.23571 16.1997 7.17912C16.0596 7.12254 15.9096 7.09476 15.7585 7.09742C15.6075 7.10009 15.4585 7.13315 15.3205 7.19464C15.1825 7.25613 15.0583 7.34478 14.9553 7.45531L12.0003 10.4103L9.04531 7.45531Z" fill="#E11900"/></g></symbol>
<symbol id="notifications-invoice-settled" viewBox="0 0 24 24" fill="none"><g clip-path="url(#clip)"><path fill-rule="evenodd" clip-rule="evenodd" d="M24 12C24 15.1826 22.7357 18.2348 20.4853 20.4853C18.2348 22.7357 15.1826 24 12 24C8.8174 24 5.76516 22.7357 3.51472 20.4853C1.26428 18.2348 0 15.1826 0 12C0 8.8174 1.26428 5.76516 3.51472 3.51472C5.76516 1.26428 8.8174 0 12 0C15.1826 0 18.2348 1.26428 20.4853 3.51472C22.7357 5.76516 24 8.8174 24 12ZM17.2215 9.38299C17.2267 9.67444 17.1185 9.95651 16.9198 10.1698L11.6698 15.4198C11.4588 15.6304 11.1729 15.7488 10.8748 15.7488C10.5766 15.7488 10.2907 15.6304 10.0798 15.4198L7.07977 12.4198C6.88105 12.2065 6.77286 11.9244 6.77801 11.633C6.78315 11.3415 6.90122 11.0635 7.10734 10.8573C7.31346 10.6512 7.59153 10.5331 7.88299 10.528C8.17444 10.5229 8.45651 10.631 8.66977 10.8298L10.8748 13.0348L15.3298 8.57977C15.543 8.38105 15.8251 8.27287 16.1166 8.27801C16.408 8.28315 16.6861 8.40122 16.8922 8.60734C17.0983 8.81346 17.2164 9.09153 17.2215 9.38299Z" fill="#51B13E"/></g></symbol>
<symbol id="notifications-new-version" viewBox="0 0 24 24" fill="none"><path d="M11.0697 2.35872C11.4027 1.51457 12.5973 1.51457 12.9303 2.35872L15.2348 8.20186C15.3364 8.45958 15.5404 8.66359 15.7981 8.76523L21.6413 11.0697C22.4854 11.4027 22.4854 12.5973 21.6413 12.9303L15.7981 15.2348C15.5404 15.3364 15.3364 15.5404 15.2348 15.7981L12.9303 21.6413C12.5973 22.4854 11.4027 22.4854 11.0697 21.6413L8.76523 15.7981C8.66359 15.5404 8.45958 15.3364 8.20186 15.2348L2.35872 12.9303C1.51457 12.5973 1.51457 11.4027 2.35872 11.0697L8.20186 8.76523C8.45958 8.66359 8.66359 8.45958 8.76523 8.20186L11.0697 2.35872Z" fill="#1F6FEB"/></symbol>
<symbol id="notifications-payout-approved" viewBox="0 0 24 24" fill="none"><g clip-path="url(#clip)"><path fill-rule="evenodd" clip-rule="evenodd" d="M1.04907e-06 12C1.62846e-06 5.37258 5.37259 -1.62846e-06 12 -1.04907e-06C18.6274 -4.69686e-07 24 5.37258 24 12C24 18.6274 18.6274 24 12 24C5.37258 24 4.69686e-07 18.6274 1.04907e-06 12ZM7.95448 16.0455C7.51515 15.6061 7.51518 14.8938 7.95453 14.4545L12.534 9.87527L10.1851 9.87527C9.56375 9.87527 9.06007 9.37159 9.06007 8.75027C9.06007 8.12895 9.56375 7.62527 10.1851 7.62527L15.25 7.62527C15.4438 7.62527 15.6261 7.67426 15.7852 7.76051L15.7976 7.76729C15.8394 7.79062 15.8801 7.81683 15.9193 7.84592C15.9995 7.90539 16.0715 7.97527 16.1334 8.05357C16.187 8.12135 16.2317 8.19388 16.2674 8.26958C16.3364 8.41534 16.375 8.5783 16.375 8.75027L16.375 8.75037L16.375 13.5C16.375 14.1213 15.8713 14.625 15.25 14.625C14.6287 14.625 14.125 14.1213 14.125 13.5L14.125 11.4663L9.54547 16.0455C9.10612 16.4848 8.39381 16.4848 7.95448 16.0455Z" fill="#51B13E"/></g></symbol>
<symbol id="notifications-payout" viewBox="0 0 24 24" fill="none"><g clip-path="url(#clip)"><path fill-rule="evenodd" clip-rule="evenodd" d="M1.04907e-06 12C1.62846e-06 5.37258 5.37259 -1.62846e-06 12 -1.04907e-06C18.6274 -4.69686e-07 24 5.37258 24 12C24 18.6274 18.6274 24 12 24C5.37258 24 4.69686e-07 18.6274 1.04907e-06 12ZM7.95448 16.0455C7.51515 15.6061 7.51518 14.8938 7.95453 14.4545L12.534 9.87527L10.1851 9.87527C9.56375 9.87527 9.06007 9.37159 9.06007 8.75027C9.06007 8.12895 9.56375 7.62527 10.1851 7.62527L15.25 7.62527C15.4438 7.62527 15.6261 7.67426 15.7852 7.76051L15.7976 7.76729C15.8394 7.79062 15.8801 7.81683 15.9193 7.84592C15.9995 7.90539 16.0715 7.97527 16.1334 8.05357C16.187 8.12135 16.2317 8.19388 16.2674 8.26957C16.3364 8.41534 16.375 8.5783 16.375 8.75027L16.375 8.75037L16.375 13.5C16.375 14.1213 15.8713 14.625 15.25 14.625C14.6287 14.625 14.125 14.1213 14.125 13.5L14.125 11.4663L9.54547 16.0455C9.10612 16.4848 8.39381 16.4848 7.95448 16.0455Z" fill="#1F6FEB"/></g></symbol>
<symbol id="notifications-plugin-disabled" viewBox="0 0 24 24" fill="none"><path d="M12.0002 10.2354L4.73633 7.38747M12.0002 10.2354L19.2642 7.38747M12.0002 10.2354V19.5M5.21166 7.01614L11.2783 4.6375C11.7412 4.45417 12.2566 4.45417 12.7196 4.6375L18.7862 7.01614C19.0023 7.1083 19.1858 7.26312 19.3131 7.46062C19.4404 7.65812 19.5055 7.88923 19.5002 8.12413V15.876C19.5058 16.1106 19.441 16.3415 19.3142 16.539C19.1874 16.7365 19.0045 16.8915 18.7888 16.984L12.7222 19.3633C12.259 19.5453 11.7441 19.5453 11.2809 19.3633L5.21433 16.984C4.9982 16.8919 4.81466 16.737 4.68739 16.5395C4.56012 16.342 4.49496 16.1109 4.50033 15.876V8.12413C4.49475 7.88953 4.55951 7.65864 4.68628 7.46117C4.81305 7.26371 4.99603 7.10871 5.21166 7.01614Z" stroke="currentColor" stroke-width="1.5" stroke-linecap="round" stroke-linejoin="round"/></symbol>
<symbol id="notifications-plugin-released" viewBox="0 0 24 24" fill="none"><path d="M12.0002 10.2354L4.73633 7.38747M12.0002 10.2354L19.2642 7.38747M12.0002 10.2354V19.5M5.21166 7.01614L11.2783 4.6375C11.7412 4.45417 12.2566 4.45417 12.7196 4.6375L18.7862 7.01614C19.0023 7.1083 19.1858 7.26312 19.3131 7.46062C19.4404 7.65812 19.5055 7.88923 19.5002 8.12413V15.876C19.5058 16.1106 19.441 16.3415 19.3142 16.539C19.1874 16.7365 19.0045 16.8915 18.7888 16.984L12.7222 19.3633C12.259 19.5453 11.7441 19.5453 11.2809 19.3633L5.21433 16.984C4.9982 16.8919 4.81466 16.737 4.68739 16.5395C4.56012 16.342 4.49496 16.1109 4.50033 15.876V8.12413C4.49475 7.88953 4.55951 7.65864 4.68628 7.46117C4.81305 7.26371 4.99603 7.10871 5.21166 7.01614Z" stroke="currentColor" stroke-width="1.5" stroke-linecap="round" stroke-linejoin="round"/></symbol>
<symbol id="payment-receive" viewBox="0 0 24 24" fill="none"><path d="M7 17L17 7" stroke="currentColor" stroke-width="2" stroke-miterlimit="10" stroke-linecap="round" stroke-linejoin="round"/><path d="M7 8L7 17L16 17" stroke="currentColor" stroke-width="2" stroke-miterlimit="10" stroke-linecap="round" stroke-linejoin="round"/></symbol>
<symbol id="payment-send" viewBox="0 0 24 24" fill="none"><path d="M17 7L7 17" stroke="currentColor" stroke-width="2" stroke-miterlimit="10" stroke-linecap="round" stroke-linejoin="round"/><path d="M17 16L17 7L8 7" stroke="currentColor" stroke-width="2" stroke-miterlimit="10" stroke-linecap="round" stroke-linejoin="round"/></symbol>
<symbol id="plus" viewBox="0 0 16 16" fill="none"><path d="M14 7.18182H8.81818V2H7.18182V7.18182H2V8.81818H7.18182V14H8.81818V8.81818H14V7.18182Z" fill="currentColor"/></symbol>
<symbol id="pos-cart" viewBox="0 0 24 24" fill="none"><path d="M16.88 19.4286H7.12002C6.79748 19.4305 6.47817 19.3642 6.18309 19.2339C5.88802 19.1037 5.62385 18.9124 5.40795 18.6728C5.19206 18.4332 5.02933 18.1505 4.93046 17.8435C4.83159 17.5365 4.79882 17.212 4.83431 16.8914L5.60002 10.16C5.6311 9.87916 5.76509 9.61981 5.97615 9.43197C6.1872 9.24413 6.46035 9.14113 6.74288 9.14284H17.2572C17.5397 9.14113 17.8129 9.24413 18.0239 9.43197C18.235 9.61981 18.369 9.87916 18.4 10.16L19.1429 16.8914C19.1782 17.2101 19.146 17.5326 19.0485 17.8381C18.951 18.1435 18.7903 18.425 18.5769 18.6643C18.3634 18.9035 18.1021 19.0952 17.8097 19.2269C17.5174 19.3586 17.2006 19.4273 16.88 19.4286Z" stroke="currentColor" stroke-width="1.5" stroke-linecap="round" stroke-linejoin="round"/><path d="M7.42859 9.14284C7.42859 7.93042 7.91022 6.76766 8.76753 5.91035C9.62484 5.05304 10.7876 4.57141 12 4.57141C13.2124 4.57141 14.3752 5.05304 15.2325 5.91035C16.0898 6.76766 16.5714 7.93042 16.5714 9.14284" stroke="currentColor" stroke-width="1.5" stroke-linecap="round" stroke-linejoin="round"/><path d="M9.14282 12.5714H14.8571" stroke="currentColor" stroke-width="1.5" stroke-linecap="round" stroke-linejoin="round"/></symbol>
<symbol id="pos-light" viewBox="0 0 24 24" fill="none"><path d="M6 8C7.1 8 8 7.1 8 6C8 4.9 7.1 4 6 4C4.9 4 4 4.9 4 6C4 7.1 4.9 8 6 8ZM12 20C13.1 20 14 19.1 14 18C14 16.9 13.1 16 12 16C10.9 16 10 16.9 10 18C10 19.1 10.9 20 12 20ZM6 20C7.1 20 8 19.1 8 18C8 16.9 7.1 16 6 16C4.9 16 4 16.9 4 18C4 19.1 4.9 20 6 20ZM6 14C7.1 14 8 13.1 8 12C8 10.9 7.1 10 6 10C4.9 10 4 10.9 4 12C4 13.1 4.9 14 6 14ZM12 14C13.1 14 14 13.1 14 12C14 10.9 13.1 10 12 10C10.9 10 10 10.9 10 12C10 13.1 10.9 14 12 14ZM16 6C16 7.1 16.9 8 18 8C19.1 8 20 7.1 20 6C20 4.9 19.1 4 18 4C16.9 4 16 4.9 16 6ZM12 8C13.1 8 14 7.1 14 6C14 4.9 13.1 4 12 4C10.9 4 10 4.9 10 6C10 7.1 10.9 8 12 8ZM18 14C19.1 14 20 13.1 20 12C20 10.9 19.1 10 18 10C16.9 10 16 10.9 16 12C16 13.1 16.9 14 18 14ZM18 20C19.1 20 20 19.1 20 18C20 16.9 19.1 16 18 16C16.9 16 16 16.9 16 18C16 19.1 16.9 20 18 20Z" fill="currentColor"/></symbol>
<symbol id="pos-print" viewBox="0 0 24 24" fill="none"><path d="M3 18H18.6884M21 18H18.6884M5.57366 17.7391V6L7.93431 7.56433L10.0327 6L12.131 7.56433L14.4917 6L16.59 7.56433L18.6884 6V18" stroke="currentColor" stroke-width="1.5"/><path d="M8.50012 11H14.0001" stroke="currentColor" stroke-width="1.5"/><path d="M8.50012 14.5H15.5001" stroke="currentColor" stroke-width="1.5"/></symbol>
<symbol id="pos-static" viewBox="0 0 24 24" fill="none"><path d="M19.0489 10.2647V16.5304C19.0489 17.7612 18.0419 18.7682 16.8112 18.7682H7.24472C6.01395 18.7682 5.00696 17.7612 5.00696 16.5304V10.2647" stroke="currentColor" stroke-width="1.5" stroke-miterlimit="10"/><path d="M9.4545 5.25771V9.08988C9.4545 10.2647 8.50345 11.2437 7.32862 11.2437H6.90904C5.00694 11.2437 3.7482 9.31365 4.50345 7.57939L5.06289 6.2647C5.34261 5.62134 5.95799 5.22974 6.62932 5.22974L9.4545 5.25771Z" stroke="currentColor" stroke-width="1.5" stroke-miterlimit="10"/><path d="M14.5454 5.25769V9.08986C14.5454 10.2647 15.4965 11.2437 16.6713 11.2437H17.0909C18.993 11.2437 20.2517 9.31364 19.4965 7.57937L18.937 6.26468C18.6573 5.6493 18.0419 5.25769 17.3706 5.25769H14.5454Z" stroke="currentColor" stroke-width="1.5" stroke-miterlimit="10"/><path d="M12 11.4955C10.6014 11.4955 9.48254 10.3486 9.48254 8.97801V5.28571H14.5455V8.97801C14.5455 10.3766 13.3986 11.4955 12 11.4955Z" stroke="currentColor" stroke-width="1.5" stroke-miterlimit="10"/><path d="M19.0489 10.3147V16.5804C19.0489 17.8112 18.0419 18.8182 16.8112 18.8182H7.24472C6.01395 18.8182 5.00696 17.8112 5.00696 16.5804V10.3147" stroke="currentColor" stroke-width="1.5" stroke-miterlimit="10"/><path d="M9.4545 5.3077V9.13986C9.4545 10.3147 8.50345 11.2937 7.32862 11.2937H6.90904C5.00694 11.2937 3.7482 9.36364 4.50345 7.62937L5.06289 6.31469C5.34261 5.67133 5.95799 5.27972 6.62932 5.27972L9.4545 5.3077Z" stroke="currentColor" stroke-width="1.5" stroke-miterlimit="10"/><path d="M14.5454 5.30768V9.13985C14.5454 10.3147 15.4965 11.2937 16.6713 11.2937H17.0909C18.993 11.2937 20.2517 9.36362 19.4965 7.62936L18.937 6.31467C18.6573 5.69929 18.0419 5.30768 17.3706 5.30768H14.5454Z" stroke="currentColor" stroke-width="1.5" stroke-miterlimit="10"/><path d="M12 11.5455C10.6014 11.5455 9.48254 10.3986 9.48254 9.028V5.33569H14.5455V9.028C14.5455 10.4266 13.3986 11.5455 12 11.5455Z" stroke="currentColor" stroke-width="1.5" stroke-miterlimit="10"/><path d="M14 18.5V15.25C14 15.1119 13.8881 15 13.75 15H10.25C10.1119 15 10 15.1119 10 15.25V18.5" stroke="currentColor" stroke-width="1.5"/></symbol>
<symbol id="qr-code" viewBox="0 0 24 24" fill="none"><path fill-rule="evenodd" clip-rule="evenodd" d="M4 11.1111H11.1111V4H4V11.1111ZM5.77778 5.77778H9.33333V9.33333H5.77778V5.77778ZM4 20H11.1111V12.8889H4V20ZM5.77778 14.6667H9.33333V18.2223H5.77778V14.6667ZM12.8887 11.1111V4H19.9998V11.1111H12.8887ZM14.6664 9.33333H18.222V5.77778H14.6664V9.33333ZM19.9999 18.2222L18.2224 18.2222V16.4445L19.9999 16.4445V14.6667L18.2224 14.6667V12.8889H16.4446V14.6667L14.667 14.6667V16.4445L16.4446 16.4445V18.2222L14.667 18.2222V20H16.4448V18.2222H18.2222V20H19.9999V18.2222ZM18.2222 14.6667H16.4448V16.4445H18.2222V14.6667ZM12.8887 12.8889H14.6665V14.6667H12.8887V12.8889ZM12.8887 16.4445H14.6665V18.2222H12.8887V16.4445Z" fill="currentColor"/></symbol>
<symbol id="review-empty" viewBox="0 0 24 24" fill="none"><path fill-rule="evenodd" clip-rule="evenodd" d="M12.001 4.35C12.1522 4.3499 12.3004 4.39213 12.4289 4.4719C12.5573 4.55168 12.6609 4.66581 12.7278 4.80139L14.7601 8.92118L19.3065 9.58207C19.456 9.60379 19.5965 9.6669 19.712 9.76427C19.8276 9.86164 19.9135 9.98938 19.9603 10.1331C20.007 10.2768 20.0126 10.4306 19.9765 10.5774C19.9403 10.7241 19.8639 10.8577 19.7557 10.9633L16.4664 14.1705L17.2428 18.6974C17.2684 18.8464 17.2518 18.9995 17.1949 19.1395C17.138 19.2796 17.0431 19.4009 16.9209 19.4897C16.7986 19.5786 16.654 19.6315 16.5032 19.6424C16.3525 19.6534 16.2017 19.6219 16.0679 19.5516L12.001 17.4134L7.93415 19.5516C7.80045 19.6218 7.64978 19.6533 7.49916 19.6423C7.34854 19.6314 7.20397 19.5786 7.08177 19.4899C6.95958 19.4012 6.86462 19.2801 6.80762 19.1402C6.75063 19.0004 6.73387 18.8474 6.75923 18.6985L7.53675 14.1695L4.24524 10.9633C4.13679 10.8578 4.06004 10.724 4.02371 10.5772C3.98737 10.4303 3.9929 10.2762 4.03966 10.1323C4.08642 9.98842 4.17255 9.86051 4.28828 9.76307C4.40402 9.66563 4.54473 9.60256 4.69448 9.58099L9.24082 8.92118L11.2743 4.80139C11.3412 4.66581 11.4447 4.55168 11.5732 4.4719C11.7016 4.39213 11.8498 4.3499 12.001 4.35ZM12.001 6.99033L10.5054 10.0194C10.4473 10.137 10.3615 10.2388 10.2554 10.3159C10.1493 10.393 10.0261 10.4432 9.89631 10.4622L6.55189 10.9481L8.97085 13.3066C9.06496 13.3983 9.13537 13.5114 9.17601 13.6363C9.21665 13.7613 9.22629 13.8942 9.2041 14.0237L8.63392 17.354L11.6241 15.7817C11.7404 15.7206 11.8697 15.6887 12.001 15.6887C12.1323 15.6887 12.2617 15.7206 12.3779 15.7817L15.3692 17.354L14.7969 14.0237C14.7747 13.8942 14.7843 13.7613 14.825 13.6363C14.8656 13.5114 14.936 13.3983 15.0301 13.3066L17.4491 10.9492L14.1057 10.4633C13.9759 10.4443 13.8527 10.3941 13.7466 10.317C13.6405 10.2398 13.5548 10.1381 13.4967 10.0205L12.001 6.98925V6.99033Z" fill="currentColor"/></symbol>
<symbol id="review-full" viewBox="0 0 24 24" fill="none"><path fill-rule="evenodd" clip-rule="evenodd" d="M12.001 4.35C12.1522 4.3499 12.3004 4.39213 12.4289 4.4719C12.5573 4.55168 12.6609 4.66581 12.7278 4.80139L14.7601 8.92118L19.3065 9.58207C19.456 9.60379 19.5965 9.6669 19.712 9.76427C19.8276 9.86164 19.9135 9.98938 19.9603 10.1331C20.007 10.2768 20.0126 10.4306 19.9765 10.5774C19.9403 10.7241 19.8639 10.8577 19.7557 10.9633L16.4664 14.1705L17.2428 18.6974C17.2684 18.8464 17.2518 18.9995 17.1949 19.1395C17.138 19.2796 17.0431 19.4009 16.9209 19.4897C16.7986 19.5786 16.654 19.6315 16.5032 19.6424C16.3525 19.6534 16.2017 19.6219 16.0679 19.5516L12.001 17.4134L7.93415 19.5516C7.80045 19.6218 7.64978 19.6533 7.49916 19.6423C7.34854 19.6314 7.20397 19.5786 7.08177 19.4899C6.95958 19.4012 6.86462 19.2801 6.80762 19.1402C6.75063 19.0004 6.73387 18.8474 6.75923 18.6985L7.53675 14.1695L4.24524 10.9633C4.13679 10.8578 4.06004 10.724 4.02371 10.5772C3.98737 10.4303 3.9929 10.2762 4.03966 10.1323C4.08642 9.98842 4.17255 9.86051 4.28828 9.76307C4.40402 9.66563 4.54473 9.60256 4.69448 9.58099L9.24082 8.92118L11.2743 4.80139C11.3412 4.66581 11.4447 4.55168 11.5732 4.4719C11.7016 4.39213 11.8498 4.3499 12.001 4.35Z" fill="currentColor"/></symbol>
<symbol id="review-half" viewBox="0 0 24 24" fill="none"><path fill-rule="evenodd" clip-rule="evenodd" d="M12.001 4.35C12.1522 4.3499 12.3004 4.39213 12.4289 4.4719C12.5573 4.55168 12.6609 4.66581 12.7278 4.80139L14.7601 8.92118L19.3065 9.58207C19.456 9.60379 19.5965 9.6669 19.712 9.76427C19.8276 9.86164 19.9135 9.98938 19.9603 10.1331C20.007 10.2768 20.0126 10.4306 19.9765 10.5774C19.9403 10.7241 19.8639 10.8577 19.7557 10.9633L16.4664 14.1705L17.2428 18.6974C17.2684 18.8464 17.2518 18.9995 17.1949 19.1395C17.138 19.2796 17.0431 19.4009 16.9209 19.4897C16.7986 19.5786 16.654 19.6315 16.5032 19.6424C16.3525 19.6534 16.2017 19.6219 16.0679 19.5516L12.001 17.4134L7.93415 19.5516C7.80045 19.6218 7.64978 19.6533 7.49916 19.6423C7.34854 19.6314 7.20397 19.5786 7.08177 19.4899C6.95958 19.4012 6.86462 19.2801 6.80762 19.1402C6.75063 19.0004 6.73387 18.8474 6.75923 18.6985L7.53675 14.1695L4.24524 10.9633C4.13679 10.8578 4.06004 10.724 4.02371 10.5772C3.98737 10.4303 3.9929 10.2762 4.03966 10.1323C4.08642 9.98842 4.17255 9.86051 4.28828 9.76307C4.40402 9.66563 4.54473 9.60256 4.69448 9.58099L9.24082 8.92118L11.2743 4.80139C11.3412 4.66581 11.4447 4.55168 11.5732 4.4719C11.7016 4.39213 11.8498 4.3499 12.001 4.35ZM12.001 6.99033L10.5054 10.0194C10.4473 10.137 10.3615 10.2388 10.2554 10.3159C10.1493 10.393 10.0261 10.4432 9.89631 10.4622L6.55189 10.9481L8.97085 13.3066C9.06496 13.3983 9.13537 13.5114 9.17601 13.6363C9.21665 13.7613 9.22629 13.8942 9.2041 14.0237L8.63392 17.354L11.6241 15.7817C11.7404 15.7206 11.8697 15.6887 12.001 15.6887C12.1323 15.6887 12.2617 15.7206 12.3779 15.7817L15.3692 17.354L14.7969 14.0237C14.7747 13.8942 14.7843 13.7613 14.825 13.6363C14.8656 13.5114 14.936 13.3983 15.0301 13.3066L17.4491 10.9492L14.1057 10.4633C13.9759 10.4443 13.8527 10.3941 13.7466 10.317C13.6405 10.2398 13.5548 10.1381 13.4967 10.0205L12.001 6.98925V6.99033Z" fill="currentColor"/><path d="M7.93415 19.5516L12.001 17.4134V4.35C11.8498 4.3499 11.7016 4.39213 11.5732 4.4719C11.4447 4.55168 11.3412 4.66581 11.2743 4.80139L9.24082 8.92118L4.69448 9.58099C4.54473 9.60256 4.40402 9.66563 4.28828 9.76307C4.17255 9.86051 4.08642 9.98842 4.03966 10.1323C3.9929 10.2762 3.98737 10.4303 4.02371 10.5772C4.06004 10.724 4.13679 10.8578 4.24524 10.9633L7.53675 14.1695L6.75923 18.6985C6.73387 18.8474 6.75063 19.0004 6.80762 19.1402C6.86462 19.2801 6.95958 19.4012 7.08177 19.4899C7.20397 19.5786 7.34854 19.6314 7.49916 19.6423C7.64978 19.6533 7.80045 19.6218 7.93415 19.5516Z" fill="currentColor"/></symbol>
<symbol id="scan-qr" viewBox="0 0 24 24" fill="none"><path d="M4 5.77778V9.33333H5.77778V5.77778H9.33333V4H5.77778C4.8 4 4 4.8 4 5.77778ZM5.77778 14.6667H4V18.2222C4 19.2 4.8 20 5.77778 20H9.33333V18.2222H5.77778V14.6667ZM18.2222 18.2222H14.6667V20H18.2222C19.2 20 20 19.2 20 18.2222V14.6667H18.2222V18.2222ZM18.2222 4H14.6667V5.77778H18.2222V9.33333H20V5.77778C20 4.8 19.2 4 18.2222 4Z" fill="currentColor"/></symbol>
<symbol id="settings" viewBox="0 0 24 24" fill="none"><path d="M9.81672 6.15385L10.3459 4.78769C10.4352 4.55639 10.5922 4.35743 10.7965 4.21688C11.0007 4.07632 11.2426 4.00073 11.4906 4H12.4998C12.7477 4.00073 12.9896 4.07632 13.1939 4.21688C13.3981 4.35743 13.5552 4.55639 13.6444 4.78769L14.1736 6.15385L15.9706 7.18769L17.4229 6.96615C17.6647 6.93333 17.9108 6.97314 18.13 7.08052C18.3491 7.1879 18.5314 7.35801 18.6536 7.56923L19.1459 8.43077C19.2721 8.64535 19.3302 8.89314 19.3126 9.14144C19.2951 9.38974 19.2026 9.62687 19.0475 9.82154L18.149 10.9662V13.0338L19.0721 14.1785C19.2272 14.3731 19.3197 14.6103 19.3373 14.8586C19.3548 15.1069 19.2967 15.3546 19.1706 15.5692L18.6783 16.4308C18.556 16.642 18.3737 16.8121 18.1546 16.9195C17.9354 17.0269 17.6893 17.0667 17.4475 17.0338L15.9952 16.8123L14.1983 17.8462L13.669 19.2123C13.5798 19.4436 13.4227 19.6426 13.2185 19.7831C13.0143 19.9237 12.7723 19.9993 12.5244 20H11.4906C11.2426 19.9993 11.0007 19.9237 10.7965 19.7831C10.5922 19.6426 10.4352 19.4436 10.3459 19.2123L9.81672 17.8462L8.01979 16.8123L6.56749 17.0338C6.32566 17.0667 6.07954 17.0269 5.86039 16.9195C5.64124 16.8121 5.45896 16.642 5.33672 16.4308L4.84441 15.5692C4.71826 15.3546 4.66013 15.1069 4.67771 14.8586C4.69529 14.6103 4.78774 14.3731 4.94287 14.1785L5.84133 13.0338V10.9662L4.91826 9.82154C4.76313 9.62687 4.67068 9.38974 4.6531 9.14144C4.63552 8.89314 4.69364 8.64535 4.81979 8.43077L5.3121 7.56923C5.43435 7.35801 5.61662 7.1879 5.83577 7.08052C6.05492 6.97314 6.30105 6.93333 6.54287 6.96615L7.99518 7.18769L9.81672 6.15385ZM9.53364 12C9.53364 12.4868 9.67801 12.9628 9.94848 13.3676C10.219 13.7724 10.6034 14.0879 11.0532 14.2742C11.503 14.4605 11.9979 14.5092 12.4754 14.4142C12.9529 14.3193 13.3915 14.0848 13.7357 13.7406C14.08 13.3963 14.3144 12.9577 14.4094 12.4802C14.5044 12.0027 14.4557 11.5078 14.2693 11.058C14.083 10.6082 13.7675 10.2238 13.3627 9.95331C12.9579 9.68283 12.482 9.53846 11.9952 9.53846C11.3423 9.53846 10.7162 9.7978 10.2546 10.2594C9.79298 10.7211 9.53364 11.3472 9.53364 12V12Z" fill="none" stroke="currentColor" stroke-width="1.5" stroke-linecap="round" stroke-linejoin="round"/></symbol>
<symbol id="social-github" viewBox="0 0 25 24" fill="none"><path clip-rule="evenodd" d="M12.75.3c-6.6 0-12 5.4-12 12 0 5.325 3.45 9.825 8.175 11.4.6.075.825-.225.825-.6v-2.025C6.375 21.825 5.7 19.5 5.7 19.5c-.525-1.35-1.35-1.725-1.35-1.725-1.125-.75.075-.75.075-.75 1.2.075 1.875 1.2 1.875 1.2 1.05 1.8 2.775 1.275 3.525.975a2.59 2.59 0 0 1 .75-1.575c-2.7-.3-5.475-1.35-5.475-5.925 0-1.275.45-2.4 1.2-3.225-.15-.3-.525-1.5.15-3.15 0 0 .975-.3 3.3 1.2.975-.3 1.95-.375 3-.375s2.025.15 3 .375c2.325-1.575 3.3-1.275 3.3-1.275.675 1.65.225 2.85.15 3.15.75.825 1.2 1.875 1.2 3.225 0 4.575-2.775 5.625-5.475 5.925.45.375.825 1.125.825 2.25v3.3c0 .3.225.675.825.6a12.015 12.015 0 0 0 8.175-11.4c0-6.6-5.4-12-12-12z" fill="currentColor" fill-rule="evenodd"/></symbol>
<symbol id="social-mattermost" viewBox="0 0 206 206" fill="none"><path fill="currentColor" d="m163.012 19.596 1.082 21.794c17.667 19.519 24.641 47.161 15.846 73.14-13.129 38.782-56.419 59.169-96.693 45.535-40.272-13.633-62.278-56.124-49.15-94.905 8.825-26.066 31.275-43.822 57.276-48.524L105.422.038C61.592-1.15 20.242 26.056 5.448 69.76c-18.178 53.697 10.616 111.963 64.314 130.142 53.698 18.178 111.964-10.617 130.143-64.315 14.77-43.633-1.474-90.283-36.893-115.99"/><path fill="currentColor" d="m137.097 53.436-.596-17.531-.404-15.189s.084-7.322-.17-9.043a2.776 2.776 0 0 0-.305-.914l-.05-.109-.06-.094a2.378 2.378 0 0 0-1.293-1.07 2.382 2.382 0 0 0-1.714.078l-.033.014-.18.092a2.821 2.821 0 0 0-.75.518c-1.25 1.212-5.63 7.08-5.63 7.08l-9.547 11.82-11.123 13.563-19.098 23.75s-8.763 10.938-6.827 24.4c1.937 13.464 11.946 20.022 19.71 22.65 7.765 2.63 19.7 3.5 29.417-6.019 9.716-9.518 9.397-23.53 9.397-23.53l-.744-30.466z"/></symbol>
<symbol id="social-nostr" viewBox="0 0 533.31 533.31" fill="none"><path d="M266.655 2.542C120.789 2.542 2.542 120.789 2.542 266.655c0 145.866 118.247 264.113 264.113 264.113 145.866 0 264.113-118.247 264.113-264.113 0-145.866-118.247-264.113-264.113-264.113Zm104.01 67.283c2.877.134 5.167 1.168 6.615 2.285 1.93 1.49 5.06 2.73 5.81 4.47.15.74-.6 2.83 3.58 3.58s6.971 1.811 6.971 1.811 6.8 1.87 1.35 3.36c-5.51.89-8.92-.31-10.56.74-1.64 1.05-3.13 4.38-4.17 4.83-1.04.45-3.13.15-5.21 1.79-2.08 1.64-4.171 2.979-5.511 6.259-1.34 3.28-2.379 6.851-1.489 11.621.89 4.77 3.72 13.71 6.26 18.77 2.53 5.07 8.79 17.73 10.58 20.71 1.79 2.98 6.85 12.81 7.3 23.39.45 10.58.45 19.219 0 23.839-.45 4.62-4.71 22.452-15.44 37.352-3.54 6.14-10.091 13.858-10.721 15.218-.63 1.36-1.31 2.12-.7 3.32 2.01 3.93 5.591 9.62 6.391 12.7 1 2.89 3.04 7.01 3.14 12.48h-.04c.1 5.47-5.19 22.37-16.81 35.33-11.62 12.96-24.341 9.06-25.391 8.76-1.05-.3-1.34-1.939-3.43-1.639-2.09.3-4.17 2.68-8.19 3.13-4.02.45-7.6.74-11.32-.6-1.94.3-2.229.31-3.129.97-.9.66-7.75 4.689-9.39 4.989 0 3.13-.6 19.37 0 24.29.6 4.92 1.64 11.171 3.28 15.641 1.64 4.47 1.19 4.619 3.28 4.319 2.09-.3 5.81.15 6.85 1.79 1.04 1.64.599 2.83 2.379 3.58s26.37 7.45 43.21 8.34c11.62.3 18.621 1.19 22.651 8.49.6 3.43 3.28 5.66 4.92 6.11 1.64.45 3.58.892 5.21 2.532 1.63 1.64.45 3.578 2.38 5.068 1.94 1.49 6.41 3.72 11.03 5.96 4.62 2.23 6.559 5.81 6.849 7 .29 1.19.74 4.77.74 4.77s-3.87 0-4.77-.89c-.9-.89-1.189-2.53-1.189-2.53s-2.681.45-3.281 1.49c-.6 1.04.3 1.191-3.43.301-3.73-.89-5.07-1.64-7.9-3.72s-7.15-7.451-10.88-7.301c1.79 3.58 2.53 3.581 4.62 4.771 2.09 1.19 3.58 2.53 3.58 2.53l-3.129 1.94s-1.94.89-6.41-.3c-4.47-1.19-5.07-1.94-5.51-4.62-.44-2.68 0-4.02-1.191-6.26-1.19-2.24-1.79-6.85-9.68-9.24-7.9-2.38-28.91-9.241-43.51-10.731-14.6-1.49-9.83-1.19-12.22-.6-2.39.59-6.849 1.94-11.469-.6-4.62-2.53-7.3-5.958-7.6-8.788-.3-2.83-.74-4.772 0-8.342.74-3.57 1.49-8.64.74-11.62-.75-2.98-6.11-24.289-8.64-27.859-5.66.45-22.05-.3-22.05-.3s-1.04-.301-7.6 2.529-15.85 5.98-20.32 8.66c-4.47 2.68-6.26 4.22-7 5.71.05 1.3-.53 3.35-1.21 3.94-.68.59-5.42 1.051-5.42 1.051s-2.54 2.54-3.58 4.33c-2.98 4.17-23.99 54.38-28.91 65.11-5.89 14.15-4.25 11.92-16.39 11.92s-3.5.13-3.5.13-5.361 2.55-7.301 2.55c-1.94 0-8.189-1.04-11.469 0-3.28 1.04-7.15 4.02-10.13 4.47-2.98.45-2.15-.581-3.64-1.631-1.74-.09-6.2-.049-6.2-.049s.759-2.83 3.439-4.73c3.58-2.53 11.03-7 15.05-9.24 4.02-2.23 7.601-3.43 10.131-4.02 2.53-.6 8.05-2.68 13.26-4.32 5.21-1.64 8.49-3.58 12.96-13.71 4.47-10.13 21.899-48.421 22.349-50.511.28-1.29 1.622-2.809 2.092-6.559.29-2.32-1.082-5.67.738-9.83 4.77-10.88 9.39-8.79 11.47-8.79s7.451.15 11.471-.6c4.02-.74 6.699-1.19 10.729-3.43 4.02-2.23 4.922-3.871 4.922-3.871l-8.641-1.488s-8.05.298-10.88-1.942c-2.83-2.24-6.7-6.85-6.7-6.85l-3.28-3.128.45 3.718s-2.23-3.868-2.83-4.468c-.6-.6-3.72-2.832-4.92-4.922-1.2-2.09-3.28-10.88-3.28-10.88l-2.681 5.661-.738-8.19-2.23 3.13-1.192-7-2.09 3.58-1.488-6.26-2.532 1.94-1.039-4.47-2.531-1.49s-6.108-4.02-7.148-4.17c-1.04-.15-1.942 1.49-1.942 1.49l.6 5.21-5.299-2.721-3.041-5.17s1.02 1.741-4.18 3.271c-8.93 0-9.51-.99-10.83-1.71-.57-2.85-2.42-4.391-2.42-4.391h-8.94l-.15-2.979-3.43 1.34.302-4.47h-6.112l.451-4.92h-3.87s1.34-4.02 11.17-9.98c9.83-5.96 10.88-7.15 20.11-7.45 9.24-.3 14.3 1.19 20.11 3.58 5.81 2.38 16.84 5.96 19.07 7.6 4.92-4.32 12.37-8.641 14.9-8.641.45-1.04 2.69-5.358 7.81-7.648 15.34-6.87 46.99-14.782 57.16-15.452 13.56-.89 3.43-.599 16.99.891 13.56 1.49 23.54 3.28 30.25 5.51 5.46 1.82 10.88 4.17 14.9.89 1.88-.79 5.13-.58 7.75-2.23 13.34-10.9 15.089-14.06 18.959-18.23 3.87-4.17 8.75-10.83 9.8-19.62 1.05-8.79 1.942-25.33-4.618-38.29-6.56-12.96-12.521-19.67-15.051-30.1-2.53-10.43-3.58-26.52-2.68-31.74.9-5.22 2.23-9.68 2.98-13.26s4.32-6.41 8.64-7.15c1.08-.186 2.105-.24 3.064-.196z" fill="currentColor"/></symbol>
<symbol id="social-telegram" viewBox="0 0 496 512" fill="none"><path fill="currentColor" d="M248,8C111.033,8,0,119.033,0,256S111.033,504,248,504,496,392.967,496,256,384.967,8,248,8ZM362.952,176.66c-3.732,39.215-19.881,134.378-28.1,178.3-3.476,18.584-10.322,24.816-16.948,25.425-14.4,1.326-25.338-9.517-39.287-18.661-21.827-14.308-34.158-23.215-55.346-37.177-24.485-16.135-8.612-25,5.342-39.5,3.652-3.793,67.107-61.51,68.335-66.746.153-.655.3-3.1-1.154-4.384s-3.59-.849-5.135-.5q-3.283.746-104.608,69.142-14.845,10.194-26.894,9.934c-8.855-.191-25.888-5.006-38.551-9.123-15.531-5.048-27.875-7.717-26.8-16.291q.84-6.7,18.45-13.7,108.446-47.248,144.628-62.3c68.872-28.647,83.183-33.623,92.511-33.789,2.052-.034,6.639.474,9.61,2.885a10.452,10.452,0,0,1,3.53,6.716A43.765,43.765,0,0,1,362.952,176.66Z"/></symbol>
<symbol id="social-twitter" viewBox="0 0 37 37" fill="none"><path d="M36 18c0 9.945-8.055 18-18 18S0 27.945 0 18 8.055 0 18 0s18 8.055 18 18zm-21.294 9.495c7.983 0 12.348-6.615 12.348-12.348 0-.189 0-.378-.009-.558a8.891 8.891 0 0 0 2.169-2.25 8.808 8.808 0 0 1-2.493.684 4.337 4.337 0 0 0 1.908-2.403 8.788 8.788 0 0 1-2.754 1.053 4.319 4.319 0 0 0-3.168-1.368 4.34 4.34 0 0 0-4.338 4.338c0 .342.036.675.117.99a12.311 12.311 0 0 1-8.946-4.536 4.353 4.353 0 0 0-.585 2.178 4.32 4.32 0 0 0 1.935 3.609 4.263 4.263 0 0 1-1.962-.54v.054a4.345 4.345 0 0 0 3.483 4.257 4.326 4.326 0 0 1-1.962.072 4.333 4.333 0 0 0 4.05 3.015 8.724 8.724 0 0 1-6.426 1.791 12.091 12.091 0 0 0 6.633 1.962z" fill="currentColor"/></symbol>
<symbol id="themes-dark" viewBox="0 0 24 24" fill="none"><path d="M9.8946 5C8.46899 5.47809 7.22957 6.39189 6.35133 7.61239C5.47308 8.83289 5.00039 10.2984 5 11.8021C5 15.7789 8.22108 19 12.1979 19C15.365 19 18.0463 16.9486 19 14.1054C18.2802 14.3393 17.5064 14.5013 16.6967 14.5013C12.7198 14.5013 9.49871 11.2802 9.49871 7.30334C9.49871 6.49357 9.64267 5.71979 9.8946 5Z" fill="currentColor"/></symbol>
<symbol id="themes-light" viewBox="0 0 24 24" fill="none"><path d="M12 5C11.51 5 11.125 5.385 11.125 5.875C11.125 6.365 11.51 6.75 12 6.75C12.49 6.75 12.875 6.365 12.875 5.875C12.875 5.385 12.49 5 12 5ZM7.625 6.75C7.135 6.75 6.75 7.135 6.75 7.625C6.75 8.115 7.135 8.5 7.625 8.5C8.115 8.5 8.5 8.115 8.5 7.625C8.5 7.135 8.115 6.75 7.625 6.75ZM16.375 6.75C15.885 6.75 15.5 7.135 15.5 7.625C15.5 8.115 15.885 8.5 16.375 8.5C16.865 8.5 17.25 8.115 17.25 7.625C17.25 7.135 16.865 6.75 16.375 6.75ZM12 8.5C10.075 8.5 8.5 10.075 8.5 12C8.5 13.925 10.075 15.5 12 15.5C13.925 15.5 15.5 13.925 15.5 12C15.5 10.075 13.925 8.5 12 8.5ZM5.875 11.125C5.385 11.125 5 11.51 5 12C5 12.49 5.385 12.875 5.875 12.875C6.365 12.875 6.75 12.49 6.75 12C6.75 11.51 6.365 11.125 5.875 11.125ZM18.125 11.125C17.635 11.125 17.25 11.51 17.25 12C17.25 12.49 17.635 12.875 18.125 12.875C18.615 12.875 19 12.49 19 12C19 11.51 18.615 11.125 18.125 11.125ZM7.625 15.5C7.135 15.5 6.75 15.885 6.75 16.375C6.75 16.865 7.135 17.25 7.625 17.25C8.115 17.25 8.5 16.865 8.5 16.375C8.5 15.885 8.115 15.5 7.625 15.5ZM16.375 15.5C15.885 15.5 15.5 15.885 15.5 16.375C15.5 16.865 15.885 17.25 16.375 17.25C16.865 17.25 17.25 16.865 17.25 16.375C17.25 15.885 16.865 15.5 16.375 15.5ZM12 17.25C11.51 17.25 11.125 17.635 11.125 18.125C11.125 18.615 11.51 19 12 19C12.49 19 12.875 18.615 12.875 18.125C12.875 17.635 12.49 17.25 12 17.25Z" fill="currentColor"/></symbol>
<symbol id="themes-system" viewBox="0 0 24 24" fill="none"><path clip-rule="evenodd" d="m12 17.5v-11c-3.03757 0-5.5 2.46243-5.5 5.5 0 3.0376 2.46243 5.5 5.5 5.5zm0-12.5c3.866 0 7 3.13401 7 7 0 3.866-3.134 7-7 7-3.86599 0-7-3.134-7-7 0-3.86599 3.13401-7 7-7z" fill="currentColor" fill-rule="evenodd"/></symbol>
<symbol id="time" viewBox="0 0 24 24" fill="none"><circle cx="12" cy="12" r="8" stroke="currentColor" stroke-width="1.75"/><path d="M12 8.5V12.9102C12 13.1153 12.1252 13.2996 12.3159 13.3751L14.5 14.24" stroke="currentColor" stroke-width="1.75" stroke-linecap="round"/></symbol>
<symbol id="wallet-existing" viewBox="0 0 32 32" fill="none"><path d="M26.5362 7.08746H25.9614V3.25512C25.9614 2.10542 25.3865 1.14734 24.6201 0.572488C23.8536 -0.00236247 22.7039 -0.193979 21.7458 -0.00236246L4.11707 5.36291C2.00929 5.93776 0.667969 7.85392 0.667969 9.96171V12.0695V12.836V27.3988C0.667969 30.0815 2.77575 32.1893 5.45839 32.1893H26.5362C29.2189 32.1893 31.3267 30.0815 31.3267 27.3988V12.0695C31.3267 9.38686 29.2189 7.08746 26.5362 7.08746ZM4.69192 7.08746L22.129 1.91381C22.5123 1.72219 23.0871 1.91381 23.4704 2.10542C23.8536 2.29704 24.0452 2.87189 24.0452 3.25512V7.08746H5.45839C4.88354 7.08746 4.5003 7.27908 3.92545 7.47069C4.11707 7.27908 4.5003 7.08746 4.69192 7.08746ZM29.4105 27.2072C29.4105 28.7402 28.0692 30.0815 26.5362 30.0815H5.45839C3.92545 30.0815 2.58414 28.7402 2.58414 27.2072V12.836V11.8779C2.58414 10.3449 3.92545 9.00362 5.45839 9.00362H26.5362C28.0692 9.00362 29.4105 10.3449 29.4105 11.8779V27.2072Z" fill="currentColor"/><path d="M25.9591 21.6487C27.0174 21.6487 27.8753 20.7908 27.8753 19.7326C27.8753 18.6743 27.0174 17.8164 25.9591 17.8164C24.9009 17.8164 24.043 18.6743 24.043 19.7326C24.043 20.7908 24.9009 21.6487 25.9591 21.6487Z" fill="currentColor"/></symbol>
<symbol id="wallet-file" viewBox="0 0 32 32" fill="none"><path d="M5 1H20.8479L27 6.90258V31H5V1Z" fill="none" stroke="currentColor" stroke-width="2"/></symbol>
<symbol id="wallet-hardware" viewBox="0 0 32 32" fill="none"><rect x="18.9767" y="6.57031" width="6" height="8" rx="1" transform="rotate(-45 18.9767 6.57031)" fill="none" stroke="currentColor" stroke-width="2"/><path d="M3.8871 21.1057C2.71552 19.9341 2.71552 18.0346 3.8871 16.8631L15.888 4.86213C16.2785 4.4716 16.9117 4.4716 17.3022 4.86212L25.7898 13.3497C26.1804 13.7402 26.1804 14.3734 25.7898 14.7639L13.7889 26.7649C12.6173 27.9364 10.7178 27.9364 9.54626 26.7649L3.8871 21.1057Z" fill="none" stroke="currentColor" stroke-width="2"/></symbol>
<symbol id="wallet-hot" viewBox="0 0 32 32" fill="none"><path d="M26.5362 7.08746H25.9614V3.25512C25.9614 2.10542 25.3865 1.14734 24.6201 0.572488C23.8536 -0.00236247 22.7039 -0.193979 21.7458 -0.00236246L4.11707 5.36291C2.00929 5.93776 0.667969 7.85392 0.667969 9.96171V12.0695V12.836V27.3988C0.667969 30.0815 2.77575 32.1893 5.45839 32.1893H26.5362C29.2189 32.1893 31.3267 30.0815 31.3267 27.3988V12.0695C31.3267 9.38686 29.2189 7.08746 26.5362 7.08746ZM4.69192 7.08746L22.129 1.91381C22.5123 1.72219 23.0871 1.91381 23.4704 2.10542C23.8536 2.29704 24.0452 2.87189 24.0452 3.25512V7.08746H5.45839C4.88354 7.08746 4.5003 7.27908 3.92545 7.47069C4.11707 7.27908 4.5003 7.08746 4.69192 7.08746ZM29.4105 27.2072C29.4105 28.7402 28.0692 30.0815 26.5362 30.0815H5.45839C3.92545 30.0815 2.58414 28.7402 2.58414 27.2072V12.836V11.8779C2.58414 10.3449 3.92545 9.00362 5.45839 9.00362H26.5362C28.0692 9.00362 29.4105 10.3449 29.4105 11.8779V27.2072Z" fill="currentColor"/><path d="M25.9591 21.6487C27.0174 21.6487 27.8753 20.7908 27.8753 19.7326C27.8753 18.6743 27.0174 17.8164 25.9591 17.8164C24.9009 17.8164 24.043 18.6743 24.043 19.7326C24.043 20.7908 24.9009 21.6487 25.9591 21.6487Z" fill="currentColor"/></symbol>
<symbol id="wallet-new" viewBox="0 0 32 32" fill="none"><path d="M16 10V22" stroke="currentColor" stroke-width="2" stroke-linecap="round" stroke-linejoin="round"/><path d="M22 16H10" stroke="currentColor" stroke-width="2" stroke-linecap="round" stroke-linejoin="round"/><circle fill="none" cx="16" cy="16" r="15" stroke="currentColor" stroke-width="2"/></symbol>
<symbol id="wallet-seed" viewBox="0 0 32 32" fill="none"><rect x="0.875" y="2.875" width="30.25" height="26.25" rx="1.125" fill="none" stroke="currentColor" stroke-width="1.75"/><rect x="5" y="7" width="9" height="4" rx="0.5" fill="currentColor"/><rect x="5" y="14" width="9" height="4" rx="0.5" fill="currentColor"/><rect x="18" y="7" width="9" height="4" rx="0.5" fill="currentColor"/><rect x="18" y="14" width="9" height="4" rx="0.5" fill="currentColor"/><rect x="5" y="21" width="9" height="4" rx="0.5" fill="currentColor"/><rect x="18" y="21" width="9" height="4" rx="0.5" fill="currentColor"/></symbol>
<symbol id="wallet-wallet" viewBox="0 0 24 24" fill="none"><rect x="4" y="6" width="16" height="13" rx="4" stroke="currentColor" stroke-width="1.5"/><rect x="7.5" y="9.5" width="4" height="3" rx="1.5" fill="currentColor"/></symbol>
<symbol id="wallet-watchonly" viewBox="0 0 32 32" fill="none"><path d="M26.5362 7.08746H25.9614V3.25512C25.9614 2.10542 25.3865 1.14734 24.6201 0.572488C23.8536 -0.00236247 22.7039 -0.193979 21.7458 -0.00236246L4.11707 5.36291C2.00929 5.93776 0.667969 7.85392 0.667969 9.96171V12.0695V12.836V27.3988C0.667969 30.0815 2.77575 32.1893 5.45839 32.1893H26.5362C29.2189 32.1893 31.3267 30.0815 31.3267 27.3988V12.0695C31.3267 9.38686 29.2189 7.08746 26.5362 7.08746ZM4.69192 7.08746L22.129 1.91381C22.5123 1.72219 23.0871 1.91381 23.4704 2.10542C23.8536 2.29704 24.0452 2.87189 24.0452 3.25512V7.08746H5.45839C4.88354 7.08746 4.5003 7.27908 3.92545 7.47069C4.11707 7.27908 4.5003 7.08746 4.69192 7.08746ZM29.4105 27.2072C29.4105 28.7402 28.0692 30.0815 26.5362 30.0815H5.45839C3.92545 30.0815 2.58414 28.7402 2.58414 27.2072V12.836V11.8779C2.58414 10.3449 3.92545 9.00362 5.45839 9.00362H26.5362C28.0692 9.00362 29.4105 10.3449 29.4105 11.8779V27.2072Z" fill="currentColor"/><path d="M25.9591 21.6487C27.0174 21.6487 27.8753 20.7908 27.8753 19.7326C27.8753 18.6743 27.0174 17.8164 25.9591 17.8164C24.9009 17.8164 24.043 18.6743 24.043 19.7326C24.043 20.7908 24.9009 21.6487 25.9591 21.6487Z" fill="currentColor"/></symbol>
<symbol id="wallet-xpub" viewBox="0 0 24 24" fill="none"><path fill-rule="evenodd" clip-rule="evenodd" d="M10.5 9.5C10.5003 8.65387 10.769 7.82965 11.2673 7.14583C11.7657 6.46202 12.468 5.95384 13.2733 5.69436C14.0787 5.43488 14.9456 5.43748 15.7494 5.70176C16.5532 5.96605 17.2525 6.47842 17.7467 7.1652C18.2409 7.85198 18.5047 8.6778 18.4999 9.52392C18.4952 10.37 18.2223 11.1929 17.7205 11.8741C17.2186 12.5553 16.5137 13.0599 15.707 13.3152C14.9003 13.5705 14.0334 13.5634 13.231 13.295C13.0989 13.2507 12.9571 13.2441 12.8214 13.2759C12.6858 13.3077 12.5617 13.3766 12.463 13.475L11.44 14.5H10.25C10.0511 14.5 9.86032 14.579 9.71967 14.7197C9.57902 14.8603 9.5 15.0511 9.5 15.25V16.44L9.44 16.5H8.25C8.05109 16.5 7.86032 16.579 7.71967 16.7197C7.57902 16.8603 7.5 17.0511 7.5 17.25V18.44L7.44 18.5H5.75C5.6837 18.5 5.62011 18.4737 5.57322 18.4268C5.52634 18.3799 5.5 18.3163 5.5 18.25V16.56L10.524 11.537C10.6226 11.4384 10.6917 11.3144 10.7237 11.1787C10.7556 11.0431 10.7492 10.9012 10.705 10.769C10.5686 10.3598 10.4994 9.93129 10.5 9.5ZM14.5 4C13.6681 3.99986 12.847 4.18843 12.0985 4.55153C11.35 4.91463 10.6937 5.44279 10.1788 6.09625C9.66398 6.74971 9.30409 7.51145 9.12623 8.32412C8.94837 9.13679 8.95718 9.97923 9.152 10.788L4.22 15.72C4.07931 15.8605 4.00018 16.0512 4 16.25V18.25C4 19.216 4.784 20 5.75 20H7.75C7.94885 19.9998 8.13948 19.9207 8.28 19.78L8.78 19.28C8.92069 19.1395 8.99983 18.9488 9 18.75V18H9.75C9.94885 17.9998 10.1395 17.9207 10.28 17.78L10.78 17.28C10.9207 17.1395 10.9998 16.9488 11 16.75V16H11.75C11.9488 15.9998 12.1395 15.9207 12.28 15.78L13.212 14.848C13.9672 15.0293 14.7523 15.0487 15.5155 14.9047C16.2787 14.7608 17.0028 14.4568 17.64 14.0128C18.2773 13.5689 18.8133 12.995 19.2128 12.3289C19.6123 11.6628 19.8662 10.9197 19.9577 10.1485C20.0493 9.37721 19.9765 8.59531 19.7441 7.85422C19.5117 7.11314 19.125 6.42968 18.6094 5.84883C18.0938 5.26798 17.461 4.80292 16.7527 4.48426C16.0444 4.16559 15.2767 4.00055 14.5 4ZM15 10C15.2652 10 15.5196 9.89464 15.7071 9.70711C15.8946 9.51957 16 9.26522 16 9C16 8.73478 15.8946 8.48043 15.7071 8.29289C15.5196 8.10536 15.2652 8 15 8C14.7348 8 14.4804 8.10536 14.2929 8.29289C14.1054 8.48043 14 8.73478 14 9C14 9.26522 14.1054 9.51957 14.2929 9.70711C14.4804 9.89464 14.7348 10 15 10Z" fill="currentColor"/></symbol>
<symbol id="warning" viewBox="0 0 24 24" fill="none"><path fill-rule="evenodd" clip-rule="evenodd" d="M12.2528 5.32603C12.2282 5.28043 12.1917 5.24233 12.1472 5.21577C12.1027 5.18922 12.0518 5.1752 12 5.1752C11.9482 5.1752 11.8973 5.18922 11.8528 5.21577C11.8083 5.24233 11.7718 5.28043 11.7472 5.32603L4.75786 18.4014C4.73445 18.4451 4.72276 18.4942 4.72393 18.5438C4.7251 18.5934 4.7391 18.6419 4.76455 18.6844C4.79001 18.727 4.82606 18.7623 4.86919 18.7868C4.91233 18.8113 4.96107 18.8242 5.01068 18.8243H18.9893C19.0389 18.8242 19.0877 18.8113 19.1308 18.7868C19.1739 18.7623 19.21 18.727 19.2354 18.6844C19.2609 18.6419 19.2749 18.5934 19.2761 18.5438C19.2772 18.4942 19.2656 18.4451 19.2421 18.4014L12.2528 5.32603ZM10.2268 4.51356C10.9841 3.09547 13.0159 3.09547 13.7732 4.51356L20.7625 17.5889C20.9263 17.8953 21.0079 18.2389 20.9994 18.5862C20.9909 18.9335 20.8926 19.2727 20.714 19.5707C20.5354 19.8687 20.2827 20.1154 19.9804 20.2867C19.6782 20.458 19.3367 20.548 18.9893 20.5481H5.01068C4.66327 20.548 4.3218 20.458 4.01955 20.2867C3.7173 20.1154 3.46457 19.8687 3.286 19.5707C3.10743 19.2727 3.0091 18.9335 3.0006 18.5862C2.9921 18.2389 3.07372 17.8953 3.2375 17.5889L10.2268 4.51356ZM13.1492 15.9514C13.1492 16.2561 13.0281 16.5484 12.8126 16.764C12.5971 16.9795 12.3048 17.1005 12 17.1005C11.6952 17.1005 11.4029 16.9795 11.1874 16.764C10.9719 16.5484 10.8508 16.2561 10.8508 15.9514C10.8508 15.6466 10.9719 15.3543 11.1874 15.1388C11.4029 14.9233 11.6952 14.8022 12 14.8022C12.3048 14.8022 12.5971 14.9233 12.8126 15.1388C13.0281 15.3543 13.1492 15.6466 13.1492 15.9514ZM12.8619 9.91816C12.8619 9.68957 12.7711 9.47035 12.6094 9.30871C12.4478 9.14708 12.2286 9.05627 12 9.05627C11.7714 9.05627 11.5522 9.14708 11.3906 9.30871C11.2289 9.47035 11.1381 9.68957 11.1381 9.91816V12.7911C11.1381 13.0197 11.2289 13.2389 11.3906 13.4006C11.5522 13.5622 11.7714 13.653 12 13.653C12.2286 13.653 12.4478 13.5622 12.6094 13.4006C12.7711 13.2389 12.8619 13.0197 12.8619 12.7911V9.91816Z" fill="currentColor"/></symbol>
</svg>