<svg width="0" height="0" xmlns="http://www.w3.org/2000/svg">
<symbol id="note" viewBox="0 0 16 16"><path d="M14.2 16H1.8C.808 16 0 15.192 0 14.2V1.8C0 .808.808 0 1.8 0h12.4c.992 0 1.8.808 1.8 1.8v12.4c0 .992-.808 1.8-1.8 1.8zM1.8 1.2a.6.6 0 00-.6.6v12.4c0 .33.269.6.6.6h12.4a.6.6 0 00.6-.6V1.8a.6.6 0 00-.6-.6H1.8z" fill="currentColor"/><path d="M12 5.312H4a.6.6 0 010-1.2h8a.6.6 0 110 1.2zM12 8.6H4a.6.6 0 010-1.2h8a.6.6 0 010 1.2zm-4 3.288H4a.6.6 0 110-1.2h4a.6.6 0 010 1.2z" fill="currentColor"/></symbol>
<symbol id="onion" viewBox="0 0 61 91"><g fill="currentColor"><path d="m34.9 6.8-2.4 9.6C35.9 9.6 41.4 4.5 47.7 0c-4.6 5.3-8.8 10.6-11.3 16C40.7 9.9 46.5 6.6 53 4.3 44.3 12 37.4 20.4 32.2 28.7L28 26.9c.7-6.7 3.2-13.5 6.9-20.1z"/><path d="m31.7 28.3 2.9 1.5c-.3 1.9.1 6.1 2 7.1 8.4 5.2 16.2 10.8 19.3 16.5 11 19.9-7.7 38.4-24 36.6 8.8-6.5 11.4-19.9 8.1-34.6-1.3-5.7-3.4-10.9-7.1-16.8-1.6-2.7-1-6.3-1.2-10.3zM28.5 37.8c-.6 3.1-1.3 8.7-4 10.8-1.1.8-2.3 1.6-3.5 2.4-4.9 3.3-9.7 6.4-11.9 14.3-.5 1.7-.1 3.5.3 5.2 1.2 4.9 4.6 10.1 7.3 13.2 0 .1.5.5.5.6 2.2 2.6 2.9 3.4 11.3 5.3l-.2.9c-5.1-1.3-9.2-2.6-11.9-5.6 0-.1-.5-.5-.5-.5-2.8-3.2-6.3-8.6-7.5-13.7-.5-2-.9-3.6-.3-5.7 2.3-8.2 7.3-11.5 12.3-14.9 1.1-.7 2.5-1.4 3.6-2.3 2.3-1.5 3.4-6.2 4.5-10z"/><path d="M30.7 50.8c.1 3.5-.3 5.3.6 7.8.5 1.5 2.4 3.5 2.9 5.5.7 2.6 1.5 5.5 1.5 7.3 0 2-.1 5.8-1 9.8-.7 3.3-2.2 6.2-4.8 7.8-2.7-.5-5.8-1.5-7.6-3.1-3.6-3.1-6.7-8.3-7.1-12.8-.3-3.7 3.1-9.2 7.9-11.9 4-2.4 5-5 5.9-9.4-1.2 3.8-2.4 6.9-6.3 9-5.7 3-8.6 7.9-8.3 12.7.4 6.1 2.8 10.2 7.6 13.5 2 1.4 5.8 2.9 8.2 3.3V90c1.8-.3 4.1-3.3 5.3-7.2 1-3.6 1.4-8.1 1.3-11-.1-1.7-.8-5.3-2.2-8.6-.7-1.8-1.9-3.6-2.6-4.9-.9-1.5-.9-4.3-1.3-7.5z"/><path d="M30.1 64.5c.1 2.4 1 5.4 1.4 8.5.3 2.3.2 4.6.1 6.6-.1 2.3-.8 6.5-1.9 8.6-1-.5-1.4-1-2.1-1.8-.8-1.1-1.4-2.3-1.9-3.6-.4-1-.9-2.2-1.1-3.5-.3-2-.2-5.2 2.1-8.4 1.8-2.6 2.2-2.8 2.8-5.7-.8 2.6-1.4 2.9-3.3 5.1-2.1 2.4-2.4 6-2.4 8.9 0 1.2.5 2.6 1 3.8.5 1.3 1 2.7 1.7 3.7 1.1 1.6 2.5 2.6 3.2 2.7v-.1c1.3-1.5 2.1-2.9 2.4-4.4.3-1.8.4-3.5.6-5.6.2-1.8.1-4.1-.4-6.5-.6-3-1.7-6.1-2.2-8.3z"/><path d="M30.5 35c.1 3.5.3 10 1.3 12.6.3.9 2.8 4.7 4.5 9.4 1.2 3.2 1.5 6.2 1.7 7.1.8 3.8-.2 10.3-1.5 16.4-.7 3.3-3 7.4-5.6 9l-.5.9c1.5-.1 5.1-3.6 6.4-8.1 2.2-7.5 3-11 2-19.4-.1-.8-.5-3.6-1.8-6.5-1.9-4.5-4.6-8.8-4.9-9.7-.7-1.4-1.5-7.6-1.6-11.7z"/><path d="M31.7 28.6c-.2 3.6-.2 6.4.4 9.1.7 2.9 4.5 7.1 6.1 11.9 3 9.2 2.2 21.2.1 30.5-.8 3.3-4.6 8.1-8.5 9.6l2.8.7c1.5-.1 5.5-3.8 7.1-8 2.5-6.7 3-14.6 2-23-.1-.8-1.4-8-2.7-11-1.8-4.5-4.7-7.7-5.7-10.5-.8-2.1-1.1-7.7-.6-8.8l-1-.5z"/><path d="M51.7 46.3c-2.9-2.6-6.5-4.8-10.3-6.9-1.7-.9-6.9-5-5.1-10.8l-13.1-5.4-.9.7c4.4 7.9 2.1 12.1-.1 13.5-4.4 3-10.8 6.8-13.9 10.1C2.2 53.8.4 59.8 1 67.6c.6 10.1 7.9 18.5 17.8 21.8 4.3 1.4 8.3 1.6 12.7 1.6 7.1 0 14.5-1.9 19.8-6.3 5.7-4.7 9-11.8 9-19.1 0-7.3-3.1-14.3-8.6-19.3zm-1.9 36.9c-4.9 4-13.7 6.8-18.4 6.6-5.2-.3-10.3-1.1-14.8-3.3C8.7 82.7 3.5 74.4 3.1 67.7 2.4 54 9 50.1 15.1 45.1c3.4-2.8 8.2-4.2 10.9-9.2.5-1.1.8-3.5.2-6-.3-.9-1.5-3.9-2-4.6l9.8 4.3c-1.2 4.5 2.5 9.2 5.5 10.9 3 1.7 7.7 4.9 10.6 7.5 5.1 4.5 7.7 10.9 7.7 17.6 0 6.7-2.8 13.3-8 17.6z"/></g></symbol>
<symbol id="back" viewBox="0 0 21 18"><path d="M7.63754 1.10861L0.578503 8.16764C0.119666 8.62648 0.119666 9.37121 0.578503 9.83122L7.63754 16.8902C8.09637 17.3491 8.8411 17.3491 9.30111 16.8902C9.53053 16.6608 9.64583 16.3608 9.64583 16.0585C9.64583 15.7561 9.53053 15.4561 9.30111 15.2267L4.25038 10.1759H19.0579C19.7085 10.1759 20.2344 9.65004 20.2344 8.99943C20.2344 8.34882 19.7085 7.82293 19.0579 7.82293L4.25038 7.82293L9.30111 2.77219C9.53053 2.54277 9.64583 2.24276 9.64583 1.9404C9.64583 1.63804 9.53053 1.33803 9.30111 1.10861C8.84228 0.649771 8.09755 0.649771 7.63754 1.10861Z" fill="currentColor" /></symbol>
<symbol id="close" viewBox="0 0 16 16"><path d="M9.38526 8.08753L15.5498 1.85558C15.9653 1.43545 15.9653 0.805252 15.5498 0.385121C15.1342 -0.0350102 14.5108 -0.0350102 14.0952 0.385121L7.93072 6.61707L1.76623 0.315098C1.35065 -0.105033 0.727273 -0.105033 0.311688 0.315098C-0.103896 0.73523 -0.103896 1.36543 0.311688 1.78556L6.47618 8.0175L0.311688 14.2495C-0.103896 14.6696 -0.103896 15.2998 0.311688 15.7199C0.519481 15.93 0.796499 16 1.07355 16C1.35061 16 1.62769 15.93 1.83548 15.7199L7.99997 9.48797L14.1645 15.7199C14.3722 15.93 14.6493 16 14.9264 16C15.2034 16 15.4805 15.93 15.6883 15.7199C16.1039 15.2998 16.1039 14.6696 15.6883 14.2495L9.38526 8.08753Z" fill="currentColor"/></symbol>
<symbol id="copy" viewBox="0 0 24 24" fill="none"><path d="M20 6H8a2 2 0 0 0-2 2v12c0 1.1.9 2 2 2h12a2 2 0 0 0 2-2V8a2 2 0 0 0-2-2Zm0 13a1 1 0 0 1-1 1H9a1 1 0 0 1-1-1V9a1 1 0 0 1 1-1h10a1 1 0 0 1 1 1v10Z" fill="currentColor"/><path d="M4 5a1 1 0 0 1 1-1h12a1 1 0 1 0 0-2H4a2 2 0 0 0-2 2v13a1 1 0 1 0 2 0V5Z" fill="currentColor"/></symbol>
<symbol id="info" viewBox="0 0 24 24"><g><path fill-rule="evenodd" clip-rule="evenodd" d="M12 20C16.4183 20 20 16.4183 20 12C20 7.58172 16.4183 4 12 4C7.58172 4 4 7.58172 4 12C4 16.4183 7.58172 20 12 20ZM12 18C15.3137 18 18 15.3137 18 12C18 8.68629 15.3137 6 12 6C8.68629 6 6 8.68629 6 12C6 15.3137 8.68629 18 12 18Z" fill="currentColor" /><path d="M12 8C11.4477 8 11 8.44772 11 9C11 9.55228 11.4477 10 12 10C12.5523 10 13 9.55228 13 9C13 8.44772 12.5523 8 12 8Z" fill="currentColor" /><path d="M11 12C11 12 11 11 12 11C13 11 13 12 13 12V15C13 15 13 16 12 16C11 16 11 15 11 15V12Z" fill="currentColor" /></g></symbol>
<symbol id="caret-right" viewBox="0 0 24 24"><path d="M9.5 17L14.5 12L9.5 7" stroke="currentColor" stroke-width="2" stroke-linecap="round" stroke-linejoin="round" fill="none"/></symbol>
<symbol id="caret-down" viewBox="0 0 24 24"><path d="M7 9.5L12 14.5L17 9.5" stroke="currentColor" stroke-width="2" stroke-linecap="round" stroke-linejoin="round" fill="none"/></symbol>
<symbol id="new-store" viewBox="0 0 32 32"><path d="M16 10V22" stroke="currentColor" stroke-width="2" stroke-linecap="round" stroke-linejoin="round"/><path d="M22 16H10" stroke="currentColor" stroke-width="2" stroke-linecap="round" stroke-linejoin="round"/><circle fill="none" cx="16" cy="16" r="15" stroke="currentColor" stroke-width="2"/></symbol>
<symbol id="new-wallet" viewBox="0 0 32 32"><path d="M16 10V22" stroke="currentColor" stroke-width="2" stroke-linecap="round" stroke-linejoin="round"/><path d="M22 16H10" stroke="currentColor" stroke-width="2" stroke-linecap="round" stroke-linejoin="round"/><circle fill="none" cx="16" cy="16" r="15" stroke="currentColor" stroke-width="2"/></symbol>
<symbol id="existing-wallet" viewBox="0 0 32 32"><g clip-path="url(#clip0)"><path d="M26.5362 7.08746H25.9614V3.25512C25.9614 2.10542 25.3865 1.14734 24.6201 0.572488C23.8536 -0.00236247 22.7039 -0.193979 21.7458 -0.00236246L4.11707 5.36291C2.00929 5.93776 0.667969 7.85392 0.667969 9.96171V12.0695V12.836V27.3988C0.667969 30.0815 2.77575 32.1893 5.45839 32.1893H26.5362C29.2189 32.1893 31.3267 30.0815 31.3267 27.3988V12.0695C31.3267 9.38686 29.2189 7.08746 26.5362 7.08746ZM4.69192 7.08746L22.129 1.91381C22.5123 1.72219 23.0871 1.91381 23.4704 2.10542C23.8536 2.29704 24.0452 2.87189 24.0452 3.25512V7.08746H5.45839C4.88354 7.08746 4.5003 7.27908 3.92545 7.47069C4.11707 7.27908 4.5003 7.08746 4.69192 7.08746ZM29.4105 27.2072C29.4105 28.7402 28.0692 30.0815 26.5362 30.0815H5.45839C3.92545 30.0815 2.58414 28.7402 2.58414 27.2072V12.836V11.8779C2.58414 10.3449 3.92545 9.00362 5.45839 9.00362H26.5362C28.0692 9.00362 29.4105 10.3449 29.4105 11.8779V27.2072Z" fill="currentColor"/><path d="M25.9591 21.6487C27.0174 21.6487 27.8753 20.7908 27.8753 19.7326C27.8753 18.6743 27.0174 17.8164 25.9591 17.8164C24.9009 17.8164 24.043 18.6743 24.043 19.7326C24.043 20.7908 24.9009 21.6487 25.9591 21.6487Z" fill="currentColor"/></g><defs><clipPath id="clip0"><rect width="32" height="32" fill="white"/></clipPath></defs></symbol>
<symbol id="hot-wallet" viewBox="0 0 32 32"><g clip-path="url(#clip0)"><path d="M26.5362 7.08746H25.9614V3.25512C25.9614 2.10542 25.3865 1.14734 24.6201 0.572488C23.8536 -0.00236247 22.7039 -0.193979 21.7458 -0.00236246L4.11707 5.36291C2.00929 5.93776 0.667969 7.85392 0.667969 9.96171V12.0695V12.836V27.3988C0.667969 30.0815 2.77575 32.1893 5.45839 32.1893H26.5362C29.2189 32.1893 31.3267 30.0815 31.3267 27.3988V12.0695C31.3267 9.38686 29.2189 7.08746 26.5362 7.08746ZM4.69192 7.08746L22.129 1.91381C22.5123 1.72219 23.0871 1.91381 23.4704 2.10542C23.8536 2.29704 24.0452 2.87189 24.0452 3.25512V7.08746H5.45839C4.88354 7.08746 4.5003 7.27908 3.92545 7.47069C4.11707 7.27908 4.5003 7.08746 4.69192 7.08746ZM29.4105 27.2072C29.4105 28.7402 28.0692 30.0815 26.5362 30.0815H5.45839C3.92545 30.0815 2.58414 28.7402 2.58414 27.2072V12.836V11.8779C2.58414 10.3449 3.92545 9.00362 5.45839 9.00362H26.5362C28.0692 9.00362 29.4105 10.3449 29.4105 11.8779V27.2072Z" fill="currentColor"/><path d="M25.9591 21.6487C27.0174 21.6487 27.8753 20.7908 27.8753 19.7326C27.8753 18.6743 27.0174 17.8164 25.9591 17.8164C24.9009 17.8164 24.043 18.6743 24.043 19.7326C24.043 20.7908 24.9009 21.6487 25.9591 21.6487Z" fill="currentColor"/></g><defs><clipPath id="clip0"><rect width="32" height="32" fill="white"/></clipPath></defs></symbol>
<symbol id="watchonly-wallet" viewBox="0 0 32 32"><g clip-path="url(#clip0)"><path d="M26.5362 7.08746H25.9614V3.25512C25.9614 2.10542 25.3865 1.14734 24.6201 0.572488C23.8536 -0.00236247 22.7039 -0.193979 21.7458 -0.00236246L4.11707 5.36291C2.00929 5.93776 0.667969 7.85392 0.667969 9.96171V12.0695V12.836V27.3988C0.667969 30.0815 2.77575 32.1893 5.45839 32.1893H26.5362C29.2189 32.1893 31.3267 30.0815 31.3267 27.3988V12.0695C31.3267 9.38686 29.2189 7.08746 26.5362 7.08746ZM4.69192 7.08746L22.129 1.91381C22.5123 1.72219 23.0871 1.91381 23.4704 2.10542C23.8536 2.29704 24.0452 2.87189 24.0452 3.25512V7.08746H5.45839C4.88354 7.08746 4.5003 7.27908 3.92545 7.47069C4.11707 7.27908 4.5003 7.08746 4.69192 7.08746ZM29.4105 27.2072C29.4105 28.7402 28.0692 30.0815 26.5362 30.0815H5.45839C3.92545 30.0815 2.58414 28.7402 2.58414 27.2072V12.836V11.8779C2.58414 10.3449 3.92545 9.00362 5.45839 9.00362H26.5362C28.0692 9.00362 29.4105 10.3449 29.4105 11.8779V27.2072Z" fill="currentColor"/><path d="M25.9591 21.6487C27.0174 21.6487 27.8753 20.7908 27.8753 19.7326C27.8753 18.6743 27.0174 17.8164 25.9591 17.8164C24.9009 17.8164 24.043 18.6743 24.043 19.7326C24.043 20.7908 24.9009 21.6487 25.9591 21.6487Z" fill="currentColor"/></g><defs><clipPath id="clip0"><rect width="32" height="32" fill="white"/></clipPath></defs></symbol>
<symbol id="hardware-wallet" viewBox="0 0 32 32"><rect x="18.9767" y="6.57031" width="6" height="8" rx="1" transform="rotate(-45 18.9767 6.57031)" fill="none" stroke="currentColor" stroke-width="2"/><path d="M3.8871 21.1057C2.71552 19.9341 2.71552 18.0346 3.8871 16.8631L15.888 4.86213C16.2785 4.4716 16.9117 4.4716 17.3022 4.86212L25.7898 13.3497C26.1804 13.7402 26.1804 14.3734 25.7898 14.7639L13.7889 26.7649C12.6173 27.9364 10.7178 27.9364 9.54626 26.7649L3.8871 21.1057Z" fill="none" stroke="currentColor" stroke-width="2"/></symbol>
<symbol id="xpub" viewBox="0 0 32 32"><path d="M21.3911 14.0298C20.4238 14.0396 19.4831 13.713 18.73 13.1059C17.9769 12.4988 17.4581 11.649 17.2622 10.7017C17.0664 9.75436 17.2057 8.76844 17.6564 7.91249C18.1071 7.05655 18.8412 6.38377 19.733 6.00919C20.6249 5.6346 21.6192 5.58148 22.5459 5.85891C23.4726 6.13634 24.2742 6.72709 24.8134 7.53015C25.3528 8.33319 25.5964 9.29866 25.5026 10.2614C25.4088 11.2242 24.9834 12.1246 24.2992 12.8084C23.5288 13.5829 22.4836 14.022 21.3911 14.0298ZM21.3911 7.5228C20.9277 7.52249 20.4746 7.65927 20.0888 7.91592C19.703 8.17258 19.4017 8.53764 19.223 8.96514C19.0442 9.39264 18.9959 9.86347 19.0842 10.3184C19.1724 10.7733 19.3933 11.1919 19.7189 11.5215C20.1653 11.9482 20.759 12.1863 21.3765 12.1863C21.9941 12.1863 22.5878 11.9482 23.0342 11.5215C23.359 11.1928 23.5796 10.7755 23.6683 10.3219C23.7571 9.86838 23.71 9.39874 23.5329 8.97182C23.356 8.54491 23.057 8.1797 22.6734 7.92194C22.2898 7.66419 21.8387 7.52534 21.3765 7.5228H21.3911Z" fill="currentColor"/><path d="M11.3293 29.9927C10.6744 29.9903 10.0472 29.7289 9.58436 29.2657L7.81038 27.4844L7.71586 27.608C7.18174 28.1431 6.45693 28.444 5.70089 28.4448C4.94485 28.4454 4.2195 28.1458 3.68441 27.6117C3.14933 27.0776 2.84834 26.3527 2.84766 25.5967C2.84698 24.8406 3.14666 24.1153 3.68078 23.5802L14.172 13.0672C13.4303 11.3826 13.301 9.49181 13.8065 7.722C14.312 5.9522 15.4204 4.41487 16.9399 3.37617C18.4594 2.33747 20.2942 1.8628 22.1268 2.03435C23.9594 2.20589 25.6743 3.01285 26.9746 4.31551C28.2749 5.61816 29.0787 7.3345 29.2469 9.16737C29.4152 11.0002 28.9372 12.8343 27.8957 14.3519C26.8543 15.8695 25.315 16.9751 23.5443 17.4774C21.7736 17.9797 19.883 17.847 18.1998 17.1023L15.0954 20.2067L16.3241 21.4354C16.5544 21.6639 16.7373 21.9357 16.8621 22.2352C16.9868 22.5346 17.0511 22.8559 17.0511 23.1803C17.0511 23.5048 16.9868 23.826 16.8621 24.1255C16.7373 24.425 16.5544 24.6968 16.3241 24.9252C15.8548 25.3728 15.2312 25.6225 14.5828 25.6225C13.9343 25.6225 13.3107 25.3728 12.8415 24.9252L11.6128 23.6893L11.2929 24.0092L13.0742 25.7904C13.4162 26.1364 13.6484 26.5757 13.742 27.0532C13.8354 27.5307 13.7859 28.0252 13.5996 28.4746C13.4132 28.9241 13.0984 29.3086 12.6946 29.5799C12.2908 29.8512 11.8158 29.9974 11.3293 30V29.9927ZM7.81038 25.296C7.92899 25.2954 8.04656 25.3182 8.15636 25.3631C8.26615 25.408 8.36599 25.4742 8.45017 25.5578L10.8712 27.9861C10.9961 28.1011 11.1596 28.1649 11.3293 28.1649C11.4989 28.1649 11.6624 28.1011 11.7873 27.9861C11.8474 27.9259 11.8949 27.8545 11.9274 27.7759C11.9598 27.6973 11.9764 27.613 11.9763 27.5281C11.9769 27.443 11.9604 27.3587 11.928 27.28C11.8955 27.2013 11.8477 27.1299 11.7873 27.07L9.36624 24.649C9.27688 24.5611 9.2068 24.4557 9.16049 24.3393C9.11417 24.2228 9.09263 24.098 9.09724 23.9728C9.09677 23.8536 9.12035 23.7354 9.16656 23.6255C9.21278 23.5156 9.2807 23.4161 9.36624 23.333L10.9948 21.7917C11.0792 21.707 11.1795 21.6399 11.2899 21.594C11.4003 21.5482 11.5187 21.5247 11.6383 21.5247C11.7578 21.5247 11.8762 21.5482 11.9865 21.594C12.0969 21.6399 12.1973 21.707 12.2817 21.7917L14.1575 23.6675C14.2802 23.7835 14.4428 23.8481 14.6119 23.8481C14.7808 23.8481 14.9434 23.7835 15.0663 23.6675C15.1276 23.6078 15.1766 23.5367 15.2102 23.4581C15.2439 23.3795 15.2618 23.2949 15.2626 23.2094C15.2605 23.0381 15.1929 22.8742 15.0735 22.7514L13.176 20.8465C13.0041 20.675 12.9073 20.4423 12.907 20.1995C12.9065 20.0802 12.93 19.9621 12.9763 19.8521C13.0225 19.7423 13.0904 19.6427 13.176 19.5597L17.3855 15.3501C17.5244 15.2094 17.7056 15.1183 17.9014 15.0906C18.0971 15.063 18.2965 15.1006 18.4688 15.1974C19.7515 15.9077 21.2475 16.131 22.6816 15.8261C24.1158 15.5214 25.3917 14.7091 26.2747 13.5387C27.1577 12.3681 27.5884 10.9182 27.4877 9.45553C27.3869 7.99281 26.7614 6.61566 25.7262 5.57732C24.691 4.539 23.3158 3.90933 21.8534 3.8041C20.391 3.69889 18.9398 4.1252 17.7666 5.00464C16.5935 5.88408 15.7773 7.15751 15.4681 8.59074C15.1591 10.024 15.3777 11.5206 16.0841 12.8055C16.1792 12.977 16.2157 13.1749 16.1881 13.369C16.1606 13.5632 16.0705 13.7432 15.9314 13.8815L4.96764 24.8307C4.8026 25.0286 4.71754 25.281 4.72917 25.5385C4.74081 25.796 4.84829 26.0397 5.0305 26.2219C5.21272 26.4041 5.4565 26.5117 5.71392 26.5233C5.97135 26.5349 6.22383 26.4499 6.42173 26.2848L7.14877 25.5578C7.32593 25.3863 7.56388 25.2922 7.81038 25.296Z" fill="currentColor"/></symbol>
<symbol id="wallet-file" viewBox="0 0 32 32"><path d="M5 1H20.8479L27 6.90258V31H5V1Z" fill="none" stroke="currentColor" stroke-width="2"/></symbol>
<symbol id="scan-qr" viewBox="0 0 32 32"><path d="M20 .875h10c.621 0 1.125.504 1.125 1.125v10m0 8v10c0 .621-.504 1.125-1.125 1.125H20m-8 0H2A1.125 1.125 0 01.875 30V20m0-8V2C.875 1.379 1.379.875 2 .875h10" stroke="currentColor" stroke-width="1.75" fill="none" fill-rule="evenodd"/></symbol>
<symbol id="seed" viewBox="0 0 32 32"><rect x="0.875" y="2.875" width="30.25" height="26.25" rx="1.125" fill="none" stroke="currentColor" stroke-width="1.75"/><rect x="5" y="7" width="9" height="4" rx="0.5" fill="currentColor"/><rect x="5" y="14" width="9" height="4" rx="0.5" fill="currentColor"/><rect x="18" y="7" width="9" height="4" rx="0.5" fill="currentColor"/><rect x="18" y="14" width="9" height="4" rx="0.5" fill="currentColor"/><rect x="5" y="21" width="9" height="4" rx="0.5" fill="currentColor"/><rect x="18" y="21" width="9" height="4" rx="0.5" fill="currentColor"/></symbol>
<symbol id="warning" viewBox="0 0 24 24"><path d="M12.337 3.101a.383.383 0 00-.674 0l-9.32 17.434a.383.383 0 00.338.564h18.638a.384.384 0 00.337-.564L12.337 3.101zM9.636 2.018c1.01-1.89 3.719-1.89 4.728 0l9.32 17.434a2.681 2.681 0 01-2.365 3.945H2.681a2.68 2.68 0 01-2.364-3.945L9.636 2.018zm3.896 15.25a1.532 1.532 0 11-3.064 0 1.532 1.532 0 013.064 0zm-.383-8.044a1.15 1.15 0 00-2.298 0v3.83a1.15 1.15 0 002.298 0v-3.83z" fill="currentColor"/></symbol>
<symbol id="github" viewBox="0 0 25 24"><path clip-rule="evenodd" d="M12.75.3c-6.6 0-12 5.4-12 12 0 5.325 3.45 9.825 8.175 11.4.6.075.825-.225.825-.6v-2.025C6.375 21.825 5.7 19.5 5.7 19.5c-.525-1.35-1.35-1.725-1.35-1.725-1.125-.75.075-.75.075-.75 1.2.075 1.875 1.2 1.875 1.2 1.05 1.8 2.775 1.275 3.525.975a2.59 2.59 0 0 1 .75-1.575c-2.7-.3-5.475-1.35-5.475-5.925 0-1.275.45-2.4 1.2-3.225-.15-.3-.525-1.5.15-3.15 0 0 .975-.3 3.3 1.2.975-.3 1.95-.375 3-.375s2.025.15 3 .375c2.325-1.575 3.3-1.275 3.3-1.275.675 1.65.225 2.85.15 3.15.75.825 1.2 1.875 1.2 3.225 0 4.575-2.775 5.625-5.475 5.925.45.375.825 1.125.825 2.25v3.3c0 .3.225.675.825.6a12.015 12.015 0 0 0 8.175-11.4c0-6.6-5.4-12-12-12z" fill="currentColor" fill-rule="evenodd"/></symbol>
<symbol id="twitter" viewBox="0 0 37 37"><path d="M36 18c0 9.945-8.055 18-18 18S0 27.945 0 18 8.055 0 18 0s18 8.055 18 18zm-21.294 9.495c7.983 0 12.348-6.615 12.348-12.348 0-.189 0-.378-.009-.558a8.891 8.891 0 0 0 2.169-2.25 8.808 8.808 0 0 1-2.493.684 4.337 4.337 0 0 0 1.908-2.403 8.788 8.788 0 0 1-2.754 1.053 4.319 4.319 0 0 0-3.168-1.368 4.34 4.34 0 0 0-4.338 4.338c0 .342.036.675.117.99a12.311 12.311 0 0 1-8.946-4.536 4.353 4.353 0 0 0-.585 2.178 4.32 4.32 0 0 0 1.935 3.609 4.263 4.263 0 0 1-1.962-.54v.054a4.345 4.345 0 0 0 3.483 4.257 4.326 4.326 0 0 1-1.962.072 4.333 4.333 0 0 0 4.05 3.015 8.724 8.724 0 0 1-6.426 1.791 12.091 12.091 0 0 0 6.633 1.962z" fill="currentColor"/></symbol>
<symbol id="telegram" viewBox="0 0 496 512" fill="currentColor"><path d="M248,8C111.033,8,0,119.033,0,256S111.033,504,248,504,496,392.967,496,256,384.967,8,248,8ZM362.952,176.66c-3.732,39.215-19.881,134.378-28.1,178.3-3.476,18.584-10.322,24.816-16.948,25.425-14.4,1.326-25.338-9.517-39.287-18.661-21.827-14.308-34.158-23.215-55.346-37.177-24.485-16.135-8.612-25,5.342-39.5,3.652-3.793,67.107-61.51,68.335-66.746.153-.655.3-3.1-1.154-4.384s-3.59-.849-5.135-.5q-3.283.746-104.608,69.142-14.845,10.194-26.894,9.934c-8.855-.191-25.888-5.006-38.551-9.123-15.531-5.048-27.875-7.717-26.8-16.291q.84-6.7,18.45-13.7,108.446-47.248,144.628-62.3c68.872-28.647,83.183-33.623,92.511-33.789,2.052-.034,6.639.474,9.61,2.885a10.452,10.452,0,0,1,3.53,6.716A43.765,43.765,0,0,1,362.952,176.66Z"/></symbol>
<symbol id="mattermost" viewBox="0 0 206 206"><path fill="currentColor" d="m163.012 19.596 1.082 21.794c17.667 19.519 24.641 47.161 15.846 73.14-13.129 38.782-56.419 59.169-96.693 45.535-40.272-13.633-62.278-56.124-49.15-94.905 8.825-26.066 31.275-43.822 57.276-48.524L105.422.038C61.592-1.15 20.242 26.056 5.448 69.76c-18.178 53.697 10.616 111.963 64.314 130.142 53.698 18.178 111.964-10.617 130.143-64.315 14.77-43.633-1.474-90.283-36.893-115.99"/><path fill="currentColor" d="m137.097 53.436-.596-17.531-.404-15.189s.084-7.322-.17-9.043a2.776 2.776 0 0 0-.305-.914l-.05-.109-.06-.094a2.378 2.378 0 0 0-1.293-1.07 2.382 2.382 0 0 0-1.714.078l-.033.014-.18.092a2.821 2.821 0 0 0-.75.518c-1.25 1.212-5.63 7.08-5.63 7.08l-9.547 11.82-11.123 13.563-19.098 23.75s-8.763 10.938-6.827 24.4c1.937 13.464 11.946 20.022 19.71 22.65 7.765 2.63 19.7 3.5 29.417-6.019 9.716-9.518 9.397-23.53 9.397-23.53l-.744-30.466z"/></symbol>
<symbol id="notifications" viewBox="0 0 24 24"><path d="M12.1933 0.992188C17.152 0.992188 19.2346 5.35582 19.7305 7.04178C20.3255 9.12442 19.8297 10.017 20.3255 12.893C20.6231 14.7773 21.6148 16.3641 22.4082 17.2567C22.7057 17.5542 22.4082 18.05 22.0115 18.05H13.2842H12.1933H2.07762C1.68092 18.05 1.3834 17.5542 1.68092 17.2567C2.37514 16.3641 3.46605 14.7773 3.76357 12.893C4.16026 10.017 3.76357 9.12442 4.35861 7.04178C4.85448 5.35582 7.03629 0.992188 12.1933 0.992188Z" fill="none" stroke="currentColor" stroke-width="1.5" stroke-miterlimit="10" /><path d="M16.2595 18.0488C16.2595 18.2472 16.3586 18.5447 16.3586 18.743C16.3586 21.1232 14.4743 23.0075 12.0942 23.0075C9.71401 23.0075 7.82971 21.1232 7.82971 18.743C7.82971 18.5447 7.82971 18.3463 7.82971 18.148" fill="none" stroke="currentColor" stroke-width="1.5" stroke-miterlimit="10" /></symbol>
<symbol id="crowdfund" viewBox="0 0 24 24"><path d="M9.1638 12.4922C11.339 12.4922 13.1023 10.7288 13.1023 8.5537C13.1023 6.37854 11.339 4.61523 9.1638 4.61523C6.98865 4.61523 5.22534 6.37854 5.22534 8.5537C5.22534 10.7288 6.98865 12.4922 9.1638 12.4922Z" fill="none" stroke="currentColor" stroke-width="1.5" stroke-linecap="round" stroke-linejoin="round" /><path d="M15.9331 18.0307C17.4965 18.0307 18.7638 16.7633 18.7638 15.1999C18.7638 13.6365 17.4965 12.3691 15.9331 12.3691C14.3697 12.3691 13.1023 13.6365 13.1023 15.1999C13.1023 16.7633 14.3697 18.0307 15.9331 18.0307Z" fill="none" stroke="currentColor" stroke-width="1.5" stroke-linecap="round" stroke-linejoin="round" /><path d="M8.24067 19.3839C9.49818 19.3839 10.5176 18.3645 10.5176 17.107C10.5176 15.8495 9.49818 14.8301 8.24067 14.8301C6.98316 14.8301 5.96375 15.8495 5.96375 17.107C5.96375 18.3645 6.98316 19.3839 8.24067 19.3839Z" fill="none" stroke="currentColor" stroke-width="1.5" stroke-linecap="round" stroke-linejoin="round" /></symbol>
<symbol id="pointofsale" viewBox="0 0 24 24"><path d="M16.88 19.4303H7.12002C6.79748 19.4322 6.47817 19.3659 6.18309 19.2356C5.88802 19.1054 5.62385 18.9141 5.40795 18.6745C5.19206 18.4349 5.02933 18.1522 4.93046 17.8452C4.83159 17.5382 4.79882 17.2137 4.83431 16.8931L5.60002 10.1617C5.6311 9.88087 5.76509 9.62152 5.97615 9.43368C6.1872 9.24584 6.46035 9.14284 6.74288 9.14455H17.2572C17.5397 9.14284 17.8129 9.24584 18.0239 9.43368C18.235 9.62152 18.369 9.88087 18.4 10.1617L19.1429 16.8931C19.1782 17.2118 19.146 17.5343 19.0485 17.8398C18.951 18.1452 18.7903 18.4267 18.5769 18.666C18.3634 18.9053 18.1021 19.097 17.8097 19.2286C17.5174 19.3603 17.2006 19.429 16.88 19.4303Z" fill="none" stroke="currentColor" stroke-width="1.5" stroke-linecap="round" stroke-linejoin="round" /><path d="M7.42859 9.14369C7.42859 7.93128 7.91022 6.76852 8.76753 5.91121C9.62484 5.0539 10.7876 4.57227 12 4.57227C13.2124 4.57227 14.3752 5.0539 15.2325 5.91121C16.0898 6.76852 16.5714 7.93128 16.5714 9.14369" fill="none" stroke="currentColor" stroke-width="1.5" stroke-linecap="round" stroke-linejoin="round" /><path d="M9.14282 12.5723H14.8571" fill="none" stroke="currentColor" stroke-width="1.5" stroke-linecap="round" stroke-linejoin="round" /></symbol>
<symbol id="account" viewBox="0 0 24 24"><path d="M11.9336 12.777C14.1707 12.777 15.9843 10.9635 15.9843 8.72641C15.9843 6.48931 14.1707 4.67578 11.9336 4.67578C9.69653 4.67578 7.883 6.48931 7.883 8.72641C7.883 10.9635 9.69653 12.777 11.9336 12.777Z" fill="none" stroke="currentColor" stroke-width="1.5" stroke-miterlimit="10" /><path d="M5.38513 19.3247C5.38513 17.4345 6.87036 15.9492 8.76066 15.9492H15.2417C17.0645 15.9492 18.6172 17.4345 18.6172 19.3247" fill="none" stroke="currentColor" stroke-width="1.5" stroke-miterlimit="10" stroke-linecap="round" stroke-linejoin="round" /></symbol>
<symbol id="settings" viewBox="0 0 24 24"><path d="M9.81672 6.15385L10.3459 4.78769C10.4352 4.55639 10.5922 4.35743 10.7965 4.21688C11.0007 4.07632 11.2426 4.00073 11.4906 4H12.4998C12.7477 4.00073 12.9896 4.07632 13.1939 4.21688C13.3981 4.35743 13.5552 4.55639 13.6444 4.78769L14.1736 6.15385L15.9706 7.18769L17.4229 6.96615C17.6647 6.93333 17.9108 6.97314 18.13 7.08052C18.3491 7.1879 18.5314 7.35801 18.6536 7.56923L19.1459 8.43077C19.2721 8.64535 19.3302 8.89314 19.3126 9.14144C19.2951 9.38974 19.2026 9.62687 19.0475 9.82154L18.149 10.9662V13.0338L19.0721 14.1785C19.2272 14.3731 19.3197 14.6103 19.3373 14.8586C19.3548 15.1069 19.2967 15.3546 19.1706 15.5692L18.6783 16.4308C18.556 16.642 18.3737 16.8121 18.1546 16.9195C17.9354 17.0269 17.6893 17.0667 17.4475 17.0338L15.9952 16.8123L14.1983 17.8462L13.669 19.2123C13.5798 19.4436 13.4227 19.6426 13.2185 19.7831C13.0143 19.9237 12.7723 19.9993 12.5244 20H11.4906C11.2426 19.9993 11.0007 19.9237 10.7965 19.7831C10.5922 19.6426 10.4352 19.4436 10.3459 19.2123L9.81672 17.8462L8.01979 16.8123L6.56749 17.0338C6.32566 17.0667 6.07954 17.0269 5.86039 16.9195C5.64124 16.8121 5.45896 16.642 5.33672 16.4308L4.84441 15.5692C4.71826 15.3546 4.66013 15.1069 4.67771 14.8586C4.69529 14.6103 4.78774 14.3731 4.94287 14.1785L5.84133 13.0338V10.9662L4.91826 9.82154C4.76313 9.62687 4.67068 9.38974 4.6531 9.14144C4.63552 8.89314 4.69364 8.64535 4.81979 8.43077L5.3121 7.56923C5.43435 7.35801 5.61662 7.1879 5.83577 7.08052C6.05492 6.97314 6.30105 6.93333 6.54287 6.96615L7.99518 7.18769L9.81672 6.15385ZM9.53364 12C9.53364 12.4868 9.67801 12.9628 9.94848 13.3676C10.219 13.7724 10.6034 14.0879 11.0532 14.2742C11.503 14.4605 11.9979 14.5092 12.4754 14.4142C12.9529 14.3193 13.3915 14.0848 13.7357 13.7406C14.08 13.3963 14.3144 12.9577 14.4094 12.4802C14.5044 12.0027 14.4557 11.5078 14.2693 11.058C14.083 10.6082 13.7675 10.2238 13.3627 9.95331C12.9579 9.68283 12.482 9.53846 11.9952 9.53846C11.3423 9.53846 10.7162 9.7978 10.2546 10.2594C9.79298 10.7211 9.53364 11.3472 9.53364 12V12Z" fill="none" stroke="currentColor" stroke-width="1.5" stroke-linecap="round" stroke-linejoin="round" /></symbol>
<symbol id="server-settings" viewBox="0 0 24 24"><rect x="4.75" y="4.75" width="14.5" height="14.5" rx="3.25" stroke="currentColor" stroke-width="1.5" fill="none"/><path d="m8 8 1.6 1.6L8 11.2" stroke="currentColor" stroke-width="1.25" stroke-linecap="round" stroke-linejoin="round"/></symbol>
<symbol id="new" viewBox="0 0 24 24"><path d="M17 11H13V7C13 6.45 12.55 6 12 6C11.45 6 11 6.45 11 7V11H7C6.45 11 6 11.45 6 12C6 12.55 6.45 13 7 13H11V17C11 17.55 11.45 18 12 18C12.55 18 13 17.55 13 17V13H17C17.55 13 18 12.55 18 12C18 11.45 17.55 11 17 11Z" fill="currentColor"/></symbol>
<symbol id="wallet-onchain" viewBox="0 0 24 24"><path fill-rule="evenodd" clip-rule="evenodd" d="m16.05 12.26 1.08-1.08a3.05 3.05 0 0 0-4.31-4.32l-2.7 2.7a2.28 2.28 0 0 0 0 3.23l.54.54 1.08-1.07a1.52 1.52 0 0 1 0-2.15l2.15-2.16a1.52 1.52 0 0 1 2.6 1.08 1.52 1.52 0 0 1-.44 1.07l-1.08 1.08 1.08 1.08Z" fill="currentColor"/><path fill-rule="evenodd" clip-rule="evenodd" d="M7.97 11.72 6.89 12.8a3.05 3.05 0 0 0 4.3 4.31l2.7-2.7a2.28 2.28 0 0 0 0-3.23l-.54-.54-1.07 1.08a1.52 1.52 0 0 1 0 2.15l-2.16 2.16a1.52 1.52 0 0 1-2.6-1.08 1.52 1.52 0 0 1 .45-1.08l1.08-1.08-1.08-1.07Z" fill="currentColor"/></symbol>
<symbol id="wallet-lightning" viewBox="0 0 24 24"><path d="M17.57 10.7c-.1-.23-.27-.34-.5-.34h-4.3l.5-3.76a.48.48 0 0 0-.33-.55.52.52 0 0 0-.66.17l-5.45 6.54a.59.59 0 0 0-.05.6c.1.17.27.28.49.28h4.3l-.49 3.76c-.05.22.11.5.33.55.06.05.17.05.22.05a.5.5 0 0 0 .44-.22l5.45-6.54c.1-.17.16-.39.05-.55Z" fill="currentColor"/></symbol>
<symbol id="payment-requests" viewBox="0 0 24 24"><path d="M12 19.3845C16.0784 19.3845 19.3846 16.0783 19.3846 11.9999C19.3846 7.92144 16.0784 4.61523 12 4.61523C7.92156 4.61523 4.61536 7.92144 4.61536 11.9999C4.61536 16.0783 7.92156 19.3845 12 19.3845Z" fill="none" stroke="currentColor" stroke-width="1.5" stroke-miterlimit="10" /><path d="M9.53845 14.216L14.2769 9.41602" fill="none" stroke="currentColor" stroke-width="1.5" stroke-miterlimit="10" stroke-linecap="round" stroke-linejoin="round" /><path d="M9.53845 10.707V14.2147H13.2308" fill="none" stroke="currentColor" stroke-width="1.5" stroke-miterlimit="10" stroke-linecap="round" stroke-linejoin="round" /></symbol>
<symbol id="pull-payments" viewBox="0 0 24 24"><path d="M12 20a8 8 0 1 1 0-16 8 8 0 0 1 0 16Zm0-15.19a7.2 7.2 0 0 0 0 14.38A7.2 7.2 0 0 0 12 4.8Z" fill="currentColor" stroke="currentColor" stroke-width=".6"/><path d="M9.48 14.85a.44.44 0 0 1-.3-.14c-.14-.16-.14-.43.05-.57l5.02-4.31c.16-.14.43-.14.57.05.14.17.14.44-.05.57l-5.05 4.29c-.05.08-.16.1-.24.1Z" fill="currentColor" stroke="currentColor" stroke-width=".6"/><path d="M14.39 14.28a.4.4 0 0 1-.41-.4l.1-3.42-3.08-.17a.4.4 0 0 1-.38-.43c0-.22.19-.4.43-.38l3.47.19c.22 0 .38.19.38.4l-.13 3.83c.02.19-.17.38-.38.38Z" fill="currentColor" stroke="currentColor" stroke-width=".6"/></symbol>
<symbol id="payouts" viewBox="0 0 24 24"><path d="M8.30766 4.61523H15.6923C17.723 4.61523 19.3846 6.27677 19.3846 8.30754V15.6922C19.3846 17.7229 17.723 19.3845 15.6923 19.3845H8.30766C6.27689 19.3845 4.61536 17.7229 4.61536 15.6922V8.30754C4.61536 6.27677 6.27689 4.61523 8.30766 4.61523Z" fill="none" stroke="currentColor" stroke-width="1.5" stroke-miterlimit="10" /><path d="M8.30774 8.92383H15.6924" fill="none" stroke="currentColor" stroke-width="1.5" stroke-miterlimit="10" stroke-linecap="round" stroke-linejoin="round" /><path d="M8.30774 12H15.6924" fill="none" stroke="currentColor" stroke-width="1.5" stroke-miterlimit="10" stroke-linecap="round" stroke-linejoin="round" /><path d="M8.30774 15.0156H12" fill="none" stroke="currentColor" stroke-width="1.5" stroke-miterlimit="10" stroke-linecap="round" stroke-linejoin="round" /></symbol>
<symbol id="pay-button" viewBox="0 0 24 24"><path d="M8.30766 4.61523H15.6923C17.723 4.61523 19.3846 6.27677 19.3846 8.30754V15.6922C19.3846 17.7229 17.723 19.3845 15.6923 19.3845H8.30766C6.27689 19.3845 4.61536 17.7229 4.61536 15.6922V8.30754C4.61536 6.27677 6.27689 4.61523 8.30766 4.61523Z" fill="none" stroke="currentColor" stroke-width="1.5" stroke-miterlimit="10" /><path d="M12 15.0777C13.6994 15.0777 15.0769 13.7001 15.0769 12.0008C15.0769 10.3014 13.6994 8.92383 12 8.92383C10.3007 8.92383 8.9231 10.3014 8.9231 12.0008C8.9231 13.7001 10.3007 15.0777 12 15.0777Z" fill="none" stroke="currentColor" stroke-width="1.5" stroke-miterlimit="10" stroke-linecap="round" stroke-linejoin="round" /></symbol>
<symbol id="invoice" viewBox="0 0 24 24"><path d="M8.30766 4.61523H15.6923C17.723 4.61523 19.3846 6.27677 19.3846 8.30754V15.6922C19.3846 17.7229 17.723 19.3845 15.6923 19.3845H8.30766C6.27689 19.3845 4.61536 17.7229 4.61536 15.6922V8.30754C4.61536 6.27677 6.27689 4.61523 8.30766 4.61523Z" fill="none" stroke="currentColor" stroke-width="1.5" stroke-miterlimit="10" /><path d="M8.30774 8.92383H15.6924" fill="none" stroke="currentColor" stroke-width="1.5" stroke-miterlimit="10" stroke-linecap="round" stroke-linejoin="round" /><path d="M8.30774 12H15.6924" fill="none" stroke="currentColor" stroke-width="1.5" stroke-miterlimit="10" stroke-linecap="round" stroke-linejoin="round" /><path d="M8.30774 15.0156H12" fill="none" stroke="currentColor" stroke-width="1.5" stroke-miterlimit="10" stroke-linecap="round" stroke-linejoin="round" /></symbol>
<symbol id="shopify" viewBox="0 0 32 32"><path transform="scale(.7) translate(5, 5)" d="m20.45 31.97 9.62-2.08-3.5-23.64c-.03-.16-.15-.26-.28-.26l-2.57-.18s-1.7-1.7-1.92-1.88a.41.41 0 0 0-.16-.1l-1.22 28.14zm-4.83-16.9s-1.09-.56-2.37-.56c-1.93 0-2 1.2-2 1.52 0 1.64 4.31 2.29 4.31 6.17 0 3.06-1.92 5.01-4.54 5.01-3.14 0-4.72-1.95-4.72-1.95l.86-2.78s1.66 1.42 3.04 1.42c.9 0 1.3-.72 1.3-1.24 0-2.16-3.54-2.26-3.54-5.81-.04-2.98 2.1-5.9 6.44-5.9 1.68 0 2.5.49 2.5.49l-1.26 3.62zM14.9 1.1c.17 0 .36.06.53.19-1.31.62-2.75 2.18-3.34 5.32-.88.28-1.73.54-2.52.77.69-2.38 2.36-6.26 5.33-6.26zm1.64 3.94v.18l-3.2.98c.63-2.37 1.79-3.53 2.79-3.96.26.67.41 1.57.41 2.8zm.72-2.98c.92.1 1.52 1.15 1.9 2.34-.46.15-.98.3-1.54.49v-.34c0-1-.13-1.82-.36-2.5zm3.99 1.72-.1.03c-.03 0-.39.1-.96.28-.56-1.65-1.56-3.16-3.34-3.16h-.16C16.2.28 15.56 0 15.02 0 10.88 0 8.9 5.17 8.28 7.8c-1.6.48-2.75.84-2.88.9-.9.28-.93.3-1.03 1.15-.1.62-2.44 18.75-2.44 18.75L20.01 32z" fill="currentColor"/></symbol>
<symbol id="done" viewBox="0 0 24 24" fill="none"><circle cx="12" cy="12" r="12" fill="#51B13E"/><path d="m7 12.14 3.55 3.54L17.5 9" stroke="#fff" stroke-width="2" stroke-linecap="round" stroke-linejoin="round" /></symbol>
<symbol id="store" viewBox="0 0 24 24" fill="none"><path d="M19.049 10.2637V16.5294C19.049 17.7602 18.042 18.7672 16.8112 18.7672H7.24478C6.01401 18.7672 5.00702 17.7602 5.00702 16.5294V10.2637" fill="none" stroke="currentColor" stroke-width="1.5" stroke-miterlimit="10" /><path d="M9.45456 5.25649V9.08866C9.45456 10.2635 8.50351 11.2425 7.32868 11.2425H6.9091C5.00701 11.2425 3.74826 9.31243 4.50351 7.57817L5.06295 6.26348C5.34267 5.62012 5.95805 5.22852 6.62938 5.22852L9.45456 5.25649Z" fill="none" stroke="currentColor" stroke-width="1.5" stroke-miterlimit="10" /><path d="M14.5455 5.25781V9.08998C14.5455 10.2648 15.4965 11.2438 16.6713 11.2438H17.0909C18.993 11.2438 20.2518 9.31376 19.4965 7.57949L18.9371 6.26481C18.6574 5.64942 18.042 5.25781 17.3706 5.25781H14.5455Z" fill="none" stroke="currentColor" stroke-width="1.5" stroke-miterlimit="10" /><path d="M12 11.4949C10.6014 11.4949 9.48254 10.3481 9.48254 8.97746V5.28516H14.5455V8.97746C14.5455 10.3761 13.3986 11.4949 12 11.4949Z" fill="none" stroke="currentColor" stroke-width="1.5" stroke-miterlimit="10" /></symbol>
<symbol id="home" viewBox="0 0 24 24" fill="none"><path d="M15.6923 19.3845H8.30766C6.27689 19.3845 4.61536 17.7229 4.61536 15.6922V8.30754C4.61536 6.27677 6.27689 4.61523 8.30766 4.61523H15.6923C17.723 4.61523 19.3846 6.27677 19.3846 8.30754V15.6922C19.3846 17.7229 17.723 19.3845 15.6923 19.3845Z" fill="none" stroke="currentColor" stroke-width="1.5" stroke-miterlimit="10" /><path d="M7.56921 11.938H9.04614L10.5846 14.1534L13.3538 9.72266L14.8923 11.938H16.2461" fill="none" stroke="currentColor" stroke-width="1.5" stroke-miterlimit="10" stroke-linecap="round" stroke-linejoin="round" /></symbol>
<symbol id="spark" viewBox="0 0 24 24"><path d="M17.57 10.7c-.1-.23-.27-.34-.5-.34h-4.3l.5-3.76a.48.48 0 0 0-.33-.55.52.52 0 0 0-.66.17l-5.45 6.54a.59.59 0 0 0-.05.6c.1.17.27.28.49.28h4.3l-.49 3.76c-.05.22.11.5.33.55.06.05.17.05.22.05a.5.5 0 0 0 .44-.22l5.45-6.54c.1-.17.16-.39.05-.55Z" fill="currentColor"/></symbol>
<symbol id="rtl" viewBox="0 0 610 524"><defs><path id="a" d="M.45.26h52.23V52H.45z"/></defs><g fill="none" fill-rule="evenodd"><path d="M418.62 107.6c1.95 4.6 2.73 8.24 2.63 10.24-7.56-4.56-18.93-8.43-25.14-9.54-4.03-.72 9.18-3.93 22.51-.7m10.99 169.33a476.42 476.42 0 0 1 14.43-2.8 447.25 447.25 0 0 0-5.98-3.71c-25.45-15.5-52.58-28.64-79.4-41.37-16.91-8.03-34.15-16.02-51.7-23.22 15.31-20.19 34.91-37.32 55.86-52 .02 0 .1-.07.23-.16 4.59 6.26 10.38 10.51 13.29 12.11 5.68 3.13 12.84 6.06 19.41 6.95a110.45 110.45 0 0 0 35.44-.55c1.06-.18 2.14-.3 3.2-.49a105.01 105.01 0 0 1 16.87-1.54c5.88-.1 8.79 1.14 9.48 1.32 2.1.54 3.89 1.44 4.88 2.64a39.71 39.71 0 0 0 3.7 4.13c3.96 3.93 7.89 6.11 13.58 6.74 7.34.8 12.53-2.07 16.2-6.83 1.74-2.25.9-5.78.71-6.47-.96-3.55-3.18-8.7-4.8-13.5a27.3 27.3 0 0 0-4.86-7.64l-2.42-2.56c-3.78-4-7.59-7.96-11.36-11.95-15.06-15.92-31.38-30.58-48.21-44.59l-5.24-4.36-3.82-3.16a1032.74 1032.74 0 0 0-6.06-4.96l-1.63-1.31c-.86-.7-2.81-2.34-4.46-3.66 5.46-5.44 9.86-8.83 17.68-13.95 1.12-.74 7.16-3.96 6.95-4.78-.13-.49-10.05-.38-21.4 1.09-4 .51-26.38 3.81-41.74 7.16-16.35 3.56-33.62 8.55-49.53 13.55-45.94 14.47-89.81 34.07-129.99 60.7-23.09 15.32-44.7 32.21-65.56 50.42a1066.8 1066.8 0 0 0-28.81 25.95 696.64 696.64 0 0 0-4.41 4.19c2 .37 4.01.76 6.02 1.18 16.6 3.4 33.04 7.97 49.02 12.53 19.53 5.59 39.3 11.6 58.41 19a583.18 583.18 0 0 0-31.63 32.21 765.5 765.5 0 0 0-53.37 66.63c-21.6 30.15-40.02 62.67-56.09 96.17a765.04 765.04 0 0 0-4.5 9.54c2.97-2.38 5.96-4.74 8.97-7.08 26.01-20.17 53.44-38.82 80.82-56.84 38.53-25.35 79.88-46.3 122.78-63.16 51.73-20.32 104.56-40.03 159.04-51.57" fill="currentColor"/></g></symbol>
<symbol id="thunderhub" viewBox="0 0 32 32" fill="none" stroke="currentColor" stroke-width="2" stroke-linecap="round" stroke-linejoin="round"><g transform="translate(4, 4)"><rect x="4" y="4" width="16" height="16" rx="2" ry="2"/><path d="M9 9h6v6H9zM9 1v3M15 1v3M9 20v3M15 20v3M20 9h3M20 14h3M1 9h3M1 14h3"/></g></symbol>
<symbol id="lightningterminal" viewBox="0 0 28 55"><g fill="currentColor"><path d="m27.25 30.5-15.9 23.2a.84.84 0 1 1-1.38-.96l15.9-23.19a.84.84 0 1 1 1.38.96zm-2.09-4.13L9.63 49.08a.84.84 0 0 1-1.39-.95l15.54-22.71a.84.84 0 0 1 1.38.95zm-4.72-24.8L2.43 27.9h16.9l-1.14 1.68H.36a.84.84 0 0 1-.22-1.15L19 .62A.84.84 0 0 1 20.16.4c.4.26.52.78.28 1.19z"/><path d="M22.12 6.62 10.24 23.99H22l-1.15 1.68H7.05l1.14-1.68 12.53-18.3a.84.84 0 0 1 1.39.93z"/></g></symbol>
<symbol id="donate" viewBox="0 0 16 16" fill="none"><path fill-rule="evenodd" clip-rule="evenodd" d="M7.65 14.91a.75.75 0 0 0 .7 0L8 14.26l.35.66h.02c1.33-.74 2.59-1.6 3.75-2.6C13.96 10.74 16 8.36 16 5.5 16 2.84 13.91 1 11.75 1 10.2 1 8.85 1.8 8 3.02A4.57 4.57 0 0 0 4.25 1 4.38 4.38 0 0 0 0 5.5c0 2.85 2.04 5.23 3.88 6.82a22.08 22.08 0 0 0 3.75 2.58l.02.01Z" fill="currentColor"/></symbol>
<symbol id="invoice-expired" viewBox="0 0 48 48" fill="none"><circle cx="24" cy="24" r="22.5" stroke="currentColor" stroke-width="3"/><path d="m17 31 14-14m-14 0 14 14" stroke="currentColor" stroke-width="3" stroke-linecap="round" stroke-linejoin="round"/></symbol>
<symbol id="payment-sent" viewBox="0 0 48 48" fill="none"><circle cx="24" cy="24" r="22.5" stroke="currentColor" stroke-width="3"/><path d="M24 16v16m5.71-10.29L24 16l-6.29 6.29" stroke="currentColor" stroke-width="3" stroke-miterlimit="10" stroke-linecap="round" stroke-linejoin="round"/></symbol>
<symbol id="payment-complete" viewBox="0 0 48 48" fill="none"><path d="M47 24a22.5 22.5 0 1 1-45 0 22.5 22.5 0 0 1 45 0Z" stroke="currentColor" stroke-width="3"/><path d="m15.23 24.8 7.1 7.1 12.8-12.8" stroke="currentColor" stroke-width="3" stroke-linecap="round" stroke-linejoin="round"/></symbol>
</svg>
