<svg width="0" height="0" xmlns="http://www.w3.org/2000/svg">
<symbol id="note" viewBox="0 0 16 16"><path d="M14.2 16H1.8C.808 16 0 15.192 0 14.2V1.8C0 .808.808 0 1.8 0h12.4c.992 0 1.8.808 1.8 1.8v12.4c0 .992-.808 1.8-1.8 1.8zM1.8 1.2a.6.6 0 00-.6.6v12.4c0 .33.269.6.6.6h12.4a.6.6 0 00.6-.6V1.8a.6.6 0 00-.6-.6H1.8z" fill="currentColor"/><path d="M12 5.312H4a.6.6 0 010-1.2h8a.6.6 0 110 1.2zM12 8.6H4a.6.6 0 010-1.2h8a.6.6 0 010 1.2zm-4 3.288H4a.6.6 0 110-1.2h4a.6.6 0 010 1.2z" fill="currentColor"/></symbol>
<symbol id="back" viewBox="0 0 21 18"><path d="M7.63754 1.10861L0.578503 8.16764C0.119666 8.62648 0.119666 9.37121 0.578503 9.83122L7.63754 16.8902C8.09637 17.3491 8.8411 17.3491 9.30111 16.8902C9.53053 16.6608 9.64583 16.3608 9.64583 16.0585C9.64583 15.7561 9.53053 15.4561 9.30111 15.2267L4.25038 10.1759H19.0579C19.7085 10.1759 20.2344 9.65004 20.2344 8.99943C20.2344 8.34882 19.7085 7.82293 19.0579 7.82293L4.25038 7.82293L9.30111 2.77219C9.53053 2.54277 9.64583 2.24276 9.64583 1.9404C9.64583 1.63804 9.53053 1.33803 9.30111 1.10861C8.84228 0.649771 8.09755 0.649771 7.63754 1.10861Z" fill="currentColor" /></symbol>
<symbol id="close" viewBox="0 0 16 16"><path d="M9.38526 8.08753L15.5498 1.85558C15.9653 1.43545 15.9653 0.805252 15.5498 0.385121C15.1342 -0.0350102 14.5108 -0.0350102 14.0952 0.385121L7.93072 6.61707L1.76623 0.315098C1.35065 -0.105033 0.727273 -0.105033 0.311688 0.315098C-0.103896 0.73523 -0.103896 1.36543 0.311688 1.78556L6.47618 8.0175L0.311688 14.2495C-0.103896 14.6696 -0.103896 15.2998 0.311688 15.7199C0.519481 15.93 0.796499 16 1.07355 16C1.35061 16 1.62769 15.93 1.83548 15.7199L7.99997 9.48797L14.1645 15.7199C14.3722 15.93 14.6493 16 14.9264 16C15.2034 16 15.4805 15.93 15.6883 15.7199C16.1039 15.2998 16.1039 14.6696 15.6883 14.2495L9.38526 8.08753Z" fill="currentColor"/></symbol>
<symbol id="caret-right" viewBox="0 0 24 24"><path d="M9.5 17L14.5 12L9.5 7" stroke="currentColor" stroke-width="2" stroke-linecap="round" stroke-linejoin="round" fill="none"/></symbol>
<symbol id="caret-down" viewBox="0 0 24 24"><path d="M7 9.5L12 14.5L17 9.5" stroke="currentColor" stroke-width="2" stroke-linecap="round" stroke-linejoin="round" fill="none"/></symbol>
<symbol id="new-wallet" viewBox="0 0 32 32"><path d="M16 10V22" stroke="currentColor" stroke-width="2" stroke-linecap="round" stroke-linejoin="round"/><path d="M22 16H10" stroke="currentColor" stroke-width="2" stroke-linecap="round" stroke-linejoin="round"/><circle fill="none" cx="16" cy="16" r="15" stroke="currentColor" stroke-width="2"/></symbol>
<symbol id="existing-wallet" viewBox="0 0 32 32"><g clip-path="url(#clip0)"><path d="M26.5362 7.08746H25.9614V3.25512C25.9614 2.10542 25.3865 1.14734 24.6201 0.572488C23.8536 -0.00236247 22.7039 -0.193979 21.7458 -0.00236246L4.11707 5.36291C2.00929 5.93776 0.667969 7.85392 0.667969 9.96171V12.0695V12.836V27.3988C0.667969 30.0815 2.77575 32.1893 5.45839 32.1893H26.5362C29.2189 32.1893 31.3267 30.0815 31.3267 27.3988V12.0695C31.3267 9.38686 29.2189 7.08746 26.5362 7.08746ZM4.69192 7.08746L22.129 1.91381C22.5123 1.72219 23.0871 1.91381 23.4704 2.10542C23.8536 2.29704 24.0452 2.87189 24.0452 3.25512V7.08746H5.45839C4.88354 7.08746 4.5003 7.27908 3.92545 7.47069C4.11707 7.27908 4.5003 7.08746 4.69192 7.08746ZM29.4105 27.2072C29.4105 28.7402 28.0692 30.0815 26.5362 30.0815H5.45839C3.92545 30.0815 2.58414 28.7402 2.58414 27.2072V12.836V11.8779C2.58414 10.3449 3.92545 9.00362 5.45839 9.00362H26.5362C28.0692 9.00362 29.4105 10.3449 29.4105 11.8779V27.2072Z" fill="currentColor"/><path d="M25.9591 21.6487C27.0174 21.6487 27.8753 20.7908 27.8753 19.7326C27.8753 18.6743 27.0174 17.8164 25.9591 17.8164C24.9009 17.8164 24.043 18.6743 24.043 19.7326C24.043 20.7908 24.9009 21.6487 25.9591 21.6487Z" fill="currentColor"/></g><defs><clipPath id="clip0"><rect width="32" height="32" fill="white"/></clipPath></defs></symbol>
<symbol id="hot-wallet" viewBox="0 0 32 32"><g clip-path="url(#clip0)"><path d="M26.5362 7.08746H25.9614V3.25512C25.9614 2.10542 25.3865 1.14734 24.6201 0.572488C23.8536 -0.00236247 22.7039 -0.193979 21.7458 -0.00236246L4.11707 5.36291C2.00929 5.93776 0.667969 7.85392 0.667969 9.96171V12.0695V12.836V27.3988C0.667969 30.0815 2.77575 32.1893 5.45839 32.1893H26.5362C29.2189 32.1893 31.3267 30.0815 31.3267 27.3988V12.0695C31.3267 9.38686 29.2189 7.08746 26.5362 7.08746ZM4.69192 7.08746L22.129 1.91381C22.5123 1.72219 23.0871 1.91381 23.4704 2.10542C23.8536 2.29704 24.0452 2.87189 24.0452 3.25512V7.08746H5.45839C4.88354 7.08746 4.5003 7.27908 3.92545 7.47069C4.11707 7.27908 4.5003 7.08746 4.69192 7.08746ZM29.4105 27.2072C29.4105 28.7402 28.0692 30.0815 26.5362 30.0815H5.45839C3.92545 30.0815 2.58414 28.7402 2.58414 27.2072V12.836V11.8779C2.58414 10.3449 3.92545 9.00362 5.45839 9.00362H26.5362C28.0692 9.00362 29.4105 10.3449 29.4105 11.8779V27.2072Z" fill="currentColor"/><path d="M25.9591 21.6487C27.0174 21.6487 27.8753 20.7908 27.8753 19.7326C27.8753 18.6743 27.0174 17.8164 25.9591 17.8164C24.9009 17.8164 24.043 18.6743 24.043 19.7326C24.043 20.7908 24.9009 21.6487 25.9591 21.6487Z" fill="currentColor"/></g><defs><clipPath id="clip0"><rect width="32" height="32" fill="white"/></clipPath></defs></symbol>
<symbol id="watchonly-wallet" viewBox="0 0 32 32"><g clip-path="url(#clip0)"><path d="M26.5362 7.08746H25.9614V3.25512C25.9614 2.10542 25.3865 1.14734 24.6201 0.572488C23.8536 -0.00236247 22.7039 -0.193979 21.7458 -0.00236246L4.11707 5.36291C2.00929 5.93776 0.667969 7.85392 0.667969 9.96171V12.0695V12.836V27.3988C0.667969 30.0815 2.77575 32.1893 5.45839 32.1893H26.5362C29.2189 32.1893 31.3267 30.0815 31.3267 27.3988V12.0695C31.3267 9.38686 29.2189 7.08746 26.5362 7.08746ZM4.69192 7.08746L22.129 1.91381C22.5123 1.72219 23.0871 1.91381 23.4704 2.10542C23.8536 2.29704 24.0452 2.87189 24.0452 3.25512V7.08746H5.45839C4.88354 7.08746 4.5003 7.27908 3.92545 7.47069C4.11707 7.27908 4.5003 7.08746 4.69192 7.08746ZM29.4105 27.2072C29.4105 28.7402 28.0692 30.0815 26.5362 30.0815H5.45839C3.92545 30.0815 2.58414 28.7402 2.58414 27.2072V12.836V11.8779C2.58414 10.3449 3.92545 9.00362 5.45839 9.00362H26.5362C28.0692 9.00362 29.4105 10.3449 29.4105 11.8779V27.2072Z" fill="currentColor"/><path d="M25.9591 21.6487C27.0174 21.6487 27.8753 20.7908 27.8753 19.7326C27.8753 18.6743 27.0174 17.8164 25.9591 17.8164C24.9009 17.8164 24.043 18.6743 24.043 19.7326C24.043 20.7908 24.9009 21.6487 25.9591 21.6487Z" fill="currentColor"/></g><defs><clipPath id="clip0"><rect width="32" height="32" fill="white"/></clipPath></defs></symbol>
<symbol id="hardware-wallet" viewBox="0 0 32 32"><rect x="18.9767" y="6.57031" width="6" height="8" rx="1" transform="rotate(-45 18.9767 6.57031)" fill="none" stroke="currentColor" stroke-width="2"/><path d="M3.8871 21.1057C2.71552 19.9341 2.71552 18.0346 3.8871 16.8631L15.888 4.86213C16.2785 4.4716 16.9117 4.4716 17.3022 4.86212L25.7898 13.3497C26.1804 13.7402 26.1804 14.3734 25.7898 14.7639L13.7889 26.7649C12.6173 27.9364 10.7178 27.9364 9.54626 26.7649L3.8871 21.1057Z" fill="none" stroke="currentColor" stroke-width="2"/></symbol>
<symbol id="xpub" viewBox="0 0 32 32"><path d="M21.3911 14.0298C20.4238 14.0396 19.4831 13.713 18.73 13.1059C17.9769 12.4988 17.4581 11.649 17.2622 10.7017C17.0664 9.75436 17.2057 8.76844 17.6564 7.91249C18.1071 7.05655 18.8412 6.38377 19.733 6.00919C20.6249 5.6346 21.6192 5.58148 22.5459 5.85891C23.4726 6.13634 24.2742 6.72709 24.8134 7.53015C25.3528 8.33319 25.5964 9.29866 25.5026 10.2614C25.4088 11.2242 24.9834 12.1246 24.2992 12.8084C23.5288 13.5829 22.4836 14.022 21.3911 14.0298ZM21.3911 7.5228C20.9277 7.52249 20.4746 7.65927 20.0888 7.91592C19.703 8.17258 19.4017 8.53764 19.223 8.96514C19.0442 9.39264 18.9959 9.86347 19.0842 10.3184C19.1724 10.7733 19.3933 11.1919 19.7189 11.5215C20.1653 11.9482 20.759 12.1863 21.3765 12.1863C21.9941 12.1863 22.5878 11.9482 23.0342 11.5215C23.359 11.1928 23.5796 10.7755 23.6683 10.3219C23.7571 9.86838 23.71 9.39874 23.5329 8.97182C23.356 8.54491 23.057 8.1797 22.6734 7.92194C22.2898 7.66419 21.8387 7.52534 21.3765 7.5228H21.3911Z" fill="currentColor"/><path d="M11.3293 29.9927C10.6744 29.9903 10.0472 29.7289 9.58436 29.2657L7.81038 27.4844L7.71586 27.608C7.18174 28.1431 6.45693 28.444 5.70089 28.4448C4.94485 28.4454 4.2195 28.1458 3.68441 27.6117C3.14933 27.0776 2.84834 26.3527 2.84766 25.5967C2.84698 24.8406 3.14666 24.1153 3.68078 23.5802L14.172 13.0672C13.4303 11.3826 13.301 9.49181 13.8065 7.722C14.312 5.9522 15.4204 4.41487 16.9399 3.37617C18.4594 2.33747 20.2942 1.8628 22.1268 2.03435C23.9594 2.20589 25.6743 3.01285 26.9746 4.31551C28.2749 5.61816 29.0787 7.3345 29.2469 9.16737C29.4152 11.0002 28.9372 12.8343 27.8957 14.3519C26.8543 15.8695 25.315 16.9751 23.5443 17.4774C21.7736 17.9797 19.883 17.847 18.1998 17.1023L15.0954 20.2067L16.3241 21.4354C16.5544 21.6639 16.7373 21.9357 16.8621 22.2352C16.9868 22.5346 17.0511 22.8559 17.0511 23.1803C17.0511 23.5048 16.9868 23.826 16.8621 24.1255C16.7373 24.425 16.5544 24.6968 16.3241 24.9252C15.8548 25.3728 15.2312 25.6225 14.5828 25.6225C13.9343 25.6225 13.3107 25.3728 12.8415 24.9252L11.6128 23.6893L11.2929 24.0092L13.0742 25.7904C13.4162 26.1364 13.6484 26.5757 13.742 27.0532C13.8354 27.5307 13.7859 28.0252 13.5996 28.4746C13.4132 28.9241 13.0984 29.3086 12.6946 29.5799C12.2908 29.8512 11.8158 29.9974 11.3293 30V29.9927ZM7.81038 25.296C7.92899 25.2954 8.04656 25.3182 8.15636 25.3631C8.26615 25.408 8.36599 25.4742 8.45017 25.5578L10.8712 27.9861C10.9961 28.1011 11.1596 28.1649 11.3293 28.1649C11.4989 28.1649 11.6624 28.1011 11.7873 27.9861C11.8474 27.9259 11.8949 27.8545 11.9274 27.7759C11.9598 27.6973 11.9764 27.613 11.9763 27.5281C11.9769 27.443 11.9604 27.3587 11.928 27.28C11.8955 27.2013 11.8477 27.1299 11.7873 27.07L9.36624 24.649C9.27688 24.5611 9.2068 24.4557 9.16049 24.3393C9.11417 24.2228 9.09263 24.098 9.09724 23.9728C9.09677 23.8536 9.12035 23.7354 9.16656 23.6255C9.21278 23.5156 9.2807 23.4161 9.36624 23.333L10.9948 21.7917C11.0792 21.707 11.1795 21.6399 11.2899 21.594C11.4003 21.5482 11.5187 21.5247 11.6383 21.5247C11.7578 21.5247 11.8762 21.5482 11.9865 21.594C12.0969 21.6399 12.1973 21.707 12.2817 21.7917L14.1575 23.6675C14.2802 23.7835 14.4428 23.8481 14.6119 23.8481C14.7808 23.8481 14.9434 23.7835 15.0663 23.6675C15.1276 23.6078 15.1766 23.5367 15.2102 23.4581C15.2439 23.3795 15.2618 23.2949 15.2626 23.2094C15.2605 23.0381 15.1929 22.8742 15.0735 22.7514L13.176 20.8465C13.0041 20.675 12.9073 20.4423 12.907 20.1995C12.9065 20.0802 12.93 19.9621 12.9763 19.8521C13.0225 19.7423 13.0904 19.6427 13.176 19.5597L17.3855 15.3501C17.5244 15.2094 17.7056 15.1183 17.9014 15.0906C18.0971 15.063 18.2965 15.1006 18.4688 15.1974C19.7515 15.9077 21.2475 16.131 22.6816 15.8261C24.1158 15.5214 25.3917 14.7091 26.2747 13.5387C27.1577 12.3681 27.5884 10.9182 27.4877 9.45553C27.3869 7.99281 26.7614 6.61566 25.7262 5.57732C24.691 4.539 23.3158 3.90933 21.8534 3.8041C20.391 3.69889 18.9398 4.1252 17.7666 5.00464C16.5935 5.88408 15.7773 7.15751 15.4681 8.59074C15.1591 10.024 15.3777 11.5206 16.0841 12.8055C16.1792 12.977 16.2157 13.1749 16.1881 13.369C16.1606 13.5632 16.0705 13.7432 15.9314 13.8815L4.96764 24.8307C4.8026 25.0286 4.71754 25.281 4.72917 25.5385C4.74081 25.796 4.84829 26.0397 5.0305 26.2219C5.21272 26.4041 5.4565 26.5117 5.71392 26.5233C5.97135 26.5349 6.22383 26.4499 6.42173 26.2848L7.14877 25.5578C7.32593 25.3863 7.56388 25.2922 7.81038 25.296Z" fill="currentColor"/></symbol>
<symbol id="wallet-file" viewBox="0 0 32 32"><path d="M5 1H20.8479L27 6.90258V31H5V1Z" fill="none" stroke="currentColor" stroke-width="2"/></symbol>
<symbol id="scan-qr" viewBox="0 0 32 32"><path d="M20 .875h10c.621 0 1.125.504 1.125 1.125v10m0 8v10c0 .621-.504 1.125-1.125 1.125H20m-8 0H2A1.125 1.125 0 01.875 30V20m0-8V2C.875 1.379 1.379.875 2 .875h10" stroke="currentColor" stroke-width="1.75" fill="none" fill-rule="evenodd"/></symbol>
<symbol id="seed" viewBox="0 0 32 32"><rect x="0.875" y="2.875" width="30.25" height="26.25" rx="1.125" fill="none" stroke="currentColor" stroke-width="1.75"/><rect x="5" y="7" width="9" height="4" rx="0.5" fill="currentColor"/><rect x="5" y="14" width="9" height="4" rx="0.5" fill="currentColor"/><rect x="18" y="7" width="9" height="4" rx="0.5" fill="currentColor"/><rect x="18" y="14" width="9" height="4" rx="0.5" fill="currentColor"/><rect x="5" y="21" width="9" height="4" rx="0.5" fill="currentColor"/><rect x="18" y="21" width="9" height="4" rx="0.5" fill="currentColor"/></symbol>
<symbol id="warning" viewBox="0 0 24 24"><path d="M12.337 3.101a.383.383 0 00-.674 0l-9.32 17.434a.383.383 0 00.338.564h18.638a.384.384 0 00.337-.564L12.337 3.101zM9.636 2.018c1.01-1.89 3.719-1.89 4.728 0l9.32 17.434a2.681 2.681 0 01-2.365 3.945H2.681a2.68 2.68 0 01-2.364-3.945L9.636 2.018zm3.896 15.25a1.532 1.532 0 11-3.064 0 1.532 1.532 0 013.064 0zm-.383-8.044a1.15 1.15 0 00-2.298 0v3.83a1.15 1.15 0 002.298 0v-3.83z" fill="currentColor"/></symbol>
<symbol id="github" viewBox="0 0 25 24"><path clip-rule="evenodd" d="M12.75.3c-6.6 0-12 5.4-12 12 0 5.325 3.45 9.825 8.175 11.4.6.075.825-.225.825-.6v-2.025C6.375 21.825 5.7 19.5 5.7 19.5c-.525-1.35-1.35-1.725-1.35-1.725-1.125-.75.075-.75.075-.75 1.2.075 1.875 1.2 1.875 1.2 1.05 1.8 2.775 1.275 3.525.975a2.59 2.59 0 0 1 .75-1.575c-2.7-.3-5.475-1.35-5.475-5.925 0-1.275.45-2.4 1.2-3.225-.15-.3-.525-1.5.15-3.15 0 0 .975-.3 3.3 1.2.975-.3 1.95-.375 3-.375s2.025.15 3 .375c2.325-1.575 3.3-1.275 3.3-1.275.675 1.65.225 2.85.15 3.15.75.825 1.2 1.875 1.2 3.225 0 4.575-2.775 5.625-5.475 5.925.45.375.825 1.125.825 2.25v3.3c0 .3.225.675.825.6a12.015 12.015 0 0 0 8.175-11.4c0-6.6-5.4-12-12-12z" fill="currentColor" fill-rule="evenodd"></path></symbol>
<symbol id="twitter" viewBox="0 0 37 37"><path d="M36 18c0 9.945-8.055 18-18 18S0 27.945 0 18 8.055 0 18 0s18 8.055 18 18zm-21.294 9.495c7.983 0 12.348-6.615 12.348-12.348 0-.189 0-.378-.009-.558a8.891 8.891 0 0 0 2.169-2.25 8.808 8.808 0 0 1-2.493.684 4.337 4.337 0 0 0 1.908-2.403 8.788 8.788 0 0 1-2.754 1.053 4.319 4.319 0 0 0-3.168-1.368 4.34 4.34 0 0 0-4.338 4.338c0 .342.036.675.117.99a12.311 12.311 0 0 1-8.946-4.536 4.353 4.353 0 0 0-.585 2.178 4.32 4.32 0 0 0 1.935 3.609 4.263 4.263 0 0 1-1.962-.54v.054a4.345 4.345 0 0 0 3.483 4.257 4.326 4.326 0 0 1-1.962.072 4.333 4.333 0 0 0 4.05 3.015 8.724 8.724 0 0 1-6.426 1.791 12.091 12.091 0 0 0 6.633 1.962z" fill="currentColor"></path></symbol>
<symbol id="mattermost" viewBox="0 0 206 206"><path fill="currentColor" d="m163.012 19.596 1.082 21.794c17.667 19.519 24.641 47.161 15.846 73.14-13.129 38.782-56.419 59.169-96.693 45.535-40.272-13.633-62.278-56.124-49.15-94.905 8.825-26.066 31.275-43.822 57.276-48.524L105.422.038C61.592-1.15 20.242 26.056 5.448 69.76c-18.178 53.697 10.616 111.963 64.314 130.142 53.698 18.178 111.964-10.617 130.143-64.315 14.77-43.633-1.474-90.283-36.893-115.99"/><path fill="currentColor" d="m137.097 53.436-.596-17.531-.404-15.189s.084-7.322-.17-9.043a2.776 2.776 0 0 0-.305-.914l-.05-.109-.06-.094a2.378 2.378 0 0 0-1.293-1.07 2.382 2.382 0 0 0-1.714.078l-.033.014-.18.092a2.821 2.821 0 0 0-.75.518c-1.25 1.212-5.63 7.08-5.63 7.08l-9.547 11.82-11.123 13.563-19.098 23.75s-8.763 10.938-6.827 24.4c1.937 13.464 11.946 20.022 19.71 22.65 7.765 2.63 19.7 3.5 29.417-6.019 9.716-9.518 9.397-23.53 9.397-23.53l-.744-30.466z"/></symbol>
</svg>
