<?xml version="1.0" encoding="UTF-8"?><!DOCTYPE svg PUBLIC "-//W3C//DTD SVG 1.1//EN" "http://www.w3.org/Graphics/SVG/1.1/DTD/svg11.dtd">
<svg xmlns="http://www.w3.org/2000/svg" xmlns:xlink="http://www.w3.org/1999/xlink"><defs/>
<symbol id="account" viewBox="0 0 24 24" fill="none"><path d="M11.9336 12.777C14.1707 12.777 15.9843 10.9635 15.9843 8.72641C15.9843 6.48931 14.1707 4.67578 11.9336 4.67578C9.69653 4.67578 7.883 6.48931 7.883 8.72641C7.883 10.9635 9.69653 12.777 11.9336 12.777Z" fill="none" stroke="currentColor" stroke-width="1.5" stroke-miterlimit="10"/><path d="M5.38513 19.3247C5.38513 17.4345 6.87036 15.9492 8.76066 15.9492H15.2417C17.0645 15.9492 18.6172 17.4345 18.6172 19.3247" fill="none" stroke="currentColor" stroke-width="1.5" stroke-miterlimit="10" stroke-linecap="round" stroke-linejoin="round"/></symbol>
<symbol id="api" viewBox="0 0 16 16" fill="none"><path fill-rule="evenodd" clip-rule="evenodd" d="M2.8 0a2 2 0 0 0-2 2v12a2 2 0 0 0 2 2h10.4a2 2 0 0 0 2-2V2a2 2 0 0 0-2-2H2.8Zm7.9 5.6H5.3a.5.5 0 0 1-.5-.5v-.6a.5.5 0 0 1 .5-.5h5.4a.5.5 0 0 1 .5.5v.6a.5.5 0 0 1-.5.5ZM5.3 7.2h5.4a.5.5 0 0 1 .5.5v.6a.5.5 0 0 1-.5.5H5.3a.5.5 0 0 1-.5-.5v-.6a.5.5 0 0 1 .5-.5Zm2.2 3.202H5.3a.5.5 0 0 0-.5.5v.6a.5.5 0 0 0 .5.5h2.2a.5.5 0 0 0 .5-.5v-.6a.5.5 0 0 0-.5-.5Z" fill="currentColor"/></symbol>
<symbol id="archive" viewBox="0 0 24 24" fill="none"><path d="M11.8619 6.00239C11.8575 6.00419 11.0193 6.00783 9.99915 6.01047C7.84611 6.01602 7.78631 6.01682 7.69673 6.04013C7.60419 6.06423 7.48364 6.12503 7.40893 6.18527C7.34157 6.23959 7.2173 6.36842 7.13068 6.47367C7.11661 6.49074 7.09686 6.51324 7.08679 6.52364C7.07667 6.53407 7.07012 6.54258 7.07216 6.54258C7.07424 6.54258 7.06216 6.55685 7.04541 6.57432C7.01643 6.60446 6.93501 6.70267 6.85051 6.8094C6.82916 6.83634 6.80914 6.86016 6.80594 6.86236C6.80274 6.86456 6.76113 6.91493 6.71344 6.97429C6.66575 7.03365 6.60667 7.10596 6.58213 7.13502C6.55759 7.16404 6.49255 7.24282 6.43759 7.31006C6.38263 7.37733 6.32507 7.44752 6.30968 7.46607C6.29429 7.48466 6.2745 7.50996 6.26571 7.52235C6.25691 7.53474 6.2422 7.55409 6.23301 7.56536C6.20811 7.59594 6.14747 7.69923 6.12245 7.75375C6.11029 7.78014 6.09367 7.81611 6.08543 7.8337C6.06457 7.87835 6.01332 8.02157 6.0182 8.02157C6.02044 8.02157 6.01692 8.02968 6.0104 8.03964C5.99753 8.0593 5.99609 16.7879 6.00896 16.8915C6.02172 16.9942 6.0784 17.1702 6.12988 17.2672C6.18968 17.3798 6.24292 17.4631 6.25504 17.4631C6.25871 17.4631 6.26171 17.467 6.26171 17.4718C6.26171 17.4914 6.37963 17.6224 6.44119 17.6711C6.46613 17.6908 6.49799 17.7171 6.51202 17.7296C6.52605 17.7421 6.548 17.7577 6.56075 17.7645C6.57354 17.7711 6.59117 17.7833 6.59996 17.7914C6.63981 17.8286 6.89712 17.9429 6.98522 17.9626C6.99401 17.9646 7.02819 17.9735 7.06116 17.9824C7.12496 17.9995 16.2297 18.0075 16.7226 17.9908C16.9773 17.9822 17.0623 17.9621 17.2662 17.8626C17.3271 17.8329 17.4541 17.7514 17.4541 17.742C17.4541 17.7381 17.4589 17.7349 17.4649 17.7349C17.4804 17.7349 17.638 17.5834 17.6945 17.5144C17.8415 17.3344 17.9433 17.1131 17.9755 16.9035C17.9823 16.859 17.9853 15.7148 17.987 12.4527L17.9892 8.06174L17.9498 7.9539C17.9077 7.83874 17.8599 7.73433 17.8229 7.67705C17.7524 7.56768 17.7103 7.50408 17.699 7.48993C17.6921 7.48114 17.659 7.43889 17.6256 7.396C17.5922 7.35315 17.5618 7.31805 17.558 7.31805C17.5542 7.31805 17.549 7.31174 17.5465 7.30406C17.544 7.29639 17.5271 7.27388 17.5091 7.2541C17.4911 7.23431 17.4632 7.20193 17.4472 7.18214C17.4312 7.16236 17.4143 7.14257 17.4096 7.13817C17.405 7.13378 17.3859 7.10971 17.3671 7.08473C17.3483 7.05975 17.325 7.03097 17.3152 7.02077C17.3055 7.01058 17.2851 6.98608 17.27 6.96629C17.255 6.94651 17.2406 6.92852 17.2382 6.92632C17.2358 6.92412 17.2214 6.90613 17.2062 6.88635C17.1759 6.84673 17.1419 6.80524 17.0598 6.70739C17.0299 6.67173 16.9939 6.62852 16.9799 6.61142C16.652 6.21113 16.416 6.03501 16.1869 6.0197C16.0483 6.01043 11.8831 5.9938 11.8619 6.00239ZM15.7792 6.69088C15.9532 6.69624 15.999 6.70631 15.999 6.73925C15.999 6.74269 16.0126 6.75831 16.0291 6.77394C16.0457 6.78961 16.0671 6.81252 16.0767 6.82491C16.0863 6.8373 16.1456 6.90174 16.2085 6.96813C16.3078 7.07298 16.3512 7.11903 16.4747 7.25062C16.4879 7.26469 16.5093 7.28739 16.5222 7.3011L16.5457 7.32605H11.9949H7.4441L7.46649 7.29607C7.4788 7.2796 7.49539 7.25889 7.50338 7.2501C7.51138 7.2413 7.53296 7.21436 7.55135 7.19022C7.56974 7.16608 7.595 7.1349 7.60751 7.12091C7.61998 7.10692 7.62946 7.09428 7.62858 7.09285C7.6277 7.09141 7.64197 7.07402 7.66027 7.05423C7.67858 7.03445 7.69957 7.00834 7.70688 6.99627C7.7142 6.9842 7.72299 6.97429 7.72643 6.97429C7.72987 6.97429 7.7327 6.96889 7.7327 6.96229C7.7327 6.9557 7.7357 6.9503 7.73934 6.9503C7.74298 6.9503 7.76728 6.9228 7.7933 6.88922C7.81933 6.85561 7.85066 6.81691 7.86298 6.80328C7.87525 6.78961 7.90223 6.75564 7.92293 6.72782L7.96055 6.67721L11.8019 6.68197C13.9147 6.68457 15.7045 6.68856 15.7792 6.69088ZM13.3209 11.3473V12.0189L14.4653 12.0187C15.0947 12.0186 15.6111 12.02 15.6128 12.0217C15.6145 12.0234 15.5742 12.0657 15.5232 12.1157C15.4722 12.1658 15.3617 12.2787 15.2777 12.3666C15.1937 12.4545 15.1219 12.5256 15.1183 12.5245C15.1147 12.5234 15.1126 12.5267 15.1137 12.5318C15.1148 12.537 15.1076 12.5454 15.0977 12.5506C15.0878 12.5557 15.0822 12.5623 15.0851 12.5652C15.088 12.5681 15.0852 12.5708 15.079 12.5713C15.0728 12.5717 15.0047 12.6381 14.9278 12.7188C14.8508 12.7995 14.7836 12.8657 14.7784 12.8659C14.7731 12.8661 14.7663 12.8704 14.7631 12.8755C14.7596 12.8812 14.7609 12.8826 14.7667 12.879C14.7817 12.8697 14.7772 12.8786 14.7585 12.895C14.749 12.9034 14.7438 12.9057 14.747 12.9002C14.7605 12.8772 14.7434 12.8942 14.6877 12.959C14.6552 12.9968 14.6202 13.031 14.6098 13.0349C14.5995 13.0389 14.5933 13.0457 14.596 13.0501C14.5987 13.0545 14.5953 13.0581 14.5885 13.0581C14.5816 13.0581 14.576 13.0609 14.576 13.0643C14.576 13.0752 14.4684 13.182 14.4601 13.1793C14.4557 13.1779 14.4548 13.1794 14.4581 13.1827C14.4656 13.1902 14.4414 13.218 14.4274 13.218C14.4217 13.218 14.4145 13.2222 14.4114 13.2272C14.4076 13.2334 14.4092 13.2343 14.4161 13.23C14.423 13.2257 14.4247 13.2266 14.4209 13.2328C14.4178 13.2378 14.4107 13.242 14.4051 13.242C14.3995 13.242 14.3845 13.2554 14.3716 13.2718C14.3392 13.313 14.3042 13.3495 14.3042 13.3421C14.3042 13.3387 14.2989 13.3404 14.2923 13.3458C14.2857 13.3513 14.2825 13.3592 14.2851 13.3634C14.2877 13.3676 14.2823 13.3729 14.2731 13.3753C14.264 13.3777 14.2573 13.382 14.2584 13.3848C14.2606 13.3904 14.1625 13.4882 14.1537 13.4892C14.1508 13.4895 14.1482 13.4943 14.148 13.4998C14.1478 13.5053 14.1424 13.5086 14.136 13.5071C14.1296 13.5057 14.127 13.5071 14.1302 13.5104C14.138 13.5181 14.1207 13.539 14.1114 13.5332C14.1075 13.5308 14.1043 13.5339 14.1043 13.5401C14.1043 13.5579 14.0362 13.629 14.0254 13.6224C14.0202 13.6192 14.0165 13.6195 14.0172 13.6231C14.0206 13.6428 14.0154 13.651 14.0027 13.6462C13.9951 13.6432 13.9915 13.6435 13.9947 13.6466C14.002 13.654 13.9774 13.6817 13.9637 13.6817C13.958 13.6817 13.9508 13.6859 13.9477 13.6909C13.9438 13.6972 13.9456 13.698 13.9532 13.6934C13.9628 13.6876 13.9628 13.6886 13.9533 13.7003C13.9472 13.7079 13.9407 13.7126 13.939 13.7109C13.9372 13.7091 13.8955 13.7495 13.8462 13.8005C13.7969 13.8516 13.7539 13.8925 13.7506 13.8915C13.7473 13.8904 13.7454 13.8923 13.7464 13.8956C13.7495 13.9053 13.7181 13.9384 13.6986 13.946C13.6887 13.95 13.6806 13.9586 13.6806 13.9653C13.6806 13.972 13.6763 13.9775 13.6711 13.9775C13.6615 13.9775 13.6168 14.0165 13.6166 14.0249C13.6164 14.035 13.4203 14.2291 13.4128 14.2266C13.4084 14.2252 13.4075 14.2267 13.4108 14.23C13.4191 14.2383 13.3927 14.2661 13.3825 14.2599C13.378 14.2571 13.3766 14.2584 13.3793 14.2628C13.3857 14.2732 13.3419 14.3154 13.333 14.3074C13.3294 14.304 13.3286 14.3053 13.3314 14.3102C13.3342 14.3151 13.3286 14.3259 13.3188 14.3342C13.3014 14.349 13.3013 14.349 13.3128 14.3333C13.3192 14.3245 13.2873 14.356 13.242 14.4032C13.1966 14.4505 13.1446 14.5023 13.1263 14.5183C13.108 14.5343 13.0984 14.5445 13.105 14.541C13.1116 14.5375 13.1066 14.5458 13.0939 14.5595C13.0812 14.5731 13.067 14.5836 13.0623 14.5827C13.0576 14.5818 13.0535 14.5865 13.0531 14.5931C13.0527 14.5997 13.0477 14.6041 13.0421 14.6029C13.0365 14.6017 13.0338 14.6037 13.036 14.6073C13.0399 14.6136 12.9957 14.6609 12.9857 14.6611C12.9737 14.6615 12.9614 14.6751 12.9662 14.6828C12.9694 14.688 12.9679 14.6892 12.9623 14.6857C12.957 14.6825 12.9508 14.6858 12.9479 14.6934C12.945 14.7009 12.9262 14.7218 12.9059 14.7399C12.82 14.8171 12.7533 14.8843 12.7533 14.8935C12.7533 14.899 12.7422 14.9127 12.7287 14.9241C12.7151 14.9355 12.7067 14.9448 12.7099 14.9448C12.7131 14.9448 12.7093 14.952 12.7013 14.9608C12.6934 14.9696 12.6818 14.9768 12.6756 14.9768C12.6694 14.9768 12.666 14.9795 12.668 14.9828C12.67 14.9861 12.6625 14.9957 12.6512 15.0042C12.6399 15.0126 12.6337 15.0147 12.6373 15.0089C12.6416 15.0019 12.6407 15.0002 12.6346 15.004C12.6295 15.0071 12.6254 15.0155 12.6254 15.0226C12.6254 15.0297 12.6228 15.0329 12.6198 15.0298C12.6133 15.0233 12.4095 15.2241 12.4095 15.237C12.4095 15.2505 12.3572 15.2976 12.3497 15.2908C12.346 15.2874 12.3453 15.2887 12.3482 15.2937C12.351 15.2987 12.348 15.3072 12.3415 15.3127C12.3349 15.3181 12.3296 15.3201 12.3296 15.3173C12.3296 15.3143 12.3245 15.3166 12.3184 15.3223C12.3123 15.3279 12.3089 15.3353 12.3109 15.3386C12.3129 15.3418 12.3113 15.3446 12.3075 15.3446C12.3035 15.3446 12.2305 15.4124 12.1451 15.4953C12.0103 15.6264 11.9886 15.6444 11.9801 15.6332C11.9747 15.6262 11.9702 15.6236 11.97 15.6275C11.9699 15.6315 11.9615 15.6257 11.9512 15.6147C11.941 15.6036 11.923 15.5883 11.9112 15.5806C11.8903 15.5669 11.8801 15.5459 11.8999 15.5572C11.9056 15.5606 11.907 15.5599 11.9032 15.5557C11.8995 15.5517 11.8946 15.5484 11.8923 15.5484C11.8899 15.5484 11.8435 15.503 11.789 15.4475C11.7345 15.392 11.69 15.3484 11.69 15.3506C11.69 15.3528 11.6846 15.3501 11.6781 15.3446C11.6715 15.3392 11.6681 15.3316 11.6705 15.3278C11.6729 15.3239 11.67 15.3226 11.664 15.3249C11.6517 15.3296 11.6071 15.2838 11.6136 15.2732C11.616 15.2695 11.6116 15.2615 11.604 15.2555C11.5911 15.2455 11.591 15.2458 11.6021 15.2603C11.6087 15.2689 11.5601 15.2208 11.4941 15.1536C11.4282 15.0863 11.373 15.028 11.3715 15.024C11.3701 15.02 11.3636 15.0168 11.3572 15.0168C11.3448 15.0168 11.2255 14.8999 11.2282 14.8904C11.2294 14.8861 11.1192 14.7763 11.0049 14.668C10.9995 14.663 10.9978 14.6561 11.0009 14.6527C11.0039 14.6493 11.002 14.649 10.9966 14.6522C10.9833 14.6598 10.8712 14.549 10.8792 14.5361C10.8826 14.5306 10.8816 14.5288 10.8769 14.5317C10.8724 14.5345 10.8619 14.529 10.8536 14.5196C10.8454 14.5101 10.8433 14.5051 10.8489 14.5085C10.8546 14.5118 10.8246 14.4809 10.7822 14.4399C10.7398 14.3988 10.7 14.3623 10.6938 14.3588C10.6875 14.3552 10.6845 14.3488 10.6871 14.3446C10.6897 14.3403 10.6871 14.3378 10.6813 14.339C10.6755 14.3402 10.6717 14.3365 10.6729 14.3307C10.6741 14.3247 10.6712 14.3225 10.6663 14.3255C10.6543 14.3329 10.5758 14.2525 10.5834 14.2404C10.5868 14.2349 10.5858 14.233 10.5812 14.2358C10.5747 14.2398 10.5365 14.2061 10.5398 14.1993C10.5403 14.1982 10.4801 14.1382 10.4059 14.0658C10.2411 13.9053 10.2517 13.9159 10.271 13.9299C10.2858 13.9406 10.2861 13.9404 10.276 13.9275C10.27 13.9198 10.2608 13.9135 10.2556 13.9135C10.2436 13.9135 10.1991 13.8665 10.192 13.8464C10.1891 13.8381 10.1849 13.8331 10.1827 13.8353C10.179 13.8389 10.0729 13.7333 10.0384 13.6917C10.0303 13.6818 10.019 13.6737 10.0134 13.6737C10.0077 13.6737 10.0032 13.6685 10.0032 13.6622C10.0032 13.6558 9.99899 13.6481 9.99392 13.645C9.98768 13.6411 9.98684 13.6429 9.99136 13.6505C9.99504 13.6567 9.98572 13.6498 9.97061 13.6352C9.95554 13.6207 9.94319 13.6045 9.94319 13.5993C9.94319 13.594 9.93959 13.5897 9.9352 13.5896C9.92233 13.5895 9.88335 13.552 9.88811 13.5444C9.89047 13.5406 9.88947 13.5384 9.88583 13.5395C9.8786 13.5418 9.57976 13.2417 9.57956 13.232C9.57948 13.2287 9.57384 13.226 9.56697 13.226C9.56013 13.226 9.55674 13.2224 9.55945 13.218C9.56217 13.2136 9.55913 13.21 9.5527 13.21C9.54622 13.21 9.51217 13.1779 9.47695 13.1387C9.44174 13.0995 9.4114 13.0689 9.40952 13.0708C9.40768 13.0727 9.39924 13.0662 9.39085 13.0563C9.37574 13.0386 9.37574 13.0385 9.39157 13.0502C9.40636 13.0612 9.40676 13.0611 9.39661 13.0481C9.39057 13.0404 9.3813 13.0341 9.37598 13.0341C9.36603 13.0341 9.32989 12.9996 9.33353 12.9936C9.33469 12.9917 9.31446 12.9691 9.2886 12.9433C9.26274 12.9175 9.24451 12.9011 9.24807 12.9069C9.2583 12.9235 9.20534 12.8833 9.19219 12.8645C9.18571 12.8553 9.18259 12.8441 9.18527 12.8398C9.18803 12.8353 9.18611 12.8343 9.18087 12.8376C9.1758 12.8407 9.16976 12.8386 9.16752 12.8328C9.16524 12.827 8.98533 12.6428 8.76768 12.4234C8.55003 12.204 8.37323 12.0232 8.37479 12.0216C8.37638 12.0201 8.89267 12.0188 9.52216 12.0188H10.6667V11.3473V10.6758H11.9938H13.3209V11.3473Z" fill="currentColor"/></symbol>
<symbol id="back" viewBox="0 0 21 18" fill="none"><path d="M7.63754 1.10861L0.578503 8.16764C0.119666 8.62648 0.119666 9.37121 0.578503 9.83122L7.63754 16.8902C8.09637 17.3491 8.8411 17.3491 9.30111 16.8902C9.53053 16.6608 9.64583 16.3608 9.64583 16.0585C9.64583 15.7561 9.53053 15.4561 9.30111 15.2267L4.25038 10.1759H19.0579C19.7085 10.1759 20.2344 9.65004 20.2344 8.99943C20.2344 8.34882 19.7085 7.82293 19.0579 7.82293L4.25038 7.82293L9.30111 2.77219C9.53053 2.54277 9.64583 2.24276 9.64583 1.9404C9.64583 1.63804 9.53053 1.33803 9.30111 1.10861C8.84228 0.649771 8.09755 0.649771 7.63754 1.10861Z" fill="currentColor"/></symbol>
<symbol id="caret-down" viewBox="0 0 24 24" fill="none"><path d="M7 9.5L12 14.5L17 9.5" stroke="currentColor" stroke-width="2" stroke-linecap="round" stroke-linejoin="round" fill="none"/></symbol>
<symbol id="caret-right" viewBox="0 0 24 24" fill="none"><path d="M9.5 17L14.5 12L9.5 7" stroke="currentColor" stroke-width="2" stroke-linecap="round" stroke-linejoin="round" fill="none"/></symbol>
<symbol id="checkmark" viewBox="0 0 16 16" fill="none"><path fill-rule="evenodd" clip-rule="evenodd" d="M13.7808 4.21934C13.9213 4.35997 14.0002 4.55059 14.0002 4.74934C14.0002 4.94809 13.9213 5.13871 13.7808 5.27934L6.53082 12.5293C6.3902 12.6698 6.19957 12.7487 6.00082 12.7487C5.80207 12.7487 5.61145 12.6698 5.47082 12.5293L2.22082 9.27934C2.08834 9.13717 2.01622 8.94912 2.01965 8.75482C2.02308 8.56052 2.10179 8.37513 2.2392 8.23772C2.37661 8.10031 2.562 8.02159 2.7563 8.01816C2.9506 8.01474 3.13865 8.08686 3.28082 8.21934L6.00082 10.9393L12.7208 4.21934C12.8614 4.07889 13.0521 4 13.2508 4C13.4496 4 13.6402 4.07889 13.7808 4.21934Z" fill="currentColor"/></symbol>
<symbol id="close" viewBox="0 0 16 16" fill="none"><path d="M9.38526 8.08753L15.5498 1.85558C15.9653 1.43545 15.9653 0.805252 15.5498 0.385121C15.1342 -0.0350102 14.5108 -0.0350102 14.0952 0.385121L7.93072 6.61707L1.76623 0.315098C1.35065 -0.105033 0.727273 -0.105033 0.311688 0.315098C-0.103896 0.73523 -0.103896 1.36543 0.311688 1.78556L6.47618 8.0175L0.311688 14.2495C-0.103896 14.6696 -0.103896 15.2998 0.311688 15.7199C0.519481 15.93 0.796499 16 1.07355 16C1.35061 16 1.62769 15.93 1.83548 15.7199L7.99997 9.48797L14.1645 15.7199C14.3722 15.93 14.6493 16 14.9264 16C15.2034 16 15.4805 15.93 15.6883 15.7199C16.1039 15.2998 16.1039 14.6696 15.6883 14.2495L9.38526 8.08753Z" fill="currentColor"/></symbol>
<symbol id="copy" viewBox="0 0 16 16" fill="none"><path d="M13.3333 6H7.33333C6.59695 6 6 6.59695 6 7.33333V13.3333C6 14.0697 6.59695 14.6667 7.33333 14.6667H13.3333C14.0697 14.6667 14.6667 14.0697 14.6667 13.3333V7.33333C14.6667 6.59695 14.0697 6 13.3333 6Z" stroke="currentColor" stroke-width="1.5" stroke-linecap="round" stroke-linejoin="round"/><path d="M3.33203 10.0007H2.66536C2.31174 10.0007 1.9726 9.86018 1.72256 9.61013C1.47251 9.36008 1.33203 9.02094 1.33203 8.66732V2.66732C1.33203 2.3137 1.47251 1.97456 1.72256 1.72451C1.9726 1.47446 2.31174 1.33398 2.66536 1.33398H8.66536C9.01899 1.33398 9.35813 1.47446 9.60817 1.72451C9.85822 1.97456 9.9987 2.3137 9.9987 2.66732V3.33398" stroke="currentColor" stroke-width="1.5" stroke-linecap="round" stroke-linejoin="round"/></symbol>
<symbol id="cross" viewBox="0 0 16 16" fill="none"><path d="m 12.130988,3.8368041 c 0.1405,0.14063 0.2194,0.33125 0.2194,0.53 0,0.19875 -0.0789,0.38937 -0.2194,0.53 0,0 -7.1796704,7.1797099 -7.2499804,7.2499599 -0.4782845,0.337104 -0.6862778,0.290768 -1.06,0 -0.3737222,-0.290768 -0.019811,-1.025771 -0.019811,-1.025771 L 11.070988,3.8368041 c 0.1406,-0.14045 0.3313,-0.21934 0.53,-0.21934 0.1988,0 0.3894,0.07889 0.53,0.21934 z" fill="currentColor"/><path d="m 12.130987,12.163196 c 0.1405,-0.14063 0.2194,-0.33125 0.2194,-0.53 0,-0.19875 -0.0789,-0.38937 -0.2194,-0.53 0,0 -7.1796692,-7.1797105 -7.2499792,-7.2499605 -0.4782845,-0.337104 -0.6862778,-0.290768 -1.06,0 -0.3737222,0.290768 -0.019811,1.025771 -0.019811,1.025771 l 7.2697902,7.2841895 c 0.1406,0.14045 0.3313,0.21934 0.53,0.21934 0.1988,0 0.3894,-0.07889 0.53,-0.21934 z" fill="currentColor"/></symbol>
<symbol id="crowdfund" viewBox="0 0 24 24" fill="none"><path d="M9.1638 12.4922C11.339 12.4922 13.1023 10.7288 13.1023 8.5537C13.1023 6.37854 11.339 4.61523 9.1638 4.61523C6.98865 4.61523 5.22534 6.37854 5.22534 8.5537C5.22534 10.7288 6.98865 12.4922 9.1638 12.4922Z" fill="none" stroke="currentColor" stroke-width="1.5" stroke-linecap="round" stroke-linejoin="round"/><path d="M15.9331 18.0307C17.4965 18.0307 18.7638 16.7633 18.7638 15.1999C18.7638 13.6365 17.4965 12.3691 15.9331 12.3691C14.3697 12.3691 13.1023 13.6365 13.1023 15.1999C13.1023 16.7633 14.3697 18.0307 15.9331 18.0307Z" fill="none" stroke="currentColor" stroke-width="1.5" stroke-linecap="round" stroke-linejoin="round"/><path d="M8.24067 19.3839C9.49818 19.3839 10.5176 18.3645 10.5176 17.107C10.5176 15.8495 9.49818 14.8301 8.24067 14.8301C6.98316 14.8301 5.96375 15.8495 5.96375 17.107C5.96375 18.3645 6.98316 19.3839 8.24067 19.3839Z" fill="none" stroke="currentColor" stroke-width="1.5" stroke-linecap="round" stroke-linejoin="round"/></symbol>
<symbol id="docs" viewBox="0 0 16 16" fill="none"><path fill-rule="evenodd" clip-rule="evenodd" d="M8 16A8 8 0 1 0 7.998-.002 8 8 0 0 0 8 16Zm-.336-8.032.773-.616c.258-.203.437-.414.546-.624a1.43 1.43 0 0 0 .172-.71c0-.32-.094-.578-.297-.758-.202-.18-.483-.273-.85-.273s-.664.094-.882.289c-.203.195-.312.46-.312.804 0 .255-.194.489-.449.47l-.728-.053a.458.458 0 0 1-.435-.4 2.521 2.521 0 0 1-.012-.244c0-.655.258-1.178.765-1.568.523-.383 1.21-.578 2.076-.578.913 0 1.616.187 2.115.57.492.374.742.905.742 1.592 0 .765-.367 1.452-1.093 2.068l-.679.57a1.375 1.375 0 0 0-.28.312.738.738 0 0 0-.071.351.36.36 0 0 1-.36.36h-.78a.5.5 0 0 1-.5-.5v-.023c0-.235.048-.43.133-.586a1.82 1.82 0 0 1 .406-.453Zm-.406 4.036a.97.97 0 0 0 .726.288c.305 0 .547-.093.734-.288a.988.988 0 0 0 .289-.734c0-.304-.094-.546-.289-.742-.187-.195-.43-.288-.734-.288a.97.97 0 0 0-.726.288 1.019 1.019 0 0 0-.28.742c0 .296.093.539.28.734Z" fill="currentColor"/></symbol>
<symbol id="donate" viewBox="0 0 16 16" fill="none"><path fill-rule="evenodd" clip-rule="evenodd" d="M7.65 14.91a.75.75 0 0 0 .7 0L8 14.26l.35.66h.02c1.33-.74 2.59-1.6 3.75-2.6C13.96 10.74 16 8.36 16 5.5 16 2.84 13.91 1 11.75 1 10.2 1 8.85 1.8 8 3.02A4.57 4.57 0 0 0 4.25 1 4.38 4.38 0 0 0 0 5.5c0 2.85 2.04 5.23 3.88 6.82a22.08 22.08 0 0 0 3.75 2.58l.02.01Z" fill="currentColor"/></symbol>
<symbol id="done" viewBox="0 0 24 24" fill="none"><circle cx="12" cy="12" r="12" fill="#51B13E"/><path d="m7 12.14 3.55 3.54L17.5 9" stroke="#fff" stroke-width="2" stroke-linecap="round" stroke-linejoin="round"/></symbol>
<symbol id="dots" viewBox="0 0 16 16" fill="none"><path d="M2 6C0.9 6 0 6.9 0 8C0 9.1 0.9 10 2 10C3.1 10 4 9.1 4 8C4 6.9 3.1 6 2 6ZM14 6C12.9 6 12 6.9 12 8C12 9.1 12.9 10 14 10C15.1 10 16 9.1 16 8C16 6.9 15.1 6 14 6ZM8 6C6.9 6 6 6.9 6 8C6 9.1 6.9 10 8 10C9.1 10 10 9.1 10 8C10 6.9 9.1 6 8 6Z" fill="currentColor"/></symbol>
<symbol id="drag" viewBox="0 0 16 16" fill="none"><rect x="4.5" width="2.5" height="2.5" fill="currentColor"/><rect x="9" width="2.5" height="2.5" fill="currentColor"/><rect x="4.5" y="4.5" width="2.5" height="2.5" fill="currentColor"/><rect x="9" y="4.5" width="2.5" height="2.5" fill="currentColor"/><rect x="4.5" y="9" width="2.5" height="2.5" fill="currentColor"/><rect x="9" y="9" width="2.5" height="2.5" fill="currentColor"/><rect x="4.5" y="13.5" width="2.5" height="2.5" fill="currentColor"/><rect x="9" y="13.5" width="2.5" height="2.5" fill="currentColor"/></symbol>
<symbol id="existing-wallet" viewBox="0 0 32 32" fill="none"><path d="M26.5362 7.08746H25.9614V3.25512C25.9614 2.10542 25.3865 1.14734 24.6201 0.572488C23.8536 -0.00236247 22.7039 -0.193979 21.7458 -0.00236246L4.11707 5.36291C2.00929 5.93776 0.667969 7.85392 0.667969 9.96171V12.0695V12.836V27.3988C0.667969 30.0815 2.77575 32.1893 5.45839 32.1893H26.5362C29.2189 32.1893 31.3267 30.0815 31.3267 27.3988V12.0695C31.3267 9.38686 29.2189 7.08746 26.5362 7.08746ZM4.69192 7.08746L22.129 1.91381C22.5123 1.72219 23.0871 1.91381 23.4704 2.10542C23.8536 2.29704 24.0452 2.87189 24.0452 3.25512V7.08746H5.45839C4.88354 7.08746 4.5003 7.27908 3.92545 7.47069C4.11707 7.27908 4.5003 7.08746 4.69192 7.08746ZM29.4105 27.2072C29.4105 28.7402 28.0692 30.0815 26.5362 30.0815H5.45839C3.92545 30.0815 2.58414 28.7402 2.58414 27.2072V12.836V11.8779C2.58414 10.3449 3.92545 9.00362 5.45839 9.00362H26.5362C28.0692 9.00362 29.4105 10.3449 29.4105 11.8779V27.2072Z" fill="currentColor"/><path d="M25.9591 21.6487C27.0174 21.6487 27.8753 20.7908 27.8753 19.7326C27.8753 18.6743 27.0174 17.8164 25.9591 17.8164C24.9009 17.8164 24.043 18.6743 24.043 19.7326C24.043 20.7908 24.9009 21.6487 25.9591 21.6487Z" fill="currentColor"/></symbol>
<symbol id="forms-checkbox" viewBox="0 0 24 24" fill="none"><rect x="1" y="1" width="22" height="22" rx="3" stroke="currentColor" stroke-width="2"/><path d="M7.5 12.5L10.9297 15.4397C10.9694 15.4737 11.0285 15.4715 11.0655 15.4345L17.5 9" stroke="currentColor" stroke-width="2" stroke-linecap="round"/></symbol>
<symbol id="forms-date" viewBox="0 0 24 24" fill="none"><rect x="1" y="4" width="22" height="19" rx="3" stroke="currentColor" stroke-width="2"/><path d="M6 1L6 3" stroke="currentColor" stroke-width="2" stroke-linecap="round"/><path d="M18 1L18 3" stroke="currentColor" stroke-width="2" stroke-linecap="round"/><path d="M5 9H19" stroke="currentColor" stroke-width="2" stroke-linecap="round"/></symbol>
<symbol id="forms-number" viewBox="0 0 24 24" fill="none"><rect x="1" y="1" width="22" height="22" rx="3" stroke="currentColor" stroke-width="2"/><path d="M15.5684 17H8.31543V15.2227L10.7559 12.7549C11.2617 12.2262 11.6536 11.8024 11.9316 11.4834C12.2142 11.1644 12.4124 10.8932 12.5264 10.6699C12.6403 10.4466 12.6973 10.2142 12.6973 9.97266C12.6973 9.67643 12.6016 9.46224 12.4102 9.33008C12.2188 9.19792 11.9932 9.13184 11.7334 9.13184C11.4189 9.13184 11.0999 9.22298 10.7764 9.40527C10.4574 9.58301 10.0951 9.84733 9.68945 10.1982L8.20605 8.46191C8.50684 8.19303 8.82585 7.93783 9.16309 7.69629C9.50033 7.4502 9.89909 7.24967 10.3594 7.09473C10.8197 6.93978 11.3802 6.8623 12.041 6.8623C12.7201 6.8623 13.3079 6.98079 13.8047 7.21777C14.306 7.45475 14.6934 7.7806 14.9668 8.19531C15.2402 8.60547 15.377 9.07259 15.377 9.59668C15.377 10.1755 15.2699 10.6927 15.0557 11.1484C14.846 11.5996 14.5293 12.0531 14.1055 12.5088C13.6816 12.96 13.153 13.4727 12.5195 14.0469L11.7881 14.7031V14.7715H15.5684V17Z" fill="currentColor"/></symbol>
<symbol id="forms-select" viewBox="0 0 24 24" fill="none"><path d="M1 4C1 2.34315 2.34315 1 4 1H17V20C17 21.6569 15.6569 23 14 23H4C2.34315 23 1 21.6569 1 20V4Z" stroke="currentColor" stroke-width="2"/><path d="M1 2C1 1.44772 1.44772 1 2 1H22C22.5523 1 23 1.44771 23 2V6C23 6.55228 22.5523 7 22 7H1V2Z" stroke="currentColor" stroke-width="2"/><path d="M6 12H12" stroke="currentColor" stroke-width="2" stroke-linecap="round"/><path d="M6 17H12" stroke="currentColor" stroke-width="2" stroke-linecap="round"/></symbol>
<symbol id="forms-text" viewBox="0 0 24 24" fill="none"><rect x="1" y="1" width="22" height="22" rx="3" stroke="currentColor" stroke-width="2"/><path d="M7 7.75H17" stroke="currentColor" stroke-width="2" stroke-linecap="round"/><path d="M12 8V16" stroke="currentColor" stroke-width="2" stroke-linecap="round"/></symbol>
<symbol id="hardware-wallet" viewBox="0 0 32 32" fill="none"><rect x="18.9767" y="6.57031" width="6" height="8" rx="1" transform="rotate(-45 18.9767 6.57031)" fill="none" stroke="currentColor" stroke-width="2"/><path d="M3.8871 21.1057C2.71552 19.9341 2.71552 18.0346 3.8871 16.8631L15.888 4.86213C16.2785 4.4716 16.9117 4.4716 17.3022 4.86212L25.7898 13.3497C26.1804 13.7402 26.1804 14.3734 25.7898 14.7639L13.7889 26.7649C12.6173 27.9364 10.7178 27.9364 9.54626 26.7649L3.8871 21.1057Z" fill="none" stroke="currentColor" stroke-width="2"/></symbol>
<symbol id="home" viewBox="0 0 24 24" fill="none"><path d="M15.6923 19.3845H8.30766C6.27689 19.3845 4.61536 17.7229 4.61536 15.6922V8.30754C4.61536 6.27677 6.27689 4.61523 8.30766 4.61523H15.6923C17.723 4.61523 19.3846 6.27677 19.3846 8.30754V15.6922C19.3846 17.7229 17.723 19.3845 15.6923 19.3845Z" fill="none" stroke="currentColor" stroke-width="1.5" stroke-miterlimit="10"/><path d="M7.56921 11.938H9.04614L10.5846 14.1534L13.3538 9.72266L14.8923 11.938H16.2461" fill="none" stroke="currentColor" stroke-width="1.5" stroke-miterlimit="10" stroke-linecap="round" stroke-linejoin="round"/></symbol>
<symbol id="hot-wallet" viewBox="0 0 32 32" fill="none"><path d="M26.5362 7.08746H25.9614V3.25512C25.9614 2.10542 25.3865 1.14734 24.6201 0.572488C23.8536 -0.00236247 22.7039 -0.193979 21.7458 -0.00236246L4.11707 5.36291C2.00929 5.93776 0.667969 7.85392 0.667969 9.96171V12.0695V12.836V27.3988C0.667969 30.0815 2.77575 32.1893 5.45839 32.1893H26.5362C29.2189 32.1893 31.3267 30.0815 31.3267 27.3988V12.0695C31.3267 9.38686 29.2189 7.08746 26.5362 7.08746ZM4.69192 7.08746L22.129 1.91381C22.5123 1.72219 23.0871 1.91381 23.4704 2.10542C23.8536 2.29704 24.0452 2.87189 24.0452 3.25512V7.08746H5.45839C4.88354 7.08746 4.5003 7.27908 3.92545 7.47069C4.11707 7.27908 4.5003 7.08746 4.69192 7.08746ZM29.4105 27.2072C29.4105 28.7402 28.0692 30.0815 26.5362 30.0815H5.45839C3.92545 30.0815 2.58414 28.7402 2.58414 27.2072V12.836V11.8779C2.58414 10.3449 3.92545 9.00362 5.45839 9.00362H26.5362C28.0692 9.00362 29.4105 10.3449 29.4105 11.8779V27.2072Z" fill="currentColor"/><path d="M25.9591 21.6487C27.0174 21.6487 27.8753 20.7908 27.8753 19.7326C27.8753 18.6743 27.0174 17.8164 25.9591 17.8164C24.9009 17.8164 24.043 18.6743 24.043 19.7326C24.043 20.7908 24.9009 21.6487 25.9591 21.6487Z" fill="currentColor"/></symbol>
<symbol id="info" viewBox="0 0 24 24" fill="none"><path fill-rule="evenodd" clip-rule="evenodd" d="M12 22.39c5.739 0 10.39-4.651 10.39-10.39C22.39 6.261 17.74 1.61 12 1.61 6.261 1.61 1.61 6.26 1.61 12c0 5.739 4.651 10.39 10.39 10.39zm0-2.597a7.793 7.793 0 1 0 0-15.586 7.793 7.793 0 0 0 0 15.586z" fill="currentColor"/><path d="M12 6.805a1.299 1.299 0 1 0 0 2.597 1.299 1.299 0 0 0 0-2.597zM10.701 12s0-1.299 1.299-1.299S13.299 12 13.299 12v3.897s0 1.298-1.299 1.298-1.299-1.298-1.299-1.298z" fill="currentColor"/></symbol>
<symbol id="invoice-2" viewBox="0 0 16 18" fill="none"><path d="M1.16699 3V16.5429L3.50033 15.6286L5.83366 17L8.16699 15.6286L10.5003 17L12.8337 15.6286L15.167 16.5429V3C15.167 1.89543 14.2716 1 13.167 1H3.16699C2.06242 1 1.16699 1.89543 1.16699 3Z" stroke="currentColor" stroke-width="1.6"/><path d="M4.66699 5H11.667" stroke="currentColor" stroke-width="1.5" stroke-linecap="round"/><path d="M4.66699 8.5H11.667" stroke="currentColor" stroke-width="1.5" stroke-linecap="round"/><path d="M4.66699 12H8.66699" stroke="currentColor" stroke-width="1.5" stroke-linecap="round"/></symbol>
<symbol id="invoice-expired" viewBox="0 0 48 48" fill="none"><circle cx="24" cy="24" r="22.5" stroke="currentColor" stroke-width="3"/><path d="m17 31 14-14m-14 0 14 14" stroke="currentColor" stroke-width="3" stroke-linecap="round" stroke-linejoin="round"/></symbol>
<symbol id="invoice" viewBox="0 0 24 24" fill="none"><path d="M8.30766 4.61523H15.6923C17.723 4.61523 19.3846 6.27677 19.3846 8.30754V15.6922C19.3846 17.7229 17.723 19.3845 15.6923 19.3845H8.30766C6.27689 19.3845 4.61536 17.7229 4.61536 15.6922V8.30754C4.61536 6.27677 6.27689 4.61523 8.30766 4.61523Z" fill="none" stroke="currentColor" stroke-width="1.5" stroke-miterlimit="10"/><path d="M8.30774 8.92383H15.6924" fill="none" stroke="currentColor" stroke-width="1.5" stroke-miterlimit="10" stroke-linecap="round" stroke-linejoin="round"/><path d="M8.30774 12H15.6924" fill="none" stroke="currentColor" stroke-width="1.5" stroke-miterlimit="10" stroke-linecap="round" stroke-linejoin="round"/><path d="M8.30774 15.0156H12" fill="none" stroke="currentColor" stroke-width="1.5" stroke-miterlimit="10" stroke-linecap="round" stroke-linejoin="round"/></symbol>
<symbol id="key" fill="none"><g fill="currentColor"><path d="M16.383 10.781a3.046 3.046 0 1 1-.062-6.091 3.046 3.046 0 0 1 .062 6.091zm0-4.75a1.714 1.714 0 0 0-1.22 2.919 1.751 1.751 0 0 0 2.419 0 1.714 1.714 0 0 0-1.21-2.919z" transform="translate(-.494 -.22)"/><path d="M9.039 22.433a1.81 1.81 0 0 1-1.275-.53L6.47 20.6l-.069.091a2.081 2.081 0 0 1-2.946-2.94l7.658-7.674a5.758 5.758 0 1 1 2.94 2.945l-2.267 2.267.898.896a1.796 1.796 0 0 1 0 2.548 1.842 1.842 0 0 1-2.542 0l-.898-.903-.234.234 1.301 1.3a1.805 1.805 0 0 1-1.272 3.073zm-2.57-3.429a.658.658 0 0 1 .468.192l1.767 1.772a.493.493 0 0 0 .668 0 .472.472 0 0 0 0-.669l-1.766-1.767a.658.658 0 0 1-.197-.493.647.647 0 0 1 .197-.467l1.188-1.125a.664.664 0 0 1 .94 0l1.368 1.368a.482.482 0 0 0 .665 0 .473.473 0 0 0 .143-.334.488.488 0 0 0-.139-.334l-1.385-1.39a.669.669 0 0 1-.146-.726.647.647 0 0 1 .146-.213l3.073-3.073a.658.658 0 0 1 .79-.112 4.44 4.44 0 1 0-1.74-1.745.657.657 0 0 1-.112.784l-8.002 7.993a.753.753 0 0 0 1.061 1.061l.531-.53a.679.679 0 0 1 .483-.192z" transform="translate(-.494 -.22)"/></g></symbol>
<symbol id="logo-btcpay" viewBox="0 0 24 24" fill="none"><g fill="currentColor" transform="matrix(0.27159594,0,0,0.27159594,5.6093989,0.60189406)"><path d="M 5.206,83.433 A 4.86,4.86 0 0 1 0.347,78.572 V 5.431 a 4.86,4.86 0 1 1 9.719,0 v 73.141 a 4.861,4.861 0 0 1 -4.86,4.861"/><path d="M 5.209,83.433 A 4.862,4.862 0 0 1 3.123,74.18 L 32.43,60.274 2.323,38.093 a 4.861,4.861 0 0 1 5.766,-7.826 l 36.647,26.999 a 4.864,4.864 0 0 1 -0.799,8.306 L 7.289,82.964 a 4.866,4.866 0 0 1 -2.08,0.469"/><path d="M 5.211,54.684 A 4.86,4.86 0 0 1 2.324,45.91 L 32.43,23.73 3.123,9.821 A 4.861,4.861 0 0 1 7.289,1.037 l 36.648,17.394 a 4.86,4.86 0 0 1 0.799,8.305 l -36.647,27 a 4.844,4.844 0 0 1 -2.878,0.948"/><path d="M 10.066,31.725 V 52.278 L 24.01,42.006 Z"/><path d="M 10.066,5.431 A 4.861,4.861 0 0 0 5.206,0.57 4.86,4.86 0 0 0 0.347,5.431 v 61.165 h 9.72 V 5.431 Z"/></g></symbol>
<symbol id="logo-lightningterminal" viewBox="0 0 28 55" fill="none"><g fill="currentColor"><path d="m27.25 30.5-15.9 23.2a.84.84 0 1 1-1.38-.96l15.9-23.19a.84.84 0 1 1 1.38.96zm-2.09-4.13L9.63 49.08a.84.84 0 0 1-1.39-.95l15.54-22.71a.84.84 0 0 1 1.38.95zm-4.72-24.8L2.43 27.9h16.9l-1.14 1.68H.36a.84.84 0 0 1-.22-1.15L19 .62A.84.84 0 0 1 20.16.4c.4.26.52.78.28 1.19z"/><path d="M22.12 6.62 10.24 23.99H22l-1.15 1.68H7.05l1.14-1.68 12.53-18.3a.84.84 0 0 1 1.39.93z"/></g></symbol>
<symbol id="logo-rtl" viewBox="0 0 610 524" fill="none"><path d="M418.62 107.6c1.95 4.6 2.73 8.24 2.63 10.24-7.56-4.56-18.93-8.43-25.14-9.54-4.03-.72 9.18-3.93 22.51-.7m10.99 169.33a476.42 476.42 0 0 1 14.43-2.8 447.25 447.25 0 0 0-5.98-3.71c-25.45-15.5-52.58-28.64-79.4-41.37-16.91-8.03-34.15-16.02-51.7-23.22 15.31-20.19 34.91-37.32 55.86-52 .02 0 .1-.07.23-.16 4.59 6.26 10.38 10.51 13.29 12.11 5.68 3.13 12.84 6.06 19.41 6.95a110.45 110.45 0 0 0 35.44-.55c1.06-.18 2.14-.3 3.2-.49a105.01 105.01 0 0 1 16.87-1.54c5.88-.1 8.79 1.14 9.48 1.32 2.1.54 3.89 1.44 4.88 2.64a39.71 39.71 0 0 0 3.7 4.13c3.96 3.93 7.89 6.11 13.58 6.74 7.34.8 12.53-2.07 16.2-6.83 1.74-2.25.9-5.78.71-6.47-.96-3.55-3.18-8.7-4.8-13.5a27.3 27.3 0 0 0-4.86-7.64l-2.42-2.56c-3.78-4-7.59-7.96-11.36-11.95-15.06-15.92-31.38-30.58-48.21-44.59l-5.24-4.36-3.82-3.16a1032.74 1032.74 0 0 0-6.06-4.96l-1.63-1.31c-.86-.7-2.81-2.34-4.46-3.66 5.46-5.44 9.86-8.83 17.68-13.95 1.12-.74 7.16-3.96 6.95-4.78-.13-.49-10.05-.38-21.4 1.09-4 .51-26.38 3.81-41.74 7.16-16.35 3.56-33.62 8.55-49.53 13.55-45.94 14.47-89.81 34.07-129.99 60.7-23.09 15.32-44.7 32.21-65.56 50.42a1066.8 1066.8 0 0 0-28.81 25.95 696.64 696.64 0 0 0-4.41 4.19c2 .37 4.01.76 6.02 1.18 16.6 3.4 33.04 7.97 49.02 12.53 19.53 5.59 39.3 11.6 58.41 19a583.18 583.18 0 0 0-31.63 32.21 765.5 765.5 0 0 0-53.37 66.63c-21.6 30.15-40.02 62.67-56.09 96.17a765.04 765.04 0 0 0-4.5 9.54c2.97-2.38 5.96-4.74 8.97-7.08 26.01-20.17 53.44-38.82 80.82-56.84 38.53-25.35 79.88-46.3 122.78-63.16 51.73-20.32 104.56-40.03 159.04-51.57" fill="currentColor"/></symbol>
<symbol id="logo-shopify" viewBox="0 0 32 32" fill="none"><path transform="scale(.7) translate(5, 5)" d="m20.45 31.97 9.62-2.08-3.5-23.64c-.03-.16-.15-.26-.28-.26l-2.57-.18s-1.7-1.7-1.92-1.88a.41.41 0 0 0-.16-.1l-1.22 28.14zm-4.83-16.9s-1.09-.56-2.37-.56c-1.93 0-2 1.2-2 1.52 0 1.64 4.31 2.29 4.31 6.17 0 3.06-1.92 5.01-4.54 5.01-3.14 0-4.72-1.95-4.72-1.95l.86-2.78s1.66 1.42 3.04 1.42c.9 0 1.3-.72 1.3-1.24 0-2.16-3.54-2.26-3.54-5.81-.04-2.98 2.1-5.9 6.44-5.9 1.68 0 2.5.49 2.5.49l-1.26 3.62zM14.9 1.1c.17 0 .36.06.53.19-1.31.62-2.75 2.18-3.34 5.32-.88.28-1.73.54-2.52.77.69-2.38 2.36-6.26 5.33-6.26zm1.64 3.94v.18l-3.2.98c.63-2.37 1.79-3.53 2.79-3.96.26.67.41 1.57.41 2.8zm.72-2.98c.92.1 1.52 1.15 1.9 2.34-.46.15-.98.3-1.54.49v-.34c0-1-.13-1.82-.36-2.5zm3.99 1.72-.1.03c-.03 0-.39.1-.96.28-.56-1.65-1.56-3.16-3.34-3.16h-.16C16.2.28 15.56 0 15.02 0 10.88 0 8.9 5.17 8.28 7.8c-1.6.48-2.75.84-2.88.9-.9.28-.93.3-1.03 1.15-.1.62-2.44 18.75-2.44 18.75L20.01 32z" fill="currentColor"/></symbol>
<symbol id="logo-thunderhub" viewBox="0 0 24 24" fill="none"><g stroke="currentColor" stroke-width="2" stroke-linecap="round" stroke-linejoin="round"><rect x="4" y="4" width="16" height="16" rx="2" ry="2"/><rect x="9" y="9" width="6" height="6"/><line x1="9" y1="1" x2="9" y2="4"/><line x1="15" y1="1" x2="15" y2="4"/><line x1="9" y1="20" x2="9" y2="23"/><line x1="15" y1="20" x2="15" y2="23"/><line x1="20" y1="9" x2="23" y2="9"/><line x1="20" y1="14" x2="23" y2="14"/><line x1="1" y1="9" x2="4" y2="9"/><line x1="1" y1="14" x2="4" y2="14"/></g></symbol>
<symbol id="logo-tor" viewBox="0 0 61 91" fill="none"><g fill="currentColor"><path d="m34.9 6.8-2.4 9.6C35.9 9.6 41.4 4.5 47.7 0c-4.6 5.3-8.8 10.6-11.3 16C40.7 9.9 46.5 6.6 53 4.3 44.3 12 37.4 20.4 32.2 28.7L28 26.9c.7-6.7 3.2-13.5 6.9-20.1z"/><path d="m31.7 28.3 2.9 1.5c-.3 1.9.1 6.1 2 7.1 8.4 5.2 16.2 10.8 19.3 16.5 11 19.9-7.7 38.4-24 36.6 8.8-6.5 11.4-19.9 8.1-34.6-1.3-5.7-3.4-10.9-7.1-16.8-1.6-2.7-1-6.3-1.2-10.3zM28.5 37.8c-.6 3.1-1.3 8.7-4 10.8-1.1.8-2.3 1.6-3.5 2.4-4.9 3.3-9.7 6.4-11.9 14.3-.5 1.7-.1 3.5.3 5.2 1.2 4.9 4.6 10.1 7.3 13.2 0 .1.5.5.5.6 2.2 2.6 2.9 3.4 11.3 5.3l-.2.9c-5.1-1.3-9.2-2.6-11.9-5.6 0-.1-.5-.5-.5-.5-2.8-3.2-6.3-8.6-7.5-13.7-.5-2-.9-3.6-.3-5.7 2.3-8.2 7.3-11.5 12.3-14.9 1.1-.7 2.5-1.4 3.6-2.3 2.3-1.5 3.4-6.2 4.5-10z"/><path d="M30.7 50.8c.1 3.5-.3 5.3.6 7.8.5 1.5 2.4 3.5 2.9 5.5.7 2.6 1.5 5.5 1.5 7.3 0 2-.1 5.8-1 9.8-.7 3.3-2.2 6.2-4.8 7.8-2.7-.5-5.8-1.5-7.6-3.1-3.6-3.1-6.7-8.3-7.1-12.8-.3-3.7 3.1-9.2 7.9-11.9 4-2.4 5-5 5.9-9.4-1.2 3.8-2.4 6.9-6.3 9-5.7 3-8.6 7.9-8.3 12.7.4 6.1 2.8 10.2 7.6 13.5 2 1.4 5.8 2.9 8.2 3.3V90c1.8-.3 4.1-3.3 5.3-7.2 1-3.6 1.4-8.1 1.3-11-.1-1.7-.8-5.3-2.2-8.6-.7-1.8-1.9-3.6-2.6-4.9-.9-1.5-.9-4.3-1.3-7.5z"/><path d="M30.1 64.5c.1 2.4 1 5.4 1.4 8.5.3 2.3.2 4.6.1 6.6-.1 2.3-.8 6.5-1.9 8.6-1-.5-1.4-1-2.1-1.8-.8-1.1-1.4-2.3-1.9-3.6-.4-1-.9-2.2-1.1-3.5-.3-2-.2-5.2 2.1-8.4 1.8-2.6 2.2-2.8 2.8-5.7-.8 2.6-1.4 2.9-3.3 5.1-2.1 2.4-2.4 6-2.4 8.9 0 1.2.5 2.6 1 3.8.5 1.3 1 2.7 1.7 3.7 1.1 1.6 2.5 2.6 3.2 2.7v-.1c1.3-1.5 2.1-2.9 2.4-4.4.3-1.8.4-3.5.6-5.6.2-1.8.1-4.1-.4-6.5-.6-3-1.7-6.1-2.2-8.3z"/><path d="M30.5 35c.1 3.5.3 10 1.3 12.6.3.9 2.8 4.7 4.5 9.4 1.2 3.2 1.5 6.2 1.7 7.1.8 3.8-.2 10.3-1.5 16.4-.7 3.3-3 7.4-5.6 9l-.5.9c1.5-.1 5.1-3.6 6.4-8.1 2.2-7.5 3-11 2-19.4-.1-.8-.5-3.6-1.8-6.5-1.9-4.5-4.6-8.8-4.9-9.7-.7-1.4-1.5-7.6-1.6-11.7z"/><path d="M31.7 28.6c-.2 3.6-.2 6.4.4 9.1.7 2.9 4.5 7.1 6.1 11.9 3 9.2 2.2 21.2.1 30.5-.8 3.3-4.6 8.1-8.5 9.6l2.8.7c1.5-.1 5.5-3.8 7.1-8 2.5-6.7 3-14.6 2-23-.1-.8-1.4-8-2.7-11-1.8-4.5-4.7-7.7-5.7-10.5-.8-2.1-1.1-7.7-.6-8.8l-1-.5z"/><path d="M51.7 46.3c-2.9-2.6-6.5-4.8-10.3-6.9-1.7-.9-6.9-5-5.1-10.8l-13.1-5.4-.9.7c4.4 7.9 2.1 12.1-.1 13.5-4.4 3-10.8 6.8-13.9 10.1C2.2 53.8.4 59.8 1 67.6c.6 10.1 7.9 18.5 17.8 21.8 4.3 1.4 8.3 1.6 12.7 1.6 7.1 0 14.5-1.9 19.8-6.3 5.7-4.7 9-11.8 9-19.1 0-7.3-3.1-14.3-8.6-19.3zm-1.9 36.9c-4.9 4-13.7 6.8-18.4 6.6-5.2-.3-10.3-1.1-14.8-3.3C8.7 82.7 3.5 74.4 3.1 67.7 2.4 54 9 50.1 15.1 45.1c3.4-2.8 8.2-4.2 10.9-9.2.5-1.1.8-3.5.2-6-.3-.9-1.5-3.9-2-4.6l9.8 4.3c-1.2 4.5 2.5 9.2 5.5 10.9 3 1.7 7.7 4.9 10.6 7.5 5.1 4.5 7.7 10.9 7.7 17.6 0 6.7-2.8 13.3-8 17.6z"/></g></symbol>
<symbol id="manage-plugins" viewBox="0 0 24 24" fill="none"><path d="M6 7H18" stroke="currentColor" stroke-width="1.5" stroke-linecap="round"/><path d="M6 12H18" stroke="currentColor" stroke-width="1.5" stroke-linecap="round"/><path d="M6 17H14" stroke="currentColor" stroke-width="1.5" stroke-linecap="round"/></symbol>
<symbol id="menu" viewBox="0 0 24 24" fill="none"><path d="M21 17a1 1 0 0 1 .117 1.993L21 19H3a1 1 0 0 1-.117-1.993L3 17h18zm0-6a1 1 0 0 1 .117 1.993L21 13H3a1 1 0 0 1-.117-1.993L3 11h18zm0-6a1 1 0 0 1 .117 1.993L21 7H3a1 1 0 0 1-.117-1.993L3 5h18z" fill="currentColor"/></symbol>
<symbol id="minus" viewBox="0 0 16 16" fill="none"><path d="M14 7H2V9H14V7Z" fill="currentColor"/></symbol>
<symbol id="new-store" viewBox="0 0 32 32" fill="none"><path d="M16 10V22" stroke="currentColor" stroke-width="2" stroke-linecap="round" stroke-linejoin="round"/><path d="M22 16H10" stroke="currentColor" stroke-width="2" stroke-linecap="round" stroke-linejoin="round"/><circle fill="none" cx="16" cy="16" r="15" stroke="currentColor" stroke-width="2"/></symbol>
<symbol id="new-wallet" viewBox="0 0 32 32" fill="none"><path d="M16 10V22" stroke="currentColor" stroke-width="2" stroke-linecap="round" stroke-linejoin="round"/><path d="M22 16H10" stroke="currentColor" stroke-width="2" stroke-linecap="round" stroke-linejoin="round"/><circle fill="none" cx="16" cy="16" r="15" stroke="currentColor" stroke-width="2"/></symbol>
<symbol id="new" viewBox="0 0 24 24" fill="none"><path d="M17 11H13V7C13 6.45 12.55 6 12 6C11.45 6 11 6.45 11 7V11H7C6.45 11 6 11.45 6 12C6 12.55 6.45 13 7 13H11V17C11 17.55 11.45 18 12 18C12.55 18 13 17.55 13 17V13H17C17.55 13 18 12.55 18 12C18 11.45 17.55 11 17 11Z" fill="currentColor"/></symbol>
<symbol id="note" viewBox="0 0 16 16" fill="none"><path d="M14.2 16H1.8C.808 16 0 15.192 0 14.2V1.8C0 .808.808 0 1.8 0h12.4c.992 0 1.8.808 1.8 1.8v12.4c0 .992-.808 1.8-1.8 1.8zM1.8 1.2a.6.6 0 00-.6.6v12.4c0 .33.269.6.6.6h12.4a.6.6 0 00.6-.6V1.8a.6.6 0 00-.6-.6H1.8z" fill="currentColor"/><path d="M12 5.312H4a.6.6 0 010-1.2h8a.6.6 0 110 1.2zM12 8.6H4a.6.6 0 010-1.2h8a.6.6 0 010 1.2zm-4 3.288H4a.6.6 0 110-1.2h4a.6.6 0 010 1.2z" fill="currentColor"/></symbol>
<symbol id="notifications" viewBox="0 0 24 24" fill="none"><path d="M12.1933 0.992188C17.152 0.992188 19.2346 5.35582 19.7305 7.04178C20.3255 9.12442 19.8297 10.017 20.3255 12.893C20.6231 14.7773 21.6148 16.3641 22.4082 17.2567C22.7057 17.5542 22.4082 18.05 22.0115 18.05H13.2842H12.1933H2.07762C1.68092 18.05 1.3834 17.5542 1.68092 17.2567C2.37514 16.3641 3.46605 14.7773 3.76357 12.893C4.16026 10.017 3.76357 9.12442 4.35861 7.04178C4.85448 5.35582 7.03629 0.992188 12.1933 0.992188Z" fill="none" stroke="currentColor" stroke-width="1.5" stroke-miterlimit="10"/><path d="M16.2595 18.0488C16.2595 18.2472 16.3586 18.5447 16.3586 18.743C16.3586 21.1232 14.4743 23.0075 12.0942 23.0075C9.71401 23.0075 7.82971 21.1232 7.82971 18.743C7.82971 18.5447 7.82971 18.3463 7.82971 18.148" fill="none" stroke="currentColor" stroke-width="1.5" stroke-miterlimit="10"/></symbol>
<symbol id="notifications-invoice-failure" viewBox="0 0 24 24" fill="none"><path d="M3.51481 20.4858C2.40048 19.3715 1.51654 18.0486 0.913469 16.5926C0.310397 15.1367 1.17414e-08 13.5762 0 12.0003C-1.17414e-08 10.4244 0.310397 8.86393 0.913469 7.40799C1.51654 5.95204 2.40048 4.62914 3.51481 3.51481C4.62914 2.40048 5.95204 1.51654 7.40799 0.913469C8.86393 0.310397 10.4244 -1.17414e-08 12.0003 0C13.5762 1.17414e-08 15.1367 0.310397 16.5926 0.913469C18.0486 1.51654 19.3715 2.40048 20.4858 3.51481C22.7363 5.7653 24.0006 8.81763 24.0006 12.0003C24.0006 15.183 22.7363 18.2353 20.4858 20.4858C18.2353 22.7363 15.183 24.0006 12.0003 24.0006C8.81763 24.0006 5.7653 22.7363 3.51481 20.4858ZM9.04531 7.45531C8.83205 7.25659 8.54998 7.1484 8.25852 7.15355C7.96707 7.15869 7.689 7.27676 7.48288 7.48288C7.27676 7.689 7.15869 7.96707 7.15355 8.25852C7.1484 8.54998 7.25659 8.83205 7.45531 9.04531L10.4103 12.0003L7.45531 14.9553C7.34478 15.0583 7.25613 15.1825 7.19464 15.3205C7.13315 15.4585 7.10009 15.6075 7.09742 15.7585C7.09476 15.9096 7.12254 16.0596 7.17912 16.1997C7.23571 16.3398 7.31992 16.467 7.42675 16.5739C7.53358 16.6807 7.66083 16.7649 7.80091 16.8215C7.94099 16.8781 8.09104 16.9059 8.24209 16.9032C8.39315 16.9005 8.54212 16.8675 8.68012 16.806C8.81812 16.7445 8.94232 16.6558 9.04531 16.5453L12.0003 13.5903L14.9553 16.5453C15.0583 16.6558 15.1825 16.7445 15.3205 16.806C15.4585 16.8675 15.6075 16.9005 15.7585 16.9032C15.9096 16.9059 16.0596 16.8781 16.1997 16.8215C16.3398 16.7649 16.467 16.6807 16.5739 16.5739C16.6807 16.467 16.7649 16.3398 16.8215 16.1997C16.8781 16.0596 16.9059 15.9096 16.9032 15.7585C16.9005 15.6075 16.8675 15.4585 16.806 15.3205C16.7445 15.1825 16.6558 15.0583 16.5453 14.9553L13.5903 12.0003L16.5453 9.04531C16.6558 8.94232 16.7445 8.81812 16.806 8.68012C16.8675 8.54212 16.9005 8.39315 16.9032 8.24209C16.9059 8.09104 16.8781 7.94099 16.8215 7.80091C16.7649 7.66083 16.6807 7.53358 16.5739 7.42675C16.467 7.31992 16.3398 7.23571 16.1997 7.17912C16.0596 7.12254 15.9096 7.09476 15.7585 7.09742C15.6075 7.10009 15.4585 7.13315 15.3205 7.19464C15.1825 7.25613 15.0583 7.34478 14.9553 7.45531L12.0003 10.4103L9.04531 7.45531Z" fill="#E11900"/></symbol>
<symbol id="notifications-invoice-settled" viewBox="0 0 24 24" fill="none"><circle cx="12" cy="12" r="12" fill="#51B13E"/><path d="m7 12.14 3.55 3.54L17.5 9" stroke="#fff" stroke-width="2" stroke-linecap="round" stroke-linejoin="round"/></symbol>
<symbol id="notifications-new-version" viewBox="0 0 24 24" fill="none"><path d="M11.0697 2.35872C11.4027 1.51457 12.5973 1.51457 12.9303 2.35872L15.2348 8.20186C15.3364 8.45958 15.5404 8.66359 15.7981 8.76523L21.6413 11.0697C22.4854 11.4027 22.4854 12.5973 21.6413 12.9303L15.7981 15.2348C15.5404 15.3364 15.3364 15.5404 15.2348 15.7981L12.9303 21.6413C12.5973 22.4854 11.4027 22.4854 11.0697 21.6413L8.76523 15.7981C8.66359 15.5404 8.45958 15.3364 8.20186 15.2348L2.35872 12.9303C1.51457 12.5973 1.51457 11.4027 2.35872 11.0697L8.20186 8.76523C8.45958 8.66359 8.66359 8.45958 8.76523 8.20186L11.0697 2.35872Z" fill="#1F6FEB"/></symbol>
<symbol id="notifications-payout-approved" viewBox="0 0 24 24" fill="none"><path d="M12 -1.04907e-06C5.37259 -1.62846e-06 1.62846e-06 5.37258 1.04907e-06 12C4.69686e-07 18.6274 5.37258 24 12 24C18.6274 24 24 18.6274 24 12C24 5.37258 18.6274 -4.69686e-07 12 -1.04907e-06Z" fill="#51B13E"/><path d="M15.25 8.75037L8.75 15.25" stroke="white" stroke-width="2.25" stroke-miterlimit="10" stroke-linecap="round" stroke-linejoin="round"/><path d="M15.25 13.5L15.25 8.75027L10.1851 8.75027" stroke="white" stroke-width="2.25" stroke-miterlimit="10" stroke-linecap="round" stroke-linejoin="round"/></symbol>
<symbol id="notifications-payout" viewBox="0 0 24 24" fill="none"><path d="M12 -1.04907e-06C5.37259 -1.62846e-06 1.62846e-06 5.37258 1.04907e-06 12C4.69686e-07 18.6274 5.37258 24 12 24C18.6274 24 24 18.6274 24 12C24 5.37258 18.6274 -4.69686e-07 12 -1.04907e-06Z" fill="#1F6FEB"/><path d="M15.25 8.75037L8.75 15.25" stroke="white" stroke-width="2.25" stroke-miterlimit="10" stroke-linecap="round" stroke-linejoin="round"/><path d="M15.25 13.5L15.25 8.75027L10.1851 8.75027" stroke="white" stroke-width="2.25" stroke-miterlimit="10" stroke-linecap="round" stroke-linejoin="round"/></symbol>
<symbol id="onion" viewBox="0 0 61 91" fill="none"><g fill="currentColor"><path d="m34.9 6.8-2.4 9.6C35.9 9.6 41.4 4.5 47.7 0c-4.6 5.3-8.8 10.6-11.3 16C40.7 9.9 46.5 6.6 53 4.3 44.3 12 37.4 20.4 32.2 28.7L28 26.9c.7-6.7 3.2-13.5 6.9-20.1z"/><path d="m31.7 28.3 2.9 1.5c-.3 1.9.1 6.1 2 7.1 8.4 5.2 16.2 10.8 19.3 16.5 11 19.9-7.7 38.4-24 36.6 8.8-6.5 11.4-19.9 8.1-34.6-1.3-5.7-3.4-10.9-7.1-16.8-1.6-2.7-1-6.3-1.2-10.3zM28.5 37.8c-.6 3.1-1.3 8.7-4 10.8-1.1.8-2.3 1.6-3.5 2.4-4.9 3.3-9.7 6.4-11.9 14.3-.5 1.7-.1 3.5.3 5.2 1.2 4.9 4.6 10.1 7.3 13.2 0 .1.5.5.5.6 2.2 2.6 2.9 3.4 11.3 5.3l-.2.9c-5.1-1.3-9.2-2.6-11.9-5.6 0-.1-.5-.5-.5-.5-2.8-3.2-6.3-8.6-7.5-13.7-.5-2-.9-3.6-.3-5.7 2.3-8.2 7.3-11.5 12.3-14.9 1.1-.7 2.5-1.4 3.6-2.3 2.3-1.5 3.4-6.2 4.5-10z"/><path d="M30.7 50.8c.1 3.5-.3 5.3.6 7.8.5 1.5 2.4 3.5 2.9 5.5.7 2.6 1.5 5.5 1.5 7.3 0 2-.1 5.8-1 9.8-.7 3.3-2.2 6.2-4.8 7.8-2.7-.5-5.8-1.5-7.6-3.1-3.6-3.1-6.7-8.3-7.1-12.8-.3-3.7 3.1-9.2 7.9-11.9 4-2.4 5-5 5.9-9.4-1.2 3.8-2.4 6.9-6.3 9-5.7 3-8.6 7.9-8.3 12.7.4 6.1 2.8 10.2 7.6 13.5 2 1.4 5.8 2.9 8.2 3.3V90c1.8-.3 4.1-3.3 5.3-7.2 1-3.6 1.4-8.1 1.3-11-.1-1.7-.8-5.3-2.2-8.6-.7-1.8-1.9-3.6-2.6-4.9-.9-1.5-.9-4.3-1.3-7.5z"/><path d="M30.1 64.5c.1 2.4 1 5.4 1.4 8.5.3 2.3.2 4.6.1 6.6-.1 2.3-.8 6.5-1.9 8.6-1-.5-1.4-1-2.1-1.8-.8-1.1-1.4-2.3-1.9-3.6-.4-1-.9-2.2-1.1-3.5-.3-2-.2-5.2 2.1-8.4 1.8-2.6 2.2-2.8 2.8-5.7-.8 2.6-1.4 2.9-3.3 5.1-2.1 2.4-2.4 6-2.4 8.9 0 1.2.5 2.6 1 3.8.5 1.3 1 2.7 1.7 3.7 1.1 1.6 2.5 2.6 3.2 2.7v-.1c1.3-1.5 2.1-2.9 2.4-4.4.3-1.8.4-3.5.6-5.6.2-1.8.1-4.1-.4-6.5-.6-3-1.7-6.1-2.2-8.3z"/><path d="M30.5 35c.1 3.5.3 10 1.3 12.6.3.9 2.8 4.7 4.5 9.4 1.2 3.2 1.5 6.2 1.7 7.1.8 3.8-.2 10.3-1.5 16.4-.7 3.3-3 7.4-5.6 9l-.5.9c1.5-.1 5.1-3.6 6.4-8.1 2.2-7.5 3-11 2-19.4-.1-.8-.5-3.6-1.8-6.5-1.9-4.5-4.6-8.8-4.9-9.7-.7-1.4-1.5-7.6-1.6-11.7z"/><path d="M31.7 28.6c-.2 3.6-.2 6.4.4 9.1.7 2.9 4.5 7.1 6.1 11.9 3 9.2 2.2 21.2.1 30.5-.8 3.3-4.6 8.1-8.5 9.6l2.8.7c1.5-.1 5.5-3.8 7.1-8 2.5-6.7 3-14.6 2-23-.1-.8-1.4-8-2.7-11-1.8-4.5-4.7-7.7-5.7-10.5-.8-2.1-1.1-7.7-.6-8.8l-1-.5z"/><path d="M51.7 46.3c-2.9-2.6-6.5-4.8-10.3-6.9-1.7-.9-6.9-5-5.1-10.8l-13.1-5.4-.9.7c4.4 7.9 2.1 12.1-.1 13.5-4.4 3-10.8 6.8-13.9 10.1C2.2 53.8.4 59.8 1 67.6c.6 10.1 7.9 18.5 17.8 21.8 4.3 1.4 8.3 1.6 12.7 1.6 7.1 0 14.5-1.9 19.8-6.3 5.7-4.7 9-11.8 9-19.1 0-7.3-3.1-14.3-8.6-19.3zm-1.9 36.9c-4.9 4-13.7 6.8-18.4 6.6-5.2-.3-10.3-1.1-14.8-3.3C8.7 82.7 3.5 74.4 3.1 67.7 2.4 54 9 50.1 15.1 45.1c3.4-2.8 8.2-4.2 10.9-9.2.5-1.1.8-3.5.2-6-.3-.9-1.5-3.9-2-4.6l9.8 4.3c-1.2 4.5 2.5 9.2 5.5 10.9 3 1.7 7.7 4.9 10.6 7.5 5.1 4.5 7.7 10.9 7.7 17.6 0 6.7-2.8 13.3-8 17.6z"/></g></symbol>
<symbol id="pay-button" viewBox="0 0 24 24" fill="none"><path d="M8.30766 4.61523H15.6923C17.723 4.61523 19.3846 6.27677 19.3846 8.30754V15.6922C19.3846 17.7229 17.723 19.3845 15.6923 19.3845H8.30766C6.27689 19.3845 4.61536 17.7229 4.61536 15.6922V8.30754C4.61536 6.27677 6.27689 4.61523 8.30766 4.61523Z" fill="none" stroke="currentColor" stroke-width="1.5" stroke-miterlimit="10"/><path d="M12 15.0777C13.6994 15.0777 15.0769 13.7001 15.0769 12.0008C15.0769 10.3014 13.6994 8.92383 12 8.92383C10.3007 8.92383 8.9231 10.3014 8.9231 12.0008C8.9231 13.7001 10.3007 15.0777 12 15.0777Z" fill="none" stroke="currentColor" stroke-width="1.5" stroke-miterlimit="10" stroke-linecap="round" stroke-linejoin="round"/></symbol>
<symbol id="payment-complete" viewBox="0 0 48 48" fill="none"><path d="M47 24a22.5 22.5 0 1 1-45 0 22.5 22.5 0 0 1 45 0Z" stroke="currentColor" stroke-width="3"/><path d="m15.23 24.8 7.1 7.1 12.8-12.8" stroke="currentColor" stroke-width="3" stroke-linecap="round" stroke-linejoin="round"/></symbol>
<symbol id="payment-requests" viewBox="0 0 24 24" fill="none"><path d="M12 19.3845C16.0784 19.3845 19.3846 16.0783 19.3846 11.9999C19.3846 7.92144 16.0784 4.61523 12 4.61523C7.92156 4.61523 4.61536 7.92144 4.61536 11.9999C4.61536 16.0783 7.92156 19.3845 12 19.3845Z" fill="none" stroke="currentColor" stroke-width="1.5" stroke-miterlimit="10"/><path d="M9.53845 14.216L14.2769 9.41602" fill="none" stroke="currentColor" stroke-width="1.5" stroke-miterlimit="10" stroke-linecap="round" stroke-linejoin="round"/><path d="M9.53845 10.707V14.2147H13.2308" fill="none" stroke="currentColor" stroke-width="1.5" stroke-miterlimit="10" stroke-linecap="round" stroke-linejoin="round"/></symbol>
<symbol id="payment-sent" viewBox="0 0 48 48" fill="none"><circle cx="24" cy="24" r="22.5" stroke="currentColor" stroke-width="3"/><path d="M24 16v16m5.71-10.29L24 16l-6.29 6.29" stroke="currentColor" stroke-width="3" stroke-miterlimit="10" stroke-linecap="round" stroke-linejoin="round"/></symbol>
<symbol id="payouts" viewBox="0 0 24 24" fill="none"><path d="M8.30766 4.61523H15.6923C17.723 4.61523 19.3846 6.27677 19.3846 8.30754V15.6922C19.3846 17.7229 17.723 19.3845 15.6923 19.3845H8.30766C6.27689 19.3845 4.61536 17.7229 4.61536 15.6922V8.30754C4.61536 6.27677 6.27689 4.61523 8.30766 4.61523Z" fill="none" stroke="currentColor" stroke-width="1.5" stroke-miterlimit="10"/><path d="M8.30774 8.92383H15.6924" fill="none" stroke="currentColor" stroke-width="1.5" stroke-miterlimit="10" stroke-linecap="round" stroke-linejoin="round"/><path d="M8.30774 12H15.6924" fill="none" stroke="currentColor" stroke-width="1.5" stroke-miterlimit="10" stroke-linecap="round" stroke-linejoin="round"/><path d="M8.30774 15.0156H12" fill="none" stroke="currentColor" stroke-width="1.5" stroke-miterlimit="10" stroke-linecap="round" stroke-linejoin="round"/></symbol>
<symbol id="plugin" viewBox="0 0 24 24" fill="none"><path d="M12.0002 10.2354L4.73633 7.38747M12.0002 10.2354L19.2642 7.38747M12.0002 10.2354V19.5M5.21166 7.01614L11.2783 4.6375C11.7412 4.45417 12.2566 4.45417 12.7196 4.6375L18.7862 7.01614C19.0023 7.1083 19.1858 7.26312 19.3131 7.46062C19.4404 7.65812 19.5055 7.88923 19.5002 8.12413V15.876C19.5058 16.1106 19.441 16.3415 19.3142 16.539C19.1874 16.7365 19.0045 16.8915 18.7888 16.984L12.7222 19.3633C12.259 19.5453 11.7441 19.5453 11.2809 19.3633L5.21433 16.984C4.9982 16.8919 4.81466 16.737 4.68739 16.5395C4.56012 16.342 4.49496 16.1109 4.50033 15.876V8.12413C4.49475 7.88953 4.55951 7.65864 4.68628 7.46117C4.81305 7.26371 4.99603 7.10871 5.21166 7.01614Z" stroke="currentColor" stroke-width="1.5" stroke-linecap="round" stroke-linejoin="round"/></symbol>
<symbol id="plus" viewBox="0 0 16 16" fill="none"><path d="M14 7.18182H8.81818V2H7.18182V7.18182H2V8.81818H7.18182V14H8.81818V8.81818H14V7.18182Z" fill="currentColor"/></symbol>
<symbol id="pointofsale" viewBox="0 0 24 24" fill="none"><path d="M16.88 19.4303H7.12002C6.79748 19.4322 6.47817 19.3659 6.18309 19.2356C5.88802 19.1054 5.62385 18.9141 5.40795 18.6745C5.19206 18.4349 5.02933 18.1522 4.93046 17.8452C4.83159 17.5382 4.79882 17.2137 4.83431 16.8931L5.60002 10.1617C5.6311 9.88087 5.76509 9.62152 5.97615 9.43368C6.1872 9.24584 6.46035 9.14284 6.74288 9.14455H17.2572C17.5397 9.14284 17.8129 9.24584 18.0239 9.43368C18.235 9.62152 18.369 9.88087 18.4 10.1617L19.1429 16.8931C19.1782 17.2118 19.146 17.5343 19.0485 17.8398C18.951 18.1452 18.7903 18.4267 18.5769 18.666C18.3634 18.9053 18.1021 19.097 17.8097 19.2286C17.5174 19.3603 17.2006 19.429 16.88 19.4303Z" fill="none" stroke="currentColor" stroke-width="1.5" stroke-linecap="round" stroke-linejoin="round"/><path d="M7.42859 9.14369C7.42859 7.93128 7.91022 6.76852 8.76753 5.91121C9.62484 5.0539 10.7876 4.57227 12 4.57227C13.2124 4.57227 14.3752 5.0539 15.2325 5.91121C16.0898 6.76852 16.5714 7.93128 16.5714 9.14369" fill="none" stroke="currentColor" stroke-width="1.5" stroke-linecap="round" stroke-linejoin="round"/><path d="M9.14282 12.5723H14.8571" fill="none" stroke="currentColor" stroke-width="1.5" stroke-linecap="round" stroke-linejoin="round"/></symbol>
<symbol id="pos-cart" viewBox="0 0 24 24" fill="none"><path d="M16.88 19.426H7.12a2.286 2.286 0 0 1-2.286-2.537l.766-6.731A1.143 1.143 0 0 1 6.743 9.14h10.514a1.143 1.143 0 0 1 1.143 1.017l.743 6.731a2.286 2.286 0 0 1-2.263 2.537Z" stroke="currentColor" stroke-width="1.5" stroke-linecap="round" stroke-linejoin="round"/><path d="M7.43 9.142a4.571 4.571 0 1 1 9.143 0M9.14 12.57h5.715" stroke="currentColor" stroke-width="1.5" stroke-linecap="round" stroke-linejoin="round"/></symbol>
<symbol id="pos-light" viewBox="0 0 24 24" fill="none"><path d="M8 4h8c2.2 0 4 1.8 4 4v8c0 2.2-1.8 4-4 4H8c-2.2 0-4-1.8-4-4V8c0-2.2 1.8-4 4-4Z" stroke="currentColor" stroke-width="1.5" stroke-miterlimit="10"/><path d="M8 13h8M8 16.25h8" stroke="currentColor" stroke-width="1.5" stroke-miterlimit="10" stroke-linecap="round" stroke-linejoin="round"/><rect x="7" y="7" width="10" height="3.5" rx="1" fill="currentColor"/></symbol>
<symbol id="pos-print" viewBox="0 0 24 24" fill="none"><path d="M5 6v13.543l2.333-.914L9.667 20 12 18.629 14.333 20l2.334-1.371 2.333.914V6a2 2 0 0 0-2-2H7a2 2 0 0 0-2 2Z" stroke="currentColor" stroke-width="1.6"/><path d="M8.5 8h7M8.5 11.5h7M8.5 15h4" stroke="currentColor" stroke-width="1.5" stroke-linecap="round"/></symbol>
<symbol id="pos-static" viewBox="0 0 24 24" fill="none"><path d="M19.05 10.266v6.265a2.244 2.244 0 0 1-2.238 2.238H7.246a2.244 2.244 0 0 1-2.238-2.238v-6.265" stroke="currentColor" stroke-width="1.5" stroke-miterlimit="10"/><path d="M9.455 5.262v3.833c0 1.174-.951 2.153-2.126 2.153h-.42a2.613 2.613 0 0 1-2.405-3.664l.56-1.315A1.702 1.702 0 0 1 6.63 5.234l2.825.028ZM14.547 5.258V9.09c0 1.175.95 2.154 2.126 2.154h.42c1.901 0 3.16-1.93 2.405-3.665l-.56-1.314a1.721 1.721 0 0 0-1.566-1.007h-2.825ZM12.002 11.499A2.525 2.525 0 0 1 9.484 8.98V5.29h5.063v3.692c0 1.399-1.147 2.518-2.545 2.518Z" stroke="currentColor" stroke-width="1.5" stroke-miterlimit="10"/></symbol>
<symbol id="pull-payments" viewBox="0 0 24 24" fill="none"><path d="M12 20a8 8 0 1 1 0-16 8 8 0 0 1 0 16Zm0-15.19a7.2 7.2 0 0 0 0 14.38A7.2 7.2 0 0 0 12 4.8Z" fill="currentColor" stroke="currentColor" stroke-width=".6"/><path d="M9.48 14.85a.44.44 0 0 1-.3-.14c-.14-.16-.14-.43.05-.57l5.02-4.31c.16-.14.43-.14.57.05.14.17.14.44-.05.57l-5.05 4.29c-.05.08-.16.1-.24.1Z" fill="currentColor" stroke="currentColor" stroke-width=".6"/><path d="M14.39 14.28a.4.4 0 0 1-.41-.4l.1-3.42-3.08-.17a.4.4 0 0 1-.38-.43c0-.22.19-.4.43-.38l3.47.19c.22 0 .38.19.38.4l-.13 3.83c.02.19-.17.38-.38.38Z" fill="currentColor" stroke="currentColor" stroke-width=".6"/></symbol>
<symbol id="refresh" viewBox="0 0 24 24" fill="none"><g fill="none" stroke="currentColor" stroke-width="2" stroke-linecap="round" stroke-linejoin="round"><polyline points="23 4 23 10 17 10"/><polyline points="1 20 1 14 7 14"/><path d="M3.51 9a9 9 0 0 1 14.85-3.36L23 10M1 14l4.64 4.36A9 9 0 0 0 20.49 15"/></g></symbol>
<symbol id="remove" viewBox="0 0 24 24" fill="none"><path d="M17 11H13V7C13 6.45 12.55 6 12 6C11.45 6 11 6.45 11 7V11H7C6.45 11 6 11.45 6 12C6 12.55 6.45 13 7 13H11V17C11 17.55 11.45 18 12 18C12.55 18 13 17.55 13 17V13H17C17.55 13 18 12.55 18 12C18 11.45 17.55 11 17 11Z" fill="currentColor" transform="rotate(45 12 12)"/></symbol>
<symbol id="scan-qr" viewBox="0 0 32 32" fill="none"><path d="M20 .875h10c.621 0 1.125.504 1.125 1.125v10m0 8v10c0 .621-.504 1.125-1.125 1.125H20m-8 0H2A1.125 1.125 0 01.875 30V20m0-8V2C.875 1.379 1.379.875 2 .875h10" stroke="currentColor" stroke-width="1.75" fill="none" fill-rule="evenodd"/></symbol>
<symbol id="search" viewBox="0 0 24 24" fill="none"><circle cx="11.5" cy="11.75" r="6.25" stroke="currentColor" stroke-width="1.5"/><path d="M16.5 16.25L19.5 19.25" stroke="currentColor" stroke-width="1.5" stroke-linecap="round"/></symbol>
<symbol id="seed" viewBox="0 0 32 32" fill="none"><rect x="0.875" y="2.875" width="30.25" height="26.25" rx="1.125" fill="none" stroke="currentColor" stroke-width="1.75"/><rect x="5" y="7" width="9" height="4" rx="0.5" fill="currentColor"/><rect x="5" y="14" width="9" height="4" rx="0.5" fill="currentColor"/><rect x="18" y="7" width="9" height="4" rx="0.5" fill="currentColor"/><rect x="18" y="14" width="9" height="4" rx="0.5" fill="currentColor"/><rect x="5" y="21" width="9" height="4" rx="0.5" fill="currentColor"/><rect x="18" y="21" width="9" height="4" rx="0.5" fill="currentColor"/></symbol>
<symbol id="send" viewBox="0 0 24 24" fill="none"><path d="M12.53 8.97C12.3894 8.82955 12.1988 8.75066 12 8.75066C11.8012 8.75066 11.6106 8.82955 11.47 8.97L7.72 12.72C7.58752 12.8622 7.5154 13.0502 7.51882 13.2445C7.52225 13.4388 7.60097 13.6242 7.73838 13.7616C7.87579 13.899 8.06118 13.9777 8.25548 13.9812C8.44978 13.9846 8.63783 13.9125 8.78 13.78L11.25 11.31V18C11.25 18.1989 11.329 18.3897 11.4697 18.5303C11.6103 18.671 11.8011 18.75 12 18.75C12.1989 18.75 12.3897 18.671 12.5303 18.5303C12.671 18.3897 12.75 18.1989 12.75 18V11.31L15.22 13.78C15.3622 13.9125 15.5502 13.9846 15.7445 13.9812C15.9388 13.9777 16.1242 13.899 16.2616 13.7616C16.399 13.6242 16.4777 13.4388 16.4812 13.2445C16.4846 13.0502 16.4125 12.8622 16.28 12.72L12.53 8.97ZM16.25 6.75C16.4489 6.75 16.6397 6.67098 16.7803 6.53033C16.921 6.38968 17 6.19891 17 6C17 5.80109 16.921 5.61032 16.7803 5.46967C16.6397 5.32902 16.4489 5.25 16.25 5.25L7.75 5.25C7.55109 5.25 7.36032 5.32902 7.21967 5.46967C7.07902 5.61032 7 5.80109 7 6C7 6.19891 7.07902 6.38968 7.21967 6.53033C7.36032 6.67098 7.55109 6.75 7.75 6.75L16.25 6.75Z" fill="currentColor"/></symbol>
<symbol id="server-settings" viewBox="0 0 24 24" fill="none"><rect x="4.75" y="4.75" width="14.5" height="14.5" rx="3.25" stroke="currentColor" stroke-width="1.5" fill="none"/><path d="m8 8 1.6 1.6L8 11.2" stroke="currentColor" stroke-width="1.25" stroke-linecap="round" stroke-linejoin="round"/></symbol>
<symbol id="settings" viewBox="0 0 24 24" fill="none"><path d="M9.81672 6.15385L10.3459 4.78769C10.4352 4.55639 10.5922 4.35743 10.7965 4.21688C11.0007 4.07632 11.2426 4.00073 11.4906 4H12.4998C12.7477 4.00073 12.9896 4.07632 13.1939 4.21688C13.3981 4.35743 13.5552 4.55639 13.6444 4.78769L14.1736 6.15385L15.9706 7.18769L17.4229 6.96615C17.6647 6.93333 17.9108 6.97314 18.13 7.08052C18.3491 7.1879 18.5314 7.35801 18.6536 7.56923L19.1459 8.43077C19.2721 8.64535 19.3302 8.89314 19.3126 9.14144C19.2951 9.38974 19.2026 9.62687 19.0475 9.82154L18.149 10.9662V13.0338L19.0721 14.1785C19.2272 14.3731 19.3197 14.6103 19.3373 14.8586C19.3548 15.1069 19.2967 15.3546 19.1706 15.5692L18.6783 16.4308C18.556 16.642 18.3737 16.8121 18.1546 16.9195C17.9354 17.0269 17.6893 17.0667 17.4475 17.0338L15.9952 16.8123L14.1983 17.8462L13.669 19.2123C13.5798 19.4436 13.4227 19.6426 13.2185 19.7831C13.0143 19.9237 12.7723 19.9993 12.5244 20H11.4906C11.2426 19.9993 11.0007 19.9237 10.7965 19.7831C10.5922 19.6426 10.4352 19.4436 10.3459 19.2123L9.81672 17.8462L8.01979 16.8123L6.56749 17.0338C6.32566 17.0667 6.07954 17.0269 5.86039 16.9195C5.64124 16.8121 5.45896 16.642 5.33672 16.4308L4.84441 15.5692C4.71826 15.3546 4.66013 15.1069 4.67771 14.8586C4.69529 14.6103 4.78774 14.3731 4.94287 14.1785L5.84133 13.0338V10.9662L4.91826 9.82154C4.76313 9.62687 4.67068 9.38974 4.6531 9.14144C4.63552 8.89314 4.69364 8.64535 4.81979 8.43077L5.3121 7.56923C5.43435 7.35801 5.61662 7.1879 5.83577 7.08052C6.05492 6.97314 6.30105 6.93333 6.54287 6.96615L7.99518 7.18769L9.81672 6.15385ZM9.53364 12C9.53364 12.4868 9.67801 12.9628 9.94848 13.3676C10.219 13.7724 10.6034 14.0879 11.0532 14.2742C11.503 14.4605 11.9979 14.5092 12.4754 14.4142C12.9529 14.3193 13.3915 14.0848 13.7357 13.7406C14.08 13.3963 14.3144 12.9577 14.4094 12.4802C14.5044 12.0027 14.4557 11.5078 14.2693 11.058C14.083 10.6082 13.7675 10.2238 13.3627 9.95331C12.9579 9.68283 12.482 9.53846 11.9952 9.53846C11.3423 9.53846 10.7162 9.7978 10.2546 10.2594C9.79298 10.7211 9.53364 11.3472 9.53364 12V12Z" fill="none" stroke="currentColor" stroke-width="1.5" stroke-linecap="round" stroke-linejoin="round"/></symbol>
<symbol id="social-github" viewBox="0 0 25 24" fill="none"><path clip-rule="evenodd" d="M12.75.3c-6.6 0-12 5.4-12 12 0 5.325 3.45 9.825 8.175 11.4.6.075.825-.225.825-.6v-2.025C6.375 21.825 5.7 19.5 5.7 19.5c-.525-1.35-1.35-1.725-1.35-1.725-1.125-.75.075-.75.075-.75 1.2.075 1.875 1.2 1.875 1.2 1.05 1.8 2.775 1.275 3.525.975a2.59 2.59 0 0 1 .75-1.575c-2.7-.3-5.475-1.35-5.475-5.925 0-1.275.45-2.4 1.2-3.225-.15-.3-.525-1.5.15-3.15 0 0 .975-.3 3.3 1.2.975-.3 1.95-.375 3-.375s2.025.15 3 .375c2.325-1.575 3.3-1.275 3.3-1.275.675 1.65.225 2.85.15 3.15.75.825 1.2 1.875 1.2 3.225 0 4.575-2.775 5.625-5.475 5.925.45.375.825 1.125.825 2.25v3.3c0 .3.225.675.825.6a12.015 12.015 0 0 0 8.175-11.4c0-6.6-5.4-12-12-12z" fill="currentColor" fill-rule="evenodd"/></symbol>
<symbol id="social-mattermost" viewBox="0 0 206 206" fill="none"><path fill="currentColor" d="m163.012 19.596 1.082 21.794c17.667 19.519 24.641 47.161 15.846 73.14-13.129 38.782-56.419 59.169-96.693 45.535-40.272-13.633-62.278-56.124-49.15-94.905 8.825-26.066 31.275-43.822 57.276-48.524L105.422.038C61.592-1.15 20.242 26.056 5.448 69.76c-18.178 53.697 10.616 111.963 64.314 130.142 53.698 18.178 111.964-10.617 130.143-64.315 14.77-43.633-1.474-90.283-36.893-115.99"/><path fill="currentColor" d="m137.097 53.436-.596-17.531-.404-15.189s.084-7.322-.17-9.043a2.776 2.776 0 0 0-.305-.914l-.05-.109-.06-.094a2.378 2.378 0 0 0-1.293-1.07 2.382 2.382 0 0 0-1.714.078l-.033.014-.18.092a2.821 2.821 0 0 0-.75.518c-1.25 1.212-5.63 7.08-5.63 7.08l-9.547 11.82-11.123 13.563-19.098 23.75s-8.763 10.938-6.827 24.4c1.937 13.464 11.946 20.022 19.71 22.65 7.765 2.63 19.7 3.5 29.417-6.019 9.716-9.518 9.397-23.53 9.397-23.53l-.744-30.466z"/></symbol>
<symbol id="social-nostr" viewBox="0 0 533.31 533.31" fill="none"><path d="M266.655 2.542C120.789 2.542 2.542 120.789 2.542 266.655c0 145.866 118.247 264.113 264.113 264.113 145.866 0 264.113-118.247 264.113-264.113 0-145.866-118.247-264.113-264.113-264.113Zm104.01 67.283c2.877.134 5.167 1.168 6.615 2.285 1.93 1.49 5.06 2.73 5.81 4.47.15.74-.6 2.83 3.58 3.58s6.971 1.811 6.971 1.811 6.8 1.87 1.35 3.36c-5.51.89-8.92-.31-10.56.74-1.64 1.05-3.13 4.38-4.17 4.83-1.04.45-3.13.15-5.21 1.79-2.08 1.64-4.171 2.979-5.511 6.259-1.34 3.28-2.379 6.851-1.489 11.621.89 4.77 3.72 13.71 6.26 18.77 2.53 5.07 8.79 17.73 10.58 20.71 1.79 2.98 6.85 12.81 7.3 23.39.45 10.58.45 19.219 0 23.839-.45 4.62-4.71 22.452-15.44 37.352-3.54 6.14-10.091 13.858-10.721 15.218-.63 1.36-1.31 2.12-.7 3.32 2.01 3.93 5.591 9.62 6.391 12.7 1 2.89 3.04 7.01 3.14 12.48h-.04c.1 5.47-5.19 22.37-16.81 35.33-11.62 12.96-24.341 9.06-25.391 8.76-1.05-.3-1.34-1.939-3.43-1.639-2.09.3-4.17 2.68-8.19 3.13-4.02.45-7.6.74-11.32-.6-1.94.3-2.229.31-3.129.97-.9.66-7.75 4.689-9.39 4.989 0 3.13-.6 19.37 0 24.29.6 4.92 1.64 11.171 3.28 15.641 1.64 4.47 1.19 4.619 3.28 4.319 2.09-.3 5.81.15 6.85 1.79 1.04 1.64.599 2.83 2.379 3.58s26.37 7.45 43.21 8.34c11.62.3 18.621 1.19 22.651 8.49.6 3.43 3.28 5.66 4.92 6.11 1.64.45 3.58.892 5.21 2.532 1.63 1.64.45 3.578 2.38 5.068 1.94 1.49 6.41 3.72 11.03 5.96 4.62 2.23 6.559 5.81 6.849 7 .29 1.19.74 4.77.74 4.77s-3.87 0-4.77-.89c-.9-.89-1.189-2.53-1.189-2.53s-2.681.45-3.281 1.49c-.6 1.04.3 1.191-3.43.301-3.73-.89-5.07-1.64-7.9-3.72s-7.15-7.451-10.88-7.301c1.79 3.58 2.53 3.581 4.62 4.771 2.09 1.19 3.58 2.53 3.58 2.53l-3.129 1.94s-1.94.89-6.41-.3c-4.47-1.19-5.07-1.94-5.51-4.62-.44-2.68 0-4.02-1.191-6.26-1.19-2.24-1.79-6.85-9.68-9.24-7.9-2.38-28.91-9.241-43.51-10.731-14.6-1.49-9.83-1.19-12.22-.6-2.39.59-6.849 1.94-11.469-.6-4.62-2.53-7.3-5.958-7.6-8.788-.3-2.83-.74-4.772 0-8.342.74-3.57 1.49-8.64.74-11.62-.75-2.98-6.11-24.289-8.64-27.859-5.66.45-22.05-.3-22.05-.3s-1.04-.301-7.6 2.529-15.85 5.98-20.32 8.66c-4.47 2.68-6.26 4.22-7 5.71.05 1.3-.53 3.35-1.21 3.94-.68.59-5.42 1.051-5.42 1.051s-2.54 2.54-3.58 4.33c-2.98 4.17-23.99 54.38-28.91 65.11-5.89 14.15-4.25 11.92-16.39 11.92s-3.5.13-3.5.13-5.361 2.55-7.301 2.55c-1.94 0-8.189-1.04-11.469 0-3.28 1.04-7.15 4.02-10.13 4.47-2.98.45-2.15-.581-3.64-1.631-1.74-.09-6.2-.049-6.2-.049s.759-2.83 3.439-4.73c3.58-2.53 11.03-7 15.05-9.24 4.02-2.23 7.601-3.43 10.131-4.02 2.53-.6 8.05-2.68 13.26-4.32 5.21-1.64 8.49-3.58 12.96-13.71 4.47-10.13 21.899-48.421 22.349-50.511.28-1.29 1.622-2.809 2.092-6.559.29-2.32-1.082-5.67.738-9.83 4.77-10.88 9.39-8.79 11.47-8.79s7.451.15 11.471-.6c4.02-.74 6.699-1.19 10.729-3.43 4.02-2.23 4.922-3.871 4.922-3.871l-8.641-1.488s-8.05.298-10.88-1.942c-2.83-2.24-6.7-6.85-6.7-6.85l-3.28-3.128.45 3.718s-2.23-3.868-2.83-4.468c-.6-.6-3.72-2.832-4.92-4.922-1.2-2.09-3.28-10.88-3.28-10.88l-2.681 5.661-.738-8.19-2.23 3.13-1.192-7-2.09 3.58-1.488-6.26-2.532 1.94-1.039-4.47-2.531-1.49s-6.108-4.02-7.148-4.17c-1.04-.15-1.942 1.49-1.942 1.49l.6 5.21-5.299-2.721-3.041-5.17s1.02 1.741-4.18 3.271c-8.93 0-9.51-.99-10.83-1.71-.57-2.85-2.42-4.391-2.42-4.391h-8.94l-.15-2.979-3.43 1.34.302-4.47h-6.112l.451-4.92h-3.87s1.34-4.02 11.17-9.98c9.83-5.96 10.88-7.15 20.11-7.45 9.24-.3 14.3 1.19 20.11 3.58 5.81 2.38 16.84 5.96 19.07 7.6 4.92-4.32 12.37-8.641 14.9-8.641.45-1.04 2.69-5.358 7.81-7.648 15.34-6.87 46.99-14.782 57.16-15.452 13.56-.89 3.43-.599 16.99.891 13.56 1.49 23.54 3.28 30.25 5.51 5.46 1.82 10.88 4.17 14.9.89 1.88-.79 5.13-.58 7.75-2.23 13.34-10.9 15.089-14.06 18.959-18.23 3.87-4.17 8.75-10.83 9.8-19.62 1.05-8.79 1.942-25.33-4.618-38.29-6.56-12.96-12.521-19.67-15.051-30.1-2.53-10.43-3.58-26.52-2.68-31.74.9-5.22 2.23-9.68 2.98-13.26s4.32-6.41 8.64-7.15c1.08-.186 2.105-.24 3.064-.196z" fill="currentColor"/></symbol>
<symbol id="social-telegram" viewBox="0 0 496 512" fill="none"><path fill="currentColor" d="M248,8C111.033,8,0,119.033,0,256S111.033,504,248,504,496,392.967,496,256,384.967,8,248,8ZM362.952,176.66c-3.732,39.215-19.881,134.378-28.1,178.3-3.476,18.584-10.322,24.816-16.948,25.425-14.4,1.326-25.338-9.517-39.287-18.661-21.827-14.308-34.158-23.215-55.346-37.177-24.485-16.135-8.612-25,5.342-39.5,3.652-3.793,67.107-61.51,68.335-66.746.153-.655.3-3.1-1.154-4.384s-3.59-.849-5.135-.5q-3.283.746-104.608,69.142-14.845,10.194-26.894,9.934c-8.855-.191-25.888-5.006-38.551-9.123-15.531-5.048-27.875-7.717-26.8-16.291q.84-6.7,18.45-13.7,108.446-47.248,144.628-62.3c68.872-28.647,83.183-33.623,92.511-33.789,2.052-.034,6.639.474,9.61,2.885a10.452,10.452,0,0,1,3.53,6.716A43.765,43.765,0,0,1,362.952,176.66Z"/></symbol>
<symbol id="social-twitter" viewBox="0 0 37 37" fill="none"><path d="M36 18c0 9.945-8.055 18-18 18S0 27.945 0 18 8.055 0 18 0s18 8.055 18 18zm-21.294 9.495c7.983 0 12.348-6.615 12.348-12.348 0-.189 0-.378-.009-.558a8.891 8.891 0 0 0 2.169-2.25 8.808 8.808 0 0 1-2.493.684 4.337 4.337 0 0 0 1.908-2.403 8.788 8.788 0 0 1-2.754 1.053 4.319 4.319 0 0 0-3.168-1.368 4.34 4.34 0 0 0-4.338 4.338c0 .342.036.675.117.99a12.311 12.311 0 0 1-8.946-4.536 4.353 4.353 0 0 0-.585 2.178 4.32 4.32 0 0 0 1.935 3.609 4.263 4.263 0 0 1-1.962-.54v.054a4.345 4.345 0 0 0 3.483 4.257 4.326 4.326 0 0 1-1.962.072 4.333 4.333 0 0 0 4.05 3.015 8.724 8.724 0 0 1-6.426 1.791 12.091 12.091 0 0 0 6.633 1.962z" fill="currentColor"/></symbol>
<symbol id="spark" viewBox="0 0 24 24" fill="none"><path d="M17.57 10.7c-.1-.23-.27-.34-.5-.34h-4.3l.5-3.76a.48.48 0 0 0-.33-.55.52.52 0 0 0-.66.17l-5.45 6.54a.59.59 0 0 0-.05.6c.1.17.27.28.49.28h4.3l-.49 3.76c-.05.22.11.5.33.55.06.05.17.05.22.05a.5.5 0 0 0 .44-.22l5.45-6.54c.1-.17.16-.39.05-.55Z" fill="currentColor"/></symbol>
<symbol id="store" viewBox="0 0 24 24" fill="none"><path d="M19.049 10.2637V16.5294C19.049 17.7602 18.042 18.7672 16.8112 18.7672H7.24478C6.01401 18.7672 5.00702 17.7602 5.00702 16.5294V10.2637" fill="none" stroke="currentColor" stroke-width="1.5" stroke-miterlimit="10"/><path d="M9.45456 5.25649V9.08866C9.45456 10.2635 8.50351 11.2425 7.32868 11.2425H6.9091C5.00701 11.2425 3.74826 9.31243 4.50351 7.57817L5.06295 6.26348C5.34267 5.62012 5.95805 5.22852 6.62938 5.22852L9.45456 5.25649Z" fill="none" stroke="currentColor" stroke-width="1.5" stroke-miterlimit="10"/><path d="M14.5455 5.25781V9.08998C14.5455 10.2648 15.4965 11.2438 16.6713 11.2438H17.0909C18.993 11.2438 20.2518 9.31376 19.4965 7.57949L18.9371 6.26481C18.6574 5.64942 18.042 5.25781 17.3706 5.25781H14.5455Z" fill="none" stroke="currentColor" stroke-width="1.5" stroke-miterlimit="10"/><path d="M12 11.4949C10.6014 11.4949 9.48254 10.3481 9.48254 8.97746V5.28516H14.5455V8.97746C14.5455 10.3761 13.3986 11.4949 12 11.4949Z" fill="none" stroke="currentColor" stroke-width="1.5" stroke-miterlimit="10"/></symbol>
<symbol id="themes-dark" viewBox="0 0 24 24" fill="none"><path d="M8.742 1.825a10.593 10.593 0 0 0-5.23 3.852 10.576 10.576 0 0 0-1.996 6.179c0 5.865 4.756 10.615 10.626 10.615 4.676 0 8.634-3.025 10.042-7.218-1.063.345-2.205.584-3.4.584-5.871 0-10.626-4.75-10.626-10.615 0-1.195.212-2.336.584-3.397z" fill="currentColor"/></symbol>
<symbol id="themes-light" viewBox="0 0 24 24" fill="none"><path d="M12 1c-.77 0-1.375.605-1.375 1.375S11.23 3.75 12 3.75s1.375-.605 1.375-1.375S12.77 1 12 1ZM5.125 3.75c-.77 0-1.375.605-1.375 1.375S4.355 6.5 5.125 6.5 6.5 5.895 6.5 5.125 5.895 3.75 5.125 3.75Zm13.75 0c-.77 0-1.375.605-1.375 1.375S18.105 6.5 18.875 6.5s1.375-.605 1.375-1.375-.605-1.375-1.375-1.375zM12 6.5c-3.025 0-5.5 2.475-5.5 5.5s2.475 5.5 5.5 5.5 5.5-2.475 5.5-5.5-2.475-5.5-5.5-5.5Zm-9.625 4.125C1.605 10.625 1 11.23 1 12s.605 1.375 1.375 1.375S3.75 12.77 3.75 12s-.605-1.375-1.375-1.375zm19.25 0c-.77 0-1.375.605-1.375 1.375s.605 1.375 1.375 1.375S23 12.77 23 12s-.605-1.375-1.375-1.375ZM5.125 17.5c-.77 0-1.375.605-1.375 1.375s.605 1.375 1.375 1.375S6.5 19.645 6.5 18.875 5.895 17.5 5.125 17.5Zm13.75 0c-.77 0-1.375.605-1.375 1.375s.605 1.375 1.375 1.375 1.375-.605 1.375-1.375-.605-1.375-1.375-1.375zM12 20.25c-.77 0-1.375.605-1.375 1.375S11.23 23 12 23s1.375-.605 1.375-1.375S12.77 20.25 12 20.25z" fill="currentColor"/></symbol>
<symbol id="themes-system" viewBox="0 0 24 24" fill="none"><path fill="currentColor" d="M12 1C5.935 1 1 5.935 1 12s4.935 11 11 11 11-4.935 11-11S18.065 1 12 1ZM2.086 12c0-5.467 4.447-9.914 9.914-9.914v19.828c-5.466 0-9.914-4.447-9.914-9.914z"/></symbol>
<symbol id="trash" viewBox="0 0 16 16" fill="none"><path d="M11 1.75V3H13.25C13.4489 3 13.6397 3.07902 13.7803 3.21967C13.921 3.36032 14 3.55109 14 3.75C14 3.94891 13.921 4.13968 13.7803 4.28033C13.6397 4.42098 13.4489 4.5 13.25 4.5H2.75C2.55109 4.5 2.36032 4.42098 2.21967 4.28033C2.07902 4.13968 2 3.94891 2 3.75C2 3.55109 2.07902 3.36032 2.21967 3.21967C2.36032 3.07902 2.55109 3 2.75 3H5V1.75C5 0.784 5.784 0 6.75 0H9.25C10.216 0 11 0.784 11 1.75ZM4.496 6.675L5.156 13.275C5.1622 13.3367 5.19112 13.3939 5.23714 13.4355C5.28315 13.4771 5.34298 13.5001 5.405 13.5H10.595C10.657 13.5001 10.7168 13.4771 10.7629 13.4355C10.8089 13.3939 10.8378 13.3367 10.844 13.275L11.504 6.675C11.5288 6.48127 11.6282 6.30486 11.781 6.18328C11.9339 6.06169 12.1281 6.00453 12.3225 6.02394C12.5168 6.04334 12.6959 6.13779 12.8217 6.2872C12.9475 6.43661 13.01 6.6292 12.996 6.824L12.336 13.424C12.2933 13.856 12.0914 14.2566 11.7696 14.5479C11.4478 14.8392 11.0291 15.0004 10.595 15H5.405C4.97121 14.9999 4.5529 14.8388 4.23121 14.5478C3.90952 14.2567 3.70738 13.8566 3.664 13.425L3.004 6.825C2.99148 6.7257 2.99895 6.6249 3.02599 6.52853C3.05303 6.43217 3.09908 6.34219 3.16144 6.2639C3.22379 6.18561 3.30118 6.12059 3.38905 6.07268C3.47692 6.02476 3.5735 5.99492 3.67308 5.98491C3.77266 5.9749 3.87325 5.98492 3.9689 6.01438C4.06455 6.04385 4.15333 6.09216 4.23002 6.15647C4.30671 6.22078 4.36975 6.29979 4.41543 6.38884C4.46111 6.4779 4.48851 6.57519 4.496 6.675ZM6.5 1.75V3H9.5V1.75C9.5 1.6837 9.47366 1.62011 9.42678 1.57322C9.37989 1.52634 9.3163 1.5 9.25 1.5H6.75C6.6837 1.5 6.62011 1.52634 6.57322 1.57322C6.52634 1.62011 6.5 1.6837 6.5 1.75Z" fill="currentColor"/></symbol>
<symbol id="wallet-file" viewBox="0 0 32 32" fill="none"><path d="M5 1H20.8479L27 6.90258V31H5V1Z" fill="none" stroke="currentColor" stroke-width="2"/></symbol>
<symbol id="wallet-lightning" viewBox="0 0 24 24" fill="none"><path d="M17.57 10.7c-.1-.23-.27-.34-.5-.34h-4.3l.5-3.76a.48.48 0 0 0-.33-.55.52.52 0 0 0-.66.17l-5.45 6.54a.59.59 0 0 0-.05.6c.1.17.27.28.49.28h4.3l-.49 3.76c-.05.22.11.5.33.55.06.05.17.05.22.05a.5.5 0 0 0 .44-.22l5.45-6.54c.1-.17.16-.39.05-.55Z" fill="currentColor"/></symbol>
<symbol id="wallet-onchain" viewBox="0 0 24 24" fill="none"><path fill-rule="evenodd" clip-rule="evenodd" d="m16.05 12.26 1.08-1.08a3.05 3.05 0 0 0-4.31-4.32l-2.7 2.7a2.28 2.28 0 0 0 0 3.23l.54.54 1.08-1.07a1.52 1.52 0 0 1 0-2.15l2.15-2.16a1.52 1.52 0 0 1 2.6 1.08 1.52 1.52 0 0 1-.44 1.07l-1.08 1.08 1.08 1.08Z" fill="currentColor"/><path fill-rule="evenodd" clip-rule="evenodd" d="M7.97 11.72 6.89 12.8a3.05 3.05 0 0 0 4.3 4.31l2.7-2.7a2.28 2.28 0 0 0 0-3.23l-.54-.54-1.07 1.08a1.52 1.52 0 0 1 0 2.15l-2.16 2.16a1.52 1.52 0 0 1-2.6-1.08 1.52 1.52 0 0 1 .45-1.08l1.08-1.08-1.08-1.07Z" fill="currentColor"/></symbol>
<symbol id="warning" viewBox="0 0 24 24" fill="none"><path d="M12.337 3.101a.383.383 0 00-.674 0l-9.32 17.434a.383.383 0 00.338.564h18.638a.384.384 0 00.337-.564L12.337 3.101zM9.636 2.018c1.01-1.89 3.719-1.89 4.728 0l9.32 17.434a2.681 2.681 0 01-2.365 3.945H2.681a2.68 2.68 0 01-2.364-3.945L9.636 2.018zm3.896 15.25a1.532 1.532 0 11-3.064 0 1.532 1.532 0 013.064 0zm-.383-8.044a1.15 1.15 0 00-2.298 0v3.83a1.15 1.15 0 002.298 0v-3.83z" fill="currentColor"/></symbol>
<symbol id="watchonly-wallet" viewBox="0 0 32 32" fill="none"><path d="M26.5362 7.08746H25.9614V3.25512C25.9614 2.10542 25.3865 1.14734 24.6201 0.572488C23.8536 -0.00236247 22.7039 -0.193979 21.7458 -0.00236246L4.11707 5.36291C2.00929 5.93776 0.667969 7.85392 0.667969 9.96171V12.0695V12.836V27.3988C0.667969 30.0815 2.77575 32.1893 5.45839 32.1893H26.5362C29.2189 32.1893 31.3267 30.0815 31.3267 27.3988V12.0695C31.3267 9.38686 29.2189 7.08746 26.5362 7.08746ZM4.69192 7.08746L22.129 1.91381C22.5123 1.72219 23.0871 1.91381 23.4704 2.10542C23.8536 2.29704 24.0452 2.87189 24.0452 3.25512V7.08746H5.45839C4.88354 7.08746 4.5003 7.27908 3.92545 7.47069C4.11707 7.27908 4.5003 7.08746 4.69192 7.08746ZM29.4105 27.2072C29.4105 28.7402 28.0692 30.0815 26.5362 30.0815H5.45839C3.92545 30.0815 2.58414 28.7402 2.58414 27.2072V12.836V11.8779C2.58414 10.3449 3.92545 9.00362 5.45839 9.00362H26.5362C28.0692 9.00362 29.4105 10.3449 29.4105 11.8779V27.2072Z" fill="currentColor"/><path d="M25.9591 21.6487C27.0174 21.6487 27.8753 20.7908 27.8753 19.7326C27.8753 18.6743 27.0174 17.8164 25.9591 17.8164C24.9009 17.8164 24.043 18.6743 24.043 19.7326C24.043 20.7908 24.9009 21.6487 25.9591 21.6487Z" fill="currentColor"/></symbol>
<symbol id="xpub" viewBox="0 0 32 32" fill="none"><path d="M21.3911 14.0298C20.4238 14.0396 19.4831 13.713 18.73 13.1059C17.9769 12.4988 17.4581 11.649 17.2622 10.7017C17.0664 9.75436 17.2057 8.76844 17.6564 7.91249C18.1071 7.05655 18.8412 6.38377 19.733 6.00919C20.6249 5.6346 21.6192 5.58148 22.5459 5.85891C23.4726 6.13634 24.2742 6.72709 24.8134 7.53015C25.3528 8.33319 25.5964 9.29866 25.5026 10.2614C25.4088 11.2242 24.9834 12.1246 24.2992 12.8084C23.5288 13.5829 22.4836 14.022 21.3911 14.0298ZM21.3911 7.5228C20.9277 7.52249 20.4746 7.65927 20.0888 7.91592C19.703 8.17258 19.4017 8.53764 19.223 8.96514C19.0442 9.39264 18.9959 9.86347 19.0842 10.3184C19.1724 10.7733 19.3933 11.1919 19.7189 11.5215C20.1653 11.9482 20.759 12.1863 21.3765 12.1863C21.9941 12.1863 22.5878 11.9482 23.0342 11.5215C23.359 11.1928 23.5796 10.7755 23.6683 10.3219C23.7571 9.86838 23.71 9.39874 23.5329 8.97182C23.356 8.54491 23.057 8.1797 22.6734 7.92194C22.2898 7.66419 21.8387 7.52534 21.3765 7.5228H21.3911Z" fill="currentColor"/><path d="M11.3293 29.9927C10.6744 29.9903 10.0472 29.7289 9.58436 29.2657L7.81038 27.4844L7.71586 27.608C7.18174 28.1431 6.45693 28.444 5.70089 28.4448C4.94485 28.4454 4.2195 28.1458 3.68441 27.6117C3.14933 27.0776 2.84834 26.3527 2.84766 25.5967C2.84698 24.8406 3.14666 24.1153 3.68078 23.5802L14.172 13.0672C13.4303 11.3826 13.301 9.49181 13.8065 7.722C14.312 5.9522 15.4204 4.41487 16.9399 3.37617C18.4594 2.33747 20.2942 1.8628 22.1268 2.03435C23.9594 2.20589 25.6743 3.01285 26.9746 4.31551C28.2749 5.61816 29.0787 7.3345 29.2469 9.16737C29.4152 11.0002 28.9372 12.8343 27.8957 14.3519C26.8543 15.8695 25.315 16.9751 23.5443 17.4774C21.7736 17.9797 19.883 17.847 18.1998 17.1023L15.0954 20.2067L16.3241 21.4354C16.5544 21.6639 16.7373 21.9357 16.8621 22.2352C16.9868 22.5346 17.0511 22.8559 17.0511 23.1803C17.0511 23.5048 16.9868 23.826 16.8621 24.1255C16.7373 24.425 16.5544 24.6968 16.3241 24.9252C15.8548 25.3728 15.2312 25.6225 14.5828 25.6225C13.9343 25.6225 13.3107 25.3728 12.8415 24.9252L11.6128 23.6893L11.2929 24.0092L13.0742 25.7904C13.4162 26.1364 13.6484 26.5757 13.742 27.0532C13.8354 27.5307 13.7859 28.0252 13.5996 28.4746C13.4132 28.9241 13.0984 29.3086 12.6946 29.5799C12.2908 29.8512 11.8158 29.9974 11.3293 30V29.9927ZM7.81038 25.296C7.92899 25.2954 8.04656 25.3182 8.15636 25.3631C8.26615 25.408 8.36599 25.4742 8.45017 25.5578L10.8712 27.9861C10.9961 28.1011 11.1596 28.1649 11.3293 28.1649C11.4989 28.1649 11.6624 28.1011 11.7873 27.9861C11.8474 27.9259 11.8949 27.8545 11.9274 27.7759C11.9598 27.6973 11.9764 27.613 11.9763 27.5281C11.9769 27.443 11.9604 27.3587 11.928 27.28C11.8955 27.2013 11.8477 27.1299 11.7873 27.07L9.36624 24.649C9.27688 24.5611 9.2068 24.4557 9.16049 24.3393C9.11417 24.2228 9.09263 24.098 9.09724 23.9728C9.09677 23.8536 9.12035 23.7354 9.16656 23.6255C9.21278 23.5156 9.2807 23.4161 9.36624 23.333L10.9948 21.7917C11.0792 21.707 11.1795 21.6399 11.2899 21.594C11.4003 21.5482 11.5187 21.5247 11.6383 21.5247C11.7578 21.5247 11.8762 21.5482 11.9865 21.594C12.0969 21.6399 12.1973 21.707 12.2817 21.7917L14.1575 23.6675C14.2802 23.7835 14.4428 23.8481 14.6119 23.8481C14.7808 23.8481 14.9434 23.7835 15.0663 23.6675C15.1276 23.6078 15.1766 23.5367 15.2102 23.4581C15.2439 23.3795 15.2618 23.2949 15.2626 23.2094C15.2605 23.0381 15.1929 22.8742 15.0735 22.7514L13.176 20.8465C13.0041 20.675 12.9073 20.4423 12.907 20.1995C12.9065 20.0802 12.93 19.9621 12.9763 19.8521C13.0225 19.7423 13.0904 19.6427 13.176 19.5597L17.3855 15.3501C17.5244 15.2094 17.7056 15.1183 17.9014 15.0906C18.0971 15.063 18.2965 15.1006 18.4688 15.1974C19.7515 15.9077 21.2475 16.131 22.6816 15.8261C24.1158 15.5214 25.3917 14.7091 26.2747 13.5387C27.1577 12.3681 27.5884 10.9182 27.4877 9.45553C27.3869 7.99281 26.7614 6.61566 25.7262 5.57732C24.691 4.539 23.3158 3.90933 21.8534 3.8041C20.391 3.69889 18.9398 4.1252 17.7666 5.00464C16.5935 5.88408 15.7773 7.15751 15.4681 8.59074C15.1591 10.024 15.3777 11.5206 16.0841 12.8055C16.1792 12.977 16.2157 13.1749 16.1881 13.369C16.1606 13.5632 16.0705 13.7432 15.9314 13.8815L4.96764 24.8307C4.8026 25.0286 4.71754 25.281 4.72917 25.5385C4.74081 25.796 4.84829 26.0397 5.0305 26.2219C5.21272 26.4041 5.4565 26.5117 5.71392 26.5233C5.97135 26.5349 6.22383 26.4499 6.42173 26.2848L7.14877 25.5578C7.32593 25.3863 7.56388 25.2922 7.81038 25.296Z" fill="currentColor"/></symbol>
</svg>