<svg width="0" height="0" xmlns="http://www.w3.org/2000/svg">
<symbol id="note" viewBox="0 0 16 16"><path d="M14.2 16H1.8C.808 16 0 15.192 0 14.2V1.8C0 .808.808 0 1.8 0h12.4c.992 0 1.8.808 1.8 1.8v12.4c0 .992-.808 1.8-1.8 1.8zM1.8 1.2a.6.6 0 00-.6.6v12.4c0 .33.269.6.6.6h12.4a.6.6 0 00.6-.6V1.8a.6.6 0 00-.6-.6H1.8z" fill="currentColor"/><path d="M12 5.312H4a.6.6 0 010-1.2h8a.6.6 0 110 1.2zM12 8.6H4a.6.6 0 010-1.2h8a.6.6 0 010 1.2zm-4 3.288H4a.6.6 0 110-1.2h4a.6.6 0 010 1.2z" fill="currentColor"/></symbol>
<symbol id="back" viewBox="0 0 21 18"><path d="M7.63754 1.10861L0.578503 8.16764C0.119666 8.62648 0.119666 9.37121 0.578503 9.83122L7.63754 16.8902C8.09637 17.3491 8.8411 17.3491 9.30111 16.8902C9.53053 16.6608 9.64583 16.3608 9.64583 16.0585C9.64583 15.7561 9.53053 15.4561 9.30111 15.2267L4.25038 10.1759H19.0579C19.7085 10.1759 20.2344 9.65004 20.2344 8.99943C20.2344 8.34882 19.7085 7.82293 19.0579 7.82293L4.25038 7.82293L9.30111 2.77219C9.53053 2.54277 9.64583 2.24276 9.64583 1.9404C9.64583 1.63804 9.53053 1.33803 9.30111 1.10861C8.84228 0.649771 8.09755 0.649771 7.63754 1.10861Z" fill="currentColor" /></symbol>
<symbol id="close" viewBox="0 0 16 16"><path d="M9.38526 8.08753L15.5498 1.85558C15.9653 1.43545 15.9653 0.805252 15.5498 0.385121C15.1342 -0.0350102 14.5108 -0.0350102 14.0952 0.385121L7.93072 6.61707L1.76623 0.315098C1.35065 -0.105033 0.727273 -0.105033 0.311688 0.315098C-0.103896 0.73523 -0.103896 1.36543 0.311688 1.78556L6.47618 8.0175L0.311688 14.2495C-0.103896 14.6696 -0.103896 15.2998 0.311688 15.7199C0.519481 15.93 0.796499 16 1.07355 16C1.35061 16 1.62769 15.93 1.83548 15.7199L7.99997 9.48797L14.1645 15.7199C14.3722 15.93 14.6493 16 14.9264 16C15.2034 16 15.4805 15.93 15.6883 15.7199C16.1039 15.2998 16.1039 14.6696 15.6883 14.2495L9.38526 8.08753Z" fill="currentColor"/></symbol>
<symbol id="caret-right" viewBox="0 0 24 24"><path d="M9.5 17L14.5 12L9.5 7" stroke="currentColor" stroke-width="2" stroke-linecap="round" stroke-linejoin="round" fill="none"/></symbol>
<symbol id="new-wallet" viewBox="0 0 48 48"><rect x="0.5" y="0.5" width="47" height="47" rx="1.5" stroke="currentColor" fill="none"/><rect x="6" y="17" width="10" height="4" fill="currentColor"/><rect x="6" y="24" width="10" height="4" fill="currentColor"/><rect x="19" y="17" width="10" height="4" fill="currentColor"/><rect x="32" y="17" width="10" height="4" fill="currentColor"/><rect x="19" y="24" width="10" height="4" fill="currentColor"/><rect x="32" y="24" width="10" height="4" fill="currentColor"/><rect x="6" y="31" width="10" height="4" fill="currentColor"/><rect x="6" y="38" width="10" height="4" fill="currentColor"/><rect x="19" y="31" width="10" height="4" fill="currentColor"/><rect x="19" y="38" width="10" height="4" fill="currentColor"/><rect x="32" y="31" width="10" height="4" fill="currentColor"/><rect x="32" y="38" width="10" height="4" fill="currentColor"/></symbol>
<symbol id="existing-wallet" viewBox="0 0 30 48"><rect x="0.5" y="0.5" width="29" height="47" rx="3.5" stroke="currentColor" fill="none"/></symbol>
<symbol id="hardware-wallet" viewBox="0 0 41 32"><rect x="26.3242" y="5.61324" width="8.83426" height="10.1573" rx="1.125" transform="rotate(-30 26.3242 5.61324)" fill="none" stroke="currentColor" stroke-width="1.75"/><path d="M2.75777 18.9875C1.89483 17.4929 2.40694 15.5817 3.9016 14.7187L23.9126 3.16535C24.4507 2.85469 25.1387 3.03905 25.4494 3.57712L32.7106 16.1539C33.0213 16.692 32.8369 17.3801 32.2988 17.6907L12.2878 29.2441C10.7932 30.107 8.88195 29.5949 8.019 28.1003L2.75777 18.9875Z" fill="none" stroke="currentColor" stroke-width="1.75"/></symbol>
<symbol id="xpub" viewBox="0 0 48 30"><rect x="0.875" y="0.875" width="46.25" height="28.25" rx="1.125" fill="none" stroke="currentColor" stroke-width="1.75"/></symbol>
<symbol id="wallet-file" viewBox="0 0 25 32"><path d="M0.875 0.875H17.1759L23.506 6.85336V31.125H0.875V0.875Z" fill="none" stroke="currentColor" stroke-width="1.75"/></symbol>
<symbol id="scan-qr" viewBox="0 0 32 32"><path d="M20 .875h10c.621 0 1.125.504 1.125 1.125v10m0 8v10c0 .621-.504 1.125-1.125 1.125H20m-8 0H2A1.125 1.125 0 01.875 30V20m0-8V2C.875 1.379 1.379.875 2 .875h10" stroke="currentColor" stroke-width="1.75" fill="none" fill-rule="evenodd"/></symbol>
<symbol id="seed" viewBox="0 0 48 37"><rect x="0.875" y="0.875" width="46.25" height="35.25" rx="1.125" fill="none" stroke="currentColor" stroke-width="1.75"/><rect x="6" y="6" width="10" height="4" fill="currentColor"/><rect x="6" y="13" width="10" height="4" fill="currentColor"/><rect x="19" y="6" width="10" height="4" fill="currentColor"/><rect x="32" y="6" width="10" height="4" fill="currentColor"/><rect x="19" y="13" width="10" height="4" fill="currentColor"/><rect x="32" y="13" width="10" height="4" fill="currentColor"/><rect x="6" y="20" width="10" height="4" fill="currentColor"/><rect x="6" y="27" width="10" height="4" fill="currentColor"/><rect x="19" y="20" width="10" height="4" fill="currentColor"/><rect x="19" y="27" width="10" height="4" fill="currentColor"/><rect x="32" y="20" width="10" height="4" fill="currentColor"/><rect x="32" y="27" width="10" height="4" fill="currentColor"/></symbol>
</svg>

