<svg version="1.1" id="Layer_1" xmlns="http://www.w3.org/2000/svg" x="0" y="0" viewBox="0 0 203.8 202.25" style="enable-background:new 0 0 203.8 202.25" xml:space="preserve"><style>.st0{fill:#5841d8}</style><path class="st0" d="M50.78 155.58h4.5v4.88c.37-.95 1.28-2.11 2.72-3.47 1.44-1.36 3.1-2.04 4.98-2.04.09 0 .24.01.45.03.21.02.57.05 1.08.11v5c-.28-.05-.54-.08-.78-.1-.24-.02-.5-.03-.78-.03-2.39 0-4.23.77-5.51 2.31-1.28 1.54-1.92 3.31-1.92 5.31v16.23h-4.74v-28.23zM83.75 166.73c1.09-.14 1.82-.6 2.19-1.37.21-.43.31-1.03.31-1.83 0-1.62-.57-2.8-1.72-3.53-1.16-.74-2.8-1.1-4.94-1.1-2.47 0-4.22.67-5.26 2.01-.57.74-.96 1.84-1.12 3.31h-4.43c.09-3.49 1.21-5.91 3.38-7.28s4.69-2.05 7.54-2.05c3.31 0 6.01.63 8.08 1.9 2.05 1.27 3.08 3.23 3.08 5.9v16.26c0 .5.1.89.29 1.19.21.3.63.45 1.28.45.21 0 .45-.01.71-.04.27-.03.55-.07.85-.12v3.5c-.74.21-1.3.34-1.69.4-.39.05-.91.07-1.58.07-1.64 0-2.82-.58-3.55-1.74-.39-.61-.67-1.49-.82-2.61-.96 1.27-2.35 2.36-4.16 3.29-1.81.93-3.8 1.4-5.99 1.4-2.61 0-4.76-.8-6.41-2.38-1.66-1.59-2.49-3.58-2.49-5.96 0-2.62.82-4.64 2.45-6.08 1.64-1.44 3.78-2.32 6.44-2.66l7.56-.93zm-9.99 12.82c1 .79 2.19 1.18 3.55 1.18 1.67 0 3.29-.39 4.85-1.16 2.64-1.28 3.95-3.38 3.95-6.29v-3.82c-.58.37-1.32.68-2.23.92-.91.25-1.8.42-2.68.53l-2.87.37c-1.71.23-3.01.59-3.88 1.08-1.47.83-2.2 2.14-2.2 3.95.01 1.37.51 2.45 1.51 3.24zM143.07 156.36c1.87.94 3.29 2.16 4.27 3.65.94 1.42 1.57 3.08 1.88 4.98.28 1.3.42 3.37.42 6.22h-20.53c.09 2.87.76 5.17 2.01 6.91 1.25 1.74 3.2 2.6 5.83 2.6 2.46 0 4.42-.82 5.89-2.46.82-.95 1.4-2.06 1.74-3.3h4.66c-.12 1.04-.53 2.19-1.23 3.47-.7 1.27-1.47 2.31-2.32 3.12-1.43 1.41-3.2 2.35-5.31 2.84-1.13.28-2.42.42-3.85.42-3.49 0-6.45-1.28-8.88-3.83-2.43-2.55-3.64-6.13-3.64-10.74 0-4.53 1.22-8.22 3.67-11.04 2.44-2.83 5.64-4.24 9.59-4.24 2 0 3.93.46 5.8 1.4zm1.7 11.09c-.2-2.06-.64-3.7-1.34-4.93-1.29-2.29-3.44-3.42-6.46-3.42-2.16 0-3.96.78-5.43 2.36-1.46 1.57-2.24 3.57-2.33 6h15.56zM155.65 155.58h4.51v4.01c1.33-1.65 2.75-2.83 4.24-3.56 1.5-.72 3.15-1.08 4.98-1.08 4.01 0 6.71 1.39 8.12 4.19.77 1.53 1.16 3.72 1.16 6.57v18.1h-4.83v-17.79c0-1.72-.26-3.11-.76-4.17-.85-1.76-2.37-2.64-4.58-2.64-1.13 0-2.05.11-2.77.34-1.3.39-2.45 1.16-3.43 2.32-.79.93-1.3 1.89-1.54 2.88s-.36 2.41-.36 4.26v14.78h-4.75v-28.21zM46.34 155.58h-6.06l-12.17 11.99v-11.99h-4.56v28.23h4.56v-10.59l3.9-3.77 8.88 14.36h6.06l-11.46-17.73zM110.47 166.08l10.85-10.5h-6.06l-12.16 11.99v-11.99h-4.56v28.23h4.56v-10.59l3.89-3.77 8.88 14.36h6.06zM100.94 23.48c-42.75 0-77.39 34.66-77.39 77.42v33.17c0 6.11 4.95 11.05 11.04 11.05 6.1 0 11.08-4.94 11.08-11.05V100.9c0-6.12 4.93-11.07 11.05-11.07 6.1 0 11.05 4.95 11.05 11.07v33.17c0 6.11 4.95 11.05 11.05 11.05 6.12 0 11.07-4.94 11.07-11.05V100.9c0-6.12 4.95-11.07 11.05-11.07 6.12 0 11.08 4.95 11.08 11.07v33.17c0 6.11 4.95 11.05 11.04 11.05 6.1 0 11.05-4.94 11.05-11.05V100.9c0-6.12 4.95-11.07 11.08-11.07 6.1 0 11.05 4.95 11.05 11.07v33.17c0 6.11 4.95 11.05 11.07 11.05 6.1 0 11.05-4.94 11.05-11.05V100.9c0-42.76-34.67-77.42-77.42-77.42z"/></svg>