<?xml version="1.0" encoding="utf-8"?>
<!-- Generator: Adobe Illustrator 24.2.0, SVG Export Plug-In . SVG Version: 6.00 Build 0)  -->
<svg version="1.1" id="Layer_1" xmlns="http://www.w3.org/2000/svg" xmlns:xlink="http://www.w3.org/1999/xlink" x="0px" y="0px"
	 viewBox="0 0 203.8 202.25" style="enable-background:new 0 0 203.8 202.25;" xml:space="preserve">
<style type="text/css">
	.st0{fill:#5841D8;}
</style>
<g>
	<g>
		<path class="st0" d="M50.78,155.58h4.5v4.88c0.37-0.95,1.28-2.11,2.72-3.47c1.44-1.36,3.1-2.04,4.98-2.04
			c0.09,0,0.24,0.01,0.45,0.03c0.21,0.02,0.57,0.05,1.08,0.11v5c-0.28-0.05-0.54-0.08-0.78-0.1c-0.24-0.02-0.5-0.03-0.78-0.03
			c-2.39,0-4.23,0.77-5.51,2.31c-1.28,1.54-1.92,3.31-1.92,5.31v16.23h-4.74V155.58z"/>
		<path class="st0" d="M83.75,166.73c1.09-0.14,1.82-0.6,2.19-1.37c0.21-0.43,0.31-1.03,0.31-1.83c0-1.62-0.57-2.8-1.72-3.53
			c-1.16-0.74-2.8-1.1-4.94-1.1c-2.47,0-4.22,0.67-5.26,2.01c-0.57,0.74-0.96,1.84-1.12,3.31h-4.43c0.09-3.49,1.21-5.91,3.38-7.28
			c2.17-1.37,4.69-2.05,7.54-2.05c3.31,0,6.01,0.63,8.08,1.9c2.05,1.27,3.08,3.23,3.08,5.9v16.26c0,0.5,0.1,0.89,0.29,1.19
			c0.21,0.3,0.63,0.45,1.28,0.45c0.21,0,0.45-0.01,0.71-0.04c0.27-0.03,0.55-0.07,0.85-0.12v3.5c-0.74,0.21-1.3,0.34-1.69,0.4
			c-0.39,0.05-0.91,0.07-1.58,0.07c-1.64,0-2.82-0.58-3.55-1.74c-0.39-0.61-0.67-1.49-0.82-2.61c-0.96,1.27-2.35,2.36-4.16,3.29
			c-1.81,0.93-3.8,1.4-5.99,1.4c-2.61,0-4.76-0.8-6.41-2.38c-1.66-1.59-2.49-3.58-2.49-5.96c0-2.62,0.82-4.64,2.45-6.08
			c1.64-1.44,3.78-2.32,6.44-2.66L83.75,166.73z M73.76,179.55c1,0.79,2.19,1.18,3.55,1.18c1.67,0,3.29-0.39,4.85-1.16
			c2.64-1.28,3.95-3.38,3.95-6.29v-3.82c-0.58,0.37-1.32,0.68-2.23,0.92c-0.91,0.25-1.8,0.42-2.68,0.53l-2.87,0.37
			c-1.71,0.23-3.01,0.59-3.88,1.08c-1.47,0.83-2.2,2.14-2.2,3.95C72.26,177.68,72.76,178.76,73.76,179.55z"/>
		<path class="st0" d="M143.07,156.36c1.87,0.94,3.29,2.16,4.27,3.65c0.94,1.42,1.57,3.08,1.88,4.98c0.28,1.3,0.42,3.37,0.42,6.22
			h-20.53c0.09,2.87,0.76,5.17,2.01,6.91c1.25,1.74,3.2,2.6,5.83,2.6c2.46,0,4.42-0.82,5.89-2.46c0.82-0.95,1.4-2.06,1.74-3.3h4.66
			c-0.12,1.04-0.53,2.19-1.23,3.47c-0.7,1.27-1.47,2.31-2.32,3.12c-1.43,1.41-3.2,2.35-5.31,2.84c-1.13,0.28-2.42,0.42-3.85,0.42
			c-3.49,0-6.45-1.28-8.88-3.83c-2.43-2.55-3.64-6.13-3.64-10.74c0-4.53,1.22-8.22,3.67-11.04c2.44-2.83,5.64-4.24,9.59-4.24
			C139.27,154.96,141.2,155.42,143.07,156.36z M144.77,167.45c-0.2-2.06-0.64-3.7-1.34-4.93c-1.29-2.29-3.44-3.42-6.46-3.42
			c-2.16,0-3.96,0.78-5.43,2.36c-1.46,1.57-2.24,3.57-2.33,6H144.77z"/>
		<path class="st0" d="M155.65,155.58h4.51v4.01c1.33-1.65,2.75-2.83,4.24-3.56c1.5-0.72,3.15-1.08,4.98-1.08
			c4.01,0,6.71,1.39,8.12,4.19c0.77,1.53,1.16,3.72,1.16,6.57v18.1h-4.83v-17.79c0-1.72-0.26-3.11-0.76-4.17
			c-0.85-1.76-2.37-2.64-4.58-2.64c-1.13,0-2.05,0.11-2.77,0.34c-1.3,0.39-2.45,1.16-3.43,2.32c-0.79,0.93-1.3,1.89-1.54,2.88
			c-0.24,0.99-0.36,2.41-0.36,4.26v14.78h-4.75V155.58z"/>
		<polygon class="st0" points="46.34,155.58 40.28,155.58 28.11,167.57 28.11,155.58 23.55,155.58 23.55,183.81 28.11,183.81 
			28.11,173.22 32.01,169.45 40.89,183.81 46.95,183.81 35.49,166.08 		"/>
		<polygon class="st0" points="110.47,166.08 121.32,155.58 115.26,155.58 103.1,167.57 103.1,155.58 98.54,155.58 98.54,183.81 
			103.1,183.81 103.1,173.22 106.99,169.45 115.87,183.81 121.93,183.81 		"/>
	</g>
	<path class="st0" d="M100.94,23.48c-42.75,0-77.39,34.66-77.39,77.42v33.17c0,6.11,4.95,11.05,11.04,11.05
		c6.1,0,11.08-4.94,11.08-11.05v-33.17c0-6.12,4.93-11.07,11.05-11.07c6.1,0,11.05,4.95,11.05,11.07v33.17
		c0,6.11,4.95,11.05,11.05,11.05c6.12,0,11.07-4.94,11.07-11.05v-33.17c0-6.12,4.95-11.07,11.05-11.07
		c6.12,0,11.08,4.95,11.08,11.07v33.17c0,6.11,4.95,11.05,11.04,11.05c6.1,0,11.05-4.94,11.05-11.05v-33.17
		c0-6.12,4.95-11.07,11.08-11.07c6.1,0,11.05,4.95,11.05,11.07v33.17c0,6.11,4.95,11.05,11.07,11.05c6.1,0,11.05-4.94,11.05-11.05
		v-33.17C178.36,58.14,143.69,23.48,100.94,23.48z"/>
</g>
</svg>
