<svg xmlns="http://www.w3.org/2000/svg" xmlns:xlink="http://www.w3.org/1999/xlink" viewBox="0 0 245.9 85.8"><defs><style>.cls-1,.cls-10,.cls-11,.cls-12,.cls-13,.cls-14,.cls-15,.cls-16,.cls-17,.cls-18,.cls-19,.cls-2,.cls-20,.cls-21,.cls-22,.cls-23,.cls-24,.cls-25,.cls-26,.cls-27,.cls-28,.cls-29,.cls-3,.cls-30,.cls-31,.cls-32,.cls-33,.cls-34,.cls-35,.cls-36,.cls-37,.cls-38,.cls-39,.cls-4,.cls-40,.cls-41,.cls-42,.cls-43,.cls-44,.cls-45,.cls-46,.cls-47,.cls-48,.cls-49,.cls-5,.cls-50,.cls-51,.cls-52,.cls-53,.cls-54,.cls-55,.cls-56,.cls-57,.cls-58,.cls-59,.cls-6,.cls-60,.cls-7,.cls-8,.cls-9{fill:none;stroke-miterlimit:10;}.cls-1,.cls-10,.cls-11,.cls-12,.cls-13,.cls-14,.cls-17,.cls-23,.cls-24,.cls-25,.cls-26,.cls-27,.cls-28,.cls-29,.cls-3,.cls-30,.cls-31,.cls-32,.cls-34,.cls-35,.cls-36,.cls-4,.cls-42,.cls-45,.cls-46,.cls-47,.cls-48,.cls-5,.cls-50,.cls-51,.cls-52,.cls-54,.cls-56,.cls-57,.cls-58,.cls-6,.cls-60,.cls-7,.cls-8,.cls-9{stroke-width:0.5px;}.cls-1{stroke:url(#Dégradé_sans_nom_22);}.cls-2{stroke:url(#Dégradé_sans_nom_22-2);}.cls-3{stroke:url(#Dégradé_sans_nom_22-3);}.cls-4{stroke:url(#Dégradé_sans_nom_22-4);}.cls-5{stroke:url(#Dégradé_sans_nom_22-5);}.cls-6{stroke:url(#Dégradé_sans_nom_22-6);}.cls-7{stroke:url(#Dégradé_sans_nom_22-7);}.cls-8{stroke:url(#Dégradé_sans_nom_22-8);}.cls-9{stroke:url(#Dégradé_sans_nom_22-9);}.cls-10{stroke:url(#Dégradé_sans_nom_22-10);}.cls-11{stroke:url(#Dégradé_sans_nom_22-11);}.cls-12{stroke:url(#Dégradé_sans_nom_22-12);}.cls-13{stroke:url(#Dégradé_sans_nom_22-13);}.cls-14{stroke:url(#Dégradé_sans_nom_22-14);}.cls-15{stroke:url(#Dégradé_sans_nom_22-15);}.cls-16{stroke:url(#Dégradé_sans_nom_22-16);}.cls-17{stroke:url(#Dégradé_sans_nom_22-17);}.cls-18{stroke:url(#Dégradé_sans_nom_22-18);}.cls-19{stroke:url(#Dégradé_sans_nom_22-19);}.cls-20,.cls-21,.cls-55{stroke-width:1.2px;}.cls-20{stroke:url(#Dégradé_sans_nom_22-20);}.cls-21{stroke:url(#Dégradé_sans_nom_22-21);}.cls-22{stroke:url(#Dégradé_sans_nom_22-22);}.cls-23{stroke:url(#Dégradé_sans_nom_22-23);}.cls-24{stroke:url(#Dégradé_sans_nom_22-24);}.cls-25{stroke:url(#Dégradé_sans_nom_22-25);}.cls-26{stroke:url(#Dégradé_sans_nom_22-26);}.cls-27{stroke:url(#Dégradé_sans_nom_22-27);}.cls-28{stroke:url(#Dégradé_sans_nom_22-28);}.cls-29{stroke:url(#Dégradé_sans_nom_22-29);}.cls-30{stroke:url(#Dégradé_sans_nom_22-30);}.cls-31{stroke:url(#Dégradé_sans_nom_22-31);}.cls-32{stroke:url(#Dégradé_sans_nom_22-32);}.cls-33,.cls-43,.cls-44,.cls-49,.cls-53{stroke-width:0.6px;}.cls-33{stroke:url(#Dégradé_sans_nom_22-33);}.cls-34{stroke:url(#Dégradé_sans_nom_22-34);}.cls-35{stroke:url(#Dégradé_sans_nom_22-35);}.cls-36{stroke:url(#Dégradé_sans_nom_22-36);}.cls-37{stroke:url(#Dégradé_sans_nom_22-37);}.cls-38{stroke:url(#Dégradé_sans_nom_22-38);}.cls-39{stroke:url(#Dégradé_sans_nom_22-39);}.cls-40{stroke:url(#Dégradé_sans_nom_22-40);}.cls-41{stroke:url(#Dégradé_sans_nom_22-41);}.cls-42{stroke:url(#Dégradé_sans_nom_22-42);}.cls-43{stroke:url(#Dégradé_sans_nom_22-43);}.cls-44{stroke:url(#Dégradé_sans_nom_22-44);}.cls-45{stroke:url(#Dégradé_sans_nom_22-45);}.cls-46{stroke:url(#Dégradé_sans_nom_22-46);}.cls-47{stroke:url(#Dégradé_sans_nom_22-47);}.cls-48{stroke:url(#Dégradé_sans_nom_22-48);}.cls-49{stroke:url(#Dégradé_sans_nom_22-49);}.cls-50{stroke:url(#Dégradé_sans_nom_22-50);}.cls-51{stroke:url(#Dégradé_sans_nom_22-51);}.cls-52{stroke:url(#Dégradé_sans_nom_22-52);}.cls-53{stroke:url(#Dégradé_sans_nom_22-53);}.cls-54{stroke:url(#Dégradé_sans_nom_22-54);}.cls-55{stroke:url(#Dégradé_sans_nom_22-55);}.cls-56{stroke:url(#Dégradé_sans_nom_22-56);}.cls-57{stroke:url(#Dégradé_sans_nom_22-57);}.cls-58{stroke:url(#Dégradé_sans_nom_22-58);}.cls-59{stroke:url(#Dégradé_sans_nom_22-59);}.cls-60{stroke:url(#Dégradé_sans_nom_22-60);}.cls-61{fill:url(#Dégradé_sans_nom_22-61);}.cls-62{fill:url(#Dégradé_sans_nom_22-62);}.cls-63{fill:url(#Dégradé_sans_nom_33);}.cls-64{fill:url(#Dégradé_sans_nom_33-2);}.cls-65{fill:url(#Dégradé_sans_nom_33-3);}.cls-66{fill:url(#Dégradé_sans_nom_33-4);}.cls-67{fill:url(#Dégradé_sans_nom_33-5);}.cls-68{fill:url(#Dégradé_sans_nom_33-6);}.cls-69{fill:url(#Dégradé_sans_nom_33-7);}.cls-70{fill:url(#Dégradé_sans_nom_33-8);}.cls-71{fill:url(#Dégradé_sans_nom_33-9);}.cls-72{fill:url(#Dégradé_sans_nom_33-10);}.cls-73{fill:url(#Dégradé_sans_nom_33-11);}.cls-74{fill:url(#Dégradé_sans_nom_33-12);}.cls-75{fill:url(#Dégradé_sans_nom_33-13);}.cls-76{fill:url(#Dégradé_sans_nom_33-14);}.cls-77{fill:url(#Dégradé_sans_nom_33-15);}.cls-78{fill:url(#Dégradé_sans_nom_33-16);}.cls-79{fill:url(#Dégradé_sans_nom_33-17);}.cls-80{fill:url(#Dégradé_sans_nom_33-18);}.cls-81{fill:url(#Dégradé_sans_nom_33-19);}.cls-82{fill:url(#Dégradé_sans_nom_33-20);}.cls-83{fill:url(#Dégradé_sans_nom_33-21);}.cls-84{fill:url(#Dégradé_sans_nom_33-22);}.cls-85{fill:url(#Dégradé_sans_nom_33-23);}.cls-86{fill:url(#Dégradé_sans_nom_33-24);}.cls-87{fill:url(#Dégradé_sans_nom_33-25);}.cls-88{fill:url(#Dégradé_sans_nom_33-26);}</style><linearGradient id="Dégradé_sans_nom_22" x1="44.85" y1="11.45" x2="47.68" y2="11.45" gradientUnits="userSpaceOnUse"><stop offset="0.15" stop-color="#fcec45"/><stop offset="0.67" stop-color="#41ab34"/></linearGradient><linearGradient id="Dégradé_sans_nom_22-2" x1="47.01" y1="15.5" x2="50.41" y2="15.5" xlink:href="#Dégradé_sans_nom_22"/><linearGradient id="Dégradé_sans_nom_22-3" x1="19.49" y1="13.52" x2="19.99" y2="13.52" xlink:href="#Dégradé_sans_nom_22"/><linearGradient id="Dégradé_sans_nom_22-4" x1="21.72" y1="25.44" x2="25.1" y2="25.44" xlink:href="#Dégradé_sans_nom_22"/><linearGradient id="Dégradé_sans_nom_22-5" x1="12.22" y1="18.21" x2="16.29" y2="18.21" xlink:href="#Dégradé_sans_nom_22"/><linearGradient id="Dégradé_sans_nom_22-6" x1="17.97" y1="16.46" x2="32.04" y2="16.46" xlink:href="#Dégradé_sans_nom_22"/><linearGradient id="Dégradé_sans_nom_22-7" x1="34.69" y1="7.71" x2="39.38" y2="7.71" xlink:href="#Dégradé_sans_nom_22"/><linearGradient id="Dégradé_sans_nom_22-8" x1="29.25" y1="5.68" x2="32.72" y2="5.68" xlink:href="#Dégradé_sans_nom_22"/><linearGradient id="Dégradé_sans_nom_22-9" x1="29.25" y1="12.77" x2="29.75" y2="12.77" xlink:href="#Dégradé_sans_nom_22"/><linearGradient id="Dégradé_sans_nom_22-10" x1="37.71" y1="17.19" x2="42.07" y2="17.19" xlink:href="#Dégradé_sans_nom_22"/><linearGradient id="Dégradé_sans_nom_22-11" x1="37.71" y1="16.77" x2="40.62" y2="16.77" xlink:href="#Dégradé_sans_nom_22"/><linearGradient id="Dégradé_sans_nom_22-12" x1="47.36" y1="13.06" x2="53.54" y2="13.06" xlink:href="#Dégradé_sans_nom_22"/><linearGradient id="Dégradé_sans_nom_22-13" x1="47.55" y1="15.22" x2="55.18" y2="15.22" xlink:href="#Dégradé_sans_nom_22"/><linearGradient id="Dégradé_sans_nom_22-14" x1="64.66" y1="14.74" x2="70.75" y2="14.74" xlink:href="#Dégradé_sans_nom_22"/><linearGradient id="Dégradé_sans_nom_22-15" x1="51.78" y1="19.83" x2="69.61" y2="19.83" xlink:href="#Dégradé_sans_nom_22"/><linearGradient id="Dégradé_sans_nom_22-16" x1="70.76" y1="32.12" x2="76.87" y2="32.12" xlink:href="#Dégradé_sans_nom_22"/><linearGradient id="Dégradé_sans_nom_22-17" x1="61.66" y1="35.45" x2="67.68" y2="35.45" xlink:href="#Dégradé_sans_nom_22"/><linearGradient id="Dégradé_sans_nom_22-18" x1="42.14" y1="22.87" x2="60.32" y2="22.87" xlink:href="#Dégradé_sans_nom_22"/><linearGradient id="Dégradé_sans_nom_22-19" x1="42.13" y1="40.46" x2="58.67" y2="40.46" xlink:href="#Dégradé_sans_nom_22"/><linearGradient id="Dégradé_sans_nom_22-20" x1="44.25" y1="54.33" x2="83.78" y2="54.33" xlink:href="#Dégradé_sans_nom_22"/><linearGradient id="Dégradé_sans_nom_22-21" x1="24.29" y1="39.85" x2="43.08" y2="39.85" xlink:href="#Dégradé_sans_nom_22"/><linearGradient id="Dégradé_sans_nom_22-22" x1="15.64" y1="31.24" x2="25.89" y2="31.24" xlink:href="#Dégradé_sans_nom_22"/><linearGradient id="Dégradé_sans_nom_22-23" x1="34.38" y1="41.03" x2="42.45" y2="41.03" xlink:href="#Dégradé_sans_nom_22"/><linearGradient id="Dégradé_sans_nom_22-24" x1="38.05" y1="41.31" x2="38.55" y2="41.31" xlink:href="#Dégradé_sans_nom_22"/><linearGradient id="Dégradé_sans_nom_22-25" x1="4.66" y1="24.7" x2="6.89" y2="24.7" xlink:href="#Dégradé_sans_nom_22"/><linearGradient id="Dégradé_sans_nom_22-26" x1="21.84" y1="23.4" x2="24.92" y2="23.4" xlink:href="#Dégradé_sans_nom_22"/><linearGradient id="Dégradé_sans_nom_22-27" x1="33.76" y1="34.09" x2="35.51" y2="34.09" xlink:href="#Dégradé_sans_nom_22"/><linearGradient id="Dégradé_sans_nom_22-28" x1="37.43" y1="38.5" x2="39.18" y2="38.5" xlink:href="#Dégradé_sans_nom_22"/><linearGradient id="Dégradé_sans_nom_22-29" x1="17.35" y1="10.04" x2="19.1" y2="10.04" xlink:href="#Dégradé_sans_nom_22"/><linearGradient id="Dégradé_sans_nom_22-30" x1="20.71" y1="21.87" x2="22.46" y2="21.87" xlink:href="#Dégradé_sans_nom_22"/><linearGradient id="Dégradé_sans_nom_22-31" x1="23.97" y1="20.51" x2="25.72" y2="20.51" xlink:href="#Dégradé_sans_nom_22"/><linearGradient id="Dégradé_sans_nom_22-32" x1="7.85" y1="30.65" x2="12.72" y2="30.65" xlink:href="#Dégradé_sans_nom_22"/><linearGradient id="Dégradé_sans_nom_22-33" x1="32.25" y1="16.33" x2="37.98" y2="16.33" xlink:href="#Dégradé_sans_nom_22"/><linearGradient id="Dégradé_sans_nom_22-34" x1="66.56" y1="24.36" x2="68.31" y2="24.36" xlink:href="#Dégradé_sans_nom_22"/><linearGradient id="Dégradé_sans_nom_22-35" x1="52.42" y1="7.61" x2="54.17" y2="7.61" xlink:href="#Dégradé_sans_nom_22"/><linearGradient id="Dégradé_sans_nom_22-36" x1="54.06" y1="9.71" x2="55.81" y2="9.71" xlink:href="#Dégradé_sans_nom_22"/><linearGradient id="Dégradé_sans_nom_22-37" x1="48.05" y1="3.67" x2="51.77" y2="3.67" xlink:href="#Dégradé_sans_nom_22"/><linearGradient id="Dégradé_sans_nom_22-38" x1="57.96" y1="2.95" x2="61.68" y2="2.95" xlink:href="#Dégradé_sans_nom_22"/><linearGradient id="Dégradé_sans_nom_22-39" x1="74.51" y1="20.6" x2="78.23" y2="20.6" xlink:href="#Dégradé_sans_nom_22"/><linearGradient id="Dégradé_sans_nom_22-40" x1="82.21" y1="32.74" x2="85.93" y2="32.74" xlink:href="#Dégradé_sans_nom_22"/><linearGradient id="Dégradé_sans_nom_22-41" x1="23.03" y1="3.03" x2="26.75" y2="3.03" xlink:href="#Dégradé_sans_nom_22"/><linearGradient id="Dégradé_sans_nom_22-42" x1="11.59" y1="13.74" x2="13.34" y2="13.74" xlink:href="#Dégradé_sans_nom_22"/><linearGradient id="Dégradé_sans_nom_22-43" x1="14.88" y1="16.09" x2="17.34" y2="16.09" xlink:href="#Dégradé_sans_nom_22"/><linearGradient id="Dégradé_sans_nom_22-44" x1="56.94" y1="28.87" x2="59.39" y2="28.87" xlink:href="#Dégradé_sans_nom_22"/><linearGradient id="Dégradé_sans_nom_22-45" x1="28.63" y1="9.75" x2="30.38" y2="9.75" xlink:href="#Dégradé_sans_nom_22"/><linearGradient id="Dégradé_sans_nom_22-46" x1="28.63" y1="2.45" x2="30.38" y2="2.45" xlink:href="#Dégradé_sans_nom_22"/><linearGradient id="Dégradé_sans_nom_22-47" x1="40.94" y1="11.63" x2="42.69" y2="11.63" xlink:href="#Dégradé_sans_nom_22"/><linearGradient id="Dégradé_sans_nom_22-48" x1="39.49" y1="12.97" x2="41.24" y2="12.97" xlink:href="#Dégradé_sans_nom_22"/><linearGradient id="Dégradé_sans_nom_22-49" x1="31.32" y1="1.69" x2="33.77" y2="1.69" xlink:href="#Dégradé_sans_nom_22"/><linearGradient id="Dégradé_sans_nom_22-50" x1="38.25" y1="0.88" x2="40" y2="0.88" xlink:href="#Dégradé_sans_nom_22"/><linearGradient id="Dégradé_sans_nom_22-51" x1="44.22" y1="8.17" x2="45.97" y2="8.17" xlink:href="#Dégradé_sans_nom_22"/><linearGradient id="Dégradé_sans_nom_22-52" x1="70.04" y1="11.36" x2="71.79" y2="11.36" xlink:href="#Dégradé_sans_nom_22"/><linearGradient id="Dégradé_sans_nom_22-53" x1="69.28" y1="17.57" x2="71.74" y2="17.57" xlink:href="#Dégradé_sans_nom_22"/><linearGradient id="Dégradé_sans_nom_22-54" x1="3.65" y1="32.05" x2="8.18" y2="32.05" xlink:href="#Dégradé_sans_nom_22"/><linearGradient id="Dégradé_sans_nom_22-55" x1="2.24" y1="53.95" x2="40.68" y2="53.95" xlink:href="#Dégradé_sans_nom_22"/><linearGradient id="Dégradé_sans_nom_22-56" x1="4.04" y1="19.97" x2="5.79" y2="19.97" xlink:href="#Dégradé_sans_nom_22"/><linearGradient id="Dégradé_sans_nom_22-57" x1="2.64" y1="25.83" x2="4.4" y2="25.83" xlink:href="#Dégradé_sans_nom_22"/><linearGradient id="Dégradé_sans_nom_22-58" x1="11.59" y1="25.73" x2="13.34" y2="25.73" xlink:href="#Dégradé_sans_nom_22"/><linearGradient id="Dégradé_sans_nom_22-59" x1="0" y1="31.92" x2="3.72" y2="31.92" xlink:href="#Dégradé_sans_nom_22"/><linearGradient id="Dégradé_sans_nom_22-60" x1="18.86" y1="11.82" x2="20.61" y2="11.82" xlink:href="#Dégradé_sans_nom_22"/><linearGradient id="Dégradé_sans_nom_22-61" x1="32.19" y1="87.34" x2="132.81" y2="87.34" xlink:href="#Dégradé_sans_nom_22"/><linearGradient id="Dégradé_sans_nom_22-62" x1="77.47" y1="79.17" x2="104.21" y2="79.17" xlink:href="#Dégradé_sans_nom_22"/><linearGradient id="Dégradé_sans_nom_33" x1="155.11" y1="70.63" x2="163.9" y2="70.63" gradientUnits="userSpaceOnUse"><stop offset="0.13" stop-color="#fcec45"/><stop offset="0.83" stop-color="#41ab34"/></linearGradient><linearGradient id="Dégradé_sans_nom_33-2" x1="158.76" y1="70.16" x2="176.64" y2="70.16" xlink:href="#Dégradé_sans_nom_33"/><linearGradient id="Dégradé_sans_nom_33-3" x1="152.32" y1="74.51" x2="157.68" y2="74.51" xlink:href="#Dégradé_sans_nom_33"/><linearGradient id="Dégradé_sans_nom_33-4" x1="151.88" y1="73.56" x2="157.11" y2="73.56" xlink:href="#Dégradé_sans_nom_33"/><linearGradient id="Dégradé_sans_nom_33-5" x1="104.21" y1="70.17" x2="125.97" y2="70.17" xlink:href="#Dégradé_sans_nom_33"/><linearGradient id="Dégradé_sans_nom_33-6" x1="104.88" y1="53.3" x2="104.88" y2="53.3" xlink:href="#Dégradé_sans_nom_33"/><linearGradient id="Dégradé_sans_nom_33-7" x1="96.79" y1="52.25" x2="101.28" y2="52.25" xlink:href="#Dégradé_sans_nom_33"/><linearGradient id="Dégradé_sans_nom_33-8" x1="106.67" y1="53.3" x2="106.67" y2="53.3" xlink:href="#Dégradé_sans_nom_33"/><linearGradient id="Dégradé_sans_nom_33-9" x1="120.15" y1="65.81" x2="125.77" y2="65.81" xlink:href="#Dégradé_sans_nom_33"/><linearGradient id="Dégradé_sans_nom_33-10" x1="138.79" y1="82.73" x2="143.27" y2="82.73" xlink:href="#Dégradé_sans_nom_33"/><linearGradient id="Dégradé_sans_nom_33-11" x1="138.79" y1="61.77" x2="143.27" y2="61.77" xlink:href="#Dégradé_sans_nom_33"/><linearGradient id="Dégradé_sans_nom_33-12" x1="138.79" y1="68.53" x2="143.27" y2="68.53" xlink:href="#Dégradé_sans_nom_33"/><linearGradient id="Dégradé_sans_nom_33-13" x1="138.79" y1="75.57" x2="143.27" y2="75.57" xlink:href="#Dégradé_sans_nom_33"/><linearGradient id="Dégradé_sans_nom_33-14" x1="138.79" y1="76.62" x2="143.27" y2="76.62" xlink:href="#Dégradé_sans_nom_33"/><linearGradient id="Dégradé_sans_nom_33-15" x1="138.79" y1="77.73" x2="143.27" y2="77.73" xlink:href="#Dégradé_sans_nom_33"/><linearGradient id="Dégradé_sans_nom_33-16" x1="128.68" y1="57.21" x2="153.38" y2="57.21" xlink:href="#Dégradé_sans_nom_33"/><linearGradient id="Dégradé_sans_nom_33-17" x1="182.02" y1="70.05" x2="203.78" y2="70.05" xlink:href="#Dégradé_sans_nom_33"/><linearGradient id="Dégradé_sans_nom_33-18" x1="191.27" y1="60.28" x2="196.36" y2="60.28" xlink:href="#Dégradé_sans_nom_33"/><linearGradient id="Dégradé_sans_nom_33-19" x1="199.11" y1="62.58" x2="203.78" y2="62.58" xlink:href="#Dégradé_sans_nom_33"/><linearGradient id="Dégradé_sans_nom_33-20" x1="220.29" y1="72.02" x2="220.29" y2="72.02" xlink:href="#Dégradé_sans_nom_33"/><linearGradient id="Dégradé_sans_nom_33-21" x1="212.86" y1="64.96" x2="217.54" y2="64.96" xlink:href="#Dégradé_sans_nom_33"/><linearGradient id="Dégradé_sans_nom_33-22" x1="206.79" y1="79.41" x2="228.44" y2="79.41" xlink:href="#Dégradé_sans_nom_33"/><linearGradient id="Dégradé_sans_nom_33-23" x1="203.39" y1="63.93" x2="207.63" y2="63.93" xlink:href="#Dégradé_sans_nom_33"/><linearGradient id="Dégradé_sans_nom_33-24" x1="211.36" y1="62.43" x2="224.56" y2="62.43" xlink:href="#Dégradé_sans_nom_33"/><linearGradient id="Dégradé_sans_nom_33-25" x1="231.56" y1="70.16" x2="244.68" y2="70.16" xlink:href="#Dégradé_sans_nom_33"/><linearGradient id="Dégradé_sans_nom_33-26" x1="234.95" y1="62.47" x2="253.32" y2="62.47" xlink:href="#Dégradé_sans_nom_33"/></defs><title>LOGO</title><g id="Arbre"><polyline class="cls-1" points="47.51 14.03 45.1 11.82 45.1 8.69"/><polyline class="cls-2" points="47.51 26.22 47.51 11.2 49.91 8.9 49.91 4.78"/><line class="cls-3" x1="19.74" y1="14.64" x2="19.74" y2="12.4"/><polyline class="cls-4" points="21.93 29.68 24.84 25.79 24.84 21.06"/><polyline class="cls-5" points="16.14 21.87 12.47 19.15 12.47 14.35"/><polyline class="cls-6" points="31.86 22 27.15 17.15 22.24 17.15 18.22 13.12 18.22 10.75"/><polyline class="cls-7" points="34.94 14.03 34.94 7.8 39.13 3.81 39.13 1.38"/><polyline class="cls-8" points="32.55 8.15 29.5 5.32 29.5 3.03"/><line class="cls-9" x1="29.5" y1="15.12" x2="29.5" y2="10.42"/><polyline class="cls-10" points="37.89 22 41.82 18.11 41.82 12.2"/><polyline class="cls-11" points="37.89 19.83 40.37 17.45 40.37 13.52"/><polyline class="cls-12" points="47.51 17.76 53.29 13.14 53.29 8.17"/><polyline class="cls-13" points="47.7 20.01 54.93 14.3 54.93 10.23"/><line class="cls-14" x1="64.84" y1="17.66" x2="70.57" y2="11.82"/><polyline class="cls-15" points="51.78 22 58.16 22 62.12 17.66 69.61 17.66"/><polyline class="cls-16" points="71.26 42.56 71.26 33.32 76.37 27.01 76.37 21.69"/><polyline class="cls-17" points="61.91 46.01 61.91 36.69 67.43 31.24 67.43 24.89"/><polyline class="cls-18" points="42.48 41.26 46 38.02 46 27.88 59.82 13.84 59.82 4.11"/><polyline class="cls-19" points="42.48 50.9 58.16 35 58.16 29.68"/><polyline class="cls-20" points="44.85 75.31 44.85 59.97 55.14 49.61 58.31 49.61 65.36 42.56 74.64 42.56 83.35 33.78"/><polyline class="cls-21" points="42.48 75.31 42.48 35.03 31.86 24.35 31.86 17.64 24.89 10.49 24.89 4.39"/><polyline class="cls-22" points="25.1 45.32 25.39 32.26 16.14 25.36 16.14 17.15"/><polyline class="cls-23" points="42.28 47.15 37.53 42.89 34.63 40.29 34.63 34.71"/><line class="cls-24" x1="38.3" y1="43.58" x2="38.3" y2="39.03"/><polyline class="cls-25" points="6.48 28.87 6.64 25.36 4.91 23.2 4.91 20.51"/><line class="cls-26" x1="24.77" y1="24.51" x2="21.99" y2="22.3"/><circle class="cls-27" cx="34.63" cy="34.09" r="0.63"/><circle class="cls-28" cx="38.3" cy="38.5" r="0.63"/><circle class="cls-29" cx="18.22" cy="10.04" r="0.63"/><circle class="cls-30" cx="21.58" cy="21.87" r="0.63"/><circle class="cls-31" cx="24.85" cy="20.51" r="0.63"/><polyline class="cls-32" points="8.01 34.89 12.47 31.24 12.47 26.22"/><polyline class="cls-33" points="37.68 30.2 37.68 17.15 32.55 11.82 32.55 2.45"/><circle class="cls-34" cx="67.43" cy="24.36" r="0.63"/><circle class="cls-35" cx="53.29" cy="7.61" r="0.63"/><circle class="cls-36" cx="54.93" cy="9.71" r="0.63"/><circle class="cls-37" cx="49.91" cy="3.67" r="1.36"/><circle class="cls-38" cx="59.82" cy="2.95" r="1.36"/><circle class="cls-39" cx="76.37" cy="20.6" r="1.36"/><circle class="cls-40" cx="84.07" cy="32.74" r="1.36"/><circle class="cls-41" cx="24.89" cy="3.03" r="1.36"/><circle class="cls-42" cx="12.47" cy="13.74" r="0.63"/><circle class="cls-43" cx="16.11" cy="16.09" r="0.93"/><circle class="cls-44" cx="58.17" cy="28.87" r="0.93"/><circle class="cls-45" cx="29.5" cy="9.75" r="0.63"/><circle class="cls-46" cx="29.5" cy="2.45" r="0.63"/><circle class="cls-47" cx="41.82" cy="11.63" r="0.63"/><circle class="cls-48" cx="40.37" cy="12.97" r="0.63"/><circle class="cls-49" cx="32.55" cy="1.69" r="0.93"/><circle class="cls-50" cx="39.13" cy="0.88" r="0.63"/><circle class="cls-51" cx="45.1" cy="8.17" r="0.63"/><circle class="cls-52" cx="70.91" cy="11.36" r="0.63"/><circle class="cls-53" cx="70.51" cy="17.57" r="0.93"/><polyline class="cls-54" points="7.93 38.06 7.93 30.32 6.21 28.59 3.83 26.22"/><polyline class="cls-55" points="40.08 75.29 40.08 55.57 32.95 48.43 28.21 48.43 21 41.22 10.78 41.22 2.67 33.03"/><circle class="cls-56" cx="4.91" cy="19.97" r="0.63"/><circle class="cls-57" cx="3.52" cy="25.83" r="0.63"/><circle class="cls-58" cx="12.47" cy="25.73" r="0.63"/><circle class="cls-59" cx="1.86" cy="31.92" r="1.36"/><circle class="cls-60" cx="19.74" cy="11.82" r="0.63"/></g><g id="Barre"><path class="cls-61" d="M132.38,88.65a1.47,1.47,0,0,0-2.46.65h-25.7L101,92.55H97.12l-4.41-4.41H67.76l-5.7-5.7h-27a1.47,1.47,0,1,0,0,.78H61.74l5.7,5.7H92.38l4.41,4.41h4.51l3.25-3.25h25.37a1.47,1.47,0,0,0,1.42,1.08,1.47,1.47,0,0,0,1-2.51ZM33.67,83.78a.95.95,0,1,1,.94-.94A.95.95,0,0,1,33.67,83.78Zm97.69,6.82a.95.95,0,1,1,.94-.95A.95.95,0,0,1,131.36,90.6Z" transform="translate(-7.42 -7.53)"/></g><g id="Barre-2" data-name="Barre"><path class="cls-62" d="M102.74,70.14a1.46,1.46,0,0,0-1.47,1.46,1.49,1.49,0,0,0,0,.21l-10,10H83.34l-3.68,3.67a1.47,1.47,0,0,0-2.19,1.28,1.47,1.47,0,0,0,2.94,0,1.53,1.53,0,0,0-.19-.73l3.45-3.44h7.9l10.06-10.06a1.47,1.47,0,0,0,1.11.5h0a1.47,1.47,0,1,0,0-2.93ZM78.94,87.75a.95.95,0,1,1,.94-.94A.94.94,0,0,1,78.94,87.75Zm23.82-15.21a.95.95,0,1,1,.94-.94A.95.95,0,0,1,102.76,72.54Z" transform="translate(-7.42 -7.53)"/></g><g id="BTCPAY"><path class="cls-63" d="M159,80.29l-.15-.26c-1.24-2.41-3.06-6-3.46-7a9.62,9.62,0,0,1-.29-3.54,7.46,7.46,0,0,1,1-3.62c.45-.85,1-2,1.58-3.15l.42-.85c.14-.28.27-.56.41-.85L161,65.64l-.1.18c-1,1.69-1.66,2.7-1.68,3.73a4.12,4.12,0,0,0,.13,1.36,76,76,0,0,0,4.53,9.38" transform="translate(-7.42 -7.53)"/><path class="cls-64" d="M158.76,60.54q1.31-2.51,2.12-3.94c.5-.89.91-1.34,1.22-1.34h14.54v.59a1.87,1.87,0,0,1-1.95,1.81H166c-.31,0-.68.31-1.1.94l-.74,1.22-.4.78L162,63.85l-.74,1.39m15.39,20.23A1.74,1.74,0,0,1,174.91,87h-9.27a5.65,5.65,0,0,1-2.79-1.22,11.33,11.33,0,0,1-2.44-2.75,1.18,1.18,0,0,0-.12-.27h14.42a1.81,1.81,0,0,1,1.92,1.69Zm0-30.64h-14.2l.86-.51h13C176.35,54.32,176.58,54.65,176.58,54.83Zm-.64-1H163.83a5.08,5.08,0,0,1,1.72-.58h9.08C175.66,53.27,175.94,53.85,175.94,53.85Z" transform="translate(-7.42 -7.53)"/><polygon class="cls-65" points="157.68 74.8 152.66 74.8 152.32 74.21 157.26 74.21 157.68 74.8"/><polygon class="cls-66" points="157.11 73.86 152.16 73.86 151.88 73.27 156.74 73.27 157.11 73.86"/><path class="cls-67" d="M107.78,53.3h10.53a7.09,7.09,0,0,1,4.64,2,8.22,8.22,0,0,1,2.82,4.34v.4H121.1a3.86,3.86,0,0,0-1.37-1.65,3.33,3.33,0,0,0-1.93-.87h-9.1v1.57h-4.49v-3ZM108.7,61h-4.49v-.51h4.49Zm0,.94h-4.49v-.55h4.49Zm0,.94h-4.49v-.51h4.49Zm0,.95h-4.49v-.47h4.49Zm0,.94h-4.49v-.51h4.49Zm0,.94h-4.49v-.51h4.49Zm0,.94h-4.49V66.1h4.49Zm-4.49,3.93v-.9h.39c.84.84,2.24,2.23,4.1,4.06v9h4.63q1.82,1.84,3.85,3.77h3.38a10.41,10.41,0,0,1-2.24.59h-14.1V75.1m0-19.94v-1a1,1,0,0,1,.85-.9h1.61Zm21.76,21V77m-.2.38V78H124.6a24.25,24.25,0,0,1-2.36-2.32,18.79,18.79,0,0,0-3.34-3,6,6,0,0,0-2.71-.39h-6.45L105.27,68h-1.06V67h4.49v1h12.94l1.78,1.72-.28.31A4.26,4.26,0,0,1,125,71.8a5.38,5.38,0,0,1,.77,3.09m-1.45-6.15-.55.57-1.86-1.72H119l.92-.61h2.46ZM121.14,86.1h-3.61c-.27,0-1.47-1.14-3.62-3.42h3.89a4.58,4.58,0,0,0,1-.31s1.85-1.2,2-1.38h5a8.62,8.62,0,0,1-2.06,3.4A5,5,0,0,1,121.14,86.1Zm4.63-7.58,0,1h-4.38c.11-.39,0-4.08,0-4.08l3.13,3.1Zm0-17.56h-4.66v-.59h4.66Zm0,.94h-4.66v-.55h4.66Zm0,2.2c-.39-.42-1.21-1.26-1.21-1.26h-3.45v-.55h4.66Z" transform="translate(-7.42 -7.53)"/><path class="cls-68" d="M104.88,53.3" transform="translate(-7.42 -7.53)"/><rect class="cls-69" x="96.79" y="51.98" width="4.49" height="0.55"/><path class="cls-70" d="M106.67,53.3" transform="translate(-7.42 -7.53)"/><path class="cls-71" d="M121.11,63.27h3.21l1.45,1.56a9.82,9.82,0,0,1-.42,2.18,6.79,6.79,0,0,1-.76,1.33l-2-1.78h-2.48a5.4,5.4,0,0,0,.9-1.61A12.16,12.16,0,0,0,121.11,63.27Z" transform="translate(-7.42 -7.53)"/><path class="cls-72" d="M143.27,78.54v6.78a2.36,2.36,0,0,1-4.48,0c0-.12,0-3,0-6.75Z" transform="translate(-7.42 -7.53)"/><path class="cls-73" d="M143.27,65V62.3l-4.48-3.81v2.85Z" transform="translate(-7.42 -7.53)"/><path class="cls-74" d="M143.27,66v8.76h-4.48V62.3Z" transform="translate(-7.42 -7.53)"/><path class="cls-75" d="M138.79,75.29v.56h4.47c0-.2,0-.36,0-.56Z" transform="translate(-7.42 -7.53)"/><path class="cls-76" d="M138.79,76.35v.54h4.48c0-.65,0,.15,0-.54Z" transform="translate(-7.42 -7.53)"/><path class="cls-77" d="M138.79,77.43V78h4.48v-.6Z" transform="translate(-7.42 -7.53)"/><path class="cls-78" d="M143.27,61.19V57.5h8.37a1.94,1.94,0,0,0,1.74-2.18,1.9,1.9,0,0,0-2-2.1h-21s-1.65,0-1.65,2.1,1.65,2.1,1.65,2.1h8.46Z" transform="translate(-7.42 -7.53)"/><path class="cls-79" d="M202,72a6.12,6.12,0,0,1-4.4,2H186.54v2.59H183c-.13,0-.33-.15-.59-.45a1.34,1.34,0,0,1-.39-.65V53.18h1.53V67.4c0,.21.67,1,2,2.28s2,1.93,2.26,2.1a1.62,1.62,0,0,0,.93.26Zm-15.55,5.58h-4c-.21-.21-.35-.32-.43-.32v-.9a6.62,6.62,0,0,0,.9.71h3.54Zm0,.94H182v-.83a1.18,1.18,0,0,0,.47.32h4Zm0,.94H182v-.51h4.44Zm0,.94H182v-.51h4.44Zm0,.91H182V80.8h4.44Zm0,.47-.08.55H182v-.55Zm0,2.47H182V82.68h4.44Zm0,1c0,.27-.22.59-.65,1a2.57,2.57,0,0,1-1.08.67,2.66,2.66,0,0,1-.51,0,2.45,2.45,0,0,1-1.42-.51A1.5,1.5,0,0,1,182,85.2v-.67h4.48Zm3.23-27.69H186.5V68.07c-.76-.68-1.14-1.13-1.14-1.34V53.18h1c0,.19,0,1,0,1Zm-3-3.49v-.87h9.9a9.73,9.73,0,0,1,4.84,1.57,5.73,5.73,0,0,1,2,3h-4s-.34.31-.63.6q-.71-.75-1.14-.75h-7.34Zm17.09,14.59a2.93,2.93,0,0,1-1.53,1.63H188.74c-.08,0-.28-.17-.59-.51h9.54a.58.58,0,0,0,.32-.18.54.54,0,0,1,.31-.18h3.82c.63-.6,1.64-1.65,1.64-1.65S203.79,68.29,203.78,68.64Zm0-2.57-2.05,2h-2.31v-.59h2.12s1.74-1.72,2.24-2.24Z" transform="translate(-7.42 -7.53)"/><polygon class="cls-80" points="196.36 59.06 196.35 59.74 194.62 61.53 191.27 61.53 191.89 60.94 194.44 60.94 196.35 59.02 196.36 59.06"/><path class="cls-81" d="M203.78,59V64.8l-2.34,2.33h-2V59.37a2,2,0,0,0-.32-.81l.54-.52h4.13v1Z" transform="translate(-7.42 -7.53)"/><path class="cls-82" d="M220.29,72" transform="translate(-7.42 -7.53)"/><polyline class="cls-83" points="212.86 64.49 213.12 65.44 217.54 65.44 217.27 64.48 212.86 64.49"/><path class="cls-84" d="M214.59,73.56l-.54,1.78h7.15l-.55-1.93h4.44s3.11,10.34,3.29,11.14a1.87,1.87,0,0,1-1.22,2.32c-1.57.5-2.19-.05-2.6-.74-.2-.34-2.09-6.32-2.09-6.32h-9.71S211.2,85,210.87,86c-.11.36-.59,1.32-2.57,1s-1.4-3-1.4-3l3.23-10.61.13-.43.38-1.25,1.51,1.8Z" transform="translate(-7.42 -7.53)"/><polygon class="cls-85" points="205 65.45 207.34 65.45 207.63 64.48 205.51 64.48 203.76 62.41 203.39 63.62 205 65.45"/><path class="cls-86" d="M211.36,69.4s4.39-15,4.46-15.22c.16-.48.62-.88,1.83-.88,1.06,0,1.63.36,1.83.88.06.16,5.08,17.37,5.08,17.37h-4.39l-2.45-8.27-2.53,8.29h-2Z" transform="translate(-7.42 -7.53)"/><path class="cls-87" d="M233.31,54.15v8.08c-.37-.48-1-1.1-1.75-2V55a1.56,1.56,0,0,1,.53-.89,3.3,3.3,0,0,1,1.22-.9ZM244.68,78h-4.44V73.37h4.44Zm0,.93h-4.44v-.47h4.44Zm0,1h-4.44v-.48h4.44Zm0,.91h-4.44v-.48h4.44Zm0,.94h-4.44v-.47h4.44Zm0,.94h-4.44v-.43h4.44Zm0,.9h-4.44v-.43h4.44Zm-4.44,1.82V84.06h4.44v1.29a2.3,2.3,0,0,1-4.44.05Z" transform="translate(-7.42 -7.53)"/><path class="cls-88" d="M240.24,71.64h4.44v-.82l8.64-10.65,0-5.32A2.26,2.26,0,0,0,249,55v3.34l-6.52,8.17-6.36-8.2s-.06-2.42-.05-3.23A2.09,2.09,0,0,0,235,53.46V64.08l5.27,6.73Z" transform="translate(-7.42 -7.53)"/></g></svg>