<svg id="Calque_1" data-name="Calque 1" xmlns="http://www.w3.org/2000/svg" viewBox="0 0 1631.92 569.25"><defs><style>.cls-1,.cls-2,.cls-3,.cls-4,.cls-5{fill:none;stroke:#fff;stroke-miterlimit:10;}.cls-1{stroke-width:2px;}.cls-2{stroke-width:5px;}.cls-3{stroke-width:4px;}.cls-4{stroke-width:1.7px;}.cls-5{stroke-width:3px;}.cls-6{fill:#fff;}</style></defs><title>1730x1070 - Blanc</title><polyline class="cls-1" points="313.86 92.39 297.81 77.73 297.81 56.92"/><polyline class="cls-2" points="313.86 173.4 313.86 73.58 329.8 58.33 329.8 30.91"/><line class="cls-1" x1="129.3" y1="96.46" x2="129.3" y2="81.6"/><polyline class="cls-1" points="143.85 196.35 163.25 170.53 163.25 139.1"/><polyline class="cls-1" points="105.39 144.52 81.01 126.43 81.01 94.51"/><polyline class="cls-1" points="209.88 145.38 178.55 113.15 145.93 113.15 119.26 86.38 119.26 70.6"/><polyline class="cls-1" points="230.29 92.39 230.29 51.01 258.14 24.51 258.14 8.38"/><polyline class="cls-1" points="214.41 53.35 194.2 34.52 194.2 19.34"/><line class="cls-1" x1="194.2" y1="99.65" x2="194.2" y2="68.43"/><polyline class="cls-1" points="249.89 145.38 276.03 119.51 276.03 80.25"/><polyline class="cls-1" points="249.89 130.94 266.38 115.1 266.38 89.03"/><polyline class="cls-1" points="313.86 117.19 352.25 86.47 352.25 53.5"/><polyline class="cls-1" points="315.11 132.12 363.14 94.22 363.14 67.18"/><line class="cls-1" x1="428.97" y1="116.5" x2="467.05" y2="77.73"/><polyline class="cls-3" points="342.24 145.38 384.63 145.38 410.93 116.5 460.68 116.5"/><polyline class="cls-3" points="471.65 281.94 471.65 220.57 505.6 178.66 505.6 143.28"/><polyline class="cls-1" points="409.5 304.88 409.5 242.97 446.21 206.74 446.21 164.56"/><polyline class="cls-3" points="280.39 273.33 303.82 251.81 303.82 184.4 395.63 91.16 395.63 26.47"/><polyline class="cls-3" points="280.45 337.39 384.63 231.73 384.63 196.35"/><polyline class="cls-2" points="296.17 499.54 296.17 397.65 364.55 328.8 385.58 328.8 432.44 281.94 494.12 281.94 551.98 223.6"/><polyline class="cls-2" points="280.39 499.54 280.39 231.95 209.88 160.96 209.88 116.38 163.54 68.86 163.54 28.38"/><polyline class="cls-3" points="164.95 300.32 166.85 213.51 105.39 167.66 105.39 113.15"/><polyline class="cls-1" points="279.1 312.46 247.55 284.16 228.28 266.87 228.28 229.82"/><line class="cls-1" x1="252.66" y1="288.75" x2="252.66" y2="258.51"/><polyline class="cls-1" points="41.24 191.01 42.28 167.66 30.8 153.32 30.8 135.47"/><line class="cls-1" x1="162.74" y1="162.01" x2="144.29" y2="147.34"/><circle class="cls-4" cx="228.28" cy="225.66" r="4.16"/><circle class="cls-4" cx="252.66" cy="255" r="4.16"/><circle class="cls-4" cx="119.26" cy="65.91" r="4.16"/><circle class="cls-4" cx="141.59" cy="144.49" r="4.16"/><circle class="cls-4" cx="163.25" cy="135.47" r="4.16"/><polyline class="cls-1" points="51.37 230.99 81.01 206.74 81.01 173.4"/><polyline class="cls-3" points="248.5 199.84 248.5 113.15 214.41 77.73 214.41 15.46"/><circle class="cls-4" cx="446.21" cy="161.05" r="4.16"/><circle class="cls-4" cx="352.25" cy="49.72" r="4.16"/><circle class="cls-4" cx="363.14" cy="63.7" r="4.16"/><circle class="cls-5" cx="329.8" cy="23.55" r="9.05"/><circle class="cls-5" cx="395.63" cy="18.77" r="9.05"/><circle class="cls-5" cx="505.6" cy="136.03" r="9.05"/><circle class="cls-5" cx="556.72" cy="216.74" r="9.05"/><circle class="cls-5" cx="163.54" cy="19.34" r="9.05"/><circle class="cls-4" cx="81.01" cy="90.47" r="4.16"/><circle class="cls-1" cx="105.2" cy="106.11" r="6.16"/><circle class="cls-1" cx="384.63" cy="191.01" r="6.16"/><circle class="cls-4" cx="194.2" cy="63.99" r="4.16"/><circle class="cls-4" cx="194.2" cy="15.46" r="4.16"/><circle class="cls-4" cx="276.03" cy="76.48" r="4.16"/><circle class="cls-4" cx="266.38" cy="85.39" r="4.16"/><circle class="cls-1" cx="214.41" cy="10.44" r="6.16"/><circle class="cls-4" cx="258.14" cy="5.01" r="4.16"/><circle class="cls-4" cx="297.81" cy="53.5" r="4.16"/><circle class="cls-4" cx="469.33" cy="74.65" r="4.16"/><circle class="cls-1" cx="466.67" cy="115.92" r="6.16"/><polyline class="cls-1" points="50.89 252.06 50.89 200.65 39.41 189.18 23.63 173.4"/><polyline class="cls-2" points="264.48 499.39 264.48 368.4 217.06 320.98 185.62 320.98 137.7 273.06 69.81 273.06 15.9 218.66"/><circle class="cls-4" cx="30.8" cy="131.87" r="4.16"/><circle class="cls-4" cx="21.57" cy="170.79" r="4.16"/><circle class="cls-4" cx="81.01" cy="170.14" r="4.16"/><circle class="cls-5" cx="10.55" cy="211.24" r="9.05"/><circle class="cls-4" cx="129.3" cy="77.73" r="4.16"/><path class="cls-6" d="M876,764.44a9.66,9.66,0,0,0-6.9-2.86,9.77,9.77,0,0,0-9.4,7.16H689l-21.59,21.6H641.74L612.45,761H446.71l-37.88-37.88H229.55a9.77,9.77,0,1,0,0,5.19H406.69l37.87,37.88H610.3l29.29,29.3h29.92l21.59-21.6H859.71a9.75,9.75,0,1,0,16.3-9.49ZM220.19,732.08a6.28,6.28,0,1,1,6.27-6.27A6.28,6.28,0,0,1,220.19,732.08Zm649.07,45.29a6.28,6.28,0,1,1,6.27-6.28A6.28,6.28,0,0,1,869.26,777.37Z" transform="translate(-47.63 -226.27)"/><path class="cls-6" d="M679.1,641.43a9.77,9.77,0,0,0-9.76,9.76,10.1,10.1,0,0,0,.11,1.35l-66.7,66.69H550.22l-24.43,24.43a9.74,9.74,0,0,0-14.57,8.48,9.77,9.77,0,0,0,19.52,0,9.68,9.68,0,0,0-1.28-4.81l22.91-22.91H604.9l66.84-66.84A9.74,9.74,0,0,0,679.1,661h0a9.76,9.76,0,1,0,0-19.52ZM521,758.47a6.28,6.28,0,1,1,6.27-6.28A6.28,6.28,0,0,1,521,758.47ZM679.22,657.42a6.28,6.28,0,1,1,6.28-6.27A6.27,6.27,0,0,1,679.22,657.42Z" transform="translate(-47.63 -226.27)"/><path class="cls-6" d="M1053.1,708.89c-.17-.33-.8-1.4-1-1.74-8.27-16-20.36-39.76-23-46.83-2.92-7.88-1.92-14.58-1.93-23.51,0-8.46,2.43-15.85,6.8-24,3-5.63,6.66-13,10.53-20.95l2.76-5.64,2.76-5.62,16.26,31c-.22.41-.45.81-.67,1.2-6.37,11.21-11,17.93-11.18,24.77,0,2.26-.14,6.21.89,9,7.37,20.14,21.35,46.61,30.06,62.33" transform="translate(-47.63 -226.27)"/><path class="cls-6" d="M1051.33,577.65q8.67-16.56,14.09-26.16,4.95-8.88,8.09-8.88h96.57v3.92c0,7-6,12-12.95,12h-58.05q-3.12,0-7.3,6.26-1.3,2.09-5,8.09l-2.6,5.22-11.51,21.54-4.94,9.26m102.29,134.38c0,5.56-5.74,10.47-11.46,10.47H1097q-6.52,0-18.53-8.09c-8-5.4-16.18-18.27-16.18-18.27a15.53,15.53,0,0,0-.79-1.83h95.79c7,0,12.77,4.89,12.77,11.25Zm-.38-203.55h-94.34l5.74-3.39h86.17C1168.18,536.35,1169.68,538.53,1169.68,539.74Zm-4.21-6.52H1085s7.2-3.81,11.44-3.81h60.28C1163.6,529.41,1165.47,533.22,1165.47,533.22Z" transform="translate(-47.63 -226.27)"/><polygon class="cls-6" points="1045.78 496.17 1012.45 496.17 1010.22 492.25 1043.04 492.25 1045.78 496.17"/><polygon class="cls-6" points="1042.03 489.91 1009.16 489.91 1007.25 485.99 1039.56 485.99 1042.03 489.91"/><path class="cls-6" d="M712.61,529.56h69.95q15.39,0,30.8,13.44t18.79,28.85v2.6H801.09q-1.83-5.21-9.13-11t-12.79-5.74H718.69v10.44H688.87V548.1Zm6.08,50.9H688.87v-3.39h29.82Zm0,6.26H688.87v-3.65h29.82Zm0,6.27H688.87v-3.4h29.82Zm0,6.26H688.87v-3.13h29.82Zm0,6.26H688.87v-3.39h29.82Zm0,6.27H688.87v-3.39h29.82Zm0,6.26H688.87v-3.39h29.82Zm-29.82,26.1v-6h2.6c5.57,5.57,14.89,14.78,27.24,27l-.09,28.63v31.06h30.79q12,12.27,25.58,25.05h22.45q-12,3.92-14.88,3.92H688.87V674.41m0-132.5v-6.35c0-2.64,3.12-6,5.64-6h10.72ZM833.46,681.2v6m-1.31,2.55v3.71h-7.83q-.78,0-15.66-15.4T786.47,658.5q-5.22-2.88-18-2.62h-9.14l-33.69-.09-29.73-28.61-7-.09v-6.44h29.82v6.53h86l11.8,11.45-1.83,2A28.36,28.36,0,0,1,827,652.46c5,8.67,5.14,14.56,5.14,20.54m-9.66-40.86L818.82,636l-12.33-11.44-19.5,0,6.1-4.08h16.34ZM801.35,747.5h-24q-2.61,0-24-22.71h25.84c.69,0,2.87-.7,6.52-2.09,0,0,12.24-8,13.57-9.14h32.93c0,1.74-4.11,12-13.68,22.56C810.61,744.82,802.92,747.5,801.35,747.5Zm30.8-50.38.08,6.38H803.18c.69-2.61-.19-27.11-.19-27.11L823.82,697Zm0-116.66h-31v-3.92h31Zm0,6.26h-31v-3.65h31Zm0,14.62c-2.61-2.78-8.09-8.35-8.09-8.35H801.17v-3.66h31Z" transform="translate(-47.63 -226.27)"/><path class="cls-6" d="M693.3,529.56" transform="translate(-47.63 -226.27)"/><rect class="cls-6" x="641.23" y="344.53" width="29.82" height="3.65"/><path class="cls-6" d="M705.21,529.56" transform="translate(-47.63 -226.27)"/><path class="cls-6" d="M801.17,595.84h21.32l9.66,10.35s-.6,8.35-2.81,14.47a44.82,44.82,0,0,1-5,8.84l-13-11.84-16.5.07s5.33-6.75,6-10.7A80.83,80.83,0,0,0,801.17,595.84Z" transform="translate(-47.63 -226.27)"/><path class="cls-6" d="M948.36,697.25v45c0,3.26-5,10.46-14.47,10.65s-15.28-6.74-15.24-10.81c0-.85,0-20.06,0-44.89Z" transform="translate(-47.63 -226.27)"/><path class="cls-6" d="M948.36,607.56V589.34l-29.75-25.27V583Z" transform="translate(-47.63 -226.27)"/><path class="cls-6" d="M948.36,614v58.21H918.64v-11c0-29.6,0-54.26,0-71.78Z" transform="translate(-47.63 -226.27)"/><path class="cls-6" d="M918.64,675.67v3.74h29.7c0-1.33,0-2.39,0-3.74Z" transform="translate(-47.63 -226.27)"/><path class="cls-6" d="M918.64,682.72c0,5.37,0-1.43,0,3.61h29.71c0-4.32,0,1,0-3.61Z" transform="translate(-47.63 -226.27)"/><path class="cls-6" d="M918.65,689.89v4h29.71v-4Z" transform="translate(-47.63 -226.27)"/><path class="cls-6" d="M948.36,582V557.49H1004s11.58-.51,11.58-14.48c0-15.1-13.61-14-13.61-14H862.44s-11,0-11,14c0,13.76,11,14,11,14h56.19Z" transform="translate(-47.63 -226.27)"/><path class="cls-6" d="M1338.68,653.54c-5.22,5.39-15,13.57-29.23,13.57h-73.6v17.22h-23.49c-.88,0-2.18-1-3.91-3s-2.62-3.43-2.62-4.3V528.78H1216v94.48q0,2.09,13.32,15.14,12.51,12.27,15,14a10.62,10.62,0,0,0,6.14,1.7ZM1235.33,690.6H1208.7c-1.39-1.39-2.35-2.09-2.87-2.09v-6a45.39,45.39,0,0,0,6,4.7h23.5Zm0,6.26h-29.5v-5.48a7.91,7.91,0,0,0,3.14,2.09h26.36Zm0,6.27h-29.5v-3.4h29.5Zm0,6.26h-29.5V706h29.5Zm0,6h-29.5v-3.13h29.5Zm0,3.13-.52,3.66h-29v-3.66Zm0,16.45h-29.5V724.79h29.5Zm.26,6.78c0,1.74-1.43,3.92-4.31,6.53s-5.27,4.09-7.18,4.44a13.74,13.74,0,0,1-3.39.26,16,16,0,0,1-9.4-3.4q-5.47-3.65-5.48-8.09v-4.43h29.76Zm21.48-184h-21.48v70c-5-4.53-7.57-7.48-7.57-8.88v-90h6.79c0,1.27,0,6.87,0,6.87Zm-20.17-23.22v-5.75h47.76s11.31,0,18,0,24.26,3.83,32.1,10.44,12.35,13.52,13.57,19.61l-26.61-.08s-2.27,2-4.18,4q-4.71-5-7.58-5h-48.81Zm113.52,96.94c0,3.29-7.78,10.85-10.17,10.85h-89.78c-.53,0-1.84-1.14-3.92-3.4H1310a3.64,3.64,0,0,0,2.08-1.18,3.73,3.73,0,0,1,2.1-1.17h25.37c4.18-4,10.9-11,10.9-11S1350.45,629.15,1350.42,631.47Zm0-17.08-13.65,13.31h-15.32v-3.93h14.1s11.57-11.38,14.87-14.86Z" transform="translate(-47.63 -226.27)"/><polygon class="cls-6" points="1302.79 391.57 1302.76 396.09 1291.24 408.02 1268.98 408.02 1273.1 404.1 1290.03 404.1 1302.75 391.33 1302.79 391.57"/><path class="cls-6" d="M1350.42,567.67l0,38.32-15.56,15.44h-13.37V578.31l0-4.14s0-3.23,0-4.25c0-2-2.17-5.38-2.17-5.38l3.58-3.49,27.47.11v6.51Z" transform="translate(-47.63 -226.27)"/><path class="cls-6" d="M1460.09,653.92" transform="translate(-47.63 -226.27)"/><polyline class="cls-6" points="1412.45 427.65 1414.12 433.97 1443.55 433.98 1441.73 427.62 1412.45 427.65"/><path class="cls-6" d="M1422.22,664.2,1418.68,676h47.45l-3.61-12.79H1492s20.62,68.72,21.88,74c.95,4,.68,12.66-8.13,15.41-10.44,3.27-14.58-.38-17.25-4.95-1.33-2.27-13.92-42-13.92-42h-64.52s-10.36,34.58-12.52,41.28c-.77,2.39-3.92,8.8-17.08,6.63-14.1-2.32-9.29-20-9.29-20l21.4-70.47.88-2.88L1396,652,1406,664Z" transform="translate(-47.63 -226.27)"/><polygon class="cls-6" points="1360.19 434.04 1375.76 434.04 1377.69 427.62 1363.61 427.63 1351.97 413.81 1349.53 421.85 1360.19 434.04"/><path class="cls-6" d="M1400.77,636.57s29.18-99.69,29.65-101.15c1-3.21,4.11-5.85,12.14-5.85,7,0,10.86,2.37,12.19,5.85.4,1,33.76,115.44,33.76,115.44h-29.18l-16.31-55-16.78,55h-13.37Z" transform="translate(-47.63 -226.27)"/><path class="cls-6" d="M1546.62,535.23v53.65c-2.44-3.14-6.45-7.28-11.66-13.54V541.05c0-1.39,1.17-3.35,3.53-5.87s5.35-5.11,8.13-6Zm75.51,158.5-29.5,0V662.92h29.5Zm0,6.23-29.5,0v-3.13h29.5Zm0,6.26h-29.5v-3.14l29.5,0Zm0,6h-29.44l-.06-3.15,29.5,0Zm0,6.26h-29.5v-3.13h29.5Zm0,6.27-29.5,0V721.9l29.5,0Zm0,6h-29.5v-2.87l29.5,0Zm-29.49,12.07v-8.9h29.49v8.62c0,5.51-5.93,11.48-14.88,11.48C1598.56,754,1592.64,748,1592.64,742.82Z" transform="translate(-47.63 -226.27)"/><path class="cls-6" d="M1592.64,651.45h29.49V646l57.42-70.73-.15-35.39s-2.06-10.33-14.64-10.28a13.77,13.77,0,0,0-14.18,11.48v22.18l-43.33,54.29L1565,563.09s-.39-16.12-.29-21.52c.12-6.92-7.22-10.91-7.22-10.91l.06,70.51,35,44.77Z" transform="translate(-47.63 -226.27)"/></svg>