<?xml version="1.0" standalone="no"?>
<!DOCTYPE svg PUBLIC "-//W3C//DTD SVG 20010904//EN"
 "http://www.w3.org/TR/2001/REC-SVG-20010904/DTD/svg10.dtd">
<svg version="1.0" xmlns="http://www.w3.org/2000/svg"
 width="583.000000pt" height="334.000000pt" viewBox="0 0 583.000000 334.000000"
 preserveAspectRatio="xMidYMid meet">

<g transform="translate(0.000000,334.000000) scale(0.100000,-0.100000)"
fill="#000000" stroke="none">
<path d="M1964 3282 c-6 -4 -120 -170 -253 -369 l-241 -363 -566 -2 -567 -3
-83 -213 c-46 -118 -86 -222 -89 -233 -6 -18 3 -19 238 -21 l243 -3 -87 -185
c-48 -102 -185 -392 -304 -645 -119 -253 -217 -463 -218 -467 -1 -5 217 -8
485 -8 268 0 489 -4 492 -8 2 -4 -67 -164 -154 -356 -128 -282 -157 -353 -149
-368 6 -11 19 -18 30 -16 14 2 113 129 293 373 l272 370 774 2 775 2 3 231 2
230 -250 0 -250 0 0 105 0 105 235 0 235 0 0 220 0 220 -232 2 -233 3 -3 98
-3 97 241 0 240 0 0 235 0 235 -540 0 c-297 0 -540 2 -540 4 0 3 58 161 130
352 122 326 129 349 113 366 -18 20 -23 21 -39 10z m-335 -871 c-156 -417
-189 -514 -179 -526 10 -13 57 -15 286 -15 150 0 275 -3 277 -7 3 -5 -235
-333 -527 -730 -461 -627 -578 -783 -553 -738 3 6 100 219 216 474 129 283
209 471 206 481 -3 10 -17 21 -31 24 -14 4 -139 6 -279 6 -140 -1 -255 2 -254
7 0 13 1020 1546 1024 1541 3 -3 -81 -235 -186 -517z"/>
<path d="M5081 2580 c-214 -45 -350 -153 -412 -325 -17 -47 -22 -84 -23 -170
0 -118 7 -151 56 -250 51 -102 120 -176 289 -310 134 -107 159 -136 159 -180
0 -55 -37 -79 -128 -83 -75 -4 -289 26 -347 48 l-25 10 0 -269 0 -269 68 -16
c155 -35 213 -41 392 -41 208 0 259 10 388 71 218 104 328 369 262 628 -41
161 -137 288 -349 466 -111 92 -127 119 -92 153 20 20 32 22 146 21 l125 0 0
247 0 247 -77 12 c-101 15 -376 22 -432 10z"/>
<path d="M3010 1723 l0 -828 23 -40 c14 -26 37 -48 67 -63 l44 -22 602 0 c402
0 612 4 631 11 38 14 83 57 99 96 12 27 14 178 14 853 l0 820 -285 0 -285 0 0
-600 c0 -579 -1 -601 -19 -619 -25 -25 -90 -35 -196 -29 -138 7 -125 -61 -125
645 l0 603 -285 0 -285 0 0 -827z"/>
</g>
</svg>
