<svg id="svg" version="1.1" xmlns="http://www.w3.org/2000/svg" xmlns:xlink="http://www.w3.org/1999/xlink" width="400" height="398.1293842556508" viewBox="0, 0, 400,398.1293842556508"><g id="svgg"><path id="path0" d="M98.987 99.143 L -0.156 198.285 52.207 250.585 C 81.007 279.349,100.530 298.775,95.592 293.753 C 90.654 288.731,86.681 284.452,86.763 284.244 C 87.170 283.211,115.479 218.375,115.576 218.254 C 115.638 218.176,117.753 220.140,120.276 222.617 C 122.799 225.094,118.936 221.159,111.692 213.871 L 98.520 200.621 119.876 179.267 C 131.621 167.522,141.231 157.749,141.231 157.548 C 141.231 157.347,155.610 142.896,173.183 125.435 L 205.135 93.687 248.320 93.531 L 291.505 93.375 244.817 46.688 L 198.129 0.000 98.987 99.143 " stroke="none" fill="#04c4fb" fill-rule="evenodd"></path><path id="path1" d="M173.188 125.643 C 155.698 143.133,141.529 157.462,141.700 157.485 C 141.871 157.508,151.503 157.545,163.103 157.566 L 184.196 157.605 200.048 127.985 C 208.767 111.694,216.435 97.348,217.088 96.104 L 218.276 93.843 211.632 93.843 L 204.987 93.843 173.188 125.643 M176.725 240.607 C 173.990 240.674,172.732 240.821,172.625 241.085 C 172.539 241.294,166.348 255.478,158.866 272.606 C 151.385 289.733,145.350 303.833,145.456 303.938 C 145.561 304.044,156.755 304.163,170.330 304.203 L 195.012 304.275 226.905 272.558 C 244.446 255.114,258.792 240.737,258.783 240.608 C 258.770 240.391,185.525 240.390,176.725 240.607 " stroke="none" fill="#108797" fill-rule="evenodd"></path><path id="path2" d="M286.605 93.762 C 287.598 93.824,289.141 93.823,290.035 93.760 C 290.929 93.697,290.117 93.647,288.231 93.647 C 286.345 93.648,285.613 93.699,286.605 93.762 M293.948 96.057 L 296.230 98.427 279.996 128.765 C 261.385 163.542,263.667 159.621,262.597 158.666 C 262.132 158.251,270.585 166.867,281.382 177.814 C 292.179 188.760,301.013 197.836,301.013 197.982 C 301.013 198.128,277.256 222.106,248.220 251.266 L 195.426 304.285 150.810 304.364 L 106.193 304.443 153.537 351.295 C 179.576 377.064,200.983 398.108,201.108 398.061 C 201.546 397.893,399.997 200.933,399.921 200.742 C 399.856 200.578,383.491 184.393,301.016 102.923 C 295.874 97.843,292.693 94.753,293.948 96.057 " stroke="none" fill="#2ce38c" fill-rule="evenodd"></path><path id="path3" d="M162.912 135.607 C 150.917 147.603,141.167 157.459,141.245 157.509 C 141.323 157.559,151.207 147.744,163.209 135.698 C 175.210 123.652,184.961 113.796,184.876 113.796 C 184.791 113.796,174.907 123.611,162.912 135.607 M101.094 251.339 L 86.678 284.421 87.814 285.702 C 88.439 286.407,92.798 290.877,97.501 295.635 L 106.051 304.287 126.213 304.251 C 137.303 304.231,146.130 304.150,145.830 304.072 C 145.530 303.993,145.284 303.877,145.284 303.813 C 145.284 303.749,151.401 289.695,158.877 272.581 C 166.353 255.467,172.539 241.294,172.625 241.085 C 172.732 240.821,173.990 240.674,176.725 240.607 C 178.895 240.553,171.153 240.479,159.521 240.442 L 138.372 240.374 127.161 229.384 C 120.994 223.340,115.850 218.363,115.730 218.325 C 115.609 218.288,109.023 233.144,101.094 251.339 " stroke="none" fill="#04b2e6" fill-rule="evenodd"></path><path id="path4" d="M211.610 93.823 L 218.231 93.998 201.234 125.763 C 191.885 143.234,184.318 157.610,184.419 157.711 C 184.519 157.811,202.025 157.946,223.322 158.011 C 261.968 158.129,262.043 158.131,262.742 158.775 C 263.640 159.603,261.512 163.305,279.990 128.775 L 296.219 98.447 293.871 96.034 L 291.522 93.621 248.255 93.634 C 224.458 93.641,207.968 93.726,211.610 93.823 M151.582 157.675 C 153.074 157.732,155.599 157.733,157.194 157.676 C 158.789 157.619,157.568 157.573,154.482 157.572 C 151.395 157.572,150.090 157.618,151.582 157.675 M171.877 157.675 C 173.214 157.734,175.318 157.734,176.554 157.675 C 177.789 157.616,176.695 157.568,174.123 157.568 C 171.551 157.569,170.540 157.617,171.877 157.675 M209.196 290.179 L 195.012 304.443 209.275 290.258 C 222.533 277.075,223.679 275.916,223.459 275.916 C 223.416 275.916,216.997 282.334,209.196 290.179 " stroke="none" fill="#2ad581" fill-rule="evenodd"></path></g></svg>