<svg xmlns="http://www.w3.org/2000/svg" height="193.977" width="194.219" xml:space="preserve"><path style="fill:#004581;fill-opacity:1;fill-rule:evenodd;stroke:none" d="M3185.89 2995.8c-1.77 21.49-2.76 43.2-2.76 65.16 0 411.03 319.09 747.36 723.13 774.95l-618.54-641.7c-54.62-56.68-88.55-126.08-101.83-198.41M3960 2284.09c-270.37 0-508.4 138.15-647.57 347.65l23.25-22.42c76.82-74.06 176.93-109.95 276.2-108.13 99 1.77 197.53 41.2 271.5 117.59l-177.95 171.52c-26.66-27.31-62.22-41.38-98.02-42.14-36.12-.65-72.43 12.41-100.16 39.15l-37.98 36.6c-27.69 26.66-42.04 62.45-42.7 98.57-.65 36.07 12.36 72.48 39.11 100.21l745.68 773.56c305.71-104.45 525.52-394.17 525.52-735.29 0-29.89-1.73-59.34-5.04-88.32-19.44 54.57-51.41 105.56-95.79 148.35l-37.93 36.58c-76.86 74.07-176.93 110.05-276.16 108.18-99.32-1.77-198.13-41.38-272.19-118.25l-290.74-301.59 177.95-171.53 290.74 301.61c26.71 27.73 62.64 42.04 98.72 42.74 36.12.69 72.38-12.35 100.16-39.1l37.89-36.59c27.69-26.66 42.09-62.45 42.74-98.58.61-36.03-12.4-72.48-39.1-100.21l-440.73-457.23c-22.23-1.9-44.69-2.93-67.4-2.93" transform="matrix(.125 0 0 -.125 -397.891 479.489)"/><path style="fill:#3384b9;fill-opacity:1;fill-rule:evenodd;stroke:none" d="M4376.22 2292.8h360.66v433.41c-17.35-55.88-47.59-108.64-90.81-153.48l-269.85-279.93" transform="matrix(.125 0 0 -.125 -397.891 479.489)"/></svg>