<?xml version="1.0" encoding="UTF-8" standalone="no"?>
<svg
   xmlns:dc="http://purl.org/dc/elements/1.1/"
   xmlns:cc="http://creativecommons.org/ns#"
   xmlns:rdf="http://www.w3.org/1999/02/22-rdf-syntax-ns#"
   xmlns:svg="http://www.w3.org/2000/svg"
   xmlns="http://www.w3.org/2000/svg"
   xmlns:sodipodi="http://sodipodi.sourceforge.net/DTD/sodipodi-0.dtd"
   xmlns:inkscape="http://www.inkscape.org/namespaces/inkscape"
   viewBox="0 0 194.21875 193.97749"
   height="193.97749"
   width="194.21875"
   xml:space="preserve"
   version="1.1"
   id="svg2"
   inkscape:version="0.91 r13725"
   sodipodi:docname="logo1_S.svg"><sodipodi:namedview
     pagecolor="#ffffff"
     bordercolor="#666666"
     borderopacity="1"
     objecttolerance="10"
     gridtolerance="10"
     guidetolerance="10"
     inkscape:pageopacity="0"
     inkscape:pageshadow="2"
     inkscape:window-width="1920"
     inkscape:window-height="1126"
     id="namedview11"
     showgrid="false"
     inkscape:zoom="2.4679739"
     inkscape:cx="81.861935"
     inkscape:cy="123.41217"
     inkscape:window-x="0"
     inkscape:window-y="25"
     inkscape:window-maximized="1"
     inkscape:current-layer="g12"
     fit-margin-top="0"
     fit-margin-left="0"
     fit-margin-right="0"
     fit-margin-bottom="0" /><metadata
     id="metadata8"><rdf:RDF><cc:Work
         rdf:about=""><dc:format>image/svg+xml</dc:format><dc:type
           rdf:resource="http://purl.org/dc/dcmitype/StillImage" /><dc:title></dc:title></cc:Work></rdf:RDF></metadata><defs
     id="defs6"><clipPath
       clipPathUnits="userSpaceOnUse"
       id="clipPath3362"><rect
         style="fill:#0000ff;fill-rule:evenodd;stroke:#000000;stroke-width:0.80000001px;stroke-linecap:butt;stroke-linejoin:miter;stroke-opacity:1"
         id="rect3364"
         width="157.2384"
         height="157.69681"
         x="318.1441"
         y="-385.07358"
         ry="1.3752627"
         transform="scale(1,-1)" /></clipPath></defs><g
     id="g12"
     transform="matrix(0.125,0,0,-0.125,-397.89125,479.48875)"><g
       id="g3409"><path
         id="path16"
         style="fill:#004581;fill-opacity:1;fill-rule:evenodd;stroke:none"
         d="m 3185.89,2995.8 c -1.77,21.49 -2.76,43.2 -2.76,65.16 0,411.03 319.09,747.36 723.13,774.95 l -618.54,-641.7 c -54.62,-56.68 -88.55,-126.08 -101.83,-198.41"
         inkscape:connector-curvature="0" /><path
         id="path18"
         style="fill:#004581;fill-opacity:1;fill-rule:evenodd;stroke:none"
         d="m 3960,2284.09 c -270.37,0 -508.4,138.15 -647.57,347.65 l 23.25,-22.42 c 76.82,-74.06 176.93,-109.95 276.2,-108.13 99,1.77 197.53,41.2 271.5,117.59 l -177.95,171.52 c -26.66,-27.31 -62.22,-41.38 -98.02,-42.14 -36.12,-0.65 -72.43,12.41 -100.16,39.15 l -37.98,36.6 c -27.69,26.66 -42.04,62.45 -42.7,98.57 -0.65,36.07 12.36,72.48 39.11,100.21 l 745.68,773.56 c 305.71,-104.45 525.52,-394.17 525.52,-735.29 0,-29.89 -1.73,-59.34 -5.04,-88.32 -19.44,54.57 -51.41,105.56 -95.79,148.35 l -37.93,36.58 c -76.86,74.07 -176.93,110.05 -276.16,108.18 -99.32,-1.77 -198.13,-41.38 -272.19,-118.25 l -290.74,-301.59 177.95,-171.53 290.74,301.61 c 26.71,27.73 62.64,42.04 98.72,42.74 36.12,0.69 72.38,-12.35 100.16,-39.1 l 37.89,-36.59 c 27.69,-26.66 42.09,-62.45 42.74,-98.58 0.61,-36.03 -12.4,-72.48 -39.1,-100.21 L 4027.4,2287.02 c -22.23,-1.9 -44.69,-2.93 -67.4,-2.93"
         inkscape:connector-curvature="0" /><path
         id="path20"
         style="fill:#3384b9;fill-opacity:1;fill-rule:evenodd;stroke:none"
         d="m 4376.22,2292.8 360.66,0 0,433.41 c -17.35,-55.88 -47.59,-108.64 -90.81,-153.48 L 4376.22,2292.8"
         inkscape:connector-curvature="0" /></g></g></svg>