<svg id="图层_1" data-name="图层 1" xmlns="http://www.w3.org/2000/svg" viewBox="0 0 1500 1500"><defs><style>.cls-1{fill:#3075ee;}.cls-2{fill:#fff;}</style></defs><title>OKCoin-LOGO2.0</title><rect class="cls-1" width="1496.22" height="1500"/><circle class="cls-2" cx="639.7" cy="512.97" r="147.81" transform="translate(-179.47 549.23) rotate(-41.26)"/><circle class="cls-2" cx="860.19" cy="740.32" r="112.73" transform="translate(-274.68 731.75) rotate(-40.28)"/><circle class="cls-2" cx="914.19" cy="502.8" r="97.7" transform="translate(-112.92 686.09) rotate(-38.93)"/><circle class="cls-2" cx="639.7" cy="763.96" r="72.18" transform="translate(-341.12 588.3) rotate(-39.91)"/><path class="cls-2" d="M505.3,1025.77a86.62,86.62,0,0,1-5.15,30,73.1,73.1,0,0,1-14.88,24.64,69.8,69.8,0,0,1-24,16.76q-14.31,6.19-32.63,6.19T396,1097.2a69.66,69.66,0,0,1-39-41.4,91.74,91.74,0,0,1,0-60,69.45,69.45,0,0,1,39-41.51q14.31-6.19,32.63-6.19t32.63,6.19a69.9,69.9,0,0,1,24,16.76,72.92,72.92,0,0,1,14.88,24.75A86.92,86.92,0,0,1,505.3,1025.77Zm-76.7,52.87a44.44,44.44,0,0,0,19.58-4,39.56,39.56,0,0,0,14-11.14,47.62,47.62,0,0,0,8.36-16.76,81,81,0,0,0,0-41.85,47.66,47.66,0,0,0-8.36-16.76,39.56,39.56,0,0,0-14-11.14,49.35,49.35,0,0,0-39.15,0,39.51,39.51,0,0,0-14,11.14,47.61,47.61,0,0,0-8.36,16.76,81,81,0,0,0,0,41.85,47.57,47.57,0,0,0,8.36,16.76,39.51,39.51,0,0,0,14,11.14A44.42,44.42,0,0,0,428.59,1078.64Z"/><path class="cls-2" d="M525.45,1100.69V950.85H557.5v72l52.89-72h37.09l-56.1,74,60,75.82H611.76l-54.27-73.57v73.57Z"/><path class="cls-2" d="M730.37,948.15q5.72,0,11.68.56t11.56,1.56q5.61,1,10.76,2.45a55.88,55.88,0,0,1,9.27,3.45l-4.58,23a101.59,101.59,0,0,0-16.26-4.39,94.79,94.79,0,0,0-17.63-1.69q-26.1,0-40,13.33t-13.85,39.32q0,26,13.85,39.32t40,13.33a94.79,94.79,0,0,0,17.63-1.69,101.59,101.59,0,0,0,16.26-4.39l4.58,23a55.62,55.62,0,0,1-9.27,3.45q-5.15,1.45-10.76,2.45T742,1102.83q-6,.55-11.68.55-19.69,0-34.8-5.85a71.94,71.94,0,0,1-25.42-16.2,67.69,67.69,0,0,1-15.57-24.52,94.16,94.16,0,0,1,0-62.1,67.73,67.73,0,0,1,15.57-24.52A72,72,0,0,1,695.57,954Q710.68,948.15,730.37,948.15Z"/><path class="cls-2" d="M937.35,1025.77a86.62,86.62,0,0,1-5.15,30,73.1,73.1,0,0,1-14.88,24.64,69.8,69.8,0,0,1-24,16.76q-14.31,6.19-32.63,6.19T828,1097.2a69.66,69.66,0,0,1-39-41.4,91.74,91.74,0,0,1,0-60,69.45,69.45,0,0,1,39-41.51q14.31-6.19,32.63-6.19t32.63,6.19a69.9,69.9,0,0,1,24,16.76,72.92,72.92,0,0,1,14.88,24.75A86.92,86.92,0,0,1,937.35,1025.77Zm-76.7,52.87a44.44,44.44,0,0,0,19.58-4,39.56,39.56,0,0,0,14-11.14,47.62,47.62,0,0,0,8.36-16.76,81,81,0,0,0,0-41.85,47.66,47.66,0,0,0-8.36-16.76,39.56,39.56,0,0,0-14-11.14,49.35,49.35,0,0,0-39.15,0,39.51,39.51,0,0,0-14,11.14,47.61,47.61,0,0,0-8.36,16.76,81,81,0,0,0,0,41.85,47.57,47.57,0,0,0,8.36,16.76,39.51,39.51,0,0,0,14,11.14A44.42,44.42,0,0,0,860.65,1078.64Z"/><path class="cls-2" d="M990.7,1100.69H958.65V950.85H990.7Z"/><path class="cls-2" d="M1121.21,1100.69,1050,1002.6v98.09h-30.68V950.85H1050l71.21,98.09V950.85h30.68v149.84Z"/></svg>