<svg width="1719" height="292" fill="none" xmlns="http://www.w3.org/2000/svg"><path d="M1240.88 291.5v-261c0-16.569 13.43-30 30-30h183v55h-158v63h121v25c0 16.569-13.43 30-30 30h-91v63h158v55h-213ZM1569.88 55.5v236h55v-236h94V.5h-211c-16.57 0-30 13.431-30 30v25h92ZM457.881 22.5v269h55v-192l113.829 192h55.171V.5h-55v190L513.095.5h-33.214c-12.15 0-22 9.85-22 22ZM803.381 146l-97 145.5h78.721l52.279-97.5 57.5 97.5h74.5l-93.5-145.5 94-145.5H894.7L837.381 92 784.881.5h-79.5l98 145.5Z" fill="#fff"/><path fill-rule="evenodd" clip-rule="evenodd" d="M992.881 291.5v-263c0-15.464 12.539-28 27.999-28h131c35.9 0 65 29.102 65 65v35.393c0 23.725-18.33 43.417-42 45.107 23.59 1.404 42 20.944 42 44.574V226.5c0 35.898-29.1 65-65 65H992.881ZM1047.38 56h82c17.12 0 31 13.88 31 31 0 17.121-13.88 31-31 31h-82V56Zm82 118h-82v62h82c17.12 0 31-13.879 31-31 0-17.121-13.88-31-31-31ZM238.881.5h105c46.392 0 84 37.608 84 84v21c0 46.392-37.608 84-84 84h-77v102h-55v-264c0-14.912 12.088-27 27-27Zm95.5 55.5h-67v78h67c21.539 0 39-17.461 39-39 0-21.54-17.461-39-39-39Z" fill="#fff"/><path d="m25.228 224.173 60.818 67.588c70.88-64.809 46.919-104.22 44.084-109.855-2.268-4.509-51.978-63.871-76.55-92.988l-28.352 28.178c-31.754 38.322-11.34 86.413 0 107.077Z" fill="url(#a)"/><g filter="url(#b)"><path d="m119.39 171.236-83.36 67.73 68.987-83.36 14.373 15.63Z" fill="#C40537"/></g><path d="M155.27 108.368 36.028 236.187c-40.013-35.567-46.996-77.803-19.45-111.147L138.838 0 155 27c29 49 8.606 69.327.27 81.368Z" fill="url(#c)"/><g filter="url(#d)"><path d="M36.027 113.925c-48.957 46.238-16.06 100.69 2.913 119.483-27.92-102.811-16.806-91.696 60.997-177.835 0 0-13.893 11.115-63.91 58.352Z" fill="#FDD45F"/></g><defs><linearGradient id="a" x1="108.127" y1="162.181" x2="74.499" y2="305.982" gradientUnits="userSpaceOnUse"><stop stop-color="#FA1366"/><stop offset="1" stop-color="#FD6E06"/></linearGradient><linearGradient id="c" x1="152.732" y1="33.344" x2="2.684" y2="194.507" gradientUnits="userSpaceOnUse"><stop stop-color="#F91500"/><stop offset="1" stop-color="#FDD140"/></linearGradient><filter id="b" x="35.029" y="154.606" width="85.36" height="85.36" filterUnits="userSpaceOnUse" color-interpolation-filters="sRGB"><feFlood flood-opacity="0" result="BackgroundImageFix"/><feBlend in="SourceGraphic" in2="BackgroundImageFix" result="shape"/><feGaussianBlur stdDeviation=".5" result="effect1_foregroundBlur"/></filter><filter id="d" x="8.414" y="53.573" width="93.523" height="181.835" filterUnits="userSpaceOnUse" color-interpolation-filters="sRGB"><feFlood flood-opacity="0" result="BackgroundImageFix"/><feBlend in="SourceGraphic" in2="BackgroundImageFix" result="shape"/><feGaussianBlur stdDeviation="1" result="effect1_foregroundBlur"/></filter></defs></svg>