<svg xmlns="http://www.w3.org/2000/svg" viewBox="0 0 629 629"><defs><linearGradient id="a" x1="81.36" y1="311.35" x2="541.35" y2="311.35" gradientUnits="userSpaceOnUse"><stop offset=".18" stop-color="#00f"/><stop offset="1" stop-color="#f0f"/></linearGradient></defs><path d="M326.4 572.09C201.2 572.09 141 503 112.48 445c-28.22-57.53-30.59-114.56-30.79-122.69-4.85-77 41-231.78 249.58-271.2a28.05 28.05 0 0 1 10.41 55.13c-213.12 40.28-204.44 206-204 213 0 .53.06 1.06.07 1.6.15 7.9 5.1 195.16 188.65 195.16 68.34 0 116.6-29.4 143.6-87.37 24.48-52.74 19.29-112.45-13.52-155.83-22.89-30.27-52.46-45-90.38-45-34.46 0-63.47 9.88-86.21 29.37A91.5 91.5 0 0 0 248 322.3c-1.41 25.4 7.14 49.36 24.07 67.49C287.27 406 305 413.9 326.4 413.9c27.46 0 45.52-9 53.66-26.81 8.38-18.3 3.61-38.93-.19-43.33-9.11-10-18.69-13.68-22.48-13-2.53.43-5.78 4.61-8.48 10.92a28 28 0 0 1-51.58-22c14.28-33.44 37.94-42 50.76-44.2 24.78-4.18 52.17 7.3 73.34 30.65s25.51 68.55 10.15 103.22C421.54 432 394.52 470 326.4 470c-36.72 0-69.67-14.49-95.29-41.92-27.47-29.4-41.34-68.08-39.11-108.89a149.1 149.1 0 0 1 51.31-104.6c33.19-28.45 74.48-42.87 122.71-42.87 55.12 0 101.85 23.25 135.12 67.23 45.36 60 52.9 141.71 19.66 213.3-25.35 54.67-79.68 119.84-194.4 119.84Z" style="fill:url(#a)"/></svg>
