<svg fill="none" height="151" width="151" xmlns="http://www.w3.org/2000/svg"><linearGradient id="a" gradientUnits="userSpaceOnUse" x1=".005" x2="150.005" y1="75" y2="75"><stop offset="0" stop-color="#f0f"/><stop offset="1" stop-color="#00f"/></linearGradient><path d="M13.665 122.69a13.663 13.663 0 00-9.658 3.994 13.653 13.653 0 00-4.002 9.656 13.662 13.662 0 0013.655 14.03 13.656 13.656 0 009.789-4.133 13.66 13.66 0 003.866-9.897 13.65 13.65 0 00-13.65-13.65zm81.72-61.35H.005v27.32h95.38zm-81.72-34A13.66 13.66 0 10.005 13.66a13.65 13.65 0 0013.66 13.65zm121-27.31h-80v27.31h95.34v-12A15.34 15.34 0 00134.665 0zm-80 150h80a15.335 15.335 0 0010.858-4.504 15.346 15.346 0 004.482-10.866v-12h-95.38zm81.72-88.66a13.658 13.658 0 00-13.44 16.311 13.665 13.665 0 0010.739 10.747A13.66 13.66 0 00150.005 75a13.66 13.66 0 00-13.66-13.66z" fill="url(#a)"/></svg>
