<svg xmlns="http://www.w3.org/2000/svg" width="1058.033" height="1058" style="shape-rendering:geometricPrecision;text-rendering:geometricPrecision;image-rendering:optimizeQuality;fill-rule:evenodd;clip-rule:evenodd"><path style="fill:#1e2127;fill-opacity:1;pointer-events:none" d="M0 0h1058.033v1058H0z"/><g transform="matrix(2.97937 0 0 2.97937 -83.588 321.15)"><path d="M0 0h402.77v163.14H0V0Z" class="cls-1" style="fill:#1e2127"/><path class="cls-2" d="M155.29 89.63h10.53c.84 0 1.22-.64.9-1.48l-17.6-42a2 2 0 0 0-2.12-1.32h-14.55a2 2 0 0 0-2 1.34l-19.63 46.77c-.32.84.06 1.48.83 1.48h13.7a1.43 1.43 0 0 1 1.32 1.93l-9.7 24.8 30.55-32.63a1 1 0 0 0-.7-1.69h-17.27a1.42 1.42 0 0 1-1.44-1.4 1.27 1.27 0 0 1 .12-.6l5.06-12.91 6.86-17.47L146.93 72h-7.54a1.42 1.42 0 0 0-1.32.9l-2.83 7.22a1.43 1.43 0 0 0 .81 1.84 1.52 1.52 0 0 0 .51.09h13.26a1.42 1.42 0 0 1 1.33.91l2.08 5.36a1.92 1.92 0 0 0 2.06 1.31Zm62.65 0h37.42a1.3 1.3 0 0 0 1.45-1.12.94.94 0 0 0 0-.29v-7.49a1.31 1.31 0 0 0-1.17-1.42 1.51 1.51 0 0 0-.3 0h-26V46.24a1.35 1.35 0 0 0-1.28-1.42H217.9a1.29 1.29 0 0 0-1.46 1.11 1 1 0 0 0 0 .3v42a1.29 1.29 0 0 0 1.19 1.4 1.16 1.16 0 0 0 .31 0Zm45.36 0h42a1.3 1.3 0 0 0 1.51-1 1.45 1.45 0 0 0 0-.36v-7.54a1.32 1.32 0 0 0-1.2-1.42h-30.85V72h25.59a1.33 1.33 0 0 0 1.47-1.17 1.77 1.77 0 0 0 0-.23v-7a1.34 1.34 0 0 0-1.24-1.42h-25.82v-7h30.59a1.31 1.31 0 0 0 1.47-1.18 1.71 1.71 0 0 0 0-.32v-7.44a1.31 1.31 0 0 0-1.17-1.42 1.51 1.51 0 0 0-.3 0h-42a1.31 1.31 0 0 0-1.52 1 1.53 1.53 0 0 0 0 .37v42a1.3 1.3 0 0 0 1.19 1.4 1.41 1.41 0 0 0 .28.04Zm-146.69-44.8h-10.18a1.71 1.71 0 0 0-1.85 1.41L96.9 79.13l-7.17-32.89a1.65 1.65 0 0 0-1.79-1.41H75.2a1.71 1.71 0 0 0-1.85 1.41l-7.17 32.89-7.68-32.89a1.65 1.65 0 0 0-1.79-1.41H46c-.9 0-1.28.51-1.09 1.41l10.88 42a1.69 1.69 0 0 0 1.79 1.41h15.64A1.65 1.65 0 0 0 75 88.24l6.27-28.31 6.34 28.29a1.65 1.65 0 0 0 1.79 1.41H105a1.67 1.67 0 0 0 1.8-1.41l10.87-42c.22-.88-.17-1.39-1.06-1.39Zm239.84 0h-43.52a1.29 1.29 0 0 0-1.46 1.11 1 1 0 0 0 0 .3v7.48a1.31 1.31 0 0 0 1.17 1.42 1.51 1.51 0 0 0 .3 0h15.29v33.08a1.31 1.31 0 0 0 1.17 1.42 1.61 1.61 0 0 0 .31 0h10a1.32 1.32 0 0 0 1.46-1.18 1.77 1.77 0 0 0 0-.23v-33.1h15.3a1.29 1.29 0 0 0 1.46-1.13 1 1 0 0 0 0-.3v-7.46a1.3 1.3 0 0 0-1.17-1.42 1.15 1.15 0 0 0-.31.01Zm-183.87 44.8H210a1.29 1.29 0 0 0 1.46-1.11 1 1 0 0 0 0-.3v-7.49a1.31 1.31 0 0 0-1.17-1.42 1.51 1.51 0 0 0-.3 0H184V46.24a1.36 1.36 0 0 0-1.28-1.42h-10.14a1.29 1.29 0 0 0-1.46 1.11 1 1 0 0 0 0 .3v42a1.3 1.3 0 0 0 1.19 1.4Zm-3.84 9.6h-11.53c-3.13 0-4.53 1.31-4.53 4.36V114c0 3.05 1.4 4.36 4.53 4.36h11.53c3.16 0 4.51-1.31 4.51-4.36v-10.41c0-3.05-1.35-4.36-4.51-4.36Zm-1 13c0 1.48-.29 1.75-2.07 1.75h-5.51c-1.76 0-2.08-.27-2.08-1.75v-6.81c0-1.47.32-1.75 2.08-1.75h5.51c1.78 0 2.07.28 2.07 1.75Zm51.87-5.59h-8.75c-.89 0-1.16-.27-1.16-1v-1.06c0-.68.27-1 1.16-1h6.7c.65 0 .89.28.89.85v.16a.55.55 0 0 0 .49.6.29.29 0 0 0 .13 0h4a.55.55 0 0 0 .62-.47v-1.21c0-3.21-1.11-4.28-4.4-4.28h-10.47c-3.19 0-4.51 1.31-4.51 4.36v2.84c0 3.06 1.32 4.36 4.51 4.36h8.74c.9 0 1.17.28 1.17 1V113c0 .68-.27 1-1.17 1h-7.34c-.62 0-.86-.27-.86-.85V113a.56.56 0 0 0-.52-.6h-4.1a.55.55 0 0 0-.62.47v1.25c0 3.22 1.08 4.28 4.4 4.28h11.2c3.19 0 4.51-1.31 4.51-4.36v-3c-.06-3.1-1.41-4.41-4.57-4.41Zm85.43 0h-8.75c-.89 0-1.16-.27-1.16-1v-1.06c0-.68.27-1 1.16-1H303c.64 0 .89.28.89.85v.16a.55.55 0 0 0 .49.6.29.29 0 0 0 .13 0h4a.55.55 0 0 0 .62-.47v-1.21c0-3.21-1.11-4.28-4.4-4.28h-10.49c-3.19 0-4.51 1.31-4.51 4.36v2.84c0 3.06 1.32 4.36 4.51 4.36H303c.89 0 1.16.28 1.16 1V113c0 .68-.27 1-1.16 1h-7.34c-.62 0-.86-.27-.86-.85V113a.57.57 0 0 0-.54-.6h-4.13a.55.55 0 0 0-.62.47v1.25c0 3.22 1.08 4.28 4.4 4.28h11.2c3.18 0 4.51-1.31 4.51-4.36v-3c0-3.1-1.33-4.41-4.51-4.41Zm26.65-7.36h-4.21a.56.56 0 0 0-.63.48v6.78h-9.2v-6.71a.57.57 0 0 0-.53-.6.24.24 0 0 0-.12 0h-4.18a.55.55 0 0 0-.62.47v18a.55.55 0 0 0 .49.6.29.29 0 0 0 .13 0H317a.58.58 0 0 0 .65-.48v-7h9.2v6.84a.55.55 0 0 0 .51.6.24.24 0 0 0 .12 0h4.21a.55.55 0 0 0 .62-.47v-18a.56.56 0 0 0-.5-.6h-.12Zm-137.62 0H177a.55.55 0 0 0-.62.47v18a.55.55 0 0 0 .49.6.29.29 0 0 0 .13 0h4.19a.58.58 0 0 0 .65-.51v-6.64H192a.57.57 0 0 0 .64-.49v-3.3a.57.57 0 0 0-.53-.6.4.4 0 0 0-.11 0h-10.18v-3.19h12.3a.55.55 0 0 0 .62-.47v-3.32a.55.55 0 0 0-.49-.6.28.28 0 0 0-.13 0Zm146.47 0h-4.18a.55.55 0 0 0-.62.47v18a.55.55 0 0 0 .49.6.29.29 0 0 0 .13 0h4.18a.58.58 0 0 0 .65-.48v-18a.57.57 0 0 0-.54-.6h-.11Zm-100.28.6a.83.83 0 0 0-.86-.57h-6.16a.82.82 0 0 0-.89.57l-7.42 17.89c-.14.36 0 .63.38.63h4.45a.81.81 0 0 0 .86-.57l1-2.68h9.1l1 2.68a.8.8 0 0 0 .87.57h4.69c.33 0 .49-.27.35-.63Zm-7 11 2.89-7.52 2.92 7.52Zm30.9-11.6h-18.34a.55.55 0 0 0-.62.47V103a.55.55 0 0 0 .49.6h6.58v14.1a.55.55 0 0 0 .49.6.29.29 0 0 0 .13 0h4.21a.57.57 0 0 0 .62-.49v-14.19h6.46a.55.55 0 0 0 .62-.47v-3.32a.55.55 0 0 0-.49-.6.38.38 0 0 0-.15 0Zm18.46 0H271.1c-3.13 0-4.54 1.31-4.54 4.36V114c0 3.05 1.41 4.36 4.54 4.36h11.52c3.16 0 4.51-1.31 4.51-4.36v-10.41c0-3-1.31-4.36-4.51-4.36Zm-.94 13c0 1.48-.3 1.75-2.08 1.75h-5.51c-1.75 0-2.07-.27-2.07-1.75v-6.81c0-1.47.32-1.75 2.07-1.75h5.51c1.78 0 2.08.28 2.08 1.75Z" style="fill:#fad228"/></g></svg>