<?xml version="1.0" encoding="utf-8"?>
<svg id="master-artboard" viewBox="0 0 1058.033447265625 1058" xmlns="http://www.w3.org/2000/svg" width="1058.033447265625px" height="1058px" version="1.1" style="shape-rendering:geometricPrecision; text-rendering:geometricPrecision; image-rendering:optimizeQuality; fill-rule:evenodd; clip-rule:evenodd"><rect id="ee-background" x="0" y="0" width="1058.033447265625" height="1058" style="fill: rgb(30, 33, 39); fill-opacity: 1; pointer-events: none;"/><g transform="matrix(2.979367971420288, 0, 0, 2.979367971420288, -83.58778381347656, 321.1496057510376)"><title>MPLRS239-WalletofSatoshi-Icon-v9-MediaPack</title><path d="M 0 0 H 402.769989 V 163.139999 H 0 V 0 Z" class="cls-1" style="fill: rgb(30, 33, 39);"/><g id="Artwork"><path class="cls-2" d="M155.29,89.63h10.53c.84,0,1.22-.64.9-1.48l-17.6-42A2,2,0,0,0,147,44.83H132.45a2,2,0,0,0-2,1.34L110.82,92.94c-.32.84.06,1.48.83,1.48h13.7a1.43,1.43,0,0,1,1.32,1.93l-9.7,24.8,30.55-32.63a1,1,0,0,0-.7-1.69H129.55a1.42,1.42,0,0,1-1.44-1.4,1.27,1.27,0,0,1,.12-.6l5.06-12.91,6.86-17.47L146.93,72h-7.54a1.42,1.42,0,0,0-1.32.9l-2.83,7.22a1.43,1.43,0,0,0,.81,1.84,1.52,1.52,0,0,0,.51.09h13.26a1.42,1.42,0,0,1,1.33.91l2.08,5.36A1.92,1.92,0,0,0,155.29,89.63Zm62.65,0h37.42a1.3,1.3,0,0,0,1.45-1.12.94.94,0,0,0,0-.29V80.73a1.31,1.31,0,0,0-1.17-1.42,1.51,1.51,0,0,0-.3,0h-26V46.24a1.35,1.35,0,0,0-1.28-1.42H217.9a1.29,1.29,0,0,0-1.46,1.11,1,1,0,0,0,0,.3v42a1.29,1.29,0,0,0,1.19,1.4A1.16,1.16,0,0,0,217.94,89.63Zm45.36,0h42a1.3,1.3,0,0,0,1.51-1,1.45,1.45,0,0,0,0-.36V80.73a1.32,1.32,0,0,0-1.2-1.42H274.76V72h25.59a1.33,1.33,0,0,0,1.47-1.17,1.77,1.77,0,0,0,0-.23v-7a1.34,1.34,0,0,0-1.24-1.42H274.76v-7h30.59A1.31,1.31,0,0,0,306.82,54a1.71,1.71,0,0,0,0-.32V46.24a1.31,1.31,0,0,0-1.17-1.42,1.51,1.51,0,0,0-.3,0h-42a1.31,1.31,0,0,0-1.52,1,1.53,1.53,0,0,0,0,.37v42a1.3,1.3,0,0,0,1.19,1.4A1.41,1.41,0,0,0,263.3,89.63ZM116.61,44.83H106.43a1.71,1.71,0,0,0-1.85,1.41L96.9,79.13,89.73,46.24a1.65,1.65,0,0,0-1.79-1.41H75.2a1.71,1.71,0,0,0-1.85,1.41L66.18,79.13,58.5,46.24a1.65,1.65,0,0,0-1.79-1.41H46c-.9,0-1.28.51-1.09,1.41l10.88,42a1.69,1.69,0,0,0,1.79,1.41H73.22A1.65,1.65,0,0,0,75,88.24l6.27-28.31,6.34,28.29a1.65,1.65,0,0,0,1.79,1.41H105a1.67,1.67,0,0,0,1.8-1.41l10.87-42C117.89,45.34,117.5,44.83,116.61,44.83Zm239.84,0H312.93a1.29,1.29,0,0,0-1.46,1.11,1,1,0,0,0,0,.3v7.48a1.31,1.31,0,0,0,1.17,1.42,1.51,1.51,0,0,0,.3,0h15.29V88.22a1.31,1.31,0,0,0,1.17,1.42,1.61,1.61,0,0,0,.31,0h10a1.32,1.32,0,0,0,1.46-1.18,1.77,1.77,0,0,0,0-.23V55.13h15.3A1.29,1.29,0,0,0,357.93,54a1,1,0,0,0,0-.3V46.24a1.3,1.3,0,0,0-1.17-1.42A1.15,1.15,0,0,0,356.45,44.83ZM172.58,89.63H210a1.29,1.29,0,0,0,1.46-1.11,1,1,0,0,0,0-.3V80.73a1.31,1.31,0,0,0-1.17-1.42,1.51,1.51,0,0,0-.3,0H184V46.24a1.36,1.36,0,0,0-1.28-1.42H172.58a1.29,1.29,0,0,0-1.46,1.11,1,1,0,0,0,0,.3v42a1.3,1.3,0,0,0,1.19,1.4Zm-3.84,9.6H157.21c-3.13,0-4.53,1.31-4.53,4.36V114c0,3.05,1.4,4.36,4.53,4.36h11.53c3.16,0,4.51-1.31,4.51-4.36V103.59C173.25,100.54,171.9,99.23,168.74,99.23Zm-1,13c0,1.48-.29,1.75-2.07,1.75h-5.51c-1.76,0-2.08-.27-2.08-1.75v-6.81c0-1.47.32-1.75,2.08-1.75h5.51c1.78,0,2.07.28,2.07,1.75Zm51.87-5.59h-8.75c-.89,0-1.16-.27-1.16-1v-1.06c0-.68.27-1,1.16-1h6.7c.65,0,.89.28.89.85v.16a.55.55,0,0,0,.49.6.29.29,0,0,0,.13,0h4a.55.55,0,0,0,.62-.47v-1.21c0-3.21-1.11-4.28-4.4-4.28H208.82c-3.19,0-4.51,1.31-4.51,4.36v2.84c0,3.06,1.32,4.36,4.51,4.36h8.74c.9,0,1.17.28,1.17,1V113c0,.68-.27,1-1.17,1h-7.34c-.62,0-.86-.27-.86-.85V113a.56.56,0,0,0-.52-.6h-4.1a.55.55,0,0,0-.62.47v1.25c0,3.22,1.08,4.28,4.4,4.28h11.2c3.19,0,4.51-1.31,4.51-4.36v-3c-.06-3.1-1.41-4.41-4.57-4.41Zm85.43,0h-8.75c-.89,0-1.16-.27-1.16-1v-1.06c0-.68.27-1,1.16-1H303c.64,0,.89.28.89.85v.16a.55.55,0,0,0,.49.6.29.29,0,0,0,.13,0h4a.55.55,0,0,0,.62-.47v-1.21c0-3.21-1.11-4.28-4.4-4.28H294.24c-3.19,0-4.51,1.31-4.51,4.36v2.84c0,3.06,1.32,4.36,4.51,4.36H303c.89,0,1.16.28,1.16,1V113c0,.68-.27,1-1.16,1h-7.34c-.62,0-.86-.27-.86-.85V113a.57.57,0,0,0-.54-.6h-4.13a.55.55,0,0,0-.62.47v1.25c0,3.22,1.08,4.28,4.4,4.28h11.2c3.18,0,4.51-1.31,4.51-4.36v-3c0-3.1-1.33-4.41-4.51-4.41Zm26.65-7.36h-4.21a.56.56,0,0,0-.63.48v6.78h-9.2V99.83a.57.57,0,0,0-.53-.6.24.24,0,0,0-.12,0h-4.18a.55.55,0,0,0-.62.47v18a.55.55,0,0,0,.49.6.29.29,0,0,0,.13,0H317a.58.58,0,0,0,.65-.48v-7h9.2v6.84a.55.55,0,0,0,.51.6.24.24,0,0,0,.12,0h4.21a.55.55,0,0,0,.62-.47v-18a.56.56,0,0,0-.5-.6h-.12Zm-137.62,0H177a.55.55,0,0,0-.62.47v18a.55.55,0,0,0,.49.6.29.29,0,0,0,.13,0h4.19a.58.58,0,0,0,.65-.51V111.2H192a.57.57,0,0,0,.64-.49v-3.3a.57.57,0,0,0-.53-.6.4.4,0,0,0-.11,0H181.82v-3.19h12.3a.55.55,0,0,0,.62-.47V99.83a.55.55,0,0,0-.49-.6.28.28,0,0,0-.13,0Zm146.47,0h-4.18a.55.55,0,0,0-.62.47v18a.55.55,0,0,0,.49.6.29.29,0,0,0,.13,0h4.18a.58.58,0,0,0,.65-.48v-18a.57.57,0,0,0-.54-.6h-.11Zm-100.28.6a.83.83,0,0,0-.86-.57h-6.16a.82.82,0,0,0-.89.57l-7.42,17.89c-.14.36,0,.63.38.63h4.45a.81.81,0,0,0,.86-.57l1-2.68h9.1l1,2.68a.8.8,0,0,0,.87.57h4.69c.33,0,.49-.27.35-.63Zm-7,11,2.89-7.52,2.92,7.52Zm30.9-11.6H245.82a.55.55,0,0,0-.62.47V103a.55.55,0,0,0,.49.6h6.58v14.1a.55.55,0,0,0,.49.6.29.29,0,0,0,.13,0h4.21a.57.57,0,0,0,.62-.49V103.62h6.46a.55.55,0,0,0,.62-.47V99.83a.55.55,0,0,0-.49-.6A.38.38,0,0,0,264.16,99.23Zm18.46,0H271.1c-3.13,0-4.54,1.31-4.54,4.36V114c0,3.05,1.41,4.36,4.54,4.36h11.52c3.16,0,4.51-1.31,4.51-4.36V103.59c0-3-1.31-4.36-4.51-4.36Zm-.94,13c0,1.48-.3,1.75-2.08,1.75h-5.51c-1.75,0-2.07-.27-2.07-1.75v-6.81c0-1.47.32-1.75,2.07-1.75h5.51c1.78,0,2.08.28,2.08,1.75Z" style="fill: rgb(250, 210, 40);"/></g></g></svg>